<svg width="230" height="235" viewBox="0 0 230 235" fill="none" xmlns="http://www.w3.org/2000/svg">
<rect x="1.5" y="6.5" width="200" height="200" rx="100" fill="white"/>
<rect x="1.5" y="6.5" width="200" height="200" rx="100" stroke="#47567B" stroke-width="3"/>
<path d="M100.002 99.2528C101.268 93.1291 102.113 86.1877 98.4009 80.6953C95.5064 76.4138 90.2348 75.3926 85.7049 77.68C80.5679 80.2744 78.5151 86.129 78.2667 91.5524C77.9838 97.7659 80.3367 103.617 83.4452 108.875C87.2919 115.382 91.494 121.699 95.5271 128.091C95.9618 128.781 96.3482 129.257 97.2038 128.978C109.755 124.921 120.743 115.923 124.452 102.889C126.149 96.9206 127.019 88.5992 122.81 83.4311C119.539 79.4188 113.46 79.3118 109.168 81.613C102.793 85.0285 100.499 92.9152 99.1668 99.4805L102.493 101.316C102.993 96.7792 106.795 93.3844 110.783 91.6525C113.25 90.5795 115.906 90.0793 118.583 89.9482C120.96 89.8309 123.12 89.5756 123.714 92.2804C124.673 96.6481 122.717 101.557 120.667 105.349C118.618 109.141 115.72 112.615 112.363 115.361C108.43 118.573 103.766 120.995 98.8253 122.195C99.1151 124.338 99.4049 126.48 99.6947 128.623C103.314 123.71 106.343 118.387 108.603 112.718C110.924 106.895 112.253 100.999 113.295 94.8403C113.484 93.719 113.736 93.0187 114.964 92.6944C116.068 92.4011 117.428 92.6426 118.528 92.8358C119.129 92.9393 119.715 93.067 120.284 93.2843C120.695 93.443 121.319 94.0088 121.702 94.0709C121.878 92.0975 121.719 91.6352 121.233 92.6875C121.005 93.0394 120.774 93.3947 120.543 93.7466C120.05 94.4987 119.556 95.2474 119.063 95.9995C115.244 101.816 111.414 107.629 107.574 113.436C108.271 115.244 108.968 117.048 109.665 118.856C111.093 116.51 112.739 114.302 114.561 112.246C116.189 110.407 118.401 108.868 119.801 106.86C121.433 104.521 121.285 101.444 121.288 98.7181C121.292 95.4923 121.074 92.2597 120.698 89.0546C120.526 87.578 118.918 85.1941 117.814 87.5332C114.985 93.5189 113.001 99.7807 111.77 106.28L114.654 104.759C113.139 101.416 112.891 97.6348 114.233 94.1848L112.556 95.0714C112.674 95.1404 113.612 95.927 113.212 95.5993L113.222 94.9748C113.15 95.2853 113.05 95.5889 112.922 95.8822C112.425 97.1173 111.732 98.2937 111.131 99.4805C109.789 102.116 108.451 104.756 107.109 107.391C106.401 108.782 106.36 110.886 107.109 112.27C107.771 113.488 108.892 113.557 109.548 112.27C111.618 108.199 114.071 104.145 115.716 99.8842C117.107 96.2824 117.276 90.6623 113.474 88.4129C112.784 88.0058 112.035 88.6855 111.797 89.2996C109.23 95.9029 109.282 103.151 112.218 109.634C113.326 112.083 114.844 109.465 115.102 108.112C116.134 102.675 117.897 97.4105 120.26 92.408L117.376 90.8866C117.669 93.3775 117.831 95.8684 117.842 98.3765C117.842 99.1286 118.111 100.795 117.776 101.506C117.969 101.095 116.934 102.168 116.976 102.127C116.558 102.527 116.12 102.903 115.699 103.303C112.38 106.453 109.603 110.069 107.229 113.971C106.488 115.188 106.567 117.234 107.095 118.5C107.423 119.287 108.509 120.619 109.32 119.39C112.912 113.96 116.493 108.523 120.07 103.079C121.644 100.685 123.865 98.1488 124.659 95.3612C125.435 92.6357 125.011 89.1064 122.565 87.3538C120.819 86.1049 118.076 85.6253 115.965 85.6874C113.201 85.7668 111.452 87.5297 110.61 90.062C109.769 92.5943 109.7 95.2957 109.158 97.8625C108.589 100.543 107.826 103.193 106.922 105.78C104.818 111.818 101.741 117.521 97.9524 122.661C97.1555 123.744 96.9761 125.252 97.1589 126.556C97.2521 127.219 97.773 129.344 98.8218 129.088C109.834 126.411 119.191 118.711 124.003 108.437C126.85 102.365 128.395 95.206 126.646 88.6027C125.884 85.7219 124.404 83.2172 121.185 83.0344C117.966 82.8515 114.782 83.3069 111.77 84.2764C104.952 86.4706 99.95 92.3183 99.1599 99.4805C99.0288 100.681 99.0185 103.103 100.364 103.724C101.709 104.345 102.306 102.206 102.486 101.316C103.397 96.8275 105.025 91.7318 108.951 88.958C112.073 86.7535 117.096 85.9772 120.257 88.5613C123.738 91.4075 122.213 97.4105 120.964 100.995C119.267 105.863 116.072 110.144 112.256 113.563C107.702 117.645 102.065 120.45 96.2792 122.32L97.9559 123.206C94.2471 117.331 90.4797 111.487 86.8296 105.57C84.1352 101.202 80.6852 95.6924 81.8961 90.3035C82.9242 85.7288 87.8163 82.3789 92.4842 83.507C99.0461 85.0906 97.6626 92.5771 96.6621 97.4071C96.4206 98.5663 96.5897 101.064 97.8662 101.651C99.2703 102.296 99.8051 100.129 99.9879 99.2425L100.002 99.2528Z" fill="#DC332E"/>
<path d="M108.282 88.7958C105.28 93.7397 101.951 98.6111 99.3288 103.769C96.7723 108.795 96.0961 114.34 95.6304 119.887C95.5303 121.084 96.0754 125.766 98.1627 123.782C106.198 116.154 105.145 104.297 110.176 95.1335L107.291 93.612C108.016 99.6254 108.016 106.501 102.851 110.669C101.64 111.645 101.44 113.446 101.647 114.912C101.737 115.554 102.572 118.29 103.769 117.32C111.383 111.173 111.7 100.736 110.621 91.7732C110.427 90.1793 108.951 88.0437 107.736 90.2517C105.118 95.0196 104.069 100.329 102.703 105.539C101.506 110.1 99.9118 114.505 96.4204 117.821C97.2657 119.118 98.1109 120.419 98.9527 121.716C99.3702 116.73 99.8842 112.001 102.341 107.553C104.949 102.83 107.916 98.2799 110.714 93.6672C111.504 92.3666 111.424 90.0999 110.714 88.7889C110.003 87.4779 108.999 87.5918 108.275 88.7889L108.282 88.7958Z" fill="#DC332E"/>
<path d="M97.3694 116.21C94.7784 112.487 93.4778 108.033 91.7976 103.865C90.9144 101.675 89.9208 99.5426 88.6443 97.552C88.0302 96.5929 87.354 95.6924 86.6468 94.7989C86.319 94.3814 85.9464 93.9709 85.6842 93.5086C85.6118 93.3809 85.3047 92.408 85.3185 92.7151C85.3323 93.0221 85.4427 92.2631 85.5324 92.0423C85.7256 91.549 86.043 91.1315 86.3915 90.7382C87.0746 89.9723 87.9405 89.4065 88.8686 88.9787C89.7966 88.5509 90.8523 88.2542 91.9046 88.2094C91.9149 88.2094 93.0465 88.3232 92.6774 88.0783C92.9948 88.2887 93.2018 89.9482 93.3156 90.3518C94.0781 93.0566 94.8405 95.7614 95.5995 98.4697C96.2964 100.964 97.0934 103.493 96.6725 106.101C96.4793 107.302 96.5862 109.368 97.6695 110.172C98.7528 110.976 99.5049 109.71 99.8223 108.761C100.174 107.709 100.53 106.66 100.881 105.608C101.271 104.445 101.382 101.174 99.8499 100.54C98.4044 99.9394 98.4458 98.8595 98.5251 97.4485C98.6321 95.582 98.8563 93.7535 98.6907 91.8836C98.4251 88.9166 97.3487 85.5632 94.5266 84.1177C92.2634 82.9585 91.5354 89.7067 93.6089 90.7727C96.3206 92.1631 95.0993 95.6269 95.051 98.066C94.9889 101.202 95.5961 105.811 98.9322 107.195L97.9007 102.127C97.5488 103.179 97.1934 104.228 96.8415 105.28C97.8938 106.167 98.9426 107.053 99.9948 107.94C100.978 101.844 98.8322 95.9132 97.2038 90.1207C96.8381 88.8235 96.4724 87.5228 96.1067 86.2256C95.741 84.9284 95.4822 83.3897 94.568 82.3306C93.1121 80.6435 90.4797 81.3715 88.665 82.0373C83.6832 83.8693 81.32 89.3548 81.9858 94.4056C82.3412 97.0966 83.6073 99.1148 85.2564 101.206C86.7089 103.048 87.7922 105.09 88.7237 107.24C90.9248 112.315 92.429 117.586 95.6237 122.175C96.5448 123.496 97.7178 121.819 97.9835 120.936C98.4458 119.397 98.294 117.548 97.3659 116.216L97.3694 116.21Z" fill="#DC332E"/>
<path d="M81.0991 87.5814C80.209 93.4499 79.5845 101.047 84.4249 105.511C85.4806 106.484 86.8123 107.091 87.8645 108.054C88.7857 108.896 89.2204 110.027 89.7379 111.135C90.697 113.194 92.2943 116.023 94.8991 116.182C98.0179 116.372 98.0938 111.863 98.1973 109.765C98.3594 106.505 98.2421 103.234 97.9247 99.9876C97.2968 93.5534 95.6512 87.2916 93.2258 81.3059C92.6911 79.9845 91.3766 80.1191 90.7867 81.3059C90.0001 82.8894 89.2135 84.473 88.4269 86.0565C87.73 87.4572 87.6713 89.5445 88.4269 90.9348C89.0824 92.1423 90.2209 92.2355 90.866 90.9348C91.6526 89.3513 92.4392 87.7677 93.2258 86.1842H90.7867C92.491 90.3897 93.6743 94.8092 94.2988 99.3045C94.6058 101.516 94.7852 103.731 94.8163 105.963C94.8335 107.229 94.8266 108.499 94.7473 109.765C94.7266 110.1 94.5575 111.259 94.9784 109.903C95.2889 108.896 95.075 109.468 94.247 109.027C92.6324 108.168 92.1701 106.046 91.3697 104.552C90.3658 102.686 88.9996 101.492 87.2642 100.319C83.2657 97.614 83.7763 93.7121 84.4283 89.4168C84.6077 88.2335 84.5422 85.7805 83.2243 85.1733C81.9064 84.5661 81.2405 86.6775 81.1025 87.5814H81.0991Z" fill="#DC332E"/>
<path d="M88.7754 87.0605L88.1613 88.9891C87.9992 89.5031 87.3437 90.7175 87.4472 91.2385C87.1953 91.6663 87.3954 91.7905 88.0406 91.6076C87.9612 91.1419 87.9474 91.0108 88.0061 91.2109C88.0923 91.5283 87.8025 92.1493 87.7991 92.1389C87.7508 92.0354 88.3407 92.4149 88.4373 92.5598C88.6719 92.9152 88.7271 93.7018 88.7927 94.0916C88.9583 95.0783 88.9997 96.0754 88.9134 97.0724C88.5788 100.957 87.6852 108.62 93.3915 109.127C95.4408 109.31 95.1407 104.963 94.8819 103.934C93.671 99.1424 92.2668 94.2952 89.01 90.4553C88.2476 89.5583 87.3678 90.1759 86.9193 90.9935C86.2776 92.1631 86.2362 93.9295 86.6502 95.1749C88.3476 100.291 90.9179 105.001 94.4127 109.113C96.0273 111.014 97.0623 107.177 97.0071 106.136C96.7898 101.944 96.3102 97.7969 95.4512 93.6845C94.8164 90.6485 94.392 85.7771 91.4319 84.028C90.4521 83.4484 89.6655 84.8905 89.4827 85.615C87.9923 91.5593 89.5551 98.2454 94.2747 102.354C99.0909 106.55 105.711 106.912 111.625 105.225L109.676 103.638L109.81 104.028L109.638 101.368L109.762 100.326L109.324 100.533C108.965 100.547 108.461 100.85 108.116 100.964C107.154 101.288 106.177 101.571 105.184 101.799C103.41 102.206 101.616 102.458 99.8016 102.599C97.3659 102.789 97.4487 109.617 99.8016 109.499C101.609 109.41 103.417 109.316 105.225 109.227C107.771 109.099 107.464 102.913 105.225 102.327C101.209 101.278 97.121 100.809 92.9741 100.926C90.5556 100.992 90.5936 107.892 92.9741 107.826C97.121 107.712 101.209 108.178 105.225 109.227V102.327C103.417 102.416 101.609 102.51 99.8016 102.599V109.499C102.948 109.251 106.043 108.63 109.03 107.619C110.355 107.171 111.442 106.694 112.208 105.484C113.174 103.952 113.236 101.83 112.653 100.153C112.318 99.1976 111.825 98.2489 110.704 98.5663C106.274 99.8324 101.22 99.6496 97.2176 97.2104C94.7336 95.6959 91.6562 92.2873 92.4566 89.0926L90.5073 90.6796C91.3077 91.1522 91.425 92.722 91.632 93.5396C91.9701 94.8679 92.2703 96.203 92.5187 97.552C93.0396 100.388 93.3984 103.258 93.5502 106.139C94.4162 105.145 95.2821 104.152 96.1446 103.162C93.2604 99.7669 91.0248 95.9305 89.6207 91.6973C88.8341 93.2705 88.0475 94.8437 87.2609 96.4169C89.9208 99.5495 90.911 103.52 91.8977 107.422C92.3945 105.691 92.8913 103.962 93.3881 102.23C91.5182 102.065 91.9943 100.916 92.1668 99.4909C92.4324 97.2829 92.4738 95.068 92.2013 92.8565C91.9287 90.6451 90.4418 83.1827 86.6468 85.6357C83.8005 87.4745 84.1145 93.4327 85.4876 96.0305C86.2949 97.5623 88.1199 98.4248 89.3999 96.9137C90.7523 95.3198 91.1352 92.4977 91.7562 90.545C92.1806 89.2064 92.2116 86.9018 91.1387 85.8254C90.0657 84.749 89.1239 85.9807 88.7789 87.064L88.7754 87.0605Z" fill="#DC332E"/>
<path d="M147.546 73.157C151.976 73.2122 152.48 66.7469 151.169 63.7592C149.63 60.2505 145.304 58.9913 141.754 59.8917C137.762 60.9026 137.444 66.3294 138.99 69.4517C140.953 73.4157 144.959 72.8292 148.695 72.6705C151.127 72.567 151.058 65.6705 148.695 65.7705C146.953 65.8464 145.066 66.2397 143.341 65.8326C142.578 65.6532 142.278 65.184 141.66 64.908C141.595 64.8804 141.543 64.7183 141.471 64.7079L141.219 67.2195C141.367 67.0505 141.547 66.9263 141.757 66.8538C143.24 66.5261 144.803 66.4398 146.314 66.8331C147.118 67.0436 147.598 67.5645 148.291 67.8888C148.688 68.5064 148.785 68.2166 148.574 67.0298C148.898 65.9534 148.867 65.6084 148.488 65.9948C148.571 66.0258 147.515 66.257 147.546 66.257C145.166 66.2259 145.121 73.1259 147.546 73.157Z" fill="#DC332E"/>
<path d="M165.362 145.196C166.559 145.29 167.639 145.11 168.705 144.827C168.971 144.758 169.236 144.669 169.509 144.644C169.899 144.61 170.223 144.765 170.351 145.165C170.475 145.562 170.306 145.876 169.968 146.08C169.757 146.207 169.519 146.294 169.285 146.366C168.063 146.749 166.808 146.897 165.531 146.88C165.148 146.877 164.862 146.925 164.686 147.353C163.779 149.547 162.088 150.992 160.077 152.145C157.41 153.673 154.546 154.58 151.534 155.129C145.939 156.154 140.294 156.302 134.636 156.109C129.813 155.947 124.997 155.636 120.177 155.398C114.744 155.129 109.317 155.236 103.893 155.684C100.819 155.94 97.749 156.399 94.6509 156.25C91.8426 156.116 89.0343 155.95 86.2329 155.702C80.1091 155.157 73.9888 154.574 67.8685 153.959C63.8493 153.556 59.8956 152.804 56.1178 151.327C53.4199 150.275 50.8014 149.033 48.2656 147.625C45.102 145.873 42.856 143.23 41.0379 140.173C39.6579 137.851 38.7678 135.36 38.1675 132.725C36.5149 125.466 36.3079 118.138 36.9427 110.762C37.5672 103.503 38.5332 96.2892 39.8373 89.1236C40.3272 86.4395 40.9206 83.7726 41.5036 81.1058C42.0798 78.4734 43.063 75.9929 44.4534 73.6814C44.5534 73.5158 44.6535 73.3536 44.757 73.188C46.3474 70.5867 48.6175 69.0342 51.6535 68.5512C55.0897 68.0027 58.5501 67.7232 62.007 67.3851C63.9217 67.1988 65.833 66.878 67.7236 66.5088C68.5171 66.3536 69.2796 65.9672 70.011 65.598C70.9735 65.1081 71.6428 64.3284 72.0568 63.3038C72.5019 62.2067 73.0332 61.1441 73.5231 60.0642C74.6374 57.6009 76.3866 55.6965 78.667 54.2786C80.1919 53.3298 81.7444 52.4466 83.5833 52.2189C86.188 51.8981 88.7997 51.7359 91.4251 51.8187C93.4917 51.8843 95.5617 51.9809 97.6282 51.9705C100.164 51.9567 102.703 51.8877 105.235 51.7704C109.355 51.5807 113.446 51.8429 117.531 52.3397C121.944 52.8744 125.125 55.1756 127.384 58.9395C128.675 61.0889 130.093 63.1623 131.452 65.2703C132.359 66.6779 133.546 67.8267 134.843 68.8652C135.116 69.0825 135.454 69.2654 135.789 69.3516C137.038 69.6621 138.297 69.9243 139.553 70.2072C139.58 70.1555 139.608 70.1003 139.635 70.0485C139.528 69.9174 139.425 69.7829 139.318 69.6518C139.09 69.3758 138.832 69.1205 138.631 68.8272C136.875 66.2052 137.693 63.6246 139.977 62.048C142.547 60.2712 146.077 60.4265 148.585 62.2929C149.892 63.2658 150.948 64.4423 151.631 65.9327C152.017 66.7779 152.242 67.6473 152.017 68.5823C151.993 68.6823 152.017 68.7927 152.017 68.948C152.235 69.0066 152.442 69.0687 152.649 69.117C153.535 69.324 154.419 69.5379 155.309 69.7242C158.186 70.3314 160.17 72.1185 161.591 74.5784C162.833 76.7243 163.627 79.0254 163.779 81.537C163.954 84.5109 164.168 87.4814 164.427 90.4484C164.624 92.7012 164.962 94.9403 165.152 97.1931C165.348 99.5288 165.472 101.871 165.562 104.21C165.831 111.183 166.052 118.155 166.321 125.124C166.435 128.109 166.187 131.076 166.018 134.049C165.938 135.454 165.849 136.858 165.828 138.262C165.793 140.415 165.748 142.564 165.397 144.693C165.376 144.824 165.383 144.962 165.372 145.196H165.362ZM163.109 146.842C162.788 146.777 162.581 146.718 162.371 146.694C156.989 145.997 151.724 144.796 146.673 142.792C142.882 141.288 139.139 139.652 135.378 138.072C134.654 137.769 134.657 137.762 134.098 138.3C125.701 146.325 115.717 150.841 104.138 151.7C94.6026 152.407 85.6533 150.361 77.3905 145.524C63.7423 137.534 55.6072 123.078 55.9315 107.277C56.1385 97.2311 59.4816 88.2645 65.6674 80.3744C76.1727 66.9746 93.333 60.185 110.166 62.7759C119.556 64.2215 127.798 68.1096 134.678 74.7233C145.652 85.2734 150.251 100.574 146.936 115.413C145.228 123.058 141.736 129.792 136.589 135.681C136.379 135.923 136.178 136.171 135.927 136.475C136.268 136.64 136.506 136.768 136.755 136.875C138.804 137.762 140.857 138.648 142.906 139.532C149.013 142.171 155.319 144.11 161.933 144.976C162.471 145.045 163.013 145.086 163.603 145.145C163.896 143.806 164.037 142.55 164.099 141.288C164.275 137.624 164.403 133.96 164.607 130.296C164.848 125.987 164.479 121.695 164.362 117.396C164.241 112.932 164.068 108.464 163.91 104C163.861 102.623 163.82 101.24 163.696 99.8703C163.444 97.0689 163.102 94.2779 162.861 91.473C162.578 88.2024 162.333 84.9318 162.126 81.6543C161.981 79.367 161.25 77.2763 160.111 75.327C158.928 73.2984 157.293 71.808 154.898 71.3181C153.818 71.0973 152.742 70.8558 151.666 70.6109C151.265 70.5212 150.92 70.6109 150.555 70.7868C149.961 71.0766 149.354 71.3526 148.726 71.5493C145.821 72.4601 142.868 72.5187 139.894 71.9702C138.863 71.7804 137.838 71.57 136.817 71.3354C135.54 71.0456 134.347 70.5419 133.312 69.7277C132.094 68.7651 131.031 67.6439 130.179 66.3363C128.764 64.1663 127.305 62.0204 125.97 59.7986C123.979 56.4969 121.219 54.4476 117.328 53.975C113.212 53.4747 109.093 53.2332 104.946 53.4299C100.923 53.6196 96.8968 53.7266 92.8707 53.5196C90.3315 53.3885 87.7957 53.3988 85.2703 53.6921C84.2871 53.8059 83.2521 53.8577 82.3551 54.2234C79.0948 55.5482 76.3969 57.5595 74.9341 60.9129C74.4373 62.0514 73.8991 63.1692 73.4023 64.3043C72.9918 65.2427 72.3639 65.981 71.5393 66.5778C70.3801 67.4196 69.0864 67.9199 67.696 68.2373C65.0499 68.8445 62.352 68.9963 59.661 69.2619C57.0562 69.5172 54.4584 69.8657 51.8605 70.2038C49.2972 70.5384 47.4376 71.9288 46.1197 74.1092C46.0335 74.2506 45.9472 74.3921 45.861 74.5335C44.5707 76.6794 43.6495 78.9771 43.1182 81.4197C42.5421 84.059 41.9487 86.6982 41.4657 89.3547C40.165 96.4928 39.2025 103.683 38.5815 110.914C37.957 118.183 38.1951 125.393 39.8062 132.549C40.6929 136.471 42.4593 139.887 45.0399 142.923C46.1232 144.199 47.4135 145.231 48.8625 146.055C51.5742 147.601 54.3928 148.94 57.3219 150.013C60.7581 151.275 64.3392 151.931 67.9686 152.314C75.4827 153.111 83.0002 153.859 90.5385 154.398C93.7608 154.629 96.9762 154.667 100.205 154.36C103.579 154.039 106.967 153.808 110.355 153.659C115.737 153.418 121.105 153.787 126.477 154.056C129.92 154.229 133.363 154.429 136.81 154.498C141.364 154.591 145.904 154.398 150.413 153.645C153.57 153.118 156.599 152.276 159.376 150.637C160.604 149.913 161.712 149.071 162.526 147.887C162.737 147.584 162.888 147.235 163.106 146.832L163.109 146.842ZM86.5261 113.215C86.2915 112.735 86.0983 112.342 85.9017 111.949C85.0288 110.196 84.1353 108.454 83.2831 106.691C81.6789 103.379 80.4196 99.9393 79.6227 96.341C78.8671 92.9151 78.6049 89.472 79.2156 85.9944C79.7193 83.124 80.8785 80.609 82.9761 78.5114C86.6055 74.8785 93.6366 74.2989 97.749 78.1629C100.157 80.4227 101.765 83.1137 102.372 86.3774C102.441 86.7431 102.503 87.1088 102.565 87.4641C102.686 87.4503 102.727 87.4607 102.738 87.4469C102.907 87.233 103.072 87.0156 103.241 86.8017C105.505 83.9244 108.285 81.8648 112.022 81.4266C113.139 81.2955 114.281 81.3059 115.406 81.368C118.411 81.5405 121.116 82.5272 123.434 84.4868C124.776 85.6218 125.704 87.0225 126.215 88.7096C126.877 90.89 126.964 93.1014 126.605 95.3405C125.884 99.8462 124.159 103.972 121.813 107.854C118.904 112.659 115.134 116.679 110.68 120.074C110.428 120.263 110.193 120.474 109.955 120.674C110.065 120.833 110.103 120.908 110.162 120.964C110.414 121.219 110.669 121.471 110.928 121.716C115.51 126.077 120.705 129.513 126.498 132.042C127.257 132.373 127.267 132.397 127.823 131.776C135.485 123.165 139.052 113.149 137.807 101.626C135.896 83.9589 121.261 70.7799 103.476 70.6419C93.954 70.5695 85.498 73.6779 78.36 79.9362C68.4447 88.6302 63.8976 99.6357 64.9222 112.86C64.974 113.508 65.2293 113.922 65.7571 114.267C67.3372 115.309 69.0933 115.84 70.9425 116.089C73.4506 116.423 75.9346 116.285 78.429 115.833C80.9716 115.375 83.4004 114.605 85.7706 113.601C85.9948 113.508 86.2053 113.381 86.5227 113.222L86.5261 113.215ZM132.973 137.217C132.939 137.134 132.901 137.054 132.867 136.972C132.625 136.847 132.384 136.72 132.139 136.599C130.948 136.019 129.755 135.447 128.568 134.864C127.402 134.291 127.674 134.36 126.822 135.126C117.586 143.43 106.843 147.163 94.4508 145.535C80.7094 143.73 69.2796 134.187 65.005 120.946C61.524 110.155 62.7246 99.7289 68.1618 89.8446C76.0278 75.5444 91.7494 67.323 107.568 69.255C116.479 70.3452 124.121 74.1057 130.12 80.8022C138.428 90.0723 141.191 100.995 138.997 113.167C137.679 120.477 134.374 126.867 129.465 132.428C129.275 132.645 129.099 132.873 128.889 133.128C129.12 133.27 129.254 133.363 129.399 133.435C130.79 134.108 132.177 134.784 133.574 135.443C134.267 135.771 134.305 135.781 134.819 135.157C136.027 133.691 137.3 132.259 138.38 130.703C144.655 121.661 147.405 111.649 145.994 100.698C144.307 87.6435 137.683 77.5695 126.605 70.5729C116.614 64.2629 105.632 62.4102 94.1058 64.8149C79.5019 67.8612 68.6103 76.0722 61.9345 89.4755C54.6343 104.138 56.4697 121.402 66.5886 133.974C74.8065 144.186 85.6671 149.492 98.6908 150.099C111.508 150.696 122.682 146.435 132.197 137.824C132.439 137.603 132.715 137.42 132.977 137.22L132.973 137.217ZM65.4673 116.113C65.5191 116.448 65.5467 116.689 65.595 116.924C68.8069 132.09 81.9859 143.399 97.4661 144.21C108.106 144.769 117.348 141.322 125.297 134.284C125.497 134.105 125.68 133.905 125.904 133.68C123.752 132.545 121.609 131.534 119.594 130.313C117.593 129.102 115.661 127.76 113.812 126.328C111.946 124.883 110.217 123.261 108.416 121.709C108.347 121.733 108.265 121.747 108.196 121.788C104.604 124.12 100.581 125.521 96.6415 127.087C95.4064 127.577 95.058 127.425 94.3576 126.259C93.5607 124.938 92.7568 123.62 91.953 122.302C90.5419 119.998 89.1274 117.7 87.7095 115.399C87.6129 115.244 87.4852 115.106 87.361 114.947C87.0919 115.05 86.8608 115.13 86.6331 115.223C83.19 116.617 79.6537 117.607 75.9208 117.828C72.4329 118.035 69.0312 117.817 65.8434 116.206C65.7744 116.172 65.6881 116.165 65.4708 116.106L65.4673 116.113ZM108.668 119.48C109.003 119.246 109.262 119.09 109.489 118.901C110.959 117.652 112.491 116.465 113.878 115.133C118.632 110.558 122.116 105.166 124.11 98.8526C124.735 96.8757 125.201 94.8506 125.17 92.7633C125.104 88.3404 123.576 85.2285 118.132 83.4932C116.162 82.8653 114.112 82.8446 112.066 83.0654C110.673 83.2172 109.407 83.7278 108.213 84.4626C105.96 85.8495 104.301 87.7401 103.203 90.1448C102.845 90.9348 102.61 91.7283 102.527 92.5977C102.331 94.716 101.979 96.8205 101.199 98.8077C100.609 100.308 100.402 101.833 100.405 103.413C100.405 103.91 100.405 104.407 100.378 104.9C100.281 106.681 100.719 108.337 101.489 109.931C102.748 112.535 104.414 114.854 106.336 117C107.071 117.817 107.84 118.604 108.668 119.48ZM88.0614 112.404C88.2166 112.346 88.3512 112.311 88.465 112.245C90.5626 111.055 92.4912 109.648 94.1472 107.874C95.9584 105.935 97.2694 103.683 98.4286 101.323C98.7736 100.619 98.9806 99.8876 99.06 99.1113C99.3187 96.6032 99.8673 94.164 100.726 91.7904C100.875 91.3799 100.999 90.9417 101.016 90.5105C101.085 88.8786 100.954 87.2571 100.53 85.6736C99.8914 83.2931 98.6011 81.3162 96.8658 79.5843C93.2191 75.9515 86.2225 76.3034 82.8588 81.161C82.2274 82.0752 81.7203 83.0481 81.3822 84.1073C80.5818 86.6154 80.3955 89.1857 80.6025 91.7939C80.9199 95.7959 81.9825 99.6185 83.5833 103.272C84.877 106.225 86.3709 109.089 87.7785 111.99C87.8475 112.132 87.9579 112.256 88.0648 112.408L88.0614 112.404ZM88.9342 114.167C91.0387 118.179 93.6918 121.709 95.8756 125.576C96.1689 125.483 96.4035 125.424 96.6277 125.335C98.1388 124.738 99.6741 124.189 101.151 123.52C102.955 122.702 104.711 121.781 106.481 120.895C106.733 120.767 106.95 120.574 107.223 120.384C106.522 119.632 105.891 118.98 105.284 118.304C103.003 115.771 101.023 113.039 99.6637 109.889C99.0531 108.482 98.7012 107.022 98.7219 105.477C98.7219 105.245 98.6839 105.018 98.6598 104.787C97.2556 106.608 96.0412 108.499 94.4335 110.093C92.8189 111.69 91.0284 113.046 88.9273 114.164L88.9342 114.167ZM145.4 70.0485C145.404 70.0209 145.411 69.9933 145.414 69.9657C145.825 69.945 146.242 69.9485 146.649 69.9002C147.836 69.7622 148.978 69.4965 149.958 68.7513C150.386 68.4305 150.544 68.0268 150.424 67.53C150.341 67.185 150.223 66.84 150.072 66.5226C149.278 64.8701 147.998 63.6833 146.373 62.8898C145.873 62.6448 145.255 62.4758 144.71 62.5137C143.472 62.5965 142.268 62.9243 141.171 63.5453C139.121 64.7045 139.121 66.3294 139.96 67.875C140.453 68.7824 141.298 69.3482 142.309 69.5586C143.327 69.7725 144.365 69.8898 145.397 70.0485H145.4Z" fill="#47567B"/>
</svg>
