<svg width="231" height="235" viewBox="0 0 231 235" fill="none" xmlns="http://www.w3.org/2000/svg">
<rect x="2" y="6.5" width="200" height="200" rx="100" stroke="#CCD7E6" stroke-width="3"/>
<path d="M165.862 145.196C167.059 145.29 168.139 145.11 169.205 144.827C169.471 144.758 169.736 144.669 170.009 144.644C170.399 144.61 170.723 144.765 170.851 145.165C170.975 145.562 170.806 145.876 170.468 146.08C170.257 146.207 170.019 146.294 169.785 146.366C168.563 146.749 167.308 146.897 166.031 146.88C165.648 146.877 165.362 146.925 165.186 147.353C164.279 149.547 162.588 150.992 160.577 152.145C157.91 153.673 155.046 154.58 152.034 155.129C146.439 156.154 140.794 156.302 135.136 156.109C130.313 155.947 125.497 155.636 120.677 155.398C115.244 155.129 109.817 155.236 104.393 155.684C101.319 155.94 98.249 156.399 95.1509 156.25C92.3426 156.116 89.5343 155.95 86.7329 155.702C80.6091 155.157 74.4888 154.574 68.3685 153.959C64.3493 153.556 60.3956 152.804 56.6178 151.327C53.9199 150.275 51.3014 149.033 48.7656 147.625C45.602 145.873 43.356 143.23 41.5379 140.173C40.1579 137.851 39.2678 135.36 38.6675 132.725C37.0149 125.466 36.8079 118.138 37.4427 110.762C38.0672 103.503 39.0332 96.2892 40.3373 89.1236C40.8272 86.4395 41.4206 83.7726 42.0036 81.1058C42.5798 78.4734 43.563 75.9929 44.9534 73.6814C45.0534 73.5158 45.1535 73.3536 45.257 73.188C46.8474 70.5867 49.1175 69.0342 52.1535 68.5512C55.5897 68.0027 59.0501 67.7232 62.507 67.3851C64.4217 67.1988 66.333 66.878 68.2236 66.5088C69.0171 66.3536 69.7796 65.9672 70.511 65.598C71.4735 65.1081 72.1428 64.3284 72.5568 63.3038C73.0019 62.2067 73.5332 61.1441 74.0231 60.0642C75.1374 57.6009 76.8866 55.6965 79.167 54.2786C80.6919 53.3298 82.2444 52.4466 84.0833 52.2189C86.688 51.8981 89.2997 51.7359 91.9251 51.8187C93.9917 51.8843 96.0617 51.9809 98.1282 51.9705C100.664 51.9567 103.203 51.8877 105.735 51.7704C109.855 51.5807 113.946 51.8429 118.031 52.3397C122.444 52.8744 125.625 55.1756 127.884 58.9395C129.175 61.0889 130.593 63.1623 131.952 65.2703C132.859 66.6779 134.046 67.8267 135.343 68.8652C135.616 69.0825 135.954 69.2654 136.289 69.3516C137.538 69.6621 138.797 69.9243 140.053 70.2072C140.08 70.1555 140.108 70.1003 140.135 70.0485C140.028 69.9174 139.925 69.7829 139.818 69.6518C139.59 69.3758 139.332 69.1205 139.131 68.8272C137.375 66.2052 138.193 63.6246 140.477 62.048C143.047 60.2712 146.577 60.4265 149.085 62.2929C150.392 63.2658 151.448 64.4423 152.131 65.9327C152.517 66.7779 152.742 67.6473 152.517 68.5823C152.493 68.6823 152.517 68.7927 152.517 68.948C152.735 69.0066 152.942 69.0687 153.149 69.117C154.035 69.324 154.919 69.5379 155.809 69.7242C158.686 70.3314 160.67 72.1185 162.091 74.5784C163.333 76.7243 164.127 79.0254 164.279 81.537C164.454 84.5109 164.668 87.4814 164.927 90.4484C165.124 92.7012 165.462 94.9403 165.652 97.1931C165.848 99.5288 165.972 101.871 166.062 104.21C166.331 111.183 166.552 118.155 166.821 125.124C166.935 128.109 166.687 131.076 166.518 134.049C166.438 135.454 166.349 136.858 166.328 138.262C166.293 140.415 166.248 142.564 165.897 144.693C165.876 144.824 165.883 144.962 165.872 145.196H165.862ZM163.609 146.842C163.288 146.777 163.081 146.718 162.871 146.694C157.489 145.997 152.224 144.796 147.173 142.792C143.382 141.288 139.639 139.652 135.878 138.072C135.154 137.769 135.157 137.762 134.598 138.3C126.201 146.325 116.217 150.841 104.638 151.7C95.1026 152.407 86.1533 150.361 77.8905 145.524C64.2423 137.534 56.1072 123.078 56.4315 107.277C56.6385 97.2311 59.9816 88.2645 66.1674 80.3744C76.6727 66.9746 93.833 60.185 110.666 62.7759C120.056 64.2215 128.298 68.1096 135.178 74.7233C146.152 85.2734 150.751 100.574 147.436 115.413C145.728 123.058 142.236 129.792 137.089 135.681C136.879 135.923 136.678 136.171 136.427 136.475C136.768 136.64 137.006 136.768 137.255 136.875C139.304 137.762 141.357 138.648 143.406 139.532C149.513 142.171 155.819 144.11 162.433 144.976C162.971 145.045 163.513 145.086 164.103 145.145C164.396 143.806 164.537 142.55 164.599 141.288C164.775 137.624 164.903 133.96 165.107 130.296C165.348 125.987 164.979 121.695 164.862 117.396C164.741 112.932 164.568 108.464 164.41 104C164.361 102.623 164.32 101.24 164.196 99.8703C163.944 97.0689 163.602 94.2779 163.361 91.473C163.078 88.2024 162.833 84.9318 162.626 81.6543C162.481 79.367 161.75 77.2763 160.611 75.327C159.428 73.2984 157.793 71.808 155.398 71.3181C154.318 71.0973 153.242 70.8558 152.166 70.6109C151.765 70.5212 151.42 70.6109 151.055 70.7868C150.461 71.0766 149.854 71.3526 149.226 71.5493C146.321 72.4601 143.368 72.5187 140.394 71.9702C139.363 71.7804 138.338 71.57 137.317 71.3354C136.04 71.0456 134.847 70.5419 133.812 69.7277C132.594 68.7651 131.531 67.6439 130.679 66.3363C129.264 64.1663 127.805 62.0204 126.47 59.7986C124.479 56.4969 121.719 54.4476 117.828 53.975C113.712 53.4747 109.593 53.2332 105.446 53.4299C101.423 53.6196 97.3968 53.7266 93.3707 53.5196C90.8315 53.3885 88.2957 53.3988 85.7703 53.6921C84.7871 53.8059 83.7521 53.8577 82.8551 54.2234C79.5948 55.5482 76.8969 57.5595 75.4341 60.9129C74.9373 62.0514 74.3991 63.1692 73.9023 64.3043C73.4918 65.2427 72.8639 65.981 72.0393 66.5778C70.8801 67.4196 69.5864 67.9199 68.196 68.2373C65.5499 68.8445 62.852 68.9963 60.161 69.2619C57.5562 69.5172 54.9584 69.8657 52.3605 70.2038C49.7972 70.5384 47.9376 71.9288 46.6197 74.1092C46.5335 74.2506 46.4472 74.3921 46.361 74.5335C45.0707 76.6794 44.1495 78.9771 43.6182 81.4197C43.0421 84.059 42.4487 86.6982 41.9657 89.3547C40.665 96.4928 39.7025 103.683 39.0815 110.914C38.457 118.183 38.6951 125.393 40.3062 132.549C41.1929 136.471 42.9593 139.887 45.5399 142.923C46.6232 144.199 47.9135 145.231 49.3625 146.055C52.0742 147.601 54.8928 148.94 57.8219 150.013C61.2581 151.275 64.8392 151.931 68.4686 152.314C75.9827 153.111 83.5002 153.859 91.0385 154.398C94.2608 154.629 97.4762 154.667 100.705 154.36C104.079 154.039 107.467 153.808 110.855 153.659C116.237 153.418 121.605 153.787 126.977 154.056C130.42 154.229 133.863 154.429 137.31 154.498C141.864 154.591 146.404 154.398 150.913 153.645C154.07 153.118 157.099 152.276 159.876 150.637C161.104 149.913 162.212 149.071 163.026 147.887C163.237 147.584 163.388 147.235 163.606 146.832L163.609 146.842ZM87.0261 113.215C86.7915 112.735 86.5983 112.342 86.4017 111.949C85.5288 110.196 84.6353 108.454 83.7831 106.691C82.1789 103.379 80.9196 99.9393 80.1227 96.341C79.3671 92.9151 79.1049 89.472 79.7156 85.9944C80.2193 83.124 81.3785 80.609 83.4761 78.5114C87.1055 74.8785 94.1366 74.2989 98.249 78.1629C100.657 80.4227 102.265 83.1137 102.872 86.3774C102.941 86.7431 103.003 87.1088 103.065 87.4641C103.186 87.4503 103.227 87.4607 103.238 87.4469C103.407 87.233 103.572 87.0156 103.741 86.8017C106.005 83.9244 108.785 81.8648 112.522 81.4266C113.639 81.2955 114.781 81.3059 115.906 81.368C118.911 81.5405 121.616 82.5272 123.934 84.4868C125.276 85.6218 126.204 87.0225 126.715 88.7096C127.377 90.89 127.464 93.1014 127.105 95.3405C126.384 99.8462 124.659 103.972 122.313 107.854C119.404 112.659 115.634 116.679 111.18 120.074C110.928 120.263 110.693 120.474 110.455 120.674C110.565 120.833 110.603 120.908 110.662 120.964C110.914 121.219 111.169 121.471 111.428 121.716C116.01 126.077 121.205 129.513 126.998 132.042C127.757 132.373 127.767 132.397 128.323 131.776C135.985 123.165 139.552 113.149 138.307 101.626C136.396 83.9589 121.761 70.7799 103.976 70.6419C94.454 70.5695 85.998 73.6779 78.86 79.9362C68.9447 88.6302 64.3976 99.6357 65.4222 112.86C65.474 113.508 65.7293 113.922 66.2571 114.267C67.8372 115.309 69.5933 115.84 71.4425 116.089C73.9506 116.423 76.4346 116.285 78.929 115.833C81.4716 115.375 83.9004 114.605 86.2706 113.601C86.4948 113.508 86.7053 113.381 87.0227 113.222L87.0261 113.215ZM133.473 137.217C133.439 137.134 133.401 137.054 133.367 136.972C133.125 136.847 132.884 136.72 132.639 136.599C131.448 136.019 130.255 135.447 129.068 134.864C127.902 134.291 128.174 134.36 127.322 135.126C118.086 143.43 107.343 147.163 94.9508 145.535C81.2094 143.73 69.7796 134.187 65.505 120.946C62.024 110.155 63.2246 99.7289 68.6618 89.8446C76.5278 75.5444 92.2494 67.323 108.068 69.255C116.979 70.3452 124.621 74.1057 130.62 80.8022C138.928 90.0723 141.691 100.995 139.497 113.167C138.179 120.477 134.874 126.867 129.965 132.428C129.775 132.645 129.599 132.873 129.389 133.128C129.62 133.27 129.754 133.363 129.899 133.435C131.29 134.108 132.677 134.784 134.074 135.443C134.767 135.771 134.805 135.781 135.319 135.157C136.527 133.691 137.8 132.259 138.88 130.703C145.155 121.661 147.905 111.649 146.494 100.698C144.807 87.6435 138.183 77.5695 127.105 70.5729C117.114 64.2629 106.132 62.4102 94.6058 64.8149C80.0019 67.8612 69.1103 76.0722 62.4345 89.4755C55.1343 104.138 56.9697 121.402 67.0886 133.974C75.3065 144.186 86.1671 149.492 99.1908 150.099C112.008 150.696 123.182 146.435 132.697 137.824C132.939 137.603 133.215 137.42 133.477 137.22L133.473 137.217ZM65.9673 116.113C66.0191 116.448 66.0467 116.689 66.095 116.924C69.3069 132.09 82.4859 143.399 97.9661 144.21C108.606 144.769 117.848 141.322 125.797 134.284C125.997 134.105 126.18 133.905 126.404 133.68C124.252 132.545 122.109 131.534 120.094 130.313C118.093 129.102 116.161 127.76 114.312 126.328C112.446 124.883 110.717 123.261 108.916 121.709C108.847 121.733 108.765 121.747 108.696 121.788C105.104 124.12 101.081 125.521 97.1415 127.087C95.9064 127.577 95.558 127.425 94.8576 126.259C94.0607 124.938 93.2568 123.62 92.453 122.302C91.0419 119.998 89.6274 117.7 88.2095 115.399C88.1129 115.244 87.9852 115.106 87.861 114.947C87.5919 115.05 87.3608 115.13 87.1331 115.223C83.69 116.617 80.1537 117.607 76.4208 117.828C72.9329 118.035 69.5312 117.817 66.3434 116.206C66.2744 116.172 66.1881 116.165 65.9708 116.106L65.9673 116.113ZM109.168 119.48C109.503 119.246 109.762 119.09 109.989 118.901C111.459 117.652 112.991 116.465 114.378 115.133C119.132 110.558 122.616 105.166 124.61 98.8526C125.235 96.8757 125.701 94.8506 125.67 92.7633C125.604 88.3404 124.076 85.2285 118.632 83.4932C116.662 82.8653 114.612 82.8446 112.566 83.0654C111.173 83.2172 109.907 83.7278 108.713 84.4626C106.46 85.8495 104.801 87.7401 103.703 90.1448C103.345 90.9348 103.11 91.7283 103.027 92.5977C102.831 94.716 102.479 96.8205 101.699 98.8077C101.109 100.308 100.902 101.833 100.905 103.413C100.905 103.91 100.905 104.407 100.878 104.9C100.781 106.681 101.219 108.337 101.989 109.931C103.248 112.535 104.914 114.854 106.836 117C107.571 117.817 108.34 118.604 109.168 119.48ZM88.5614 112.404C88.7166 112.346 88.8512 112.311 88.965 112.245C91.0626 111.055 92.9912 109.648 94.6472 107.874C96.4584 105.935 97.7694 103.683 98.9286 101.323C99.2736 100.619 99.4806 99.8876 99.56 99.1113C99.8187 96.6032 100.367 94.164 101.226 91.7904C101.375 91.3799 101.499 90.9417 101.516 90.5105C101.585 88.8786 101.454 87.2571 101.03 85.6736C100.391 83.2931 99.1011 81.3162 97.3658 79.5843C93.7191 75.9515 86.7225 76.3034 83.3588 81.161C82.7274 82.0752 82.2203 83.0481 81.8822 84.1073C81.0818 86.6154 80.8955 89.1857 81.1025 91.7939C81.4199 95.7959 82.4825 99.6185 84.0833 103.272C85.377 106.225 86.8709 109.089 88.2785 111.99C88.3475 112.132 88.4579 112.256 88.5648 112.408L88.5614 112.404ZM89.4342 114.167C91.5387 118.179 94.1918 121.709 96.3756 125.576C96.6689 125.483 96.9035 125.424 97.1277 125.335C98.6388 124.738 100.174 124.189 101.651 123.52C103.455 122.702 105.211 121.781 106.981 120.895C107.233 120.767 107.45 120.574 107.723 120.384C107.022 119.632 106.391 118.98 105.784 118.304C103.503 115.771 101.523 113.039 100.164 109.889C99.5531 108.482 99.2012 107.022 99.2219 105.477C99.2219 105.245 99.1839 105.018 99.1598 104.787C97.7556 106.608 96.5412 108.499 94.9335 110.093C93.3189 111.69 91.5284 113.046 89.4273 114.164L89.4342 114.167ZM145.9 70.0485C145.904 70.0209 145.911 69.9933 145.914 69.9657C146.325 69.945 146.742 69.9485 147.149 69.9002C148.336 69.7622 149.478 69.4965 150.458 68.7513C150.886 68.4305 151.044 68.0268 150.924 67.53C150.841 67.185 150.723 66.84 150.572 66.5226C149.778 64.8701 148.498 63.6833 146.873 62.8898C146.373 62.6448 145.755 62.4758 145.21 62.5137C143.972 62.5965 142.768 62.9243 141.671 63.5453C139.621 64.7045 139.621 66.3294 140.46 67.875C140.953 68.7824 141.798 69.3482 142.809 69.5586C143.827 69.7725 144.865 69.8898 145.897 70.0485H145.9Z" fill="#47567B"/>
</svg>
