<svg width="310" height="84" viewBox="0 0 310 84" fill="none" xmlns="http://www.w3.org/2000/svg">
<path d="M75.963 15.7751C76.5451 14.096 76.0575 12.228 75.2987 10.6189C74.357 8.62592 72.9247 6.77005 70.9287 5.8345C68.9326 4.89895 66.318 5.09398 64.8003 6.69387C63.4229 8.14748 63.2218 10.3812 63.6027 12.3468C64.4347 16.6254 67.5247 20.0567 70.4899 23.2504C74.1285 27.1694 77.7671 31.0883 81.4026 35.0043" fill="#667593"/>
<path d="M77.276 17.3111C78.693 12.2889 76.3465 5.20677 71.3305 2.89683C69.3467 1.98261 66.8508 1.95519 65.0102 3.22291C62.8282 4.72223 62.042 7.50451 61.9293 10.0217C61.6794 15.6258 64.7573 20.3828 68.3501 24.3902C72.3697 28.8729 76.5385 33.2277 80.6342 37.6372C81.5637 38.6398 82.4413 37.4696 82.7187 36.5432C83.0783 35.3426 83.0996 33.3709 82.1732 32.3744C79.208 29.1807 76.246 25.9901 73.2808 22.7964C70.7149 20.0324 67.7894 17.2958 66.0219 13.9193C65.4978 12.9167 64.6658 11.3686 65.0163 10.1954C65.4399 8.78747 67.2226 8.29379 68.5117 8.31817C70.0963 8.35169 71.5195 9.13182 72.5799 10.2837C73.2991 11.0639 74.9569 13.13 74.6461 14.2332C74.3048 15.44 74.2255 17.433 75.1916 18.402C76.1576 19.3711 77.0017 18.2862 77.276 17.308V17.3111Z" fill="#667593"/>
<path d="M81.679 34.9462C85.0464 31.7464 88.1487 28.2663 90.9431 24.5545C91.769 23.4605 92.5705 22.333 93.122 21.0774C93.9631 19.1545 94.1704 17.0214 94.3684 14.9308C94.5543 12.9561 94.7341 10.9265 94.1825 9.02191C93.2287 5.73376 90.0198 3.30193 86.6036 3.03681C83.1875 2.77169 79.7531 4.55137 77.7845 7.35193C75.8158 10.1525 75.2886 13.8551 76.1358 17.1737" fill="#667593"/>
<path d="M82.4506 37.5763C86.1014 34.084 89.5785 30.29 92.4735 26.1424C95.3685 21.9949 96.1761 16.6894 96.0755 11.6764C95.9872 7.15405 94.0886 2.6317 89.7004 0.763645C85.7022 -0.936807 81.2621 0.330913 78.2299 3.29604C74.2165 7.21805 73.604 13.5048 74.826 18.7068C75.0637 19.7155 75.981 20.715 76.9104 19.8008C77.8978 18.8287 77.7363 16.8265 77.4559 15.6319C75.533 7.43441 88.5759 2.11365 92.5497 9.79615C93.4182 11.4753 92.9672 13.6359 92.7691 15.4278C92.5223 17.6706 91.9737 19.4564 90.6359 21.3001C87.7592 25.2678 84.4497 28.9308 80.9117 32.3134C79.5281 33.6391 80.4363 39.5023 82.4506 37.5763Z" fill="#667593"/>
<path d="M69.234 31.6919C69.1517 31.5822 69.1029 31.4968 69.0359 31.4328C68.0607 30.4455 67.0795 29.4642 66.1104 28.4708C63.3037 25.6001 60.9511 22.379 58.7905 19.0086C58.3974 18.396 58.0683 17.7378 57.7696 17.0735C56.3526 13.9286 56.7427 10.8446 58.1871 7.83374C58.8758 6.39537 59.9424 5.27697 61.3016 4.42674C63.2306 3.21692 65.3242 2.55259 67.5945 2.57392C71.0533 2.60439 73.4028 4.51207 75.0027 7.36749C76.1546 9.42449 76.7154 11.7131 76.8281 14.084C76.9957 17.6525 76.3801 21.1235 75.3806 24.5305C74.9235 26.0877 74.1159 27.4804 73.223 28.8243C72.6318 29.7141 72.0193 30.5918 71.3793 31.5273C73.095 33.4624 75.1703 35.0075 77.0201 36.845C79.0192 34.7088 81.3718 33.0297 83.3008 30.8691C83.1515 30.6466 83.0357 30.4638 82.9077 30.2901C79.778 25.9841 78.943 23.9484 78.1476 18.6856C77.7667 16.1653 77.6357 13.6451 78.1415 11.1249C78.431 9.68656 78.8394 8.27257 79.522 6.97742C80.9208 4.32313 82.9778 2.46421 86.0435 1.97663C87.4636 1.75112 88.8715 1.9553 90.2336 2.36365C92.8087 3.13464 95.0394 4.43589 96.3376 6.90428C98.2148 10.4758 98.3397 14.0779 96.3071 17.6464C95.8256 18.4905 95.3015 19.3194 94.7377 20.1117C93.1134 22.3942 91.5196 24.7011 89.5754 26.7307C88.2803 28.0868 86.9607 29.4185 85.6503 30.7624C85.5863 30.8295 85.5315 30.9087 85.4309 31.0336C85.6199 31.2348 85.7936 31.4328 85.9764 31.6157C88.1827 33.7976 90.773 35.431 93.5157 36.8389C97.2671 38.7619 101.235 40.0783 105.358 40.9255C106.906 41.2424 108.469 41.4923 110.036 41.7239C112.855 42.1414 115.676 42.5376 118.501 42.9094C122.292 43.4091 126.083 43.912 129.88 44.3477C131.352 44.5154 132.846 44.5397 134.33 44.5763C137.203 44.6433 140.077 44.6891 142.951 44.7134C144.459 44.7256 145.815 44.9024 147.327 44.8963C148.372 44.8932 149.493 45.1187 150.539 45.1248C151.075 45.1248 152.398 45.2467 152.934 45.2498C153.443 45.2528 154.494 45.3046 155 45.3686L154.973 46.5602C154.284 46.6211 153.681 46.615 152.98 46.6242C149.18 46.6668 144.676 46.1488 140.875 46.1305C137.88 46.1152 134.884 45.9964 131.889 45.9385C129.469 45.8928 127.089 45.4966 124.7 45.1705C122.07 44.811 119.434 44.4971 116.804 44.1436C113.644 43.72 110.465 43.3756 107.327 42.8179C101.119 41.7148 95.1857 39.798 89.7979 36.4154C87.9542 35.2573 86.2202 33.9652 84.6996 32.4019C84.6142 32.3135 84.5259 32.2313 84.4344 32.152C84.4009 32.1246 84.3491 32.1155 84.2607 32.0819C84.151 32.1734 84.02 32.277 83.8981 32.3897C82.1123 34.0475 80.3326 35.7084 78.5438 37.3631C78.2238 37.6587 77.8764 37.9269 77.529 38.195C77.1389 38.4998 76.8007 38.5059 76.3893 38.2194C76.2308 38.1097 76.0906 37.9695 75.9505 37.8354C74.1647 36.1777 72.3819 34.5199 70.5962 32.8651C70.5444 32.8164 70.4773 32.7889 70.3767 32.728C70.2731 32.8133 70.1543 32.8895 70.0568 32.987C67.6798 35.4249 64.8609 37.2351 61.8562 38.7801C58.0409 40.7396 54.003 42.0652 49.819 42.9825C48.0088 43.3787 46.1895 43.6773 44.3458 43.8937C42.0024 44.171 39.6711 44.5641 37.3276 44.881C34.3595 45.2833 31.3791 45.6094 28.4201 46.0573C25.1563 46.551 21.8743 46.6882 18.5861 46.7064C13.7407 46.7339 8.89231 46.7278 4.04389 46.7156C2.97425 46.7156 1.90461 46.6455 0.83497 46.5998C0.508898 46.5876 0.185873 46.5541 0.161494 46.1122C0.143209 45.7465 0.310816 45.5027 0.761832 45.4204C1.18847 45.3412 1.63034 45.3138 2.06612 45.3168C8.76432 45.3686 15.4625 45.3656 22.1577 45.1645C24.1811 45.1035 26.1894 44.8963 28.1946 44.6098C31.1841 44.1832 34.1827 43.8297 37.1753 43.4274C40.3842 42.9977 43.6083 42.6412 46.7959 42.0896C53.037 41.0108 58.9947 39.1032 64.3825 35.6596C65.9458 34.66 67.4269 33.5538 68.7403 32.2343C68.9079 32.0637 69.0664 31.8839 69.237 31.6949L69.234 31.6919ZM84.407 29.9152C84.8733 29.4825 85.245 29.1717 85.5803 28.8212C87.7409 26.5753 89.9441 24.369 91.7116 21.7817C92.7691 20.2367 93.9088 18.7435 94.8931 17.1497C96.3132 14.8489 96.685 12.3805 95.9262 9.72009C95.2009 7.18465 93.726 5.36839 91.3216 4.3018C89.7369 3.59785 88.0791 3.19254 86.3482 3.40586C83.8463 3.7167 82.1367 5.2465 80.9665 7.3553C79.9791 9.13803 79.4062 11.1067 79.33 13.1454C79.135 18.3839 80.0035 24.2928 83.8432 29.0955C83.9651 29.2479 84.0779 29.4063 84.1906 29.5648C84.2485 29.644 84.2943 29.7293 84.407 29.9091V29.9152ZM70.2853 30.5674C71.0929 29.3515 71.8486 28.2514 72.5617 27.1269C73.4424 25.7372 74.0793 24.2349 74.3993 22.6198C74.7315 20.9498 75.0667 19.2767 75.2739 17.5885C75.6488 14.5137 75.2831 11.5241 74.0367 8.65654C73.3297 7.03227 72.1717 5.81941 70.715 4.87471C69.8617 4.32313 68.8957 4.02753 67.8779 4.03972C67.0795 4.04887 66.2658 4.10372 65.4887 4.26523C63.5902 4.65835 61.8562 5.45981 60.558 6.92866C58.8789 8.8272 58.2694 11.1554 58.373 13.633C58.4462 15.3669 59.1745 16.9242 60.104 18.3839C62.7156 22.4887 65.7752 26.2279 69.2431 29.6349C69.5357 29.9213 69.8526 30.1834 70.2792 30.5674H70.2853Z" fill="#47567B"/>
<path d="M39.9081 79.7256V79.2216L40.7481 79.0956C40.9254 79.0676 41.0421 79.0069 41.0981 78.9136C41.1541 78.8203 41.1821 78.6429 41.1821 78.3816V75.4976L38.6061 71.2556C38.4847 71.0596 38.3634 70.9009 38.2421 70.7796C38.1301 70.6583 37.9714 70.5789 37.7661 70.5416L37.2201 70.4436V69.9116H40.7621V70.4296L40.0341 70.4996C39.8101 70.5276 39.6747 70.6069 39.6281 70.7376C39.5907 70.8589 39.6281 71.0176 39.7401 71.2136L41.8541 74.7556H41.8961L43.9541 71.2696C44.0847 71.0643 44.1267 70.8963 44.0801 70.7656C44.0334 70.6349 43.8981 70.5556 43.6741 70.5276L43.0581 70.4156V69.9116H46.3061V70.4296L45.5081 70.5416C45.3494 70.5696 45.2187 70.6349 45.1161 70.7376C45.0227 70.8309 44.8921 71.0223 44.7241 71.3116L42.2181 75.5116V78.4376C42.2181 78.6709 42.2461 78.8343 42.3021 78.9276C42.3674 79.0116 42.4887 79.0676 42.6661 79.0956L43.4781 79.2216V79.7256H39.9081ZM51.3041 79.9216C50.3894 79.9216 49.6007 79.7163 48.9381 79.3056C48.2847 78.8949 47.7807 78.3209 47.4261 77.5836C47.0807 76.8463 46.9081 75.9783 46.9081 74.9796C46.9081 73.8783 47.0854 72.9403 47.4401 72.1656C47.8041 71.3816 48.3221 70.7796 48.9941 70.3596C49.6661 69.9303 50.4734 69.7156 51.4161 69.7156C52.3121 69.7156 53.0821 69.9163 53.7261 70.3176C54.3701 70.7189 54.8647 71.2883 55.2101 72.0256C55.5647 72.7536 55.7421 73.6169 55.7421 74.6156C55.7421 75.4183 55.6394 76.1463 55.4341 76.7996C55.2287 77.4529 54.9301 78.0129 54.5381 78.4796C54.1554 78.9463 53.6887 79.3056 53.1381 79.5576C52.5967 79.8003 51.9854 79.9216 51.3041 79.9216ZM51.4301 79.1516C51.9434 79.1516 52.4007 79.0583 52.8021 78.8716C53.2034 78.6756 53.5394 78.3909 53.8101 78.0176C54.0807 77.6349 54.2814 77.1729 54.4121 76.6316C54.5521 76.0903 54.6221 75.4743 54.6221 74.7836C54.6221 74.1023 54.5474 73.5003 54.3981 72.9776C54.2581 72.4456 54.0434 71.9929 53.7541 71.6196C53.4741 71.2369 53.1241 70.9523 52.7041 70.7656C52.2934 70.5696 51.8127 70.4716 51.2621 70.4716C50.7394 70.4716 50.2774 70.5696 49.8761 70.7656C49.4747 70.9523 49.1341 71.2323 48.8541 71.6056C48.5741 71.9696 48.3641 72.4176 48.2241 72.9496C48.0841 73.4816 48.0141 74.0883 48.0141 74.7696C48.0141 75.4416 48.0887 76.0483 48.2381 76.5896C48.3874 77.1309 48.6067 77.5929 48.8961 77.9756C49.1947 78.3583 49.5541 78.6523 49.9741 78.8576C50.4034 79.0536 50.8887 79.1516 51.4301 79.1516ZM62.4214 79.9216C61.7961 79.9216 61.2501 79.8423 60.7834 79.6836C60.3261 79.5156 59.9481 79.2729 59.6494 78.9556C59.3601 78.6289 59.1454 78.2183 59.0054 77.7236C58.8654 77.2289 58.7954 76.6549 58.7954 76.0016V71.2136C58.7954 70.9803 58.7627 70.8216 58.6974 70.7376C58.6414 70.6443 58.5201 70.5836 58.3334 70.5556L57.5214 70.4296V69.9116H61.0774V70.4296L60.2514 70.5556C60.0834 70.5836 59.9714 70.6489 59.9154 70.7516C59.8594 70.8449 59.8314 71.0176 59.8314 71.2696V75.9316C59.8314 76.6689 59.9201 77.2756 60.0974 77.7516C60.2841 78.2276 60.5781 78.5776 60.9794 78.8016C61.3901 79.0256 61.9267 79.1376 62.5894 79.1376C63.2147 79.1376 63.7327 79.0163 64.1434 78.7736C64.5541 78.5216 64.8621 78.1483 65.0674 77.6536C65.2821 77.1589 65.3894 76.5383 65.3894 75.7916V71.2136C65.3894 70.9803 65.3567 70.8216 65.2914 70.7376C65.2354 70.6443 65.1141 70.5836 64.9274 70.5556L64.1434 70.4296V69.9116H67.4334V70.4296L66.6214 70.5556C66.4534 70.5836 66.3414 70.6443 66.2854 70.7376C66.2294 70.8309 66.2014 71.0083 66.2014 71.2696V75.5536C66.2014 76.4869 66.0707 77.2803 65.8094 77.9336C65.5481 78.5869 65.1374 79.0816 64.5774 79.4176C64.0174 79.7536 63.2987 79.9216 62.4214 79.9216ZM76.683 79.9216C76.3843 79.9216 76.1277 79.8703 75.913 79.7676C75.6983 79.6743 75.507 79.5156 75.339 79.2916C75.171 79.0676 75.0077 78.7643 74.849 78.3816L74.121 76.5196C73.9717 76.1556 73.8223 75.8803 73.673 75.6936C73.5237 75.4976 73.3463 75.3669 73.141 75.3016C72.945 75.2363 72.693 75.2036 72.385 75.2036C72.217 75.2036 72.0677 75.2083 71.937 75.2176C71.8063 75.2176 71.685 75.2269 71.573 75.2456V78.4236C71.573 78.6476 71.6057 78.8109 71.671 78.9136C71.7457 79.0163 71.881 79.0769 72.077 79.0956L73.127 79.2216V79.7256H69.277V79.2216L70.117 79.0956C70.285 79.0676 70.397 79.0116 70.453 78.9276C70.5183 78.8343 70.551 78.6523 70.551 78.3816V71.2136C70.551 70.9803 70.5183 70.8216 70.453 70.7376C70.3877 70.6443 70.2617 70.5836 70.075 70.5556L69.277 70.4296V69.9116H72.483C73.1083 69.9116 73.6543 69.9676 74.121 70.0796C74.5877 70.1823 74.9703 70.3409 75.269 70.5556C75.577 70.7609 75.8057 71.0223 75.955 71.3396C76.1043 71.6569 76.179 72.0256 76.179 72.4456C76.179 72.6603 76.1463 72.8749 76.081 73.0896C76.025 73.3043 75.9363 73.5096 75.815 73.7056C75.6937 73.9016 75.5397 74.0836 75.353 74.2516C75.1663 74.4196 74.947 74.5643 74.695 74.6856C74.4523 74.8069 74.177 74.8956 73.869 74.9516V74.9936C74.205 75.0869 74.4757 75.2409 74.681 75.4556C74.8863 75.6609 75.059 75.9409 75.199 76.2956L75.675 77.4716C75.8243 77.8263 75.955 78.1296 76.067 78.3816C76.1883 78.6336 76.3237 78.8296 76.473 78.9696C76.6317 79.1003 76.8323 79.1656 77.075 79.1656C77.2057 79.1656 77.327 79.1516 77.439 79.1236C77.5603 79.0956 77.6817 79.0583 77.803 79.0116L77.915 79.4176C77.7563 79.5763 77.5697 79.6976 77.355 79.7816C77.1497 79.8749 76.9257 79.9216 76.683 79.9216ZM72.525 74.6016C73.0197 74.6016 73.4583 74.5269 73.841 74.3776C74.2237 74.2189 74.527 73.9809 74.751 73.6636C74.975 73.3463 75.087 72.9543 75.087 72.4876C75.087 72.0209 74.9843 71.6476 74.779 71.3676C74.5737 71.0876 74.275 70.8869 73.883 70.7656C73.491 70.6349 73.0103 70.5696 72.441 70.5696H71.573V74.5736C71.8157 74.5829 72.0117 74.5923 72.161 74.6016C72.3103 74.6016 72.4317 74.6016 72.525 74.6016ZM82.2101 79.7256V79.2216L83.0501 79.0956C83.2274 79.0676 83.3441 79.0069 83.4001 78.9136C83.4561 78.8203 83.4841 78.6429 83.4841 78.3816V71.2136C83.4841 70.9803 83.4514 70.8216 83.3861 70.7376C83.3301 70.6443 83.2087 70.5836 83.0221 70.5556L82.2101 70.4296V69.9116H85.7941V70.4296L84.9401 70.5556C84.7721 70.5836 84.6601 70.6489 84.6041 70.7516C84.5481 70.8449 84.5201 71.0176 84.5201 71.2696V78.4376C84.5201 78.6709 84.5481 78.8343 84.6041 78.9276C84.6694 79.0116 84.7907 79.0676 84.9681 79.0956L85.7941 79.2216V79.7256H82.2101ZM87.8631 79.7256V79.2216L88.6471 79.0956C88.8151 79.0769 88.9318 79.0163 88.9971 78.9136C89.0718 78.8109 89.1091 78.6336 89.1091 78.3816V71.2136C89.1091 70.9896 89.0811 70.8356 89.0251 70.7516C88.9691 70.6583 88.8431 70.5929 88.6471 70.5556L87.8631 70.4296V69.9116H90.4111L95.4791 78.1156V78.0596V71.2136C95.4791 70.9803 95.4511 70.8216 95.3951 70.7376C95.3391 70.6536 95.2131 70.5929 95.0171 70.5556L94.2471 70.4296V69.9116H97.5231V70.4296L96.7531 70.5556C96.5758 70.5836 96.4544 70.6443 96.3891 70.7376C96.3238 70.8216 96.2911 70.9896 96.2911 71.2416V79.7256H95.2831L89.9351 71.1016L89.9211 71.1576V78.4376C89.9211 78.6803 89.9538 78.8436 90.0191 78.9276C90.0844 79.0116 90.2011 79.0676 90.3691 79.0956L91.1811 79.2216V79.7256H87.8631ZM99.5591 79.7256V79.2216L100.371 79.0956C100.548 79.0676 100.665 79.0069 100.721 78.9136C100.777 78.8109 100.805 78.6336 100.805 78.3816V71.2136C100.805 70.9896 100.777 70.8356 100.721 70.7516C100.665 70.6583 100.534 70.5929 100.329 70.5556L99.5591 70.4296V69.9116H105.873L106.377 72.2356L105.803 72.4316C105.663 72.0023 105.528 71.6663 105.397 71.4236C105.266 71.1716 105.122 70.9849 104.963 70.8636C104.804 70.7329 104.613 70.6489 104.389 70.6116C104.174 70.5743 103.899 70.5556 103.563 70.5556H101.841V74.6016H103.367C103.694 74.6016 103.936 74.5829 104.095 74.5456C104.254 74.4989 104.366 74.3963 104.431 74.2376C104.506 74.0696 104.576 73.8083 104.641 73.4536L105.145 73.3836V76.5756L104.641 76.6596C104.585 76.2303 104.515 75.9223 104.431 75.7356C104.356 75.5396 104.235 75.4183 104.067 75.3716C103.908 75.3156 103.656 75.2876 103.311 75.2876H101.841V78.4096C101.841 78.6523 101.878 78.8249 101.953 78.9276C102.028 79.0209 102.163 79.0769 102.359 79.0956L103.451 79.2216V79.7256H99.5591ZM112.381 79.9216C111.467 79.9216 110.678 79.7163 110.015 79.3056C109.362 78.8949 108.858 78.3209 108.503 77.5836C108.158 76.8463 107.985 75.9783 107.985 74.9796C107.985 73.8783 108.163 72.9403 108.517 72.1656C108.881 71.3816 109.399 70.7796 110.071 70.3596C110.743 69.9303 111.551 69.7156 112.493 69.7156C113.389 69.7156 114.159 69.9163 114.803 70.3176C115.447 70.7189 115.942 71.2883 116.287 72.0256C116.642 72.7536 116.819 73.6169 116.819 74.6156C116.819 75.4183 116.717 76.1463 116.511 76.7996C116.306 77.4529 116.007 78.0129 115.615 78.4796C115.233 78.9463 114.766 79.3056 114.215 79.5576C113.674 79.8003 113.063 79.9216 112.381 79.9216ZM112.507 79.1516C113.021 79.1516 113.478 79.0583 113.879 78.8716C114.281 78.6756 114.617 78.3909 114.887 78.0176C115.158 77.6349 115.359 77.1729 115.489 76.6316C115.629 76.0903 115.699 75.4743 115.699 74.7836C115.699 74.1023 115.625 73.5003 115.475 72.9776C115.335 72.4456 115.121 71.9929 114.831 71.6196C114.551 71.2369 114.201 70.9523 113.781 70.7656C113.371 70.5696 112.89 70.4716 112.339 70.4716C111.817 70.4716 111.355 70.5696 110.953 70.7656C110.552 70.9523 110.211 71.2323 109.931 71.6056C109.651 71.9696 109.441 72.4176 109.301 72.9496C109.161 73.4816 109.091 74.0883 109.091 74.7696C109.091 75.4416 109.166 76.0483 109.315 76.5896C109.465 77.1309 109.684 77.5929 109.973 77.9756C110.272 78.3583 110.631 78.6523 111.051 78.8576C111.481 79.0536 111.966 79.1516 112.507 79.1516Z" fill="#47567B"/>
<path d="M230.803 15.7751C231.385 14.096 230.897 12.228 230.139 10.6189C229.197 8.62592 227.765 6.77005 225.769 5.8345C223.772 4.89895 221.158 5.09398 219.64 6.69387C218.263 8.14748 218.062 10.3812 218.443 12.3468C219.275 16.6254 222.365 20.0567 225.33 23.2504C228.968 27.1694 232.607 31.0883 236.242 35.0043" fill="white"/>
<path d="M232.116 17.3111C233.533 12.2889 231.186 5.20677 226.17 2.89683C224.186 1.98261 221.691 1.95519 219.85 3.22291C217.668 4.72223 216.882 7.50451 216.769 10.0217C216.519 15.6258 219.597 20.3828 223.19 24.3902C227.21 28.8729 231.378 33.2277 235.474 37.6372C236.404 38.6398 237.281 37.4696 237.559 36.5432C237.918 35.3426 237.939 33.3709 237.013 32.3744C234.048 29.1807 231.086 25.9901 228.121 22.7964C225.555 20.0324 222.629 17.2958 220.862 13.9193C220.338 12.9167 219.506 11.3686 219.856 10.1954C220.28 8.78747 222.062 8.29379 223.352 8.31817C224.936 8.35169 226.359 9.13182 227.42 10.2837C228.139 11.0639 229.797 13.13 229.486 14.2332C229.145 15.44 229.065 17.433 230.031 18.402C230.997 19.3711 231.842 18.2862 232.116 17.308V17.3111Z" fill="white"/>
<path d="M236.519 34.9462C239.886 31.7464 242.989 28.2663 245.783 24.5545C246.609 23.4605 247.41 22.333 247.962 21.0774C248.803 19.1545 249.01 17.0214 249.208 14.9308C249.394 12.9561 249.574 10.9265 249.022 9.02191C248.069 5.73376 244.86 3.30193 241.443 3.03681C238.027 2.77169 234.593 4.55137 232.624 7.35193C230.656 10.1525 230.128 13.8551 230.976 17.1737" fill="white"/>
<path d="M237.29 37.5763C240.941 34.084 244.418 30.29 247.313 26.1424C250.208 21.9949 251.016 16.6894 250.915 11.6764C250.827 7.15405 248.928 2.6317 244.54 0.763645C240.542 -0.936807 236.102 0.330913 233.07 3.29604C229.056 7.21805 228.444 13.5048 229.666 18.7068C229.904 19.7155 230.821 20.715 231.75 19.8008C232.738 18.8287 232.576 16.8265 232.296 15.6319C230.373 7.43441 243.416 2.11365 247.39 9.79615C248.258 11.4753 247.807 13.6359 247.609 15.4278C247.362 17.6706 246.814 19.4564 245.476 21.3001C242.599 25.2678 239.29 28.9308 235.752 32.3134C234.368 33.6391 235.276 39.5023 237.29 37.5763Z" fill="white"/>
<path d="M224.074 31.6919C223.992 31.5822 223.943 31.4968 223.876 31.4328C222.901 30.4455 221.919 29.4642 220.95 28.4708C218.144 25.6001 215.791 22.379 213.63 19.0086C213.237 18.396 212.908 17.7378 212.609 17.0735C211.192 13.9286 211.583 10.8446 213.027 7.83374C213.716 6.39537 214.782 5.27697 216.141 4.42674C218.07 3.21692 220.164 2.55259 222.434 2.57392C225.893 2.60439 228.243 4.51207 229.843 7.36749C230.994 9.42449 231.555 11.7131 231.668 14.084C231.836 17.6525 231.22 21.1235 230.22 24.5305C229.763 26.0877 228.956 27.4804 228.063 28.8243C227.472 29.7141 226.859 30.5918 226.219 31.5273C227.935 33.4624 230.01 35.0075 231.86 36.845C233.859 34.7088 236.212 33.0297 238.141 30.8691C237.991 30.6466 237.876 30.4638 237.748 30.2901C234.618 25.9841 233.783 23.9484 232.987 18.6856C232.607 16.1653 232.476 13.6451 232.981 11.1249C233.271 9.68656 233.679 8.27257 234.362 6.97742C235.761 4.32313 237.818 2.46421 240.883 1.97663C242.303 1.75112 243.711 1.9553 245.073 2.36365C247.649 3.13464 249.879 4.43589 251.177 6.90428C253.055 10.4758 253.18 14.0779 251.147 17.6464C250.665 18.4905 250.141 19.3194 249.578 20.1117C247.953 22.3942 246.359 24.7011 244.415 26.7307C243.12 28.0868 241.801 29.4185 240.49 30.7624C240.426 30.8295 240.371 30.9087 240.271 31.0336C240.46 31.2348 240.633 31.4328 240.816 31.6157C243.023 33.7976 245.613 35.431 248.356 36.8389C252.107 38.7619 256.075 40.0783 260.198 40.9255C261.746 41.2424 263.309 41.4923 264.876 41.7239C267.694 42.1414 270.516 42.5376 273.341 42.9094C277.132 43.4091 280.923 43.912 284.72 44.3477C286.192 44.5154 287.685 44.5397 289.169 44.5763C292.043 44.6433 294.917 44.6891 297.791 44.7134C299.299 44.7256 300.655 44.9024 302.167 44.8963C303.212 44.8932 304.333 45.1187 305.379 45.1248C305.915 45.1248 307.238 45.2467 307.774 45.2498C308.283 45.2528 309.334 45.3046 309.84 45.3686L309.813 46.5602C309.124 46.6211 308.52 46.615 307.82 46.6242C304.019 46.6668 299.515 46.1488 295.715 46.1305C292.72 46.1152 289.724 45.9964 286.728 45.9385C284.309 45.8928 281.929 45.4966 279.54 45.1705C276.91 44.811 274.274 44.4971 271.644 44.1436C268.484 43.72 265.305 43.3756 262.166 42.8179C255.959 41.7148 250.026 39.798 244.638 36.4154C242.794 35.2573 241.06 33.9652 239.539 32.4019C239.454 32.3135 239.366 32.2313 239.274 32.152C239.241 32.1246 239.189 32.1155 239.101 32.0819C238.991 32.1734 238.86 32.277 238.738 32.3897C236.952 34.0475 235.172 35.7084 233.384 37.3631C233.064 37.6587 232.716 37.9269 232.369 38.195C231.979 38.4998 231.641 38.5059 231.229 38.2194C231.071 38.1097 230.93 37.9695 230.79 37.8354C229.005 36.1777 227.222 34.5199 225.436 32.8651C225.384 32.8164 225.317 32.7889 225.217 32.728C225.113 32.8133 224.994 32.8895 224.897 32.987C222.52 35.4249 219.701 37.2351 216.696 38.7801C212.881 40.7396 208.843 42.0652 204.659 42.9825C202.849 43.3787 201.029 43.6773 199.186 43.8937C196.842 44.171 194.511 44.5641 192.167 44.881C189.199 45.2833 186.219 45.6094 183.26 46.0573C179.996 46.551 176.714 46.6882 173.426 46.7064C168.581 46.7339 163.732 46.7278 158.884 46.7156C157.814 46.7156 156.744 46.6455 155.675 46.5998C155.349 46.5876 155.026 46.5541 155.001 46.1122C154.983 45.7465 155.151 45.5027 155.602 45.4204C156.028 45.3412 156.47 45.3138 156.906 45.3168C163.604 45.3686 170.302 45.3656 176.998 45.1645C179.021 45.1035 181.029 44.8963 183.034 44.6098C186.024 44.1832 189.023 43.8297 192.015 43.4274C195.224 42.9977 198.448 42.6412 201.636 42.0896C207.877 41.0108 213.835 39.1032 219.222 35.6596C220.786 34.66 222.267 33.5538 223.58 32.2343C223.748 32.0637 223.906 31.8839 224.077 31.6949L224.074 31.6919ZM239.247 29.9152C239.713 29.4825 240.085 29.1717 240.42 28.8212C242.581 26.5753 244.784 24.369 246.551 21.7817C247.609 20.2367 248.749 18.7435 249.733 17.1497C251.153 14.8489 251.525 12.3805 250.766 9.72009C250.041 7.18465 248.566 5.36839 246.161 4.3018C244.577 3.59785 242.919 3.19254 241.188 3.40586C238.686 3.7167 236.977 5.2465 235.806 7.3553C234.819 9.13803 234.246 11.1067 234.17 13.1454C233.975 18.3839 234.843 24.2928 238.683 29.0955C238.805 29.2479 238.918 29.4063 239.03 29.5648C239.088 29.644 239.134 29.7293 239.247 29.9091V29.9152ZM225.125 30.5674C225.933 29.3515 226.688 28.2514 227.402 27.1269C228.282 25.7372 228.919 24.2349 229.239 22.6198C229.571 20.9498 229.907 19.2767 230.114 17.5885C230.489 14.5137 230.123 11.5241 228.877 8.65654C228.17 7.03227 227.012 5.81941 225.555 4.87471C224.702 4.32313 223.736 4.02753 222.718 4.03972C221.919 4.04887 221.106 4.10372 220.329 4.26523C218.43 4.65835 216.696 5.45981 215.398 6.92866C213.719 8.8272 213.109 11.1554 213.213 13.633C213.286 15.3669 214.014 16.9242 214.944 18.3839C217.555 22.4887 220.615 26.2279 224.083 29.6349C224.376 29.9213 224.692 30.1834 225.119 30.5674H225.125Z" fill="#47567B"/>
<path d="M202.17 79.9216C201.274 79.9216 200.49 79.7209 199.818 79.3196C199.155 78.9183 198.637 78.3396 198.264 77.5836C197.9 76.8183 197.718 75.9036 197.718 74.8396C197.718 74.0463 197.821 73.3369 198.026 72.7116C198.231 72.0769 198.525 71.5356 198.908 71.0876C199.291 70.6396 199.748 70.2989 200.28 70.0656C200.812 69.8323 201.405 69.7156 202.058 69.7156C202.562 69.7156 203.015 69.7949 203.416 69.9536C203.827 70.1029 204.181 70.3223 204.48 70.6116L204.62 69.7016H205.11L205.642 72.8656L205.096 72.9916C204.881 72.3756 204.634 71.8856 204.354 71.5216C204.074 71.1483 203.747 70.8776 203.374 70.7096C203.001 70.5416 202.557 70.4576 202.044 70.4576C201.4 70.4576 200.835 70.6163 200.35 70.9336C199.874 71.2509 199.501 71.7316 199.23 72.3756C198.959 73.0103 198.824 73.8083 198.824 74.7696C198.824 75.4509 198.903 76.0623 199.062 76.6036C199.221 77.1356 199.449 77.5929 199.748 77.9756C200.056 78.3489 200.42 78.6383 200.84 78.8436C201.269 79.0396 201.75 79.1376 202.282 79.1376C202.674 79.1376 203.043 79.0863 203.388 78.9836C203.733 78.8809 204.055 78.7129 204.354 78.4796C204.662 78.2463 204.956 77.9429 205.236 77.5696L205.754 77.9756C205.53 78.3116 205.278 78.6056 204.998 78.8576C204.718 79.1003 204.419 79.3009 204.102 79.4596C203.794 79.6183 203.477 79.7349 203.15 79.8096C202.823 79.8843 202.497 79.9216 202.17 79.9216ZM211.91 79.9216C210.995 79.9216 210.206 79.7163 209.544 79.3056C208.89 78.8949 208.386 78.3209 208.032 77.5836C207.686 76.8463 207.514 75.9783 207.514 74.9796C207.514 73.8783 207.691 72.9403 208.046 72.1656C208.41 71.3816 208.928 70.7796 209.6 70.3596C210.272 69.9303 211.079 69.7156 212.022 69.7156C212.918 69.7156 213.688 69.9163 214.332 70.3176C214.976 70.7189 215.47 71.2883 215.816 72.0256C216.17 72.7536 216.348 73.6169 216.348 74.6156C216.348 75.4183 216.245 76.1463 216.04 76.7996C215.834 77.4529 215.536 78.0129 215.144 78.4796C214.761 78.9463 214.294 79.3056 213.744 79.5576C213.202 79.8003 212.591 79.9216 211.91 79.9216ZM212.036 79.1516C212.549 79.1516 213.006 79.0583 213.408 78.8716C213.809 78.6756 214.145 78.3909 214.416 78.0176C214.686 77.6349 214.887 77.1729 215.018 76.6316C215.158 76.0903 215.228 75.4743 215.228 74.7836C215.228 74.1023 215.153 73.5003 215.004 72.9776C214.864 72.4456 214.649 71.9929 214.36 71.6196C214.08 71.2369 213.73 70.9523 213.31 70.7656C212.899 70.5696 212.418 70.4716 211.868 70.4716C211.345 70.4716 210.883 70.5696 210.482 70.7656C210.08 70.9523 209.74 71.2323 209.46 71.6056C209.18 71.9696 208.97 72.4176 208.83 72.9496C208.69 73.4816 208.62 74.0883 208.62 74.7696C208.62 75.4416 208.694 76.0483 208.844 76.5896C208.993 77.1309 209.212 77.5929 209.502 77.9756C209.8 78.3583 210.16 78.6523 210.58 78.8576C211.009 79.0536 211.494 79.1516 212.036 79.1516ZM218.337 79.7256V79.2216L219.121 79.0956C219.289 79.0769 219.406 79.0163 219.471 78.9136C219.546 78.8109 219.583 78.6336 219.583 78.3816V71.2136C219.583 70.9896 219.555 70.8356 219.499 70.7516C219.443 70.6583 219.317 70.5929 219.121 70.5556L218.337 70.4296V69.9116H220.885L225.953 78.1156V78.0596V71.2136C225.953 70.9803 225.925 70.8216 225.869 70.7376C225.813 70.6536 225.687 70.5929 225.491 70.5556L224.721 70.4296V69.9116H227.997V70.4296L227.227 70.5556C227.05 70.5836 226.928 70.6443 226.863 70.7376C226.798 70.8216 226.765 70.9896 226.765 71.2416V79.7256H225.757L220.409 71.1016L220.395 71.1576V78.4376C220.395 78.6803 220.428 78.8436 220.493 78.9276C220.558 79.0116 220.675 79.0676 220.843 79.0956L221.655 79.2216V79.7256H218.337ZM231.895 79.7256V79.2216L233.029 79.0536C233.178 79.0256 233.29 78.9696 233.365 78.8856C233.449 78.7923 233.491 78.6196 233.491 78.3676V70.5556H232.497C232.161 70.5556 231.881 70.5836 231.657 70.6396C231.433 70.6863 231.242 70.7889 231.083 70.9476C230.924 71.1063 230.78 71.3349 230.649 71.6336C230.518 71.9229 230.374 72.3149 230.215 72.8096L229.655 72.6696L230.201 69.9116H237.831L238.363 72.6696L237.803 72.8096C237.644 72.3149 237.5 71.9229 237.369 71.6336C237.238 71.3349 237.094 71.1063 236.935 70.9476C236.776 70.7889 236.585 70.6863 236.361 70.6396C236.137 70.5836 235.862 70.5556 235.535 70.5556H234.527V78.4236C234.527 78.6476 234.555 78.8016 234.611 78.8856C234.676 78.9603 234.807 79.0163 235.003 79.0536L236.109 79.2216V79.7256H231.895ZM238.075 79.7256V79.2076L238.705 79.0956C238.873 79.0583 238.994 78.9976 239.069 78.9136C239.153 78.8296 239.246 78.6429 239.349 78.3536L242.345 69.9116H243.353L246.293 78.3816C246.377 78.6149 246.452 78.7783 246.517 78.8716C246.582 78.9649 246.713 79.0349 246.909 79.0816L247.455 79.1796V79.7256H244.123V79.2076L244.935 79.1096C245.122 79.0816 245.234 79.0209 245.271 78.9276C245.308 78.8249 245.285 78.6523 245.201 78.4096L244.543 76.4636H240.805L240.147 78.3536C240.072 78.5683 240.049 78.7409 240.077 78.8716C240.114 78.9929 240.245 79.0723 240.469 79.1096L241.267 79.2216V79.7256H238.075ZM241.029 75.7916H244.319L242.709 70.9756H242.667L241.029 75.7916ZM252.925 79.9216C252.029 79.9216 251.245 79.7209 250.573 79.3196C249.911 78.9183 249.393 78.3396 249.019 77.5836C248.655 76.8183 248.473 75.9036 248.473 74.8396C248.473 74.0463 248.576 73.3369 248.781 72.7116C248.987 72.0769 249.281 71.5356 249.663 71.0876C250.046 70.6396 250.503 70.2989 251.035 70.0656C251.567 69.8323 252.16 69.7156 252.813 69.7156C253.317 69.7156 253.77 69.7949 254.171 69.9536C254.582 70.1029 254.937 70.3223 255.235 70.6116L255.375 69.7016H255.865L256.397 72.8656L255.851 72.9916C255.637 72.3756 255.389 71.8856 255.109 71.5216C254.829 71.1483 254.503 70.8776 254.129 70.7096C253.756 70.5416 253.313 70.4576 252.799 70.4576C252.155 70.4576 251.591 70.6163 251.105 70.9336C250.629 71.2509 250.256 71.7316 249.985 72.3756C249.715 73.0103 249.579 73.8083 249.579 74.7696C249.579 75.4509 249.659 76.0623 249.817 76.6036C249.976 77.1356 250.205 77.5929 250.503 77.9756C250.811 78.3489 251.175 78.6383 251.595 78.8436C252.025 79.0396 252.505 79.1376 253.037 79.1376C253.429 79.1376 253.798 79.0863 254.143 78.9836C254.489 78.8809 254.811 78.7129 255.109 78.4796C255.417 78.2463 255.711 77.9429 255.991 77.5696L256.509 77.9756C256.285 78.3116 256.033 78.6056 255.753 78.8576C255.473 79.1003 255.175 79.3009 254.857 79.4596C254.549 79.6183 254.232 79.7349 253.905 79.8096C253.579 79.8843 253.252 79.9216 252.925 79.9216ZM260.12 79.7256V79.2216L261.254 79.0536C261.403 79.0256 261.515 78.9696 261.59 78.8856C261.674 78.7923 261.716 78.6196 261.716 78.3676V70.5556H260.722C260.386 70.5556 260.106 70.5836 259.882 70.6396C259.658 70.6863 259.466 70.7889 259.308 70.9476C259.149 71.1063 259.004 71.3349 258.874 71.6336C258.743 71.9229 258.598 72.3149 258.44 72.8096L257.88 72.6696L258.426 69.9116H266.056L266.588 72.6696L266.028 72.8096C265.869 72.3149 265.724 71.9229 265.594 71.6336C265.463 71.3349 265.318 71.1063 265.16 70.9476C265.001 70.7889 264.81 70.6863 264.586 70.6396C264.362 70.5836 264.086 70.5556 263.76 70.5556H262.752V78.4236C262.752 78.6476 262.78 78.8016 262.836 78.8856C262.901 78.9603 263.032 79.0163 263.228 79.0536L264.334 79.2216V79.7256H260.12Z" fill="#47567B"/>
</svg>
