<svg width="466" height="100" viewBox="0 0 466 100" fill="none" xmlns="http://www.w3.org/2000/svg">
<path d="M76.5421 15.7751C77.1242 14.096 76.6366 12.228 75.8778 10.6189C74.9361 8.62592 73.5038 6.77005 71.5078 5.8345C69.5117 4.89895 66.8971 5.09398 65.3795 6.69387C64.002 8.14748 63.8009 10.3812 64.1818 12.3468C65.0138 16.6254 68.1038 20.0567 71.069 23.2504C74.7076 27.1694 78.3462 31.0883 81.9817 35.0043" fill="#667593"/>
<path d="M77.8556 17.3111C79.2726 12.2889 76.9261 5.20677 71.9101 2.89683C69.9262 1.98261 67.4304 1.95519 65.5898 3.22291C63.4078 4.72223 62.6216 7.50451 62.5089 10.0217C62.259 15.6258 65.3368 20.3828 68.9297 24.3902C72.9493 28.8729 77.1181 33.2277 81.2138 37.6372C82.1433 38.6398 83.0209 37.4696 83.2983 36.5432C83.6578 35.3426 83.6792 33.3709 82.7528 32.3744C79.7876 29.1807 76.8256 25.9901 73.8604 22.7964C71.2945 20.0324 68.369 17.2958 66.6015 13.9193C66.0774 12.9167 65.2454 11.3686 65.5959 10.1954C66.0195 8.78747 67.8022 8.29379 69.0913 8.31817C70.6759 8.35169 72.099 9.13182 73.1595 10.2837C73.8787 11.0639 75.5365 13.13 75.2257 14.2332C74.8844 15.44 74.8051 17.433 75.7712 18.402C76.7372 19.3711 77.5813 18.2862 77.8556 17.308V17.3111Z" fill="#667593"/>
<path d="M82.2591 34.9464C85.6265 31.7467 88.7288 28.2665 91.5232 24.5548C92.3491 23.4608 93.1505 22.3332 93.7021 21.0777C94.5432 19.1548 94.7504 17.0216 94.9485 14.9311C95.1344 12.9564 95.3142 10.9268 94.7626 9.02216C93.8088 5.73401 90.5999 3.30218 87.1837 3.03705C83.7676 2.77193 80.3332 4.55161 78.3645 7.35218C76.3959 10.1527 75.8687 13.8553 76.7159 17.174" fill="#667593"/>
<path d="M83.0302 37.5763C86.681 34.084 90.1581 30.29 93.0531 26.1424C95.9481 21.9949 96.7557 16.6894 96.6551 11.6764C96.5668 7.15405 94.6682 2.6317 90.28 0.763645C86.2818 -0.936807 81.8417 0.330913 78.8095 3.29604C74.7961 7.21805 74.1836 13.5048 75.4056 18.7068C75.6433 19.7155 76.5605 20.715 77.49 19.8008C78.4774 18.8287 78.3159 16.8265 78.0355 15.6319C76.1126 7.43441 89.1555 2.11365 93.1293 9.79615C93.9978 11.4753 93.5468 13.6359 93.3487 15.4278C93.1019 17.6706 92.5533 19.4564 91.2155 21.3001C88.3388 25.2678 85.0293 28.9308 81.4912 32.3134C80.1077 33.6391 81.0158 39.5023 83.0302 37.5763Z" fill="#667593"/>
<path d="M69.8136 31.6919C69.7313 31.5822 69.6825 31.4968 69.6155 31.4328C68.6403 30.4455 67.659 29.4642 66.69 28.4708C63.8833 25.6001 61.5307 22.379 59.3701 19.0086C58.977 18.396 58.6479 17.7378 58.3492 17.0735C56.9322 13.9286 57.3222 10.8446 58.7667 7.83374C59.4554 6.39537 60.522 5.27697 61.8812 4.42674C63.8102 3.21692 65.9037 2.55259 68.1741 2.57392C71.6329 2.60439 73.9824 4.51207 75.5823 7.36749C76.7342 9.42449 77.2949 11.7131 77.4077 14.084C77.5753 17.6525 76.9597 21.1235 75.9602 24.5305C75.5031 26.0877 74.6955 27.4804 73.8026 28.8243C73.2114 29.7141 72.5989 30.5918 71.9589 31.5273C73.6746 33.4624 75.7499 35.0075 77.5997 36.845C79.5988 34.7088 81.9514 33.0297 83.8804 30.8691C83.7311 30.6466 83.6153 30.4638 83.4873 30.2901C80.3576 25.9841 79.5226 23.9484 78.7272 18.6856C78.3463 16.1653 78.2153 13.6451 78.7211 11.1249C79.0106 9.68656 79.419 8.27257 80.1016 6.97742C81.5004 4.32313 83.5574 2.46421 86.6231 1.97663C88.0431 1.75112 89.451 1.9553 90.8132 2.36365C93.3883 3.13464 95.619 4.43589 96.9172 6.90428C98.7944 10.4758 98.9193 14.0779 96.8867 17.6464C96.4052 18.4905 95.8811 19.3194 95.3173 20.1117C93.693 22.3942 92.0992 24.7011 90.155 26.7307C88.8598 28.0868 87.5403 29.4185 86.2299 30.7624C86.1659 30.8295 86.1111 30.9087 86.0105 31.0336C86.1995 31.2348 86.3732 31.4328 86.556 31.6157C88.7623 33.7976 91.3526 35.431 94.0953 36.8389C97.8466 38.7619 101.814 40.0783 105.938 40.9255C107.486 41.2424 109.049 41.4923 110.615 41.7239C113.434 42.1414 116.256 42.5376 119.081 42.9094C122.872 43.4091 126.663 43.912 130.46 44.3477C131.932 44.5154 133.425 44.5397 134.909 44.5763C137.783 44.6433 140.657 44.6891 143.53 44.7134C145.039 44.7256 146.395 44.9024 147.906 44.8963C148.952 44.8932 150.073 45.1187 151.118 45.1248C151.655 45.1248 152.977 45.2467 153.514 45.2498C154.023 45.2528 155.074 45.3046 155.58 45.3686L155.552 46.5602C154.864 46.6211 154.26 46.615 153.559 46.6242C149.759 46.6668 145.255 46.1488 141.455 46.1305C138.459 46.1152 135.464 45.9964 132.468 45.9385C130.049 45.8928 127.669 45.4966 125.279 45.1705C122.649 44.811 120.013 44.4971 117.384 44.1436C114.223 43.72 111.045 43.3756 107.906 42.8179C101.699 41.7148 95.7653 39.798 90.3775 36.4154C88.5338 35.2573 86.7998 33.9652 85.2791 32.4019C85.1938 32.3135 85.1054 32.2313 85.014 32.152C84.9805 32.1246 84.9287 32.1155 84.8403 32.0819C84.7306 32.1734 84.5996 32.277 84.4777 32.3897C82.6919 34.0475 80.9122 35.7084 79.1234 37.3631C78.8034 37.6587 78.456 37.9269 78.1086 38.195C77.7185 38.4998 77.3803 38.5059 76.9689 38.2194C76.8104 38.1097 76.6702 37.9695 76.53 37.8354C74.7443 36.1777 72.9615 34.5199 71.1758 32.8651C71.1239 32.8164 71.0569 32.7889 70.9563 32.728C70.8527 32.8133 70.7339 32.8895 70.6364 32.987C68.2594 35.4249 65.4405 37.2351 62.4358 38.7801C58.6204 40.7396 54.5826 42.0652 50.3985 42.9825C48.5884 43.3787 46.7691 43.6773 44.9254 43.8937C42.582 44.171 40.2507 44.5641 37.9072 44.881C34.9391 45.2833 31.9587 45.6094 28.9997 46.0573C25.7359 46.551 22.4538 46.6882 19.1657 46.7064C14.3203 46.7339 9.4719 46.7278 4.62348 46.7156C3.55384 46.7156 2.4842 46.6455 1.41456 46.5998C1.08849 46.5876 0.765463 46.5541 0.741084 46.1122C0.722799 45.7465 0.890406 45.5027 1.34142 45.4204C1.76806 45.3412 2.20993 45.3138 2.64571 45.3168C9.34391 45.3686 16.0421 45.3656 22.7373 45.1645C24.7607 45.1035 26.769 44.8963 28.7742 44.6098C31.7637 44.1832 34.7623 43.8297 37.7549 43.4274C40.9638 42.9977 44.1879 42.6412 47.3755 42.0896C53.6166 41.0108 59.5743 39.1032 64.9621 35.6596C66.5254 34.66 68.0065 33.5538 69.3199 32.2343C69.4875 32.0637 69.646 31.8839 69.8166 31.6949L69.8136 31.6919ZM84.9866 29.9152C85.4529 29.4825 85.8246 29.1717 86.1599 28.8212C88.3205 26.5753 90.5237 24.369 92.2912 21.7817C93.3487 20.2367 94.4884 18.7435 95.4727 17.1497C96.8928 14.8489 97.2646 12.3805 96.5058 9.72009C95.7805 7.18465 94.3056 5.36839 91.9012 4.3018C90.3165 3.59785 88.6587 3.19254 86.9278 3.40586C84.4259 3.7167 82.7163 5.2465 81.5461 7.3553C80.5587 9.13803 79.9858 11.1067 79.9096 13.1454C79.7146 18.3839 80.5831 24.2928 84.4228 29.0955C84.5447 29.2479 84.6575 29.4063 84.7702 29.5648C84.8281 29.644 84.8738 29.7293 84.9866 29.9091V29.9152ZM70.8649 30.5674C71.6725 29.3515 72.4282 28.2514 73.1413 27.1269C74.022 25.7372 74.6589 24.2349 74.9789 22.6198C75.3111 20.9498 75.6463 19.2767 75.8535 17.5885C76.2283 14.5137 75.8627 11.5241 74.6163 8.65654C73.9093 7.03227 72.7513 5.81941 71.2946 4.87471C70.4413 4.32313 69.4753 4.02753 68.4575 4.03972C67.659 4.04887 66.8454 4.10372 66.0683 4.26523C64.1698 4.65835 62.4358 5.45981 61.1376 6.92866C59.4585 8.8272 58.849 11.1554 58.9526 13.633C59.0257 15.3669 59.7541 16.9242 60.6835 18.3839C63.2952 22.4887 66.3548 26.2279 69.8227 29.6349C70.1153 29.9213 70.4322 30.1834 70.8588 30.5674H70.8649Z" fill="#47567B"/>
<path d="M30.9997 79.7258L28.0457 71.2838C27.9523 70.9945 27.8683 70.8125 27.7937 70.7378C27.7283 70.6538 27.607 70.5932 27.4297 70.5558L26.8697 70.4438V69.9118H30.1877V70.4298L29.3897 70.5278C29.2217 70.5558 29.1143 70.6118 29.0677 70.6958C29.021 70.7798 29.0397 70.9572 29.1237 71.2278L31.6017 78.6338H31.6437L34.1497 71.2978C34.243 71.0365 34.2663 70.8545 34.2197 70.7518C34.173 70.6492 34.0377 70.5792 33.8137 70.5418L33.0857 70.4158V69.9118H36.2217V70.4298L35.6197 70.5278C35.4517 70.5558 35.3257 70.6165 35.2417 70.7098C35.167 70.8032 35.0783 70.9992 34.9757 71.2978L32.0077 79.7258H30.9997ZM37.6111 79.7258V79.2218L38.4231 79.0958C38.6004 79.0678 38.7171 79.0072 38.7731 78.9138C38.8291 78.8205 38.8571 78.6432 38.8571 78.3818V71.2278C38.8571 70.9945 38.8291 70.8358 38.7731 70.7518C38.7171 70.6585 38.5911 70.5932 38.3951 70.5558L37.6111 70.4298V69.9118H43.8551L44.3591 72.1378L43.7991 72.3058C43.6591 71.9138 43.5284 71.6012 43.4071 71.3678C43.2857 71.1345 43.1457 70.9618 42.9871 70.8498C42.8284 70.7285 42.6371 70.6492 42.4131 70.6118C42.1891 70.5745 41.9091 70.5558 41.5731 70.5558H39.8931V74.3778H41.5031C41.8204 74.3778 42.0537 74.3592 42.2031 74.3218C42.3524 74.2752 42.4644 74.1725 42.5391 74.0138C42.6137 73.8552 42.6884 73.5985 42.7631 73.2438L43.2671 73.1738V76.1698L42.7631 76.2538C42.7071 75.8992 42.6371 75.6378 42.5531 75.4698C42.4784 75.3018 42.3524 75.1945 42.1751 75.1478C42.0071 75.1012 41.7504 75.0778 41.4051 75.0778H39.8931V79.0818H42.0911C42.4177 79.0818 42.6884 79.0585 42.9031 79.0118C43.1177 78.9558 43.2951 78.8625 43.4351 78.7318C43.5844 78.5918 43.7057 78.4052 43.7991 78.1718C43.9017 77.9292 43.9904 77.6212 44.0651 77.2478H44.6531L44.3311 79.7258H37.6111ZM46.5864 79.7258V79.2218L47.3704 79.0958C47.5384 79.0772 47.655 79.0165 47.7204 78.9138C47.795 78.8112 47.8324 78.6338 47.8324 78.3818V71.2138C47.8324 70.9898 47.8044 70.8358 47.7484 70.7518C47.6924 70.6585 47.5664 70.5932 47.3704 70.5558L46.5864 70.4298V69.9118H49.1344L54.2024 78.1158V78.0598V71.2138C54.2024 70.9805 54.1744 70.8218 54.1184 70.7378C54.0624 70.6538 53.9364 70.5932 53.7404 70.5558L52.9704 70.4298V69.9118H56.2464V70.4298L55.4764 70.5558C55.299 70.5838 55.1777 70.6445 55.1124 70.7378C55.047 70.8218 55.0144 70.9898 55.0144 71.2418V79.7258H54.0064L48.6584 71.1018L48.6444 71.1578V78.4378C48.6444 78.6805 48.677 78.8438 48.7424 78.9278C48.8077 79.0118 48.9244 79.0678 49.0924 79.0958L49.9044 79.2218V79.7258H46.5864ZM58.2824 79.7258V79.2218L59.0944 79.0958C59.2717 79.0678 59.3884 79.0072 59.4444 78.9138C59.5004 78.8205 59.5284 78.6432 59.5284 78.3818V71.2278C59.5284 70.9945 59.5004 70.8358 59.4444 70.7518C59.3884 70.6585 59.2624 70.5932 59.0664 70.5558L58.2824 70.4298V69.9118H62.1464C62.7811 69.9118 63.3597 69.9772 63.8824 70.1078C64.4144 70.2385 64.8764 70.4298 65.2684 70.6818C65.6697 70.9338 66.0057 71.2465 66.2764 71.6198C66.5564 71.9932 66.7664 72.4225 66.9064 72.9078C67.0464 73.3932 67.1164 73.9298 67.1164 74.5178C67.1164 75.3952 66.9951 76.1605 66.7524 76.8138C66.5097 77.4672 66.1597 78.0132 65.7024 78.4518C65.2544 78.8812 64.7084 79.2032 64.0644 79.4178C63.4204 79.6232 62.6924 79.7258 61.8804 79.7258H58.2824ZM61.7964 79.0818C62.4684 79.0818 63.0611 79.0025 63.5744 78.8438C64.0971 78.6852 64.5404 78.4332 64.9044 78.0878C65.2684 77.7332 65.5437 77.2758 65.7304 76.7158C65.9171 76.1465 66.0104 75.4605 66.0104 74.6578C66.0104 73.7525 65.8611 72.9965 65.5624 72.3898C65.2637 71.7738 64.8204 71.3165 64.2324 71.0178C63.6444 70.7098 62.9117 70.5558 62.0344 70.5558H60.5644V79.0118C60.6951 79.0305 60.8771 79.0492 61.1104 79.0678C61.3531 79.0772 61.5817 79.0818 61.7964 79.0818ZM73.3877 79.9218C72.4731 79.9218 71.6844 79.7165 71.0217 79.3058C70.3684 78.8952 69.8644 78.3212 69.5097 77.5838C69.1644 76.8465 68.9917 75.9785 68.9917 74.9798C68.9917 73.8785 69.1691 72.9405 69.5237 72.1658C69.8877 71.3818 70.4057 70.7798 71.0777 70.3598C71.7497 69.9305 72.5571 69.7158 73.4997 69.7158C74.3957 69.7158 75.1657 69.9165 75.8097 70.3178C76.4537 70.7192 76.9484 71.2885 77.2937 72.0258C77.6484 72.7538 77.8257 73.6172 77.8257 74.6158C77.8257 75.4185 77.7231 76.1465 77.5177 76.7998C77.3124 77.4532 77.0137 78.0132 76.6217 78.4798C76.2391 78.9465 75.7724 79.3058 75.2217 79.5578C74.6804 79.8005 74.0691 79.9218 73.3877 79.9218ZM73.5137 79.1518C74.0271 79.1518 74.4844 79.0585 74.8857 78.8718C75.2871 78.6758 75.6231 78.3912 75.8937 78.0178C76.1644 77.6352 76.3651 77.1732 76.4957 76.6318C76.6357 76.0905 76.7057 75.4745 76.7057 74.7838C76.7057 74.1025 76.6311 73.5005 76.4817 72.9778C76.3417 72.4458 76.1271 71.9932 75.8377 71.6198C75.5577 71.2372 75.2077 70.9525 74.7877 70.7658C74.3771 70.5698 73.8964 70.4718 73.3457 70.4718C72.8231 70.4718 72.3611 70.5698 71.9597 70.7658C71.5584 70.9525 71.2177 71.2325 70.9377 71.6058C70.6577 71.9698 70.4477 72.4178 70.3077 72.9498C70.1677 73.4818 70.0977 74.0885 70.0977 74.7698C70.0977 75.4418 70.1724 76.0485 70.3217 76.5898C70.4711 77.1312 70.6904 77.5932 70.9797 77.9758C71.2784 78.3585 71.6377 78.6525 72.0577 78.8578C72.4871 79.0538 72.9724 79.1518 73.5137 79.1518ZM87.221 79.9218C86.9224 79.9218 86.6657 79.8705 86.451 79.7678C86.2364 79.6745 86.045 79.5158 85.877 79.2918C85.709 79.0678 85.5457 78.7645 85.387 78.3818L84.659 76.5198C84.5097 76.1558 84.3604 75.8805 84.211 75.6938C84.0617 75.4978 83.8844 75.3672 83.679 75.3018C83.483 75.2365 83.231 75.2038 82.923 75.2038C82.755 75.2038 82.6057 75.2085 82.475 75.2178C82.3444 75.2178 82.223 75.2272 82.111 75.2458V78.4238C82.111 78.6478 82.1437 78.8112 82.209 78.9138C82.2837 79.0165 82.419 79.0772 82.615 79.0958L83.665 79.2218V79.7258H79.815V79.2218L80.655 79.0958C80.823 79.0678 80.935 79.0118 80.991 78.9278C81.0564 78.8345 81.089 78.6525 81.089 78.3818V71.2138C81.089 70.9805 81.0564 70.8218 80.991 70.7378C80.9257 70.6445 80.7997 70.5838 80.613 70.5558L79.815 70.4298V69.9118H83.021C83.6464 69.9118 84.1924 69.9678 84.659 70.0798C85.1257 70.1825 85.5084 70.3412 85.807 70.5558C86.115 70.7612 86.3437 71.0225 86.493 71.3398C86.6424 71.6572 86.717 72.0258 86.717 72.4458C86.717 72.6605 86.6844 72.8752 86.619 73.0898C86.563 73.3045 86.4744 73.5098 86.353 73.7058C86.2317 73.9018 86.0777 74.0838 85.891 74.2518C85.7044 74.4198 85.485 74.5645 85.233 74.6858C84.9904 74.8072 84.715 74.8958 84.407 74.9518V74.9938C84.743 75.0872 85.0137 75.2412 85.219 75.4558C85.4244 75.6612 85.597 75.9412 85.737 76.2958L86.213 77.4718C86.3624 77.8265 86.493 78.1298 86.605 78.3818C86.7264 78.6338 86.8617 78.8298 87.011 78.9698C87.1697 79.1005 87.3704 79.1658 87.613 79.1658C87.7437 79.1658 87.865 79.1518 87.977 79.1238C88.0984 79.0958 88.2197 79.0585 88.341 79.0118L88.453 79.4178C88.2944 79.5765 88.1077 79.6978 87.893 79.7818C87.6877 79.8752 87.4637 79.9218 87.221 79.9218ZM83.063 74.6018C83.5577 74.6018 83.9964 74.5272 84.379 74.3778C84.7617 74.2192 85.065 73.9812 85.289 73.6638C85.513 73.3465 85.625 72.9545 85.625 72.4878C85.625 72.0212 85.5224 71.6478 85.317 71.3678C85.1117 71.0878 84.813 70.8872 84.421 70.7658C84.029 70.6352 83.5484 70.5698 82.979 70.5698H82.111V74.5738C82.3537 74.5832 82.5497 74.5925 82.699 74.6018C82.8484 74.6018 82.9697 74.6018 83.063 74.6018ZM94.6101 79.7258V79.2218L95.7441 79.0538C95.8934 79.0258 96.0054 78.9698 96.0801 78.8858C96.1641 78.7925 96.2061 78.6198 96.2061 78.3678V70.5558H95.2121C94.8761 70.5558 94.5961 70.5838 94.3721 70.6398C94.1481 70.6865 93.9568 70.7892 93.7981 70.9478C93.6394 71.1065 93.4948 71.3352 93.3641 71.6338C93.2334 71.9232 93.0888 72.3152 92.9301 72.8098L92.3701 72.6698L92.9161 69.9118H100.546L101.078 72.6698L100.518 72.8098C100.359 72.3152 100.215 71.9232 100.084 71.6338C99.9534 71.3352 99.8088 71.1065 99.6501 70.9478C99.4914 70.7892 99.3001 70.6865 99.0761 70.6398C98.8521 70.5838 98.5768 70.5558 98.2501 70.5558H97.2421V78.4238C97.2421 78.6478 97.2701 78.8018 97.3261 78.8858C97.3914 78.9605 97.5221 79.0165 97.7181 79.0538L98.8241 79.2218V79.7258H94.6101ZM104.708 79.7258V79.2218L105.548 79.0958C105.725 79.0678 105.842 79.0072 105.898 78.9138C105.954 78.8205 105.982 78.6432 105.982 78.3818V75.4978L103.406 71.2558C103.285 71.0598 103.163 70.9012 103.042 70.7798C102.93 70.6585 102.771 70.5792 102.566 70.5418L102.02 70.4438V69.9118H105.562V70.4298L104.834 70.4998C104.61 70.5278 104.475 70.6072 104.428 70.7378C104.391 70.8592 104.428 71.0178 104.54 71.2138L106.654 74.7558H106.696L108.754 71.2698C108.885 71.0645 108.927 70.8965 108.88 70.7658C108.833 70.6352 108.698 70.5558 108.474 70.5278L107.858 70.4158V69.9118H111.106V70.4298L110.308 70.5418C110.149 70.5698 110.019 70.6352 109.916 70.7378C109.823 70.8312 109.692 71.0225 109.524 71.3118L107.018 75.5118V78.4378C107.018 78.6712 107.046 78.8345 107.102 78.9278C107.167 79.0118 107.289 79.0678 107.466 79.0958L108.278 79.2218V79.7258H104.708ZM112.421 79.7258V79.2218L113.233 79.0958C113.411 79.0678 113.527 79.0072 113.583 78.9138C113.639 78.8205 113.667 78.6432 113.667 78.3818V71.2138C113.667 70.9805 113.635 70.8218 113.569 70.7378C113.504 70.6445 113.378 70.5838 113.191 70.5558L112.421 70.4298V69.9118H115.683C116.159 69.9118 116.589 69.9492 116.971 70.0238C117.363 70.0985 117.704 70.2105 117.993 70.3598C118.283 70.4998 118.525 70.6818 118.721 70.9058C118.917 71.1205 119.062 71.3772 119.155 71.6758C119.258 71.9652 119.309 72.2965 119.309 72.6698C119.309 73.0432 119.263 73.3885 119.169 73.7058C119.076 74.0232 118.936 74.3078 118.749 74.5598C118.572 74.8118 118.343 75.0265 118.063 75.2038C117.783 75.3718 117.457 75.5025 117.083 75.5958C116.719 75.6892 116.304 75.7358 115.837 75.7358C115.567 75.7358 115.333 75.7312 115.137 75.7218C114.951 75.7032 114.806 75.6892 114.703 75.6798V78.4238C114.703 78.6478 114.736 78.8112 114.801 78.9138C114.876 79.0165 115.016 79.0772 115.221 79.0958L116.313 79.2218V79.7258H112.421ZM115.697 75.0778C116.519 75.0778 117.139 74.8912 117.559 74.5178C117.989 74.1445 118.203 73.5472 118.203 72.7258C118.203 72.1938 118.101 71.7692 117.895 71.4518C117.699 71.1345 117.41 70.9058 117.027 70.7658C116.645 70.6258 116.169 70.5558 115.599 70.5558H114.703V75.0218C114.815 75.0405 114.951 75.0545 115.109 75.0638C115.277 75.0732 115.473 75.0778 115.697 75.0778ZM120.904 79.7258V79.2218L121.716 79.0958C121.894 79.0678 122.01 79.0072 122.066 78.9138C122.122 78.8205 122.15 78.6432 122.15 78.3818V71.2278C122.15 70.9945 122.122 70.8358 122.066 70.7518C122.01 70.6585 121.884 70.5932 121.688 70.5558L120.904 70.4298V69.9118H127.148L127.652 72.1378L127.092 72.3058C126.952 71.9138 126.822 71.6012 126.7 71.3678C126.579 71.1345 126.439 70.9618 126.28 70.8498C126.122 70.7285 125.93 70.6492 125.706 70.6118C125.482 70.5745 125.202 70.5558 124.866 70.5558H123.186V74.3778H124.796C125.114 74.3778 125.347 74.3592 125.496 74.3218C125.646 74.2752 125.758 74.1725 125.832 74.0138C125.907 73.8552 125.982 73.5985 126.056 73.2438L126.56 73.1738V76.1698L126.056 76.2538C126 75.8992 125.93 75.6378 125.846 75.4698C125.772 75.3018 125.646 75.1945 125.468 75.1478C125.3 75.1012 125.044 75.0778 124.698 75.0778H123.186V79.0818H125.384C125.711 79.0818 125.982 79.0585 126.196 79.0118C126.411 78.9558 126.588 78.8625 126.728 78.7318C126.878 78.5918 126.999 78.4052 127.092 78.1718C127.195 77.9292 127.284 77.6212 127.358 77.2478H127.946L127.624 79.7258H120.904Z" fill="#47567B"/>
<path d="M231.382 15.7751C231.964 14.096 231.476 12.228 230.718 10.6189C229.776 8.62592 228.344 6.77005 226.348 5.8345C224.352 4.89895 221.737 5.09398 220.219 6.69387C218.842 8.14748 218.641 10.3812 219.022 12.3468C219.854 16.6254 222.944 20.0567 225.909 23.2504C229.547 27.1694 233.186 31.0883 236.822 35.0043" fill="white"/>
<path d="M232.695 17.3111C234.112 12.2889 231.766 5.20677 226.75 2.89683C224.766 1.98261 222.27 1.95519 220.43 3.22291C218.248 4.72223 217.461 7.50451 217.349 10.0217C217.099 15.6258 220.177 20.3828 223.77 24.3902C227.789 28.8729 231.958 33.2277 236.054 37.6372C236.983 38.6398 237.861 37.4696 238.138 36.5432C238.498 35.3426 238.519 33.3709 237.593 32.3744C234.627 29.1807 231.665 25.9901 228.7 22.7964C226.134 20.0324 223.209 17.2958 221.441 13.9193C220.917 12.9167 220.085 11.3686 220.436 10.1954C220.859 8.78747 222.642 8.29379 223.931 8.31817C225.516 8.35169 226.939 9.13182 227.999 10.2837C228.719 11.0639 230.376 13.13 230.066 14.2332C229.724 15.44 229.645 17.433 230.611 18.402C231.577 19.3711 232.421 18.2862 232.695 17.308V17.3111Z" fill="white"/>
<path d="M237.099 34.9464C240.466 31.7467 243.569 28.2665 246.363 24.5548C247.189 23.4608 247.99 22.3332 248.542 21.0777C249.383 19.1548 249.59 17.0216 249.788 14.9311C249.974 12.9564 250.154 10.9268 249.602 9.02216C248.649 5.73401 245.44 3.30218 242.024 3.03705C238.607 2.77193 235.173 4.55161 233.204 7.35218C231.236 10.1527 230.709 13.8553 231.556 17.174" fill="white"/>
<path d="M237.87 37.5763C241.521 34.084 244.998 30.29 247.893 26.1424C250.788 21.9949 251.596 16.6894 251.495 11.6764C251.407 7.15405 249.508 2.6317 245.12 0.763645C241.122 -0.936807 236.682 0.330913 233.649 3.29604C229.636 7.21805 229.023 13.5048 230.245 18.7068C230.483 19.7155 231.4 20.715 232.33 19.8008C233.317 18.8287 233.156 16.8265 232.875 15.6319C230.952 7.43441 243.995 2.11365 247.969 9.79615C248.838 11.4753 248.387 13.6359 248.189 15.4278C247.942 17.6706 247.393 19.4564 246.055 21.3001C243.179 25.2678 239.869 28.9308 236.331 32.3134C234.948 33.6391 235.856 39.5023 237.87 37.5763Z" fill="white"/>
<path d="M224.653 31.6919C224.571 31.5822 224.522 31.4968 224.455 31.4328C223.48 30.4455 222.499 29.4642 221.53 28.4708C218.723 25.6001 216.371 22.379 214.21 19.0086C213.817 18.396 213.488 17.7378 213.189 17.0735C211.772 13.9286 212.162 10.8446 213.607 7.83374C214.295 6.39537 215.362 5.27697 216.721 4.42674C218.65 3.21692 220.744 2.55259 223.014 2.57392C226.473 2.60439 228.822 4.51207 230.422 7.36749C231.574 9.42449 232.135 11.7131 232.248 14.084C232.415 17.6525 231.8 21.1235 230.8 24.5305C230.343 26.0877 229.535 27.4804 228.642 28.8243C228.051 29.7141 227.439 30.5918 226.799 31.5273C228.514 33.4624 230.59 35.0075 232.44 36.845C234.439 34.7088 236.791 33.0297 238.72 30.8691C238.571 30.6466 238.455 30.4638 238.327 30.2901C235.197 25.9841 234.362 23.9484 233.567 18.6856C233.186 16.1653 233.055 13.6451 233.561 11.1249C233.85 9.68656 234.259 8.27257 234.941 6.97742C236.34 4.32313 238.397 2.46421 241.463 1.97663C242.883 1.75112 244.291 1.9553 245.653 2.36365C248.228 3.13464 250.459 4.43589 251.757 6.90428C253.634 10.4758 253.759 14.0779 251.727 17.6464C251.245 18.4905 250.721 19.3194 250.157 20.1117C248.533 22.3942 246.939 24.7011 244.995 26.7307C243.7 28.0868 242.38 29.4185 241.07 30.7624C241.006 30.8295 240.951 30.9087 240.85 31.0336C241.039 31.2348 241.213 31.4328 241.396 31.6157C243.602 33.7976 246.192 35.431 248.935 36.8389C252.686 38.7619 256.654 40.0783 260.777 40.9255C262.325 41.2424 263.889 41.4923 265.455 41.7239C268.274 42.1414 271.096 42.5376 273.921 42.9094C277.712 43.4091 281.503 43.912 285.3 44.3477C286.772 44.5154 288.265 44.5397 289.749 44.5763C292.623 44.6433 295.496 44.6891 298.37 44.7134C299.879 44.7256 301.235 44.9024 302.746 44.8963C303.791 44.8932 304.913 45.1187 305.958 45.1248C306.495 45.1248 307.817 45.2467 308.353 45.2498C308.862 45.2528 309.914 45.3046 310.42 45.3686L310.392 46.5602C309.703 46.6211 309.1 46.615 308.399 46.6242C304.599 46.6668 300.095 46.1488 296.295 46.1305C293.299 46.1152 290.304 45.9964 287.308 45.9385C284.888 45.8928 282.508 45.4966 280.119 45.1705C277.489 44.811 274.853 44.4971 272.223 44.1436C269.063 43.72 265.885 43.3756 262.746 42.8179C256.538 41.7148 250.605 39.798 245.217 36.4154C243.374 35.2573 241.64 33.9652 240.119 32.4019C240.034 32.3135 239.945 32.2313 239.854 32.152C239.82 32.1246 239.769 32.1155 239.68 32.0819C239.57 32.1734 239.439 32.277 239.318 32.3897C237.532 34.0475 235.752 35.7084 233.963 37.3631C233.643 37.6587 233.296 37.9269 232.948 38.195C232.558 38.4998 232.22 38.5059 231.809 38.2194C231.65 38.1097 231.51 37.9695 231.37 37.8354C229.584 36.1777 227.801 34.5199 226.016 32.8651C225.964 32.8164 225.897 32.7889 225.796 32.728C225.693 32.8133 225.574 32.8895 225.476 32.987C223.099 35.4249 220.28 37.2351 217.276 38.7801C213.46 40.7396 209.422 42.0652 205.238 42.9825C203.428 43.3787 201.609 43.6773 199.765 43.8937C197.422 44.171 195.091 44.5641 192.747 44.881C189.779 45.2833 186.799 45.6094 183.84 46.0573C180.576 46.551 177.294 46.6882 174.006 46.7064C169.16 46.7339 164.312 46.7278 159.463 46.7156C158.394 46.7156 157.324 46.6455 156.254 46.5998C155.928 46.5876 155.605 46.5541 155.581 46.1122C155.563 45.7465 155.73 45.5027 156.181 45.4204C156.608 45.3412 157.05 45.3138 157.486 45.3168C164.184 45.3686 170.882 45.3656 177.577 45.1645C179.601 45.1035 181.609 44.8963 183.614 44.6098C186.604 44.1832 189.602 43.8297 192.595 43.4274C195.804 42.9977 199.028 42.6412 202.215 42.0896C208.456 41.0108 214.414 39.1032 219.802 35.6596C221.365 34.66 222.846 33.5538 224.16 32.2343C224.327 32.0637 224.486 31.8839 224.656 31.6949L224.653 31.6919ZM239.826 29.9152C240.293 29.4825 240.664 29.1717 241 28.8212C243.16 26.5753 245.364 24.369 247.131 21.7817C248.189 20.2367 249.328 18.7435 250.313 17.1497C251.733 14.8489 252.104 12.3805 251.346 9.72009C250.62 7.18465 249.145 5.36839 246.741 4.3018C245.156 3.59785 243.499 3.19254 241.768 3.40586C239.266 3.7167 237.556 5.2465 236.386 7.3553C235.399 9.13803 234.826 11.1067 234.749 13.1454C234.554 18.3839 235.423 24.2928 239.263 29.0955C239.385 29.2479 239.497 29.4063 239.61 29.5648C239.668 29.644 239.714 29.7293 239.826 29.9091V29.9152ZM225.705 30.5674C226.512 29.3515 227.268 28.2514 227.981 27.1269C228.862 25.7372 229.499 24.2349 229.819 22.6198C230.151 20.9498 230.486 19.2767 230.693 17.5885C231.068 14.5137 230.703 11.5241 229.456 8.65654C228.749 7.03227 227.591 5.81941 226.134 4.87471C225.281 4.32313 224.315 4.02753 223.297 4.03972C222.499 4.04887 221.685 4.10372 220.908 4.26523C219.01 4.65835 217.276 5.45981 215.977 6.92866C214.298 8.8272 213.689 11.1554 213.792 13.633C213.866 15.3669 214.594 16.9242 215.523 18.3839C218.135 22.4887 221.195 26.2279 224.663 29.6349C224.955 29.9213 225.272 30.1834 225.699 30.5674H225.705Z" fill="#47567B"/>
<path d="M177.896 79.7258V79.2218L178.708 79.0958C178.885 79.0678 179.002 79.0072 179.058 78.9138C179.114 78.8205 179.142 78.6432 179.142 78.3818V71.2278C179.142 70.9852 179.109 70.8218 179.044 70.7378C178.988 70.6445 178.866 70.5838 178.68 70.5558L177.896 70.4298V69.9118H181.326C182.063 69.9118 182.684 69.9912 183.188 70.1498C183.701 70.2992 184.088 70.5418 184.35 70.8778C184.611 71.2045 184.742 71.6478 184.742 72.2078C184.742 72.5718 184.658 72.9078 184.49 73.2158C184.322 73.5238 184.084 73.7852 183.776 73.9998C183.468 74.2145 183.104 74.3732 182.684 74.4758V74.5318C183.58 74.6158 184.238 74.8678 184.658 75.2878C185.087 75.6985 185.302 76.2585 185.302 76.9678C185.302 77.5932 185.138 78.1112 184.812 78.5218C184.494 78.9325 184.042 79.2358 183.454 79.4318C182.866 79.6278 182.17 79.7258 181.368 79.7258H177.896ZM181.27 79.0818C181.886 79.0818 182.413 79.0072 182.852 78.8578C183.29 78.7085 183.622 78.4798 183.846 78.1718C184.079 77.8545 184.196 77.4438 184.196 76.9398C184.196 76.5105 184.098 76.1465 183.902 75.8478C183.706 75.5492 183.402 75.3205 182.992 75.1618C182.59 75.0032 182.068 74.9238 181.424 74.9238C180.826 74.9238 180.411 74.9378 180.178 74.9658V79.0118C180.28 79.0212 180.43 79.0352 180.626 79.0538C180.822 79.0725 181.036 79.0818 181.27 79.0818ZM181.102 74.2938C181.624 74.2938 182.072 74.2145 182.446 74.0558C182.828 73.8972 183.122 73.6685 183.328 73.3698C183.533 73.0618 183.636 72.6932 183.636 72.2638C183.636 71.8438 183.552 71.5078 183.384 71.2558C183.216 71.0038 182.954 70.8265 182.6 70.7238C182.254 70.6118 181.802 70.5558 181.242 70.5558H180.178V74.2658C180.271 74.2752 180.388 74.2845 180.528 74.2938C180.668 74.2938 180.859 74.2938 181.102 74.2938ZM191.739 79.9218C191.113 79.9218 190.567 79.8425 190.101 79.6838C189.643 79.5158 189.265 79.2732 188.967 78.9558C188.677 78.6292 188.463 78.2185 188.323 77.7238C188.183 77.2292 188.113 76.6552 188.113 76.0018V71.2138C188.113 70.9805 188.08 70.8218 188.015 70.7378C187.959 70.6445 187.837 70.5838 187.651 70.5558L186.839 70.4298V69.9118H190.395V70.4298L189.569 70.5558C189.401 70.5838 189.289 70.6492 189.233 70.7518C189.177 70.8452 189.149 71.0178 189.149 71.2698V75.9318C189.149 76.6692 189.237 77.2758 189.415 77.7518C189.601 78.2278 189.895 78.5778 190.297 78.8018C190.707 79.0258 191.244 79.1378 191.907 79.1378C192.532 79.1378 193.05 79.0165 193.461 78.7738C193.871 78.5218 194.179 78.1485 194.385 77.6538C194.599 77.1592 194.707 76.5385 194.707 75.7918V71.2138C194.707 70.9805 194.674 70.8218 194.609 70.7378C194.553 70.6445 194.431 70.5838 194.245 70.5558L193.461 70.4298V69.9118H196.751V70.4298L195.939 70.5558C195.771 70.5838 195.659 70.6445 195.603 70.7378C195.547 70.8312 195.519 71.0085 195.519 71.2698V75.5538C195.519 76.4872 195.388 77.2805 195.127 77.9338C194.865 78.5872 194.455 79.0818 193.895 79.4178C193.335 79.7538 192.616 79.9218 191.739 79.9218ZM201.831 79.9218C201.318 79.9218 200.833 79.8285 200.375 79.6418C199.927 79.4458 199.559 79.1985 199.269 78.8998L199.087 79.8098H198.611L198.317 76.7158L198.877 76.6598C199.017 77.1078 199.185 77.4952 199.381 77.8218C199.587 78.1392 199.815 78.4005 200.067 78.6058C200.319 78.8112 200.59 78.9652 200.879 79.0678C201.169 79.1612 201.472 79.2078 201.789 79.2078C202.163 79.2078 202.499 79.1425 202.797 79.0118C203.096 78.8812 203.334 78.6758 203.511 78.3958C203.689 78.1158 203.777 77.7565 203.777 77.3178C203.777 76.9912 203.712 76.7018 203.581 76.4498C203.46 76.1885 203.236 75.9505 202.909 75.7358C202.583 75.5118 202.121 75.3065 201.523 75.1198C200.982 74.9425 200.529 74.7605 200.165 74.5738C199.801 74.3778 199.507 74.1725 199.283 73.9578C199.069 73.7338 198.915 73.4818 198.821 73.2018C198.728 72.9218 198.681 72.6092 198.681 72.2638C198.681 71.9372 198.728 71.6432 198.821 71.3818C198.915 71.1112 199.045 70.8732 199.213 70.6678C199.391 70.4625 199.596 70.2898 199.829 70.1498C200.072 70.0098 200.333 69.9025 200.613 69.8278C200.903 69.7532 201.206 69.7158 201.523 69.7158C201.906 69.7158 202.275 69.7858 202.629 69.9258C202.984 70.0658 203.306 70.2572 203.595 70.4998L203.791 69.7158H204.267L204.575 72.4878L204.001 72.5718C203.833 72.0492 203.628 71.6292 203.385 71.3118C203.152 70.9945 202.881 70.7612 202.573 70.6118C202.265 70.4625 201.915 70.3878 201.523 70.3878C200.982 70.3878 200.543 70.5325 200.207 70.8218C199.881 71.1112 199.717 71.5078 199.717 72.0118C199.717 72.3292 199.778 72.6138 199.899 72.8658C200.03 73.1085 200.259 73.3325 200.585 73.5378C200.912 73.7338 201.369 73.9345 201.957 74.1398C202.517 74.3172 202.979 74.5132 203.343 74.7278C203.717 74.9332 204.006 75.1572 204.211 75.3998C204.426 75.6425 204.575 75.9038 204.659 76.1838C204.753 76.4545 204.799 76.7532 204.799 77.0798C204.799 77.4998 204.729 77.8825 204.589 78.2278C204.449 78.5732 204.249 78.8718 203.987 79.1238C203.726 79.3758 203.413 79.5718 203.049 79.7118C202.685 79.8518 202.279 79.9218 201.831 79.9218ZM206.749 79.7258V79.2218L207.589 79.0958C207.767 79.0678 207.883 79.0072 207.939 78.9138C207.995 78.8205 208.023 78.6432 208.023 78.3818V71.2138C208.023 70.9805 207.991 70.8218 207.925 70.7378C207.869 70.6445 207.748 70.5838 207.561 70.5558L206.749 70.4298V69.9118H210.333V70.4298L209.479 70.5558C209.311 70.5838 209.199 70.6492 209.143 70.7518C209.087 70.8452 209.059 71.0178 209.059 71.2698V78.4378C209.059 78.6712 209.087 78.8345 209.143 78.9278C209.209 79.0118 209.33 79.0678 209.507 79.0958L210.333 79.2218V79.7258H206.749ZM212.402 79.7258V79.2218L213.186 79.0958C213.354 79.0772 213.471 79.0165 213.536 78.9138C213.611 78.8112 213.648 78.6338 213.648 78.3818V71.2138C213.648 70.9898 213.62 70.8358 213.564 70.7518C213.508 70.6585 213.382 70.5932 213.186 70.5558L212.402 70.4298V69.9118H214.95L220.018 78.1158V78.0598V71.2138C220.018 70.9805 219.99 70.8218 219.934 70.7378C219.878 70.6538 219.752 70.5932 219.556 70.5558L218.786 70.4298V69.9118H222.062V70.4298L221.292 70.5558C221.115 70.5838 220.994 70.6445 220.928 70.7378C220.863 70.8218 220.83 70.9898 220.83 71.2418V79.7258H219.822L214.474 71.1018L214.46 71.1578V78.4378C214.46 78.6805 214.493 78.8438 214.558 78.9278C214.624 79.0118 214.74 79.0678 214.908 79.0958L215.72 79.2218V79.7258H212.402ZM224.098 79.7258V79.2218L224.91 79.0958C225.088 79.0678 225.204 79.0072 225.26 78.9138C225.316 78.8205 225.344 78.6432 225.344 78.3818V71.2278C225.344 70.9945 225.316 70.8358 225.26 70.7518C225.204 70.6585 225.078 70.5932 224.882 70.5558L224.098 70.4298V69.9118H230.342L230.846 72.1378L230.286 72.3058C230.146 71.9138 230.016 71.6012 229.894 71.3678C229.773 71.1345 229.633 70.9618 229.474 70.8498C229.316 70.7285 229.124 70.6492 228.9 70.6118C228.676 70.5745 228.396 70.5558 228.06 70.5558H226.38V74.3778H227.99C228.308 74.3778 228.541 74.3592 228.69 74.3218C228.84 74.2752 228.952 74.1725 229.026 74.0138C229.101 73.8552 229.176 73.5985 229.25 73.2438L229.754 73.1738V76.1698L229.25 76.2538C229.194 75.8992 229.124 75.6378 229.04 75.4698C228.966 75.3018 228.84 75.1945 228.662 75.1478C228.494 75.1012 228.238 75.0778 227.892 75.0778H226.38V79.0818H228.578C228.905 79.0818 229.176 79.0585 229.39 79.0118C229.605 78.9558 229.782 78.8625 229.922 78.7318C230.072 78.5918 230.193 78.4052 230.286 78.1718C230.389 77.9292 230.478 77.6212 230.552 77.2478H231.14L230.818 79.7258H224.098ZM236.448 79.9218C235.934 79.9218 235.449 79.8285 234.992 79.6418C234.544 79.4458 234.175 79.1985 233.886 78.8998L233.704 79.8098H233.228L232.934 76.7158L233.494 76.6598C233.634 77.1078 233.802 77.4952 233.998 77.8218C234.203 78.1392 234.432 78.4005 234.684 78.6058C234.936 78.8112 235.206 78.9652 235.496 79.0678C235.785 79.1612 236.088 79.2078 236.406 79.2078C236.779 79.2078 237.115 79.1425 237.414 79.0118C237.712 78.8812 237.95 78.6758 238.128 78.3958C238.305 78.1158 238.394 77.7565 238.394 77.3178C238.394 76.9912 238.328 76.7018 238.198 76.4498C238.076 76.1885 237.852 75.9505 237.526 75.7358C237.199 75.5118 236.737 75.3065 236.14 75.1198C235.598 74.9425 235.146 74.7605 234.782 74.5738C234.418 74.3778 234.124 74.1725 233.9 73.9578C233.685 73.7338 233.531 73.4818 233.438 73.2018C233.344 72.9218 233.298 72.6092 233.298 72.2638C233.298 71.9372 233.344 71.6432 233.438 71.3818C233.531 71.1112 233.662 70.8732 233.83 70.6678C234.007 70.4625 234.212 70.2898 234.446 70.1498C234.688 70.0098 234.95 69.9025 235.23 69.8278C235.519 69.7532 235.822 69.7158 236.14 69.7158C236.522 69.7158 236.891 69.7858 237.246 69.9258C237.6 70.0658 237.922 70.2572 238.212 70.4998L238.408 69.7158H238.884L239.192 72.4878L238.618 72.5718C238.45 72.0492 238.244 71.6292 238.002 71.3118C237.768 70.9945 237.498 70.7612 237.19 70.6118C236.882 70.4625 236.532 70.3878 236.14 70.3878C235.598 70.3878 235.16 70.5325 234.824 70.8218C234.497 71.1112 234.334 71.5078 234.334 72.0118C234.334 72.3292 234.394 72.6138 234.516 72.8658C234.646 73.1085 234.875 73.3325 235.202 73.5378C235.528 73.7338 235.986 73.9345 236.574 74.1398C237.134 74.3172 237.596 74.5132 237.96 74.7278C238.333 74.9332 238.622 75.1572 238.828 75.3998C239.042 75.6425 239.192 75.9038 239.276 76.1838C239.369 76.4545 239.416 76.7532 239.416 77.0798C239.416 77.4998 239.346 77.8825 239.206 78.2278C239.066 78.5732 238.865 78.8718 238.604 79.1238C238.342 79.3758 238.03 79.5718 237.666 79.7118C237.302 79.8518 236.896 79.9218 236.448 79.9218ZM244.739 79.9218C244.226 79.9218 243.741 79.8285 243.283 79.6418C242.835 79.4458 242.467 79.1985 242.177 78.8998L241.995 79.8098H241.519L241.225 76.7158L241.785 76.6598C241.925 77.1078 242.093 77.4952 242.289 77.8218C242.495 78.1392 242.723 78.4005 242.975 78.6058C243.227 78.8112 243.498 78.9652 243.787 79.0678C244.077 79.1612 244.38 79.2078 244.697 79.2078C245.071 79.2078 245.407 79.1425 245.705 79.0118C246.004 78.8812 246.242 78.6758 246.419 78.3958C246.597 78.1158 246.685 77.7565 246.685 77.3178C246.685 76.9912 246.62 76.7018 246.489 76.4498C246.368 76.1885 246.144 75.9505 245.817 75.7358C245.491 75.5118 245.029 75.3065 244.431 75.1198C243.89 74.9425 243.437 74.7605 243.073 74.5738C242.709 74.3778 242.415 74.1725 242.191 73.9578C241.977 73.7338 241.823 73.4818 241.729 73.2018C241.636 72.9218 241.589 72.6092 241.589 72.2638C241.589 71.9372 241.636 71.6432 241.729 71.3818C241.823 71.1112 241.953 70.8732 242.121 70.6678C242.299 70.4625 242.504 70.2898 242.737 70.1498C242.98 70.0098 243.241 69.9025 243.521 69.8278C243.811 69.7532 244.114 69.7158 244.431 69.7158C244.814 69.7158 245.183 69.7858 245.537 69.9258C245.892 70.0658 246.214 70.2572 246.503 70.4998L246.699 69.7158H247.175L247.483 72.4878L246.909 72.5718C246.741 72.0492 246.536 71.6292 246.293 71.3118C246.06 70.9945 245.789 70.7612 245.481 70.6118C245.173 70.4625 244.823 70.3878 244.431 70.3878C243.89 70.3878 243.451 70.5325 243.115 70.8218C242.789 71.1112 242.625 71.5078 242.625 72.0118C242.625 72.3292 242.686 72.6138 242.807 72.8658C242.938 73.1085 243.167 73.3325 243.493 73.5378C243.82 73.7338 244.277 73.9345 244.865 74.1398C245.425 74.3172 245.887 74.5132 246.251 74.7278C246.625 74.9332 246.914 75.1572 247.119 75.3998C247.334 75.6425 247.483 75.9038 247.567 76.1838C247.661 76.4545 247.707 76.7532 247.707 77.0798C247.707 77.4998 247.637 77.8825 247.497 78.2278C247.357 78.5732 247.157 78.8718 246.895 79.1238C246.634 79.3758 246.321 79.5718 245.957 79.7118C245.593 79.8518 245.187 79.9218 244.739 79.9218ZM252.671 79.7258V79.2218L253.511 79.0958C253.689 79.0678 253.805 79.0072 253.861 78.9138C253.917 78.8205 253.945 78.6432 253.945 78.3818V71.2138C253.945 70.9805 253.913 70.8218 253.847 70.7378C253.791 70.6445 253.67 70.5838 253.483 70.5558L252.671 70.4298V69.9118H256.255V70.4298L255.401 70.5558C255.233 70.5838 255.121 70.6492 255.065 70.7518C255.009 70.8452 254.981 71.0178 254.981 71.2698V78.4378C254.981 78.6712 255.009 78.8345 255.065 78.9278C255.131 79.0118 255.252 79.0678 255.429 79.0958L256.255 79.2218V79.7258H252.671ZM258.324 79.7258V79.2218L259.108 79.0958C259.276 79.0772 259.393 79.0165 259.458 78.9138C259.533 78.8112 259.57 78.6338 259.57 78.3818V71.2138C259.57 70.9898 259.542 70.8358 259.486 70.7518C259.43 70.6585 259.304 70.5932 259.108 70.5558L258.324 70.4298V69.9118H260.872L265.94 78.1158V78.0598V71.2138C265.94 70.9805 265.912 70.8218 265.856 70.7378C265.8 70.6538 265.674 70.5932 265.478 70.5558L264.708 70.4298V69.9118H267.984V70.4298L267.214 70.5558C267.037 70.5838 266.916 70.6445 266.85 70.7378C266.785 70.8218 266.752 70.9898 266.752 71.2418V79.7258H265.744L260.396 71.1018L260.382 71.1578V78.4378C260.382 78.6805 260.415 78.8438 260.48 78.9278C260.546 79.0118 260.662 79.0678 260.83 79.0958L261.642 79.2218V79.7258H258.324ZM270.02 79.7258V79.2218L270.832 79.0958C271.01 79.0678 271.126 79.0072 271.182 78.9138C271.238 78.8112 271.266 78.6338 271.266 78.3818V71.2138C271.266 70.9898 271.238 70.8358 271.182 70.7518C271.126 70.6585 270.996 70.5932 270.79 70.5558L270.02 70.4298V69.9118H276.334L276.838 72.2358L276.264 72.4318C276.124 72.0025 275.989 71.6665 275.858 71.4238C275.728 71.1718 275.583 70.9852 275.424 70.8638C275.266 70.7332 275.074 70.6492 274.85 70.6118C274.636 70.5745 274.36 70.5558 274.024 70.5558H272.302V74.6018H273.828C274.155 74.6018 274.398 74.5832 274.556 74.5458C274.715 74.4992 274.827 74.3965 274.892 74.2378C274.967 74.0698 275.037 73.8085 275.102 73.4538L275.606 73.3838V76.5758L275.102 76.6598C275.046 76.2305 274.976 75.9225 274.892 75.7358C274.818 75.5398 274.696 75.4185 274.528 75.3718C274.37 75.3158 274.118 75.2878 273.772 75.2878H272.302V78.4098C272.302 78.6525 272.34 78.8252 272.414 78.9278C272.489 79.0212 272.624 79.0772 272.82 79.0958L273.912 79.2218V79.7258H270.02ZM282.843 79.9218C281.928 79.9218 281.139 79.7165 280.477 79.3058C279.823 78.8952 279.319 78.3212 278.965 77.5838C278.619 76.8465 278.447 75.9785 278.447 74.9798C278.447 73.8785 278.624 72.9405 278.979 72.1658C279.343 71.3818 279.861 70.7798 280.533 70.3598C281.205 69.9305 282.012 69.7158 282.955 69.7158C283.851 69.7158 284.621 69.9165 285.265 70.3178C285.909 70.7192 286.403 71.2885 286.749 72.0258C287.103 72.7538 287.281 73.6172 287.281 74.6158C287.281 75.4185 287.178 76.1465 286.973 76.7998C286.767 77.4532 286.469 78.0132 286.077 78.4798C285.694 78.9465 285.227 79.3058 284.677 79.5578C284.135 79.8005 283.524 79.9218 282.843 79.9218ZM282.969 79.1518C283.482 79.1518 283.939 79.0585 284.341 78.8718C284.742 78.6758 285.078 78.3912 285.349 78.0178C285.619 77.6352 285.82 77.1732 285.951 76.6318C286.091 76.0905 286.161 75.4745 286.161 74.7838C286.161 74.1025 286.086 73.5005 285.937 72.9778C285.797 72.4458 285.582 71.9932 285.293 71.6198C285.013 71.2372 284.663 70.9525 284.243 70.7658C283.832 70.5698 283.351 70.4718 282.801 70.4718C282.278 70.4718 281.816 70.5698 281.415 70.7658C281.013 70.9525 280.673 71.2325 280.393 71.6058C280.113 71.9698 279.903 72.4178 279.763 72.9498C279.623 73.4818 279.553 74.0885 279.553 74.7698C279.553 75.4418 279.627 76.0485 279.777 76.5898C279.926 77.1312 280.145 77.5932 280.435 77.9758C280.733 78.3585 281.093 78.6525 281.513 78.8578C281.942 79.0538 282.427 79.1518 282.969 79.1518Z" fill="#47567B"/>
<path d="M386.222 15.7751C386.804 14.096 386.317 12.228 385.558 10.6189C384.616 8.62592 383.184 6.77005 381.188 5.8345C379.192 4.89895 376.577 5.09398 375.06 6.69387C373.682 8.14748 373.481 10.3812 373.862 12.3468C374.694 16.6254 377.784 20.0567 380.749 23.2504C384.388 27.1694 388.026 31.0883 391.662 35.0043" fill="white"/>
<path d="M387.536 17.3111C388.953 12.2889 386.606 5.20677 381.59 2.89683C379.606 1.98261 377.111 1.95519 375.27 3.22291C373.088 4.72223 372.302 7.50451 372.189 10.0217C371.939 15.6258 375.017 20.3828 378.61 24.3902C382.629 28.8729 386.798 33.2277 390.894 37.6372C391.823 38.6398 392.701 37.4696 392.978 36.5432C393.338 35.3426 393.359 33.3709 392.433 32.3744C389.468 29.1807 386.506 25.9901 383.541 22.7964C380.975 20.0324 378.049 17.2958 376.282 13.9193C375.758 12.9167 374.926 11.3686 375.276 10.1954C375.7 8.78747 377.482 8.29379 378.771 8.31817C380.356 8.35169 381.779 9.13182 382.84 10.2837C383.559 11.0639 385.217 13.13 384.906 14.2332C384.565 15.44 384.485 17.433 385.451 18.402C386.417 19.3711 387.261 18.2862 387.536 17.308V17.3111Z" fill="white"/>
<path d="M391.939 34.9464C395.307 31.7467 398.409 28.2665 401.203 24.5548C402.029 23.4608 402.831 22.3332 403.382 21.0777C404.223 19.1548 404.431 17.0216 404.629 14.9311C404.815 12.9564 404.994 10.9268 404.443 9.02216C403.489 5.73401 400.28 3.30218 396.864 3.03705C393.448 2.77193 390.013 4.55161 388.045 7.35218C386.076 10.1527 385.549 13.8553 386.396 17.174" fill="white"/>
<path d="M392.71 37.5763C396.361 34.084 399.838 30.29 402.733 26.1424C405.628 21.9949 406.436 16.6894 406.335 11.6764C406.247 7.15405 404.348 2.6317 399.96 0.763645C395.962 -0.936807 391.522 0.330913 388.49 3.29604C384.476 7.21805 383.864 13.5048 385.086 18.7068C385.323 19.7155 386.241 20.715 387.17 19.8008C388.158 18.8287 387.996 16.8265 387.716 15.6319C385.793 7.43441 398.836 2.11365 402.809 9.79615C403.678 11.4753 403.227 13.6359 403.029 15.4278C402.782 17.6706 402.234 19.4564 400.896 21.3001C398.019 25.2678 394.709 28.9308 391.171 32.3134C389.788 33.6391 390.696 39.5023 392.71 37.5763Z" fill="white"/>
<path d="M379.494 31.6919C379.411 31.5822 379.363 31.4968 379.296 31.4328C378.32 30.4455 377.339 29.4642 376.37 28.4708C373.563 25.6001 371.211 22.379 369.05 19.0086C368.657 18.396 368.328 17.7378 368.029 17.0735C366.612 13.9286 367.002 10.8446 368.447 7.83374C369.136 6.39537 370.202 5.27697 371.561 4.42674C373.49 3.21692 375.584 2.55259 377.854 2.57392C381.313 2.60439 383.663 4.51207 385.262 7.36749C386.414 9.42449 386.975 11.7131 387.088 14.084C387.255 17.6525 386.64 21.1235 385.64 24.5305C385.183 26.0877 384.376 27.4804 383.483 28.8243C382.892 29.7141 382.279 30.5918 381.639 31.5273C383.355 33.4624 385.43 35.0075 387.28 36.845C389.279 34.7088 391.632 33.0297 393.561 30.8691C393.411 30.6466 393.295 30.4638 393.167 30.2901C390.038 25.9841 389.203 23.9484 388.407 18.6856C388.026 16.1653 387.895 13.6451 388.401 11.1249C388.691 9.68656 389.099 8.27257 389.782 6.97742C391.181 4.32313 393.238 2.46421 396.303 1.97663C397.723 1.75112 399.131 1.9553 400.493 2.36365C403.068 3.13464 405.299 4.43589 406.597 6.90428C408.475 10.4758 408.6 14.0779 406.567 17.6464C406.085 18.4905 405.561 19.3194 404.997 20.1117C403.373 22.3942 401.779 24.7011 399.835 26.7307C398.54 28.0868 397.22 29.4185 395.91 30.7624C395.846 30.8295 395.791 30.9087 395.691 31.0336C395.88 31.2348 396.053 31.4328 396.236 31.6157C398.443 33.7976 401.033 35.431 403.775 36.8389C407.527 38.7619 411.495 40.0783 415.618 40.9255C417.166 41.2424 418.729 41.4923 420.295 41.7239C423.114 42.1414 425.936 42.5376 428.761 42.9094C432.552 43.4091 436.343 43.912 440.14 44.3477C441.612 44.5154 443.105 44.5397 444.589 44.5763C447.463 44.6433 450.337 44.6891 453.21 44.7134C454.719 44.7256 456.075 44.9024 457.587 44.8963C458.632 44.8932 459.753 45.1187 460.799 45.1248C461.335 45.1248 462.657 45.2467 463.194 45.2498C463.703 45.2528 464.754 45.3046 465.26 45.3686L465.232 46.5602C464.544 46.6211 463.94 46.615 463.239 46.6242C459.439 46.6668 454.935 46.1488 451.135 46.1305C448.14 46.1152 445.144 45.9964 442.148 45.9385C439.729 45.8928 437.349 45.4966 434.96 45.1705C432.33 44.811 429.694 44.4971 427.064 44.1436C423.904 43.72 420.725 43.3756 417.586 42.8179C411.379 41.7148 405.445 39.798 400.058 36.4154C398.214 35.2573 396.48 33.9652 394.959 32.4019C394.874 32.3135 394.786 32.2313 394.694 32.152C394.661 32.1246 394.609 32.1155 394.52 32.0819C394.411 32.1734 394.28 32.277 394.158 32.3897C392.372 34.0475 390.592 35.7084 388.804 37.3631C388.484 37.6587 388.136 37.9269 387.789 38.195C387.399 38.4998 387.06 38.5059 386.649 38.2194C386.491 38.1097 386.35 37.9695 386.21 37.8354C384.424 36.1777 382.642 34.5199 380.856 32.8651C380.804 32.8164 380.737 32.7889 380.637 32.728C380.533 32.8133 380.414 32.8895 380.317 32.987C377.94 35.4249 375.121 37.2351 372.116 38.7801C368.301 40.7396 364.263 42.0652 360.079 42.9825C358.269 43.3787 356.449 43.6773 354.606 43.8937C352.262 44.171 349.931 44.5641 347.587 44.881C344.619 45.2833 341.639 45.6094 338.68 46.0573C335.416 46.551 332.134 46.6882 328.846 46.7064C324 46.7339 319.152 46.7278 314.304 46.7156C313.234 46.7156 312.164 46.6455 311.095 46.5998C310.769 46.5876 310.446 46.5541 310.421 46.1122C310.403 45.7465 310.571 45.5027 311.022 45.4204C311.448 45.3412 311.89 45.3138 312.326 45.3168C319.024 45.3686 325.722 45.3656 332.417 45.1645C334.441 45.1035 336.449 44.8963 338.454 44.6098C341.444 44.1832 344.442 43.8297 347.435 43.4274C350.644 42.9977 353.868 42.6412 357.056 42.0896C363.297 41.0108 369.254 39.1032 374.642 35.6596C376.206 34.66 377.687 33.5538 379 32.2343C379.168 32.0637 379.326 31.8839 379.497 31.6949L379.494 31.6919ZM394.667 29.9152C395.133 29.4825 395.505 29.1717 395.84 28.8212C398.001 26.5753 400.204 24.369 401.971 21.7817C403.029 20.2367 404.169 18.7435 405.153 17.1497C406.573 14.8489 406.945 12.3805 406.186 9.72009C405.461 7.18465 403.986 5.36839 401.581 4.3018C399.997 3.59785 398.339 3.19254 396.608 3.40586C394.106 3.7167 392.396 5.2465 391.226 7.3553C390.239 9.13803 389.666 11.1067 389.59 13.1454C389.395 18.3839 390.263 24.2928 394.103 29.0955C394.225 29.2479 394.338 29.4063 394.45 29.5648C394.508 29.644 394.554 29.7293 394.667 29.9091V29.9152ZM380.545 30.5674C381.353 29.3515 382.108 28.2514 382.822 27.1269C383.702 25.7372 384.339 24.2349 384.659 22.6198C384.991 20.9498 385.326 19.2767 385.534 17.5885C385.909 14.5137 385.543 11.5241 384.296 8.65654C383.589 7.03227 382.431 5.81941 380.975 4.87471C380.122 4.32313 379.155 4.02753 378.138 4.03972C377.339 4.04887 376.526 4.10372 375.748 4.26523C373.85 4.65835 372.116 5.45981 370.818 6.92866C369.139 8.8272 368.529 11.1554 368.633 13.633C368.706 15.3669 369.434 16.9242 370.364 18.3839C372.975 22.4887 376.035 26.2279 379.503 29.6349C379.795 29.9213 380.112 30.1834 380.539 30.5674H380.545Z" fill="#47567B"/>
<path d="M326.59 79.9218C325.694 79.9218 324.91 79.7212 324.238 79.3198C323.575 78.9185 323.057 78.3398 322.684 77.5838C322.32 76.8185 322.138 75.9038 322.138 74.8398C322.138 74.0465 322.241 73.3372 322.446 72.7118C322.651 72.0772 322.945 71.5358 323.328 71.0878C323.711 70.6398 324.168 70.2992 324.7 70.0658C325.232 69.8325 325.825 69.7158 326.478 69.7158C326.982 69.7158 327.435 69.7952 327.836 69.9538C328.247 70.1032 328.601 70.3225 328.9 70.6118L329.04 69.7018H329.53L330.062 72.8658L329.516 72.9918C329.301 72.3758 329.054 71.8858 328.774 71.5218C328.494 71.1485 328.167 70.8778 327.794 70.7098C327.421 70.5418 326.977 70.4578 326.464 70.4578C325.82 70.4578 325.255 70.6165 324.77 70.9338C324.294 71.2512 323.921 71.7318 323.65 72.3758C323.379 73.0105 323.244 73.8085 323.244 74.7698C323.244 75.4512 323.323 76.0625 323.482 76.6038C323.641 77.1358 323.869 77.5932 324.168 77.9758C324.476 78.3492 324.84 78.6385 325.26 78.8438C325.689 79.0398 326.17 79.1378 326.702 79.1378C327.094 79.1378 327.463 79.0865 327.808 78.9838C328.153 78.8812 328.475 78.7132 328.774 78.4798C329.082 78.2465 329.376 77.9432 329.656 77.5698L330.174 77.9758C329.95 78.3118 329.698 78.6058 329.418 78.8578C329.138 79.1005 328.839 79.3012 328.522 79.4598C328.214 79.6185 327.897 79.7352 327.57 79.8098C327.243 79.8845 326.917 79.9218 326.59 79.9218ZM339.437 79.9218C339.139 79.9218 338.882 79.8705 338.667 79.7678C338.453 79.6745 338.261 79.5158 338.093 79.2918C337.925 79.0678 337.762 78.7645 337.603 78.3818L336.875 76.5198C336.726 76.1558 336.577 75.8805 336.427 75.6938C336.278 75.4978 336.101 75.3672 335.895 75.3018C335.699 75.2365 335.447 75.2038 335.139 75.2038C334.971 75.2038 334.822 75.2085 334.691 75.2178C334.561 75.2178 334.439 75.2272 334.327 75.2458V78.4238C334.327 78.6478 334.36 78.8112 334.425 78.9138C334.5 79.0165 334.635 79.0772 334.831 79.0958L335.881 79.2218V79.7258H332.031V79.2218L332.871 79.0958C333.039 79.0678 333.151 79.0118 333.207 78.9278C333.273 78.8345 333.305 78.6525 333.305 78.3818V71.2138C333.305 70.9805 333.273 70.8218 333.207 70.7378C333.142 70.6445 333.016 70.5838 332.829 70.5558L332.031 70.4298V69.9118H335.237C335.863 69.9118 336.409 69.9678 336.875 70.0798C337.342 70.1825 337.725 70.3412 338.023 70.5558C338.331 70.7612 338.56 71.0225 338.709 71.3398C338.859 71.6572 338.933 72.0258 338.933 72.4458C338.933 72.6605 338.901 72.8752 338.835 73.0898C338.779 73.3045 338.691 73.5098 338.569 73.7058C338.448 73.9018 338.294 74.0838 338.107 74.2518C337.921 74.4198 337.701 74.5645 337.449 74.6858C337.207 74.8072 336.931 74.8958 336.623 74.9518V74.9938C336.959 75.0872 337.23 75.2412 337.435 75.4558C337.641 75.6612 337.813 75.9412 337.953 76.2958L338.429 77.4718C338.579 77.8265 338.709 78.1298 338.821 78.3818C338.943 78.6338 339.078 78.8298 339.227 78.9698C339.386 79.1005 339.587 79.1658 339.829 79.1658C339.96 79.1658 340.081 79.1518 340.193 79.1238C340.315 79.0958 340.436 79.0585 340.557 79.0118L340.669 79.4178C340.511 79.5765 340.324 79.6978 340.109 79.7818C339.904 79.8752 339.68 79.9218 339.437 79.9218ZM335.279 74.6018C335.774 74.6018 336.213 74.5272 336.595 74.3778C336.978 74.2192 337.281 73.9812 337.505 73.6638C337.729 73.3465 337.841 72.9545 337.841 72.4878C337.841 72.0212 337.739 71.6478 337.533 71.3678C337.328 71.0878 337.029 70.8872 336.637 70.7658C336.245 70.6352 335.765 70.5698 335.195 70.5698H334.327V74.5738C334.57 74.5832 334.766 74.5925 334.915 74.6018C335.065 74.6018 335.186 74.6018 335.279 74.6018ZM341.95 79.7258V79.2218L342.762 79.0958C342.939 79.0678 343.056 79.0072 343.112 78.9138C343.168 78.8205 343.196 78.6432 343.196 78.3818V71.2278C343.196 70.9945 343.168 70.8358 343.112 70.7518C343.056 70.6585 342.93 70.5932 342.734 70.5558L341.95 70.4298V69.9118H348.194L348.698 72.1378L348.138 72.3058C347.998 71.9138 347.867 71.6012 347.746 71.3678C347.625 71.1345 347.485 70.9618 347.326 70.8498C347.167 70.7285 346.976 70.6492 346.752 70.6118C346.528 70.5745 346.248 70.5558 345.912 70.5558H344.232V74.3778H345.842C346.159 74.3778 346.393 74.3592 346.542 74.3218C346.691 74.2752 346.803 74.1725 346.878 74.0138C346.953 73.8552 347.027 73.5985 347.102 73.2438L347.606 73.1738V76.1698L347.102 76.2538C347.046 75.8992 346.976 75.6378 346.892 75.4698C346.817 75.3018 346.691 75.1945 346.514 75.1478C346.346 75.1012 346.089 75.0778 345.744 75.0778H344.232V79.0818H346.43C346.757 79.0818 347.027 79.0585 347.242 79.0118C347.457 78.9558 347.634 78.8625 347.774 78.7318C347.923 78.5918 348.045 78.4052 348.138 78.1718C348.241 77.9292 348.329 77.6212 348.404 77.2478H348.992L348.67 79.7258H341.95ZM350.197 79.7258V79.2078L350.827 79.0958C350.995 79.0585 351.117 78.9978 351.191 78.9138C351.275 78.8298 351.369 78.6432 351.471 78.3538L354.467 69.9118H355.475L358.415 78.3818C358.499 78.6152 358.574 78.7785 358.639 78.8718C358.705 78.9652 358.835 79.0352 359.031 79.0818L359.577 79.1798V79.7258H356.245V79.2078L357.057 79.1098C357.244 79.0818 357.356 79.0212 357.393 78.9278C357.431 78.8252 357.407 78.6525 357.323 78.4098L356.665 76.4638H352.927L352.269 78.3538C352.195 78.5685 352.171 78.7412 352.199 78.8718C352.237 78.9932 352.367 79.0725 352.591 79.1098L353.389 79.2218V79.7258H350.197ZM353.151 75.7918H356.441L354.831 70.9758H354.789L353.151 75.7918ZM361.53 79.7258V79.2218L362.664 79.0538C362.814 79.0258 362.926 78.9698 363 78.8858C363.084 78.7925 363.126 78.6198 363.126 78.3678V70.5558H362.132C361.796 70.5558 361.516 70.5838 361.292 70.6398C361.068 70.6865 360.877 70.7892 360.718 70.9478C360.56 71.1065 360.415 71.3352 360.284 71.6338C360.154 71.9232 360.009 72.3152 359.85 72.8098L359.29 72.6698L359.836 69.9118H367.466L367.998 72.6698L367.438 72.8098C367.28 72.3152 367.135 71.9232 367.004 71.6338C366.874 71.3352 366.729 71.1065 366.57 70.9478C366.412 70.7892 366.22 70.6865 365.996 70.6398C365.772 70.5838 365.497 70.5558 365.17 70.5558H364.162V78.4238C364.162 78.6478 364.19 78.8018 364.246 78.8858C364.312 78.9605 364.442 79.0165 364.638 79.0538L365.744 79.2218V79.7258H361.53ZM369.696 79.7258V79.2218L370.508 79.0958C370.686 79.0678 370.802 79.0072 370.858 78.9138C370.914 78.8205 370.942 78.6432 370.942 78.3818V71.2278C370.942 70.9945 370.914 70.8358 370.858 70.7518C370.802 70.6585 370.676 70.5932 370.48 70.5558L369.696 70.4298V69.9118H375.94L376.444 72.1378L375.884 72.3058C375.744 71.9138 375.614 71.6012 375.492 71.3678C375.371 71.1345 375.231 70.9618 375.072 70.8498C374.914 70.7285 374.722 70.6492 374.498 70.6118C374.274 70.5745 373.994 70.5558 373.658 70.5558H371.978V74.3778H373.588C373.906 74.3778 374.139 74.3592 374.288 74.3218C374.438 74.2752 374.55 74.1725 374.624 74.0138C374.699 73.8552 374.774 73.5985 374.848 73.2438L375.352 73.1738V76.1698L374.848 76.2538C374.792 75.8992 374.722 75.6378 374.638 75.4698C374.564 75.3018 374.438 75.1945 374.26 75.1478C374.092 75.1012 373.836 75.0778 373.49 75.0778H371.978V79.0818H374.176C374.503 79.0818 374.774 79.0585 374.988 79.0118C375.203 78.9558 375.38 78.8625 375.52 78.7318C375.67 78.5918 375.791 78.4052 375.884 78.1718C375.987 77.9292 376.076 77.6212 376.15 77.2478H376.738L376.416 79.7258H369.696ZM380.958 79.7258V79.2078L381.588 79.0958C381.756 79.0585 381.877 78.9978 381.952 78.9138C382.036 78.8298 382.129 78.6432 382.232 78.3538L385.228 69.9118H386.236L389.176 78.3818C389.26 78.6152 389.335 78.7785 389.4 78.8718C389.465 78.9652 389.596 79.0352 389.792 79.0818L390.338 79.1798V79.7258H387.006V79.2078L387.818 79.1098C388.005 79.0818 388.117 79.0212 388.154 78.9278C388.191 78.8252 388.168 78.6525 388.084 78.4098L387.426 76.4638H383.688L383.03 78.3538C382.955 78.5685 382.932 78.7412 382.96 78.8718C382.997 78.9932 383.128 79.0725 383.352 79.1098L384.15 79.2218V79.7258H380.958ZM383.912 75.7918H387.202L385.592 70.9758H385.55L383.912 75.7918ZM395.808 79.9218C394.912 79.9218 394.128 79.7212 393.456 79.3198C392.794 78.9185 392.276 78.3398 391.902 77.5838C391.538 76.8185 391.356 75.9038 391.356 74.8398C391.356 74.0465 391.459 73.3372 391.664 72.7118C391.87 72.0772 392.164 71.5358 392.546 71.0878C392.929 70.6398 393.386 70.2992 393.918 70.0658C394.45 69.8325 395.043 69.7158 395.696 69.7158C396.2 69.7158 396.653 69.7952 397.054 69.9538C397.465 70.1032 397.82 70.3225 398.118 70.6118L398.258 69.7018H398.748L399.28 72.8658L398.734 72.9918C398.52 72.3758 398.272 71.8858 397.992 71.5218C397.712 71.1485 397.386 70.8778 397.012 70.7098C396.639 70.5418 396.196 70.4578 395.682 70.4578C395.038 70.4578 394.474 70.6165 393.988 70.9338C393.512 71.2512 393.139 71.7318 392.868 72.3758C392.598 73.0105 392.462 73.8085 392.462 74.7698C392.462 75.4512 392.542 76.0625 392.7 76.6038C392.859 77.1358 393.088 77.5932 393.386 77.9758C393.694 78.3492 394.058 78.6385 394.478 78.8438C394.908 79.0398 395.388 79.1378 395.92 79.1378C396.312 79.1378 396.681 79.0865 397.026 78.9838C397.372 78.8812 397.694 78.7132 397.992 78.4798C398.3 78.2465 398.594 77.9432 398.874 77.5698L399.392 77.9758C399.168 78.3118 398.916 78.6058 398.636 78.8578C398.356 79.1005 398.058 79.3012 397.74 79.4598C397.432 79.6185 397.115 79.7352 396.788 79.8098C396.462 79.8845 396.135 79.9218 395.808 79.9218ZM405.604 79.9218C404.708 79.9218 403.924 79.7212 403.252 79.3198C402.589 78.9185 402.071 78.3398 401.698 77.5838C401.334 76.8185 401.152 75.9038 401.152 74.8398C401.152 74.0465 401.255 73.3372 401.46 72.7118C401.665 72.0772 401.959 71.5358 402.342 71.0878C402.725 70.6398 403.182 70.2992 403.714 70.0658C404.246 69.8325 404.839 69.7158 405.492 69.7158C405.996 69.7158 406.449 69.7952 406.85 69.9538C407.261 70.1032 407.615 70.3225 407.914 70.6118L408.054 69.7018H408.544L409.076 72.8658L408.53 72.9918C408.315 72.3758 408.068 71.8858 407.788 71.5218C407.508 71.1485 407.181 70.8778 406.808 70.7098C406.435 70.5418 405.991 70.4578 405.478 70.4578C404.834 70.4578 404.269 70.6165 403.784 70.9338C403.308 71.2512 402.935 71.7318 402.664 72.3758C402.393 73.0105 402.258 73.8085 402.258 74.7698C402.258 75.4512 402.337 76.0625 402.496 76.6038C402.655 77.1358 402.883 77.5932 403.182 77.9758C403.49 78.3492 403.854 78.6385 404.274 78.8438C404.703 79.0398 405.184 79.1378 405.716 79.1378C406.108 79.1378 406.477 79.0865 406.822 78.9838C407.167 78.8812 407.489 78.7132 407.788 78.4798C408.096 78.2465 408.39 77.9432 408.67 77.5698L409.188 77.9758C408.964 78.3118 408.712 78.6058 408.432 78.8578C408.152 79.1005 407.853 79.3012 407.536 79.4598C407.228 79.6185 406.911 79.7352 406.584 79.8098C406.257 79.8845 405.931 79.9218 405.604 79.9218ZM415.344 79.9218C414.429 79.9218 413.64 79.7165 412.978 79.3058C412.324 78.8952 411.82 78.3212 411.466 77.5838C411.12 76.8465 410.948 75.9785 410.948 74.9798C410.948 73.8785 411.125 72.9405 411.48 72.1658C411.844 71.3818 412.362 70.7798 413.034 70.3598C413.706 69.9305 414.513 69.7158 415.456 69.7158C416.352 69.7158 417.122 69.9165 417.766 70.3178C418.41 70.7192 418.904 71.2885 419.25 72.0258C419.604 72.7538 419.782 73.6172 419.782 74.6158C419.782 75.4185 419.679 76.1465 419.474 76.7998C419.268 77.4532 418.97 78.0132 418.578 78.4798C418.195 78.9465 417.728 79.3058 417.178 79.5578C416.636 79.8005 416.025 79.9218 415.344 79.9218ZM415.47 79.1518C415.983 79.1518 416.44 79.0585 416.842 78.8718C417.243 78.6758 417.579 78.3912 417.85 78.0178C418.12 77.6352 418.321 77.1732 418.452 76.6318C418.592 76.0905 418.662 75.4745 418.662 74.7838C418.662 74.1025 418.587 73.5005 418.438 72.9778C418.298 72.4458 418.083 71.9932 417.794 71.6198C417.514 71.2372 417.164 70.9525 416.744 70.7658C416.333 70.5698 415.852 70.4718 415.302 70.4718C414.779 70.4718 414.317 70.5698 413.916 70.7658C413.514 70.9525 413.174 71.2325 412.894 71.6058C412.614 71.9698 412.404 72.4178 412.264 72.9498C412.124 73.4818 412.054 74.0885 412.054 74.7698C412.054 75.4418 412.128 76.0485 412.278 76.5898C412.427 77.1312 412.646 77.5932 412.936 77.9758C413.234 78.3585 413.594 78.6525 414.014 78.8578C414.443 79.0538 414.928 79.1518 415.47 79.1518ZM426.461 79.9218C425.836 79.9218 425.29 79.8425 424.823 79.6838C424.366 79.5158 423.988 79.2732 423.689 78.9558C423.4 78.6292 423.185 78.2185 423.045 77.7238C422.905 77.2292 422.835 76.6552 422.835 76.0018V71.2138C422.835 70.9805 422.802 70.8218 422.737 70.7378C422.681 70.6445 422.56 70.5838 422.373 70.5558L421.561 70.4298V69.9118H425.117V70.4298L424.291 70.5558C424.123 70.5838 424.011 70.6492 423.955 70.7518C423.899 70.8452 423.871 71.0178 423.871 71.2698V75.9318C423.871 76.6692 423.96 77.2758 424.137 77.7518C424.324 78.2278 424.618 78.5778 425.019 78.8018C425.43 79.0258 425.966 79.1378 426.629 79.1378C427.254 79.1378 427.772 79.0165 428.183 78.7738C428.594 78.5218 428.902 78.1485 429.107 77.6538C429.322 77.1592 429.429 76.5385 429.429 75.7918V71.2138C429.429 70.9805 429.396 70.8218 429.331 70.7378C429.275 70.6445 429.154 70.5838 428.967 70.5558L428.183 70.4298V69.9118H431.473V70.4298L430.661 70.5558C430.493 70.5838 430.381 70.6445 430.325 70.7378C430.269 70.8312 430.241 71.0085 430.241 71.2698V75.5538C430.241 76.4872 430.11 77.2805 429.849 77.9338C429.588 78.5872 429.177 79.0818 428.617 79.4178C428.057 79.7538 427.338 79.9218 426.461 79.9218ZM433.317 79.7258V79.2218L434.101 79.0958C434.269 79.0772 434.385 79.0165 434.451 78.9138C434.525 78.8112 434.563 78.6338 434.563 78.3818V71.2138C434.563 70.9898 434.535 70.8358 434.479 70.7518C434.423 70.6585 434.297 70.5932 434.101 70.5558L433.317 70.4298V69.9118H435.865L440.933 78.1158V78.0598V71.2138C440.933 70.9805 440.905 70.8218 440.849 70.7378C440.793 70.6538 440.667 70.5932 440.471 70.5558L439.701 70.4298V69.9118H442.977V70.4298L442.207 70.5558C442.029 70.5838 441.908 70.6445 441.843 70.7378C441.777 70.8218 441.745 70.9898 441.745 71.2418V79.7258H440.737L435.389 71.1018L435.375 71.1578V78.4378C435.375 78.6805 435.407 78.8438 435.473 78.9278C435.538 79.0118 435.655 79.0678 435.823 79.0958L436.635 79.2218V79.7258H433.317ZM446.875 79.7258V79.2218L448.009 79.0538C448.158 79.0258 448.27 78.9698 448.345 78.8858C448.429 78.7925 448.471 78.6198 448.471 78.3678V70.5558H447.477C447.141 70.5558 446.861 70.5838 446.637 70.6398C446.413 70.6865 446.221 70.7892 446.063 70.9478C445.904 71.1065 445.759 71.3352 445.629 71.6338C445.498 71.9232 445.353 72.3152 445.195 72.8098L444.635 72.6698L445.181 69.9118H452.811L453.343 72.6698L452.783 72.8098C452.624 72.3152 452.479 71.9232 452.349 71.6338C452.218 71.3352 452.073 71.1065 451.915 70.9478C451.756 70.7892 451.565 70.6865 451.341 70.6398C451.117 70.5838 450.841 70.5558 450.515 70.5558H449.507V78.4238C449.507 78.6478 449.535 78.8018 449.591 78.8858C449.656 78.9605 449.787 79.0165 449.983 79.0538L451.089 79.2218V79.7258H446.875Z" fill="#47567B"/>
</svg>
