<svg width="230" height="230" viewBox="0 0 230 230" fill="none" xmlns="http://www.w3.org/2000/svg">
<rect x="1.5" y="1.5" width="200" height="200" rx="100" fill="white"/>
<rect x="1.5" y="1.5" width="200" height="200" rx="100" stroke="#47567B" stroke-width="3"/>
<path d="M73.8032 140.852C77.8546 136.333 79.0009 130.092 78.8983 124.191C78.847 121.238 78.5122 118.29 78.0386 115.376C77.5288 112.239 76.9103 108.993 75.0702 106.329C73.5528 104.133 70.9735 102.308 68.1771 102.74C65.3806 103.171 63.3233 105.207 62.0593 107.575C58.6806 113.907 61.6611 121.165 64.536 127.036C67.6431 133.383 71.1726 139.513 75.0491 145.419C76.4669 147.582 78.3614 151.806 81.4263 149.579C83.7853 147.866 86.0327 145.956 88.25 144.068C92.7448 140.237 96.9108 136.016 99.9939 130.945C103.077 125.874 105.692 118.658 103.665 112.664C102.576 109.446 100.021 107.156 96.766 106.248C93.0495 105.213 89.149 106.001 85.5139 107.017C82.1895 107.949 78.8983 109.479 76.6841 112.224C74.3281 115.141 73.3658 118.963 73.9419 122.656C74.0656 123.449 74.491 125.069 75.5981 124.815C76.7052 124.562 76.9405 122.701 76.9073 121.853C76.7927 118.894 76.1954 115.986 74.8349 113.337C73.6735 111.081 71.8876 108.556 69.3355 107.789C63.9568 106.172 61.824 115.132 65.7276 117.796C66.3641 118.23 66.9252 117.473 67.1937 117.02C68.527 114.794 69.8604 112.568 71.1938 110.342L69.3657 110.812C70.0655 111.452 70.693 111.998 70.3612 112.918L71.2631 111.53C69.3023 113.02 67.0911 113.506 64.6778 113.005L65.7457 113.889C65.438 113.292 65.1272 112.695 64.8195 112.097C64.4063 111.298 63.6823 110.927 62.9914 111.627C62.2041 112.423 62.1558 114.013 62.2976 115.032C63.4832 123.573 67.1876 131.651 73.1305 137.926C74.6328 139.513 75.402 136.291 75.399 135.323C75.393 128.816 74.7926 122.321 73.5618 115.928C73.3989 115.078 72.9314 113.307 71.7066 113.823C70.5874 114.293 70.4818 116.595 70.6538 117.533C71.5769 122.559 72.5 127.582 73.4231 132.608L75.945 129.672C73.8997 125.558 72.5482 121.072 72.2405 116.468C72.1983 115.844 71.9509 113.168 70.7322 113.452C67.8634 114.118 65.9357 116.236 65.1906 119.066C64.8799 120.242 64.7381 122.77 66.0926 123.497C67.6763 124.345 69.2752 125.262 70.6266 126.457C71.2209 126.981 71.8212 127.585 72.2617 128.245C72.4457 128.52 72.5633 128.819 72.7292 129.102C72.9253 129.437 72.7956 129.926 72.8469 129.205L75.0611 127.401C74.2617 126.526 73.773 125.681 73.8364 124.49L71.9268 127.398C72.6025 127.588 73.221 127.859 73.7006 128.387C73.8062 128.502 74.0928 129.015 74.1531 129.057C74.3341 129.178 74.0988 128.737 74.1742 128.448L75.8786 127.06C73.8997 125.506 71.7006 124.565 69.245 124.064L70.0052 124.478C69.423 123.841 69.785 124.013 69.7005 124.532L67.1786 125.862C68.3309 127.805 69.7065 130.034 72.0264 130.665C74.3462 131.295 76.5212 129.808 77.8274 127.932C79.3569 125.739 79.6103 122.975 81.0492 120.767C82.2167 118.972 84.3404 117.965 86.3676 117.512C88.5637 117.02 90.8473 116.975 93.0857 117.035C94.4764 117.075 97.4267 116.939 97.3754 118.791C97.3211 120.782 95.8912 123.081 94.9108 124.749C93.6408 126.912 92.0088 128.873 90.1837 130.592C86.0146 134.523 80.3705 136.43 77.2331 141.452L79.0612 140.982C76.7655 137.781 75.7067 133.775 76.6117 129.896C77.6736 125.361 80.0085 121.286 80.8561 116.673L79.4021 118.888C86.1715 119.44 92.965 119.34 99.7163 118.589L98.6484 117.705C98.748 117.877 98.8807 118.055 98.935 118.251C98.8717 118.019 98.9109 117.85 98.8656 118.058C98.751 118.589 98.4644 119.108 98.1839 119.566C97.484 120.716 96.4855 121.654 95.5232 122.58C93.3964 124.625 91.5412 126.625 90.5909 129.479L93.3482 130.2C92.8866 126.683 94.9048 123.223 97.656 121.153C97.1673 119.473 96.6786 117.793 96.1899 116.112C92.3315 122.134 88.4189 128.14 83.6647 133.506L85.9332 136.11C86.1293 131.003 87.7251 126.043 90.3224 121.66C90.6392 121.126 91.4899 119.12 92.2622 119.723C92.6121 119.998 92.5246 120.643 92.4733 120.972C92.1958 122.794 90.6151 124.236 89.0494 125.003L90.959 127.911C90.9559 125.5 91.6528 123.34 92.8414 121.256L90.7086 116.99C88.2802 121.479 85.8548 125.968 83.4263 130.454L85.9483 133.389C86.7055 128.037 87.0614 122.634 87.0041 117.232C86.9951 116.342 86.796 114.52 85.6949 114.269C84.5938 114.019 84.1715 115.66 84.0387 116.429L81.6073 130.617L84.5697 131.419C84.4309 127.316 84.2921 123.214 84.1534 119.111C84.1262 118.278 83.9874 116.622 83.0462 116.203C82.1624 115.808 81.5168 116.851 81.3418 117.591C79.8516 123.847 78.3614 130.101 76.8741 136.357L79.6857 137.881C79.752 133.211 80.0175 128.556 80.4941 123.91L77.5318 123.108C77.6917 127.847 77.8938 132.586 78.1411 137.323C78.1773 138.022 78.5695 141.048 80.0507 140.231C82.464 138.9 83.9603 136.807 84.9256 134.276L82.3222 131.232C82.0809 131.944 81.8396 132.659 81.5982 133.371L84.2016 136.415C84.8442 133.371 84.4641 130.152 81.915 128.107L81.5138 134.031C85.5953 134.484 89.6196 132.665 92.0962 129.413C92.9469 128.297 93.0314 126.595 92.6362 125.286C92.3919 124.475 91.4326 123.075 90.5728 124.203C88.4099 127.042 85.0433 128.39 81.5138 127.998C80.4127 127.877 80.0748 129.941 80.0326 130.614C79.9572 131.802 80.1352 133.138 81.1126 133.923C81.8335 134.502 81.2785 134.876 81.5952 133.368C81.3328 134.605 81.1367 136.493 82.1352 137.495C83.1337 138.496 83.8819 137.347 84.1986 136.412C84.4399 135.7 84.6813 134.985 84.9226 134.273C85.3148 133.117 85.3087 131.075 84.3826 130.146C83.3841 129.147 82.6661 130.321 82.3192 131.229C81.7792 132.644 80.5334 133.703 79.2483 134.411L81.1578 137.32C80.9104 132.583 80.7053 127.847 80.5484 123.105C80.5183 122.212 80.3524 120.396 79.2392 120.143C78.1261 119.889 77.6645 121.524 77.5831 122.303C77.0521 127.476 76.7414 132.674 76.666 137.875C76.6539 138.698 76.853 140.372 77.7731 140.783C78.6932 141.193 79.3026 140.134 79.4775 139.395C80.9678 133.138 82.458 126.885 83.9452 120.628L81.1337 119.105C81.2724 123.208 81.4112 127.31 81.55 131.413C81.5801 132.306 81.7461 134.122 82.8592 134.375C83.9724 134.629 84.3826 132.985 84.5154 132.215L86.9468 118.028L83.9844 117.226C84.0357 122.103 83.719 126.948 83.0342 131.778C82.8924 132.773 82.9437 134.399 83.728 135.184C84.4188 135.878 85.1338 135.491 85.5561 134.713C87.9845 130.224 90.4099 125.736 92.8383 121.25C93.4809 120.061 93.4839 118.173 92.8383 116.984C92.235 115.874 91.3179 115.91 90.7056 116.984C88.8051 120.312 87.9332 124.085 87.9393 127.905C87.9393 128.695 88.3676 131.54 89.8488 130.813C93.0133 129.262 94.8987 125.953 95.3814 122.538C95.6469 120.671 95.5624 118.695 95.0013 116.885C94.5397 115.388 93.3663 113.123 91.4446 113.59C89.8247 113.983 88.8081 116.308 88.0509 117.612C86.98 119.458 86.1051 121.395 85.354 123.392C83.8215 127.464 83.0764 131.766 82.9105 136.104C82.8743 137.042 83.734 140.339 85.179 138.707C90.1837 133.06 94.2562 126.707 98.3136 120.372C98.923 119.422 98.8626 117.756 98.5489 116.716C98.38 116.149 97.662 114.716 96.8445 115.328C91.7523 119.159 89.6165 125.579 90.431 131.799C90.5246 132.523 90.8534 133.769 91.686 133.959C92.5186 134.149 92.9711 133.169 93.1883 132.52C94.2592 129.313 97.9305 127.443 99.7646 124.692C101.915 121.464 102.802 116.948 100.775 113.437C100.585 113.108 100.196 112.498 99.7073 112.553C92.956 113.304 86.1655 113.403 79.3931 112.851C78.4187 112.773 78.0567 114.426 77.939 115.066C76.9556 120.402 73.8333 125.036 73.3567 130.529C72.874 136.104 74.2587 141.627 77.5288 146.186C78.1623 147.069 78.9707 146.333 79.3569 145.715C80.7626 143.468 83.1126 141.977 85.2906 140.575C87.4687 139.172 89.7402 137.642 91.698 135.799C95.5533 132.167 98.8234 127.126 99.9878 121.91C100.579 119.265 100.661 116.203 99.3362 113.753C97.9425 111.174 95.2849 111.041 92.6543 110.99C88.1173 110.903 82.7114 111.385 79.7158 115.28C78.7143 116.583 78.1049 118.073 77.5499 119.603C77.0702 120.93 76.6962 122.342 75.7519 123.428C73.3084 126.242 70.7654 124.064 69.2963 121.594C68.168 119.693 67.0036 121.509 66.7743 122.924C66.4455 124.942 66.6748 128.828 68.8257 129.989C69.7759 130.502 71.1063 130.571 72.1229 131.045C73.1395 131.519 74.1441 132.161 75.0581 132.879C75.8605 133.51 76.6268 132.016 76.7625 131.491C77.6856 127.953 76.7897 122.719 72.7111 121.579C71.1364 121.138 70.8589 123.431 70.8016 124.487C70.6417 127.413 71.5226 130.423 73.5196 132.608C74.7021 133.902 75.6675 131.778 75.7338 130.804C75.948 127.727 75.3296 124.852 73.3084 122.45C71.5829 120.399 69.2118 118.93 66.8739 117.675L67.7759 122.107C68.1318 120.752 69.3717 119.793 70.7141 119.479L69.2058 116.462C69.613 122.562 71.064 128.442 73.7941 133.932C74.1953 134.74 74.9374 135.096 75.6222 134.402C76.3854 133.627 76.4971 131.992 76.3161 130.997C75.393 125.971 74.4699 120.948 73.5468 115.922L70.6387 117.527C71.7699 123.404 72.3612 129.331 72.3672 135.316L74.6358 132.713C69.5919 127.386 66.2012 120.716 65.1906 113.428L62.6687 116.363C63.0638 117.126 63.4862 118.487 64.2615 118.933C64.9432 119.325 66.2102 119.283 66.9614 119.241C68.7533 119.141 70.9223 118.487 72.2285 117.198C73.6584 115.787 73.7006 112.767 73.4351 110.912C73.1516 108.927 72.3763 106.978 70.874 105.602C70.1138 104.908 69.5165 105.292 69.0459 106.073C67.7125 108.299 66.3792 110.526 65.0458 112.752L66.5119 111.977C65.8331 111.512 67.1635 114.085 66.708 114.049C66.7472 114.052 66.7623 114.022 66.8075 114.019C67.0458 114.016 67.4983 113.615 67.8422 113.587C69.1183 113.485 70.2948 114.381 71.1002 115.274C72.6991 117.048 73.7821 119.455 73.8756 121.853L76.8379 121.051C76.5514 119.214 78.0114 117.404 79.2995 116.248C81.1065 114.622 83.5078 113.651 85.8125 112.975C90.3043 111.654 96.8746 110.495 100.335 114.613C101.728 116.272 101.327 118.236 100.772 120.17C100.175 122.251 99.2819 124.215 98.1959 126.085C95.9123 130.025 92.7237 133.419 89.3903 136.49C87.6346 138.107 85.8065 139.639 83.9452 141.133C83.0855 141.823 82.2167 142.505 81.3479 143.187C80.9738 143.48 80.5726 143.926 80.1261 144.104C79.3719 144.403 79.1879 144.071 78.7354 143.452C75.5679 139.124 72.8348 134.393 70.2526 129.699C68.9101 127.256 67.6281 124.779 66.4093 122.272C65.2841 119.956 64.005 117.515 63.6642 114.93C63.1453 110.99 67.4833 107.277 71.2149 109.316C73.4351 110.532 74.3462 112.912 74.8198 115.268C75.2934 117.624 75.6675 120.248 75.8183 122.746C76.0989 127.401 75.4865 132.055 72.2707 135.645C71.3597 136.662 71.3597 138.538 71.7307 139.772C72.0022 140.677 72.871 141.887 73.7941 140.855L73.8032 140.852Z" fill="#DC332E"/>
<path d="M170.988 46.6748C170.789 45.7819 170.34 45.0488 169.622 44.4394C168.777 43.7215 167.812 43.4017 166.747 43.266C164.738 43.0095 162.731 42.7561 160.725 42.4665C158.614 42.1619 156.511 41.8059 154.399 41.4831C150.463 40.8798 146.484 40.8556 142.52 40.6897C138.855 40.5359 135.174 40.6958 131.503 40.6837C127.506 40.6716 123.506 40.6415 119.509 40.5811C114.89 40.5087 110.272 40.3428 105.653 40.3066C100.386 40.2644 95.1189 40.3157 89.8488 40.3368C88.5788 40.3428 87.3088 40.3488 86.0418 40.4212C82.645 40.6143 79.2513 40.8918 75.8515 41.0517C69.429 41.3504 63.0065 41.643 56.581 41.827C54.3487 41.8904 52.0982 41.7275 49.8719 41.4922C47.4737 41.2418 45.0875 41.0065 42.6802 41.2599C42.3936 41.29 42.0467 41.3172 41.8416 41.4831C40.8491 42.2946 39.9803 43.1936 39.6847 44.5209C39.3619 45.9719 39.3528 47.4259 39.6062 48.8679C40.0105 51.1515 41.2352 52.7142 43.6606 53.1063C43.9955 53.1606 44.3213 53.2692 44.6742 53.3597C44.5747 54.135 44.4751 54.8288 44.3997 55.5227C44.0317 58.8802 43.6848 62.2378 43.3047 65.5923C43.003 68.25 42.6259 70.8986 42.3423 73.5563C42.0558 76.2411 41.8205 78.932 41.6123 81.6259C41.5097 82.9683 41.4554 84.3228 41.4947 85.6682C41.558 87.8493 42.3816 89.7105 44.089 91.1314C44.2971 91.3033 44.4812 91.5055 44.6984 91.6654C44.9849 91.8795 45.0785 92.151 45.0966 92.501C45.1328 93.2551 45.2142 94.0093 45.2776 94.7605C45.5129 97.6655 45.8658 100.558 45.8568 103.488C45.8387 108.646 45.9382 113.808 45.9925 118.966C46.077 127.259 46.1433 135.555 46.258 143.848C46.3153 148.035 46.4872 152.219 46.5687 156.406C46.6109 158.614 46.5687 160.825 46.5687 163.058C46.1132 163.194 45.8296 163.275 45.546 163.359C40.8793 164.765 36.119 165.489 31.241 165.329C29.784 165.281 28.342 165.157 26.9151 164.952C26.5531 165.073 26.1851 165.489 26.0523 165.773C25.9106 166.074 25.9377 166.295 26.0554 166.452C27.5758 166.696 29.1203 166.856 30.6859 166.931C35.6393 167.163 40.4901 166.464 45.2625 165.178C45.6486 165.076 46.0347 164.976 46.4842 164.859C46.5023 165.166 46.4963 165.408 46.5325 165.64C46.626 166.225 46.6562 166.838 46.8613 167.384C47.3198 168.584 48.0831 169.535 49.4979 169.55C51.5221 169.574 53.5553 169.622 55.5704 169.474C59.6942 169.167 63.818 168.949 67.9538 168.928C71.4381 168.91 74.9254 168.853 78.4036 168.654C83.3419 168.37 88.2771 168.198 93.2245 168.406C100.353 168.708 107.484 168.841 114.616 168.542C120.824 168.283 127.026 167.909 133.235 167.673C139.12 167.45 145.006 167.287 150.894 167.206C155.54 167.142 160.185 167.245 164.834 167.263C165.588 167.263 166.345 167.227 167.097 167.16C167.712 167.106 168.131 166.747 168.37 166.171C169.314 163.875 167.905 161.613 165.434 161.465C165.112 161.447 164.786 161.462 164.463 161.444C164.255 161.432 164.05 161.393 163.854 161.368C163.817 161.242 163.778 161.166 163.775 161.091C163.434 156.391 163.658 151.697 163.926 147C164.149 143.063 164.342 139.124 164.49 135.184C164.596 132.405 164.596 129.621 164.656 126.84C164.695 124.951 164.762 123.06 164.801 121.171C164.822 120.064 164.783 118.954 164.825 117.85C164.964 114.064 164.849 110.29 164.508 106.516C164.189 102.966 163.968 99.4061 163.718 95.8495C163.655 94.9626 163.636 94.0696 163.612 93.1797C163.603 92.8056 163.721 92.5221 164.119 92.3562C165.691 91.7016 166.747 90.4919 167.528 89.0258C168.545 87.1192 169.142 85.0709 169.368 82.9321C169.733 79.469 169.432 76.027 168.964 72.591C168.581 69.7825 168.213 66.9679 167.836 64.1594C167.441 61.2151 167.042 58.2739 166.65 55.3296C166.629 55.1818 166.65 55.0279 166.65 54.856C167.112 54.7685 167.522 54.7353 167.902 54.6116C169.142 54.2104 170.285 53.6433 170.714 52.2858C171.296 50.4517 171.41 48.5723 170.991 46.6838L170.988 46.6748ZM43.1237 82.4887C43.4163 79.288 43.6938 76.0873 44.0317 72.8926C44.2881 70.4763 44.6501 68.072 44.9246 65.6587C45.3017 62.3584 45.6426 59.0552 46.0016 55.755C46.0438 55.3537 46.0921 54.9495 46.1524 54.5483C46.2519 53.8997 46.3002 53.8333 46.979 53.8092C49.1117 53.7308 51.2415 53.6674 53.3743 53.6161C54.4271 53.592 55.4799 53.6312 56.5327 53.595C58.5961 53.5226 60.6083 53.9419 62.7712 54.1712C62.7169 54.9284 62.7079 55.6041 62.6143 56.2678C62.183 59.3418 61.7787 62.4218 61.2659 65.4837C60.7229 68.7115 60.388 71.9605 60.1226 75.2155C59.9084 77.8249 59.7726 80.4403 59.6007 83.0558C59.5826 83.3454 59.5464 83.635 59.5102 84.0302C59.1361 84.0302 58.8194 84.0422 58.5026 84.0302C55.5372 83.8884 52.5719 83.7074 49.6035 83.6139C47.7452 83.5565 45.8809 83.629 44.0196 83.647C43.733 83.647 43.4464 83.6712 43.1146 83.6863C43.1146 83.2338 43.0844 82.8597 43.1206 82.4947L43.1237 82.4887ZM97.4629 82.2172C97.4659 82.3197 97.4146 82.4223 97.3754 82.5792C94.3859 82.733 91.4024 82.8778 88.4189 83.0467C85.4626 83.2127 82.5062 83.4027 79.4654 83.5897C79.4654 83.3454 79.4413 83.0558 79.4685 82.7722C79.6404 80.92 79.8154 79.0647 80.0084 77.2125C80.2468 74.9048 80.4881 72.594 80.7596 70.2893C81.1156 67.2605 81.5288 64.2348 81.8727 61.2061C82.1141 59.0884 82.28 56.9616 82.4791 54.8379C82.4942 54.681 82.5123 54.5242 82.5334 54.3432C82.6601 54.307 82.7596 54.2496 82.8562 54.2587C84.5153 54.4156 86.1353 54.0264 87.7733 53.9088C90.6543 53.7006 93.5322 53.408 96.4251 53.5317C96.7178 53.5437 97.0104 53.5739 97.3965 53.6011C97.1642 63.2182 97.0828 72.7177 97.4629 82.2172ZM97.3241 84.4374C97.1642 84.8567 97.0405 85.2942 96.8384 85.6954C95.8007 87.7558 94.2833 89.4391 92.5487 90.9172C91.3059 91.9761 89.7824 92.3803 88.1655 92.2627C87.1489 92.1872 86.1383 91.9791 85.1307 91.8041C84.6541 91.7227 84.1895 91.5658 83.7129 91.4662C81.3539 90.9806 79.8124 89.4119 79.39 87.0348C79.3025 86.54 79.2875 86.0332 79.2301 85.442C82.277 84.9683 85.2424 84.718 88.2319 84.6486C91.2184 84.5792 94.2019 84.368 97.1853 84.2172C97.2306 84.2896 97.2789 84.362 97.3241 84.4374ZM80.8501 55.1818C80.5816 57.761 80.3101 60.3373 80.0296 62.9135C79.6887 66.0267 79.3508 69.1429 78.9828 72.2531C78.6932 74.7207 78.3402 77.1793 78.0567 79.65C77.933 80.7209 77.9149 81.8039 77.8455 82.8838C77.8274 83.1734 77.7972 83.463 77.7731 83.7285C76.7655 83.9578 62.4152 84.0996 61.2508 83.8944C61.2387 83.7014 61.2025 83.4962 61.2116 83.2911C61.4167 78.8385 61.7365 74.3919 62.2493 69.9635C62.4937 67.8458 62.8768 65.7431 63.2267 63.6375C63.7215 60.6782 64.1921 57.7188 64.364 54.7202C64.3731 54.5362 64.4334 54.3552 64.4696 54.1742H80.8531C80.8531 54.5573 80.8803 54.8741 80.8501 55.1848V55.1818ZM77.6434 85.5234C77.4594 86.9352 77.4382 88.2656 77.031 89.5295C76.6479 90.7151 75.9329 91.605 74.6901 92.0274C73.5498 92.4165 72.3793 92.6307 71.1907 92.5915C69.5738 92.5372 67.9569 92.3984 66.349 92.2325C65.3354 92.1299 64.4123 91.7166 63.646 91.0379C63.0005 90.4677 62.4002 89.8463 61.7938 89.2309C61.0396 88.4677 60.8737 87.4782 60.8043 86.4706C60.7591 85.81 60.9823 85.6049 61.649 85.6018C64.3489 85.5928 67.0519 85.6019 69.7518 85.5777C72.0746 85.5596 74.3944 85.5023 76.7173 85.4691C76.9827 85.4661 77.2482 85.4963 77.6464 85.5174L77.6434 85.5234ZM44.0468 88.6819C43.3288 87.7497 43.1719 86.6245 43.0995 85.3394C44.1765 85.261 45.1448 85.1162 46.1102 85.1373C48.2429 85.1886 50.3697 85.3364 52.5025 85.4269C54.4995 85.5114 56.4965 85.5717 58.4936 85.6441C58.7349 85.6531 58.9732 85.6652 59.2146 85.6773C59.2538 85.7828 59.3111 85.8583 59.302 85.9246C59.112 87.2097 58.8586 88.4888 58.2462 89.6472C57.4498 91.1555 56.2733 92.2023 54.5086 92.4436C53.9987 92.513 53.495 92.6065 52.9851 92.6699C51.8147 92.8177 50.6683 92.7393 49.5582 92.2958C49.0062 92.0756 48.433 91.9157 47.8779 91.7046C46.2912 91.0952 45.0634 90.0062 44.0437 88.6819H44.0468ZM47.9352 149.133C47.8568 141.703 47.8206 134.273 47.7452 126.843C47.6607 118.496 47.5853 110.145 47.4315 101.798C47.3862 99.4001 47.0755 97.0049 46.8885 94.6096C46.8523 94.13 46.8281 93.6503 46.7949 93.1164C47.0302 93.1616 47.1871 93.1797 47.3319 93.228C47.6909 93.3456 48.0559 93.4542 48.3998 93.6081C50.7226 94.6458 53.0968 94.4467 55.4739 93.8886C57.3533 93.4482 58.6323 92.2053 59.5886 90.5854C59.7364 90.335 59.8601 90.0665 60.1226 89.5597C60.3006 89.8614 60.379 90.0756 60.5238 90.2234C61.2025 90.9172 61.8753 91.6201 62.5993 92.2657C63.5043 93.0771 64.5933 93.596 65.7849 93.774C68.3249 94.1541 70.883 94.4859 73.4442 93.9912C74.3612 93.8132 75.2632 93.4904 76.129 93.1315C77.1517 92.7061 77.7369 91.8041 78.2346 90.8569C78.3825 90.5703 78.5092 90.2747 78.6841 89.9006C78.8561 90.0967 79.0039 90.2385 79.1215 90.4014C80.1563 91.8644 81.5319 92.7544 83.3207 93.041C84.4912 93.231 85.6375 93.5689 86.811 93.7559C90.0117 94.2687 92.7569 93.3909 94.9108 90.9202C95.8671 89.8222 96.7509 88.6638 97.671 87.5325C97.7525 87.433 97.846 87.3425 97.9727 87.2097C98.1085 87.4782 98.217 87.6894 98.3226 87.9066C100.115 91.6111 103.931 93.7167 108.027 93.2762C110.959 92.9625 113.451 91.7197 115.602 89.7407C115.819 89.5416 116.033 89.3395 116.329 89.065C116.489 89.3787 116.625 89.6261 116.748 89.8825C117.038 90.4828 117.451 90.9534 118.046 91.2853C118.896 91.7589 119.717 92.2777 120.555 92.7695C123.527 94.5101 127.786 94.133 130.513 91.6322C131.5 90.7272 132.266 89.6562 132.966 88.525C133.105 88.3018 133.25 88.0846 133.419 87.8191C133.533 87.9579 133.609 88.0303 133.657 88.1178C135.15 90.7785 137.536 92.3531 140.281 93.4361C141.889 94.0726 143.591 93.9972 145.229 93.5508C146.42 93.225 147.573 92.7333 148.704 92.2355C149.838 91.7378 150.692 90.8539 151.488 89.9247C151.678 89.7045 151.871 89.4843 152.11 89.2158C153.22 90.8056 154.976 91.2852 156.52 92.0786C157.654 92.6608 158.879 93.0229 160.167 93.0922C160.701 93.1194 161.241 93.0983 161.836 93.0983C161.875 93.3004 161.932 93.5055 161.947 93.7107C162.11 95.8645 162.264 98.0215 162.424 100.178C162.611 102.685 162.777 105.192 163.003 107.693C163.305 111.035 163.332 114.384 163.232 117.735C163.196 118.924 163.226 120.113 163.202 121.301C163.166 123.084 163.106 124.864 163.069 126.647C163.012 129.292 163.009 131.941 162.906 134.586C162.75 138.716 162.535 142.843 162.333 146.973C162.116 151.371 161.79 155.767 162.152 160.174C162.179 160.488 162.155 160.804 162.155 161.157C159.588 161.51 157.09 161.459 154.553 161.441C154.39 160.78 154.209 160.165 154.092 159.534C153.89 158.451 153.307 157.782 152.191 157.622C152.113 157.61 152.04 157.567 151.905 157.516C151.7 156.373 151.609 155.193 151.618 154.011C151.639 151.769 151.645 149.525 151.739 147.284C151.856 144.415 151.612 141.561 151.54 138.698C151.422 134.104 151.081 129.525 150.725 124.945C150.384 120.583 150.01 116.224 149.709 111.859C149.594 110.191 149.642 108.513 149.618 106.839C149.615 106.622 149.636 106.405 149.618 106.191C149.561 105.394 149.232 105.002 148.436 104.896C147.365 104.755 146.291 104.637 145.211 104.565C139.648 104.194 134.085 104.369 128.526 104.61C127.071 104.673 125.608 104.637 124.154 104.586C122.266 104.519 120.377 104.405 118.492 104.275C117.904 104.236 117.322 104.085 116.736 103.982C115.895 103.838 115.448 104.157 115.331 105.005C115.303 105.192 115.297 105.382 115.303 105.572C115.418 110.299 115.548 115.023 115.65 119.751C115.705 122.182 115.662 124.613 115.747 127.042C115.871 130.577 116.091 134.113 116.236 137.648C116.317 139.673 116.305 141.7 116.377 143.727C116.48 146.614 116.646 149.501 116.73 152.391C116.776 153.902 116.712 155.417 116.688 156.928C116.679 157.57 116.661 157.58 116.049 157.761C114.676 158.165 114.332 158.551 114.245 159.975C114.193 160.835 114.236 161.697 114.236 162.657C113.892 162.684 113.581 162.723 113.267 162.732C110.29 162.829 107.327 162.584 104.362 162.4C101.991 162.252 99.6138 162.092 97.2396 162.117C92.8866 162.156 88.5426 162.002 84.1986 161.758C82.6631 161.67 81.1186 161.703 79.5801 161.682C79.2875 161.679 78.9979 161.682 78.6419 161.682V158.038C78.9043 157.999 79.0853 157.942 79.2633 157.954C82.2438 158.123 85.1971 157.764 88.1595 157.534C91.8217 157.251 95.49 157.03 99.1552 156.765C100.528 156.665 101.897 156.497 103.273 156.409C104.187 156.349 105.107 156.361 106.027 156.367C107.499 156.379 108.941 156.201 110.311 155.634C111.303 155.22 111.78 154.475 111.741 153.498C111.702 152.505 111.14 151.851 110.329 151.371C110.076 151.22 109.798 151.112 109.439 150.94C109.439 150.143 109.406 149.311 109.445 148.484C109.671 143.455 109.388 138.439 109.195 133.416C109.095 130.852 109.137 128.285 109.056 125.717C108.893 120.559 108.658 115.403 108.519 110.245C108.465 108.221 108.573 106.194 108.619 104.169C108.646 102.824 108.371 102.54 107.038 102.559C102.718 102.616 98.395 102.743 94.0752 102.697C91.2968 102.667 88.5185 102.42 85.7461 102.203C82.1322 101.922 78.5303 101.825 74.9073 102.178C70.9253 102.565 66.9191 102.51 62.922 102.371C60.2764 102.278 57.6308 102.16 54.9852 102.088C54.1828 102.067 53.3773 102.151 52.4783 102.194C52.4391 102.724 52.3697 103.171 52.3758 103.617C52.421 107.246 52.9429 110.824 53.3954 114.417C53.7665 117.361 53.9656 120.327 53.872 123.31C53.8057 125.358 53.9203 127.416 53.9837 129.467C54.1647 135.139 54.3547 140.81 54.5598 146.478C54.6232 148.177 54.7529 149.872 54.8555 151.631C54.7077 151.7 54.5206 151.797 54.3276 151.878C53.2144 152.358 52.5025 153.498 52.7438 154.596C53.0877 156.147 53.8328 156.849 55.1451 156.925C55.9264 156.97 56.7107 157.015 57.492 157.073C57.7545 157.091 58.0139 157.139 58.4785 157.199C58.1648 157.447 58.0049 157.61 57.8178 157.715C55.9777 158.738 54.1435 159.779 52.2792 160.753C51.3018 161.266 50.2641 161.664 49.2475 162.105C49.0363 162.195 48.801 162.228 48.4722 162.316C48.4058 161.8 48.3214 161.384 48.3003 160.961C48.2339 159.531 48.1796 158.101 48.1374 156.672C48.065 154.159 47.9745 151.649 47.9503 149.136L47.9352 149.133ZM115.756 61.4565C115.75 66.1082 115.412 70.7418 114.947 75.3663C114.679 78.0391 114.519 80.6998 115.159 83.3454C115.207 83.5505 115.207 83.7707 115.243 84.1026C113.427 83.9668 111.689 83.6259 109.931 83.5053C108.124 83.3846 106.317 83.2881 104.513 83.1493C102.739 83.0105 100.968 82.8326 99.1281 82.6666C99.0858 81.3242 99.0496 80.0874 99.0074 78.8475C98.8204 73.6347 98.7118 68.425 98.8807 63.2091C98.9682 60.4549 98.935 57.7007 98.9591 54.9435C98.9591 54.7021 98.9531 54.4457 99.0255 54.2225C99.1522 53.8213 99.4599 53.6433 99.8883 53.6252C101.937 53.5347 103.985 53.4382 106.03 53.3326C108.781 53.1908 111.53 53.0309 114.281 52.8891C114.866 52.859 115.451 52.8861 116.091 52.8861C116.118 53.1968 116.163 53.402 116.151 53.6071C116.088 54.8469 116.003 56.0868 115.94 57.3297C115.868 58.7053 115.759 60.0809 115.759 61.4565H115.756ZM115.859 87.2912C115.415 87.6984 115.017 88.0544 114.628 88.4224C112.709 90.2475 110.474 91.3938 107.813 91.6654C103.843 92.0696 100.341 89.6955 99.2759 85.8492C99.1492 85.3877 99.0466 84.9201 98.932 84.4615C99.7435 84.2624 114.049 85.5083 115.554 85.9005C115.653 86.356 115.762 86.8507 115.859 87.2942V87.2912ZM131.515 68.4129C131.771 71.9937 132.061 75.5745 132.314 79.1583C132.414 80.558 132.453 81.9638 132.517 83.3665C132.523 83.5234 132.501 83.6833 132.489 83.9517C132.185 83.9698 131.946 83.991 131.711 83.997C128.176 84.1177 124.64 84.2474 121.104 84.3529C119.997 84.3861 118.89 84.362 117.783 84.3529C117.521 84.3529 117.258 84.3047 116.999 84.2806C116.429 81.8069 116.196 79.3936 116.42 76.9108C116.791 72.769 117.077 68.621 117.334 64.4701C117.46 62.4248 117.415 60.3674 117.491 58.3161C117.545 56.8048 117.672 55.2964 117.768 53.7881C117.78 53.6011 117.807 53.417 117.84 53.1365C120.094 53.1998 122.272 53.7308 124.486 53.9419C126.682 54.1501 128.897 54.1772 131.105 54.5453C131.132 54.7414 131.174 54.8952 131.171 55.0491C131.084 59.5077 131.201 63.9603 131.518 68.4099L131.515 68.4129ZM132.354 85.6893C132.239 86.0905 132.194 86.3892 132.07 86.6517C130.957 89.0499 129.449 91.0801 126.791 91.9097C125.026 92.4618 123.264 92.3531 121.605 91.4994C120.67 91.0198 119.783 90.4436 118.884 89.9006C118.703 89.792 118.501 89.6623 118.393 89.4903C117.738 88.4466 117.439 87.2912 117.297 86.0363C117.512 86.0151 117.641 85.994 117.771 85.991C120.009 85.9186 122.245 85.8432 124.483 85.7798C126.857 85.7165 129.231 85.6652 131.606 85.6139C131.814 85.6109 132.019 85.6531 132.351 85.6893H132.354ZM149.292 65.5471C149.576 68.3405 149.799 71.1399 150.052 73.9364C150.351 77.2427 150.653 80.5519 150.951 83.8582C150.973 84.0935 150.982 84.3318 151.003 84.6395C145.349 85.2187 139.82 84.3741 134.206 83.9065C134.179 83.6259 134.13 83.3394 134.124 83.0498C134.019 79.3212 133.584 75.6167 133.328 71.9002C132.963 66.6481 132.688 61.3871 132.764 56.117C132.773 55.583 132.809 55.0491 132.836 54.4156C133.367 54.4397 133.814 54.4608 134.263 54.4849C135.367 54.5392 136.471 54.5905 137.576 54.6539C139.274 54.7534 140.969 54.8952 142.668 54.9616C144.312 55.0279 145.956 55.0219 147.6 55.046C148.022 55.0521 148.445 55.046 148.897 55.046C148.855 55.7459 148.804 56.3643 148.782 56.9797C148.692 59.8516 149.009 62.6963 149.298 65.544L149.292 65.5471ZM151.132 86.356C151.41 86.9473 151.283 87.433 150.991 87.8825C150.336 88.884 149.579 89.8161 148.556 90.4436C146.761 91.5477 144.828 92.2506 142.677 92.2325C141.853 92.2265 141.069 92.0726 140.321 91.7377C138.755 91.0379 137.343 90.1057 136.149 88.8659C135.31 87.9941 134.77 86.9654 134.511 85.6411C134.912 85.6411 135.223 85.6169 135.527 85.6441C137.084 85.7859 138.643 85.9246 140.197 86.0936C143.558 86.4616 146.924 86.4827 150.297 86.353C150.562 86.344 150.828 86.353 151.132 86.353V86.356ZM148.888 123.075H147.485C147.452 122.743 147.401 122.426 147.395 122.11C147.304 118.085 147.22 114.064 147.135 110.04C147.126 109.663 147.141 109.283 147.159 108.906C147.196 108.103 146.834 107.714 146.016 107.738C144.936 107.768 143.859 107.826 142.779 107.868C138.894 108.025 135.014 108.136 131.138 107.587C128.706 107.243 126.248 107.093 123.801 106.872C122.061 106.715 120.356 107.05 118.652 107.334C118.163 107.415 117.892 107.72 117.865 108.218C117.846 108.513 117.819 108.812 117.843 109.108C118.118 112.526 118.405 115.943 118.685 119.358C118.86 121.458 119.038 123.555 119.21 125.654C119.482 128.96 119.819 132.267 120.003 135.579C120.163 138.436 120.196 141.299 120.193 144.161C120.193 146.943 120.076 149.721 120.003 152.502C119.961 154.119 119.901 155.736 119.847 157.402C119.328 157.589 118.785 157.513 118.221 157.435C118.221 156.653 118.169 155.899 118.23 155.154C118.456 152.4 118.323 149.652 118.151 146.901C118.031 144.988 117.979 143.069 117.901 141.154C117.735 137.024 117.572 132.897 117.409 128.767C117.367 127.687 117.322 126.607 117.297 125.527C117.192 120.803 117.092 116.079 116.999 111.352C116.966 109.624 116.951 107.895 116.929 106.166C116.929 106.04 116.969 105.913 116.987 105.807C119.424 105.943 121.816 106.103 124.215 106.203C125.696 106.263 127.186 106.287 128.667 106.221C134.254 105.964 139.841 105.82 145.431 106.188C146.26 106.242 147.087 106.353 147.953 106.444C147.823 112.043 148.607 117.506 148.888 123.072V123.075ZM150.185 157.136C150.197 157.236 150.164 157.341 150.149 157.483H147.923C147.727 151.272 147.766 145.115 147.941 138.873C148.064 138.837 148.164 138.786 148.267 138.786C148.773 138.777 149.28 138.783 149.832 138.783C149.865 139.015 149.911 139.22 149.926 139.428C150.128 142.255 150.179 145.084 150.098 147.92C150.01 150.991 149.835 154.068 150.185 157.139V157.136ZM149.736 137.024H145.018C144.993 136.822 144.96 136.59 144.933 136.357C144.767 134.909 144.638 133.455 144.432 132.013C144.113 129.769 144.393 127.549 144.562 125.313C146.327 124.803 148.013 124.65 148.988 124.879C149.334 126.146 149.932 135.953 149.733 137.021L149.736 137.024ZM121.316 132.294C121.267 131.865 121.252 131.431 121.231 131C121.228 130.924 121.258 130.846 121.286 130.716C121.451 130.683 121.629 130.635 121.807 130.62C124.685 130.372 127.563 130.101 130.444 129.893C131.708 129.802 132.981 129.829 134.251 129.814C135.79 129.799 137.331 129.835 138.87 129.772C139.754 129.736 140.634 129.54 141.515 129.425C141.853 129.38 142.197 129.365 142.502 129.341C142.574 129.455 142.619 129.497 142.625 129.546C142.852 131.694 143.081 133.838 143.289 135.986C143.337 136.469 143.316 136.958 143.31 137.443C143.295 138.273 143.597 138.656 144.423 138.719C144.981 138.765 145.546 138.728 146.197 138.728C146.215 139.099 146.248 139.495 146.248 139.89C146.248 141.265 146.224 142.644 146.224 144.02C146.23 147.368 146.245 150.717 146.254 154.068C146.257 155.196 146.254 156.325 146.254 157.567C137.962 157.875 129.844 158.098 121.611 157.567C121.566 156.883 121.482 156.246 121.488 155.61C121.506 153.718 121.554 151.83 121.596 149.938C121.62 148.913 121.614 147.884 121.684 146.861C122.013 141.995 121.871 137.142 121.313 132.3L121.316 132.294ZM119.512 108.86C120.951 108.562 122.411 108.354 123.901 108.501C127.099 108.818 130.293 109.168 133.494 109.458C134.782 109.575 136.082 109.618 137.373 109.602C139.856 109.575 142.339 109.482 144.825 109.421C145.009 109.415 145.196 109.44 145.47 109.458C145.594 114.079 145.717 118.683 145.841 123.361C145.322 123.455 144.852 123.536 144.381 123.624C143.446 123.796 143.123 124.107 142.984 125.039C142.894 125.651 142.858 126.276 142.797 126.891C142.773 127.126 142.746 127.362 142.713 127.663C141.066 127.739 139.515 128.173 137.874 128.173C134.502 128.173 131.126 128.315 127.756 128.475C125.844 128.565 123.937 128.807 122.028 128.975C121.762 129 121.494 128.979 121.231 128.979C121.038 128.544 119.442 109.934 119.512 108.86ZM118.239 159.142C120.803 159.202 123.364 159.32 125.928 159.399C127.548 159.447 129.165 159.462 130.785 159.483C131.298 159.489 131.811 159.447 132.323 159.453C137.105 159.528 141.88 159.353 146.659 159.172C148.248 159.112 149.844 159.166 151.437 159.187C152.249 159.196 152.327 159.278 152.535 160.074C152.644 160.488 152.734 160.904 152.864 161.453C152.433 161.474 152.143 161.492 151.853 161.501C145.914 161.688 139.974 161.562 134.034 161.42C129.919 161.323 125.835 161.604 121.759 162.159C120.076 162.388 118.371 162.448 116.676 162.578C116.444 162.596 116.205 162.578 115.859 162.578C115.859 161.649 115.852 160.795 115.859 159.942C115.862 159.595 116.058 159.383 116.395 159.338C117.008 159.257 117.626 159.124 118.242 159.139L118.239 159.142ZM54.038 103.744C54.4362 103.723 54.7499 103.684 55.0636 103.693C57.4136 103.771 59.7606 103.85 62.1106 103.946C67.1092 104.154 72.0987 104.073 77.0883 103.645C79.0703 103.476 81.0824 103.554 83.0764 103.654C85.909 103.795 88.7326 104.076 91.5623 104.263C92.6121 104.332 93.6679 104.341 94.7207 104.323C97.2849 104.278 99.8521 104.185 102.416 104.148C103.894 104.127 105.376 104.185 106.914 104.206C106.935 104.498 106.977 104.734 106.968 104.966C106.724 111.669 107.24 118.357 107.412 125.051C107.415 125.187 107.424 125.319 107.427 125.455C107.548 130.233 107.68 135.012 107.789 139.793C107.84 142.089 107.855 144.385 107.882 146.68C107.885 146.973 107.855 147.269 107.84 147.555C107.704 147.618 107.68 147.646 107.659 147.64C105.581 147.172 103.493 146.741 101.427 146.216C100.651 146.02 99.9094 145.658 99.1914 145.29C97.2185 144.282 95.2336 143.293 93.4417 141.971C92.6422 141.38 91.8851 140.737 91.0555 140.074C91.2666 139.796 91.4024 139.606 91.5502 139.431C92.5276 138.276 93.5201 137.136 94.4854 135.971C96.6725 133.335 98.389 130.399 99.8792 127.331C100.769 125.497 101.345 123.555 101.725 121.558C102.033 119.938 101.937 118.327 101.514 116.74C101.01 114.833 100.108 113.105 98.9048 111.563C97.0707 109.204 94.0571 108.372 91.514 109.446C90.2561 109.974 89.1248 110.71 88.1746 111.693C87.6889 112.197 87.2183 112.731 86.8352 113.313C84.9769 116.146 83.6134 119.204 83.0764 122.556C82.4278 126.592 83.01 130.457 85.0764 134.059C86.2167 136.05 87.2786 138.083 88.8503 139.845C88.6512 140.071 88.5094 140.261 88.3405 140.421C86.3103 142.33 84.2288 144.173 81.7853 145.552C81.2061 145.878 81.0794 145.911 80.6932 145.404C79.3206 143.6 77.9812 141.772 76.6117 139.965C76.3251 139.588 76.4578 139.274 76.6177 138.918C77.7128 136.469 78.5333 133.929 79.0672 131.298C79.7731 127.823 79.7611 124.324 79.4835 120.806C79.2995 118.474 78.7807 116.218 78.0898 113.995C77.4594 111.968 76.3522 110.227 74.8379 108.746C73.8092 107.738 72.5874 107.077 71.1636 106.815C70.7925 106.746 70.4215 106.673 70.0474 106.61C66.9221 106.079 64.1378 107.331 62.5661 110.094C61.2086 112.48 60.8315 115.066 61.3262 117.772C61.6581 119.591 62.2765 121.316 63.091 122.972C64.3459 125.521 65.7999 127.956 67.4712 130.258C68.883 132.203 70.334 134.122 71.7639 136.053C72.5211 137.072 73.2481 138.113 74.0385 139.105C74.4065 139.567 74.3643 139.935 74.1048 140.418C73.0822 142.327 71.9811 144.192 70.6326 145.884C69.3204 147.531 67.8965 149.085 66.536 150.692C66.1559 151.142 65.7155 151.314 65.1242 151.305C63.0729 151.266 61.0185 151.275 58.9642 151.269C58.1859 151.269 57.4076 151.269 56.5388 151.269C56.4905 150.991 56.397 150.656 56.3789 150.318C56.2582 148.08 56.1345 145.842 56.0501 143.6C55.8449 138.173 55.6579 132.749 55.4739 127.322C55.4347 126.134 55.3985 124.945 55.4437 123.757C55.6006 119.744 55.2235 115.772 54.6594 111.808C54.3245 109.455 54.0259 107.096 54.0319 104.709C54.0319 104.417 54.0319 104.127 54.0319 103.75L54.038 103.744ZM75.5106 141.28C75.7338 141.573 75.9028 141.772 76.0476 141.986C77.0672 143.486 78.1502 144.931 79.4413 146.213C79.7279 146.496 79.9451 146.846 80.2045 147.154C80.7204 147.769 81.372 147.908 82.0869 147.546C82.3252 147.425 82.5485 147.266 82.7596 147.1C85.173 145.235 87.6316 143.428 89.8156 141.286C89.8337 141.268 89.8639 141.265 89.879 141.259C91.0102 142.113 92.0299 143.018 93.1732 143.715C95.1762 144.937 97.2215 146.098 99.3121 147.163C100.932 147.99 102.748 148.267 104.522 148.623C105.288 148.777 106.057 148.922 106.821 149.097C107.876 149.338 107.922 149.425 107.723 150.611C107.339 150.593 106.944 150.584 106.549 150.557C101.128 150.149 95.7162 150.062 90.2862 150.514C86.98 150.789 83.6526 150.864 80.3342 150.976C76.663 151.1 72.9917 151.163 69.3204 151.254C69.0549 151.26 68.7864 151.254 68.4275 151.254C68.7321 150.548 69.3023 150.165 69.7005 149.652C70.1138 149.118 70.5693 148.617 70.9886 148.089C71.4079 147.561 71.8182 147.024 72.2164 146.478C72.6146 145.932 72.9977 145.377 73.3688 144.813C73.7398 144.249 74.0958 143.676 74.4427 143.096C74.7866 142.526 75.1154 141.947 75.5046 141.28H75.5106ZM68.9131 129.494C67.2329 127.205 65.7728 124.773 64.5239 122.221C63.6762 120.49 63.0457 118.683 62.8074 116.758C62.5812 114.915 62.8828 113.138 63.6702 111.473C63.9869 110.803 64.4545 110.173 64.9734 109.639C66.2223 108.354 67.7668 107.955 69.5617 108.136C73.1697 108.501 75.1003 110.809 76.3221 113.88C77.1094 115.862 77.6162 117.947 77.7791 120.091C77.8696 121.301 77.9088 122.517 77.936 123.73C77.9631 125.048 78.0325 126.375 77.936 127.687C77.6856 131.111 76.7806 134.381 75.4533 137.543C75.411 137.639 75.3477 137.727 75.2391 137.914C75.0852 137.748 74.9857 137.66 74.9073 137.558C72.9072 134.873 70.8981 132.194 68.9162 129.494H68.9131ZM89.514 138.095C87.891 136.113 86.6843 133.866 85.6556 131.552C84.2981 128.505 84.1051 125.268 84.82 122.022C85.4113 119.337 86.5094 116.842 87.9694 114.511C88.8654 113.081 90.063 111.977 91.5623 111.204C93.5563 110.176 95.7826 110.444 97.2517 112.155C99.5444 114.824 100.784 117.901 100.09 121.503C99.7012 123.527 99.0165 125.455 98.1054 127.31C96.1235 131.35 93.4748 134.912 90.4612 138.225C90.3707 138.324 90.2742 138.421 90.1746 138.511C90.1354 138.544 90.0811 138.559 89.9725 138.611C89.8277 138.448 89.6648 138.279 89.517 138.095H89.514ZM58.1346 152.919C59.9416 152.861 61.7516 152.907 63.5586 152.91C63.6581 152.91 63.7607 152.946 63.8602 152.964C63.8934 153.027 63.9266 153.094 63.9598 153.157C62.9251 153.972 61.9024 154.795 60.8496 155.582C60.6807 155.709 60.388 155.712 60.1558 155.697C58.569 155.582 56.9822 155.45 55.3955 155.317C54.7439 155.263 54.3849 154.913 54.3366 154.319C54.2974 153.824 54.5478 153.426 55.1752 153.305C56.1496 153.115 57.1421 152.949 58.1316 152.919H58.1346ZM60.5328 157.827C60.916 157.592 61.2629 157.447 61.7335 157.483C65.8573 157.803 69.981 158.029 74.1199 157.845C75.0309 157.803 75.948 157.839 77.0099 157.839C76.9797 159.172 77.1004 160.376 76.9013 161.676C69.242 161.782 61.6369 162.666 53.8117 161.896C54.1556 161.679 54.3245 161.568 54.4995 161.465C56.5116 160.255 58.5298 159.055 60.5328 157.83V157.827ZM71.0942 156.27C68.6115 156.234 66.1318 156.092 63.6491 155.993C63.5465 155.99 63.4439 155.948 63.2207 155.896C64.3369 154.907 65.3324 153.999 66.3671 153.139C66.5873 152.958 66.9614 152.898 67.266 152.889C68.6145 152.852 69.966 152.889 71.3174 152.843C77.4443 152.638 83.5681 152.424 89.6919 152.186C91.4175 152.119 93.14 151.908 94.8655 151.857C98.9712 151.736 103.074 151.845 107.164 152.225C107.726 152.276 108.284 152.394 108.839 152.515C109.098 152.572 109.352 152.689 109.584 152.819C109.876 152.982 110.106 153.22 110.091 153.588C110.073 153.987 109.765 154.156 109.448 154.222C108.528 154.415 107.596 154.72 106.67 154.705C104.097 154.668 101.55 154.931 98.9923 155.136C95.1974 155.444 91.3964 155.664 87.5984 155.935C86.6843 156.002 85.7733 156.165 84.8562 156.192C83.185 156.246 81.5138 156.237 79.8425 156.243C76.9284 156.258 74.0113 156.306 71.0972 156.267L71.0942 156.27ZM165.078 163.055C165.293 163.055 165.513 163.07 165.724 163.112C166.635 163.302 167.13 164.035 167.012 164.967C166.961 165.381 166.789 165.61 166.348 165.607C165.513 165.607 164.674 165.631 163.839 165.628C159.543 165.607 155.247 165.55 150.954 165.562C143.552 165.586 136.155 165.854 128.764 166.255C123.18 166.557 117.593 166.762 112.006 167.01C105.629 167.263 99.2548 166.995 92.8836 166.765C88.1504 166.593 83.4354 166.744 78.7113 167.004C75.2331 167.194 71.7458 167.29 68.2615 167.305C63.9356 167.323 59.6218 167.51 55.314 167.875C53.9444 167.99 52.5598 168.011 51.1842 167.951C50.4753 167.921 49.7664 167.652 49.0786 167.429C48.5778 167.269 48.3003 166.868 48.2399 166.334C48.2188 166.147 48.1766 165.96 48.1645 165.773C48.065 164.352 48.1494 164.231 49.4798 163.709C50.1344 163.453 50.7649 163.248 51.513 163.329C56.6534 163.884 61.8089 163.987 66.9704 163.688C71.6372 163.417 76.307 163.251 80.9828 163.314C83.3328 163.347 85.6768 163.498 88.0267 163.565C90.5095 163.637 92.9952 163.73 95.4779 163.706C98.9953 163.67 102.498 163.818 106 164.129C110.048 164.488 114.1 164.43 118.142 164.105C120.887 163.881 123.62 163.531 126.363 163.257C129.678 162.925 133.005 162.964 136.324 163.088C143.971 163.368 151.612 163.07 159.256 163.04C161.199 163.031 163.142 163.052 165.084 163.064L165.078 163.055ZM167.241 85.3183C166.858 86.3228 166.52 87.3515 166.056 88.3168C164.662 91.2249 161.293 91.8675 159.193 91.3034C158.339 91.0741 157.513 90.7302 156.695 90.3833C156.028 90.0997 155.401 89.7166 154.743 89.4059C153.724 88.9232 153.211 88.0936 153.045 87.0137C153.006 86.7542 152.967 86.4918 152.915 86.1479C157.715 85.6893 162.472 85.2338 167.284 84.7723C167.269 85.0136 167.293 85.1825 167.241 85.3183ZM167.646 75.2818C167.875 77.3121 167.827 79.3785 167.878 81.4268C167.89 81.9336 167.796 82.4404 167.754 82.917C166.952 83.2398 153.905 84.5219 152.677 84.4042C152.629 84.0875 152.556 83.7496 152.526 83.4087C152.146 79.0255 151.784 74.6393 151.389 70.2591C151.172 67.8397 150.852 65.4294 150.665 63.007C150.508 60.9376 150.457 58.8561 150.399 56.7806C150.384 56.1954 150.508 55.6071 150.583 54.865C155.428 54.9646 160.164 54.5694 164.982 55.0913C165.181 56.2949 165.401 57.4292 165.549 58.5755C166.267 64.1443 167.012 69.7101 167.643 75.2879L167.646 75.2818ZM169.404 50.8861C169.281 52.3733 168.183 52.9736 167.106 53.0943C165.902 53.23 164.683 53.2964 163.474 53.2903C161.096 53.2813 158.719 53.2059 156.345 53.1546C156.345 53.2089 156.345 53.2602 156.345 53.3145C153.51 53.3145 150.674 53.2964 147.835 53.3205C146.001 53.3356 144.164 53.5045 142.333 53.4442C138.58 53.3175 134.821 53.1998 131.084 52.859C127.672 52.5482 124.239 52.4185 120.851 51.8092C119.153 51.5015 117.424 51.4351 115.69 51.3989C112.471 51.3295 109.258 51.4502 106.057 51.6975C102.63 51.963 99.2035 51.9087 95.7735 51.8966C92.232 51.8846 88.7055 52.138 85.185 52.5633C84.2589 52.6749 83.3057 52.5573 82.3645 52.5422C82.1774 52.5392 81.9874 52.4939 81.8003 52.5C78.7776 52.5844 75.7489 52.3944 72.7292 52.6749C69.785 52.9495 66.8497 52.6146 63.9085 52.5151C61.7154 52.4396 59.5735 51.9419 57.3834 51.9751C55.2235 52.0052 53.0606 52.0384 50.9006 52.0445C50.2279 52.0445 49.5582 51.954 48.8855 51.9147C48.3727 51.8846 47.8598 51.8303 47.35 51.8604C46.0649 51.9359 44.8281 51.6825 43.5822 51.414C42.4087 51.1606 41.7511 50.4155 41.4042 49.3566C40.9456 47.9659 40.9275 46.524 41.2292 45.1122C41.5852 43.4379 42.2368 42.9764 43.917 42.8074C45.0634 42.6928 46.255 42.6807 47.3922 42.8527C52.1767 43.5737 56.9792 43.5194 61.7878 43.3112C67.1574 43.0789 72.5301 42.8436 77.8998 42.5721C80.5424 42.4394 83.182 42.2192 85.8246 42.0442C86.5516 41.9959 87.2816 41.9477 88.0117 41.9477C95.6318 41.9477 103.249 41.9145 110.869 41.9778C116.245 42.0231 121.617 42.2373 126.993 42.3097C130.287 42.3519 133.587 42.3187 136.882 42.2282C140.128 42.1407 143.361 42.3851 146.601 42.4816C151.099 42.6113 155.537 43.1905 159.956 43.9749C160.593 44.0865 161.238 44.1891 161.881 44.2373C163.585 44.367 165.238 44.7773 166.891 45.1634C169.003 45.6552 169.522 46.3037 169.603 48.4727C169.634 49.2752 169.477 50.0836 169.41 50.8891L169.404 50.8861Z" fill="#47567B"/>
</svg>
