<svg width="204" height="203" viewBox="0 0 204 203" fill="none" xmlns="http://www.w3.org/2000/svg">
<g clip-path="url(#clip0_716_140057)">
<path d="M25.8277 170.752C26.2693 170.752 26.5005 171.014 26.704 171.276C27.0559 171.728 27.3906 172.194 27.7183 172.663C28.8879 174.357 30.2989 175.813 31.948 177.041C32.1343 177.179 32.3275 177.307 32.5518 177.466C33.4764 176.238 34.4389 175.096 35.0703 173.702C36.3502 170.862 37.2438 167.899 38.058 164.908C39.024 161.365 39.9313 157.808 40.9146 154.271C41.7598 151.239 42.3187 148.148 42.9363 145.07C43.3986 142.762 43.8436 140.444 44.3887 138.153C44.7303 136.711 45.234 135.307 45.6825 133.892C45.8998 133.206 46.1482 132.533 46.4035 131.802C46.2207 131.774 46.0827 131.743 45.9481 131.736C45.165 131.688 44.6233 131.298 44.3611 130.566C44.0748 129.77 43.7574 128.976 43.885 128.127C42.3946 127.237 41.884 126.188 42.2014 124.733C42.5119 123.318 43.6746 122.228 45.1063 122.048C45.0856 121.91 45.0753 121.772 45.0477 121.638C44.8717 120.748 45.0615 119.947 45.6652 119.268C45.8377 119.075 45.8964 118.888 45.8826 118.64C45.8067 117.091 45.7515 115.545 45.6687 113.996C45.5445 111.723 45.6273 109.456 45.786 107.186C45.9688 104.56 46.162 101.935 46.3518 99.3095C46.5967 95.9181 46.6623 92.5268 46.4242 89.132C46.407 88.9077 46.3725 88.6869 46.3414 88.4213C46.131 88.4661 45.9895 88.4972 45.8481 88.5248C44.8752 88.7042 44.061 88.1625 43.8712 87.1862C43.747 86.541 43.8402 85.9166 44.1403 85.3301C44.644 84.3399 45.8032 84.2019 46.3897 85.1196C46.4449 85.2059 46.5208 85.2818 46.6554 85.4474C46.9762 84.7539 47.2212 84.1122 47.2695 83.4153C47.3799 81.8697 47.4696 80.3241 47.5662 78.7751C47.8387 74.3729 47.5075 69.9948 47.0935 65.6168C46.8762 63.3329 46.6623 61.0524 46.6864 58.7547C46.6968 57.6714 46.7382 56.5847 47.0314 55.5324C47.4903 53.8868 48.5011 52.7862 50.2365 52.4619C51.3439 52.2549 52.4583 52.1135 53.5899 52.1376C56.029 52.1894 58.4716 52.1963 60.9108 52.2756C62.7979 52.3377 64.6816 52.5447 66.5688 52.5689C68.8906 52.5965 71.178 52.9208 73.4791 53.1623C76.3185 53.459 79.1613 53.3175 81.9903 52.9725C82.494 52.9104 82.9942 52.7724 83.4979 52.7379C84.0844 52.6965 84.6813 52.6827 85.2643 52.7448C85.6128 52.7828 85.875 52.7483 86.1337 52.5171C86.3856 52.2929 86.6754 52.11 86.9445 51.8996C88.321 50.8232 89.8735 50.5265 91.5675 50.8508C92.9578 51.1164 94.2343 51.6684 95.4936 52.4585C95.4832 52.2791 95.4832 52.148 95.4694 52.0169C95.359 51.0612 95.6178 50.2022 96.1905 49.4466C97.1461 48.1943 98.6779 48.2805 99.499 49.6157C99.5439 49.6847 99.5922 49.7502 99.6888 49.8848C100.289 49.2741 101.02 49.074 101.869 49.2189C101.89 48.974 101.897 48.7877 101.924 48.6048C102.049 47.8251 102.376 47.1593 103.153 46.8798C103.943 46.5935 104.664 46.8522 105.264 47.4042C105.73 47.832 106.02 48.3702 106.14 48.9947C106.189 49.2431 106.216 49.4984 106.278 49.7468C106.378 50.1539 106.641 50.3747 107.144 50.3471C107.01 50.0952 106.885 49.8399 106.741 49.5915C106.454 49.1085 106.375 48.6014 106.513 48.0597C106.72 47.2352 107.272 46.8315 108.11 46.9626C109.076 47.1144 109.921 47.5491 110.636 48.2184C110.774 48.3461 110.894 48.491 111.022 48.6255C112.53 47.4456 114.493 47.5491 115.814 49.6088C116.252 49.7088 116.673 49.7261 117.018 49.8951C117.584 50.1746 117.881 50.7162 117.963 51.3303C118.019 51.7374 118.177 51.972 118.519 52.2308C118.923 52.5344 119.326 52.631 119.792 52.7034C120.399 52.8 121.003 52.9346 121.593 53.1002C122.134 53.252 122.68 53.3417 123.228 53.2451C125.643 52.8207 128.048 53.0001 130.456 53.3072C132.65 53.5866 134.858 53.6108 137.066 53.628C138.57 53.6384 140.074 53.7419 141.579 53.8005C141.81 53.8109 142.048 53.8281 142.276 53.8005C143.921 53.6211 145.563 53.421 147.209 53.252C147.906 53.1795 148.606 53.1243 149.307 53.1347C151.384 53.1623 153.471 53.0174 155.537 53.3244C157.511 53.6142 159.481 53.9247 161.454 54.2042C161.979 54.2766 162.51 54.2904 163.041 54.3008C164.059 54.3146 165.08 54.2801 166.098 54.3215C166.667 54.3422 167.25 54.4077 167.792 54.5699C169.189 54.9873 170.165 55.8843 170.528 57.3299C171.156 59.8277 171.58 62.3531 171.497 64.9475C171.476 65.5823 171.528 66.2205 171.594 66.8519C171.794 68.7942 172.008 70.7331 172.239 72.672C172.401 74.0417 172.605 75.4079 172.791 76.7741C172.808 76.8948 172.843 77.0156 172.867 77.1294C174.34 77.157 175.24 77.9885 175.848 79.1856C176.237 79.9584 176.048 80.8416 175.471 81.4247C174.768 82.1354 173.688 82.1837 172.939 81.5213C172.787 81.3867 172.691 81.1832 172.57 81.0107C172.518 81.0383 172.467 81.0659 172.415 81.0935C172.353 81.2625 172.28 81.4281 172.235 81.6006C171.77 83.3291 171.532 85.0955 171.352 86.8688C171.031 90.0807 170.745 93.2927 170.4 96.5012C169.903 101.114 169.779 105.733 170.034 110.363C170.121 111.912 170.203 113.458 170.286 115.007C170.317 115.556 170.717 115.869 171.259 115.749C171.794 115.628 172.311 115.645 172.812 115.883C173.602 116.256 174.047 116.953 173.978 117.826C173.953 118.122 174.009 118.35 174.174 118.592C174.54 119.126 174.557 119.747 174.523 120.403C175.575 121.007 176.003 121.931 175.796 123.139C176.734 123.632 177.165 124.388 177.021 125.402C176.855 126.561 176.258 127.365 174.982 127.503C175.023 127.665 175.047 127.765 175.075 127.865C175.333 128.748 175.168 129.563 174.588 130.256C174.333 130.56 174.305 130.811 174.416 131.17C175.42 134.396 175.934 137.698 175.961 141.075C175.975 142.583 175.954 144.09 175.968 145.595C176.013 149.711 176.569 153.761 177.579 157.749C177.942 159.177 178.452 160.537 179.115 161.854C180.346 164.301 181.557 166.757 182.741 169.227C183.086 169.952 183.306 170.735 183.576 171.49C183.658 171.725 183.724 171.966 183.814 172.27C184.076 172.142 184.283 172.053 184.483 171.946C186.08 171.09 187.546 170.038 188.978 168.941C191.573 166.95 194.115 164.894 196.541 162.7C197.217 162.089 197.879 161.458 198.517 160.802C200.957 158.301 202.768 155.41 203.844 152.074C203.924 151.832 204.006 151.587 204.131 151.367C204.303 151.063 204.614 150.963 204.89 151.063C205.179 151.17 205.317 151.432 205.262 151.787C205.242 151.912 205.193 152.032 205.155 152.153C203.972 155.938 201.933 159.205 199.128 161.993C196.744 164.363 194.15 166.488 191.517 168.568C190.434 169.424 189.334 170.255 188.226 171.08C184.907 173.55 181.178 175.033 177.103 175.696C171.563 176.596 166.001 176.786 160.412 176.258C156.445 175.886 152.543 175.216 148.772 173.895C140.999 171.173 134.092 167.064 128.348 161.095C128.244 160.989 128.137 160.885 128.027 160.788C127.999 160.764 127.951 160.764 127.858 160.737C127.744 160.882 127.61 161.04 127.485 161.206C125.94 163.317 124.201 165.267 122.417 167.174C121.355 168.309 120.185 169.327 118.926 170.235C117.17 171.501 115.397 172.746 113.637 174.009C112.819 174.595 111.94 175.044 110.97 175.323C110.646 175.416 110.38 175.354 110.166 175.106C110.056 174.978 109.953 174.84 109.87 174.692C107.482 170.455 105.157 166.188 103.611 161.547C103.184 160.257 102.77 158.963 102.345 157.673C102.283 157.48 102.204 157.294 102.093 157.004C101.824 157.283 101.624 157.49 101.424 157.701C92.5231 167.085 82.0972 174.226 70.036 178.939C65.2923 180.792 60.4036 182.113 55.3494 182.782C52.9275 183.103 50.4918 183.22 48.0457 183.217C45.6963 183.213 43.402 182.779 41.0871 182.506C36.9505 181.388 33.021 179.857 29.7814 176.924C28.5808 175.837 27.4975 174.644 26.6074 173.288C26.3073 172.829 26.0727 172.325 25.8381 171.828C25.6863 171.497 25.6345 171.138 25.8139 170.745L25.8277 170.752ZM162.755 117.819C162.682 117.781 162.575 117.712 162.462 117.674C160.461 117.032 158.484 116.301 156.452 115.783C154.847 115.373 153.333 114.797 151.922 113.969C149.303 112.437 146.688 110.891 144.111 109.287C139.83 106.623 135.841 103.563 131.953 100.362C129.328 98.202 126.751 95.9906 124.387 93.5445C120.999 90.0393 118.088 86.196 116.038 81.749C114.714 78.8751 113.413 75.9944 112.112 73.1102C111.412 71.5611 110.808 69.9741 110.408 68.3181C110.384 68.2112 110.322 68.1146 110.215 67.8662C110.091 68.2526 110.011 68.4872 109.939 68.7252C108.121 74.6799 105.426 80.2206 101.883 85.3335C98.8608 89.6943 95.8144 94.0413 92.6853 98.3297C90.1288 101.831 87.7276 105.433 85.3333 109.038C84.2155 110.722 83.077 112.382 81.6763 113.844C80.1169 115.466 78.5886 117.129 76.7428 118.436C74.6625 119.913 72.5097 121.265 70.143 122.255C69.3081 122.604 68.5249 123.094 67.7383 123.549C66.5274 124.253 65.3371 124.988 64.1331 125.705C63.2602 126.23 62.346 126.492 61.342 126.095C61.3075 126.081 61.2592 126.102 61.173 126.113C61.1661 126.292 61.1661 126.478 61.1454 126.665C61.1074 127.044 61.1074 127.434 61.0108 127.8C60.7797 128.662 60.3036 129.359 59.4169 129.642C59.0547 129.759 58.7752 129.935 58.551 130.208C58.7269 131.243 58.7166 131.66 58.3509 132.195C58.1025 132.557 58.0162 132.93 58.0783 133.337C58.2267 134.324 58.3854 135.307 58.551 136.29C59.0305 139.157 59.5549 142.02 59.9793 144.894C60.2484 146.706 60.5416 148.5 61.1833 150.221C61.7836 151.836 62.4978 153.399 63.3361 154.903C64.9059 157.718 66.0754 160.685 66.7654 163.845C67.3105 166.333 68.0074 168.786 68.9217 171.17C69.2943 172.142 69.6255 173.129 69.6841 174.181C69.691 174.285 69.7117 174.395 69.7531 174.488C70.0533 175.185 69.9946 175.899 69.8635 176.617C69.8014 176.965 69.7152 177.307 69.622 177.742C69.936 177.624 70.1706 177.545 70.4017 177.452C77.626 174.564 84.2811 170.69 90.4462 165.957C94.293 163 97.8603 159.736 101.152 156.169C101.538 155.751 101.679 155.396 101.472 154.827C101.179 154.013 100.958 153.16 100.782 152.312C100.168 149.359 99.8026 146.361 99.5232 143.363C98.9988 137.722 99.3852 132.119 100.638 126.592C101.345 123.463 102.645 120.558 104.239 117.784C104.553 117.236 104.964 116.735 105.378 116.256C106.089 115.431 106.913 114.734 107.879 114.21C108.748 113.737 109.67 113.568 110.649 113.693C112.675 113.944 114.365 114.845 115.707 116.373C115.935 116.632 116.1 116.984 116.197 117.318C117.156 120.641 117.456 124.025 117.101 127.468C117.077 127.689 117.073 127.91 117.06 128.131C117.246 128.01 117.329 127.872 117.391 127.724C118.17 125.937 119.236 124.336 120.499 122.856C121.096 122.155 121.748 121.5 122.583 121.107C123.635 120.61 124.698 120.075 125.812 119.775C127.996 119.181 130.063 119.495 131.86 120.996C132.771 121.759 133.468 122.687 134.03 123.722C135.175 125.826 135.962 128.065 136.455 130.401C137.132 133.606 136.973 136.821 136.507 140.03C136.159 142.431 135.434 144.743 134.699 147.051C133.337 151.349 131.494 155.41 128.934 159.132C128.841 159.267 128.772 159.422 128.7 159.553C130.508 161.972 136.169 166.471 140.313 168.737C143.607 170.542 147.037 172.042 150.656 173.177C150.838 172.805 151.008 172.512 151.132 172.198C151.422 171.47 151.694 170.731 151.97 169.997C152.75 167.909 153.533 165.825 154.302 163.731C154.747 162.517 155.189 161.299 155.586 160.071C155.848 159.264 156.038 158.436 156.252 157.614C156.983 154.834 157.404 152.008 157.504 149.127C157.59 146.647 157.714 144.166 157.866 141.686C157.99 139.65 158.242 137.636 158.846 135.669C159.708 132.864 160.664 130.101 161.899 127.437C162.003 127.213 162.068 127.023 161.885 126.796C161.195 125.943 161.037 125.019 161.589 124.018C161.496 123.953 161.43 123.901 161.361 123.86C160.354 123.225 159.981 122.276 160.078 121.138C160.16 120.189 160.792 119.602 161.74 119.509C161.947 119.489 162.158 119.485 162.355 119.471C162.489 118.912 162.617 118.385 162.755 117.819ZM155.31 96.6185C155.344 96.4218 155.368 96.2597 155.403 96.101C155.727 94.5761 155.71 93.065 155.203 91.578C155.061 91.1571 154.868 90.7569 154.699 90.3464C153.906 88.4247 153.105 86.5065 152.319 84.5814C150.569 80.3034 149.697 75.8564 149.693 71.2334C149.693 68.5148 149.759 65.7962 150.028 63.0914C150.207 61.287 149.914 59.5379 149.493 57.7956C149.389 57.3678 149.151 57.0746 148.751 56.9055C148.575 56.8296 148.403 56.7503 148.22 56.6951C144.673 55.6325 141.106 54.7251 137.346 54.8838C134.989 54.9839 132.633 54.8321 130.287 54.5837C129.103 54.4595 127.924 54.3353 126.737 54.2525C125.978 54.2007 125.219 54.2663 124.377 54.4353C124.567 54.6147 124.687 54.7217 124.805 54.8355C125.557 55.5807 126.371 56.2776 127.047 57.0849C129 59.4275 130.646 61.9701 131.839 64.7922C132.916 67.3349 134.116 69.8189 135.434 72.2477C137.308 75.7011 139.195 79.1442 141.486 82.3458C142.883 84.2951 144.194 86.3064 145.584 88.2591C150.58 95.2833 155.603 102.287 160.592 109.314C161.82 111.043 162.972 112.827 164.138 114.603C164.456 115.09 164.683 115.635 164.977 116.201C165.128 116.001 165.246 115.828 165.377 115.669C165.525 115.49 165.649 115.255 165.843 115.155C166.602 114.755 166.529 114.138 166.346 113.475C166.26 113.168 166.156 112.868 166.084 112.557C165.877 111.692 165.622 110.832 165.491 109.953C165.301 108.673 165.215 107.379 165.059 106.092C164.504 101.511 164.297 96.9152 164.242 92.3025C164.207 89.4597 164.049 86.6204 163.862 83.7845C163.776 82.4769 163.479 81.1832 163.293 79.8825C163.148 78.8751 163.107 77.8436 162.879 76.8569C162.199 73.9002 161.444 70.9608 160.74 68.0076C160.574 67.3107 160.485 66.5931 160.398 65.879C160.371 65.6375 160.426 65.3684 160.505 65.1303C160.678 64.6163 161.102 64.3989 161.613 64.5714C161.889 64.6646 162.158 64.8129 162.403 64.9785C163.431 65.6685 164.083 66.6449 164.469 67.8041C164.994 69.3807 165.339 70.9953 165.501 72.6513C165.673 74.4108 165.622 76.1738 165.515 77.9333C165.315 81.3488 165.18 84.7608 165.397 88.1798C165.48 89.4942 165.522 90.8087 165.525 92.1266C165.529 95.7594 165.656 99.3854 166.008 103.004C166.212 105.095 166.37 107.196 166.681 109.273C166.926 110.926 167.367 112.554 167.726 114.189C167.747 114.282 167.816 114.383 167.892 114.438C168.237 114.693 168.596 114.935 168.989 115.211C168.999 115.01 169.02 114.828 169.01 114.645C168.968 113.862 168.916 113.075 168.872 112.292C168.585 107.517 168.506 102.746 168.996 97.9778C169.386 94.1759 169.724 90.3705 170.11 86.5686C170.359 84.1157 170.752 81.6869 171.604 79.3547C171.68 79.1442 171.714 78.8958 171.697 78.6716C171.618 77.7194 171.528 76.7672 171.414 75.8184C171.121 73.4172 170.793 71.0195 170.517 68.6183C170.376 67.3763 170.234 66.1239 170.245 64.8785C170.269 62.4359 169.9 60.0588 169.317 57.7025C169.034 56.5674 168.233 55.9637 167.14 55.7153C166.791 55.6359 166.426 55.6049 166.067 55.598C165.111 55.5807 164.155 55.6014 163.2 55.5807C162.524 55.5669 161.841 55.5497 161.171 55.4565C159.615 55.2426 158.066 54.9942 156.514 54.7389C153.795 54.2939 151.052 54.3974 148.317 54.4388C147.623 54.4491 146.933 54.5423 146.25 54.7217C146.443 54.8424 146.636 54.9011 146.833 54.9632C147.64 55.2219 148.458 55.4531 149.251 55.7498C149.986 56.0258 150.487 56.5605 150.683 57.3437C151.177 59.2895 151.487 61.2456 151.287 63.2673C151.008 66.0791 150.939 68.9012 150.966 71.7267C150.994 74.6316 151.432 77.4779 152.181 80.2793C152.833 82.7081 153.864 84.992 154.868 87.2897C155.413 88.5317 155.917 89.7978 156.369 91.0743C156.786 92.2611 156.986 93.4962 156.959 94.7658C156.948 95.3523 156.69 95.8319 156.362 96.2769C156.12 96.6012 155.772 96.7323 155.31 96.6254V96.6185ZM51.7717 117.808C51.9511 118.012 52.1098 118.053 52.2754 117.864C52.3996 117.719 52.5342 117.581 52.6342 117.419C53.407 116.173 54.1902 114.938 54.9319 113.675C56.2981 111.353 57.4677 108.918 58.9822 106.679C59.2306 106.31 59.4273 105.906 59.6239 105.506C61.1385 102.394 62.1079 99.0921 62.7979 95.718C63.2085 93.7032 63.3741 91.6401 63.7122 89.6115C64.5022 84.9057 65.8201 80.4035 68.518 76.3704C70.7329 73.055 72.3889 69.4463 73.6654 65.6651C74.1864 64.116 74.7349 62.5773 75.28 61.0352C75.3559 60.8178 75.4525 60.6005 75.5836 60.4073C75.7251 60.1968 75.9528 60.1209 76.2046 60.1899C76.4806 60.2658 76.6393 60.4728 76.6428 60.7488C76.6428 60.9351 76.591 61.1249 76.5289 61.3043C75.9873 62.8706 75.4387 64.43 74.8936 65.9963C74.0932 68.3043 73.2204 70.5882 72.0577 72.741C71.0986 74.5143 70.0636 76.2462 69.0286 77.9747C68.2869 79.2167 67.5555 80.4621 67.0587 81.8214C66.0099 84.7022 65.175 87.645 64.8472 90.6983C64.4194 94.6623 63.6052 98.5332 62.3115 102.308C61.618 104.322 60.7728 106.258 59.6308 108.066C58.9305 109.176 58.275 110.322 57.6264 111.464C56.5051 113.437 55.4805 115.469 54.166 117.329C54.1143 117.405 54.097 117.505 54.0522 117.626C54.5386 117.677 54.9768 117.722 55.446 117.774C55.5391 117.567 55.6219 117.377 55.7116 117.187C56.3671 115.759 57.0399 114.338 57.9748 113.065C58.7787 111.971 59.5894 110.877 60.4036 109.791C62.3184 107.244 64.2124 104.685 65.9167 101.99C67.5762 99.3647 69.108 96.6771 70.212 93.7619C70.8226 92.1542 71.4436 90.5534 72.0646 88.9491C74.0967 83.7017 75.9942 78.4094 77.5501 72.9998C78.3816 70.1052 79.1475 67.1865 80.0272 64.3058C81.1174 60.7454 82.4491 57.2816 84.4915 54.1352C84.5226 54.0869 84.5191 54.0179 84.5467 53.8868C84.2673 53.9144 84.0189 53.9178 83.7774 53.9661C80.8035 54.5768 77.7847 54.5733 74.7694 54.5664C74.4313 54.5664 74.0898 54.525 73.7551 54.4836C71.2056 54.1766 68.6629 53.8488 66.0823 53.8281C64.3435 53.8143 62.6082 53.6039 60.8694 53.5487C58.4716 53.4728 56.0739 53.4245 53.6727 53.4314C52.6377 53.4314 51.5992 53.5659 50.5711 53.697C49.2774 53.8626 48.546 54.6803 48.232 55.8981C48.1147 56.3466 48.0526 56.8158 48.0112 57.2781C47.8491 59.1239 47.9491 60.9696 48.0975 62.8119C48.2941 65.2649 48.5805 67.7144 48.7116 70.1742C48.8496 72.7583 48.8668 75.3492 48.9013 77.9402C48.9117 78.851 48.7495 79.7652 48.7668 80.6726C48.8013 82.5045 48.5391 84.2675 47.7904 85.9476C47.6455 86.2719 47.6317 86.5824 47.7111 86.9343C48.1354 88.8077 48.2941 90.7017 48.1251 92.6268C47.9353 94.7831 47.7835 96.9428 47.6248 99.1025C47.4282 101.769 47.2315 104.436 47.0452 107.106C46.8831 109.459 46.783 111.812 46.9348 114.169C47.0107 115.376 47.0521 116.584 47.1142 117.795C47.1211 117.933 47.1418 118.071 47.1729 118.329C47.4075 118.115 47.5558 117.981 47.7042 117.843C48.7944 116.825 49.3429 115.531 49.5568 114.089C49.7776 112.578 49.926 111.057 50.1502 109.546C50.6401 106.261 50.823 102.963 50.8713 99.6441C50.8954 98.033 51.0196 96.4184 51.1956 94.8176C51.5061 92.03 51.7476 89.2424 51.6027 86.4306C51.5406 85.2438 51.4957 84.0536 51.5199 82.8668C51.5578 80.9589 51.6372 79.0476 51.7441 77.1432C51.8649 74.9835 51.9235 72.8066 52.2168 70.6676C52.5756 68.0628 53.1379 65.4891 53.6382 62.9051C53.8279 61.9218 54.1729 60.98 54.6594 60.1037C54.8422 59.7725 55.0561 59.4413 55.3218 59.1756C56.0911 58.4097 57.2641 58.6719 57.6505 59.6828C57.754 59.9588 57.8196 60.2555 57.861 60.5453C58.0507 61.9218 58.0093 63.2984 57.7575 64.668C57.3228 67.0623 56.5189 69.3428 55.5736 71.5749C55.3425 72.12 55.0837 72.6651 54.925 73.2344C54.4558 74.9076 54.028 76.5947 53.583 78.2783C53.476 78.6888 53.3518 79.0959 53.269 79.5099C53.1621 80.0481 53.0172 80.5898 53.0068 81.1349C52.9723 83.1945 53.0241 85.2542 52.9689 87.3138C52.9206 89.1803 52.8481 91.0502 52.6549 92.9028C52.3548 95.7767 52.1167 98.6505 52.0822 101.542C52.0615 103.239 51.9477 104.936 51.7993 106.627C51.6475 108.359 51.4302 110.087 51.1921 111.812C51.0265 113.009 50.8195 114.203 50.5608 115.383C50.3193 116.477 49.8328 117.463 49.0221 118.267C48.9462 118.343 48.9117 118.46 48.8323 118.602C49.1083 118.619 49.3153 118.633 49.5085 118.647C49.65 118.478 49.7466 118.291 49.8984 118.195C50.3434 117.908 50.5366 117.474 50.7057 117.011C50.785 116.791 50.8747 116.577 50.9541 116.356C52.2375 112.913 53.583 109.504 55.3356 106.261C57.1227 102.953 57.9507 99.3785 57.9921 95.6111C58.0093 93.9137 58.03 92.2094 58.1818 90.5223C58.4544 87.4587 58.8339 84.402 59.1582 81.3419C59.5032 78.1058 60.3691 75.0146 61.618 72.0165C62.967 68.7804 64.4884 65.6271 66.0547 62.4945C66.1099 62.3807 66.172 62.2668 66.2514 62.1668C66.4446 61.9253 66.7033 61.839 66.9897 61.9667C67.2795 62.0943 67.3899 62.3565 67.3174 62.6532C67.2519 62.9189 67.1346 63.1707 67.0173 63.4191C65.8374 65.9135 64.623 68.3906 63.4845 70.9056C62.2114 73.7139 61.1074 76.5947 60.6865 79.6721C60.2932 82.5528 59.8999 85.437 59.6446 88.3316C59.4135 90.9501 59.3928 93.5894 59.2272 96.2148C59.1409 97.5672 59.0133 98.9265 58.7821 100.262C58.2991 103.029 57.202 105.585 55.8669 108.038C54.9423 109.739 54.1557 111.498 53.476 113.313C52.962 114.686 52.4307 116.049 51.9097 117.419C51.858 117.553 51.8166 117.691 51.7752 117.812L51.7717 117.808ZM56.7811 119.854C57.3124 119.716 57.8196 119.582 58.3302 119.454C58.6717 119.371 58.8718 119.175 58.9719 118.826C59.3307 117.574 60.0552 116.532 60.928 115.583C61.8595 114.565 62.7945 113.551 63.7398 112.547C64.5712 111.664 65.4682 110.853 66.4929 110.194C66.8655 109.953 67.2484 109.697 67.659 109.553C68.0454 109.415 68.487 109.335 68.8941 109.366C69.6186 109.425 69.9705 109.977 69.7842 110.681C69.6876 111.046 69.5289 111.398 69.3736 111.747C68.2662 114.227 66.5377 116.211 64.4229 117.877C63.5673 118.554 62.622 119.075 61.6077 119.475C61.1523 119.654 60.7072 119.847 60.2553 120.034C60.0414 120.12 59.9137 120.261 59.893 120.506C59.793 121.772 60.0483 122.966 60.69 124.053C61.2178 124.946 62.2597 125.24 63.1705 124.746C64.3815 124.091 65.5545 123.366 66.7482 122.673C67.5934 122.183 68.4283 121.686 69.2908 121.227C69.8532 120.927 70.4569 120.713 71.0262 120.43C73.2997 119.306 75.4525 117.981 77.35 116.294C78.6955 115.097 79.9341 113.775 81.183 112.478C82.2007 111.419 83.0391 110.218 83.8429 108.99C85.5748 106.344 87.2998 103.691 89.1145 101.103C92.6749 96.032 96.2836 90.9881 99.8992 85.9545C104.005 80.2482 107.082 74.0451 109.045 67.29C109.18 66.8243 109.307 66.3551 109.442 65.8652C109.076 65.7134 108.738 65.5926 108.421 65.4305C108.11 65.2718 107.82 65.0682 107.513 64.8785C107.441 64.9923 107.4 65.0648 107.355 65.1372C106.368 66.7277 104.136 66.8691 102.98 65.4098C102.549 64.8681 102.245 64.2678 102.183 63.5675C102.176 63.4812 102.135 63.395 102.09 63.2501C101.624 63.6917 101.352 64.1643 101.117 64.6646C100.769 65.4132 100.424 66.1688 100.058 66.9105C98.5813 69.9224 97.2358 72.9929 95.9869 76.1082C95.3418 77.7228 94.6552 79.3271 93.9031 80.8934C92.0505 84.7643 89.9494 88.5041 87.7414 92.1783C86.044 95.0039 84.0982 97.6604 81.835 100.068C81.1692 100.776 80.4136 101.407 79.6546 102.014C79.3372 102.27 78.9129 102.439 78.5127 102.539C77.8779 102.697 77.4225 102.339 77.3673 101.687C77.3431 101.414 77.3673 101.135 77.4121 100.862C77.6536 99.2543 78.1884 97.7397 78.8059 96.2424C80.2722 92.6889 82.3215 89.4632 84.3846 86.2478C86.8272 82.4424 89.3595 78.6957 91.7676 74.8697C94.2205 70.9677 96.7494 67.121 99.5715 63.4709C99.6681 63.3467 99.7336 63.1983 99.8337 63.0293C98.4295 62.4876 98.395 61.2387 98.2398 60.0312C97.5291 60.3797 96.8632 60.3486 96.1974 60.1382C95.1589 59.8104 94.7656 59.0583 95.0865 58.0061C95.152 57.7887 95.2383 57.5748 95.3142 57.3609C94.3999 56.9607 94.2171 56.8331 93.9825 56.3259C93.5374 55.3772 93.6099 54.4733 94.2654 53.6349C94.3723 53.4969 94.4862 53.3624 94.6104 53.2071C93.8686 52.9242 93.2028 52.6448 92.5197 52.4171C92.0194 52.2515 91.4985 52.1204 90.9775 52.0307C90.0702 51.8754 89.1594 51.9962 88.3866 52.4619C86.9997 53.3003 85.7128 54.287 84.9504 55.7843C84.3259 57.0125 83.6773 58.2338 83.1288 59.4999C81.8074 62.5428 80.8311 65.7099 79.9962 68.915C78.8232 73.4172 77.4466 77.8574 75.9183 82.2458C74.9557 85.0127 73.8138 87.714 72.8581 90.4809C70.9192 96.0837 68.1868 101.262 64.7196 106.058C62.9911 108.449 61.2351 110.822 59.4549 113.175C58.4095 114.558 57.6195 116.076 56.8881 117.636C56.5672 118.322 56.4637 119.002 56.7742 119.84L56.7811 119.854ZM119.323 53.9627C119.274 55.0667 118.998 56.0465 117.932 56.6364C118.277 57.4748 118.174 58.2648 117.732 59.0238C117.277 59.8035 116.618 60.2796 115.662 60.3279C115.883 61.0628 116 61.7286 115.69 62.3876C115.397 63.0086 114.931 63.4605 114.296 63.7193C113.613 63.9987 112.975 63.7124 112.302 63.4571C112.133 64.2506 111.857 64.8992 111.246 65.3684C111.15 65.4408 111.115 65.6754 111.143 65.8169C111.55 67.7489 111.988 69.6774 112.795 71.4921C114.151 74.535 115.507 77.5814 116.894 80.6105C118.108 83.2635 119.575 85.7682 121.348 88.0901C123.615 91.0536 126.185 93.7308 128.983 96.1838C135.11 101.552 141.561 106.489 148.624 110.584C150.349 111.585 152.08 112.575 153.833 113.527C154.444 113.858 155.116 114.089 155.782 114.3C156.835 114.627 157.904 114.9 158.967 115.193C159.087 115.228 159.219 115.235 159.467 115.273C158.856 114.728 158.328 114.3 157.852 113.824C155.82 111.795 153.602 109.984 151.408 108.138C148.627 105.799 145.767 103.57 142.793 101.486C141.975 100.914 141.192 100.296 140.409 99.6752C136.545 96.6116 133.461 92.958 131.725 88.2695C131.453 87.5346 131.122 86.8205 130.763 86.1236C129.89 84.4262 128.993 82.7391 128.089 81.059C127.827 80.5725 127.551 80.0895 127.213 79.6583C125.867 77.9367 124.525 76.2083 123.118 74.5385C122.093 73.3206 121.017 72.1476 120.133 70.8159C119.719 70.188 119.402 69.5187 119.274 68.777C119.185 68.2491 119.109 67.6833 119.647 67.3314C120.158 67.0002 120.692 67.1555 121.148 67.4522C121.624 67.7627 122.083 68.118 122.486 68.5182C123.866 69.8775 125.053 71.4024 126.14 73.0067C127.948 75.677 129.259 78.5991 130.435 81.5868C131.391 84.0156 132.381 86.4306 133.368 88.8491C134.523 91.685 136.255 94.1241 138.456 96.2459C140.002 97.7397 141.644 99.1163 143.393 100.358C146.25 102.387 149.051 104.488 151.725 106.755C154.071 108.745 156.469 110.674 158.667 112.84C159.967 114.124 161.416 115.242 162.951 116.239C163.134 116.356 163.331 116.453 163.521 116.556C163.559 116.518 163.6 116.48 163.638 116.446C163.486 116.128 163.365 115.797 163.183 115.5C162.572 114.507 161.982 113.496 161.309 112.544C159.294 109.68 157.259 106.827 155.206 103.991C149.872 96.6357 144.639 89.2079 139.502 81.7145C139.105 81.1383 138.694 80.5656 138.349 79.9584C136.735 77.1156 135.075 74.297 133.557 71.4059C132.384 69.1737 131.387 66.8484 130.325 64.5542C129.048 61.7942 127.358 59.3102 125.322 57.0642C123.839 55.4255 122.021 54.3491 119.806 54.011C119.664 53.9903 119.519 53.9903 119.316 53.9765L119.323 53.9627ZM51.1438 181.847C51.0645 181.371 50.9748 180.94 50.9299 180.505C50.8989 180.191 50.9713 179.867 50.9299 179.553C50.7229 178.052 50.7954 176.545 50.8195 175.037C50.8402 173.964 51.0438 172.932 51.4129 171.925C51.582 171.47 51.7372 171 51.8235 170.524C52.0477 169.293 52.234 168.058 52.4203 166.819C52.5307 166.084 52.5859 165.342 52.7032 164.608C53.3587 160.544 54.0211 156.479 54.6939 152.419C54.9043 151.135 55.2217 149.886 55.8151 148.717C56.2188 147.92 56.788 147.282 57.547 146.809C57.7989 146.654 58.0576 146.581 58.3267 146.723C58.6062 146.871 58.6614 147.133 58.651 147.43C58.6269 148.151 58.6096 148.872 58.5993 149.593C58.5372 153.664 57.7126 157.552 55.8703 161.206C55.5564 161.83 55.2528 162.469 55.0389 163.131C54.3696 165.191 53.7244 167.257 53.4726 169.42C53.4243 169.841 53.3173 170.255 53.2276 170.669C52.9965 171.746 52.7308 172.819 52.5376 173.902C52.2961 175.258 52.0374 176.621 52.1443 178.011C52.2064 178.835 52.2409 179.667 52.341 180.484C52.479 181.613 52.648 181.689 53.6037 181.575C55.8151 181.316 58.0266 181.04 60.2346 180.736C62.6737 180.398 64.9197 179.415 67.207 178.57C68.2282 178.19 68.5801 177.39 68.5732 176.424C68.5629 174.896 68.4214 173.374 67.8556 171.925C66.8413 169.331 66.0858 166.65 65.4855 163.935C64.8472 161.047 63.7743 158.342 62.3632 155.755C61.9182 154.934 61.4731 154.113 61.0764 153.267C59.8413 150.635 59.0719 147.882 58.6993 144.984C58.2991 141.872 57.6816 138.788 57.1606 135.69C57.033 134.927 56.9122 134.161 56.7673 133.257C56.1429 134.217 55.339 134.617 54.3558 134.665C53.3415 134.713 52.4755 134.399 51.9339 133.575C50.2675 133.882 48.8392 133.533 47.511 132.543C47.3488 132.995 47.2074 133.389 47.0659 133.785C46.476 135.424 45.8757 137.056 45.5341 138.771C45.1063 140.913 44.6302 143.049 44.2093 145.194C43.5331 148.631 42.8707 152.067 41.9151 155.444C41.0077 158.649 40.197 161.882 39.3241 165.097C38.4996 168.13 37.6267 171.149 36.3157 174.016C35.9086 174.906 35.4601 175.765 34.8736 176.558C34.5735 176.965 34.3423 177.424 34.0974 177.873C34.0215 178.011 34.0111 178.183 33.9732 178.335C35.4636 179.387 37.0954 179.981 38.8549 180.471C38.8032 180.005 38.7342 179.629 38.7238 179.256C38.6479 176.783 38.8204 174.333 39.4656 171.935C39.7968 170.707 40.1832 169.493 40.5592 168.275C40.9422 167.04 41.2975 165.794 41.7426 164.58C42.2463 163.207 42.8328 161.861 43.3848 160.506C44.2921 158.287 45.2202 156.076 46.1034 153.847C47.0866 151.36 48.0181 148.851 49.0048 146.367C49.374 145.443 49.8052 144.539 50.2675 143.656C50.5401 143.135 50.8954 142.652 51.2646 142.19C51.5095 141.879 51.8683 141.696 52.2858 141.858C52.6825 142.014 52.7412 142.383 52.7722 142.752C52.7791 142.838 52.786 142.921 52.7929 143.007C52.9585 144.946 52.8067 146.875 52.4203 148.772C51.5475 153.054 49.8604 156.99 47.2281 160.492C46.1965 161.865 45.127 163.214 44.0541 164.556C43.1985 165.629 42.5085 166.785 42.0945 168.102C41.6322 169.579 41.1423 171.052 40.6972 172.536C40.0383 174.733 39.7243 176.972 40.0038 179.267C40.0486 179.646 40.1314 180.019 40.2108 180.391C40.2901 180.754 40.5144 180.981 40.8835 181.078C41.5183 181.243 42.1428 181.471 42.7879 181.589C44.9062 181.978 47.0487 182.037 49.1946 181.989C49.8432 181.975 50.4883 181.899 51.1542 181.851L51.1438 181.847ZM165.015 139.55C165.318 139.764 165.342 140.044 165.339 140.32C165.335 140.785 165.339 141.255 165.294 141.72C165.159 143.073 164.98 144.418 164.852 145.771C164.535 149.131 164.128 152.481 163.559 155.81C163.162 158.135 162.893 160.485 162.958 162.845C163.01 164.815 162.793 166.733 162.365 168.651C162.006 170.266 161.761 171.904 161.471 173.533C161.433 173.74 161.416 173.954 161.413 174.168C161.406 174.464 161.561 174.661 161.854 174.695C162.613 174.785 163.369 174.889 164.131 174.927C165.401 174.992 166.677 175.013 167.95 175.051C168.333 175.061 168.716 175.085 169.096 175.071C169.744 175.054 169.838 174.961 169.845 174.33C169.848 173.885 169.831 173.44 169.803 172.995C169.751 172.211 169.662 171.428 169.617 170.645C169.534 169.22 169.306 167.816 168.944 166.44C168.254 163.835 168.019 161.189 168.044 158.494C168.064 156.055 168.013 153.609 167.854 151.177C167.609 147.358 167.474 143.545 167.674 139.723C167.692 139.385 167.726 139.043 167.785 138.712C167.926 137.915 168.578 137.67 169.172 138.219C169.444 138.47 169.658 138.809 169.831 139.143C170.307 140.064 170.49 141.075 170.576 142.089C170.766 144.394 170.9 146.706 171.083 149.01C171.173 150.152 171.287 151.294 171.463 152.422C171.652 153.637 171.959 154.834 172.159 156.048C172.429 157.677 172.991 159.195 173.691 160.685C174.771 162.979 175.592 165.363 175.892 167.902C175.989 168.723 176.099 169.545 176.241 170.359C176.42 171.39 176.52 172.418 176.379 173.464C176.334 173.791 176.341 174.126 176.32 174.526C178.528 174.216 180.591 173.712 182.578 172.86C182.561 172.688 182.568 172.556 182.53 172.443C182.223 171.539 181.982 170.604 181.578 169.748C180.429 167.309 179.194 164.911 178.028 162.482C177.545 161.472 177.041 160.443 176.745 159.37C176.227 157.511 175.803 155.624 175.447 153.726C174.716 149.849 174.623 145.919 174.688 141.986C174.747 138.495 174.267 135.086 173.27 131.746C173.229 131.612 173.157 131.488 173.136 131.443C172.515 131.367 171.98 131.301 171.438 131.236C170.824 132.264 170.024 132.719 168.992 132.505C168.551 132.416 168.116 132.191 167.737 131.94C167.167 131.56 167.188 130.884 167.098 130.259C165.411 130.253 163.959 129.945 163.786 127.924C163.148 127.789 163.134 127.782 162.92 128.276C162.541 129.152 162.161 130.028 161.816 130.918C160.909 133.254 160.047 135.617 159.574 138.081C159.081 140.647 158.991 143.266 158.867 145.874C158.784 147.572 158.784 149.272 158.673 150.966C158.446 154.572 157.535 158.042 156.507 161.485C156.258 162.317 155.92 163.124 155.61 163.935C155.023 165.46 154.416 166.978 153.833 168.503C153.222 170.107 152.632 171.721 152.036 173.333C152.025 173.364 152.053 173.412 152.07 173.481C154.689 174.171 157.314 174.899 160.116 174.916C160.15 174.24 160.164 173.609 160.212 172.977C160.329 171.487 160.768 170.062 161.137 168.623C161.699 166.422 161.885 164.194 161.723 161.93C161.703 161.637 161.696 161.334 161.74 161.044C162.268 157.58 162.606 154.095 162.882 150.604C162.955 149.676 163.072 148.745 163.269 147.834C163.572 146.419 163.779 145.001 163.879 143.556C163.948 142.524 164.173 141.503 164.345 140.478C164.411 140.085 164.632 139.781 165.015 139.557V139.55ZM127.741 158.577C127.903 158.36 128.013 158.232 128.1 158.091C128.893 156.759 129.735 155.455 130.459 154.089C132.315 150.604 133.502 146.857 134.561 143.073C135.334 140.316 135.648 137.494 135.631 134.634C135.61 131.105 134.668 127.803 133.099 124.664C132.65 123.767 132.095 122.939 131.36 122.245C130.518 121.452 129.552 120.92 128.376 120.817C127.365 120.731 126.381 120.803 125.44 121.203C124.777 121.486 124.087 121.728 123.463 122.083C122.897 122.404 122.321 122.773 121.893 123.252C121.131 124.101 120.399 124.998 119.788 125.961C117.753 129.166 116.866 132.668 117.318 136.466C117.574 138.602 118.143 140.668 118.747 142.728C120.43 148.455 123.149 153.612 127.22 158.018C127.375 158.187 127.537 158.353 127.744 158.574L127.741 158.577ZM115.797 134.175C115.738 134.334 115.676 134.489 115.628 134.648C114.541 138.129 113.044 141.427 111.239 144.591C109.035 148.458 106.43 152.046 103.515 155.403C103.235 155.727 103.142 156.003 103.287 156.428C103.849 158.073 104.367 159.736 104.916 161.389C106.302 165.584 108.462 169.42 110.515 173.305C110.743 173.736 111.126 173.836 111.508 173.971C111.64 173.885 111.747 173.819 111.85 173.743C113.509 172.56 115.186 171.401 116.825 170.186C118.101 169.241 119.416 168.316 120.565 167.226C122.804 165.108 124.794 162.755 126.619 160.268C126.754 160.085 126.864 159.888 127.009 159.664C123.708 156.176 121.044 152.312 119.257 147.889C117.477 143.483 116.059 138.981 115.8 134.172L115.797 134.175ZM102.683 154.389C102.901 154.151 103.046 154.002 103.18 153.844C104.864 151.846 106.444 149.769 107.889 147.596C110.463 143.728 112.612 139.647 114.096 135.231C115.355 131.481 116.087 127.644 115.956 123.67C115.89 121.71 115.597 119.785 115.01 117.912C114.907 117.577 114.748 117.225 114.517 116.97C113.758 116.142 112.826 115.58 111.753 115.221C110.146 114.683 108.724 114.928 107.42 116.042C106.285 117.011 105.392 118.153 104.733 119.475C103.242 122.466 101.938 125.519 101.503 128.879C101.3 130.456 100.934 132.015 100.786 133.596C100.241 139.45 100.834 145.25 101.807 151.018C101.993 152.122 102.256 153.212 102.683 154.396V154.389ZM98.3847 67.3866C98.3502 67.3659 98.3157 67.3487 98.2812 67.328C97.6429 68.2491 96.9771 69.153 96.3664 70.0914C94.6759 72.6893 92.9992 75.294 91.3294 77.9022C88.4211 82.4424 85.5127 86.9792 82.6251 91.5332C81.4176 93.4376 80.493 95.4972 79.6546 97.5845C79.2993 98.4677 79.0785 99.4026 78.8094 100.317C78.7473 100.531 78.7404 100.762 78.6852 101.141C78.9784 100.945 79.1647 100.848 79.3131 100.714C79.8202 100.262 80.3619 99.8373 80.8035 99.3267C81.8868 98.0778 82.9632 96.8151 83.9671 95.5007C85.7646 93.1547 87.2584 90.6086 88.7005 88.0314C90.9292 84.0467 93.0786 80.0274 94.7863 75.7805C95.8455 73.1447 97.0288 70.5537 98.1535 67.9455C98.2329 67.7592 98.3088 67.5695 98.3847 67.3832V67.3866ZM171.176 175.144C172.36 175.02 173.515 174.902 174.675 174.775C174.968 174.744 175.03 174.526 175.054 174.271C175.199 172.874 175.22 171.487 174.916 170.097C174.699 169.086 174.688 168.027 174.485 167.012C174.071 164.946 173.377 162.969 172.494 161.051C172.035 160.05 171.559 159.036 171.3 157.977C170.814 155.979 170.407 153.957 170.107 151.922C169.869 150.311 169.855 148.669 169.717 147.04C169.558 145.16 169.379 143.28 169.199 141.403C169.179 141.182 169.099 140.968 169.044 140.751C168.937 140.892 168.92 141.017 168.91 141.141C168.709 143.942 168.851 146.744 169.034 149.535C169.248 152.778 169.375 156.017 169.32 159.267C169.286 161.206 169.444 163.128 169.927 165.011C170.514 167.302 170.9 169.617 170.99 171.98C171.028 172.991 171.107 174.002 171.176 175.144ZM51.5958 144.294C51.5337 144.266 51.4681 144.235 51.406 144.208C51.2956 144.429 51.1783 144.649 51.0714 144.874C49.6224 147.948 48.4666 151.142 47.2798 154.323C46.8865 155.375 46.4829 156.428 46.0551 157.466C45.4651 158.898 44.8441 160.319 44.2404 161.744C44.161 161.93 44.1024 162.127 44.0334 162.317C48.6391 157.162 51.4302 151.27 51.5958 144.294ZM53.1379 74.1831C53.1759 74.19 53.2104 74.2004 53.2483 74.2073C53.3104 74.0589 53.3725 73.9106 53.4312 73.7588C53.8107 72.7479 54.1695 71.7302 54.5731 70.7297C55.3149 68.8805 55.9807 67.0037 56.4051 65.051C56.7121 63.633 56.8122 62.2013 56.619 60.7557C56.5879 60.5211 56.4913 60.2934 56.3775 59.9036C56.1222 60.2451 55.9083 60.4349 55.8151 60.6695C55.4839 61.494 55.0906 62.3082 54.9112 63.1673C54.373 65.7582 53.8969 68.363 53.4519 70.9712C53.2725 72.0269 53.2414 73.1102 53.1414 74.1797L53.1379 74.1831ZM60.5106 118.388C60.5485 118.419 60.583 118.45 60.621 118.481C60.759 118.436 60.9004 118.398 61.0315 118.343C64.4815 116.87 66.8137 114.293 68.3455 110.929C68.3731 110.867 68.349 110.781 68.349 110.615C68.0074 110.795 67.7245 110.926 67.4554 111.088C66.2514 111.826 65.2405 112.785 64.2918 113.82C63.6639 114.507 63.0084 115.173 62.3977 115.876C61.8423 116.515 61.3248 117.184 60.8004 117.846C60.6762 118.005 60.6037 118.205 60.5071 118.385L60.5106 118.388ZM99.1851 52.9449C98.7883 52.7448 98.7435 52.3929 98.7055 51.9893C98.6538 51.4062 98.5503 50.8163 98.3709 50.2608C98.2225 49.802 97.7637 49.7261 97.398 50.04C97.2427 50.1746 97.1116 50.354 97.0116 50.5334C96.6424 51.1854 96.6459 51.8651 96.9219 52.5516C97.0081 52.7655 97.1254 52.9725 97.191 53.1933C97.3324 53.6763 97.0737 54.0317 96.57 54.0696C96.4009 54.0834 96.2319 54.0524 96.0628 54.0627C95.5212 54.1041 95.0727 54.4836 95.0244 55.008C94.9588 55.7049 95.1382 56.112 95.9973 55.9568C96.2836 55.905 96.3561 55.7153 96.4596 55.5014C96.8287 54.7286 97.3876 54.5181 98.1777 54.8355C98.3502 54.9045 98.5158 54.9839 98.7193 55.0736C98.7435 54.6941 98.7297 54.3525 98.7987 54.0317C98.8746 53.6867 99.0367 53.3589 99.1885 52.9449H99.1851ZM54.8008 160.13C54.8526 160.136 54.9009 160.14 54.9526 160.147C56.6914 156.621 57.3469 152.867 57.2469 148.941C57.0675 149.107 56.9226 149.29 56.8536 149.5C56.5741 150.342 56.2291 151.177 56.0739 152.043C55.7185 154.002 55.4667 155.979 55.1665 157.946C55.0561 158.674 54.925 159.402 54.8043 160.13H54.8008ZM161.765 66.1032C161.713 66.2067 161.682 66.2412 161.682 66.2792C161.685 66.4068 161.682 66.5345 161.713 66.6587C162.52 69.95 163.331 73.2378 164.142 76.5291C164.145 76.5464 164.169 76.5671 164.187 76.5705C164.204 76.574 164.228 76.5602 164.259 76.5533C164.273 76.5015 164.304 76.4463 164.307 76.3877C164.445 73.6518 164.162 70.9712 163.314 68.3561C163.089 67.6626 162.769 67.0209 162.241 66.5034C162.096 66.362 161.93 66.2447 161.765 66.1067V66.1032ZM106.596 51.6029C105.499 50.9439 105.367 50.7714 105.071 49.5467C104.957 49.0809 104.764 48.6635 104.401 48.3461C104.17 48.146 103.894 47.9769 103.591 48.1115C103.263 48.2564 103.153 48.5841 103.197 48.9119C103.26 49.3638 103.38 49.8089 103.47 50.2229C103.749 50.2746 103.946 50.285 104.119 50.354C104.329 50.4402 104.553 50.5437 104.715 50.6955C105.04 50.9957 105.109 51.389 104.974 51.8064C104.847 52.1963 104.508 52.4378 104.039 52.4309C103.691 52.424 103.342 52.3412 102.997 52.2963C102.701 53.1623 103.439 54.1352 104.332 54.1628C104.536 53.6591 104.688 53.1519 104.94 52.6931C105.243 52.1411 105.833 52.2342 106.375 52.2342C106.451 52.0169 106.52 51.8202 106.596 51.5994V51.6029ZM120.585 68.6666C120.651 69.1565 120.827 69.5601 121.086 69.912C121.831 70.9125 122.58 71.9096 123.37 72.879C124.318 74.0417 125.312 75.1733 126.281 76.3221C126.519 76.605 126.744 76.9017 127.061 77.2985C126.368 75.0111 122.152 69.4083 120.589 68.6735L120.585 68.6666ZM47.5351 129.932C47.3902 130.408 47.5558 130.815 47.8905 131.184C48.684 132.053 49.7086 132.385 50.8437 132.464C51.1369 132.485 51.2991 132.34 51.3025 132.067C51.3129 131.532 51.4129 130.956 50.8092 130.618C50.6884 130.549 50.5953 130.411 50.5159 130.29C50.3676 130.066 50.1778 130.039 49.9191 130.039C49.1428 130.032 48.3666 129.973 47.5351 129.935V129.932ZM114.962 54.4905C115.103 53.3106 115.493 52.7345 116.487 52.1687C116.884 51.941 116.949 51.7098 116.725 51.2958C116.621 51.1026 116.476 50.8991 116.242 50.9784C116.09 51.0267 115.949 51.1958 115.869 51.3441C115.559 51.9203 115.29 52.5137 114.979 53.0898C114.665 53.6694 114.168 53.8557 113.53 53.7074C113.247 53.6418 112.964 53.6004 112.702 53.5521C112.171 54.5354 112.126 55.7153 112.595 56.3121C113.223 55.5014 113.882 54.7286 114.962 54.4905ZM47.0073 125.567C46.9038 125.588 46.8244 125.602 46.7485 125.623C45.4755 125.981 44.7027 125.464 44.5371 124.143C44.5129 123.946 44.4853 123.753 44.4508 123.48C43.8574 123.942 43.5021 124.453 43.3606 125.088C43.2295 125.661 43.3606 126.185 43.7919 126.602C44.2749 127.072 45.6169 127.148 46.1793 126.751C46.3518 126.63 46.5001 126.461 46.6864 126.375C47.0659 126.206 47.0728 125.93 47.0038 125.567H47.0073ZM101.072 58.6961C99.7888 58.9997 99.4611 59.3205 99.4852 60.3452C99.5163 61.7045 99.9751 61.946 101.207 61.9632C101.545 61.9667 101.811 61.8011 102.018 61.5354C102.266 61.2146 102.269 61.0869 101.976 60.7799C101.586 60.3728 101.314 59.9105 101.196 59.3585C101.152 59.1549 101.121 58.9479 101.076 58.6926L101.072 58.6961ZM103.342 62.736C103.142 63.6123 103.642 64.7543 104.412 65.1165C105.012 65.3994 105.599 65.2338 106.089 64.8647C106.523 64.5335 106.644 64.0401 106.499 63.533C105.433 63.2639 104.408 63.0051 103.342 62.736ZM107.779 63.5399C108.317 64.3092 109.059 64.6887 109.939 64.8198C110.035 64.8336 110.153 64.7991 110.246 64.7543C110.846 64.4472 111.112 63.9159 111.205 63.2777C111.284 62.7291 110.832 62.5773 110.491 62.3462C110.46 62.3255 110.411 62.3324 110.301 62.3151C109.645 62.9913 108.79 63.3605 107.782 63.5364L107.779 63.5399ZM54.9837 128.189C55.339 128.327 55.6185 128.424 55.8841 128.545C56.1739 128.676 56.4465 128.848 56.7397 128.966C57.033 129.08 57.3435 129.169 57.6505 129.231C57.9852 129.297 58.2163 129.135 58.3543 128.821C58.582 128.303 58.3888 127.71 57.8265 127.427C57.4711 127.248 57.0709 127.154 56.6811 127.061C56.1843 126.941 55.7634 127.044 55.4908 127.537C55.3701 127.755 55.1838 127.938 54.9837 128.189ZM116.37 56.5295C115.855 57.737 114.962 58.3407 113.713 58.3925C113.627 58.6305 113.644 58.7961 113.868 58.8893C114.22 59.0342 114.565 59.1929 114.924 59.3136C115.707 59.5827 116.432 59.2757 116.846 58.5167C117.28 57.7128 117.17 57.1815 116.37 56.5295ZM103.812 60.4211C105.064 60.9179 106.061 60.4349 106.313 59.2343C106.354 59.0342 106.32 58.7478 106.202 58.596C105.847 58.151 105.002 58.1372 104.608 58.5581C104.119 59.0825 103.922 59.7414 103.815 60.4245L103.812 60.4211ZM112.419 59.0135C112.361 58.7168 112.309 58.358 112.212 58.013C112.178 57.8888 112.06 57.7473 111.943 57.6921C111.553 57.5058 110.577 57.9233 110.401 58.3304C110.108 59.0135 110.601 60.0554 111.312 60.252C111.878 60.4073 112.205 60.2141 112.333 59.6414C112.374 59.4551 112.388 59.2653 112.419 59.0135ZM111.553 61.6389C112.212 62.0805 112.768 62.4152 113.399 62.6153C113.71 62.7119 113.982 62.636 114.227 62.429C114.613 62.1047 114.831 61.701 114.693 61.1939C114.541 60.6384 114.251 60.1934 113.63 60.0795C113.156 60.9167 112.464 61.4365 111.553 61.6389ZM106.741 61.77C106.91 62.0598 107.082 62.3324 107.434 62.2703C107.931 62.1806 108.441 62.0943 108.897 61.8942C109.204 61.7597 109.473 61.4595 109.673 61.1766C109.908 60.8489 109.79 60.5832 109.418 60.4107C109.014 60.2244 108.597 60.2106 108.179 60.3693C107.513 60.6212 107.01 61.0455 106.741 61.7735V61.77ZM102.124 50.3057C101.51 50.1815 100.941 50.2229 100.562 50.8059C100.224 51.3234 100.034 51.8927 99.9924 52.5033C100.544 52.6862 101.069 52.8587 101.628 53.045C101.61 52.3515 101.779 51.7581 102.152 51.2165C102.352 50.9267 102.287 50.6162 102.124 50.3022V50.3057ZM50.9506 125.423C51.2749 125.792 51.5509 126.109 51.8304 126.42C52.027 126.637 52.2168 126.872 52.441 127.058C52.9206 127.455 53.8176 127.479 54.204 127.106C54.5214 126.799 54.7318 126.423 54.8457 125.947C53.6658 126.057 52.5514 126.057 51.7234 125.126C51.4405 125.233 51.2059 125.322 50.9506 125.423ZM111.788 51.834C112.133 51.8064 112.461 51.7892 112.616 51.4338C112.795 51.0233 112.985 50.5886 112.688 50.1677C112.578 50.0124 112.368 49.8813 112.181 49.833C111.319 49.6191 110.753 49.94 110.377 50.8197C110.218 51.1923 110.256 51.3786 110.632 51.527C111.001 51.6719 111.402 51.734 111.791 51.834H111.788ZM165.07 120.886C164.804 121.145 164.528 121.372 164.307 121.641C163.793 122.269 163.938 122.99 164.638 123.401C164.956 123.587 165.411 123.518 165.615 123.263C165.898 122.911 166.184 122.559 166.453 122.224C166.056 121.838 165.604 121.403 165.07 120.886ZM115.945 54.839C116.138 55.3013 116.559 55.4393 116.925 55.6394C117.301 55.8429 117.612 55.7705 117.867 55.4289C118.205 54.9804 118.302 54.4595 118.212 53.9213C118.108 53.3003 117.674 53.1278 117.146 53.4831C116.628 53.8316 116.269 54.3284 115.949 54.8355L115.945 54.839ZM109.559 52.1066C109.57 51.5063 109.021 51.144 108.407 51.3441C107.789 51.5442 107.265 52.493 107.41 53.1416C107.489 53.4969 107.786 53.7039 108.162 53.666C108.711 53.6108 109.549 52.6724 109.559 52.11V52.1066ZM109.625 50.4816C109.746 50.2056 109.856 49.9296 109.987 49.6674C110.118 49.4121 110.056 49.2155 109.846 49.0568C109.473 48.7739 109.111 48.4806 108.717 48.2322C108.548 48.1253 108.317 48.0942 108.11 48.0804C107.789 48.0597 107.644 48.215 107.655 48.5427C107.662 48.6842 107.703 48.836 107.765 48.9671C107.962 49.388 108.176 49.7985 108.393 50.2298C108.786 50.3091 109.194 50.3954 109.625 50.4816ZM111.643 52.7931C111.215 52.6896 110.836 52.5965 110.453 52.5068C109.98 53.2968 110.577 54.2732 109.894 54.9356C110.059 55.3358 110.211 55.7015 110.384 56.1155C110.594 56.0948 110.812 56.0741 111.084 56.0465C110.981 54.8907 111.157 53.8385 111.64 52.7897L111.643 52.7931ZM171.639 121.914C172.042 122.069 172.146 121.838 172.294 121.617C172.536 121.251 172.794 120.893 173.084 120.565C173.422 120.185 173.429 119.478 173.053 119.133C172.656 118.767 172.039 118.84 171.68 119.292C171.566 119.437 171.452 119.585 171.335 119.744C171.835 120.413 172.032 121.117 171.642 121.917L171.639 121.914ZM171.045 125.543C171.159 125.992 171.225 126.413 171.38 126.792C171.494 127.072 171.694 127.348 171.925 127.544C172.501 128.041 173.046 127.855 173.263 127.123C173.37 126.768 173.291 126.458 173.056 126.178C172.542 125.567 171.877 125.429 171.045 125.54V125.543ZM113.292 52.3446C113.806 52.5482 113.817 52.5585 114.017 52.3895C114.886 51.6581 115.393 50.2367 114.055 49.2534C113.886 49.1292 113.703 49.0188 113.513 48.9257C113.247 48.7946 112.968 48.7704 112.64 48.8636C113.982 49.8813 114.127 50.6645 113.292 52.3446ZM58.8822 124.753C58.72 125.336 58.5613 125.899 58.413 126.426C58.6648 126.706 58.9167 126.937 59.103 127.213C59.2927 127.499 59.4135 127.827 59.5722 128.151C60.2208 127.32 60.1897 125.654 59.5411 124.94C59.3721 124.753 59.1892 124.643 58.8787 124.757L58.8822 124.753ZM53.6934 120.855C54.304 121.207 54.7594 121.138 55.2148 120.568C55.3321 120.423 55.4356 120.254 55.5046 120.082C55.7461 119.475 55.4563 118.974 54.8077 118.874C54.6214 118.847 54.4282 118.847 54.2419 118.864C53.8659 118.902 53.7865 119.006 53.7693 119.395C53.7451 119.871 53.721 120.351 53.6968 120.855H53.6934ZM54.7663 130.687C55.3908 131.015 56.0014 131.339 56.619 131.65C56.7673 131.722 56.9433 131.75 57.1089 131.777C57.3228 131.812 57.4746 131.712 57.5643 131.515C57.8058 131.012 57.5781 130.439 57.0399 130.301C56.3671 130.132 55.684 130.011 54.963 129.863C54.9009 130.125 54.8457 130.363 54.7663 130.687ZM52.9102 131.867C52.8723 132.561 52.9654 132.902 53.2414 133.137C53.721 133.544 54.9181 133.502 55.3839 133.061C55.6081 132.85 55.6288 132.654 55.3942 132.474C54.6525 131.915 53.821 131.715 52.9102 131.864V131.867ZM52.6722 122.894C52.6894 123.18 52.7101 123.449 52.7239 123.722C52.7653 124.463 52.8826 124.601 53.6037 124.705C53.7934 124.733 53.9832 124.746 54.1729 124.739C54.5628 124.722 54.7146 124.55 54.6456 124.163C54.5524 123.639 54.2764 123.221 53.8245 122.928C53.4553 122.69 53.0827 122.669 52.6722 122.894ZM173.315 124.574C173.853 124.646 174.202 124.522 174.392 124.094C174.63 123.563 174.744 122.997 174.657 122.421C174.623 122.19 174.45 121.973 174.309 121.766C174.261 121.693 174.126 121.641 174.033 121.641C173.643 121.641 173.16 122.424 173.343 122.783C173.571 123.228 173.602 123.67 173.446 124.136C173.408 124.253 173.374 124.374 173.315 124.57V124.574ZM170.255 129.901C169.569 129.959 168.91 130.014 168.244 130.07C168.168 130.497 168.13 130.901 168.547 131.153C168.982 131.419 169.451 131.484 169.938 131.274C170.721 130.932 170.807 130.518 170.259 129.897L170.255 129.901ZM51.2991 129.725C51.4336 130.139 51.7062 130.311 52.1581 130.263C52.5135 130.225 52.8757 130.263 53.2345 130.242C53.6934 130.218 53.8279 129.997 53.6692 129.573C53.4864 129.09 52.6377 128.61 52.1581 128.731C52.0684 128.755 51.9787 128.835 51.9166 128.91C51.7062 129.169 51.5095 129.442 51.2991 129.721V129.725ZM55.6012 122.173C55.8358 122.738 56.0359 123.263 56.274 123.77C56.3809 123.994 56.9502 124.07 57.2676 123.953C57.5608 123.846 57.6057 123.604 57.6057 123.339C57.6126 122.414 56.6673 121.8 55.6012 122.169V122.173ZM48.2148 124.246C49.0048 124.246 49.7431 124.256 50.478 124.239C50.6608 124.236 50.8575 124.181 51.0231 124.094C51.3232 123.939 51.4164 123.587 51.2577 123.342C51.0265 122.98 50.4642 122.876 50.0812 123.087C49.7328 123.28 49.3705 123.453 48.9979 123.587C48.6633 123.704 48.3942 123.867 48.2113 124.246H48.2148ZM171.511 128.693C171.356 129.242 171.545 129.638 172.077 129.97C172.504 130.239 172.987 130.139 173.508 129.68C173.936 129.3 174.047 128.838 173.812 128.341C173.139 129.045 172.36 129.142 171.514 128.693H171.511ZM168.037 127.448C168.006 128.176 168.202 128.569 168.63 128.707C169.165 128.883 169.751 128.741 170.048 128.307C170.566 127.558 170.628 127.482 170.227 127.127C169.586 127.651 168.841 127.634 168.037 127.444V127.448ZM167.302 125.571C166.881 125.485 166.567 125.474 166.312 125.35C166.039 125.219 165.822 124.977 165.567 124.774C165.446 124.874 165.322 124.953 165.218 125.057C164.694 125.595 164.866 126.261 165.594 126.454C166.167 126.606 166.688 126.437 167.122 126.061C167.233 125.964 167.24 125.747 167.298 125.571H167.302ZM162.948 121.245C162.917 121.21 162.869 121.138 162.803 121.086C162.389 120.765 161.854 120.679 161.565 120.886C161.289 121.082 161.247 121.61 161.471 122.131C161.727 122.725 162.037 122.87 162.644 122.707C162.744 122.224 162.844 121.752 162.948 121.245ZM51.4578 121.838C51.7269 121.317 51.9891 120.862 52.1995 120.386C52.4031 119.927 52.1685 119.361 51.7338 119.137C51.2853 118.905 50.9748 119.075 50.9679 119.568C50.9679 119.754 51.0024 119.947 51.0576 120.123C51.2197 120.648 51.2715 121.155 50.8782 121.652C51.0748 121.714 51.2301 121.766 51.4578 121.835V121.838ZM173.405 78.5163C172.846 79.2305 173.246 79.7825 173.564 80.3207C173.788 80.7036 174.119 80.7968 174.416 80.6381C174.726 80.4725 174.857 80.0757 174.678 79.6962C174.419 79.1477 174.019 78.7337 173.405 78.5129V78.5163ZM46.6381 120.106C46.2379 120.572 46.1793 120.993 46.2862 121.445C46.338 121.669 46.4277 121.89 46.4794 122.114C46.614 122.683 46.7692 122.828 47.3143 122.78C47.4765 122.766 47.7042 122.652 47.7594 122.525C47.8146 122.397 47.7214 122.176 47.6421 122.024C47.4696 121.69 47.2557 121.379 47.0763 121.048C46.9279 120.775 46.8141 120.486 46.6381 120.106ZM174.447 126.592C175.116 126.399 175.72 126.202 175.889 125.467C175.999 124.988 176.027 124.522 175.661 124.08C175.437 124.432 175.275 124.784 175.026 125.05C174.778 125.319 174.44 125.502 174.133 125.73C174.233 126.006 174.333 126.278 174.447 126.592ZM166.636 127.731H164.997C164.959 128.797 165.987 129.383 166.967 128.89C166.857 128.503 166.746 128.12 166.636 127.731ZM163.952 124.508C163.6 124.025 163.4 124.174 163.1 124.415C163.034 124.467 162.969 124.522 162.907 124.577C162.472 124.957 162.399 125.174 162.555 125.612C162.741 126.137 163.252 126.54 163.724 126.533C163.628 125.772 163.705 125.097 163.955 124.508H163.952ZM168.233 125.564C168.233 125.564 168.264 125.567 168.282 125.571C168.282 125.674 168.275 125.781 168.282 125.885C168.327 126.368 168.513 126.506 168.985 126.416C169.468 126.326 169.869 125.581 169.679 125.115C169.651 125.043 169.589 124.974 169.524 124.926C169.317 124.781 169.106 124.643 168.889 124.515C168.658 124.377 168.475 124.446 168.402 124.701C168.327 124.981 168.285 125.274 168.226 125.561L168.233 125.564ZM98.1742 57.9371C97.9051 57.8336 97.7257 57.768 97.5532 57.7025C97.36 57.6266 97.1668 57.5472 96.9667 57.4679C96.6321 57.7197 96.4113 58.0302 96.325 58.4063C96.294 58.5408 96.3388 58.7651 96.4354 58.8513C96.808 59.1791 97.5049 59.0825 97.7913 58.6754C97.9327 58.4753 98.0224 58.2338 98.1742 57.9405V57.9371ZM100.665 56.112C101.007 55.7774 101.114 55.4151 101.165 55.0391C101.221 54.6285 101.045 54.2904 100.717 54.0489C100.344 53.7729 100.061 53.8937 100.02 54.356C99.9613 55.0253 100.296 55.5531 100.665 56.1086V56.112ZM107.413 57.9854C107.486 58.3787 107.562 58.7823 107.638 59.1963C108.141 59.1342 108.617 59.0756 109.145 59.01C109.162 58.6995 109.18 58.3925 109.194 58.1268C108.566 58.0751 107.993 58.0302 107.413 57.9854ZM168.944 116.929C169.299 117.208 169.648 117.419 169.914 117.708C170.169 117.984 170.334 118.34 170.562 118.702C170.783 118.143 170.707 117.643 170.497 117.174C170.221 116.556 169.496 116.432 168.944 116.932V116.929ZM169.458 121.697C169.782 121.672 169.996 121.676 170.2 121.641C170.655 121.565 170.838 121.383 170.821 121.058C170.804 120.699 170.503 120.365 170.152 120.31C169.851 120.265 169.641 120.372 169.575 120.668C169.51 120.972 169.503 121.286 169.458 121.693V121.697ZM49.5465 121.251C49.5465 121.048 49.5465 120.882 49.5465 120.717C49.5465 120.61 49.5396 120.503 49.5223 120.399C49.4844 120.154 49.3809 119.913 49.1187 119.899C48.9082 119.889 48.6495 119.951 48.4873 120.075C48.2769 120.237 48.2458 120.503 48.37 120.768C48.5805 121.224 48.7978 121.327 49.5499 121.251H49.5465ZM164.839 118.426C164.397 118.343 164.031 118.419 163.845 118.761C163.6 119.216 163.686 119.689 163.986 120.113C164.476 119.937 164.78 119.675 164.732 119.126C164.714 118.923 164.794 118.712 164.842 118.426H164.839ZM107.475 56.6019C107.707 56.9883 108.403 57.1988 108.776 56.9366C109.073 56.7296 109.211 56.4225 109.169 56.0603C109.128 55.7049 108.89 55.6187 108.6 55.8257C108.231 56.0913 107.851 56.3397 107.475 56.5985V56.6019ZM166.039 119.133C166.584 119.095 167.078 119.061 167.592 119.023C167.499 118.623 167.412 118.26 167.326 117.905C166.633 117.905 166.274 118.24 166.039 119.133ZM105.016 56.9331C105.568 57.047 106.064 57.1539 106.554 57.254C106.589 56.3121 105.913 56.1224 105.254 55.8636C105.171 56.2397 105.098 56.5674 105.019 56.9331H105.016ZM48.1561 128.507C48.132 128.545 48.1078 128.583 48.0802 128.624C48.2217 128.679 48.3631 128.762 48.508 128.779C48.822 128.817 49.1428 128.866 49.4533 128.831C49.8225 128.79 50.1951 128.697 50.5366 128.562C50.6712 128.51 50.7885 128.283 50.8126 128.12C50.8575 127.827 50.7436 127.562 50.4987 127.351C49.8087 128.5 49.7362 128.914 48.1527 128.51L48.1561 128.507ZM48.0768 126.723C48.2976 127.12 48.6115 127.327 49.0186 127.389C49.3878 126.885 49.3878 126.458 49.0186 126.219C48.684 126.002 48.3493 125.985 48.0768 126.72V126.723ZM167.968 116.101C167.333 115.462 166.671 115.714 166.339 116.677C166.691 116.649 167.047 116.591 167.398 116.597C167.743 116.604 167.895 116.439 167.968 116.097V116.101ZM106.22 54.9632C107.041 55.5428 107.593 55.4738 107.945 54.7976C107.572 54.6665 107.203 54.5388 106.82 54.4043C106.627 54.5837 106.447 54.7527 106.22 54.9632ZM115.086 55.736C114.413 55.9568 114.037 56.4467 113.692 57.0332C114.61 57.1988 115.276 56.5743 115.086 55.736ZM169.934 123.646C170.145 123.311 170.355 122.973 170.617 122.556H169.389C169.141 123.208 169.165 123.263 169.934 123.646ZM57.2572 120.92C57.7264 121.345 58.1404 121.721 58.5717 122.111V120.71C58.1094 120.786 57.7023 120.848 57.2572 120.92ZM46.1068 130.094C46.1586 130.066 46.2069 130.042 46.2586 130.014C46.0654 129.431 45.8722 128.848 45.6825 128.276C45.2064 128.338 45.1408 128.379 45.1857 128.693C45.2685 129.311 45.6169 129.756 46.1068 130.094ZM171.104 124.191C171.828 124.325 172.125 124.239 172.28 123.818C172.335 123.673 172.315 123.411 172.218 123.321C172.122 123.232 171.849 123.228 171.721 123.304C171.411 123.484 171.207 123.777 171.104 124.187V124.191ZM172.829 117.691C172.674 116.932 172.339 116.67 171.642 116.715C171.725 117.018 171.804 117.315 171.894 117.643C172.197 117.66 172.484 117.674 172.829 117.691ZM45.6997 123.639C45.6135 124.212 45.6928 124.481 45.9447 124.574C46.2414 124.681 46.5898 124.436 46.8313 123.925C46.4484 123.829 46.0792 123.735 45.6997 123.642V123.639ZM102.766 57.116C102.814 57.1539 102.866 57.1884 102.915 57.2264C103.48 57.1367 103.743 56.7192 103.915 56.2259C103.946 56.1327 103.901 55.943 103.832 55.905C103.756 55.8636 103.556 55.905 103.504 55.974C103.242 56.3432 103.011 56.733 102.77 57.1125L102.766 57.116ZM166.46 120.389C166.715 120.827 166.988 121.076 167.402 121.079C167.523 121.079 167.733 120.975 167.747 120.889C167.771 120.758 167.706 120.551 167.605 120.468C167.285 120.206 166.919 120.248 166.457 120.389H166.46ZM45.3513 85.8648C45.0511 86.2995 45.0442 86.6583 45.1546 87.0206C45.2133 87.2172 45.3823 87.3276 45.5997 87.2414C45.7756 87.1724 45.8688 87.0344 45.7894 86.8412C45.6652 86.5445 45.5272 86.2512 45.3513 85.8648ZM167.657 123.553C167.34 123.366 167.064 123.242 166.802 123.48C166.574 123.691 166.57 123.949 166.798 124.212C167.188 124.153 167.44 123.939 167.657 123.553ZM56.3568 125.354C56.6845 125.526 57.3745 125.612 57.5539 125.488C57.6126 125.45 57.6091 125.319 57.6747 125.091C57.1951 125.298 56.7604 125.046 56.3533 125.354H56.3568ZM102.552 59.4413C102.601 59.4447 102.645 59.4482 102.694 59.4551C102.794 59.1929 102.89 58.9341 103.011 58.6202C102.849 58.596 102.749 58.565 102.656 58.5719C102.58 58.5753 102.504 58.6202 102.373 58.6685C102.435 58.941 102.494 59.1929 102.552 59.4447V59.4413ZM102.432 55.1357C102.863 54.8045 102.859 54.7941 102.366 54.5699C102.387 54.7631 102.407 54.9356 102.432 55.1357ZM98.0914 56.5433C98.1225 56.4915 98.157 56.4363 98.188 56.3846C98.0224 56.2742 97.9362 56.0051 97.5084 56.181C97.7568 56.3363 97.9258 56.4398 98.0914 56.5433ZM58.8615 123.083C58.7994 123.277 58.7166 123.477 59.0547 123.666C58.965 123.394 58.9132 123.239 58.8615 123.083ZM109.476 54.3284C109.442 54.2801 109.407 54.2283 109.376 54.18C109.266 54.2697 109.159 54.3594 109.049 54.4491C109.073 54.4836 109.1 54.5147 109.125 54.5492C109.242 54.4767 109.359 54.4043 109.476 54.3284ZM168.875 118.357C168.827 118.398 168.782 118.443 168.734 118.485C168.854 118.623 168.975 118.757 169.096 118.895C169.141 118.857 169.182 118.819 169.227 118.781C169.11 118.64 168.992 118.498 168.875 118.357Z" fill="#47567B"/>
</g>
<rect x="2" y="1.5" width="200" height="200" rx="100" stroke="#CCD7E6" stroke-width="3"/>
<defs>
<clipPath id="clip0_716_140057">
<rect x="0.5" width="203" height="203" rx="101.5" fill="white"/>
</clipPath>
</defs>
</svg>
