<svg width="203" height="203" viewBox="0 0 203 203" fill="none" xmlns="http://www.w3.org/2000/svg">
<g clip-path="url(#clip0_1972_83635)">
<rect width="203" height="203" rx="101.5" fill="white"/>
<path d="M100.578 40.3173C99.8383 33.0528 98.8291 25.3141 94.1876 19.3764C90.6293 14.8219 83.2822 10.6982 77.7925 14.5697C72.2071 18.5021 71.0761 26.4321 72.2767 32.7048C73.6339 39.8084 77.8316 45.211 83.1517 49.9047C86.0618 52.4668 89.1286 54.8506 91.9126 57.5563C95.0968 60.6535 97.9199 64.0813 100.426 67.744C101.017 68.6053 102.005 68.3965 102.622 67.744C111.779 58.0783 118.656 46.2942 122.558 33.5618C124.49 27.2586 125.534 18.6282 119.974 13.7736C114.415 8.919 108.899 14.6741 105.124 18.9762C99.6077 25.2576 97.7764 32.6352 96.5279 40.7088H100.721C100.373 35.7237 101.087 30.682 102.605 25.9362C103.27 23.8569 104.149 22.1473 106.024 20.9163C107.899 19.6852 110.183 18.3977 112.31 18.0149C115.202 17.4929 119.927 19.881 119.87 23.3001C119.813 26.7192 115.559 30.0078 113.001 31.6043L115.755 35.7977C115.755 32.4221 117.652 29.2335 120.209 27.102L117.752 20.7118C117.177 22.7172 116.025 25.362 113.876 26.1145C113.402 26.2798 112.901 26.3364 112.423 26.1711C112.284 26.1232 111.744 25.6882 111.688 25.6969C111.248 26.6148 111.287 27.1411 111.809 27.2847C111.992 27.3456 112.084 27.189 112.084 26.8106C112.566 26.4538 112.98 25.6882 113.389 25.2402L111.714 25.6795C112.397 26.1276 112.466 26.6844 112.445 25.6926L114.041 21.4992C110.948 22.8172 107.333 23.8569 104.545 25.7666C101.665 27.7371 100.517 30.9692 100.965 34.41C101.296 36.933 102.457 38.9253 104.684 40.1824C105.545 40.6696 106.485 41.0002 107.372 41.4352C107.703 41.5962 108.099 41.8746 108.443 41.9964C109.648 42.4227 108.59 44.1758 108.477 40.3086L112.192 37.2331C111.653 36.1021 111.583 35.38 111.814 34.162L108.177 36.0804C110.47 39.9345 108.751 44.0974 104.958 46.5334C105.663 48.9564 106.368 51.3793 107.072 53.8023C109.334 49.7524 111.992 45.9984 115.02 42.4836L112.823 34.9711C108.377 41.0176 103.936 47.0598 99.4903 53.1063L102.126 53.7849C99.3772 49.4131 103.805 44.5194 106.376 41.1003H104.18C104.98 42.1747 104.945 41.9311 104.323 42.8142C103.475 44.0278 102.031 44.7978 100.604 45.0675L101.7 45.6634C100.304 44.2149 99.4033 45.1893 97.7198 45.0022C95.9276 44.8021 94.3573 43.2187 92.9653 42.2008C89.9855 40.0171 86.6447 38.2511 83.9086 35.7498C82.4818 34.4448 79.8152 31.7782 80.0806 29.6206C80.3938 27.0585 84.3653 26.0058 86.3968 26.1493C89.7289 26.3842 92.1953 29.5423 93.4742 32.3742C94.0702 33.6966 94.4617 35.1103 94.5226 36.5676C94.5748 37.8073 94.466 37.9204 93.0523 37.7769C89.8202 37.4506 88.8458 33.0746 87.2798 30.7864C85.2832 27.872 82.3556 25.6839 79.0148 24.5659C79.1888 27.2151 79.3628 29.8642 79.5325 32.5177C81.416 30.8038 84.3479 30.2253 86.7578 31.0127C87.9541 31.4042 89.059 32.1567 89.8289 33.1485C90.5989 34.1403 90.7468 34.7188 90.7381 35.3191L92.3345 31.1257C91.4863 31.713 90.6772 31.9174 89.6419 31.6434C89.2025 31.5259 88.8241 31.1475 88.4108 31.0474C87.6583 30.8604 87.928 29.3901 88.0802 31.9305L86.4838 36.1239C88.8067 35.441 91.4602 36.1369 93.1436 37.8552C94.4965 39.2385 95.7101 37.6551 96.119 36.2936C96.6193 34.6232 96.6845 31.7173 95.3404 30.3427C92.5955 27.5413 89.0764 26.6322 85.331 27.7327C84.0608 28.1068 83.6737 30.9169 83.7346 31.9261C83.9608 35.6062 85.3745 39.382 89.3504 40.2825C90.7381 40.5957 92.3432 40.413 93.4916 39.5125C95.51 37.9335 95.2621 34.5448 94.8923 32.2524C94.2659 28.3635 92.017 24.2875 88.2107 22.7433C84.3436 21.1773 80.3372 22.2691 77.3357 25.0053C75.8872 26.3233 75.5131 32.1741 77.8534 32.9571C81.3943 34.1403 84.0782 36.3284 85.7921 39.643C87.3581 42.6663 89.2199 46.1898 93.0479 46.4769C97.3849 46.7988 98.5898 41.8963 98.803 38.512C99.0683 34.3012 98.3201 30.06 96.5453 26.2233C95.0359 22.9564 92.3867 19.2459 88.8632 17.9931C85.9139 16.9447 82.5862 17.4928 80.1023 19.4025C73.586 24.405 75.1216 34.8537 79.4237 40.7436C81.9728 44.2323 85.8443 46.5421 89.3722 48.9042C91.1557 50.0961 92.8087 51.5707 94.6618 52.6408C95.5753 53.1672 96.6454 53.6196 97.7111 53.7022C98.6116 53.7718 99.4424 53.3325 100.325 53.4891L99.2293 52.8931C102.1 55.8772 106.924 50.3179 107.999 47.8167C109.969 43.2274 109.347 37.5724 106.368 33.5791C105.798 32.8135 104.745 32.8179 104.171 33.5791C101.339 37.3419 98.4985 41.2786 97.4066 45.9462C96.3278 50.5441 96.4583 55.825 99.0422 59.9271C99.6164 60.8406 100.765 61.8498 101.678 60.6057C106.124 54.5592 110.565 48.517 115.011 42.4706C116.216 40.8349 116.364 38.4294 115.79 36.5197C115.407 35.2495 114.124 33.4356 112.814 34.9581C109.443 38.8774 106.507 43.1274 103.988 47.6383C103.17 49.1043 103.175 51.3358 103.649 52.9105C103.919 53.8023 104.876 55.6989 106.107 54.9115C113.976 49.8612 115.912 37.7508 111.244 29.9165C109.591 27.1411 107.99 29.8382 107.607 31.8348C106.859 35.7542 107.394 39.7735 109.104 43.371C109.574 44.3628 110.5 44.9979 111.479 44.2715C112.549 43.4754 112.849 41.5092 112.814 40.2955C112.749 38.0205 112.266 35.7585 110.452 34.2404C109.186 33.1833 107.633 32.7265 106.194 31.974C105.763 31.7478 105.128 31.204 104.828 31.0953C105.354 32.2306 105.38 33.4747 104.906 34.8363L105.289 34.4318C105.776 34.1708 106.215 33.7966 106.711 33.5313C109.408 32.1088 112.375 31.0692 115.176 29.8773C116.477 29.3249 116.795 26.8497 116.773 25.6839C116.712 22.3561 115.746 19.1719 112.845 17.2797C112.262 16.9012 111.562 17.2884 111.17 17.7191C109.025 20.0637 107.616 22.8564 107.494 26.0754C107.386 28.8637 108.029 32.4873 110.548 34.1795C115.981 37.8378 120.362 29.0464 121.488 25.0923C121.923 23.5741 121.928 21.7254 121.319 20.2594C121.045 19.5982 120.035 17.867 119.03 18.7022C113.884 22.9826 111.392 29.1334 111.383 35.7846C111.383 36.7024 112.079 41.2612 114.137 39.978C119.979 36.3371 124.107 30.3862 124.168 23.3349C124.22 17.4667 121.01 10.3893 114.62 9.3105C111.614 8.8059 108.59 10.411 106.037 11.8117C103.053 13.4517 101.026 15.792 99.7556 18.9501C96.7019 26.5452 95.945 34.9059 96.5105 43.0056C96.5801 44.0365 97.2457 46.1985 98.6072 46.1985C99.9688 46.1985 100.543 44.0452 100.704 43.0056C101.204 39.7561 101.665 36.4197 102.862 33.3356C104.058 30.2514 106.107 27.7458 108.316 25.3402C110.248 23.2348 112.853 19.707 116.168 20.5465C118.826 21.2208 120.027 23.5872 119.579 26.1059C118.469 32.3481 115.407 38.6121 112.345 44.1061C109.073 49.9743 105.023 55.3465 100.404 60.2185H102.601C98.2201 53.8241 92.8217 48.7824 86.9579 43.7929C82.4774 39.978 76.631 35.0843 76.1873 28.7289C76.009 26.1929 77.4401 23.6394 79.7152 22.4606C82.6514 20.9381 86.3185 22.1169 88.8676 23.8699C94.9619 28.059 95.6797 35.8977 96.367 42.6228C96.4975 43.8843 97.3457 46.3725 99.0422 45.6591C100.739 44.9457 100.704 41.7006 100.56 40.3086L100.578 40.3173Z" fill="#DC332E"/>
<path d="M116.729 26.2625C119.744 26.2625 119.77 17.5625 116.729 17.5625C113.689 17.5625 113.689 26.2625 116.729 26.2625Z" fill="#DC332E"/>
<path d="M100.743 91.1123C96.8759 93.4961 94.814 97.3937 93.9919 101.761L97.6285 99.8427C97.5893 99.747 97.6198 100.756 97.6589 100.665C98.4593 98.7944 98.6203 96.3671 97.6589 94.514C96.8977 93.0393 95.3099 92.8131 94.5835 94.514C92.987 98.2463 93.0044 102.253 94.553 105.994C94.8967 106.816 95.758 107.564 96.6671 107.112C97.7155 106.594 97.9982 105.076 98.1853 104.075C98.1113 104.475 98.4158 103.379 98.4115 103.397C98.6246 102.879 98.9074 102.383 99.2336 101.931C99.9601 100.926 100.847 100.152 101.896 99.5034C103.514 98.5073 103.649 95.8233 103.414 94.1529C103.275 93.1481 102.374 90.1074 100.739 91.1166L100.743 91.1123Z" fill="#DC332E"/>
<path d="M96.1973 106.094C97.6111 107.094 99.0423 108.073 100.43 109.104C101.196 109.674 101.944 110.283 102.605 110.966C103.797 112.197 103.953 113.667 103.096 115.172C102.779 115.729 102.366 116.229 101.952 116.821C102.166 117.008 102.37 117.19 102.583 117.364C103.544 118.152 104.502 118.943 105.476 119.713C106.002 120.127 106.524 120.588 107.12 120.875C109.556 122.036 111.461 123.855 113.31 125.751C113.362 125.808 113.415 125.864 113.467 125.921C114.202 126.726 114.937 127.469 116.072 127.778C116.908 128.004 117.686 128.474 118.469 128.874C121.123 130.223 123.772 131.585 126.417 132.95C128.1 133.82 129.705 134.812 131.206 135.974C133.564 137.796 135.874 139.676 137.992 141.777C141.659 145.413 144.5 149.62 146.601 154.322C149.633 161.108 153.978 166.95 159.298 172.092C160.825 173.566 162.461 174.928 163.966 176.424C165.393 177.847 166.759 179.343 168.064 180.879C169.417 182.466 170.447 184.259 171.087 186.264C171.178 186.555 171.344 186.83 171.47 187.108C171.661 187.53 171.605 187.856 171.304 188.078C171.013 188.291 170.613 188.282 170.3 188.013C170.147 187.882 170.026 187.704 169.925 187.526C169.821 187.347 169.747 187.151 169.686 186.951C169.029 184.776 167.798 182.936 166.367 181.205C164.645 179.121 162.704 177.26 160.69 175.467C158.054 173.123 155.518 170.687 153.304 167.929C151.033 165.093 149.006 162.087 147.123 158.99C146.509 157.976 146.096 156.841 145.557 155.784C144.508 153.73 143.556 151.621 142.351 149.667C140.563 146.775 138.405 144.143 135.856 141.877C134.099 140.311 132.268 138.823 130.441 137.34C128.827 136.03 127.03 134.995 125.181 134.047C123.502 133.181 121.819 132.315 120.14 131.454C119.918 131.341 119.687 131.25 119.365 131.102C119.452 131.267 119.47 131.345 119.518 131.384C121.754 133.394 123.981 135.408 126.521 137.035C127.9 137.918 129.17 138.936 130.345 140.076C130.754 140.472 131.18 140.854 131.628 141.202C132.798 142.107 133.681 143.247 134.382 144.53C135.487 146.549 134.264 149.102 131.985 149.376C130.097 149.602 128.196 149.541 126.412 148.741C124.429 147.849 122.463 146.923 120.496 145.987C119.122 145.331 117.96 144.404 116.99 143.216C115.572 141.481 113.863 140.054 112.084 138.705C106.389 134.386 100.713 130.045 95.0228 125.721C93.4568 124.529 91.8604 123.376 90.2857 122.202C87.5278 120.14 84.7829 118.06 82.012 116.012C81.0767 115.32 80.0806 114.711 79.1062 114.067C79.0061 114.002 78.8843 113.971 78.719 113.897C78.6886 114.424 78.9235 114.807 79.0975 115.194C80.1719 117.551 81.3247 119.853 82.969 121.901C84.8612 124.263 86.5969 126.752 88.45 129.149C89.1938 130.11 90.0247 131.006 90.886 131.863C92.1345 133.111 93.2828 134.438 94.3616 135.834C97.2283 139.549 100.352 143.038 103.671 146.361C105.885 148.576 108.012 150.877 110.161 153.156C111.214 154.274 112.04 155.557 112.832 156.871C113.48 157.954 113.428 159.107 113.184 160.26C113.041 160.934 112.475 161.26 111.836 161.408C110.526 161.708 109.217 161.769 107.929 161.304C107.49 161.147 107.051 160.982 106.637 160.769C104.815 159.842 102.953 158.99 101.239 157.859C100.204 157.176 99.1205 156.554 98.0461 155.931C96.3104 154.927 94.7314 153.717 93.2437 152.382C92.6129 151.812 92.0648 151.151 91.4819 150.524C90.886 149.889 90.29 149.246 89.6941 148.61C89.6462 148.641 89.5984 148.676 89.5462 148.706C89.6201 148.876 89.6854 149.05 89.768 149.215C91.2079 152.082 92.7217 154.918 94.0702 157.832C94.8402 159.494 95.3491 161.273 95.9538 163.009C97.063 166.215 98.1374 169.43 99.2641 172.631C100.143 175.128 101.557 177.32 103.196 179.378C103.553 179.822 103.901 180.274 104.219 180.748C104.571 181.266 104.528 181.736 104.149 181.988C103.805 182.219 103.362 182.114 103.001 181.662C100.713 178.83 98.6507 175.863 97.4937 172.357C96.3235 168.816 95.1359 165.284 93.944 161.752C93.6613 160.917 93.3916 160.077 93.0349 159.272C90.1335 152.717 86.6491 146.496 82.3861 140.715C80.8505 138.636 79.4368 136.461 78.0187 134.299C76.6833 132.259 75.8132 130.019 75.5566 127.574C75.4783 126.83 75.4217 126.073 75.4739 125.329C75.6784 122.41 75.8959 119.492 76.1656 116.581C76.6397 111.501 76.4309 106.437 75.748 101.396C75.3652 98.5506 74.3516 95.8841 73.1598 93.2828C72.9945 92.9174 72.7508 92.5911 72.542 92.2475C72.4811 92.2649 72.4246 92.2823 72.3637 92.2997C72.3855 92.565 72.4028 92.8304 72.4376 93.0914C72.6464 94.6226 72.5551 96.132 72.2027 97.6415C71.8982 98.9334 71.3241 100.077 70.4801 101.082C70.193 101.426 69.7841 101.704 69.3796 101.904C68.4617 102.353 67.4786 102.587 66.452 102.596C64.8991 102.609 63.4462 103.101 61.9759 103.51C61.0276 103.775 61.032 103.845 61.0406 104.819C61.0581 106.555 61.058 108.29 61.0928 110.026C61.1537 112.788 60.7144 115.498 60.3055 118.213C60.0793 119.696 59.8661 121.184 59.5834 122.658C59.1397 124.973 58.5786 127.261 58.1784 129.579C57.6128 132.85 56.9168 136.082 55.9903 139.271C55.7728 140.015 55.6075 140.78 55.4813 141.542C54.9724 144.669 54.6374 147.81 55.2421 150.964C55.3987 151.773 55.651 152.565 55.8511 153.365C55.8946 153.539 55.9381 153.722 55.9207 153.896C55.8859 154.265 55.6814 154.522 55.3073 154.605C54.968 154.679 54.6722 154.557 54.5069 154.265C54.359 154 54.272 153.696 54.1894 153.395C53.2933 150.176 53.2193 146.91 53.6152 143.612C53.8457 141.681 54.2024 139.776 54.7505 137.905C55.5205 135.295 56.0773 132.637 56.5297 129.953C56.8429 128.091 57.2866 126.251 57.6607 124.398C57.7303 124.05 57.7477 123.694 57.7868 123.354C53.5325 121.745 49.9655 119.117 46.2898 116.586C46.2202 116.716 46.1506 116.799 46.1375 116.886C45.7982 119.244 45.4067 121.593 45.1414 123.959C44.7847 127.095 44.5454 130.245 44.2235 133.39C44.0408 135.191 43.7581 136.983 43.5884 138.788C43.5014 139.732 43.5232 140.689 43.5667 141.637C43.7537 145.565 44.3671 149.406 45.9026 153.065C47.8427 157.68 49.9916 162.191 52.8148 166.341C54.185 168.355 55.1116 170.569 56.0251 172.796C57.0734 175.359 58.1174 177.929 59.0701 180.531C60.001 183.071 60.5665 185.703 60.5969 188.426C60.5969 188.683 60.6013 188.948 60.5578 189.2C60.4752 189.666 60.1619 189.935 59.7791 189.914C59.4181 189.896 59.1745 189.64 59.0962 189.192C59.0744 189.065 59.0701 188.935 59.0701 188.804C59.0571 185.703 58.3306 182.745 57.2039 179.883C55.9207 176.633 54.5809 173.401 53.2193 170.182C52.8583 169.329 52.3755 168.516 51.8578 167.746C48.704 163.031 46.2376 157.967 44.093 152.73C43.2709 150.716 42.9316 148.597 42.5183 146.492C42.4313 146.04 42.3443 145.592 42.1225 145.122C42.0616 145.348 42.0007 145.57 41.9398 145.796C41.4569 147.54 41.0089 149.298 40.4869 151.029C40.0475 152.478 39.2863 153.778 38.3902 154.996C37.7638 155.853 37.1287 156.706 36.5023 157.558C35.7584 158.572 34.6492 158.829 33.5008 158.942C32.9875 158.994 32.5699 158.659 32.2045 158.315C31.4693 157.628 30.9212 156.801 30.6994 155.823C30.347 154.287 29.9903 152.743 29.7859 151.181C29.1899 146.592 29.2421 141.985 29.477 137.374C30.3775 119.509 27.463 102.235 21.473 85.4354C18.0322 75.7871 13.63 66.6042 8.0446 58.0086C3.6076 51.1791 -1.46886 44.889 -7.56756 39.4602C-7.71981 39.3254 -7.87206 39.1775 -7.98951 39.0078C-8.20266 38.7033 -8.22441 38.3684 -7.96341 38.0813C-7.70241 37.7898 -7.35876 37.7724 -7.04121 37.9595C-6.77586 38.1117 -6.53661 38.3205 -6.30606 38.5293C-3.20016 41.2872 -0.363956 44.3018 2.27649 47.5034C8.32299 54.8375 13.2341 62.8937 17.3231 71.4545C23.4349 84.2522 27.5717 97.6719 29.7293 111.692C30.8038 118.669 31.3127 125.686 31.1474 132.75C31.0735 135.961 30.9604 139.167 30.8734 142.373C30.856 142.964 30.8734 143.556 30.8734 144.256C31.2344 144.156 31.5259 144.078 31.813 143.999C33.3572 143.564 34.3099 144.039 34.8797 145.535C34.9972 145.848 35.1059 146.174 35.1538 146.505C35.4104 148.332 35.5366 150.163 35.2147 151.995C35.1538 152.351 35.0711 152.708 34.9406 153.043C34.4621 154.278 33.5921 155.044 32.1523 155.162C32.3045 156.018 32.7134 156.68 33.3224 157.219C33.4268 157.31 33.6182 157.389 33.7444 157.358C34.3186 157.228 34.9189 157.128 35.3017 156.588C36.0542 155.536 36.872 154.526 37.568 153.435C38.1074 152.591 38.6164 151.69 38.9339 150.746C39.5168 149.006 39.9823 147.227 40.4347 145.444C40.8653 143.738 41.2699 142.02 41.5787 140.289C41.905 138.479 42.079 136.648 42.3617 134.834C42.9272 131.197 43.2491 127.539 43.6058 123.876C43.7972 121.919 44.1844 119.983 44.4628 118.039C44.5628 117.347 44.5846 116.647 44.6672 115.951C44.7194 115.524 44.6107 115.215 44.254 114.946C41.8963 113.158 40.5304 110.678 39.4951 107.986C39.0644 106.859 38.9165 105.676 38.9861 104.475C39.0818 102.866 40.1258 102.109 41.6875 102.487C42.527 102.692 43.1969 103.144 43.732 103.814C44.5237 104.806 44.9978 105.946 45.311 107.164C45.8939 109.426 46.3463 111.709 46.2898 114.063C46.2811 114.467 46.429 114.754 46.7422 114.989C47.5078 115.559 48.2386 116.194 49.0434 116.703C50.9878 117.939 52.9627 119.13 54.9376 120.309C55.6902 120.762 56.4862 121.145 57.2692 121.54C57.8434 121.832 58.1392 121.714 58.261 121.058C58.535 119.583 58.7177 118.091 58.9961 116.616C59.7487 112.636 59.5573 108.617 59.4877 104.606C59.4398 101.657 59.2615 98.7029 59.2354 95.7536C59.218 94.0484 59.3267 92.3388 59.492 90.6423C59.6921 88.6239 60.4664 87.4625 63.0503 86.7926C66.9131 85.7921 70.1408 86.9883 72.7465 89.9594C73.7818 91.1382 74.5604 92.465 75.1694 93.9135C76.8224 97.8546 77.675 101.957 77.7794 106.228C77.8186 107.886 77.9404 109.539 78.01 111.192C78.023 111.496 78.1579 111.644 78.4015 111.788C81.8858 113.85 85.0918 116.307 88.3021 118.765C89.6376 119.787 90.986 120.797 92.3259 121.814C98.4724 126.482 104.623 131.141 110.761 135.817C112.51 137.148 114.263 138.484 115.942 139.902C116.847 140.667 117.621 141.585 118.413 142.477C119.057 143.203 119.757 143.86 120.627 144.278C122.841 145.348 125.073 146.383 127.304 147.419C127.626 147.566 127.987 147.632 128.396 147.619C128.226 147.501 128.065 147.379 127.891 147.271C126.099 146.157 124.442 144.887 123.12 143.216C123.041 143.116 122.95 143.021 122.872 142.916C122.08 141.916 122.162 141.394 123.22 140.706C123.459 140.55 123.724 140.424 123.933 140.241C124.242 139.971 124.564 139.697 124.794 139.362C125.508 138.34 125.442 138.227 124.442 137.466C123.163 136.496 121.915 135.486 120.67 134.473C119.426 133.459 118.174 132.455 116.982 131.38C115.429 129.975 113.932 128.5 112.414 127.056C111.457 126.143 110.557 125.173 109.543 124.329C108.712 123.637 107.76 123.098 106.855 122.502C106.185 122.062 105.472 121.68 104.841 121.192C103.653 120.279 102.474 119.339 101.352 118.347C100.404 117.508 99.5512 116.564 98.6377 115.685C96.6758 113.806 94.7053 111.936 92.7304 110.069C92.3345 109.695 91.8952 109.369 91.4994 108.999C90.538 108.112 90.5249 106.585 91.4645 105.68C92.1431 105.028 92.8827 104.462 93.8658 104.358C93.9397 104.349 94.0093 104.306 94.0745 104.271C94.0963 104.262 94.105 104.232 94.1702 104.145C93.4438 102.896 93.3307 101.487 93.5003 100.06C93.6787 98.5767 94.4747 97.4153 95.6623 96.3756C95.3578 96.2147 95.1186 96.0885 94.8837 95.9624C92.9479 94.9184 91.0122 93.8744 89.0807 92.826C88.8546 92.7042 88.6283 92.5563 88.4544 92.3736C87.9715 91.8647 88.1716 91.173 88.8502 90.986C89.0721 90.9251 89.3113 90.9077 89.5419 90.9164C93.6352 91.0686 97.5719 90.2117 101.47 89.0981C103.109 88.6283 104.723 88.0628 106.346 87.5321C106.637 87.4364 106.933 87.3102 107.185 87.1362C107.355 87.0188 107.551 86.8056 107.568 86.6186C107.651 85.8008 108.108 85.2396 108.708 84.7524C109.06 84.4653 109.395 84.1608 109.739 83.865C109.708 83.8128 109.678 83.7563 109.643 83.7041C109.404 83.7606 109.156 83.7998 108.921 83.8737C105.041 85.1135 101.061 85.431 97.0195 85.1787C89.2852 84.7002 82.012 82.4774 75.0302 79.2236C64.612 74.3646 55.5379 67.6917 47.9776 59.0004C45.385 56.0207 43.1186 52.806 41.1568 49.3826C39.6952 46.8378 38.4206 44.2017 37.8116 41.3046C37.2418 38.5859 36.8851 35.841 37.0721 33.0527C37.1896 31.2996 37.1243 29.5292 37.5202 27.7979C38.077 25.3488 39.1471 23.1651 40.9045 21.3468C41.135 21.1119 41.4134 20.9031 41.7049 20.7552C42.0094 20.5986 42.3182 20.703 42.5357 20.9771C42.7315 21.2294 42.7271 21.5165 42.5705 21.7775C42.4661 21.9515 42.3182 22.1037 42.1747 22.2516C40.0997 24.3527 39.0253 26.9148 38.786 29.8206C38.6425 31.5737 38.5598 33.3398 38.6033 35.0972C38.6947 38.7251 39.2819 42.2703 40.9306 45.5546C41.9659 47.6121 43.036 49.6653 44.528 51.4401C45.1414 52.1666 45.8591 52.8147 46.5769 53.4411C47.0815 53.8848 47.6644 54.2372 48.2081 54.6287C50.6572 56.3774 53.3629 57.4649 56.3687 57.8042C58.7612 58.0739 61.1407 58.4436 63.5288 58.722C67.6135 59.1962 71.5198 58.3827 75.326 56.9646C78.2449 55.8771 80.9984 54.4329 83.7041 52.9017C84.3697 52.5233 84.9743 52.0361 85.6616 51.5576C85.418 51.2444 85.2527 51.0269 85.0788 50.805C82.1512 47.1032 79.4411 43.2491 77.0834 39.1557C76.2352 37.6767 75.5001 36.1281 74.791 34.5752C73.8471 32.5089 73.5078 30.3339 73.6948 28.0589C73.8862 25.7316 74.1472 23.4218 74.8214 21.1728C75.2608 19.7156 75.9568 18.3975 76.9138 17.2143C78.7538 14.9436 81.155 14.0606 84.0391 14.1563C87.6583 14.2737 92.7913 17.6189 94.5617 21.9993C95.9755 25.4967 96.4975 29.0507 96.0494 32.796C95.7058 35.6801 94.8532 38.4162 93.9005 41.1263C93.335 42.7358 92.6608 44.3105 91.9691 45.8721C91.1905 47.6382 90.0943 49.2086 88.7893 50.631C88.4761 50.9703 88.1673 51.3096 87.841 51.6707C87.9976 51.8838 88.1064 52.0535 88.2369 52.2101C91.4863 56.1773 94.7357 60.1401 97.9895 64.1073C98.2027 64.3683 98.4158 64.6293 98.642 64.8773C99.0466 65.3253 99.1814 65.3645 99.7034 65.0382C100.847 64.3248 101.848 63.4287 102.853 62.4891C102.74 62.2716 102.653 62.0889 102.553 61.9106C99.6687 56.6601 97.3893 51.1835 96.3496 45.2457C95.7275 41.6961 95.8146 38.1248 96.1887 34.5621C96.5019 31.5389 97.2587 28.6026 98.0983 25.6881C99.6034 20.442 103.083 16.8359 107.681 14.1693C108.912 13.4559 110.287 13.1601 111.701 13.0949C113.415 13.0166 115.116 13.1688 116.782 13.6038C118.504 14.0519 119.896 14.9915 120.949 16.4139C122.576 18.6063 123.568 21.0641 123.759 23.7915C124.02 27.4977 123.624 31.1343 122.397 34.6622C121.24 37.9856 120.07 41.3046 118.513 44.4801C116.773 48.0341 114.52 51.2618 112.21 54.446C111.113 55.9554 109.952 57.417 108.734 58.8264C107.755 59.9618 106.659 60.9927 105.611 62.0715C105.432 62.2542 105.241 62.4282 105.01 62.6457C105.154 62.8545 105.258 63.059 105.411 63.2156C106.198 64.0377 106.938 64.9251 107.812 65.6429C109.474 67.0044 111.183 68.3051 112.932 69.5535C114.641 70.7759 116.638 71.3762 118.643 71.9156C120.897 72.5246 123.198 72.8769 125.503 73.238C126.317 73.3641 127.039 73.2771 127.709 72.7856C128.022 72.5594 128.37 72.381 128.701 72.1766C130.649 70.976 132.698 70.0016 134.882 69.3012C137.47 68.466 140.011 67.5003 142.46 66.3041C145.496 64.8207 148.584 64.7816 151.716 66.017C153.304 66.6434 154.909 67.2306 156.506 67.8483C158.037 68.4399 159.438 69.2534 160.786 70.1886C164.223 72.5681 167.459 75.1868 170.465 78.0882C171.844 79.4193 173.436 80.4329 175.159 81.2289C177.934 82.5078 180.696 83.8259 183.537 84.9395C186.564 86.127 189.048 87.9279 191.088 90.4553C192.833 92.6129 194.638 94.7096 196.034 97.1195C197.853 100.269 198.97 103.679 199.884 107.168C200.758 110.509 201.298 113.91 201.724 117.325C202.111 120.44 202.955 123.411 204.069 126.321C204.913 128.522 205.835 130.688 206.705 132.881C207.523 134.925 208.736 136.652 210.572 137.918C211.146 138.314 211.277 138.771 211.007 139.149C210.737 139.528 210.259 139.558 209.689 139.171C208.523 138.375 207.501 137.422 206.731 136.235C206.309 135.587 205.904 134.912 205.609 134.199C204.456 131.424 203.32 128.644 202.242 125.843C201.093 122.854 200.449 119.748 200.054 116.568C199.619 113.101 198.992 109.661 198.061 106.281C196.843 101.865 195.055 97.7328 192.15 94.1484C191.058 92.7999 189.914 91.4949 188.778 90.1812C187.539 88.7457 186.021 87.7017 184.276 86.9535C181.205 85.6355 178.156 84.2783 175.102 82.9211C174.463 82.6383 173.849 82.3034 173.236 81.9684C171.796 81.1854 170.474 80.2415 169.29 79.0974C166.25 76.1525 162.948 73.5338 159.459 71.1413C158.341 70.3757 157.154 69.7493 155.892 69.2621C154.083 68.5617 152.278 67.8353 150.442 67.2045C148.149 66.4215 145.861 66.4955 143.621 67.4699C141.959 68.192 140.311 68.9489 138.627 69.6188C137.235 70.1712 135.804 70.6367 134.382 71.1152C132.65 71.6981 131.058 72.5594 129.497 73.4729C128.383 74.1254 127.287 74.804 126.138 75.4086C122.859 77.1269 119.727 79.1061 116.647 81.1593C116.042 81.5595 115.403 81.9032 114.807 82.3164C113.11 83.4996 111.392 84.6611 109.748 85.9139C108.634 86.7621 108.886 88.5152 110.143 89.1372C111.113 89.6157 112.131 89.8376 113.228 89.6723C116.072 89.2373 118.743 88.2846 121.323 87.0449C121.814 86.81 122.297 86.562 122.771 86.2923C125.908 84.5132 129.296 83.5257 132.855 83.1125C135.091 82.8515 137.34 82.7079 139.58 82.473C140.424 82.386 141.263 82.2207 142.09 82.025C143.499 81.6857 144.896 81.2985 146.296 80.9157C146.766 80.7896 147.227 80.6156 147.732 80.4503C147.714 80.1458 147.697 79.8891 147.688 79.6368C147.671 79.1714 147.645 78.7059 147.649 78.2405C147.671 76.2395 148.745 74.9562 150.485 74.1602C151.599 73.6512 152.76 73.8948 153.556 74.7387C154.344 75.5696 154.518 76.7615 153.939 77.8359C153.713 78.2579 153.396 78.6711 153.026 78.9713C152.182 79.6499 151.281 80.2632 150.394 80.894C150.142 81.0723 149.868 81.2159 149.554 81.4073C149.62 81.6987 149.65 81.9815 149.746 82.2425C150.216 83.5605 150.603 84.9134 151.194 86.1749C152.456 88.8675 154.292 91.0643 157.028 92.3997C157.793 92.7738 158.568 93.1436 159.355 93.4742C159.921 93.7091 160.264 94.0788 160.238 94.7009C160.16 96.4974 160.804 98.0591 161.808 99.4859C162.478 100.439 163.209 101.348 163.953 102.239C164.723 103.157 165.741 103.705 166.876 104.075C167.355 104.232 167.703 104.184 168.042 103.784C168.812 102.875 169.621 102 170.404 101.104C170.796 100.656 171.17 100.191 171.535 99.7208C172.453 98.5245 173.64 97.6676 174.976 96.9933C175.515 96.7193 176.081 96.554 176.694 96.5975C178.251 96.7062 179.221 98.0852 178.734 99.5642C178.356 100.717 177.699 101.722 176.764 102.496C174.841 104.093 172.662 105.202 170.221 105.763C169.721 105.88 169.195 105.928 168.681 105.928C168.233 105.928 167.877 106.02 167.59 106.376C165.749 108.656 163.396 110.378 161.165 112.223C159.433 113.654 157.563 114.928 155.714 116.207C154.283 117.199 152.699 117.517 150.925 117.351C147.066 116.99 143.303 116.212 139.61 115.089C137.318 114.393 134.978 113.993 132.611 113.702C131.558 113.571 130.51 113.406 129.462 113.236C128.144 113.019 126.9 112.566 125.769 111.87C124.442 111.057 123.015 110.548 121.497 110.287C118.996 109.852 116.49 109.452 113.985 109.06C111.788 108.717 109.569 108.477 107.386 108.06C104.771 107.559 102.183 106.903 99.5773 106.355C98.5942 106.15 97.5893 106.054 96.5932 105.92C96.4757 105.902 96.3539 105.937 96.2365 105.946C96.2234 105.998 96.2104 106.046 96.1973 106.098V106.094ZM48.0733 56.4426C48.0385 56.4774 48.0037 56.5166 47.9689 56.5514C48.169 56.8037 48.3647 57.056 48.5692 57.3039C54.2808 64.0899 61.045 69.6231 68.6618 74.1341C74.9606 77.8664 81.6249 80.7287 88.7676 82.4034C94.5487 83.7563 100.369 84.1521 106.259 83.1212C109.017 82.6383 111.635 81.8205 114.071 80.4416C117.269 78.632 120.466 76.8137 123.659 74.9954C123.798 74.9171 123.902 74.7866 124.055 74.6604C122.358 74.3037 120.74 73.9731 119.126 73.6251C115.894 72.9291 112.897 71.7068 110.304 69.6057C109.8 69.1968 109.269 68.8271 108.756 68.4356C107.085 67.1567 105.528 65.756 104.171 64.1421C104.075 64.0247 103.953 63.9333 103.805 63.7898C103.436 64.1073 103.088 64.4118 102.735 64.712C101.648 65.6429 100.543 66.5216 99.0988 66.8696C98.6899 66.9696 98.4158 66.9479 98.1461 66.626C97.6981 66.0909 97.2152 65.582 96.7716 65.0426C93.6004 61.1798 90.4336 57.3126 87.2668 53.4498C87.0754 53.2193 86.8666 53.0061 86.6709 52.793C85.9314 53.2976 85.2962 53.7935 84.6046 54.1893C81.7467 55.8206 78.8321 57.3431 75.7393 58.4828C71.7808 59.94 67.7179 60.7622 63.4766 60.275C60.8275 59.9705 58.1914 59.5964 55.5466 59.244C53.0192 58.9047 50.6746 58.0652 48.53 56.6775C48.3908 56.5862 48.2299 56.5253 48.0776 56.447L48.0733 56.4426ZM104.093 61.3712C104.414 61.0841 104.645 60.8796 104.876 60.6752C106.833 58.9178 108.456 56.8689 110.035 54.7853C112.632 51.3618 115.111 47.8557 117.047 43.9973C118.595 40.9088 119.726 37.6593 120.871 34.4142C122.062 31.043 122.476 27.5717 122.245 24.0177C122.089 21.6078 121.219 19.4372 119.827 17.4753C118.917 16.1964 117.686 15.396 116.16 15.0393C114.763 14.7131 113.349 14.5913 111.923 14.6391C110.639 14.6826 109.4 14.948 108.286 15.6135C104.145 18.0756 100.965 21.3468 99.6034 26.1101C98.79 28.9506 98.0461 31.8042 97.7416 34.7492C97.4153 37.8986 97.3153 41.048 97.772 44.1974C98.6246 50.0699 100.9 55.4378 103.623 60.6447C103.74 60.8666 103.897 61.071 104.088 61.3668L104.093 61.3712ZM86.797 50.4353C86.9536 50.3135 87.0449 50.2569 87.1145 50.1873C88.4587 48.804 89.5984 47.2728 90.4466 45.5372C91.7908 42.7836 92.7608 39.8909 93.6439 36.9633C94.4008 34.4621 94.7096 31.8956 94.6835 29.2986C94.6574 26.3624 93.757 23.648 92.3389 21.0989C91.2122 19.0718 89.3983 17.8059 87.4234 16.7141C85.914 15.8789 84.3088 15.6048 82.6253 15.7614C80.8766 15.9224 79.4107 16.6793 78.271 18.0408C77.3096 19.1892 76.6354 20.4855 76.2309 21.9297C75.6654 23.9351 75.4478 25.9883 75.2608 28.0545C75.0694 30.173 75.3957 32.1914 76.2787 34.1097C76.9486 35.567 77.6403 37.0199 78.4407 38.4075C80.7331 42.3834 83.3692 46.1331 86.2054 49.7349C86.3794 49.9568 86.5621 50.1699 86.7926 50.444L86.797 50.4353ZM154.548 114.924C154.583 114.959 154.618 114.994 154.653 115.028C154.883 114.889 155.122 114.767 155.34 114.611C155.997 114.145 156.623 113.641 157.293 113.201C160.06 111.396 162.422 109.091 164.945 106.985C165.432 106.581 165.815 106.072 166.198 105.515C165.989 105.415 165.88 105.35 165.763 105.306C164.488 104.845 163.422 104.066 162.587 103.018C161.7 101.909 160.851 100.76 160.06 99.5816C159.346 98.5158 158.829 97.3239 158.79 96.0363C158.763 95.1011 158.359 94.7139 157.558 94.3659C155.94 93.6656 154.383 92.8304 153.13 91.5428C151.49 89.855 150.12 87.9845 149.328 85.7399C148.95 84.6654 148.589 83.5866 148.215 82.5122C148.158 82.3512 148.071 82.2033 148.006 82.0641C146.101 82.5731 144.256 83.0907 142.399 83.5562C141.577 83.765 140.733 83.9259 139.889 84.0129C137.596 84.2522 135.295 84.3957 133.007 84.6611C129.658 85.0526 126.469 85.9835 123.515 87.6626C123.041 87.9323 122.558 88.1802 122.067 88.4151C119.278 89.7636 116.39 90.8033 113.302 91.2252C111.688 91.4471 110.209 91.0512 108.873 90.1638C108.482 89.9028 108.212 89.9333 107.821 90.0986C106.772 90.5379 105.698 90.912 104.636 91.3296C104.106 91.5384 103.579 91.7559 103.07 92.0039C102.701 92.1866 102.392 92.4563 102.34 92.7651C102.862 93.3132 103.405 93.7178 103.705 94.2528C103.993 94.7705 104.101 95.423 104.154 96.0276C104.214 96.6975 103.775 97.2152 103.236 97.685C103.471 97.7894 103.584 97.8503 103.701 97.8894C105.624 98.5071 107.542 99.1292 109.474 99.7295C109.813 99.8339 110.183 99.8556 110.544 99.8817C112.084 99.9905 113.532 99.7208 114.815 98.8073C115.002 98.6724 115.224 98.5811 115.433 98.481C116.599 97.9068 117.691 97.2152 118.665 96.3495C121.693 93.6569 125.408 92.5694 129.279 91.9734C131.502 91.6298 133.751 91.4427 135.952 90.9381C137.531 90.5771 139.128 90.4596 140.737 90.6162C143.969 90.9251 147.145 91.508 150.216 92.5998C150.946 92.8608 151.651 93.2045 152.395 93.4263C153.656 93.8004 154.748 94.466 155.818 95.2098C156.675 95.8058 156.976 96.5627 156.836 97.5414C156.762 98.0547 156.654 98.5593 156.571 99.0726C156.262 100.969 156.51 102.84 156.784 104.715C156.876 105.328 157.002 105.959 156.936 106.563C156.732 108.469 156.484 110.37 155.684 112.149C155.362 112.858 155.079 113.58 154.783 114.298C154.701 114.502 154.631 114.715 154.557 114.924H154.548ZM106.911 151.921C106.694 151.664 106.537 151.46 106.363 151.281C105.15 150.046 103.945 148.793 102.705 147.579C99.2771 144.221 96.1103 140.637 93.1741 136.844C92.0953 135.447 90.9469 134.125 89.6984 132.876C88.8589 132.037 88.0455 131.158 87.3147 130.223C85.5225 127.913 83.8216 125.529 82.0163 123.233C80.4417 121.223 79.1236 119.07 78.0927 116.738C78.0448 116.629 77.9621 116.534 77.7838 116.259C77.7272 116.681 77.6881 116.921 77.6664 117.16C77.6228 117.678 77.588 118.191 77.5445 118.709C77.3618 120.979 77.1617 123.246 77.0095 125.521C76.966 126.16 77.0312 126.813 77.1008 127.452C77.3618 129.936 78.3884 132.128 79.7543 134.173C80.7896 135.721 81.8162 137.283 82.9385 138.766C83.8868 140.024 84.9613 141.181 85.9879 142.381C86.6099 143.108 87.2842 143.791 87.8671 144.548C88.5936 145.5 89.407 146.357 90.2944 147.158C91.0426 147.832 91.8038 148.515 92.4346 149.293C93.9049 151.107 95.6753 152.573 97.6111 153.83C99.6251 155.144 101.709 156.358 103.771 157.598C104.336 157.937 104.945 158.198 105.537 158.494C105.576 158.272 105.537 158.159 105.472 158.063C104.91 157.223 104.345 156.388 103.788 155.544C103.266 154.753 103.349 154.235 104.119 153.691C104.754 153.243 105.415 152.839 106.067 152.421C106.324 152.256 106.585 152.108 106.903 151.921H106.911ZM120.144 103.766C120.366 103.884 120.475 103.953 120.592 104.006C123.363 105.289 126.138 106.563 128.901 107.868C129.431 108.121 129.875 108.138 130.34 107.79C130.484 107.681 130.645 107.594 130.797 107.494C133.529 105.663 136.217 103.775 138.706 101.613C139.441 100.974 140.285 100.439 141.128 99.9426C143.13 98.7681 145.083 98.7551 147.123 100.034C149.224 101.352 151.447 102.492 153.904 103.044C154.239 103.118 154.583 103.166 154.909 103.223C154.957 103.075 154.988 103.022 154.983 102.979C154.779 101.108 154.879 99.2597 155.292 97.424C155.388 96.9933 155.209 96.7106 154.861 96.4365C153.87 95.6448 152.713 95.2316 151.56 94.7574C148.885 93.6525 146.114 92.9435 143.269 92.4824C141.324 92.1692 139.367 91.9125 137.396 92.2431C135.356 92.5868 133.32 92.9565 131.284 93.335C131.015 93.3872 130.723 93.4959 130.506 93.6612C128.692 95.0358 126.83 96.3539 125.312 98.0808C124.255 99.2858 123.154 100.456 122.075 101.643C121.453 102.326 120.831 103.009 120.144 103.762V103.766ZM135.926 112.64C135.835 112.492 135.817 112.427 135.778 112.41C135.595 112.318 135.408 112.227 135.217 112.153C131.467 110.713 127.813 109.073 124.19 107.338C121.366 105.985 118.474 104.775 115.603 103.527C114.537 103.062 113.458 102.609 112.353 102.257C108.334 100.974 104.267 99.8382 100.33 98.3114C99.7426 98.0852 99.6774 98.1026 99.2772 98.6028C98.0722 100.117 97.92 101.852 98.2549 103.675C98.2854 103.849 98.381 104.014 98.4506 104.18C98.5768 104.493 98.803 104.654 99.1466 104.715C99.9122 104.849 100.678 104.984 101.426 105.189C104.249 105.976 107.129 106.45 110.03 106.846C114.006 107.385 117.956 108.099 121.91 108.782C123.55 109.065 125.094 109.647 126.543 110.509C127.291 110.952 128.126 111.344 128.97 111.509C131.25 111.953 133.555 112.262 135.935 112.64H135.926ZM61.0102 102.131C61.2407 102.078 61.4147 102.048 61.5844 102.005C63.2852 101.556 64.9687 101.065 66.7478 101.004C67.4003 100.982 68.0528 100.721 68.688 100.517C68.9185 100.443 69.1534 100.269 69.31 100.077C69.8711 99.3945 70.3148 98.6376 70.5671 97.7807C71.224 95.5535 71.1196 93.3263 70.4975 91.1208C69.9973 89.3373 68.7141 88.3673 66.9305 88.0932C65.7256 87.9105 64.5033 87.9932 63.3113 88.302C61.8628 88.6805 61.1711 89.3808 61.0145 90.8642C60.8623 92.304 60.7535 93.7526 60.7535 95.1968C60.7535 97.2413 60.871 99.2814 60.9406 101.326C60.9493 101.578 60.9798 101.831 61.0059 102.126L61.0102 102.131ZM136.691 111.005C136.761 111.053 136.835 111.126 136.922 111.166C139.093 112.149 141.259 113.136 143.434 114.106C144.504 114.585 145.626 114.885 146.779 115.076C148.132 115.302 149.48 115.563 150.829 115.798C151.212 115.864 151.599 115.868 151.986 115.907C152.412 115.951 152.634 115.79 152.752 115.35C152.921 114.728 153.178 114.132 153.417 113.532C153.817 112.523 154.235 111.518 154.635 110.504C154.744 110.226 154.805 109.926 154.905 109.565C154.457 109.487 154.105 109.426 153.752 109.365C153.217 109.273 152.678 109.186 152.143 109.095C149.385 108.634 146.627 108.173 143.869 107.716C142.955 107.564 142.064 107.673 141.202 108.021C139.523 108.695 138.162 109.869 136.713 110.896C136.696 110.909 136.7 110.944 136.687 111L136.691 111.005ZM131.454 108.978C132.581 109.426 133.577 109.835 134.59 110.209C134.743 110.265 134.995 110.178 135.143 110.078C136.169 109.382 137.2 108.686 138.192 107.942C140.298 106.363 142.586 105.811 145.209 106.333C148.223 106.937 151.273 107.372 154.309 107.877C154.579 107.921 154.853 107.934 155.149 107.964C155.418 106.872 155.553 105.867 155.179 104.849C154.718 104.78 154.279 104.754 153.857 104.641C152.182 104.193 150.524 103.692 148.993 102.84C147.932 102.244 146.844 101.704 145.796 101.091C144.8 100.508 143.804 100.46 142.751 100.891C141.664 101.339 140.667 101.931 139.789 102.709C137.401 104.828 134.808 106.668 132.167 108.443C131.963 108.582 131.767 108.743 131.454 108.978ZM127.291 94.1136C127.278 94.0614 127.265 94.0092 127.248 93.957C126.704 94.1049 126.16 94.2485 125.621 94.4051C123.437 95.0315 121.41 95.9624 119.7 97.5066C118.717 98.394 117.621 99.1205 116.434 99.7164C115.764 100.051 115.107 100.412 114.45 100.773C114.311 100.852 114.202 100.978 114.024 101.126C115.59 101.817 117.069 102.466 118.582 103.136C119.992 101.617 121.358 100.173 122.689 98.6985C124.072 97.163 125.408 95.5796 127.078 94.3355C127.156 94.2746 127.217 94.1919 127.282 94.118L127.291 94.1136ZM124.224 141.911C124.255 142.068 124.25 142.133 124.277 142.168C125.825 144.134 127.77 145.605 130.045 146.618C130.78 146.944 131.593 147.031 132.402 146.897C133.068 146.783 133.329 146.392 133.198 145.735C133.164 145.561 133.085 145.391 132.998 145.235C132.437 144.239 131.772 143.33 130.876 142.594C130.18 142.02 129.523 141.398 128.84 140.802C128.296 140.328 127.744 139.858 127.182 139.401C127.056 139.297 126.882 139.249 126.682 139.149C126.16 140.398 125.355 141.346 124.224 141.916V141.911ZM92.3172 107.664C95.3056 110.187 98.0983 112.823 100.817 115.716C101.178 115.202 101.53 114.794 101.787 114.328C102.257 113.48 102.187 112.736 101.504 112.053C100.869 111.418 100.156 110.848 99.4381 110.3C98.616 109.669 97.7285 109.13 96.9151 108.49C96.0538 107.812 95.1316 107.251 94.1224 106.833C93.3655 106.52 93.2437 106.533 92.7086 107.116C92.5869 107.246 92.4955 107.403 92.3128 107.66L92.3172 107.664ZM107.973 153.108C107.046 153.674 106.15 154.218 105.176 154.809C105.885 155.836 106.494 156.793 107.185 157.685C107.777 158.446 108.556 159.007 109.43 159.425C110.161 159.777 110.909 159.742 111.696 159.677C111.814 158.998 111.888 158.385 111.566 157.806C110.622 156.105 109.474 154.557 107.968 153.108H107.973ZM44.6759 113.21C44.6759 112.797 44.6977 112.501 44.6759 112.205C44.515 110.396 44.1539 108.621 43.5928 106.898C43.3492 106.15 42.9011 105.463 42.4922 104.78C42.2486 104.371 41.8354 104.132 41.3612 104.019C40.7827 103.879 40.5695 104.006 40.5434 104.588C40.5217 105.05 40.5173 105.528 40.6 105.98C41.1046 108.647 42.3922 110.909 44.2235 112.884C44.3192 112.988 44.4584 113.054 44.6803 113.214L44.6759 113.21ZM33.8923 149.628C33.8053 148.615 33.7618 147.84 33.6661 147.071C33.6182 146.692 33.5095 146.309 33.3616 145.957C33.1354 145.409 32.9048 145.313 32.3176 145.47C31.9696 145.561 31.6346 145.705 31.2866 145.813C30.9821 145.905 30.8951 146.109 30.9212 146.405C30.9604 146.87 30.9734 147.336 31.0256 147.797C31.2083 149.467 31.3736 151.138 31.5955 152.799C31.7042 153.6 32.435 153.826 32.9875 153.221C33.2876 152.895 33.5269 152.443 33.6095 152.012C33.7792 151.155 33.8183 150.276 33.8879 149.633L33.8923 149.628ZM169.904 104.127C169.96 104.162 169.982 104.188 170.004 104.188C170.078 104.188 170.16 104.193 170.23 104.175C172.288 103.631 174.132 102.666 175.768 101.317C176.437 100.765 176.903 100.038 177.212 99.2336C177.468 98.568 177.094 98.0939 176.39 98.1591C176.189 98.1765 175.981 98.2418 175.798 98.3288C174.719 98.8508 173.736 99.5033 172.957 100.439C172.018 101.57 171.057 102.692 170.108 103.818C170.03 103.914 169.973 104.027 169.904 104.132V104.127ZM102.135 90.5988C100.434 90.999 98.7421 91.4601 97.0238 91.7864C95.3186 92.1126 93.5873 92.304 91.8473 92.5563C92.4824 93.1479 96.7281 95.2403 97.4632 95.3142C97.2196 94.3529 97.3936 93.5177 98.1635 92.8565C98.9248 92.1996 99.8296 92.2779 100.617 92.3823C101.169 91.7342 101.648 91.173 102.135 90.5988ZM98.0852 97.5501C97.7677 97.2543 97.4632 97.2456 97.1717 97.3935C96.8759 97.5458 96.5758 97.7111 96.3278 97.9286C94.8793 99.1988 94.527 101.791 95.5797 103.41C95.7493 103.666 95.9407 103.919 96.1626 104.132C96.2887 104.253 96.4931 104.293 96.7585 104.414C96.3322 101.865 96.5279 99.5555 98.0852 97.5458V97.5501ZM149.367 79.7108C150.477 79.0844 151.455 78.4232 152.286 77.5619C152.491 77.3487 152.639 77.0399 152.704 76.7484C152.852 76.0611 152.304 75.4391 151.608 75.4826C151.36 75.5 151.103 75.5957 150.877 75.7088C149.428 76.4526 148.889 77.8316 149.372 79.7064L149.367 79.7108ZM101.448 96.4409C101.622 96.4191 101.857 96.4061 102.083 96.3626C102.583 96.2625 102.731 96.0233 102.574 95.5317C102.518 95.3403 102.396 95.1663 102.274 95.001C101.644 94.1571 100.721 93.9222 99.7426 93.8787C99.077 93.8483 98.7725 94.3485 99.0335 94.9793C99.4381 95.945 100.043 96.2669 101.443 96.4409H101.448Z" fill="#47567B"/>
</g>
<rect x="1.5" y="1.5" width="200" height="200" rx="100" stroke="#47567B" stroke-width="3"/>
<defs>
<clipPath id="clip0_1972_83635">
<rect width="203" height="203" rx="101.5" fill="white"/>
</clipPath>
</defs>
</svg>
