<svg width="465" height="100" viewBox="0 0 465 100" fill="none" xmlns="http://www.w3.org/2000/svg">
<path d="M76.0426 15.7751C76.6246 14.096 76.1371 12.228 75.3782 10.6189C74.4366 8.62592 73.0043 6.77005 71.0083 5.8345C69.0122 4.89895 66.3975 5.09398 64.8799 6.69387C63.5025 8.14748 63.3014 10.3812 63.6823 12.3468C64.5143 16.6254 67.6043 20.0567 70.5694 23.2504C74.2081 27.1694 77.8466 31.0883 81.4822 35.0043" fill="#667593"/>
<path d="M77.3561 17.3111C78.7731 12.2889 76.4266 5.20677 71.4106 2.89683C69.4267 1.98261 66.9309 1.95519 65.0903 3.22291C62.9083 4.72223 62.1221 7.50451 62.0093 10.0217C61.7595 15.6258 64.8373 20.3828 68.4302 24.3902C72.4498 28.8729 76.6186 33.2277 80.7143 37.6372C81.6438 38.6398 82.5214 37.4696 82.7987 36.5432C83.1583 35.3426 83.1797 33.3709 82.2533 32.3744C79.2881 29.1807 76.3261 25.9901 73.3609 22.7964C70.795 20.0324 67.8695 17.2958 66.102 13.9193C65.5779 12.9167 64.7459 11.3686 65.0964 10.1954C65.52 8.78747 67.3027 8.29379 68.5917 8.31817C70.1764 8.35169 71.5995 9.13182 72.66 10.2837C73.3792 11.0639 75.037 13.13 74.7262 14.2332C74.3849 15.44 74.3056 17.433 75.2717 18.402C76.2377 19.3711 77.0818 18.2862 77.3561 17.308V17.3111Z" fill="#667593"/>
<path d="M81.7596 34.9462C85.127 31.7464 88.2292 28.2663 91.0237 24.5545C91.8496 23.4605 92.651 22.333 93.2026 21.0774C94.0437 19.1545 94.2509 17.0214 94.449 14.9308C94.6349 12.9561 94.8147 10.9265 94.2631 9.02191C93.3093 5.73376 90.1004 3.30193 86.6842 3.03681C83.2681 2.77169 79.8336 4.55137 77.865 7.35193C75.8964 10.1525 75.3692 13.8551 76.2164 17.1737" fill="#667593"/>
<path d="M82.5307 37.5763C86.1815 34.084 89.6586 30.29 92.5536 26.1424C95.4486 21.9949 96.2562 16.6894 96.1556 11.6764C96.0673 7.15405 94.1687 2.6317 89.7805 0.763645C85.7823 -0.936807 81.3422 0.330913 78.31 3.29604C74.2966 7.21805 73.6841 13.5048 74.9061 18.7068C75.1438 19.7155 76.061 20.715 76.9905 19.8008C77.9779 18.8287 77.8163 16.8265 77.536 15.6319C75.6131 7.43441 88.656 2.11365 92.6298 9.79615C93.4983 11.4753 93.0473 13.6359 92.8492 15.4278C92.6024 17.6706 92.0538 19.4564 90.716 21.3001C87.8393 25.2678 84.5298 28.9308 80.9917 32.3134C79.6082 33.6391 80.5163 39.5023 82.5307 37.5763Z" fill="#667593"/>
<path d="M69.314 31.6919C69.2318 31.5822 69.183 31.4968 69.116 31.4328C68.1408 30.4455 67.1595 29.4642 66.1905 28.4708C63.3838 25.6001 61.0312 22.379 58.8706 19.0086C58.4775 18.396 58.1484 17.7378 57.8497 17.0735C56.4327 13.9286 56.8227 10.8446 58.2672 7.83374C58.9559 6.39537 60.0225 5.27697 61.3817 4.42674C63.3107 3.21692 65.4042 2.55259 67.6745 2.57392C71.1334 2.60439 73.4829 4.51207 75.0828 7.36749C76.2347 9.42449 76.7954 11.7131 76.9082 14.084C77.0758 17.6525 76.4602 21.1235 75.4607 24.5305C75.0036 26.0877 74.196 27.4804 73.3031 28.8243C72.7119 29.7141 72.0994 30.5918 71.4594 31.5273C73.1751 33.4624 75.2504 35.0075 77.1002 36.845C79.0993 34.7088 81.4519 33.0297 83.3809 30.8691C83.2316 30.6466 83.1157 30.4638 82.9878 30.2901C79.8581 25.9841 79.0231 23.9484 78.2277 18.6856C77.8468 16.1653 77.7157 13.6451 78.2216 11.1249C78.5111 9.68656 78.9195 8.27257 79.6021 6.97742C81.0009 4.32313 83.0579 2.46421 86.1235 1.97663C87.5436 1.75112 88.9515 1.9553 90.3137 2.36365C92.8888 3.13464 95.1195 4.43589 96.4177 6.90428C98.2949 10.4758 98.4198 14.0779 96.3872 17.6464C95.9057 18.4905 95.3816 19.3194 94.8178 20.1117C93.1935 22.3942 91.5997 24.7011 89.6555 26.7307C88.3603 28.0868 87.0408 29.4185 85.7304 30.7624C85.6664 30.8295 85.6116 30.9087 85.511 31.0336C85.7 31.2348 85.8736 31.4328 86.0565 31.6157C88.2628 33.7976 90.8531 35.431 93.5958 36.8389C97.3471 38.7619 101.315 40.0783 105.438 40.9255C106.986 41.2424 108.549 41.4923 110.116 41.7239C112.935 42.1414 115.757 42.5376 118.581 42.9094C122.372 43.4091 126.163 43.912 129.96 44.3477C131.432 44.5154 132.926 44.5397 134.41 44.5763C137.283 44.6433 140.157 44.6891 143.031 44.7134C144.539 44.7256 145.895 44.9024 147.407 44.8963C148.452 44.8932 149.574 45.1187 150.619 45.1248C151.155 45.1248 152.478 45.2467 153.014 45.2498C153.523 45.2528 154.574 45.3046 155.08 45.3686L155.053 46.5602C154.364 46.6211 153.761 46.615 153.06 46.6242C149.26 46.6668 144.756 46.1488 140.955 46.1305C137.96 46.1152 134.964 45.9964 131.969 45.9385C129.549 45.8928 127.169 45.4966 124.78 45.1705C122.15 44.811 119.514 44.4971 116.884 44.1436C113.724 43.72 110.545 43.3756 107.407 42.8179C101.199 41.7148 95.2658 39.798 89.8779 36.4154C88.0343 35.2573 86.3003 33.9652 84.7796 32.4019C84.6943 32.3135 84.6059 32.2313 84.5145 32.152C84.481 32.1246 84.4292 32.1155 84.3408 32.0819C84.2311 32.1734 84.1001 32.277 83.9782 32.3897C82.1924 34.0475 80.4127 35.7084 78.6239 37.3631C78.3039 37.6587 77.9565 37.9269 77.6091 38.195C77.219 38.4998 76.8808 38.5059 76.4694 38.2194C76.3109 38.1097 76.1707 37.9695 76.0305 37.8354C74.2448 36.1777 72.462 34.5199 70.6762 32.8651C70.6244 32.8164 70.5574 32.7889 70.4568 32.728C70.3532 32.8133 70.2344 32.8895 70.1368 32.987C67.7599 35.4249 64.941 37.2351 61.9363 38.7801C58.1209 40.7396 54.0831 42.0652 49.899 42.9825C48.0889 43.3787 46.2696 43.6773 44.4259 43.8937C42.0824 44.171 39.7512 44.5641 37.4077 44.881C34.4395 45.2833 31.4592 45.6094 28.5002 46.0573C25.2364 46.551 21.9543 46.6882 18.6662 46.7064C13.8208 46.7339 8.97239 46.7278 4.12397 46.7156C3.05433 46.7156 1.98469 46.6455 0.915048 46.5998C0.588976 46.5876 0.265951 46.5541 0.241572 46.1122C0.223287 45.7465 0.390894 45.5027 0.84191 45.4204C1.26855 45.3412 1.71042 45.3138 2.1462 45.3168C8.8444 45.3686 15.5426 45.3656 22.2377 45.1645C24.2612 45.1035 26.2695 44.8963 28.2746 44.6098C31.2642 44.1832 34.2628 43.8297 37.2554 43.4274C40.4643 42.9977 43.6884 42.6412 46.876 42.0896C53.1171 41.0108 59.0748 39.1032 64.4626 35.6596C66.0259 34.66 67.5069 33.5538 68.8204 32.2343C68.988 32.0637 69.1464 31.8839 69.3171 31.6949L69.314 31.6919ZM84.4871 29.9152C84.9533 29.4825 85.3251 29.1717 85.6603 28.8212C87.8209 26.5753 90.0242 24.369 91.7917 21.7817C92.8492 20.2367 93.9889 18.7435 94.9732 17.1497C96.3933 14.8489 96.7651 12.3805 96.0063 9.72009C95.281 7.18465 93.8061 5.36839 91.4016 4.3018C89.817 3.59785 88.1592 3.19254 86.4283 3.40586C83.9264 3.7167 82.2168 5.2465 81.0466 7.3553C80.0592 9.13803 79.4863 11.1067 79.4101 13.1454C79.2151 18.3839 80.0836 24.2928 83.9233 29.0955C84.0452 29.2479 84.158 29.4063 84.2707 29.5648C84.3286 29.644 84.3743 29.7293 84.4871 29.9091V29.9152ZM70.3654 30.5674C71.173 29.3515 71.9287 28.2514 72.6418 27.1269C73.5225 25.7372 74.1594 24.2349 74.4794 22.6198C74.8116 20.9498 75.1468 19.2767 75.354 17.5885C75.7288 14.5137 75.3632 11.5241 74.1168 8.65654C73.4098 7.03227 72.2517 5.81941 70.7951 4.87471C69.9418 4.32313 68.9758 4.02753 67.958 4.03972C67.1595 4.04887 66.3459 4.10372 65.5688 4.26523C63.6703 4.65835 61.9363 5.45981 60.6381 6.92866C58.959 8.8272 58.3495 11.1554 58.4531 13.633C58.5262 15.3669 59.2546 16.9242 60.184 18.3839C62.7957 22.4887 65.8552 26.2279 69.3232 29.6349C69.6157 29.9213 69.9327 30.1834 70.3593 30.5674H70.3654Z" fill="#47567B"/>
<path d="M13.0639 79.7256V79.2216L14.4079 79.0536C14.6132 79.0256 14.7485 78.9509 14.8139 78.8296C14.8792 78.7083 14.9119 78.5309 14.9119 78.2976V71.6896C14.9119 71.3536 14.8745 71.1249 14.7999 71.0036C14.7345 70.8823 14.5525 70.8076 14.2539 70.7796L13.0079 70.6956L13.0639 70.1916L15.8079 69.7856L15.9479 69.9116V78.3396C15.9479 78.5729 15.9759 78.7456 16.0319 78.8576C16.0879 78.9603 16.2279 79.0256 16.4519 79.0536L17.7539 79.2216V79.7256H13.0639ZM21.4363 79.9076C21.1843 79.9076 20.9743 79.8283 20.8063 79.6696C20.6476 79.5109 20.5683 79.3056 20.5683 79.0536C20.5683 78.8016 20.6476 78.5963 20.8063 78.4376C20.9743 78.2696 21.1843 78.1856 21.4363 78.1856C21.6976 78.1856 21.9076 78.2649 22.0663 78.4236C22.225 78.5823 22.3043 78.7876 22.3043 79.0396C22.3043 79.2916 22.225 79.5016 22.0663 79.6696C21.9076 79.8283 21.6976 79.9076 21.4363 79.9076ZM33.4102 79.9216C32.5142 79.9216 31.7302 79.7209 31.0582 79.3196C30.3955 78.9183 29.8775 78.3396 29.5042 77.5836C29.1402 76.8183 28.9582 75.9036 28.9582 74.8396C28.9582 74.0463 29.0608 73.3369 29.2662 72.7116C29.4715 72.0769 29.7655 71.5356 30.1482 71.0876C30.5308 70.6396 30.9882 70.2989 31.5202 70.0656C32.0522 69.8323 32.6448 69.7156 33.2982 69.7156C33.8022 69.7156 34.2548 69.7949 34.6562 69.9536C35.0668 70.1029 35.4215 70.3223 35.7202 70.6116L35.8602 69.7016H36.3502L36.8822 72.8656L36.3362 72.9916C36.1215 72.3756 35.8742 71.8856 35.5942 71.5216C35.3142 71.1483 34.9875 70.8776 34.6142 70.7096C34.2408 70.5416 33.7975 70.4576 33.2842 70.4576C32.6402 70.4576 32.0755 70.6163 31.5902 70.9336C31.1142 71.2509 30.7408 71.7316 30.4702 72.3756C30.1995 73.0103 30.0642 73.8083 30.0642 74.7696C30.0642 75.4509 30.1435 76.0623 30.3022 76.6036C30.4608 77.1356 30.6895 77.5929 30.9882 77.9756C31.2962 78.3489 31.6602 78.6383 32.0802 78.8436C32.5095 79.0396 32.9902 79.1376 33.5222 79.1376C33.9142 79.1376 34.2828 79.0863 34.6282 78.9836C34.9735 78.8809 35.2955 78.7129 35.5942 78.4796C35.9022 78.2463 36.1962 77.9429 36.4762 77.5696L36.9942 77.9756C36.7702 78.3116 36.5182 78.6056 36.2382 78.8576C35.9582 79.1003 35.6595 79.3009 35.3422 79.4596C35.0342 79.6183 34.7168 79.7349 34.3902 79.8096C34.0635 79.8843 33.7368 79.9216 33.4102 79.9216ZM46.2578 79.9216C45.9591 79.9216 45.7024 79.8703 45.4878 79.7676C45.2731 79.6743 45.0818 79.5156 44.9138 79.2916C44.7458 79.0676 44.5824 78.7643 44.4238 78.3816L43.6958 76.5196C43.5464 76.1556 43.3971 75.8803 43.2478 75.6936C43.0984 75.4976 42.9211 75.3669 42.7158 75.3016C42.5198 75.2363 42.2678 75.2036 41.9598 75.2036C41.7918 75.2036 41.6424 75.2083 41.5118 75.2176C41.3811 75.2176 41.2598 75.2269 41.1478 75.2456V78.4236C41.1478 78.6476 41.1804 78.8109 41.2458 78.9136C41.3204 79.0163 41.4558 79.0769 41.6518 79.0956L42.7018 79.2216V79.7256H38.8518V79.2216L39.6918 79.0956C39.8598 79.0676 39.9718 79.0116 40.0278 78.9276C40.0931 78.8343 40.1258 78.6523 40.1258 78.3816V71.2136C40.1258 70.9803 40.0931 70.8216 40.0278 70.7376C39.9624 70.6443 39.8364 70.5836 39.6498 70.5556L38.8518 70.4296V69.9116H42.0578C42.6831 69.9116 43.2291 69.9676 43.6958 70.0796C44.1624 70.1823 44.5451 70.3409 44.8438 70.5556C45.1518 70.7609 45.3804 71.0223 45.5298 71.3396C45.6791 71.6569 45.7538 72.0256 45.7538 72.4456C45.7538 72.6603 45.7211 72.8749 45.6558 73.0896C45.5998 73.3043 45.5111 73.5096 45.3898 73.7056C45.2684 73.9016 45.1144 74.0836 44.9278 74.2516C44.7411 74.4196 44.5218 74.5643 44.2698 74.6856C44.0271 74.8069 43.7518 74.8956 43.4438 74.9516V74.9936C43.7798 75.0869 44.0504 75.2409 44.2558 75.4556C44.4611 75.6609 44.6338 75.9409 44.7738 76.2956L45.2498 77.4716C45.3991 77.8263 45.5298 78.1296 45.6418 78.3816C45.7631 78.6336 45.8984 78.8296 46.0478 78.9696C46.2064 79.1003 46.4071 79.1656 46.6498 79.1656C46.7804 79.1656 46.9018 79.1516 47.0138 79.1236C47.1351 79.0956 47.2564 79.0583 47.3778 79.0116L47.4898 79.4176C47.3311 79.5763 47.1444 79.6976 46.9298 79.7816C46.7244 79.8749 46.5004 79.9216 46.2578 79.9216ZM42.0998 74.6016C42.5944 74.6016 43.0331 74.5269 43.4158 74.3776C43.7984 74.2189 44.1018 73.9809 44.3258 73.6636C44.5498 73.3463 44.6618 72.9543 44.6618 72.4876C44.6618 72.0209 44.5591 71.6476 44.3538 71.3676C44.1484 71.0876 43.8498 70.8869 43.4578 70.7656C43.0658 70.6349 42.5851 70.5696 42.0158 70.5696H41.1478V74.5736C41.3904 74.5829 41.5864 74.5923 41.7358 74.6016C41.8851 74.6016 42.0064 74.6016 42.0998 74.6016ZM48.7705 79.7256V79.2216L49.5825 79.0956C49.7598 79.0676 49.8765 79.0069 49.9325 78.9136C49.9885 78.8203 50.0165 78.6429 50.0165 78.3816V71.2276C50.0165 70.9943 49.9885 70.8356 49.9325 70.7516C49.8765 70.6583 49.7505 70.5929 49.5545 70.5556L48.7705 70.4296V69.9116H55.0145L55.5185 72.1376L54.9585 72.3056C54.8185 71.9136 54.6878 71.6009 54.5665 71.3676C54.4451 71.1343 54.3051 70.9616 54.1465 70.8496C53.9878 70.7283 53.7965 70.6489 53.5725 70.6116C53.3485 70.5743 53.0685 70.5556 52.7325 70.5556H51.0525V74.3776H52.6625C52.9798 74.3776 53.2131 74.3589 53.3625 74.3216C53.5118 74.2749 53.6238 74.1723 53.6985 74.0136C53.7731 73.8549 53.8478 73.5983 53.9225 73.2436L54.4265 73.1736V76.1696L53.9225 76.2536C53.8665 75.8989 53.7965 75.6376 53.7125 75.4696C53.6378 75.3016 53.5118 75.1943 53.3345 75.1476C53.1665 75.1009 52.9098 75.0776 52.5645 75.0776H51.0525V79.0816H53.2505C53.5771 79.0816 53.8478 79.0583 54.0625 79.0116C54.2771 78.9556 54.4545 78.8623 54.5945 78.7316C54.7438 78.5916 54.8651 78.4049 54.9585 78.1716C55.0611 77.9289 55.1498 77.6209 55.2245 77.2476H55.8125L55.4905 79.7256H48.7705ZM57.0178 79.7256V79.2076L57.6478 79.0956C57.8158 79.0583 57.9371 78.9976 58.0118 78.9136C58.0958 78.8296 58.1891 78.6429 58.2918 78.3536L61.2878 69.9116H62.2958L65.2358 78.3816C65.3198 78.6149 65.3944 78.7783 65.4598 78.8716C65.5251 78.9649 65.6558 79.0349 65.8518 79.0816L66.3978 79.1796V79.7256H63.0658V79.2076L63.8778 79.1096C64.0644 79.0816 64.1764 79.0209 64.2138 78.9276C64.2511 78.8249 64.2278 78.6523 64.1438 78.4096L63.4858 76.4636H59.7478L59.0898 78.3536C59.0151 78.5683 58.9918 78.7409 59.0198 78.8716C59.0571 78.9929 59.1878 79.0723 59.4118 79.1096L60.2098 79.2216V79.7256H57.0178ZM59.9718 75.7916H63.2618L61.6518 70.9756H61.6098L59.9718 75.7916ZM68.3507 79.7256V79.2216L69.4847 79.0536C69.634 79.0256 69.746 78.9696 69.8207 78.8856C69.9047 78.7923 69.9467 78.6196 69.9467 78.3676V70.5556H68.9527C68.6167 70.5556 68.3367 70.5836 68.1127 70.6396C67.8887 70.6863 67.6973 70.7889 67.5387 70.9476C67.38 71.1063 67.2353 71.3349 67.1047 71.6336C66.974 71.9229 66.8293 72.3149 66.6707 72.8096L66.1107 72.6696L66.6567 69.9116H74.2867L74.8187 72.6696L74.2587 72.8096C74.1 72.3149 73.9553 71.9229 73.8247 71.6336C73.694 71.3349 73.5493 71.1063 73.3907 70.9476C73.232 70.7889 73.0407 70.6863 72.8167 70.6396C72.5927 70.5836 72.3173 70.5556 71.9907 70.5556H70.9827V78.4236C70.9827 78.6476 71.0107 78.8016 71.0667 78.8856C71.132 78.9603 71.2627 79.0163 71.4587 79.0536L72.5647 79.2216V79.7256H68.3507ZM76.5167 79.7256V79.2216L77.3287 79.0956C77.506 79.0676 77.6227 79.0069 77.6787 78.9136C77.7347 78.8203 77.7627 78.6429 77.7627 78.3816V71.2276C77.7627 70.9943 77.7347 70.8356 77.6787 70.7516C77.6227 70.6583 77.4967 70.5929 77.3007 70.5556L76.5167 70.4296V69.9116H82.7607L83.2647 72.1376L82.7047 72.3056C82.5647 71.9136 82.434 71.6009 82.3127 71.3676C82.1914 71.1343 82.0514 70.9616 81.8927 70.8496C81.734 70.7283 81.5427 70.6489 81.3187 70.6116C81.0947 70.5743 80.8147 70.5556 80.4787 70.5556H78.7987V74.3776H80.4087C80.726 74.3776 80.9594 74.3589 81.1087 74.3216C81.258 74.2749 81.37 74.1723 81.4447 74.0136C81.5194 73.8549 81.594 73.5983 81.6687 73.2436L82.1727 73.1736V76.1696L81.6687 76.2536C81.6127 75.8989 81.5427 75.6376 81.4587 75.4696C81.384 75.3016 81.258 75.1943 81.0807 75.1476C80.9127 75.1009 80.656 75.0776 80.3107 75.0776H78.7987V79.0816H80.9967C81.3234 79.0816 81.594 79.0583 81.8087 79.0116C82.0234 78.9556 82.2007 78.8623 82.3407 78.7316C82.49 78.5916 82.6114 78.4049 82.7047 78.1716C82.8074 77.9289 82.896 77.6209 82.9707 77.2476H83.5587L83.2367 79.7256H76.5167ZM88.5064 79.7256V79.2216L89.3184 79.0956C89.4957 79.0676 89.6124 79.0069 89.6684 78.9136C89.7244 78.8203 89.7524 78.6429 89.7524 78.3816V71.2136C89.7524 70.9709 89.7197 70.8076 89.6544 70.7236C89.5891 70.6396 89.4677 70.5836 89.2904 70.5556L88.5064 70.4296V69.9116H92.2584V70.4296L91.2364 70.5696C91.0591 70.5883 90.9377 70.6396 90.8724 70.7236C90.8164 70.8076 90.7884 70.9756 90.7884 71.2276V79.0816H92.7064C93.0237 79.0816 93.2851 79.0583 93.4904 79.0116C93.7051 78.9649 93.8871 78.8716 94.0364 78.7316C94.1857 78.5823 94.3211 78.3629 94.4424 78.0736C94.5731 77.7749 94.7177 77.3783 94.8764 76.8836H95.4504L95.0864 79.7256H88.5064ZM97.3176 79.7256V79.2216L98.1576 79.0956C98.335 79.0676 98.4516 79.0069 98.5076 78.9136C98.5636 78.8203 98.5916 78.6429 98.5916 78.3816V71.2136C98.5916 70.9803 98.559 70.8216 98.4936 70.7376C98.4376 70.6443 98.3163 70.5836 98.1296 70.5556L97.3176 70.4296V69.9116H100.902V70.4296L100.048 70.5556C99.8796 70.5836 99.7676 70.6489 99.7116 70.7516C99.6556 70.8449 99.6276 71.0176 99.6276 71.2696V78.4376C99.6276 78.6709 99.6556 78.8343 99.7116 78.9276C99.777 79.0116 99.8983 79.0676 100.076 79.0956L100.902 79.2216V79.7256H97.3176ZM106.345 79.9216C105.831 79.9216 105.346 79.8283 104.889 79.6416C104.441 79.4456 104.072 79.1983 103.783 78.8996L103.601 79.8096H103.125L102.831 76.7156L103.391 76.6596C103.531 77.1076 103.699 77.4949 103.895 77.8216C104.1 78.1389 104.329 78.4003 104.581 78.6056C104.833 78.8109 105.103 78.9649 105.393 79.0676C105.682 79.1609 105.985 79.2076 106.303 79.2076C106.676 79.2076 107.012 79.1423 107.311 79.0116C107.609 78.8809 107.847 78.6756 108.025 78.3956C108.202 78.1156 108.291 77.7563 108.291 77.3176C108.291 76.9909 108.225 76.7016 108.095 76.4496C107.973 76.1883 107.749 75.9503 107.423 75.7356C107.096 75.5116 106.634 75.3063 106.037 75.1196C105.495 74.9423 105.043 74.7603 104.679 74.5736C104.315 74.3776 104.021 74.1723 103.797 73.9576C103.582 73.7336 103.428 73.4816 103.335 73.2016C103.241 72.9216 103.195 72.6089 103.195 72.2636C103.195 71.9369 103.241 71.6429 103.335 71.3816C103.428 71.1109 103.559 70.8729 103.727 70.6676C103.904 70.4623 104.109 70.2896 104.343 70.1496C104.585 70.0096 104.847 69.9023 105.127 69.8276C105.416 69.7529 105.719 69.7156 106.037 69.7156C106.419 69.7156 106.788 69.7856 107.143 69.9256C107.497 70.0656 107.819 70.2569 108.109 70.4996L108.305 69.7156H108.781L109.089 72.4876L108.515 72.5716C108.347 72.0489 108.141 71.6289 107.899 71.3116C107.665 70.9943 107.395 70.7609 107.087 70.6116C106.779 70.4623 106.429 70.3876 106.037 70.3876C105.495 70.3876 105.057 70.5323 104.721 70.8216C104.394 71.1109 104.231 71.5076 104.231 72.0116C104.231 72.3289 104.291 72.6136 104.413 72.8656C104.543 73.1083 104.772 73.3323 105.099 73.5376C105.425 73.7336 105.883 73.9343 106.471 74.1396C107.031 74.3169 107.493 74.5129 107.857 74.7276C108.23 74.9329 108.519 75.1569 108.725 75.3996C108.939 75.6423 109.089 75.9036 109.173 76.1836C109.266 76.4543 109.313 76.7529 109.313 77.0796C109.313 77.4996 109.243 77.8823 109.103 78.2276C108.963 78.5729 108.762 78.8716 108.501 79.1236C108.239 79.3756 107.927 79.5716 107.563 79.7116C107.199 79.8516 106.793 79.9216 106.345 79.9216ZM112.988 79.7256V79.2216L114.122 79.0536C114.271 79.0256 114.383 78.9696 114.458 78.8856C114.542 78.7923 114.584 78.6196 114.584 78.3676V70.5556H113.59C113.254 70.5556 112.974 70.5836 112.75 70.6396C112.526 70.6863 112.334 70.7889 112.176 70.9476C112.017 71.1063 111.872 71.3349 111.742 71.6336C111.611 71.9229 111.466 72.3149 111.308 72.8096L110.748 72.6696L111.294 69.9116H118.924L119.456 72.6696L118.896 72.8096C118.737 72.3149 118.592 71.9229 118.462 71.6336C118.331 71.3349 118.186 71.1063 118.028 70.9476C117.869 70.7889 117.678 70.6863 117.454 70.6396C117.23 70.5836 116.954 70.5556 116.628 70.5556H115.62V78.4236C115.62 78.6476 115.648 78.8016 115.704 78.8856C115.769 78.9603 115.9 79.0163 116.096 79.0536L117.202 79.2216V79.7256H112.988ZM121.154 79.7256V79.2216L121.994 79.0956C122.171 79.0676 122.288 79.0069 122.344 78.9136C122.4 78.8203 122.428 78.6429 122.428 78.3816V71.2136C122.428 70.9803 122.395 70.8216 122.33 70.7376C122.274 70.6443 122.152 70.5836 121.966 70.5556L121.154 70.4296V69.9116H124.738V70.4296L123.884 70.5556C123.716 70.5836 123.604 70.6489 123.548 70.7516C123.492 70.8449 123.464 71.0176 123.464 71.2696V78.4376C123.464 78.6709 123.492 78.8343 123.548 78.9276C123.613 79.0116 123.734 79.0676 123.912 79.0956L124.738 79.2216V79.7256H121.154ZM126.807 79.7256V79.2216L127.591 79.0956C127.759 79.0769 127.875 79.0163 127.941 78.9136C128.015 78.8109 128.053 78.6336 128.053 78.3816V71.2136C128.053 70.9896 128.025 70.8356 127.969 70.7516C127.913 70.6583 127.787 70.5929 127.591 70.5556L126.807 70.4296V69.9116H129.355L134.423 78.1156V78.0596V71.2136C134.423 70.9803 134.395 70.8216 134.339 70.7376C134.283 70.6536 134.157 70.5929 133.961 70.5556L133.191 70.4296V69.9116H136.467V70.4296L135.697 70.5556C135.519 70.5836 135.398 70.6443 135.333 70.7376C135.267 70.8216 135.235 70.9896 135.235 71.2416V79.7256H134.227L128.879 71.1016L128.865 71.1576V78.4376C128.865 78.6803 128.897 78.8436 128.963 78.9276C129.028 79.0116 129.145 79.0676 129.313 79.0956L130.125 79.2216V79.7256H126.807ZM142.69 79.9216C141.822 79.9216 141.062 79.7256 140.408 79.3336C139.755 78.9323 139.246 78.3583 138.882 77.6116C138.518 76.8649 138.336 75.9689 138.336 74.9236C138.336 74.1023 138.439 73.3696 138.644 72.7256C138.859 72.0816 139.158 71.5356 139.54 71.0876C139.923 70.6396 140.38 70.2989 140.912 70.0656C141.444 69.8323 142.037 69.7156 142.69 69.7156C143.185 69.7156 143.638 69.7949 144.048 69.9536C144.468 70.1029 144.828 70.3223 145.126 70.6116L145.266 69.7016H145.756L146.33 72.8656L145.77 72.9916C145.565 72.3849 145.318 71.8996 145.028 71.5356C144.748 71.1623 144.417 70.8916 144.034 70.7236C143.652 70.5463 143.199 70.4576 142.676 70.4576C142.21 70.4576 141.78 70.5463 141.388 70.7236C140.996 70.8916 140.656 71.1529 140.366 71.5076C140.077 71.8623 139.848 72.3149 139.68 72.8656C139.522 73.4069 139.442 74.0509 139.442 74.7976C139.442 75.4696 139.517 76.0763 139.666 76.6176C139.816 77.1496 140.035 77.6069 140.324 77.9896C140.614 78.3629 140.964 78.6523 141.374 78.8576C141.785 79.0536 142.256 79.1516 142.788 79.1516C143.124 79.1516 143.446 79.1096 143.754 79.0256C144.072 78.9416 144.356 78.8249 144.608 78.6756C144.86 78.5263 145.066 78.3629 145.224 78.1856V76.3656C145.224 76.1416 145.192 75.9876 145.126 75.9036C145.07 75.8196 144.949 75.7636 144.762 75.7356L143.894 75.6096V75.0916H147.436V75.6096L146.652 75.7356C146.494 75.7636 146.382 75.8243 146.316 75.9176C146.26 76.0109 146.232 76.1836 146.232 76.4356V79.7676H145.756L145.462 79.0116C145.192 79.2076 144.907 79.3756 144.608 79.5156C144.319 79.6463 144.016 79.7443 143.698 79.8096C143.381 79.8843 143.045 79.9216 142.69 79.9216Z" fill="#47567B"/>
<path d="M230.882 15.7751C231.464 14.096 230.977 12.228 230.218 10.6189C229.276 8.62592 227.844 6.77005 225.848 5.8345C223.852 4.89895 221.237 5.09398 219.72 6.69387C218.342 8.14748 218.141 10.3812 218.522 12.3468C219.354 16.6254 222.444 20.0567 225.409 23.2504C229.048 27.1694 232.686 31.0883 236.322 35.0043" fill="white"/>
<path d="M232.196 17.3111C233.613 12.2889 231.266 5.20677 226.25 2.89683C224.267 1.98261 221.771 1.95519 219.93 3.22291C217.748 4.72223 216.962 7.50451 216.849 10.0217C216.599 15.6258 219.677 20.3828 223.27 24.3902C227.29 28.8729 231.458 33.2277 235.554 37.6372C236.484 38.6398 237.361 37.4696 237.639 36.5432C237.998 35.3426 238.02 33.3709 237.093 32.3744C234.128 29.1807 231.166 25.9901 228.201 22.7964C225.635 20.0324 222.709 17.2958 220.942 13.9193C220.418 12.9167 219.586 11.3686 219.936 10.1954C220.36 8.78747 222.143 8.29379 223.432 8.31817C225.016 8.35169 226.439 9.13182 227.5 10.2837C228.219 11.0639 229.877 13.13 229.566 14.2332C229.225 15.44 229.145 17.433 230.111 18.402C231.078 19.3711 231.922 18.2862 232.196 17.308V17.3111Z" fill="white"/>
<path d="M236.599 34.9462C239.967 31.7464 243.069 28.2663 245.864 24.5545C246.689 23.4605 247.491 22.333 248.042 21.0774C248.884 19.1545 249.091 17.0214 249.289 14.9308C249.475 12.9561 249.655 10.9265 249.103 9.02191C248.149 5.73376 244.94 3.30193 241.524 3.03681C238.108 2.77169 234.673 4.55137 232.705 7.35193C230.736 10.1525 230.209 13.8551 231.056 17.1737" fill="white"/>
<path d="M237.371 37.5763C241.021 34.084 244.498 30.29 247.393 26.1424C250.288 21.9949 251.096 16.6894 250.995 11.6764C250.907 7.15405 249.009 2.6317 244.62 0.763645C240.622 -0.936807 236.182 0.330913 233.15 3.29604C229.136 7.21805 228.524 13.5048 229.746 18.7068C229.984 19.7155 230.901 20.715 231.83 19.8008C232.818 18.8287 232.656 16.8265 232.376 15.6319C230.453 7.43441 243.496 2.11365 247.47 9.79615C248.338 11.4753 247.887 13.6359 247.689 15.4278C247.442 17.6706 246.894 19.4564 245.556 21.3001C242.679 25.2678 239.37 28.9308 235.832 32.3134C234.448 33.6391 235.356 39.5023 237.371 37.5763Z" fill="white"/>
<path d="M224.154 31.6919C224.072 31.5822 224.023 31.4968 223.956 31.4328C222.981 30.4455 221.999 29.4642 221.03 28.4708C218.224 25.6001 215.871 22.379 213.71 19.0086C213.317 18.396 212.988 17.7378 212.69 17.0735C211.273 13.9286 211.663 10.8446 213.107 7.83374C213.796 6.39537 214.862 5.27697 216.221 4.42674C218.151 3.21692 220.244 2.55259 222.514 2.57392C225.973 2.60439 228.323 4.51207 229.923 7.36749C231.075 9.42449 231.635 11.7131 231.748 14.084C231.916 17.6525 231.3 21.1235 230.301 24.5305C229.843 26.0877 229.036 27.4804 228.143 28.8243C227.552 29.7141 226.939 30.5918 226.299 31.5273C228.015 33.4624 230.09 35.0075 231.94 36.845C233.939 34.7088 236.292 33.0297 238.221 30.8691C238.071 30.6466 237.956 30.4638 237.828 30.2901C234.698 25.9841 233.863 23.9484 233.068 18.6856C232.687 16.1653 232.556 13.6451 233.061 11.1249C233.351 9.68656 233.759 8.27257 234.442 6.97742C235.841 4.32313 237.898 2.46421 240.963 1.97663C242.383 1.75112 243.791 1.9553 245.154 2.36365C247.729 3.13464 249.959 4.43589 251.258 6.90428C253.135 10.4758 253.26 14.0779 251.227 17.6464C250.746 18.4905 250.221 19.3194 249.658 20.1117C248.033 22.3942 246.44 24.7011 244.495 26.7307C243.2 28.0868 241.881 29.4185 240.57 30.7624C240.506 30.8295 240.451 30.9087 240.351 31.0336C240.54 31.2348 240.713 31.4328 240.896 31.6157C243.103 33.7976 245.693 35.431 248.436 36.8389C252.187 38.7619 256.155 40.0783 260.278 40.9255C261.826 41.2424 263.389 41.4923 264.956 41.7239C267.774 42.1414 270.596 42.5376 273.421 42.9094C277.212 43.4091 281.003 43.912 284.8 44.3477C286.272 44.5154 287.765 44.5397 289.25 44.5763C292.123 44.6433 294.997 44.6891 297.871 44.7134C299.379 44.7256 300.735 44.9024 302.247 44.8963C303.292 44.8932 304.413 45.1187 305.459 45.1248C305.995 45.1248 307.318 45.2467 307.854 45.2498C308.363 45.2528 309.414 45.3046 309.92 45.3686L309.893 46.5602C309.204 46.6211 308.601 46.615 307.9 46.6242C304.1 46.6668 299.595 46.1488 295.795 46.1305C292.8 46.1152 289.804 45.9964 286.809 45.9385C284.389 45.8928 282.009 45.4966 279.62 45.1705C276.99 44.811 274.354 44.4971 271.724 44.1436C268.564 43.72 265.385 43.3756 262.246 42.8179C256.039 41.7148 250.106 39.798 244.718 36.4154C242.874 35.2573 241.14 33.9652 239.619 32.4019C239.534 32.3135 239.446 32.2313 239.354 32.152C239.321 32.1246 239.269 32.1155 239.181 32.0819C239.071 32.1734 238.94 32.277 238.818 32.3897C237.032 34.0475 235.253 35.7084 233.464 37.3631C233.144 37.6587 232.796 37.9269 232.449 38.195C232.059 38.4998 231.721 38.5059 231.309 38.2194C231.151 38.1097 231.011 37.9695 230.87 37.8354C229.085 36.1777 227.302 34.5199 225.516 32.8651C225.464 32.8164 225.397 32.7889 225.297 32.728C225.193 32.8133 225.074 32.8895 224.977 32.987C222.6 35.4249 219.781 37.2351 216.776 38.7801C212.961 40.7396 208.923 42.0652 204.739 42.9825C202.929 43.3787 201.109 43.6773 199.266 43.8937C196.922 44.171 194.591 44.5641 192.248 44.881C189.279 45.2833 186.299 45.6094 183.34 46.0573C180.076 46.551 176.794 46.6882 173.506 46.7064C168.661 46.7339 163.812 46.7278 158.964 46.7156C157.894 46.7156 156.825 46.6455 155.755 46.5998C155.429 46.5876 155.106 46.5541 155.081 46.1122C155.063 45.7465 155.231 45.5027 155.682 45.4204C156.108 45.3412 156.55 45.3138 156.986 45.3168C163.684 45.3686 170.382 45.3656 177.078 45.1645C179.101 45.1035 181.109 44.8963 183.114 44.6098C186.104 44.1832 189.103 43.8297 192.095 43.4274C195.304 42.9977 198.528 42.6412 201.716 42.0896C207.957 41.0108 213.915 39.1032 219.302 35.6596C220.866 34.66 222.347 33.5538 223.66 32.2343C223.828 32.0637 223.986 31.8839 224.157 31.6949L224.154 31.6919ZM239.327 29.9152C239.793 29.4825 240.165 29.1717 240.5 28.8212C242.661 26.5753 244.864 24.369 246.632 21.7817C247.689 20.2367 248.829 18.7435 249.813 17.1497C251.233 14.8489 251.605 12.3805 250.846 9.72009C250.121 7.18465 248.646 5.36839 246.241 4.3018C244.657 3.59785 242.999 3.19254 241.268 3.40586C238.766 3.7167 237.057 5.2465 235.886 7.3553C234.899 9.13803 234.326 11.1067 234.25 13.1454C234.055 18.3839 234.923 24.2928 238.763 29.0955C238.885 29.2479 238.998 29.4063 239.111 29.5648C239.168 29.644 239.214 29.7293 239.327 29.9091V29.9152ZM225.205 30.5674C226.013 29.3515 226.769 28.2514 227.482 27.1269C228.362 25.7372 228.999 24.2349 229.319 22.6198C229.651 20.9498 229.987 19.2767 230.194 17.5885C230.569 14.5137 230.203 11.5241 228.957 8.65654C228.25 7.03227 227.092 5.81941 225.635 4.87471C224.782 4.32313 223.816 4.02753 222.798 4.03972C221.999 4.04887 221.186 4.10372 220.409 4.26523C218.51 4.65835 216.776 5.45981 215.478 6.92866C213.799 8.8272 213.189 11.1554 213.293 13.633C213.366 15.3669 214.094 16.9242 215.024 18.3839C217.635 22.4887 220.695 26.2279 224.163 29.6349C224.456 29.9213 224.773 30.1834 225.199 30.5674H225.205Z" fill="#47567B"/>
<path d="M175.232 79.7256L175.12 79.0116C175.876 78.1996 176.52 77.4949 177.052 76.8976C177.584 76.3003 178.018 75.7823 178.354 75.3436C178.699 74.9049 178.97 74.5176 179.166 74.1816C179.362 73.8363 179.497 73.5236 179.572 73.2436C179.656 72.9543 179.698 72.6649 179.698 72.3756C179.698 71.7969 179.534 71.3349 179.208 70.9896C178.89 70.6349 178.424 70.4576 177.808 70.4576C177.406 70.4576 177.066 70.5229 176.786 70.6536C176.506 70.7843 176.296 70.9616 176.156 71.1856C176.258 71.2976 176.338 71.4049 176.394 71.5076C176.459 71.6009 176.506 71.6896 176.534 71.7736C176.571 71.8483 176.59 71.9229 176.59 71.9976C176.59 72.1469 176.52 72.2869 176.38 72.4176C176.24 72.5483 176.072 72.6136 175.876 72.6136C175.586 72.6136 175.376 72.5249 175.246 72.3476C175.124 72.1703 175.064 71.9696 175.064 71.7456C175.064 71.3909 175.185 71.0596 175.428 70.7516C175.68 70.4436 176.02 70.1963 176.45 70.0096C176.888 69.8136 177.388 69.7156 177.948 69.7156C178.517 69.7156 179.012 69.8229 179.432 70.0376C179.861 70.2429 180.192 70.5416 180.426 70.9336C180.668 71.3163 180.79 71.7876 180.79 72.3476C180.79 72.6556 180.743 72.9683 180.65 73.2856C180.566 73.5936 180.421 73.9249 180.216 74.2796C180.02 74.6343 179.749 75.0309 179.404 75.4696C179.058 75.8989 178.629 76.3889 178.116 76.9396C177.602 77.4809 176.991 78.1063 176.282 78.8156H178.578C178.895 78.8156 179.152 78.8016 179.348 78.7736C179.553 78.7456 179.721 78.6803 179.852 78.5776C179.982 78.4749 180.094 78.3116 180.188 78.0876C180.29 77.8543 180.398 77.5416 180.51 77.1496H181.07L180.776 79.7256H175.232ZM184.276 79.9076C184.024 79.9076 183.814 79.8283 183.646 79.6696C183.487 79.5109 183.408 79.3056 183.408 79.0536C183.408 78.8016 183.487 78.5963 183.646 78.4376C183.814 78.2696 184.024 78.1856 184.276 78.1856C184.537 78.1856 184.747 78.2649 184.906 78.4236C185.065 78.5823 185.144 78.7876 185.144 79.0396C185.144 79.2916 185.065 79.5016 184.906 79.6696C184.747 79.8283 184.537 79.9076 184.276 79.9076ZM191.168 79.7256V79.2076L191.798 79.0956C191.966 79.0583 192.087 78.9976 192.162 78.9136C192.246 78.8296 192.339 78.6429 192.442 78.3536L195.438 69.9116H196.446L199.386 78.3816C199.47 78.6149 199.545 78.7783 199.61 78.8716C199.675 78.9649 199.806 79.0349 200.002 79.0816L200.548 79.1796V79.7256H197.216V79.2076L198.028 79.1096C198.215 79.0816 198.327 79.0209 198.364 78.9276C198.401 78.8249 198.378 78.6523 198.294 78.4096L197.636 76.4636H193.898L193.24 78.3536C193.165 78.5683 193.142 78.7409 193.17 78.8716C193.207 78.9929 193.338 79.0723 193.562 79.1096L194.36 79.2216V79.7256H191.168ZM194.122 75.7916H197.412L195.802 70.9756H195.76L194.122 75.7916ZM201.897 79.7256V79.2216L202.709 79.0956C202.886 79.0676 203.003 79.0069 203.059 78.9136C203.115 78.8203 203.143 78.6429 203.143 78.3816V71.2276C203.143 70.9943 203.115 70.8356 203.059 70.7516C203.003 70.6583 202.877 70.5929 202.681 70.5556L201.897 70.4296V69.9116H205.761C206.395 69.9116 206.974 69.9769 207.497 70.1076C208.029 70.2383 208.491 70.4296 208.883 70.6816C209.284 70.9336 209.62 71.2463 209.891 71.6196C210.171 71.9929 210.381 72.4223 210.521 72.9076C210.661 73.3929 210.731 73.9296 210.731 74.5176C210.731 75.3949 210.609 76.1603 210.367 76.8136C210.124 77.4669 209.774 78.0129 209.317 78.4516C208.869 78.8809 208.323 79.2029 207.679 79.4176C207.035 79.6229 206.307 79.7256 205.495 79.7256H201.897ZM205.411 79.0816C206.083 79.0816 206.675 79.0023 207.189 78.8436C207.711 78.6849 208.155 78.4329 208.519 78.0876C208.883 77.7329 209.158 77.2756 209.345 76.7156C209.531 76.1463 209.625 75.4603 209.625 74.6576C209.625 73.7523 209.475 72.9963 209.177 72.3896C208.878 71.7736 208.435 71.3163 207.847 71.0176C207.259 70.7096 206.526 70.5556 205.649 70.5556H204.179V79.0116C204.309 79.0303 204.491 79.0489 204.725 79.0676C204.967 79.0769 205.196 79.0816 205.411 79.0816ZM212.704 79.7256V79.2216L213.516 79.0956C213.693 79.0676 213.81 79.0069 213.866 78.9136C213.922 78.8203 213.95 78.6429 213.95 78.3816V71.2276C213.95 70.9943 213.922 70.8356 213.866 70.7516C213.81 70.6583 213.684 70.5929 213.488 70.5556L212.704 70.4296V69.9116H216.568C217.203 69.9116 217.781 69.9769 218.304 70.1076C218.836 70.2383 219.298 70.4296 219.69 70.6816C220.091 70.9336 220.427 71.2463 220.698 71.6196C220.978 71.9929 221.188 72.4223 221.328 72.9076C221.468 73.3929 221.538 73.9296 221.538 74.5176C221.538 75.3949 221.417 76.1603 221.174 76.8136C220.931 77.4669 220.581 78.0129 220.124 78.4516C219.676 78.8809 219.13 79.2029 218.486 79.4176C217.842 79.6229 217.114 79.7256 216.302 79.7256H212.704ZM216.218 79.0816C216.89 79.0816 217.483 79.0023 217.996 78.8436C218.519 78.6849 218.962 78.4329 219.326 78.0876C219.69 77.7329 219.965 77.2756 220.152 76.7156C220.339 76.1463 220.432 75.4603 220.432 74.6576C220.432 73.7523 220.283 72.9963 219.984 72.3896C219.685 71.7736 219.242 71.3163 218.654 71.0176C218.066 70.7096 217.333 70.5556 216.456 70.5556H214.986V79.0116C215.117 79.0303 215.299 79.0489 215.532 79.0676C215.775 79.0769 216.003 79.0816 216.218 79.0816ZM229.9 79.9216C229.386 79.9216 228.901 79.8283 228.444 79.6416C227.996 79.4456 227.627 79.1983 227.338 78.8996L227.156 79.8096H226.68L226.386 76.7156L226.946 76.6596C227.086 77.1076 227.254 77.4949 227.45 77.8216C227.655 78.1389 227.884 78.4003 228.136 78.6056C228.388 78.8109 228.658 78.9649 228.948 79.0676C229.237 79.1609 229.54 79.2076 229.858 79.2076C230.231 79.2076 230.567 79.1423 230.866 79.0116C231.164 78.8809 231.402 78.6756 231.58 78.3956C231.757 78.1156 231.846 77.7563 231.846 77.3176C231.846 76.9909 231.78 76.7016 231.65 76.4496C231.528 76.1883 231.304 75.9503 230.978 75.7356C230.651 75.5116 230.189 75.3063 229.592 75.1196C229.05 74.9423 228.598 74.7603 228.234 74.5736C227.87 74.3776 227.576 74.1723 227.352 73.9576C227.137 73.7336 226.983 73.4816 226.89 73.2016C226.796 72.9216 226.75 72.6089 226.75 72.2636C226.75 71.9369 226.796 71.6429 226.89 71.3816C226.983 71.1109 227.114 70.8729 227.282 70.6676C227.459 70.4623 227.664 70.2896 227.898 70.1496C228.14 70.0096 228.402 69.9023 228.682 69.8276C228.971 69.7529 229.274 69.7156 229.592 69.7156C229.974 69.7156 230.343 69.7856 230.698 69.9256C231.052 70.0656 231.374 70.2569 231.664 70.4996L231.86 69.7156H232.336L232.644 72.4876L232.07 72.5716C231.902 72.0489 231.696 71.6289 231.454 71.3116C231.22 70.9943 230.95 70.7609 230.642 70.6116C230.334 70.4623 229.984 70.3876 229.592 70.3876C229.05 70.3876 228.612 70.5323 228.276 70.8216C227.949 71.1109 227.786 71.5076 227.786 72.0116C227.786 72.3289 227.846 72.6136 227.968 72.8656C228.098 73.1083 228.327 73.3323 228.654 73.5376C228.98 73.7336 229.438 73.9343 230.026 74.1396C230.586 74.3169 231.048 74.5129 231.412 74.7276C231.785 74.9329 232.074 75.1569 232.28 75.3996C232.494 75.6423 232.644 75.9036 232.728 76.1836C232.821 76.4543 232.868 76.7529 232.868 77.0796C232.868 77.4996 232.798 77.8823 232.658 78.2276C232.518 78.5729 232.317 78.8716 232.056 79.1236C231.794 79.3756 231.482 79.5716 231.118 79.7116C230.754 79.8516 230.348 79.9216 229.9 79.9216ZM234.817 79.7256V79.2216L235.629 79.0956C235.807 79.0676 235.923 79.0069 235.979 78.9136C236.035 78.8203 236.063 78.6429 236.063 78.3816V71.2276C236.063 70.9943 236.035 70.8356 235.979 70.7516C235.923 70.6583 235.797 70.5929 235.601 70.5556L234.817 70.4296V69.9116H241.061L241.565 72.1376L241.005 72.3056C240.865 71.9136 240.735 71.6009 240.613 71.3676C240.492 71.1343 240.352 70.9616 240.193 70.8496C240.035 70.7283 239.843 70.6489 239.619 70.6116C239.395 70.5743 239.115 70.5556 238.779 70.5556H237.099V74.3776H238.709C239.027 74.3776 239.26 74.3589 239.409 74.3216C239.559 74.2749 239.671 74.1723 239.745 74.0136C239.82 73.8549 239.895 73.5983 239.969 73.2436L240.473 73.1736V76.1696L239.969 76.2536C239.913 75.8989 239.843 75.6376 239.759 75.4696C239.685 75.3016 239.559 75.1943 239.381 75.1476C239.213 75.1009 238.957 75.0776 238.611 75.0776H237.099V79.0816H239.297C239.624 79.0816 239.895 79.0583 240.109 79.0116C240.324 78.9556 240.501 78.8623 240.641 78.7316C240.791 78.5916 240.912 78.4049 241.005 78.1716C241.108 77.9289 241.197 77.6209 241.271 77.2476H241.859L241.537 79.7256H234.817ZM251.199 79.9216C250.9 79.9216 250.643 79.8703 250.429 79.7676C250.214 79.6743 250.023 79.5156 249.855 79.2916C249.687 79.0676 249.523 78.7643 249.365 78.3816L248.637 76.5196C248.487 76.1556 248.338 75.8803 248.189 75.6936C248.039 75.4976 247.862 75.3669 247.657 75.3016C247.461 75.2363 247.209 75.2036 246.901 75.2036C246.733 75.2036 246.583 75.2083 246.453 75.2176C246.322 75.2176 246.201 75.2269 246.089 75.2456V78.4236C246.089 78.6476 246.121 78.8109 246.187 78.9136C246.261 79.0163 246.397 79.0769 246.593 79.0956L247.643 79.2216V79.7256H243.793V79.2216L244.633 79.0956C244.801 79.0676 244.913 79.0116 244.969 78.9276C245.034 78.8343 245.067 78.6523 245.067 78.3816V71.2136C245.067 70.9803 245.034 70.8216 244.969 70.7376C244.903 70.6443 244.777 70.5836 244.591 70.5556L243.793 70.4296V69.9116H246.999C247.624 69.9116 248.17 69.9676 248.637 70.0796C249.103 70.1823 249.486 70.3409 249.785 70.5556C250.093 70.7609 250.321 71.0223 250.471 71.3396C250.62 71.6569 250.695 72.0256 250.695 72.4456C250.695 72.6603 250.662 72.8749 250.597 73.0896C250.541 73.3043 250.452 73.5096 250.331 73.7056C250.209 73.9016 250.055 74.0836 249.869 74.2516C249.682 74.4196 249.463 74.5643 249.211 74.6856C248.968 74.8069 248.693 74.8956 248.385 74.9516V74.9936C248.721 75.0869 248.991 75.2409 249.197 75.4556C249.402 75.6609 249.575 75.9409 249.715 76.2956L250.191 77.4716C250.34 77.8263 250.471 78.1296 250.583 78.3816C250.704 78.6336 250.839 78.8296 250.989 78.9696C251.147 79.1003 251.348 79.1656 251.591 79.1656C251.721 79.1656 251.843 79.1516 251.955 79.1236C252.076 79.0956 252.197 79.0583 252.319 79.0116L252.431 79.4176C252.272 79.5763 252.085 79.6976 251.871 79.7816C251.665 79.8749 251.441 79.9216 251.199 79.9216ZM247.041 74.6016C247.535 74.6016 247.974 74.5269 248.357 74.3776C248.739 74.2189 249.043 73.9809 249.267 73.6636C249.491 73.3463 249.603 72.9543 249.603 72.4876C249.603 72.0209 249.5 71.6476 249.295 71.3676C249.089 71.0876 248.791 70.8869 248.399 70.7656C248.007 70.6349 247.526 70.5696 246.957 70.5696H246.089V74.5736C246.331 74.5829 246.527 74.5923 246.677 74.6016C246.826 74.6016 246.947 74.6016 247.041 74.6016ZM256.226 79.7256L253.272 71.2836C253.178 70.9943 253.094 70.8123 253.02 70.7376C252.954 70.6536 252.833 70.5929 252.656 70.5556L252.096 70.4436V69.9116H255.414V70.4296L254.616 70.5276C254.448 70.5556 254.34 70.6116 254.294 70.6956C254.247 70.7796 254.266 70.9569 254.35 71.2276L256.828 78.6336H256.87L259.376 71.2976C259.469 71.0363 259.492 70.8543 259.446 70.7516C259.399 70.6489 259.264 70.5789 259.04 70.5416L258.312 70.4156V69.9116H261.448V70.4296L260.846 70.5276C260.678 70.5556 260.552 70.6163 260.468 70.7096C260.393 70.8029 260.304 70.9989 260.202 71.2976L257.234 79.7256H256.226ZM262.837 79.7256V79.2216L263.677 79.0956C263.855 79.0676 263.971 79.0069 264.027 78.9136C264.083 78.8203 264.111 78.6429 264.111 78.3816V71.2136C264.111 70.9803 264.079 70.8216 264.013 70.7376C263.957 70.6443 263.836 70.5836 263.649 70.5556L262.837 70.4296V69.9116H266.421V70.4296L265.567 70.5556C265.399 70.5836 265.287 70.6489 265.231 70.7516C265.175 70.8449 265.147 71.0176 265.147 71.2696V78.4376C265.147 78.6709 265.175 78.8343 265.231 78.9276C265.297 79.0116 265.418 79.0676 265.595 79.0956L266.421 79.2216V79.7256H262.837ZM272.844 79.9216C271.948 79.9216 271.164 79.7209 270.492 79.3196C269.83 78.9183 269.312 78.3396 268.938 77.5836C268.574 76.8183 268.392 75.9036 268.392 74.8396C268.392 74.0463 268.495 73.3369 268.7 72.7116C268.906 72.0769 269.2 71.5356 269.582 71.0876C269.965 70.6396 270.422 70.2989 270.954 70.0656C271.486 69.8323 272.079 69.7156 272.732 69.7156C273.236 69.7156 273.689 69.7949 274.09 69.9536C274.501 70.1029 274.856 70.3223 275.154 70.6116L275.294 69.7016H275.784L276.316 72.8656L275.77 72.9916C275.556 72.3756 275.308 71.8856 275.028 71.5216C274.748 71.1483 274.422 70.8776 274.048 70.7096C273.675 70.5416 273.232 70.4576 272.718 70.4576C272.074 70.4576 271.51 70.6163 271.024 70.9336C270.548 71.2509 270.175 71.7316 269.904 72.3756C269.634 73.0103 269.498 73.8083 269.498 74.7696C269.498 75.4509 269.578 76.0623 269.736 76.6036C269.895 77.1356 270.124 77.5929 270.422 77.9756C270.73 78.3489 271.094 78.6383 271.514 78.8436C271.944 79.0396 272.424 79.1376 272.956 79.1376C273.348 79.1376 273.717 79.0863 274.062 78.9836C274.408 78.8809 274.73 78.7129 275.028 78.4796C275.336 78.2463 275.63 77.9429 275.91 77.5696L276.428 77.9756C276.204 78.3116 275.952 78.6056 275.672 78.8576C275.392 79.1003 275.094 79.3009 274.776 79.4596C274.468 79.6183 274.151 79.7349 273.824 79.8096C273.498 79.8843 273.171 79.9216 272.844 79.9216ZM278.286 79.7256V79.2216L279.098 79.0956C279.275 79.0676 279.392 79.0069 279.448 78.9136C279.504 78.8203 279.532 78.6429 279.532 78.3816V71.2276C279.532 70.9943 279.504 70.8356 279.448 70.7516C279.392 70.6583 279.266 70.5929 279.07 70.5556L278.286 70.4296V69.9116H284.53L285.034 72.1376L284.474 72.3056C284.334 71.9136 284.203 71.6009 284.082 71.3676C283.961 71.1343 283.821 70.9616 283.662 70.8496C283.503 70.7283 283.312 70.6489 283.088 70.6116C282.864 70.5743 282.584 70.5556 282.248 70.5556H280.568V74.3776H282.178C282.495 74.3776 282.729 74.3589 282.878 74.3216C283.027 74.2749 283.139 74.1723 283.214 74.0136C283.289 73.8549 283.363 73.5983 283.438 73.2436L283.942 73.1736V76.1696L283.438 76.2536C283.382 75.8989 283.312 75.6376 283.228 75.4696C283.153 75.3016 283.027 75.1943 282.85 75.1476C282.682 75.1009 282.425 75.0776 282.08 75.0776H280.568V79.0816H282.766C283.093 79.0816 283.363 79.0583 283.578 79.0116C283.793 78.9556 283.97 78.8623 284.11 78.7316C284.259 78.5916 284.381 78.4049 284.474 78.1716C284.577 77.9289 284.665 77.6209 284.74 77.2476H285.328L285.006 79.7256H278.286ZM290.635 79.9216C290.122 79.9216 289.636 79.8283 289.179 79.6416C288.731 79.4456 288.362 79.1983 288.073 78.8996L287.891 79.8096H287.415L287.121 76.7156L287.681 76.6596C287.821 77.1076 287.989 77.4949 288.185 77.8216C288.39 78.1389 288.619 78.4003 288.871 78.6056C289.123 78.8109 289.394 78.9649 289.683 79.0676C289.972 79.1609 290.276 79.2076 290.593 79.2076C290.966 79.2076 291.302 79.1423 291.601 79.0116C291.9 78.8809 292.138 78.6756 292.315 78.3956C292.492 78.1156 292.581 77.7563 292.581 77.3176C292.581 76.9909 292.516 76.7016 292.385 76.4496C292.264 76.1883 292.04 75.9503 291.713 75.7356C291.386 75.5116 290.924 75.3063 290.327 75.1196C289.786 74.9423 289.333 74.7603 288.969 74.5736C288.605 74.3776 288.311 74.1723 288.087 73.9576C287.872 73.7336 287.718 73.4816 287.625 73.2016C287.532 72.9216 287.485 72.6089 287.485 72.2636C287.485 71.9369 287.532 71.6429 287.625 71.3816C287.718 71.1109 287.849 70.8729 288.017 70.6676C288.194 70.4623 288.4 70.2896 288.633 70.1496C288.876 70.0096 289.137 69.9023 289.417 69.8276C289.706 69.7529 290.01 69.7156 290.327 69.7156C290.71 69.7156 291.078 69.7856 291.433 69.9256C291.788 70.0656 292.11 70.2569 292.399 70.4996L292.595 69.7156H293.071L293.379 72.4876L292.805 72.5716C292.637 72.0489 292.432 71.6289 292.189 71.3116C291.956 70.9943 291.685 70.7609 291.377 70.6116C291.069 70.4623 290.719 70.3876 290.327 70.3876C289.786 70.3876 289.347 70.5323 289.011 70.8216C288.684 71.1109 288.521 71.5076 288.521 72.0116C288.521 72.3289 288.582 72.6136 288.703 72.8656C288.834 73.1083 289.062 73.3323 289.389 73.5376C289.716 73.7336 290.173 73.9343 290.761 74.1396C291.321 74.3169 291.783 74.5129 292.147 74.7276C292.52 74.9329 292.81 75.1569 293.015 75.3996C293.23 75.6423 293.379 75.9036 293.463 76.1836C293.556 76.4543 293.603 76.7529 293.603 77.0796C293.603 77.4996 293.533 77.8823 293.393 78.2276C293.253 78.5729 293.052 78.8716 292.791 79.1236C292.53 79.3756 292.217 79.5716 291.853 79.7116C291.489 79.8516 291.083 79.9216 290.635 79.9216Z" fill="#47567B"/>
<path d="M385.723 15.7751C386.305 14.096 385.817 12.228 385.058 10.6189C384.117 8.62592 382.684 6.77005 380.688 5.8345C378.692 4.89895 376.078 5.09398 374.56 6.69387C373.183 8.14748 372.982 10.3812 373.362 12.3468C374.194 16.6254 377.284 20.0567 380.25 23.2504C383.888 27.1694 387.527 31.0883 391.162 35.0043" fill="white"/>
<path d="M387.036 17.3111C388.453 12.2889 386.107 5.20677 381.091 2.89683C379.107 1.98261 376.611 1.95519 374.77 3.22291C372.589 4.72223 371.802 7.50451 371.69 10.0217C371.44 15.6258 374.518 20.3828 378.11 24.3902C382.13 28.8729 386.299 33.2277 390.394 37.6372C391.324 38.6398 392.202 37.4696 392.479 36.5432C392.839 35.3426 392.86 33.3709 391.933 32.3744C388.968 29.1807 386.006 25.9901 383.041 22.7964C380.475 20.0324 377.55 17.2958 375.782 13.9193C375.258 12.9167 374.426 11.3686 374.777 10.1954C375.2 8.78747 376.983 8.29379 378.272 8.31817C379.857 8.35169 381.28 9.13182 382.34 10.2837C383.059 11.0639 384.717 13.13 384.406 14.2332C384.065 15.44 383.986 17.433 384.952 18.402C385.918 19.3711 386.762 18.2862 387.036 17.308V17.3111Z" fill="white"/>
<path d="M391.44 34.9462C394.807 31.7464 397.909 28.2663 400.704 24.5545C401.53 23.4605 402.331 22.333 402.883 21.0774C403.724 19.1545 403.931 17.0214 404.129 14.9308C404.315 12.9561 404.495 10.9265 403.943 9.02191C402.989 5.73376 399.781 3.30193 396.364 3.03681C392.948 2.77169 389.514 4.55137 387.545 7.35193C385.577 10.1525 385.049 13.8551 385.897 17.1737" fill="white"/>
<path d="M392.211 37.5763C395.862 34.084 399.339 30.29 402.234 26.1424C405.129 21.9949 405.936 16.6894 405.836 11.6764C405.747 7.15405 403.849 2.6317 399.461 0.763645C395.462 -0.936807 391.022 0.330913 387.99 3.29604C383.977 7.21805 383.364 13.5048 384.586 18.7068C384.824 19.7155 385.741 20.715 386.671 19.8008C387.658 18.8287 387.497 16.8265 387.216 15.6319C385.293 7.43441 398.336 2.11365 402.31 9.79615C403.178 11.4753 402.727 13.6359 402.529 15.4278C402.283 17.6706 401.734 19.4564 400.396 21.3001C397.519 25.2678 394.21 28.9308 390.672 32.3134C389.288 33.6391 390.197 39.5023 392.211 37.5763Z" fill="white"/>
<path d="M378.994 31.6919C378.912 31.5822 378.863 31.4968 378.796 31.4328C377.821 30.4455 376.84 29.4642 375.871 28.4708C373.064 25.6001 370.711 22.379 368.551 19.0086C368.158 18.396 367.829 17.7378 367.53 17.0735C366.113 13.9286 366.503 10.8446 367.947 7.83374C368.636 6.39537 369.703 5.27697 371.062 4.42674C372.991 3.21692 375.084 2.55259 377.355 2.57392C380.814 2.60439 383.163 4.51207 384.763 7.36749C385.915 9.42449 386.476 11.7131 386.588 14.084C386.756 17.6525 386.14 21.1235 385.141 24.5305C384.684 26.0877 383.876 27.4804 382.983 28.8243C382.392 29.7141 381.78 30.5918 381.14 31.5273C382.855 33.4624 384.931 35.0075 386.78 36.845C388.779 34.7088 391.132 33.0297 393.061 30.8691C392.912 30.6466 392.796 30.4638 392.668 30.2901C389.538 25.9841 388.703 23.9484 387.908 18.6856C387.527 16.1653 387.396 13.6451 387.902 11.1249C388.191 9.68656 388.6 8.27257 389.282 6.97742C390.681 4.32313 392.738 2.46421 395.804 1.97663C397.224 1.75112 398.632 1.9553 399.994 2.36365C402.569 3.13464 404.8 4.43589 406.098 6.90428C407.975 10.4758 408.1 14.0779 406.067 17.6464C405.586 18.4905 405.062 19.3194 404.498 20.1117C402.874 22.3942 401.28 24.7011 399.336 26.7307C398.041 28.0868 396.721 29.4185 395.411 30.7624C395.347 30.8295 395.292 30.9087 395.191 31.0336C395.38 31.2348 395.554 31.4328 395.737 31.6157C397.943 33.7976 400.533 35.431 403.276 36.8389C407.027 38.7619 410.995 40.0783 415.118 40.9255C416.666 41.2424 418.23 41.4923 419.796 41.7239C422.615 42.1414 425.437 42.5376 428.262 42.9094C432.053 43.4091 435.844 43.912 439.641 44.3477C441.113 44.5154 442.606 44.5397 444.09 44.5763C446.964 44.6433 449.837 44.6891 452.711 44.7134C454.219 44.7256 455.576 44.9024 457.087 44.8963C458.132 44.8932 459.254 45.1187 460.299 45.1248C460.835 45.1248 462.158 45.2467 462.694 45.2498C463.203 45.2528 464.255 45.3046 464.76 45.3686L464.733 46.5602C464.044 46.6211 463.441 46.615 462.74 46.6242C458.94 46.6668 454.436 46.1488 450.636 46.1305C447.64 46.1152 444.644 45.9964 441.649 45.9385C439.229 45.8928 436.849 45.4966 434.46 45.1705C431.83 44.811 429.194 44.4971 426.564 44.1436C423.404 43.72 420.226 43.3756 417.087 42.8179C410.879 41.7148 404.946 39.798 399.558 36.4154C397.714 35.2573 395.98 33.9652 394.46 32.4019C394.374 32.3135 394.286 32.2313 394.195 32.152C394.161 32.1246 394.109 32.1155 394.021 32.0819C393.911 32.1734 393.78 32.277 393.658 32.3897C391.873 34.0475 390.093 35.7084 388.304 37.3631C387.984 37.6587 387.637 37.9269 387.289 38.195C386.899 38.4998 386.561 38.5059 386.15 38.2194C385.991 38.1097 385.851 37.9695 385.711 37.8354C383.925 36.1777 382.142 34.5199 380.356 32.8651C380.305 32.8164 380.238 32.7889 380.137 32.728C380.033 32.8133 379.915 32.8895 379.817 32.987C377.44 35.4249 374.621 37.2351 371.616 38.7801C367.801 40.7396 363.763 42.0652 359.579 42.9825C357.769 43.3787 355.95 43.6773 354.106 43.8937C351.763 44.171 349.431 44.5641 347.088 44.881C344.12 45.2833 341.139 45.6094 338.18 46.0573C334.917 46.551 331.635 46.6882 328.346 46.7064C323.501 46.7339 318.653 46.7278 313.804 46.7156C312.735 46.7156 311.665 46.6455 310.595 46.5998C310.269 46.5876 309.946 46.5541 309.922 46.1122C309.903 45.7465 310.071 45.5027 310.522 45.4204C310.949 45.3412 311.391 45.3138 311.826 45.3168C318.525 45.3686 325.223 45.3656 331.918 45.1645C333.941 45.1035 335.95 44.8963 337.955 44.6098C340.944 44.1832 343.943 43.8297 346.936 43.4274C350.144 42.9977 353.369 42.6412 356.556 42.0896C362.797 41.0108 368.755 39.1032 374.143 35.6596C375.706 34.66 377.187 33.5538 378.501 32.2343C378.668 32.0637 378.827 31.8839 378.997 31.6949L378.994 31.6919ZM394.167 29.9152C394.634 29.4825 395.005 29.1717 395.341 28.8212C397.501 26.5753 399.704 24.369 401.472 21.7817C402.529 20.2367 403.669 18.7435 404.653 17.1497C406.073 14.8489 406.445 12.3805 405.686 9.72009C404.961 7.18465 403.486 5.36839 401.082 4.3018C399.497 3.59785 397.839 3.19254 396.108 3.40586C393.607 3.7167 391.897 5.2465 390.727 7.3553C389.739 9.13803 389.166 11.1067 389.09 13.1454C388.895 18.3839 389.764 24.2928 393.603 29.0955C393.725 29.2479 393.838 29.4063 393.951 29.5648C394.009 29.644 394.055 29.7293 394.167 29.9091V29.9152ZM380.046 30.5674C380.853 29.3515 381.609 28.2514 382.322 27.1269C383.203 25.7372 383.84 24.2349 384.16 22.6198C384.492 20.9498 384.827 19.2767 385.034 17.5885C385.409 14.5137 385.043 11.5241 383.797 8.65654C383.09 7.03227 381.932 5.81941 380.475 4.87471C379.622 4.32313 378.656 4.02753 377.638 4.03972C376.84 4.04887 376.026 4.10372 375.249 4.26523C373.35 4.65835 371.616 5.45981 370.318 6.92866C368.639 8.8272 368.03 11.1554 368.133 13.633C368.206 15.3669 368.935 16.9242 369.864 18.3839C372.476 22.4887 375.535 26.2279 379.003 29.6349C379.296 29.9213 379.613 30.1834 380.039 30.5674H380.046Z" fill="#47567B"/>
<path d="M349.786 79.9216C349.338 79.9216 348.946 79.8656 348.61 79.7536C348.274 79.6416 347.98 79.4969 347.728 79.3196C347.486 79.1423 347.28 78.9463 347.112 78.7316C346.944 78.5169 346.8 78.3023 346.678 78.0876L347.196 77.6816C347.392 77.9616 347.607 78.2089 347.84 78.4236C348.083 78.6289 348.358 78.7923 348.666 78.9136C348.974 79.0256 349.329 79.0816 349.73 79.0816C350.197 79.0816 350.58 78.9883 350.878 78.8016C351.186 78.6056 351.415 78.3489 351.564 78.0316C351.714 77.7143 351.788 77.3689 351.788 76.9956C351.788 76.3236 351.56 75.8149 351.102 75.4696C350.654 75.1149 350.015 74.9423 349.184 74.9516L349.254 74.3636C349.768 74.3169 350.188 74.1863 350.514 73.9716C350.85 73.7476 351.102 73.4723 351.27 73.1456C351.438 72.8189 351.522 72.4736 351.522 72.1096C351.522 71.6336 351.378 71.2416 351.088 70.9336C350.799 70.6163 350.365 70.4576 349.786 70.4576C349.413 70.4576 349.082 70.5183 348.792 70.6396C348.503 70.7609 348.288 70.9243 348.148 71.1296C348.316 71.3163 348.428 71.4796 348.484 71.6196C348.55 71.7503 348.582 71.8576 348.582 71.9416C348.582 72.0443 348.55 72.1469 348.484 72.2496C348.428 72.3429 348.344 72.4223 348.232 72.4876C348.13 72.5436 348.008 72.5716 347.868 72.5716C347.682 72.5716 347.528 72.5296 347.406 72.4456C347.285 72.3616 347.196 72.2543 347.14 72.1236C347.084 71.9929 347.056 71.8529 347.056 71.7036C347.056 71.3676 347.168 71.0503 347.392 70.7516C347.626 70.4436 347.952 70.1963 348.372 70.0096C348.792 69.8136 349.292 69.7156 349.87 69.7156C350.44 69.7156 350.925 69.8136 351.326 70.0096C351.728 70.2056 352.031 70.4856 352.236 70.8496C352.451 71.2043 352.558 71.6196 352.558 72.0956C352.558 72.4876 352.47 72.8469 352.292 73.1736C352.124 73.5003 351.9 73.7803 351.62 74.0136C351.34 74.2469 351.032 74.4196 350.696 74.5316V74.5596C351.107 74.6436 351.476 74.7836 351.802 74.9796C352.129 75.1756 352.39 75.4416 352.586 75.7776C352.792 76.1043 352.894 76.5196 352.894 77.0236C352.894 77.4623 352.815 77.8589 352.656 78.2136C352.507 78.5683 352.292 78.8716 352.012 79.1236C351.732 79.3756 351.401 79.5716 351.018 79.7116C350.645 79.8516 350.234 79.9216 349.786 79.9216ZM356.227 79.9076C355.975 79.9076 355.765 79.8283 355.597 79.6696C355.438 79.5109 355.359 79.3056 355.359 79.0536C355.359 78.8016 355.438 78.5963 355.597 78.4376C355.765 78.2696 355.975 78.1856 356.227 78.1856C356.488 78.1856 356.698 78.2649 356.857 78.4236C357.015 78.5823 357.095 78.7876 357.095 79.0396C357.095 79.2916 357.015 79.5016 356.857 79.6696C356.698 79.8283 356.488 79.9076 356.227 79.9076ZM368.201 79.9216C367.305 79.9216 366.521 79.7209 365.849 79.3196C365.186 78.9183 364.668 78.3396 364.295 77.5836C363.931 76.8183 363.749 75.9036 363.749 74.8396C363.749 74.0463 363.851 73.3369 364.057 72.7116C364.262 72.0769 364.556 71.5356 364.939 71.0876C365.321 70.6396 365.779 70.2989 366.311 70.0656C366.843 69.8323 367.435 69.7156 368.089 69.7156C368.593 69.7156 369.045 69.7949 369.447 69.9536C369.857 70.1029 370.212 70.3223 370.511 70.6116L370.651 69.7016H371.141L371.673 72.8656L371.127 72.9916C370.912 72.3756 370.665 71.8856 370.385 71.5216C370.105 71.1483 369.778 70.8776 369.405 70.7096C369.031 70.5416 368.588 70.4576 368.075 70.4576C367.431 70.4576 366.866 70.6163 366.381 70.9336C365.905 71.2509 365.531 71.7316 365.261 72.3756C364.99 73.0103 364.855 73.8083 364.855 74.7696C364.855 75.4509 364.934 76.0623 365.093 76.6036C365.251 77.1356 365.48 77.5929 365.779 77.9756C366.087 78.3489 366.451 78.6383 366.871 78.8436C367.3 79.0396 367.781 79.1376 368.313 79.1376C368.705 79.1376 369.073 79.0863 369.419 78.9836C369.764 78.8809 370.086 78.7129 370.385 78.4796C370.693 78.2463 370.987 77.9429 371.267 77.5696L371.785 77.9756C371.561 78.3116 371.309 78.6056 371.029 78.8576C370.749 79.1003 370.45 79.3009 370.133 79.4596C369.825 79.6183 369.507 79.7349 369.181 79.8096C368.854 79.8843 368.527 79.9216 368.201 79.9216ZM377.94 79.9216C377.025 79.9216 376.237 79.7163 375.574 79.3056C374.921 78.8949 374.417 78.3209 374.062 77.5836C373.717 76.8463 373.544 75.9783 373.544 74.9796C373.544 73.8783 373.721 72.9403 374.076 72.1656C374.44 71.3816 374.958 70.7796 375.63 70.3596C376.302 69.9303 377.109 69.7156 378.052 69.7156C378.948 69.7156 379.718 69.9163 380.362 70.3176C381.006 70.7189 381.501 71.2883 381.846 72.0256C382.201 72.7536 382.378 73.6169 382.378 74.6156C382.378 75.4183 382.275 76.1463 382.07 76.7996C381.865 77.4529 381.566 78.0129 381.174 78.4796C380.791 78.9463 380.325 79.3056 379.774 79.5576C379.233 79.8003 378.621 79.9216 377.94 79.9216ZM378.066 79.1516C378.579 79.1516 379.037 79.0583 379.438 78.8716C379.839 78.6756 380.175 78.3909 380.446 78.0176C380.717 77.6349 380.917 77.1729 381.048 76.6316C381.188 76.0903 381.258 75.4743 381.258 74.7836C381.258 74.1023 381.183 73.5003 381.034 72.9776C380.894 72.4456 380.679 71.9929 380.39 71.6196C380.11 71.2369 379.76 70.9523 379.34 70.7656C378.929 70.5696 378.449 70.4716 377.898 70.4716C377.375 70.4716 376.913 70.5696 376.512 70.7656C376.111 70.9523 375.77 71.2323 375.49 71.6056C375.21 71.9696 375 72.4176 374.86 72.9496C374.72 73.4816 374.65 74.0883 374.65 74.7696C374.65 75.4416 374.725 76.0483 374.874 76.5896C375.023 77.1309 375.243 77.5929 375.532 77.9756C375.831 78.3583 376.19 78.6523 376.61 78.8576C377.039 79.0536 377.525 79.1516 378.066 79.1516ZM384.367 79.7256V79.2216L385.151 79.0956C385.319 79.0769 385.436 79.0163 385.501 78.9136C385.576 78.8109 385.613 78.6336 385.613 78.3816V71.2136C385.613 70.9896 385.585 70.8356 385.529 70.7516C385.473 70.6583 385.347 70.5929 385.151 70.5556L384.367 70.4296V69.9116H386.915L391.983 78.1156V78.0596V71.2136C391.983 70.9803 391.955 70.8216 391.899 70.7376C391.843 70.6536 391.717 70.5929 391.521 70.5556L390.751 70.4296V69.9116H394.027V70.4296L393.257 70.5556C393.08 70.5836 392.959 70.6443 392.893 70.7376C392.828 70.8216 392.795 70.9896 392.795 71.2416V79.7256H391.787L386.439 71.1016L386.425 71.1576V78.4376C386.425 78.6803 386.458 78.8436 386.523 78.9276C386.589 79.0116 386.705 79.0676 386.873 79.0956L387.685 79.2216V79.7256H384.367ZM396.063 79.7256V79.2216L396.875 79.0956C397.053 79.0676 397.169 79.0069 397.225 78.9136C397.281 78.8109 397.309 78.6336 397.309 78.3816V71.2136C397.309 70.9896 397.281 70.8356 397.225 70.7516C397.169 70.6583 397.039 70.5929 396.833 70.5556L396.063 70.4296V69.9116H402.377L402.881 72.2356L402.307 72.4316C402.167 72.0023 402.032 71.6663 401.901 71.4236C401.771 71.1716 401.626 70.9849 401.467 70.8636C401.309 70.7329 401.117 70.6489 400.893 70.6116C400.679 70.5743 400.403 70.5556 400.067 70.5556H398.345V74.6016H399.871C400.198 74.6016 400.441 74.5829 400.599 74.5456C400.758 74.4989 400.87 74.3963 400.935 74.2376C401.01 74.0696 401.08 73.8083 401.145 73.4536L401.649 73.3836V76.5756L401.145 76.6596C401.089 76.2303 401.019 75.9223 400.935 75.7356C400.861 75.5396 400.739 75.4183 400.571 75.3716C400.413 75.3156 400.161 75.2876 399.815 75.2876H398.345V78.4096C398.345 78.6523 398.383 78.8249 398.457 78.9276C398.532 79.0209 398.667 79.0769 398.863 79.0956L399.955 79.2216V79.7256H396.063ZM404.697 79.7256V79.2216L405.537 79.0956C405.714 79.0676 405.831 79.0069 405.887 78.9136C405.943 78.8203 405.971 78.6429 405.971 78.3816V71.2136C405.971 70.9803 405.938 70.8216 405.873 70.7376C405.817 70.6443 405.696 70.5836 405.509 70.5556L404.697 70.4296V69.9116H408.281V70.4296L407.427 70.5556C407.259 70.5836 407.147 70.6489 407.091 70.7516C407.035 70.8449 407.007 71.0176 407.007 71.2696V78.4376C407.007 78.6709 407.035 78.8343 407.091 78.9276C407.156 79.0116 407.278 79.0676 407.455 79.0956L408.281 79.2216V79.7256H404.697ZM417.756 79.9216C417.457 79.9216 417.201 79.8703 416.986 79.7676C416.771 79.6743 416.58 79.5156 416.412 79.2916C416.244 79.0676 416.081 78.7643 415.922 78.3816L415.194 76.5196C415.045 76.1556 414.895 75.8803 414.746 75.6936C414.597 75.4976 414.419 75.3669 414.214 75.3016C414.018 75.2363 413.766 75.2036 413.458 75.2036C413.29 75.2036 413.141 75.2083 413.01 75.2176C412.879 75.2176 412.758 75.2269 412.646 75.2456V78.4236C412.646 78.6476 412.679 78.8109 412.744 78.9136C412.819 79.0163 412.954 79.0769 413.15 79.0956L414.2 79.2216V79.7256H410.35V79.2216L411.19 79.0956C411.358 79.0676 411.47 79.0116 411.526 78.9276C411.591 78.8343 411.624 78.6523 411.624 78.3816V71.2136C411.624 70.9803 411.591 70.8216 411.526 70.7376C411.461 70.6443 411.335 70.5836 411.148 70.5556L410.35 70.4296V69.9116H413.556C414.181 69.9116 414.727 69.9676 415.194 70.0796C415.661 70.1823 416.043 70.3409 416.342 70.5556C416.65 70.7609 416.879 71.0223 417.028 71.3396C417.177 71.6569 417.252 72.0256 417.252 72.4456C417.252 72.6603 417.219 72.8749 417.154 73.0896C417.098 73.3043 417.009 73.5096 416.888 73.7056C416.767 73.9016 416.613 74.0836 416.426 74.2516C416.239 74.4196 416.02 74.5643 415.768 74.6856C415.525 74.8069 415.25 74.8956 414.942 74.9516V74.9936C415.278 75.0869 415.549 75.2409 415.754 75.4556C415.959 75.6609 416.132 75.9409 416.272 76.2956L416.748 77.4716C416.897 77.8263 417.028 78.1296 417.14 78.3816C417.261 78.6336 417.397 78.8296 417.546 78.9696C417.705 79.1003 417.905 79.1656 418.148 79.1656C418.279 79.1656 418.4 79.1516 418.512 79.1236C418.633 79.0956 418.755 79.0583 418.876 79.0116L418.988 79.4176C418.829 79.5763 418.643 79.6976 418.428 79.7816C418.223 79.8749 417.999 79.9216 417.756 79.9216ZM413.598 74.6016C414.093 74.6016 414.531 74.5269 414.914 74.3776C415.297 74.2189 415.6 73.9809 415.824 73.6636C416.048 73.3463 416.16 72.9543 416.16 72.4876C416.16 72.0209 416.057 71.6476 415.852 71.3676C415.647 71.0876 415.348 70.8869 414.956 70.7656C414.564 70.6349 414.083 70.5696 413.514 70.5696H412.646V74.5736C412.889 74.5829 413.085 74.5923 413.234 74.6016C413.383 74.6016 413.505 74.6016 413.598 74.6016ZM420.115 79.7256V79.2216L420.941 79.0956C421.146 79.0676 421.267 78.9883 421.305 78.8576C421.342 78.7176 421.365 78.5449 421.375 78.3396L421.823 71.1996C421.841 70.9663 421.818 70.8076 421.753 70.7236C421.697 70.6303 421.58 70.5743 421.403 70.5556L420.605 70.4296V69.9116H423.321L426.023 77.2756L426.065 77.2056L428.809 69.9116H431.511V70.4296L430.671 70.5416C430.512 70.5603 430.4 70.6116 430.335 70.6956C430.279 70.7796 430.255 70.9663 430.265 71.2556L430.727 78.4376C430.736 78.6896 430.773 78.8576 430.839 78.9416C430.904 79.0256 431.021 79.0769 431.189 79.0956L432.029 79.2216V79.7256H428.347V79.2216L429.243 79.1096C429.401 79.0909 429.518 79.0396 429.593 78.9556C429.677 78.8623 429.709 78.6756 429.691 78.3956L429.229 70.9756L429.215 70.9196L426.401 78.2696H425.421L422.649 70.9196L422.635 70.9756L422.187 78.4516C422.177 78.6476 422.196 78.7969 422.243 78.8996C422.299 78.9929 422.434 79.0583 422.649 79.0956L423.447 79.2216V79.7256H420.115Z" fill="#47567B"/>
</svg>
