<svg width="465" height="100" viewBox="0 0 465 100" fill="none" xmlns="http://www.w3.org/2000/svg">
<path d="M75.8024 15.7751C76.3844 14.096 75.8968 12.228 75.138 10.6189C74.1964 8.62592 72.7641 6.77005 70.768 5.8345C68.772 4.89895 66.1573 5.09398 64.6397 6.69387C63.2623 8.14748 63.0612 10.3812 63.4421 12.3468C64.274 16.6254 67.3641 20.0567 70.3292 23.2504C73.9678 27.1694 77.6064 31.0883 81.242 35.0043" fill="#CCD7E6"/>
<path d="M77.1158 17.3111C78.5329 12.2889 76.1864 5.20677 71.1704 2.89683C69.1865 1.98261 66.6907 1.95519 64.85 3.22291C62.6681 4.72223 61.8819 7.50451 61.7691 10.0217C61.5192 15.6258 64.5971 20.3828 68.19 24.3902C72.2095 28.8729 76.3784 33.2277 80.4741 37.6372C81.4035 38.6398 82.2812 37.4696 82.5585 36.5432C82.9181 35.3426 82.9394 33.3709 82.013 32.3744C79.0479 29.1807 76.0858 25.9901 73.1207 22.7964C70.5548 20.0324 67.6293 17.2958 65.8618 13.9193C65.3376 12.9167 64.5057 11.3686 64.8561 10.1954C65.2797 8.78747 67.0625 8.29379 68.3515 8.31817C69.9362 8.35169 71.3593 9.13182 72.4198 10.2837C73.139 11.0639 74.7968 13.13 74.4859 14.2332C74.1446 15.44 74.0654 17.433 75.0314 18.402C75.9974 19.3711 76.8416 18.2862 77.1158 17.308V17.3111Z" fill="#CCD7E6"/>
<path d="M81.5194 34.9462C84.8868 31.7464 87.989 28.2663 90.7835 24.5545C91.6093 23.4605 92.4108 22.333 92.9624 21.0774C93.8035 19.1545 94.0107 17.0214 94.2088 14.9308C94.3947 12.9561 94.5745 10.9265 94.0229 9.02191C93.069 5.73376 89.8601 3.30193 86.444 3.03681C83.0278 2.77169 79.5934 4.55137 77.6248 7.35193C75.6562 10.1525 75.129 13.8551 75.9761 17.1737" fill="#CCD7E6"/>
<path d="M82.2904 37.5763C85.9412 34.084 89.4183 30.29 92.3134 26.1424C95.2084 21.9949 96.016 16.6894 95.9154 11.6764C95.827 7.15405 93.9285 2.6317 89.5402 0.763645C85.542 -0.936807 81.1019 0.330913 78.0698 3.29604C74.0563 7.21805 73.4438 13.5048 74.6658 18.7068C74.9035 19.7155 75.8208 20.715 76.7503 19.8008C77.7376 18.8287 77.5761 16.8265 77.2957 15.6319C75.3728 7.43441 88.4157 2.11365 92.3895 9.79615C93.2581 11.4753 92.807 13.6359 92.609 15.4278C92.3621 17.6706 91.8136 19.4564 90.4758 21.3001C87.599 25.2678 84.2895 28.9308 80.7515 32.3134C79.368 33.6391 80.2761 39.5023 82.2904 37.5763Z" fill="#CCD7E6"/>
<path d="M69.0738 31.6919C68.9915 31.5822 68.9428 31.4968 68.8757 31.4328C67.9006 30.4455 66.9193 29.4642 65.9502 28.4708C63.1436 25.6001 60.791 22.379 58.6304 19.0086C58.2372 18.396 57.9081 17.7378 57.6095 17.0735C56.1924 13.9286 56.5825 10.8446 58.027 7.83374C58.7157 6.39537 59.7823 5.27697 61.1414 4.42674C63.0704 3.21692 65.164 2.55259 67.4343 2.57392C70.8931 2.60439 73.2427 4.51207 74.8426 7.36749C75.9945 9.42449 76.5552 11.7131 76.668 14.084C76.8356 17.6525 76.22 21.1235 75.2204 24.5305C74.7633 26.0877 73.9558 27.4804 73.0629 28.8243C72.4717 29.7141 71.8591 30.5918 71.2192 31.5273C72.9349 33.4624 75.0102 35.0075 76.8599 36.845C78.859 34.7088 81.2116 33.0297 83.1406 30.8691C82.9913 30.6466 82.8755 30.4638 82.7475 30.2901C79.6178 25.9841 78.7828 23.9484 77.9875 18.6856C77.6066 16.1653 77.4755 13.6451 77.9814 11.1249C78.2709 9.68656 78.6792 8.27257 79.3619 6.97742C80.7606 4.32313 82.8176 2.46421 85.8833 1.97663C87.3034 1.75112 88.7113 1.9553 90.0735 2.36365C92.6485 3.13464 94.8792 4.43589 96.1774 6.90428C98.0546 10.4758 98.1796 14.0779 96.147 17.6464C95.6655 18.4905 95.1413 19.3194 94.5776 20.1117C92.9533 22.3942 91.3595 24.7011 89.4152 26.7307C88.1201 28.0868 86.8006 29.4185 85.4902 30.7624C85.4262 30.8295 85.3713 30.9087 85.2708 31.0336C85.4597 31.2348 85.6334 31.4328 85.8163 31.6157C88.0226 33.7976 90.6129 35.431 93.3555 36.8389C97.1069 38.7619 101.075 40.0783 105.198 40.9255C106.746 41.2424 108.309 41.4923 109.876 41.7239C112.694 42.1414 115.516 42.5376 118.341 42.9094C122.132 43.4091 125.923 43.912 129.72 44.3477C131.192 44.5154 132.685 44.5397 134.169 44.5763C137.043 44.6433 139.917 44.6891 142.791 44.7134C144.299 44.7256 145.655 44.9024 147.167 44.8963C148.212 44.8932 149.333 45.1187 150.379 45.1248C150.915 45.1248 152.238 45.2467 152.774 45.2498C153.283 45.2528 154.334 45.3046 154.84 45.3686L154.813 46.5602C154.124 46.6211 153.52 46.615 152.82 46.6242C149.019 46.6668 144.515 46.1488 140.715 46.1305C137.72 46.1152 134.724 45.9964 131.728 45.9385C129.309 45.8928 126.929 45.4966 124.54 45.1705C121.91 44.811 119.274 44.4971 116.644 44.1436C113.484 43.72 110.305 43.3756 107.166 42.8179C100.959 41.7148 95.0255 39.798 89.6377 36.4154C87.794 35.2573 86.0601 33.9652 84.5394 32.4019C84.4541 32.3135 84.3657 32.2313 84.2743 32.152C84.2408 32.1246 84.1889 32.1155 84.1006 32.0819C83.9909 32.1734 83.8598 32.277 83.7379 32.3897C81.9521 34.0475 80.1725 35.7084 78.3836 37.3631C78.0637 37.6587 77.7163 37.9269 77.3689 38.195C76.9788 38.4998 76.6405 38.5059 76.2291 38.2194C76.0707 38.1097 75.9305 37.9695 75.7903 37.8354C74.0045 36.1777 72.2218 34.5199 70.436 32.8651C70.3842 32.8164 70.3172 32.7889 70.2166 32.728C70.113 32.8133 69.9941 32.8895 69.8966 32.987C67.5196 35.4249 64.7008 37.2351 61.696 38.7801C57.8807 40.7396 53.8429 42.0652 49.6588 42.9825C47.8486 43.3787 46.0293 43.6773 44.1857 43.8937C41.8422 44.171 39.5109 44.5641 37.1675 44.881C34.1993 45.2833 31.219 45.6094 28.2599 46.0573C24.9962 46.551 21.7141 46.6882 18.4259 46.7064C13.5806 46.7339 8.73215 46.7278 3.88373 46.7156C2.81409 46.7156 1.74445 46.6455 0.674814 46.5998C0.348741 46.5876 0.0257167 46.5541 0.00133747 46.1122C-0.016947 45.7465 0.15066 45.5027 0.601676 45.4204C1.02831 45.3412 1.47019 45.3138 1.90597 45.3168C8.60416 45.3686 15.3024 45.3656 21.9975 45.1645C24.021 45.1035 26.0292 44.8963 28.0344 44.6098C31.0239 44.1832 34.0226 43.8297 37.0151 43.4274C40.224 42.9977 43.4482 42.6412 46.6358 42.0896C52.8769 41.0108 58.8345 39.1032 64.2223 35.6596C65.7857 34.66 67.2667 33.5538 68.5801 32.2343C68.7477 32.0637 68.9062 31.8839 69.0769 31.6949L69.0738 31.6919ZM84.2468 29.9152C84.7131 29.4825 85.0849 29.1717 85.4201 28.8212C87.5807 26.5753 89.784 24.369 91.5515 21.7817C92.6089 20.2367 93.7487 18.7435 94.733 17.1497C96.1531 14.8489 96.5248 12.3805 95.766 9.72009C95.0408 7.18465 93.5658 5.36839 91.1614 4.3018C89.5768 3.59785 87.919 3.19254 86.188 3.40586C83.6861 3.7167 81.9765 5.2465 80.8063 7.3553C79.819 9.13803 79.2461 11.1067 79.1699 13.1454C78.9748 18.3839 79.8433 24.2928 83.6831 29.0955C83.805 29.2479 83.9177 29.4063 84.0305 29.5648C84.0884 29.644 84.1341 29.7293 84.2468 29.9091V29.9152ZM70.1252 30.5674C70.9327 29.3515 71.6885 28.2514 72.4016 27.1269C73.2823 25.7372 73.9192 24.2349 74.2392 22.6198C74.5713 20.9498 74.9065 19.2767 75.1138 17.5885C75.4886 14.5137 75.1229 11.5241 73.8765 8.65654C73.1695 7.03227 72.0115 5.81941 70.5549 4.87471C69.7016 4.32313 68.7356 4.02753 67.7177 4.03972C66.9193 4.04887 66.1056 4.10372 65.3286 4.26523C63.43 4.65835 61.696 5.45981 60.3979 6.92866C58.7187 8.8272 58.1093 11.1554 58.2129 13.633C58.286 15.3669 59.0143 16.9242 59.9438 18.3839C62.5554 22.4887 65.615 26.2279 69.083 29.6349C69.3755 29.9213 69.6924 30.1834 70.1191 30.5674H70.1252Z" fill="#47567B"/>
<path d="M11.5779 79.7256V79.2216L12.8099 79.0536C13.0153 79.0256 13.1506 78.9509 13.2159 78.8296C13.2813 78.7083 13.3139 78.5309 13.3139 78.2976V71.7036C13.3139 71.3956 13.2859 71.1763 13.2299 71.0456C13.1739 70.9056 12.9826 70.8216 12.6559 70.7936L11.5079 70.6956L11.5779 70.2056L14.2099 69.7856L14.3499 69.9116V78.3396C14.3499 78.5729 14.3779 78.7409 14.4339 78.8436C14.4993 78.9463 14.6439 79.0163 14.8679 79.0536L16.0579 79.2216V79.7256H11.5779ZM18.7677 79.9076C18.5157 79.9076 18.3057 79.8283 18.1377 79.6696C17.979 79.5109 17.8997 79.3056 17.8997 79.0536C17.8997 78.8016 17.979 78.5963 18.1377 78.4376C18.3057 78.2696 18.5157 78.1856 18.7677 78.1856C19.029 78.1856 19.239 78.2649 19.3977 78.4236C19.5564 78.5823 19.6357 78.7876 19.6357 79.0396C19.6357 79.2916 19.5564 79.5016 19.3977 79.6696C19.239 79.8283 19.029 79.9076 18.7677 79.9076ZM29.3693 79.9216C28.4733 79.9216 27.6893 79.7209 27.0173 79.3196C26.3546 78.9183 25.8366 78.3396 25.4633 77.5836C25.0993 76.8183 24.9173 75.9036 24.9173 74.8396C24.9173 74.0463 25.02 73.3369 25.2253 72.7116C25.4306 72.0769 25.7246 71.5356 26.1073 71.0876C26.49 70.6396 26.9473 70.2989 27.4793 70.0656C28.0113 69.8323 28.604 69.7156 29.2573 69.7156C29.7613 69.7156 30.214 69.7949 30.6153 69.9536C31.026 70.1029 31.3806 70.3223 31.6793 70.6116L31.8193 69.7016H32.3093L32.8413 72.8656L32.2953 72.9916C32.0806 72.3756 31.8333 71.8856 31.5533 71.5216C31.2733 71.1483 30.9466 70.8776 30.5733 70.7096C30.2 70.5416 29.7566 70.4576 29.2433 70.4576C28.5993 70.4576 28.0346 70.6163 27.5493 70.9336C27.0733 71.2509 26.7 71.7316 26.4293 72.3756C26.1586 73.0103 26.0233 73.8083 26.0233 74.7696C26.0233 75.4509 26.1026 76.0623 26.2613 76.6036C26.42 77.1356 26.6486 77.5929 26.9473 77.9756C27.2553 78.3489 27.6193 78.6383 28.0393 78.8436C28.4686 79.0396 28.9493 79.1376 29.4813 79.1376C29.8733 79.1376 30.242 79.0863 30.5873 78.9836C30.9326 78.8809 31.2546 78.7129 31.5533 78.4796C31.8613 78.2463 32.1553 77.9429 32.4353 77.5696L32.9533 77.9756C32.7293 78.3116 32.4773 78.6056 32.1973 78.8576C31.9173 79.1003 31.6186 79.3009 31.3013 79.4596C30.9933 79.6183 30.676 79.7349 30.3493 79.8096C30.0226 79.8843 29.696 79.9216 29.3693 79.9216ZM42.2169 79.9216C41.9183 79.9216 41.6616 79.8703 41.4469 79.7676C41.2323 79.6743 41.0409 79.5156 40.8729 79.2916C40.7049 79.0676 40.5416 78.7643 40.3829 78.3816L39.6549 76.5196C39.5056 76.1556 39.3563 75.8803 39.2069 75.6936C39.0576 75.4976 38.8803 75.3669 38.6749 75.3016C38.4789 75.2363 38.2269 75.2036 37.9189 75.2036C37.7509 75.2036 37.6016 75.2083 37.4709 75.2176C37.3403 75.2176 37.2189 75.2269 37.1069 75.2456V78.4236C37.1069 78.6476 37.1396 78.8109 37.2049 78.9136C37.2796 79.0163 37.4149 79.0769 37.6109 79.0956L38.6609 79.2216V79.7256H34.8109V79.2216L35.6509 79.0956C35.8189 79.0676 35.9309 79.0116 35.9869 78.9276C36.0523 78.8343 36.0849 78.6523 36.0849 78.3816V71.2136C36.0849 70.9803 36.0523 70.8216 35.9869 70.7376C35.9216 70.6443 35.7956 70.5836 35.6089 70.5556L34.8109 70.4296V69.9116H38.0169C38.6423 69.9116 39.1883 69.9676 39.6549 70.0796C40.1216 70.1823 40.5043 70.3409 40.8029 70.5556C41.1109 70.7609 41.3396 71.0223 41.4889 71.3396C41.6383 71.6569 41.7129 72.0256 41.7129 72.4456C41.7129 72.6603 41.6803 72.8749 41.6149 73.0896C41.5589 73.3043 41.4703 73.5096 41.3489 73.7056C41.2276 73.9016 41.0736 74.0836 40.8869 74.2516C40.7003 74.4196 40.4809 74.5643 40.2289 74.6856C39.9863 74.8069 39.7109 74.8956 39.4029 74.9516V74.9936C39.7389 75.0869 40.0096 75.2409 40.2149 75.4556C40.4203 75.6609 40.5929 75.9409 40.7329 76.2956L41.2089 77.4716C41.3583 77.8263 41.4889 78.1296 41.6009 78.3816C41.7223 78.6336 41.8576 78.8296 42.0069 78.9696C42.1656 79.1003 42.3663 79.1656 42.6089 79.1656C42.7396 79.1656 42.8609 79.1516 42.9729 79.1236C43.0943 79.0956 43.2156 79.0583 43.3369 79.0116L43.4489 79.4176C43.2903 79.5763 43.1036 79.6976 42.8889 79.7816C42.6836 79.8749 42.4596 79.9216 42.2169 79.9216ZM38.0589 74.6016C38.5536 74.6016 38.9923 74.5269 39.3749 74.3776C39.7576 74.2189 40.0609 73.9809 40.2849 73.6636C40.5089 73.3463 40.6209 72.9543 40.6209 72.4876C40.6209 72.0209 40.5183 71.6476 40.3129 71.3676C40.1076 71.0876 39.8089 70.8869 39.4169 70.7656C39.0249 70.6349 38.5443 70.5696 37.9749 70.5696H37.1069V74.5736C37.3496 74.5829 37.5456 74.5923 37.6949 74.6016C37.8443 74.6016 37.9656 74.6016 38.0589 74.6016ZM44.7296 79.7256V79.2216L45.5416 79.0956C45.7189 79.0676 45.8356 79.0069 45.8916 78.9136C45.9476 78.8203 45.9756 78.6429 45.9756 78.3816V71.2276C45.9756 70.9943 45.9476 70.8356 45.8916 70.7516C45.8356 70.6583 45.7096 70.5929 45.5136 70.5556L44.7296 70.4296V69.9116H50.9736L51.4776 72.1376L50.9176 72.3056C50.7776 71.9136 50.6469 71.6009 50.5256 71.3676C50.4043 71.1343 50.2643 70.9616 50.1056 70.8496C49.9469 70.7283 49.7556 70.6489 49.5316 70.6116C49.3076 70.5743 49.0276 70.5556 48.6916 70.5556H47.0116V74.3776H48.6216C48.9389 74.3776 49.1723 74.3589 49.3216 74.3216C49.4709 74.2749 49.5829 74.1723 49.6576 74.0136C49.7323 73.8549 49.8069 73.5983 49.8816 73.2436L50.3856 73.1736V76.1696L49.8816 76.2536C49.8256 75.8989 49.7556 75.6376 49.6716 75.4696C49.5969 75.3016 49.4709 75.1943 49.2936 75.1476C49.1256 75.1009 48.8689 75.0776 48.5236 75.0776H47.0116V79.0816H49.2096C49.5363 79.0816 49.8069 79.0583 50.0216 79.0116C50.2363 78.9556 50.4136 78.8623 50.5536 78.7316C50.7029 78.5916 50.8243 78.4049 50.9176 78.1716C51.0203 77.9289 51.1089 77.6209 51.1836 77.2476H51.7716L51.4496 79.7256H44.7296ZM52.9769 79.7256V79.2076L53.6069 79.0956C53.7749 79.0583 53.8962 78.9976 53.9709 78.9136C54.0549 78.8296 54.1482 78.6429 54.2509 78.3536L57.2469 69.9116H58.2549L61.1949 78.3816C61.2789 78.6149 61.3536 78.7783 61.4189 78.8716C61.4842 78.9649 61.6149 79.0349 61.8109 79.0816L62.3569 79.1796V79.7256H59.0249V79.2076L59.8369 79.1096C60.0236 79.0816 60.1356 79.0209 60.1729 78.9276C60.2102 78.8249 60.1869 78.6523 60.1029 78.4096L59.4449 76.4636H55.7069L55.0489 78.3536C54.9742 78.5683 54.9509 78.7409 54.9789 78.8716C55.0162 78.9929 55.1469 79.0723 55.3709 79.1096L56.1689 79.2216V79.7256H52.9769ZM55.9309 75.7916H59.2209L57.6109 70.9756H57.5689L55.9309 75.7916ZM64.3098 79.7256V79.2216L65.4438 79.0536C65.5931 79.0256 65.7051 78.9696 65.7798 78.8856C65.8638 78.7923 65.9058 78.6196 65.9058 78.3676V70.5556H64.9118C64.5758 70.5556 64.2958 70.5836 64.0718 70.6396C63.8478 70.6863 63.6565 70.7889 63.4978 70.9476C63.3391 71.1063 63.1945 71.3349 63.0638 71.6336C62.9331 71.9229 62.7885 72.3149 62.6298 72.8096L62.0698 72.6696L62.6158 69.9116H70.2458L70.7778 72.6696L70.2178 72.8096C70.0591 72.3149 69.9145 71.9229 69.7838 71.6336C69.6531 71.3349 69.5085 71.1063 69.3498 70.9476C69.1911 70.7889 68.9998 70.6863 68.7758 70.6396C68.5518 70.5836 68.2765 70.5556 67.9498 70.5556H66.9418V78.4236C66.9418 78.6476 66.9698 78.8016 67.0258 78.8856C67.0911 78.9603 67.2218 79.0163 67.4178 79.0536L68.5238 79.2216V79.7256H64.3098ZM72.4758 79.7256V79.2216L73.2878 79.0956C73.4652 79.0676 73.5818 79.0069 73.6378 78.9136C73.6938 78.8203 73.7218 78.6429 73.7218 78.3816V71.2276C73.7218 70.9943 73.6938 70.8356 73.6378 70.7516C73.5818 70.6583 73.4558 70.5929 73.2598 70.5556L72.4758 70.4296V69.9116H78.7198L79.2238 72.1376L78.6638 72.3056C78.5238 71.9136 78.3932 71.6009 78.2718 71.3676C78.1505 71.1343 78.0105 70.9616 77.8518 70.8496C77.6932 70.7283 77.5018 70.6489 77.2778 70.6116C77.0538 70.5743 76.7738 70.5556 76.4378 70.5556H74.7578V74.3776H76.3678C76.6852 74.3776 76.9185 74.3589 77.0678 74.3216C77.2172 74.2749 77.3292 74.1723 77.4038 74.0136C77.4785 73.8549 77.5532 73.5983 77.6278 73.2436L78.1318 73.1736V76.1696L77.6278 76.2536C77.5718 75.8989 77.5018 75.6376 77.4178 75.4696C77.3432 75.3016 77.2172 75.1943 77.0398 75.1476C76.8718 75.1009 76.6152 75.0776 76.2698 75.0776H74.7578V79.0816H76.9558C77.2825 79.0816 77.5532 79.0583 77.7678 79.0116C77.9825 78.9556 78.1598 78.8623 78.2998 78.7316C78.4492 78.5916 78.5705 78.4049 78.6638 78.1716C78.7665 77.9289 78.8552 77.6209 78.9298 77.2476H79.5178L79.1958 79.7256H72.4758ZM84.4655 79.7256V79.2216L85.2775 79.0956C85.4549 79.0676 85.5715 79.0069 85.6275 78.9136C85.6835 78.8203 85.7115 78.6429 85.7115 78.3816V71.2136C85.7115 70.9709 85.6789 70.8076 85.6135 70.7236C85.5482 70.6396 85.4269 70.5836 85.2495 70.5556L84.4655 70.4296V69.9116H88.2175V70.4296L87.1955 70.5696C87.0182 70.5883 86.8969 70.6396 86.8315 70.7236C86.7755 70.8076 86.7475 70.9756 86.7475 71.2276V79.0816H88.6655C88.9829 79.0816 89.2442 79.0583 89.4495 79.0116C89.6642 78.9649 89.8462 78.8716 89.9955 78.7316C90.1449 78.5823 90.2802 78.3629 90.4015 78.0736C90.5322 77.7749 90.6769 77.3783 90.8355 76.8836H91.4095L91.0455 79.7256H84.4655ZM93.2768 79.7256V79.2216L94.1168 79.0956C94.2941 79.0676 94.4108 79.0069 94.4668 78.9136C94.5228 78.8203 94.5508 78.6429 94.5508 78.3816V71.2136C94.5508 70.9803 94.5181 70.8216 94.4528 70.7376C94.3968 70.6443 94.2754 70.5836 94.0888 70.5556L93.2768 70.4296V69.9116H96.8608V70.4296L96.0068 70.5556C95.8388 70.5836 95.7268 70.6489 95.6708 70.7516C95.6148 70.8449 95.5868 71.0176 95.5868 71.2696V78.4376C95.5868 78.6709 95.6148 78.8343 95.6708 78.9276C95.7361 79.0116 95.8574 79.0676 96.0348 79.0956L96.8608 79.2216V79.7256H93.2768ZM102.304 79.9216C101.79 79.9216 101.305 79.8283 100.848 79.6416C100.4 79.4456 100.031 79.1983 99.7418 78.8996L99.5598 79.8096H99.0838L98.7898 76.7156L99.3498 76.6596C99.4898 77.1076 99.6578 77.4949 99.8538 77.8216C100.059 78.1389 100.288 78.4003 100.54 78.6056C100.792 78.8109 101.062 78.9649 101.352 79.0676C101.641 79.1609 101.944 79.2076 102.262 79.2076C102.635 79.2076 102.971 79.1423 103.27 79.0116C103.568 78.8809 103.806 78.6756 103.984 78.3956C104.161 78.1156 104.25 77.7563 104.25 77.3176C104.25 76.9909 104.184 76.7016 104.054 76.4496C103.932 76.1883 103.708 75.9503 103.382 75.7356C103.055 75.5116 102.593 75.3063 101.996 75.1196C101.454 74.9423 101.002 74.7603 100.638 74.5736C100.274 74.3776 99.9798 74.1723 99.7558 73.9576C99.5412 73.7336 99.3872 73.4816 99.2938 73.2016C99.2005 72.9216 99.1538 72.6089 99.1538 72.2636C99.1538 71.9369 99.2005 71.6429 99.2938 71.3816C99.3872 71.1109 99.5178 70.8729 99.6858 70.6676C99.8632 70.4623 100.068 70.2896 100.302 70.1496C100.544 70.0096 100.806 69.9023 101.086 69.8276C101.375 69.7529 101.678 69.7156 101.996 69.7156C102.378 69.7156 102.747 69.7856 103.102 69.9256C103.456 70.0656 103.778 70.2569 104.068 70.4996L104.264 69.7156H104.74L105.048 72.4876L104.474 72.5716C104.306 72.0489 104.1 71.6289 103.858 71.3116C103.624 70.9943 103.354 70.7609 103.046 70.6116C102.738 70.4623 102.388 70.3876 101.996 70.3876C101.454 70.3876 101.016 70.5323 100.68 70.8216C100.353 71.1109 100.19 71.5076 100.19 72.0116C100.19 72.3289 100.25 72.6136 100.372 72.8656C100.502 73.1083 100.731 73.3323 101.058 73.5376C101.384 73.7336 101.842 73.9343 102.43 74.1396C102.99 74.3169 103.452 74.5129 103.816 74.7276C104.189 74.9329 104.478 75.1569 104.684 75.3996C104.898 75.6423 105.048 75.9036 105.132 76.1836C105.225 76.4543 105.272 76.7529 105.272 77.0796C105.272 77.4996 105.202 77.8823 105.062 78.2276C104.922 78.5729 104.721 78.8716 104.46 79.1236C104.198 79.3756 103.886 79.5716 103.522 79.7116C103.158 79.8516 102.752 79.9216 102.304 79.9216ZM108.947 79.7256V79.2216L110.081 79.0536C110.23 79.0256 110.342 78.9696 110.417 78.8856C110.501 78.7923 110.543 78.6196 110.543 78.3676V70.5556H109.549C109.213 70.5556 108.933 70.5836 108.709 70.6396C108.485 70.6863 108.293 70.7889 108.135 70.9476C107.976 71.1063 107.831 71.3349 107.701 71.6336C107.57 71.9229 107.425 72.3149 107.267 72.8096L106.707 72.6696L107.253 69.9116H114.883L115.415 72.6696L114.855 72.8096C114.696 72.3149 114.551 71.9229 114.421 71.6336C114.29 71.3349 114.145 71.1063 113.987 70.9476C113.828 70.7889 113.637 70.6863 113.413 70.6396C113.189 70.5836 112.913 70.5556 112.587 70.5556H111.579V78.4236C111.579 78.6476 111.607 78.8016 111.663 78.8856C111.728 78.9603 111.859 79.0163 112.055 79.0536L113.161 79.2216V79.7256H108.947ZM117.113 79.7256V79.2216L117.953 79.0956C118.13 79.0676 118.247 79.0069 118.303 78.9136C118.359 78.8203 118.387 78.6429 118.387 78.3816V71.2136C118.387 70.9803 118.354 70.8216 118.289 70.7376C118.233 70.6443 118.112 70.5836 117.925 70.5556L117.113 70.4296V69.9116H120.697V70.4296L119.843 70.5556C119.675 70.5836 119.563 70.6489 119.507 70.7516C119.451 70.8449 119.423 71.0176 119.423 71.2696V78.4376C119.423 78.6709 119.451 78.8343 119.507 78.9276C119.572 79.0116 119.694 79.0676 119.871 79.0956L120.697 79.2216V79.7256H117.113ZM122.766 79.7256V79.2216L123.55 79.0956C123.718 79.0769 123.835 79.0163 123.9 78.9136C123.975 78.8109 124.012 78.6336 124.012 78.3816V71.2136C124.012 70.9896 123.984 70.8356 123.928 70.7516C123.872 70.6583 123.746 70.5929 123.55 70.5556L122.766 70.4296V69.9116H125.314L130.382 78.1156V78.0596V71.2136C130.382 70.9803 130.354 70.8216 130.298 70.7376C130.242 70.6536 130.116 70.5929 129.92 70.5556L129.15 70.4296V69.9116H132.426V70.4296L131.656 70.5556C131.479 70.5836 131.357 70.6443 131.292 70.7376C131.227 70.8216 131.194 70.9896 131.194 71.2416V79.7256H130.186L124.838 71.1016L124.824 71.1576V78.4376C124.824 78.6803 124.857 78.8436 124.922 78.9276C124.987 79.0116 125.104 79.0676 125.272 79.0956L126.084 79.2216V79.7256H122.766ZM138.65 79.9216C137.782 79.9216 137.021 79.7256 136.368 79.3336C135.714 78.9323 135.206 78.3583 134.842 77.6116C134.478 76.8649 134.296 75.9689 134.296 74.9236C134.296 74.1023 134.398 73.3696 134.604 72.7256C134.818 72.0816 135.117 71.5356 135.5 71.0876C135.882 70.6396 136.34 70.2989 136.872 70.0656C137.404 69.8323 137.996 69.7156 138.65 69.7156C139.144 69.7156 139.597 69.7949 140.008 69.9536C140.428 70.1029 140.787 70.3223 141.086 70.6116L141.226 69.7016H141.716L142.29 72.8656L141.73 72.9916C141.524 72.3849 141.277 71.8996 140.988 71.5356C140.708 71.1623 140.376 70.8916 139.994 70.7236C139.611 70.5463 139.158 70.4576 138.636 70.4576C138.169 70.4576 137.74 70.5463 137.348 70.7236C136.956 70.8916 136.615 71.1529 136.326 71.5076C136.036 71.8623 135.808 72.3149 135.64 72.8656C135.481 73.4069 135.402 74.0509 135.402 74.7976C135.402 75.4696 135.476 76.0763 135.626 76.6176C135.775 77.1496 135.994 77.6069 136.284 77.9896C136.573 78.3629 136.923 78.6523 137.334 78.8576C137.744 79.0536 138.216 79.1516 138.748 79.1516C139.084 79.1516 139.406 79.1096 139.714 79.0256C140.031 78.9416 140.316 78.8249 140.568 78.6756C140.82 78.5263 141.025 78.3629 141.184 78.1856V76.3656C141.184 76.1416 141.151 75.9876 141.086 75.9036C141.03 75.8196 140.908 75.7636 140.722 75.7356L139.854 75.6096V75.0916H143.396V75.6096L142.612 75.7356C142.453 75.7636 142.341 75.8243 142.276 75.9176C142.22 76.0109 142.192 76.1836 142.192 76.4356V79.7676H141.716L141.422 79.0116C141.151 79.2076 140.866 79.3756 140.568 79.5156C140.278 79.6463 139.975 79.7443 139.658 79.8096C139.34 79.8843 139.004 79.9216 138.65 79.9216Z" fill="#47567B"/>
<path d="M230.642 15.7751C231.224 14.096 230.737 12.228 229.978 10.6189C229.036 8.62592 227.604 6.77005 225.608 5.8345C223.612 4.89895 220.997 5.09398 219.48 6.69387C218.102 8.14748 217.901 10.3812 218.282 12.3468C219.114 16.6254 222.204 20.0567 225.169 23.2504C228.808 27.1694 232.446 31.0883 236.082 35.0043" fill="#667593"/>
<path d="M231.956 17.3111C233.373 12.2889 231.026 5.20677 226.01 2.89683C224.026 1.98261 221.531 1.95519 219.69 3.22291C217.508 4.72223 216.722 7.50451 216.609 10.0217C216.359 15.6258 219.437 20.3828 223.03 24.3902C227.049 28.8729 231.218 33.2277 235.314 37.6372C236.243 38.6398 237.121 37.4696 237.398 36.5432C237.758 35.3426 237.779 33.3709 236.853 32.3744C233.888 29.1807 230.926 25.9901 227.961 22.7964C225.395 20.0324 222.469 17.2958 220.702 13.9193C220.177 12.9167 219.346 11.3686 219.696 10.1954C220.12 8.78747 221.902 8.29379 223.191 8.31817C224.776 8.35169 226.199 9.13182 227.26 10.2837C227.979 11.0639 229.637 13.13 229.326 14.2332C228.984 15.44 228.905 17.433 229.871 18.402C230.837 19.3711 231.681 18.2862 231.956 17.308V17.3111Z" fill="#667593"/>
<path d="M236.359 34.9462C239.727 31.7464 242.829 28.2663 245.623 24.5545C246.449 23.4605 247.251 22.333 247.802 21.0774C248.643 19.1545 248.851 17.0214 249.049 14.9308C249.235 12.9561 249.414 10.9265 248.863 9.02191C247.909 5.73376 244.7 3.30193 241.284 3.03681C237.868 2.77169 234.433 4.55137 232.465 7.35193C230.496 10.1525 229.969 13.8551 230.816 17.1737" fill="#667593"/>
<path d="M237.13 37.5763C240.781 34.084 244.258 30.29 247.153 26.1424C250.048 21.9949 250.856 16.6894 250.755 11.6764C250.667 7.15405 248.768 2.6317 244.38 0.763645C240.382 -0.936807 235.942 0.330913 232.91 3.29604C228.896 7.21805 228.284 13.5048 229.506 18.7068C229.743 19.7155 230.661 20.715 231.59 19.8008C232.577 18.8287 232.416 16.8265 232.136 15.6319C230.213 7.43441 243.256 2.11365 247.229 9.79615C248.098 11.4753 247.647 13.6359 247.449 15.4278C247.202 17.6706 246.653 19.4564 245.316 21.3001C242.439 25.2678 239.129 28.9308 235.591 32.3134C234.208 33.6391 235.116 39.5023 237.13 37.5763Z" fill="#667593"/>
<path d="M223.914 31.6919C223.831 31.5822 223.783 31.4968 223.716 31.4328C222.74 30.4455 221.759 29.4642 220.79 28.4708C217.983 25.6001 215.631 22.379 213.47 19.0086C213.077 18.396 212.748 17.7378 212.449 17.0735C211.032 13.9286 211.422 10.8446 212.867 7.83374C213.556 6.39537 214.622 5.27697 215.981 4.42674C217.91 3.21692 220.004 2.55259 222.274 2.57392C225.733 2.60439 228.083 4.51207 229.682 7.36749C230.834 9.42449 231.395 11.7131 231.508 14.084C231.675 17.6525 231.06 21.1235 230.06 24.5305C229.603 26.0877 228.796 27.4804 227.903 28.8243C227.312 29.7141 226.699 30.5918 226.059 31.5273C227.775 33.4624 229.85 35.0075 231.7 36.845C233.699 34.7088 236.051 33.0297 237.98 30.8691C237.831 30.6466 237.715 30.4638 237.587 30.2901C234.458 25.9841 233.623 23.9484 232.827 18.6856C232.446 16.1653 232.315 13.6451 232.821 11.1249C233.111 9.68656 233.519 8.27257 234.202 6.97742C235.6 4.32313 237.657 2.46421 240.723 1.97663C242.143 1.75112 243.551 1.9553 244.913 2.36365C247.488 3.13464 249.719 4.43589 251.017 6.90428C252.894 10.4758 253.019 14.0779 250.987 17.6464C250.505 18.4905 249.981 19.3194 249.417 20.1117C247.793 22.3942 246.199 24.7011 244.255 26.7307C242.96 28.0868 241.64 29.4185 240.33 30.7624C240.266 30.8295 240.211 30.9087 240.111 31.0336C240.3 31.2348 240.473 31.4328 240.656 31.6157C242.862 33.7976 245.453 35.431 248.195 36.8389C251.947 38.7619 255.914 40.0783 260.038 40.9255C261.586 41.2424 263.149 41.4923 264.715 41.7239C267.534 42.1414 270.356 42.5376 273.181 42.9094C276.972 43.4091 280.763 43.912 284.56 44.3477C286.032 44.5154 287.525 44.5397 289.009 44.5763C291.883 44.6433 294.757 44.6891 297.63 44.7134C299.139 44.7256 300.495 44.9024 302.006 44.8963C303.052 44.8932 304.173 45.1187 305.218 45.1248C305.755 45.1248 307.077 45.2467 307.614 45.2498C308.123 45.2528 309.174 45.3046 309.68 45.3686L309.652 46.5602C308.964 46.6211 308.36 46.615 307.659 46.6242C303.859 46.6668 299.355 46.1488 295.555 46.1305C292.56 46.1152 289.564 45.9964 286.568 45.9385C284.149 45.8928 281.769 45.4966 279.379 45.1705C276.75 44.811 274.114 44.4971 271.484 44.1436C268.323 43.72 265.145 43.3756 262.006 42.8179C255.799 41.7148 249.865 39.798 244.478 36.4154C242.634 35.2573 240.9 33.9652 239.379 32.4019C239.294 32.3135 239.206 32.2313 239.114 32.152C239.081 32.1246 239.029 32.1155 238.94 32.0819C238.831 32.1734 238.7 32.277 238.578 32.3897C236.792 34.0475 235.012 35.7084 233.223 37.3631C232.904 37.6587 232.556 37.9269 232.209 38.195C231.819 38.4998 231.48 38.5059 231.069 38.2194C230.911 38.1097 230.77 37.9695 230.63 37.8354C228.844 36.1777 227.062 34.5199 225.276 32.8651C225.224 32.8164 225.157 32.7889 225.056 32.728C224.953 32.8133 224.834 32.8895 224.736 32.987C222.359 35.4249 219.541 37.2351 216.536 38.7801C212.721 40.7396 208.683 42.0652 204.499 42.9825C202.688 43.3787 200.869 43.6773 199.026 43.8937C196.682 44.171 194.351 44.5641 192.007 44.881C189.039 45.2833 186.059 45.6094 183.1 46.0573C179.836 46.551 176.554 46.6882 173.266 46.7064C168.42 46.7339 163.572 46.7278 158.724 46.7156C157.654 46.7156 156.584 46.6455 155.515 46.5998C155.189 46.5876 154.866 46.5541 154.841 46.1122C154.823 45.7465 154.991 45.5027 155.442 45.4204C155.868 45.3412 156.31 45.3138 156.746 45.3168C163.444 45.3686 170.142 45.3656 176.837 45.1645C178.861 45.1035 180.869 44.8963 182.874 44.6098C185.864 44.1832 188.862 43.8297 191.855 43.4274C195.064 42.9977 198.288 42.6412 201.476 42.0896C207.717 41.0108 213.674 39.1032 219.062 35.6596C220.626 34.66 222.107 33.5538 223.42 32.2343C223.588 32.0637 223.746 31.8839 223.917 31.6949L223.914 31.6919ZM239.087 29.9152C239.553 29.4825 239.925 29.1717 240.26 28.8212C242.421 26.5753 244.624 24.369 246.391 21.7817C247.449 20.2367 248.589 18.7435 249.573 17.1497C250.993 14.8489 251.365 12.3805 250.606 9.72009C249.881 7.18465 248.406 5.36839 246.001 4.3018C244.417 3.59785 242.759 3.19254 241.028 3.40586C238.526 3.7167 236.816 5.2465 235.646 7.3553C234.659 9.13803 234.086 11.1067 234.01 13.1454C233.815 18.3839 234.683 24.2928 238.523 29.0955C238.645 29.2479 238.758 29.4063 238.87 29.5648C238.928 29.644 238.974 29.7293 239.087 29.9091V29.9152ZM224.965 30.5674C225.773 29.3515 226.528 28.2514 227.241 27.1269C228.122 25.7372 228.759 24.2349 229.079 22.6198C229.411 20.9498 229.746 19.2767 229.954 17.5885C230.328 14.5137 229.963 11.5241 228.716 8.65654C228.009 7.03227 226.851 5.81941 225.395 4.87471C224.541 4.32313 223.575 4.02753 222.558 4.03972C221.759 4.04887 220.945 4.10372 220.168 4.26523C218.27 4.65835 216.536 5.45981 215.238 6.92866C213.559 8.8272 212.949 11.1554 213.053 13.633C213.126 15.3669 213.854 16.9242 214.784 18.3839C217.395 22.4887 220.455 26.2279 223.923 29.6349C224.215 29.9213 224.532 30.1834 224.959 30.5674H224.965Z" fill="#47567B"/>
<path d="M174.991 79.7256L174.879 79.0116C175.635 78.1996 176.279 77.4949 176.811 76.8976C177.343 76.3003 177.777 75.7823 178.113 75.3436C178.459 74.9049 178.729 74.5176 178.925 74.1816C179.121 73.8363 179.257 73.5236 179.331 73.2436C179.415 72.9543 179.457 72.6649 179.457 72.3756C179.457 71.7969 179.294 71.3349 178.967 70.9896C178.65 70.6349 178.183 70.4576 177.567 70.4576C177.166 70.4576 176.825 70.5229 176.545 70.6536C176.265 70.7843 176.055 70.9616 175.915 71.1856C176.018 71.2976 176.097 71.4049 176.153 71.5076C176.219 71.6009 176.265 71.6896 176.293 71.7736C176.331 71.8483 176.349 71.9229 176.349 71.9976C176.349 72.1469 176.279 72.2869 176.139 72.4176C175.999 72.5483 175.831 72.6136 175.635 72.6136C175.346 72.6136 175.136 72.5249 175.005 72.3476C174.884 72.1703 174.823 71.9696 174.823 71.7456C174.823 71.3909 174.945 71.0596 175.187 70.7516C175.439 70.4436 175.78 70.1963 176.209 70.0096C176.648 69.8136 177.147 69.7156 177.707 69.7156C178.277 69.7156 178.771 69.8229 179.191 70.0376C179.621 70.2429 179.952 70.5416 180.185 70.9336C180.428 71.3163 180.549 71.7876 180.549 72.3476C180.549 72.6556 180.503 72.9683 180.409 73.2856C180.325 73.5936 180.181 73.9249 179.975 74.2796C179.779 74.6343 179.509 75.0309 179.163 75.4696C178.818 75.8989 178.389 76.3889 177.875 76.9396C177.362 77.4809 176.751 78.1063 176.041 78.8156H178.337C178.655 78.8156 178.911 78.8016 179.107 78.7736C179.313 78.7456 179.481 78.6803 179.611 78.5776C179.742 78.4749 179.854 78.3116 179.947 78.0876C180.05 77.8543 180.157 77.5416 180.269 77.1496H180.829L180.535 79.7256H174.991ZM184.036 79.9076C183.784 79.9076 183.574 79.8283 183.406 79.6696C183.247 79.5109 183.168 79.3056 183.168 79.0536C183.168 78.8016 183.247 78.5963 183.406 78.4376C183.574 78.2696 183.784 78.1856 184.036 78.1856C184.297 78.1856 184.507 78.2649 184.666 78.4236C184.825 78.5823 184.904 78.7876 184.904 79.0396C184.904 79.2916 184.825 79.5016 184.666 79.6696C184.507 79.8283 184.297 79.9076 184.036 79.9076ZM190.928 79.7256V79.2076L191.558 79.0956C191.726 79.0583 191.847 78.9976 191.922 78.9136C192.006 78.8296 192.099 78.6429 192.202 78.3536L195.198 69.9116H196.206L199.146 78.3816C199.23 78.6149 199.304 78.7783 199.37 78.8716C199.435 78.9649 199.566 79.0349 199.762 79.0816L200.308 79.1796V79.7256H196.976V79.2076L197.788 79.1096C197.974 79.0816 198.086 79.0209 198.124 78.9276C198.161 78.8249 198.138 78.6523 198.054 78.4096L197.396 76.4636H193.658L193 78.3536C192.925 78.5683 192.902 78.7409 192.93 78.8716C192.967 78.9929 193.098 79.0723 193.322 79.1096L194.12 79.2216V79.7256H190.928ZM193.882 75.7916H197.172L195.562 70.9756H195.52L193.882 75.7916ZM201.656 79.7256V79.2216L202.468 79.0956C202.646 79.0676 202.762 79.0069 202.818 78.9136C202.874 78.8203 202.902 78.6429 202.902 78.3816V71.2276C202.902 70.9943 202.874 70.8356 202.818 70.7516C202.762 70.6583 202.636 70.5929 202.44 70.5556L201.656 70.4296V69.9116H205.52C206.155 69.9116 206.734 69.9769 207.256 70.1076C207.788 70.2383 208.25 70.4296 208.642 70.6816C209.044 70.9336 209.38 71.2463 209.65 71.6196C209.93 71.9929 210.14 72.4223 210.28 72.9076C210.42 73.3929 210.49 73.9296 210.49 74.5176C210.49 75.3949 210.369 76.1603 210.126 76.8136C209.884 77.4669 209.534 78.0129 209.076 78.4516C208.628 78.8809 208.082 79.2029 207.438 79.4176C206.794 79.6229 206.066 79.7256 205.254 79.7256H201.656ZM205.17 79.0816C205.842 79.0816 206.435 79.0023 206.948 78.8436C207.471 78.6849 207.914 78.4329 208.278 78.0876C208.642 77.7329 208.918 77.2756 209.104 76.7156C209.291 76.1463 209.384 75.4603 209.384 74.6576C209.384 73.7523 209.235 72.9963 208.936 72.3896C208.638 71.7736 208.194 71.3163 207.606 71.0176C207.018 70.7096 206.286 70.5556 205.408 70.5556H203.938V79.0116C204.069 79.0303 204.251 79.0489 204.484 79.0676C204.727 79.0769 204.956 79.0816 205.17 79.0816ZM212.464 79.7256V79.2216L213.276 79.0956C213.453 79.0676 213.57 79.0069 213.626 78.9136C213.682 78.8203 213.71 78.6429 213.71 78.3816V71.2276C213.71 70.9943 213.682 70.8356 213.626 70.7516C213.57 70.6583 213.444 70.5929 213.248 70.5556L212.464 70.4296V69.9116H216.328C216.962 69.9116 217.541 69.9769 218.064 70.1076C218.596 70.2383 219.058 70.4296 219.45 70.6816C219.851 70.9336 220.187 71.2463 220.458 71.6196C220.738 71.9929 220.948 72.4223 221.088 72.9076C221.228 73.3929 221.298 73.9296 221.298 74.5176C221.298 75.3949 221.176 76.1603 220.934 76.8136C220.691 77.4669 220.341 78.0129 219.884 78.4516C219.436 78.8809 218.89 79.2029 218.246 79.4176C217.602 79.6229 216.874 79.7256 216.062 79.7256H212.464ZM215.978 79.0816C216.65 79.0816 217.242 79.0023 217.756 78.8436C218.278 78.6849 218.722 78.4329 219.086 78.0876C219.45 77.7329 219.725 77.2756 219.912 76.7156C220.098 76.1463 220.192 75.4603 220.192 74.6576C220.192 73.7523 220.042 72.9963 219.744 72.3896C219.445 71.7736 219.002 71.3163 218.414 71.0176C217.826 70.7096 217.093 70.5556 216.216 70.5556H214.746V79.0116C214.876 79.0303 215.058 79.0489 215.292 79.0676C215.534 79.0769 215.763 79.0816 215.978 79.0816ZM229.66 79.9216C229.146 79.9216 228.661 79.8283 228.204 79.6416C227.756 79.4456 227.387 79.1983 227.098 78.8996L226.916 79.8096H226.44L226.146 76.7156L226.706 76.6596C226.846 77.1076 227.014 77.4949 227.21 77.8216C227.415 78.1389 227.644 78.4003 227.896 78.6056C228.148 78.8109 228.418 78.9649 228.708 79.0676C228.997 79.1609 229.3 79.2076 229.618 79.2076C229.991 79.2076 230.327 79.1423 230.626 79.0116C230.924 78.8809 231.162 78.6756 231.34 78.3956C231.517 78.1156 231.606 77.7563 231.606 77.3176C231.606 76.9909 231.54 76.7016 231.41 76.4496C231.288 76.1883 231.064 75.9503 230.738 75.7356C230.411 75.5116 229.949 75.3063 229.352 75.1196C228.81 74.9423 228.358 74.7603 227.994 74.5736C227.63 74.3776 227.336 74.1723 227.112 73.9576C226.897 73.7336 226.743 73.4816 226.65 73.2016C226.556 72.9216 226.51 72.6089 226.51 72.2636C226.51 71.9369 226.556 71.6429 226.65 71.3816C226.743 71.1109 226.874 70.8729 227.042 70.6676C227.219 70.4623 227.424 70.2896 227.658 70.1496C227.9 70.0096 228.162 69.9023 228.442 69.8276C228.731 69.7529 229.034 69.7156 229.352 69.7156C229.734 69.7156 230.103 69.7856 230.458 69.9256C230.812 70.0656 231.134 70.2569 231.424 70.4996L231.62 69.7156H232.096L232.404 72.4876L231.83 72.5716C231.662 72.0489 231.456 71.6289 231.214 71.3116C230.98 70.9943 230.71 70.7609 230.402 70.6116C230.094 70.4623 229.744 70.3876 229.352 70.3876C228.81 70.3876 228.372 70.5323 228.036 70.8216C227.709 71.1109 227.546 71.5076 227.546 72.0116C227.546 72.3289 227.606 72.6136 227.728 72.8656C227.858 73.1083 228.087 73.3323 228.414 73.5376C228.74 73.7336 229.198 73.9343 229.786 74.1396C230.346 74.3169 230.808 74.5129 231.172 74.7276C231.545 74.9329 231.834 75.1569 232.04 75.3996C232.254 75.6423 232.404 75.9036 232.488 76.1836C232.581 76.4543 232.628 76.7529 232.628 77.0796C232.628 77.4996 232.558 77.8823 232.418 78.2276C232.278 78.5729 232.077 78.8716 231.816 79.1236C231.554 79.3756 231.242 79.5716 230.878 79.7116C230.514 79.8516 230.108 79.9216 229.66 79.9216ZM234.577 79.7256V79.2216L235.389 79.0956C235.567 79.0676 235.683 79.0069 235.739 78.9136C235.795 78.8203 235.823 78.6429 235.823 78.3816V71.2276C235.823 70.9943 235.795 70.8356 235.739 70.7516C235.683 70.6583 235.557 70.5929 235.361 70.5556L234.577 70.4296V69.9116H240.821L241.325 72.1376L240.765 72.3056C240.625 71.9136 240.495 71.6009 240.373 71.3676C240.252 71.1343 240.112 70.9616 239.953 70.8496C239.795 70.7283 239.603 70.6489 239.379 70.6116C239.155 70.5743 238.875 70.5556 238.539 70.5556H236.859V74.3776H238.469C238.787 74.3776 239.02 74.3589 239.169 74.3216C239.319 74.2749 239.431 74.1723 239.505 74.0136C239.58 73.8549 239.655 73.5983 239.729 73.2436L240.233 73.1736V76.1696L239.729 76.2536C239.673 75.8989 239.603 75.6376 239.519 75.4696C239.445 75.3016 239.319 75.1943 239.141 75.1476C238.973 75.1009 238.717 75.0776 238.371 75.0776H236.859V79.0816H239.057C239.384 79.0816 239.655 79.0583 239.869 79.0116C240.084 78.9556 240.261 78.8623 240.401 78.7316C240.551 78.5916 240.672 78.4049 240.765 78.1716C240.868 77.9289 240.957 77.6209 241.031 77.2476H241.619L241.297 79.7256H234.577ZM250.959 79.9216C250.66 79.9216 250.403 79.8703 250.189 79.7676C249.974 79.6743 249.783 79.5156 249.615 79.2916C249.447 79.0676 249.283 78.7643 249.125 78.3816L248.397 76.5196C248.247 76.1556 248.098 75.8803 247.949 75.6936C247.799 75.4976 247.622 75.3669 247.417 75.3016C247.221 75.2363 246.969 75.2036 246.661 75.2036C246.493 75.2036 246.343 75.2083 246.213 75.2176C246.082 75.2176 245.961 75.2269 245.849 75.2456V78.4236C245.849 78.6476 245.881 78.8109 245.947 78.9136C246.021 79.0163 246.157 79.0769 246.353 79.0956L247.403 79.2216V79.7256H243.553V79.2216L244.393 79.0956C244.561 79.0676 244.673 79.0116 244.729 78.9276C244.794 78.8343 244.827 78.6523 244.827 78.3816V71.2136C244.827 70.9803 244.794 70.8216 244.729 70.7376C244.663 70.6443 244.537 70.5836 244.351 70.5556L243.553 70.4296V69.9116H246.759C247.384 69.9116 247.93 69.9676 248.397 70.0796C248.863 70.1823 249.246 70.3409 249.545 70.5556C249.853 70.7609 250.081 71.0223 250.231 71.3396C250.38 71.6569 250.455 72.0256 250.455 72.4456C250.455 72.6603 250.422 72.8749 250.357 73.0896C250.301 73.3043 250.212 73.5096 250.091 73.7056C249.969 73.9016 249.815 74.0836 249.629 74.2516C249.442 74.4196 249.223 74.5643 248.971 74.6856C248.728 74.8069 248.453 74.8956 248.145 74.9516V74.9936C248.481 75.0869 248.751 75.2409 248.957 75.4556C249.162 75.6609 249.335 75.9409 249.475 76.2956L249.951 77.4716C250.1 77.8263 250.231 78.1296 250.343 78.3816C250.464 78.6336 250.599 78.8296 250.749 78.9696C250.907 79.1003 251.108 79.1656 251.351 79.1656C251.481 79.1656 251.603 79.1516 251.715 79.1236C251.836 79.0956 251.957 79.0583 252.079 79.0116L252.191 79.4176C252.032 79.5763 251.845 79.6976 251.631 79.7816C251.425 79.8749 251.201 79.9216 250.959 79.9216ZM246.801 74.6016C247.295 74.6016 247.734 74.5269 248.117 74.3776C248.499 74.2189 248.803 73.9809 249.027 73.6636C249.251 73.3463 249.363 72.9543 249.363 72.4876C249.363 72.0209 249.26 71.6476 249.055 71.3676C248.849 71.0876 248.551 70.8869 248.159 70.7656C247.767 70.6349 247.286 70.5696 246.717 70.5696H245.849V74.5736C246.091 74.5829 246.287 74.5923 246.437 74.6016C246.586 74.6016 246.707 74.6016 246.801 74.6016ZM255.986 79.7256L253.032 71.2836C252.938 70.9943 252.854 70.8123 252.78 70.7376C252.714 70.6536 252.593 70.5929 252.416 70.5556L251.856 70.4436V69.9116H255.174V70.4296L254.376 70.5276C254.208 70.5556 254.1 70.6116 254.054 70.6956C254.007 70.7796 254.026 70.9569 254.11 71.2276L256.588 78.6336H256.63L259.136 71.2976C259.229 71.0363 259.252 70.8543 259.206 70.7516C259.159 70.6489 259.024 70.5789 258.8 70.5416L258.072 70.4156V69.9116H261.208V70.4296L260.606 70.5276C260.438 70.5556 260.312 70.6163 260.228 70.7096C260.153 70.8029 260.064 70.9989 259.962 71.2976L256.994 79.7256H255.986ZM262.597 79.7256V79.2216L263.437 79.0956C263.614 79.0676 263.731 79.0069 263.787 78.9136C263.843 78.8203 263.871 78.6429 263.871 78.3816V71.2136C263.871 70.9803 263.838 70.8216 263.773 70.7376C263.717 70.6443 263.596 70.5836 263.409 70.5556L262.597 70.4296V69.9116H266.181V70.4296L265.327 70.5556C265.159 70.5836 265.047 70.6489 264.991 70.7516C264.935 70.8449 264.907 71.0176 264.907 71.2696V78.4376C264.907 78.6709 264.935 78.8343 264.991 78.9276C265.056 79.0116 265.178 79.0676 265.355 79.0956L266.181 79.2216V79.7256H262.597ZM272.604 79.9216C271.708 79.9216 270.924 79.7209 270.252 79.3196C269.589 78.9183 269.071 78.3396 268.698 77.5836C268.334 76.8183 268.152 75.9036 268.152 74.8396C268.152 74.0463 268.255 73.3369 268.46 72.7116C268.665 72.0769 268.959 71.5356 269.342 71.0876C269.725 70.6396 270.182 70.2989 270.714 70.0656C271.246 69.8323 271.839 69.7156 272.492 69.7156C272.996 69.7156 273.449 69.7949 273.85 69.9536C274.261 70.1029 274.615 70.3223 274.914 70.6116L275.054 69.7016H275.544L276.076 72.8656L275.53 72.9916C275.315 72.3756 275.068 71.8856 274.788 71.5216C274.508 71.1483 274.181 70.8776 273.808 70.7096C273.435 70.5416 272.991 70.4576 272.478 70.4576C271.834 70.4576 271.269 70.6163 270.784 70.9336C270.308 71.2509 269.935 71.7316 269.664 72.3756C269.393 73.0103 269.258 73.8083 269.258 74.7696C269.258 75.4509 269.337 76.0623 269.496 76.6036C269.655 77.1356 269.883 77.5929 270.182 77.9756C270.49 78.3489 270.854 78.6383 271.274 78.8436C271.703 79.0396 272.184 79.1376 272.716 79.1376C273.108 79.1376 273.477 79.0863 273.822 78.9836C274.167 78.8809 274.489 78.7129 274.788 78.4796C275.096 78.2463 275.39 77.9429 275.67 77.5696L276.188 77.9756C275.964 78.3116 275.712 78.6056 275.432 78.8576C275.152 79.1003 274.853 79.3009 274.536 79.4596C274.228 79.6183 273.911 79.7349 273.584 79.8096C273.257 79.8843 272.931 79.9216 272.604 79.9216ZM278.046 79.7256V79.2216L278.858 79.0956C279.035 79.0676 279.152 79.0069 279.208 78.9136C279.264 78.8203 279.292 78.6429 279.292 78.3816V71.2276C279.292 70.9943 279.264 70.8356 279.208 70.7516C279.152 70.6583 279.026 70.5929 278.83 70.5556L278.046 70.4296V69.9116H284.29L284.794 72.1376L284.234 72.3056C284.094 71.9136 283.963 71.6009 283.842 71.3676C283.72 71.1343 283.58 70.9616 283.422 70.8496C283.263 70.7283 283.072 70.6489 282.848 70.6116C282.624 70.5743 282.344 70.5556 282.008 70.5556H280.328V74.3776H281.938C282.255 74.3776 282.488 74.3589 282.638 74.3216C282.787 74.2749 282.899 74.1723 282.974 74.0136C283.048 73.8549 283.123 73.5983 283.198 73.2436L283.702 73.1736V76.1696L283.198 76.2536C283.142 75.8989 283.072 75.6376 282.988 75.4696C282.913 75.3016 282.787 75.1943 282.61 75.1476C282.442 75.1009 282.185 75.0776 281.84 75.0776H280.328V79.0816H282.526C282.852 79.0816 283.123 79.0583 283.338 79.0116C283.552 78.9556 283.73 78.8623 283.87 78.7316C284.019 78.5916 284.14 78.4049 284.234 78.1716C284.336 77.9289 284.425 77.6209 284.5 77.2476H285.088L284.766 79.7256H278.046ZM290.395 79.9216C289.882 79.9216 289.396 79.8283 288.939 79.6416C288.491 79.4456 288.122 79.1983 287.833 78.8996L287.651 79.8096H287.175L286.881 76.7156L287.441 76.6596C287.581 77.1076 287.749 77.4949 287.945 77.8216C288.15 78.1389 288.379 78.4003 288.631 78.6056C288.883 78.8109 289.154 78.9649 289.443 79.0676C289.732 79.1609 290.036 79.2076 290.353 79.2076C290.726 79.2076 291.062 79.1423 291.361 79.0116C291.66 78.8809 291.898 78.6756 292.075 78.3956C292.252 78.1156 292.341 77.7563 292.341 77.3176C292.341 76.9909 292.276 76.7016 292.145 76.4496C292.024 76.1883 291.8 75.9503 291.473 75.7356C291.146 75.5116 290.684 75.3063 290.087 75.1196C289.546 74.9423 289.093 74.7603 288.729 74.5736C288.365 74.3776 288.071 74.1723 287.847 73.9576C287.632 73.7336 287.478 73.4816 287.385 73.2016C287.292 72.9216 287.245 72.6089 287.245 72.2636C287.245 71.9369 287.292 71.6429 287.385 71.3816C287.478 71.1109 287.609 70.8729 287.777 70.6676C287.954 70.4623 288.16 70.2896 288.393 70.1496C288.636 70.0096 288.897 69.9023 289.177 69.8276C289.466 69.7529 289.77 69.7156 290.087 69.7156C290.47 69.7156 290.838 69.7856 291.193 69.9256C291.548 70.0656 291.87 70.2569 292.159 70.4996L292.355 69.7156H292.831L293.139 72.4876L292.565 72.5716C292.397 72.0489 292.192 71.6289 291.949 71.3116C291.716 70.9943 291.445 70.7609 291.137 70.6116C290.829 70.4623 290.479 70.3876 290.087 70.3876C289.546 70.3876 289.107 70.5323 288.771 70.8216C288.444 71.1109 288.281 71.5076 288.281 72.0116C288.281 72.3289 288.342 72.6136 288.463 72.8656C288.594 73.1083 288.822 73.3323 289.149 73.5376C289.476 73.7336 289.933 73.9343 290.521 74.1396C291.081 74.3169 291.543 74.5129 291.907 74.7276C292.28 74.9329 292.57 75.1569 292.775 75.3996C292.99 75.6423 293.139 75.9036 293.223 76.1836C293.316 76.4543 293.363 76.7529 293.363 77.0796C293.363 77.4996 293.293 77.8823 293.153 78.2276C293.013 78.5729 292.812 78.8716 292.551 79.1236C292.29 79.3756 291.977 79.5716 291.613 79.7116C291.249 79.8516 290.843 79.9216 290.395 79.9216Z" fill="#47567B"/>
<path d="M385.483 15.7751C386.065 14.096 385.577 12.228 384.818 10.6189C383.877 8.62592 382.444 6.77005 380.448 5.8345C378.452 4.89895 375.837 5.09398 374.32 6.69387C372.942 8.14748 372.741 10.3812 373.122 12.3468C373.954 16.6254 377.044 20.0567 380.009 23.2504C383.648 27.1694 387.287 31.0883 390.922 35.0043" fill="white"/>
<path d="M386.796 17.3111C388.213 12.2889 385.867 5.20677 380.851 2.89683C378.867 1.98261 376.371 1.95519 374.53 3.22291C372.348 4.72223 371.562 7.50451 371.449 10.0217C371.199 15.6258 374.277 20.3828 377.87 24.3902C381.89 28.8729 386.059 33.2277 390.154 37.6372C391.084 38.6398 391.961 37.4696 392.239 36.5432C392.598 35.3426 392.62 33.3709 391.693 32.3744C388.728 29.1807 385.766 25.9901 382.801 22.7964C380.235 20.0324 377.309 17.2958 375.542 13.9193C375.018 12.9167 374.186 11.3686 374.536 10.1954C374.96 8.78747 376.743 8.29379 378.032 8.31817C379.616 8.35169 381.039 9.13182 382.1 10.2837C382.819 11.0639 384.477 13.13 384.166 14.2332C383.825 15.44 383.746 17.433 384.712 18.402C385.678 19.3711 386.522 18.2862 386.796 17.308V17.3111Z" fill="white"/>
<path d="M391.2 34.9462C394.567 31.7464 397.669 28.2663 400.464 24.5545C401.29 23.4605 402.091 22.333 402.643 21.0774C403.484 19.1545 403.691 17.0214 403.889 14.9308C404.075 12.9561 404.255 10.9265 403.703 9.02191C402.749 5.73376 399.54 3.30193 396.124 3.03681C392.708 2.77169 389.274 4.55137 387.305 7.35193C385.336 10.1525 384.809 13.8551 385.656 17.1737" fill="white"/>
<path d="M391.971 37.5763C395.621 34.084 399.098 30.29 401.994 26.1424C404.889 21.9949 405.696 16.6894 405.596 11.6764C405.507 7.15405 403.609 2.6317 399.22 0.763645C395.222 -0.936807 390.782 0.330913 387.75 3.29604C383.737 7.21805 383.124 13.5048 384.346 18.7068C384.584 19.7155 385.501 20.715 386.43 19.8008C387.418 18.8287 387.256 16.8265 386.976 15.6319C385.053 7.43441 398.096 2.11365 402.07 9.79615C402.938 11.4753 402.487 13.6359 402.289 15.4278C402.042 17.6706 401.494 19.4564 400.156 21.3001C397.279 25.2678 393.97 28.9308 390.432 32.3134C389.048 33.6391 389.956 39.5023 391.971 37.5763Z" fill="white"/>
<path d="M378.754 31.6919C378.672 31.5822 378.623 31.4968 378.556 31.4328C377.581 30.4455 376.599 29.4642 375.63 28.4708C372.824 25.6001 370.471 22.379 368.311 19.0086C367.917 18.396 367.588 17.7378 367.29 17.0735C365.873 13.9286 366.263 10.8446 367.707 7.83374C368.396 6.39537 369.462 5.27697 370.822 4.42674C372.751 3.21692 374.844 2.55259 377.114 2.57392C380.573 2.60439 382.923 4.51207 384.523 7.36749C385.675 9.42449 386.235 11.7131 386.348 14.084C386.516 17.6525 385.9 21.1235 384.901 24.5305C384.443 26.0877 383.636 27.4804 382.743 28.8243C382.152 29.7141 381.539 30.5918 380.899 31.5273C382.615 33.4624 384.69 35.0075 386.54 36.845C388.539 34.7088 390.892 33.0297 392.821 30.8691C392.671 30.6466 392.556 30.4638 392.428 30.2901C389.298 25.9841 388.463 23.9484 387.668 18.6856C387.287 16.1653 387.156 13.6451 387.662 11.1249C387.951 9.68656 388.359 8.27257 389.042 6.97742C390.441 4.32313 392.498 2.46421 395.563 1.97663C396.984 1.75112 398.391 1.9553 399.754 2.36365C402.329 3.13464 404.559 4.43589 405.858 6.90428C407.735 10.4758 407.86 14.0779 405.827 17.6464C405.346 18.4905 404.821 19.3194 404.258 20.1117C402.633 22.3942 401.04 24.7011 399.095 26.7307C397.8 28.0868 396.481 29.4185 395.17 30.7624C395.106 30.8295 395.052 30.9087 394.951 31.0336C395.14 31.2348 395.314 31.4328 395.496 31.6157C397.703 33.7976 400.293 35.431 403.036 36.8389C406.787 38.7619 410.755 40.0783 414.878 40.9255C416.426 41.2424 417.989 41.4923 419.556 41.7239C422.375 42.1414 425.196 42.5376 428.021 42.9094C431.812 43.4091 435.603 43.912 439.4 44.3477C440.872 44.5154 442.366 44.5397 443.85 44.5763C446.723 44.6433 449.597 44.6891 452.471 44.7134C453.979 44.7256 455.335 44.9024 456.847 44.8963C457.892 44.8932 459.014 45.1187 460.059 45.1248C460.595 45.1248 461.918 45.2467 462.454 45.2498C462.963 45.2528 464.014 45.3046 464.52 45.3686L464.493 46.5602C463.804 46.6211 463.201 46.615 462.5 46.6242C458.7 46.6668 454.196 46.1488 450.395 46.1305C447.4 46.1152 444.404 45.9964 441.409 45.9385C438.989 45.8928 436.609 45.4966 434.22 45.1705C431.59 44.811 428.954 44.4971 426.324 44.1436C423.164 43.72 419.985 43.3756 416.847 42.8179C410.639 41.7148 404.706 39.798 399.318 36.4154C397.474 35.2573 395.74 33.9652 394.22 32.4019C394.134 32.3135 394.046 32.2313 393.954 32.152C393.921 32.1246 393.869 32.1155 393.781 32.0819C393.671 32.1734 393.54 32.277 393.418 32.3897C391.632 34.0475 389.853 35.7084 388.064 37.3631C387.744 37.6587 387.396 37.9269 387.049 38.195C386.659 38.4998 386.321 38.5059 385.909 38.2194C385.751 38.1097 385.611 37.9695 385.47 37.8354C383.685 36.1777 381.902 34.5199 380.116 32.8651C380.064 32.8164 379.997 32.7889 379.897 32.728C379.793 32.8133 379.674 32.8895 379.577 32.987C377.2 35.4249 374.381 37.2351 371.376 38.7801C367.561 40.7396 363.523 42.0652 359.339 42.9825C357.529 43.3787 355.71 43.6773 353.866 43.8937C351.522 44.171 349.191 44.5641 346.848 44.881C343.879 45.2833 340.899 45.6094 337.94 46.0573C334.676 46.551 331.394 46.6882 328.106 46.7064C323.261 46.7339 318.412 46.7278 313.564 46.7156C312.494 46.7156 311.425 46.6455 310.355 46.5998C310.029 46.5876 309.706 46.5541 309.682 46.1122C309.663 45.7465 309.831 45.5027 310.282 45.4204C310.708 45.3412 311.15 45.3138 311.586 45.3168C318.284 45.3686 324.983 45.3656 331.678 45.1645C333.701 45.1035 335.709 44.8963 337.715 44.6098C340.704 44.1832 343.703 43.8297 346.695 43.4274C349.904 42.9977 353.128 42.6412 356.316 42.0896C362.557 41.0108 368.515 39.1032 373.903 35.6596C375.466 34.66 376.947 33.5538 378.26 32.2343C378.428 32.0637 378.586 31.8839 378.757 31.6949L378.754 31.6919ZM393.927 29.9152C394.393 29.4825 394.765 29.1717 395.1 28.8212C397.261 26.5753 399.464 24.369 401.232 21.7817C402.289 20.2367 403.429 18.7435 404.413 17.1497C405.833 14.8489 406.205 12.3805 405.446 9.72009C404.721 7.18465 403.246 5.36839 400.842 4.3018C399.257 3.59785 397.599 3.19254 395.868 3.40586C393.366 3.7167 391.657 5.2465 390.487 7.3553C389.499 9.13803 388.926 11.1067 388.85 13.1454C388.655 18.3839 389.524 24.2928 393.363 29.0955C393.485 29.2479 393.598 29.4063 393.711 29.5648C393.769 29.644 393.814 29.7293 393.927 29.9091V29.9152ZM379.805 30.5674C380.613 29.3515 381.369 28.2514 382.082 27.1269C382.962 25.7372 383.599 24.2349 383.919 22.6198C384.252 20.9498 384.587 19.2767 384.794 17.5885C385.169 14.5137 384.803 11.5241 383.557 8.65654C382.85 7.03227 381.692 5.81941 380.235 4.87471C379.382 4.32313 378.416 4.02753 377.398 4.03972C376.599 4.04887 375.786 4.10372 375.009 4.26523C373.11 4.65835 371.376 5.45981 370.078 6.92866C368.399 8.8272 367.789 11.1554 367.893 13.633C367.966 15.3669 368.695 16.9242 369.624 18.3839C372.236 22.4887 375.295 26.2279 378.763 29.6349C379.056 29.9213 379.373 30.1834 379.799 30.5674H379.805Z" fill="#47567B"/>
<path d="M349.546 79.9216C349.098 79.9216 348.706 79.8656 348.37 79.7536C348.034 79.6416 347.74 79.4969 347.488 79.3196C347.245 79.1423 347.04 78.9463 346.872 78.7316C346.704 78.5169 346.559 78.3023 346.438 78.0876L346.956 77.6816C347.152 77.9616 347.367 78.2089 347.6 78.4236C347.843 78.6289 348.118 78.7923 348.426 78.9136C348.734 79.0256 349.089 79.0816 349.49 79.0816C349.957 79.0816 350.339 78.9883 350.638 78.8016C350.946 78.6056 351.175 78.3489 351.324 78.0316C351.473 77.7143 351.548 77.3689 351.548 76.9956C351.548 76.3236 351.319 75.8149 350.862 75.4696C350.414 75.1149 349.775 74.9423 348.944 74.9516L349.014 74.3636C349.527 74.3169 349.947 74.1863 350.274 73.9716C350.61 73.7476 350.862 73.4723 351.03 73.1456C351.198 72.8189 351.282 72.4736 351.282 72.1096C351.282 71.6336 351.137 71.2416 350.848 70.9336C350.559 70.6163 350.125 70.4576 349.546 70.4576C349.173 70.4576 348.841 70.5183 348.552 70.6396C348.263 70.7609 348.048 70.9243 347.908 71.1296C348.076 71.3163 348.188 71.4796 348.244 71.6196C348.309 71.7503 348.342 71.8576 348.342 71.9416C348.342 72.0443 348.309 72.1469 348.244 72.2496C348.188 72.3429 348.104 72.4223 347.992 72.4876C347.889 72.5436 347.768 72.5716 347.628 72.5716C347.441 72.5716 347.287 72.5296 347.166 72.4456C347.045 72.3616 346.956 72.2543 346.9 72.1236C346.844 71.9929 346.816 71.8529 346.816 71.7036C346.816 71.3676 346.928 71.0503 347.152 70.7516C347.385 70.4436 347.712 70.1963 348.132 70.0096C348.552 69.8136 349.051 69.7156 349.63 69.7156C350.199 69.7156 350.685 69.8136 351.086 70.0096C351.487 70.2056 351.791 70.4856 351.996 70.8496C352.211 71.2043 352.318 71.6196 352.318 72.0956C352.318 72.4876 352.229 72.8469 352.052 73.1736C351.884 73.5003 351.66 73.7803 351.38 74.0136C351.1 74.2469 350.792 74.4196 350.456 74.5316V74.5596C350.867 74.6436 351.235 74.7836 351.562 74.9796C351.889 75.1756 352.15 75.4416 352.346 75.7776C352.551 76.1043 352.654 76.5196 352.654 77.0236C352.654 77.4623 352.575 77.8589 352.416 78.2136C352.267 78.5683 352.052 78.8716 351.772 79.1236C351.492 79.3756 351.161 79.5716 350.778 79.7116C350.405 79.8516 349.994 79.9216 349.546 79.9216ZM355.986 79.9076C355.734 79.9076 355.524 79.8283 355.356 79.6696C355.198 79.5109 355.118 79.3056 355.118 79.0536C355.118 78.8016 355.198 78.5963 355.356 78.4376C355.524 78.2696 355.734 78.1856 355.986 78.1856C356.248 78.1856 356.458 78.2649 356.616 78.4236C356.775 78.5823 356.854 78.7876 356.854 79.0396C356.854 79.2916 356.775 79.5016 356.616 79.6696C356.458 79.8283 356.248 79.9076 355.986 79.9076ZM367.96 79.9216C367.064 79.9216 366.28 79.7209 365.608 79.3196C364.946 78.9183 364.428 78.3396 364.054 77.5836C363.69 76.8183 363.508 75.9036 363.508 74.8396C363.508 74.0463 363.611 73.3369 363.816 72.7116C364.022 72.0769 364.316 71.5356 364.698 71.0876C365.081 70.6396 365.538 70.2989 366.07 70.0656C366.602 69.8323 367.195 69.7156 367.848 69.7156C368.352 69.7156 368.805 69.7949 369.206 69.9536C369.617 70.1029 369.972 70.3223 370.27 70.6116L370.41 69.7016H370.9L371.432 72.8656L370.886 72.9916C370.672 72.3756 370.424 71.8856 370.144 71.5216C369.864 71.1483 369.538 70.8776 369.164 70.7096C368.791 70.5416 368.348 70.4576 367.834 70.4576C367.19 70.4576 366.626 70.6163 366.14 70.9336C365.664 71.2509 365.291 71.7316 365.02 72.3756C364.75 73.0103 364.614 73.8083 364.614 74.7696C364.614 75.4509 364.694 76.0623 364.852 76.6036C365.011 77.1356 365.24 77.5929 365.538 77.9756C365.846 78.3489 366.21 78.6383 366.63 78.8436C367.06 79.0396 367.54 79.1376 368.072 79.1376C368.464 79.1376 368.833 79.0863 369.178 78.9836C369.524 78.8809 369.846 78.7129 370.144 78.4796C370.452 78.2463 370.746 77.9429 371.026 77.5696L371.544 77.9756C371.32 78.3116 371.068 78.6056 370.788 78.8576C370.508 79.1003 370.21 79.3009 369.892 79.4596C369.584 79.6183 369.267 79.7349 368.94 79.8096C368.614 79.8843 368.287 79.9216 367.96 79.9216ZM377.7 79.9216C376.785 79.9216 375.997 79.7163 375.334 79.3056C374.681 78.8949 374.177 78.3209 373.822 77.5836C373.477 76.8463 373.304 75.9783 373.304 74.9796C373.304 73.8783 373.481 72.9403 373.836 72.1656C374.2 71.3816 374.718 70.7796 375.39 70.3596C376.062 69.9303 376.869 69.7156 377.812 69.7156C378.708 69.7156 379.478 69.9163 380.122 70.3176C380.766 70.7189 381.261 71.2883 381.606 72.0256C381.961 72.7536 382.138 73.6169 382.138 74.6156C382.138 75.4183 382.035 76.1463 381.83 76.7996C381.625 77.4529 381.326 78.0129 380.934 78.4796C380.551 78.9463 380.085 79.3056 379.534 79.5576C378.993 79.8003 378.381 79.9216 377.7 79.9216ZM377.826 79.1516C378.339 79.1516 378.797 79.0583 379.198 78.8716C379.599 78.6756 379.935 78.3909 380.206 78.0176C380.477 77.6349 380.677 77.1729 380.808 76.6316C380.948 76.0903 381.018 75.4743 381.018 74.7836C381.018 74.1023 380.943 73.5003 380.794 72.9776C380.654 72.4456 380.439 71.9929 380.15 71.6196C379.87 71.2369 379.52 70.9523 379.1 70.7656C378.689 70.5696 378.209 70.4716 377.658 70.4716C377.135 70.4716 376.673 70.5696 376.272 70.7656C375.871 70.9523 375.53 71.2323 375.25 71.6056C374.97 71.9696 374.76 72.4176 374.62 72.9496C374.48 73.4816 374.41 74.0883 374.41 74.7696C374.41 75.4416 374.485 76.0483 374.634 76.5896C374.783 77.1309 375.003 77.5929 375.292 77.9756C375.591 78.3583 375.95 78.6523 376.37 78.8576C376.799 79.0536 377.285 79.1516 377.826 79.1516ZM384.127 79.7256V79.2216L384.911 79.0956C385.079 79.0769 385.196 79.0163 385.261 78.9136C385.336 78.8109 385.373 78.6336 385.373 78.3816V71.2136C385.373 70.9896 385.345 70.8356 385.289 70.7516C385.233 70.6583 385.107 70.5929 384.911 70.5556L384.127 70.4296V69.9116H386.675L391.743 78.1156V78.0596V71.2136C391.743 70.9803 391.715 70.8216 391.659 70.7376C391.603 70.6536 391.477 70.5929 391.281 70.5556L390.511 70.4296V69.9116H393.787V70.4296L393.017 70.5556C392.84 70.5836 392.719 70.6443 392.653 70.7376C392.588 70.8216 392.555 70.9896 392.555 71.2416V79.7256H391.547L386.199 71.1016L386.185 71.1576V78.4376C386.185 78.6803 386.218 78.8436 386.283 78.9276C386.349 79.0116 386.465 79.0676 386.633 79.0956L387.445 79.2216V79.7256H384.127ZM395.823 79.7256V79.2216L396.635 79.0956C396.813 79.0676 396.929 79.0069 396.985 78.9136C397.041 78.8109 397.069 78.6336 397.069 78.3816V71.2136C397.069 70.9896 397.041 70.8356 396.985 70.7516C396.929 70.6583 396.799 70.5929 396.593 70.5556L395.823 70.4296V69.9116H402.137L402.641 72.2356L402.067 72.4316C401.927 72.0023 401.792 71.6663 401.661 71.4236C401.531 71.1716 401.386 70.9849 401.227 70.8636C401.069 70.7329 400.877 70.6489 400.653 70.6116C400.439 70.5743 400.163 70.5556 399.827 70.5556H398.105V74.6016H399.631C399.958 74.6016 400.201 74.5829 400.359 74.5456C400.518 74.4989 400.63 74.3963 400.695 74.2376C400.77 74.0696 400.84 73.8083 400.905 73.4536L401.409 73.3836V76.5756L400.905 76.6596C400.849 76.2303 400.779 75.9223 400.695 75.7356C400.621 75.5396 400.499 75.4183 400.331 75.3716C400.173 75.3156 399.921 75.2876 399.575 75.2876H398.105V78.4096C398.105 78.6523 398.143 78.8249 398.217 78.9276C398.292 79.0209 398.427 79.0769 398.623 79.0956L399.715 79.2216V79.7256H395.823ZM404.457 79.7256V79.2216L405.297 79.0956C405.474 79.0676 405.591 79.0069 405.647 78.9136C405.703 78.8203 405.731 78.6429 405.731 78.3816V71.2136C405.731 70.9803 405.698 70.8216 405.633 70.7376C405.577 70.6443 405.455 70.5836 405.269 70.5556L404.457 70.4296V69.9116H408.041V70.4296L407.187 70.5556C407.019 70.5836 406.907 70.6489 406.851 70.7516C406.795 70.8449 406.767 71.0176 406.767 71.2696V78.4376C406.767 78.6709 406.795 78.8343 406.851 78.9276C406.916 79.0116 407.037 79.0676 407.215 79.0956L408.041 79.2216V79.7256H404.457ZM417.516 79.9216C417.217 79.9216 416.96 79.8703 416.746 79.7676C416.531 79.6743 416.34 79.5156 416.172 79.2916C416.004 79.0676 415.84 78.7643 415.682 78.3816L414.954 76.5196C414.804 76.1556 414.655 75.8803 414.506 75.6936C414.356 75.4976 414.179 75.3669 413.974 75.3016C413.778 75.2363 413.526 75.2036 413.218 75.2036C413.05 75.2036 412.9 75.2083 412.77 75.2176C412.639 75.2176 412.518 75.2269 412.406 75.2456V78.4236C412.406 78.6476 412.438 78.8109 412.504 78.9136C412.578 79.0163 412.714 79.0769 412.91 79.0956L413.96 79.2216V79.7256H410.11V79.2216L410.95 79.0956C411.118 79.0676 411.23 79.0116 411.286 78.9276C411.351 78.8343 411.384 78.6523 411.384 78.3816V71.2136C411.384 70.9803 411.351 70.8216 411.286 70.7376C411.22 70.6443 411.094 70.5836 410.908 70.5556L410.11 70.4296V69.9116H413.316C413.941 69.9116 414.487 69.9676 414.954 70.0796C415.42 70.1823 415.803 70.3409 416.102 70.5556C416.41 70.7609 416.638 71.0223 416.788 71.3396C416.937 71.6569 417.012 72.0256 417.012 72.4456C417.012 72.6603 416.979 72.8749 416.914 73.0896C416.858 73.3043 416.769 73.5096 416.648 73.7056C416.526 73.9016 416.372 74.0836 416.186 74.2516C415.999 74.4196 415.78 74.5643 415.528 74.6856C415.285 74.8069 415.01 74.8956 414.702 74.9516V74.9936C415.038 75.0869 415.308 75.2409 415.514 75.4556C415.719 75.6609 415.892 75.9409 416.032 76.2956L416.508 77.4716C416.657 77.8263 416.788 78.1296 416.9 78.3816C417.021 78.6336 417.156 78.8296 417.306 78.9696C417.464 79.1003 417.665 79.1656 417.908 79.1656C418.038 79.1656 418.16 79.1516 418.272 79.1236C418.393 79.0956 418.514 79.0583 418.636 79.0116L418.748 79.4176C418.589 79.5763 418.402 79.6976 418.188 79.7816C417.982 79.8749 417.758 79.9216 417.516 79.9216ZM413.358 74.6016C413.852 74.6016 414.291 74.5269 414.674 74.3776C415.056 74.2189 415.36 73.9809 415.584 73.6636C415.808 73.3463 415.92 72.9543 415.92 72.4876C415.92 72.0209 415.817 71.6476 415.612 71.3676C415.406 71.0876 415.108 70.8869 414.716 70.7656C414.324 70.6349 413.843 70.5696 413.274 70.5696H412.406V74.5736C412.648 74.5829 412.844 74.5923 412.994 74.6016C413.143 74.6016 413.264 74.6016 413.358 74.6016ZM419.874 79.7256V79.2216L420.7 79.0956C420.906 79.0676 421.027 78.9883 421.064 78.8576C421.102 78.7176 421.125 78.5449 421.134 78.3396L421.582 71.1996C421.601 70.9663 421.578 70.8076 421.512 70.7236C421.456 70.6303 421.34 70.5743 421.162 70.5556L420.364 70.4296V69.9116H423.08L425.782 77.2756L425.824 77.2056L428.568 69.9116H431.27V70.4296L430.43 70.5416C430.272 70.5603 430.16 70.6116 430.094 70.6956C430.038 70.7796 430.015 70.9663 430.024 71.2556L430.486 78.4376C430.496 78.6896 430.533 78.8576 430.598 78.9416C430.664 79.0256 430.78 79.0769 430.948 79.0956L431.788 79.2216V79.7256H428.106V79.2216L429.002 79.1096C429.161 79.0909 429.278 79.0396 429.352 78.9556C429.436 78.8623 429.469 78.6756 429.45 78.3956L428.988 70.9756L428.974 70.9196L426.16 78.2696H425.18L422.408 70.9196L422.394 70.9756L421.946 78.4516C421.937 78.6476 421.956 78.7969 422.002 78.8996C422.058 78.9929 422.194 79.0583 422.408 79.0956L423.206 79.2216V79.7256H419.874Z" fill="#47567B"/>
</svg>
