<svg width="466" height="100" viewBox="0 0 466 100" fill="none" xmlns="http://www.w3.org/2000/svg">
<path d="M76.5431 15.7751C77.1251 14.096 76.6375 12.228 75.8787 10.6189C74.9371 8.62592 73.5048 6.77005 71.5088 5.8345C69.5127 4.89895 66.898 5.09398 65.3804 6.69387C64.003 8.14748 63.8019 10.3812 64.1828 12.3468C65.0147 16.6254 68.1048 20.0567 71.0699 23.2504C74.7085 27.1694 78.3471 31.0883 81.9827 35.0043" fill="#CCD7E6"/>
<path d="M77.8561 17.3111C79.2731 12.2889 76.9266 5.20677 71.9106 2.89683C69.9267 1.98261 67.4309 1.95519 65.5903 3.22291C63.4083 4.72223 62.6221 7.50451 62.5093 10.0217C62.2595 15.6258 65.3373 20.3828 68.9302 24.3902C72.9498 28.8729 77.1186 33.2277 81.2143 37.6372C82.1438 38.6398 83.0214 37.4696 83.2987 36.5432C83.6583 35.3426 83.6797 33.3709 82.7533 32.3744C79.7881 29.1807 76.8261 25.9901 73.8609 22.7964C71.295 20.0324 68.3695 17.2958 66.602 13.9193C66.0779 12.9167 65.2459 11.3686 65.5964 10.1954C66.02 8.78747 67.8027 8.29379 69.0917 8.31817C70.6764 8.35169 72.0995 9.13182 73.16 10.2837C73.8792 11.0639 75.537 13.13 75.2262 14.2332C74.8849 15.44 74.8056 17.433 75.7717 18.402C76.7377 19.3711 77.5818 18.2862 77.8561 17.308V17.3111Z" fill="#CCD7E6"/>
<path d="M82.2591 34.9462C85.6265 31.7464 88.7288 28.2663 91.5232 24.5545C92.3491 23.4605 93.1505 22.333 93.7021 21.0774C94.5432 19.1545 94.7504 17.0214 94.9485 14.9308C95.1344 12.9561 95.3142 10.9265 94.7626 9.02191C93.8088 5.73376 90.5999 3.30193 87.1837 3.03681C83.7676 2.77169 80.3332 4.55137 78.3645 7.35193C76.3959 10.1525 75.8687 13.8551 76.7159 17.1737" fill="#CCD7E6"/>
<path d="M83.0307 37.5763C86.6815 34.084 90.1586 30.29 93.0536 26.1424C95.9486 21.9949 96.7562 16.6894 96.6556 11.6764C96.5673 7.15405 94.6687 2.6317 90.2805 0.763645C86.2823 -0.936807 81.8422 0.330913 78.81 3.29604C74.7966 7.21805 74.1841 13.5048 75.4061 18.7068C75.6438 19.7155 76.561 20.715 77.4905 19.8008C78.4779 18.8287 78.3163 16.8265 78.036 15.6319C76.1131 7.43441 89.156 2.11365 93.1298 9.79615C93.9983 11.4753 93.5473 13.6359 93.3492 15.4278C93.1024 17.6706 92.5538 19.4564 91.216 21.3001C88.3393 25.2678 85.0298 28.9308 81.4917 32.3134C80.1082 33.6391 81.0163 39.5023 83.0307 37.5763Z" fill="#CCD7E6"/>
<path d="M69.814 31.6919C69.7318 31.5822 69.683 31.4968 69.616 31.4328C68.6408 30.4455 67.6595 29.4642 66.6905 28.4708C63.8838 25.6001 61.5312 22.379 59.3706 19.0086C58.9775 18.396 58.6484 17.7378 58.3497 17.0735C56.9327 13.9286 57.3227 10.8446 58.7672 7.83374C59.4559 6.39537 60.5225 5.27697 61.8817 4.42674C63.8107 3.21692 65.9042 2.55259 68.1745 2.57392C71.6334 2.60439 73.9829 4.51207 75.5828 7.36749C76.7347 9.42449 77.2954 11.7131 77.4082 14.084C77.5758 17.6525 76.9602 21.1235 75.9607 24.5305C75.5036 26.0877 74.696 27.4804 73.8031 28.8243C73.2119 29.7141 72.5994 30.5918 71.9594 31.5273C73.6751 33.4624 75.7504 35.0075 77.6002 36.845C79.5993 34.7088 81.9519 33.0297 83.8809 30.8691C83.7316 30.6466 83.6157 30.4638 83.4878 30.2901C80.3581 25.9841 79.5231 23.9484 78.7277 18.6856C78.3468 16.1653 78.2157 13.6451 78.7216 11.1249C79.0111 9.68656 79.4195 8.27257 80.1021 6.97742C81.5009 4.32313 83.5579 2.46421 86.6235 1.97663C88.0436 1.75112 89.4515 1.9553 90.8137 2.36365C93.3888 3.13464 95.6195 4.43589 96.9177 6.90428C98.7949 10.4758 98.9198 14.0779 96.8872 17.6464C96.4057 18.4905 95.8816 19.3194 95.3178 20.1117C93.6935 22.3942 92.0997 24.7011 90.1555 26.7307C88.8603 28.0868 87.5408 29.4185 86.2304 30.7624C86.1664 30.8295 86.1116 30.9087 86.011 31.0336C86.2 31.2348 86.3736 31.4328 86.5565 31.6157C88.7628 33.7976 91.3531 35.431 94.0958 36.8389C97.8471 38.7619 101.815 40.0783 105.938 40.9255C107.486 41.2424 109.049 41.4923 110.616 41.7239C113.435 42.1414 116.257 42.5376 119.081 42.9094C122.872 43.4091 126.663 43.912 130.46 44.3477C131.932 44.5154 133.426 44.5397 134.91 44.5763C137.783 44.6433 140.657 44.6891 143.531 44.7134C145.039 44.7256 146.395 44.9024 147.907 44.8963C148.952 44.8932 150.074 45.1187 151.119 45.1248C151.655 45.1248 152.978 45.2467 153.514 45.2498C154.023 45.2528 155.074 45.3046 155.58 45.3686L155.553 46.5602C154.864 46.6211 154.261 46.615 153.56 46.6242C149.76 46.6668 145.256 46.1488 141.455 46.1305C138.46 46.1152 135.464 45.9964 132.469 45.9385C130.049 45.8928 127.669 45.4966 125.28 45.1705C122.65 44.811 120.014 44.4971 117.384 44.1436C114.224 43.72 111.045 43.3756 107.907 42.8179C101.699 41.7148 95.7658 39.798 90.3779 36.4154C88.5343 35.2573 86.8003 33.9652 85.2796 32.4019C85.1943 32.3135 85.1059 32.2313 85.0145 32.152C84.981 32.1246 84.9292 32.1155 84.8408 32.0819C84.7311 32.1734 84.6001 32.277 84.4782 32.3897C82.6924 34.0475 80.9127 35.7084 79.1239 37.3631C78.8039 37.6587 78.4565 37.9269 78.1091 38.195C77.719 38.4998 77.3808 38.5059 76.9694 38.2194C76.8109 38.1097 76.6707 37.9695 76.5305 37.8354C74.7448 36.1777 72.962 34.5199 71.1762 32.8651C71.1244 32.8164 71.0574 32.7889 70.9568 32.728C70.8532 32.8133 70.7344 32.8895 70.6368 32.987C68.2599 35.4249 65.441 37.2351 62.4363 38.7801C58.6209 40.7396 54.5831 42.0652 50.399 42.9825C48.5889 43.3787 46.7696 43.6773 44.9259 43.8937C42.5824 44.171 40.2512 44.5641 37.9077 44.881C34.9395 45.2833 31.9592 45.6094 29.0002 46.0573C25.7364 46.551 22.4543 46.6882 19.1662 46.7064C14.3208 46.7339 9.47239 46.7278 4.62397 46.7156C3.55433 46.7156 2.48469 46.6455 1.41505 46.5998C1.08898 46.5876 0.765951 46.5541 0.741572 46.1122C0.723287 45.7465 0.890894 45.5027 1.34191 45.4204C1.76855 45.3412 2.21042 45.3138 2.6462 45.3168C9.3444 45.3686 16.0426 45.3656 22.7377 45.1645C24.7612 45.1035 26.7695 44.8963 28.7746 44.6098C31.7642 44.1832 34.7628 43.8297 37.7554 43.4274C40.9643 42.9977 44.1884 42.6412 47.376 42.0896C53.6171 41.0108 59.5748 39.1032 64.9626 35.6596C66.5259 34.66 68.0069 33.5538 69.3204 32.2343C69.488 32.0637 69.6464 31.8839 69.8171 31.6949L69.814 31.6919ZM84.9871 29.9152C85.4533 29.4825 85.8251 29.1717 86.1603 28.8212C88.3209 26.5753 90.5242 24.369 92.2917 21.7817C93.3492 20.2367 94.4889 18.7435 95.4732 17.1497C96.8933 14.8489 97.2651 12.3805 96.5063 9.72009C95.781 7.18465 94.3061 5.36839 91.9016 4.3018C90.317 3.59785 88.6592 3.19254 86.9283 3.40586C84.4264 3.7167 82.7168 5.2465 81.5466 7.3553C80.5592 9.13803 79.9863 11.1067 79.9101 13.1454C79.7151 18.3839 80.5836 24.2928 84.4233 29.0955C84.5452 29.2479 84.658 29.4063 84.7707 29.5648C84.8286 29.644 84.8743 29.7293 84.9871 29.9091V29.9152ZM70.8654 30.5674C71.673 29.3515 72.4287 28.2514 73.1418 27.1269C74.0225 25.7372 74.6594 24.2349 74.9794 22.6198C75.3116 20.9498 75.6468 19.2767 75.854 17.5885C76.2288 14.5137 75.8632 11.5241 74.6168 8.65654C73.9098 7.03227 72.7517 5.81941 71.2951 4.87471C70.4418 4.32313 69.4758 4.02753 68.458 4.03972C67.6595 4.04887 66.8459 4.10372 66.0688 4.26523C64.1703 4.65835 62.4363 5.45981 61.1381 6.92866C59.459 8.8272 58.8495 11.1554 58.9531 13.633C59.0262 15.3669 59.7546 16.9242 60.684 18.3839C63.2957 22.4887 66.3552 26.2279 69.8232 29.6349C70.1157 29.9213 70.4327 30.1834 70.8593 30.5674H70.8654Z" fill="#47567B"/>
<path d="M12.3182 79.7256V79.2216L13.5502 79.0536C13.7555 79.0256 13.8908 78.9509 13.9562 78.8296C14.0215 78.7083 14.0542 78.5309 14.0542 78.2976V71.7036C14.0542 71.3956 14.0262 71.1763 13.9702 71.0456C13.9142 70.9056 13.7228 70.8216 13.3962 70.7936L12.2482 70.6956L12.3182 70.2056L14.9502 69.7856L15.0902 69.9116V78.3396C15.0902 78.5729 15.1182 78.7409 15.1742 78.8436C15.2395 78.9463 15.3842 79.0163 15.6082 79.0536L16.7982 79.2216V79.7256H12.3182ZM19.5079 79.9076C19.2559 79.9076 19.0459 79.8283 18.8779 79.6696C18.7193 79.5109 18.6399 79.3056 18.6399 79.0536C18.6399 78.8016 18.7193 78.5963 18.8779 78.4376C19.0459 78.2696 19.2559 78.1856 19.5079 78.1856C19.7693 78.1856 19.9793 78.2649 20.1379 78.4236C20.2966 78.5823 20.3759 78.7876 20.3759 79.0396C20.3759 79.2916 20.2966 79.5016 20.1379 79.6696C19.9793 79.8283 19.7693 79.9076 19.5079 79.9076ZM30.1095 79.9216C29.2135 79.9216 28.4295 79.7209 27.7575 79.3196C27.0949 78.9183 26.5769 78.3396 26.2035 77.5836C25.8395 76.8183 25.6575 75.9036 25.6575 74.8396C25.6575 74.0463 25.7602 73.3369 25.9655 72.7116C26.1709 72.0769 26.4649 71.5356 26.8475 71.0876C27.2302 70.6396 27.6875 70.2989 28.2195 70.0656C28.7515 69.8323 29.3442 69.7156 29.9975 69.7156C30.5015 69.7156 30.9542 69.7949 31.3555 69.9536C31.7662 70.1029 32.1209 70.3223 32.4195 70.6116L32.5595 69.7016H33.0495L33.5815 72.8656L33.0355 72.9916C32.8209 72.3756 32.5735 71.8856 32.2935 71.5216C32.0135 71.1483 31.6869 70.8776 31.3135 70.7096C30.9402 70.5416 30.4969 70.4576 29.9835 70.4576C29.3395 70.4576 28.7749 70.6163 28.2895 70.9336C27.8135 71.2509 27.4402 71.7316 27.1695 72.3756C26.8989 73.0103 26.7635 73.8083 26.7635 74.7696C26.7635 75.4509 26.8429 76.0623 27.0015 76.6036C27.1602 77.1356 27.3889 77.5929 27.6875 77.9756C27.9955 78.3489 28.3595 78.6383 28.7795 78.8436C29.2089 79.0396 29.6895 79.1376 30.2215 79.1376C30.6135 79.1376 30.9822 79.0863 31.3275 78.9836C31.6729 78.8809 31.9949 78.7129 32.2935 78.4796C32.6015 78.2463 32.8955 77.9429 33.1755 77.5696L33.6935 77.9756C33.4695 78.3116 33.2175 78.6056 32.9375 78.8576C32.6575 79.1003 32.3589 79.3009 32.0415 79.4596C31.7335 79.6183 31.4162 79.7349 31.0895 79.8096C30.7629 79.8843 30.4362 79.9216 30.1095 79.9216ZM42.9572 79.9216C42.6585 79.9216 42.4018 79.8703 42.1872 79.7676C41.9725 79.6743 41.7812 79.5156 41.6132 79.2916C41.4452 79.0676 41.2818 78.7643 41.1232 78.3816L40.3952 76.5196C40.2458 76.1556 40.0965 75.8803 39.9472 75.6936C39.7978 75.4976 39.6205 75.3669 39.4152 75.3016C39.2192 75.2363 38.9672 75.2036 38.6592 75.2036C38.4912 75.2036 38.3418 75.2083 38.2112 75.2176C38.0805 75.2176 37.9592 75.2269 37.8472 75.2456V78.4236C37.8472 78.6476 37.8798 78.8109 37.9452 78.9136C38.0198 79.0163 38.1552 79.0769 38.3512 79.0956L39.4012 79.2216V79.7256H35.5512V79.2216L36.3912 79.0956C36.5592 79.0676 36.6712 79.0116 36.7272 78.9276C36.7925 78.8343 36.8252 78.6523 36.8252 78.3816V71.2136C36.8252 70.9803 36.7925 70.8216 36.7272 70.7376C36.6618 70.6443 36.5358 70.5836 36.3492 70.5556L35.5512 70.4296V69.9116H38.7572C39.3825 69.9116 39.9285 69.9676 40.3952 70.0796C40.8618 70.1823 41.2445 70.3409 41.5432 70.5556C41.8512 70.7609 42.0798 71.0223 42.2292 71.3396C42.3785 71.6569 42.4532 72.0256 42.4532 72.4456C42.4532 72.6603 42.4205 72.8749 42.3552 73.0896C42.2992 73.3043 42.2105 73.5096 42.0892 73.7056C41.9678 73.9016 41.8138 74.0836 41.6272 74.2516C41.4405 74.4196 41.2212 74.5643 40.9692 74.6856C40.7265 74.8069 40.4512 74.8956 40.1432 74.9516V74.9936C40.4792 75.0869 40.7498 75.2409 40.9552 75.4556C41.1605 75.6609 41.3332 75.9409 41.4732 76.2956L41.9492 77.4716C42.0985 77.8263 42.2292 78.1296 42.3412 78.3816C42.4625 78.6336 42.5978 78.8296 42.7472 78.9696C42.9058 79.1003 43.1065 79.1656 43.3492 79.1656C43.4798 79.1656 43.6012 79.1516 43.7132 79.1236C43.8345 79.0956 43.9558 79.0583 44.0772 79.0116L44.1892 79.4176C44.0305 79.5763 43.8438 79.6976 43.6292 79.7816C43.4238 79.8749 43.1998 79.9216 42.9572 79.9216ZM38.7992 74.6016C39.2938 74.6016 39.7325 74.5269 40.1152 74.3776C40.4978 74.2189 40.8012 73.9809 41.0252 73.6636C41.2492 73.3463 41.3612 72.9543 41.3612 72.4876C41.3612 72.0209 41.2585 71.6476 41.0532 71.3676C40.8478 71.0876 40.5492 70.8869 40.1572 70.7656C39.7652 70.6349 39.2845 70.5696 38.7152 70.5696H37.8472V74.5736C38.0898 74.5829 38.2858 74.5923 38.4352 74.6016C38.5845 74.6016 38.7058 74.6016 38.7992 74.6016ZM45.4698 79.7256V79.2216L46.2818 79.0956C46.4592 79.0676 46.5758 79.0069 46.6318 78.9136C46.6878 78.8203 46.7158 78.6429 46.7158 78.3816V71.2276C46.7158 70.9943 46.6878 70.8356 46.6318 70.7516C46.5758 70.6583 46.4498 70.5929 46.2538 70.5556L45.4698 70.4296V69.9116H51.7138L52.2178 72.1376L51.6578 72.3056C51.5178 71.9136 51.3872 71.6009 51.2658 71.3676C51.1445 71.1343 51.0045 70.9616 50.8458 70.8496C50.6872 70.7283 50.4958 70.6489 50.2718 70.6116C50.0478 70.5743 49.7678 70.5556 49.4318 70.5556H47.7518V74.3776H49.3618C49.6792 74.3776 49.9125 74.3589 50.0618 74.3216C50.2112 74.2749 50.3232 74.1723 50.3978 74.0136C50.4725 73.8549 50.5472 73.5983 50.6218 73.2436L51.1258 73.1736V76.1696L50.6218 76.2536C50.5658 75.8989 50.4958 75.6376 50.4118 75.4696C50.3372 75.3016 50.2112 75.1943 50.0338 75.1476C49.8658 75.1009 49.6092 75.0776 49.2638 75.0776H47.7518V79.0816H49.9498C50.2765 79.0816 50.5472 79.0583 50.7618 79.0116C50.9765 78.9556 51.1538 78.8623 51.2938 78.7316C51.4432 78.5916 51.5645 78.4049 51.6578 78.1716C51.7605 77.9289 51.8492 77.6209 51.9238 77.2476H52.5118L52.1898 79.7256H45.4698ZM53.7171 79.7256V79.2076L54.3471 79.0956C54.5151 79.0583 54.6365 78.9976 54.7111 78.9136C54.7951 78.8296 54.8885 78.6429 54.9911 78.3536L57.9871 69.9116H58.9951L61.9351 78.3816C62.0191 78.6149 62.0938 78.7783 62.1591 78.8716C62.2245 78.9649 62.3551 79.0349 62.5511 79.0816L63.0971 79.1796V79.7256H59.7651V79.2076L60.5771 79.1096C60.7638 79.0816 60.8758 79.0209 60.9131 78.9276C60.9505 78.8249 60.9271 78.6523 60.8431 78.4096L60.1851 76.4636H56.4471L55.7891 78.3536C55.7145 78.5683 55.6911 78.7409 55.7191 78.8716C55.7565 78.9929 55.8871 79.0723 56.1111 79.1096L56.9091 79.2216V79.7256H53.7171ZM56.6711 75.7916H59.9611L58.3511 70.9756H58.3091L56.6711 75.7916ZM65.05 79.7256V79.2216L66.184 79.0536C66.3334 79.0256 66.4454 78.9696 66.52 78.8856C66.604 78.7923 66.646 78.6196 66.646 78.3676V70.5556H65.652C65.316 70.5556 65.036 70.5836 64.812 70.6396C64.588 70.6863 64.3967 70.7889 64.238 70.9476C64.0794 71.1063 63.9347 71.3349 63.804 71.6336C63.6734 71.9229 63.5287 72.3149 63.37 72.8096L62.81 72.6696L63.356 69.9116H70.986L71.518 72.6696L70.958 72.8096C70.7994 72.3149 70.6547 71.9229 70.524 71.6336C70.3934 71.3349 70.2487 71.1063 70.09 70.9476C69.9314 70.7889 69.74 70.6863 69.516 70.6396C69.292 70.5836 69.0167 70.5556 68.69 70.5556H67.682V78.4236C67.682 78.6476 67.71 78.8016 67.766 78.8856C67.8314 78.9603 67.962 79.0163 68.158 79.0536L69.264 79.2216V79.7256H65.05ZM73.2161 79.7256V79.2216L74.0281 79.0956C74.2054 79.0676 74.3221 79.0069 74.3781 78.9136C74.4341 78.8203 74.4621 78.6429 74.4621 78.3816V71.2276C74.4621 70.9943 74.4341 70.8356 74.3781 70.7516C74.3221 70.6583 74.1961 70.5929 74.0001 70.5556L73.2161 70.4296V69.9116H79.4601L79.9641 72.1376L79.4041 72.3056C79.2641 71.9136 79.1334 71.6009 79.0121 71.3676C78.8907 71.1343 78.7507 70.9616 78.5921 70.8496C78.4334 70.7283 78.2421 70.6489 78.0181 70.6116C77.7941 70.5743 77.5141 70.5556 77.1781 70.5556H75.4981V74.3776H77.1081C77.4254 74.3776 77.6587 74.3589 77.8081 74.3216C77.9574 74.2749 78.0694 74.1723 78.1441 74.0136C78.2187 73.8549 78.2934 73.5983 78.3681 73.2436L78.8721 73.1736V76.1696L78.3681 76.2536C78.3121 75.8989 78.2421 75.6376 78.1581 75.4696C78.0834 75.3016 77.9574 75.1943 77.7801 75.1476C77.6121 75.1009 77.3554 75.0776 77.0101 75.0776H75.4981V79.0816H77.6961C78.0227 79.0816 78.2934 79.0583 78.5081 79.0116C78.7227 78.9556 78.9001 78.8623 79.0401 78.7316C79.1894 78.5916 79.3107 78.4049 79.4041 78.1716C79.5067 77.9289 79.5954 77.6209 79.6701 77.2476H80.2581L79.9361 79.7256H73.2161ZM85.2058 79.7256V79.2216L86.0178 79.0956C86.1951 79.0676 86.3118 79.0069 86.3678 78.9136C86.4238 78.8203 86.4518 78.6429 86.4518 78.3816V71.2136C86.4518 70.9709 86.4191 70.8076 86.3538 70.7236C86.2884 70.6396 86.1671 70.5836 85.9898 70.5556L85.2058 70.4296V69.9116H88.9578V70.4296L87.9358 70.5696C87.7584 70.5883 87.6371 70.6396 87.5718 70.7236C87.5158 70.8076 87.4878 70.9756 87.4878 71.2276V79.0816H89.4058C89.7231 79.0816 89.9844 79.0583 90.1898 79.0116C90.4044 78.9649 90.5864 78.8716 90.7358 78.7316C90.8851 78.5823 91.0204 78.3629 91.1418 78.0736C91.2724 77.7749 91.4171 77.3783 91.5758 76.8836H92.1498L91.7858 79.7256H85.2058ZM94.017 79.7256V79.2216L94.857 79.0956C95.0344 79.0676 95.151 79.0069 95.207 78.9136C95.263 78.8203 95.291 78.6429 95.291 78.3816V71.2136C95.291 70.9803 95.2584 70.8216 95.193 70.7376C95.137 70.6443 95.0157 70.5836 94.829 70.5556L94.017 70.4296V69.9116H97.601V70.4296L96.747 70.5556C96.579 70.5836 96.467 70.6489 96.411 70.7516C96.355 70.8449 96.327 71.0176 96.327 71.2696V78.4376C96.327 78.6709 96.355 78.8343 96.411 78.9276C96.4764 79.0116 96.5977 79.0676 96.775 79.0956L97.601 79.2216V79.7256H94.017ZM103.044 79.9216C102.531 79.9216 102.045 79.8283 101.588 79.6416C101.14 79.4456 100.771 79.1983 100.482 78.8996L100.3 79.8096H99.8241L99.5301 76.7156L100.09 76.6596C100.23 77.1076 100.398 77.4949 100.594 77.8216C100.799 78.1389 101.028 78.4003 101.28 78.6056C101.532 78.8109 101.803 78.9649 102.092 79.0676C102.381 79.1609 102.685 79.2076 103.002 79.2076C103.375 79.2076 103.711 79.1423 104.01 79.0116C104.309 78.8809 104.547 78.6756 104.724 78.3956C104.901 78.1156 104.99 77.7563 104.99 77.3176C104.99 76.9909 104.925 76.7016 104.794 76.4496C104.673 76.1883 104.449 75.9503 104.122 75.7356C103.795 75.5116 103.333 75.3063 102.736 75.1196C102.195 74.9423 101.742 74.7603 101.378 74.5736C101.014 74.3776 100.72 74.1723 100.496 73.9576C100.281 73.7336 100.127 73.4816 100.034 73.2016C99.9407 72.9216 99.8941 72.6089 99.8941 72.2636C99.8941 71.9369 99.9407 71.6429 100.034 71.3816C100.127 71.1109 100.258 70.8729 100.426 70.6676C100.603 70.4623 100.809 70.2896 101.042 70.1496C101.285 70.0096 101.546 69.9023 101.826 69.8276C102.115 69.7529 102.419 69.7156 102.736 69.7156C103.119 69.7156 103.487 69.7856 103.842 69.9256C104.197 70.0656 104.519 70.2569 104.808 70.4996L105.004 69.7156H105.48L105.788 72.4876L105.214 72.5716C105.046 72.0489 104.841 71.6289 104.598 71.3116C104.365 70.9943 104.094 70.7609 103.786 70.6116C103.478 70.4623 103.128 70.3876 102.736 70.3876C102.195 70.3876 101.756 70.5323 101.42 70.8216C101.093 71.1109 100.93 71.5076 100.93 72.0116C100.93 72.3289 100.991 72.6136 101.112 72.8656C101.243 73.1083 101.471 73.3323 101.798 73.5376C102.125 73.7336 102.582 73.9343 103.17 74.1396C103.73 74.3169 104.192 74.5129 104.556 74.7276C104.929 74.9329 105.219 75.1569 105.424 75.3996C105.639 75.6423 105.788 75.9036 105.872 76.1836C105.965 76.4543 106.012 76.7529 106.012 77.0796C106.012 77.4996 105.942 77.8823 105.802 78.2276C105.662 78.5729 105.461 78.8716 105.2 79.1236C104.939 79.3756 104.626 79.5716 104.262 79.7116C103.898 79.8516 103.492 79.9216 103.044 79.9216ZM109.687 79.7256V79.2216L110.821 79.0536C110.97 79.0256 111.082 78.9696 111.157 78.8856C111.241 78.7923 111.283 78.6196 111.283 78.3676V70.5556H110.289C109.953 70.5556 109.673 70.5836 109.449 70.6396C109.225 70.6863 109.034 70.7889 108.875 70.9476C108.716 71.1063 108.572 71.3349 108.441 71.6336C108.31 71.9229 108.166 72.3149 108.007 72.8096L107.447 72.6696L107.993 69.9116H115.623L116.155 72.6696L115.595 72.8096C115.436 72.3149 115.292 71.9229 115.161 71.6336C115.03 71.3349 114.886 71.1063 114.727 70.9476C114.568 70.7889 114.377 70.6863 114.153 70.6396C113.929 70.5836 113.654 70.5556 113.327 70.5556H112.319V78.4236C112.319 78.6476 112.347 78.8016 112.403 78.8856C112.468 78.9603 112.599 79.0163 112.795 79.0536L113.901 79.2216V79.7256H109.687ZM117.853 79.7256V79.2216L118.693 79.0956C118.87 79.0676 118.987 79.0069 119.043 78.9136C119.099 78.8203 119.127 78.6429 119.127 78.3816V71.2136C119.127 70.9803 119.094 70.8216 119.029 70.7376C118.973 70.6443 118.852 70.5836 118.665 70.5556L117.853 70.4296V69.9116H121.437V70.4296L120.583 70.5556C120.415 70.5836 120.303 70.6489 120.247 70.7516C120.191 70.8449 120.163 71.0176 120.163 71.2696V78.4376C120.163 78.6709 120.191 78.8343 120.247 78.9276C120.312 79.0116 120.434 79.0676 120.611 79.0956L121.437 79.2216V79.7256H117.853ZM123.506 79.7256V79.2216L124.29 79.0956C124.458 79.0769 124.575 79.0163 124.64 78.9136C124.715 78.8109 124.752 78.6336 124.752 78.3816V71.2136C124.752 70.9896 124.724 70.8356 124.668 70.7516C124.612 70.6583 124.486 70.5929 124.29 70.5556L123.506 70.4296V69.9116H126.054L131.122 78.1156V78.0596V71.2136C131.122 70.9803 131.094 70.8216 131.038 70.7376C130.982 70.6536 130.856 70.5929 130.66 70.5556L129.89 70.4296V69.9116H133.166V70.4296L132.396 70.5556C132.219 70.5836 132.097 70.6443 132.032 70.7376C131.967 70.8216 131.934 70.9896 131.934 71.2416V79.7256H130.926L125.578 71.1016L125.564 71.1576V78.4376C125.564 78.6803 125.597 78.8436 125.662 78.9276C125.727 79.0116 125.844 79.0676 126.012 79.0956L126.824 79.2216V79.7256H123.506ZM139.39 79.9216C138.522 79.9216 137.761 79.7256 137.108 79.3336C136.454 78.9323 135.946 78.3583 135.582 77.6116C135.218 76.8649 135.036 75.9689 135.036 74.9236C135.036 74.1023 135.138 73.3696 135.344 72.7256C135.558 72.0816 135.857 71.5356 136.24 71.0876C136.622 70.6396 137.08 70.2989 137.612 70.0656C138.144 69.8323 138.736 69.7156 139.39 69.7156C139.884 69.7156 140.337 69.7949 140.748 69.9536C141.168 70.1029 141.527 70.3223 141.826 70.6116L141.966 69.7016H142.456L143.03 72.8656L142.47 72.9916C142.264 72.3849 142.017 71.8996 141.728 71.5356C141.448 71.1623 141.116 70.8916 140.734 70.7236C140.351 70.5463 139.898 70.4576 139.376 70.4576C138.909 70.4576 138.48 70.5463 138.088 70.7236C137.696 70.8916 137.355 71.1529 137.066 71.5076C136.776 71.8623 136.548 72.3149 136.38 72.8656C136.221 73.4069 136.142 74.0509 136.142 74.7976C136.142 75.4696 136.216 76.0763 136.366 76.6176C136.515 77.1496 136.734 77.6069 137.024 77.9896C137.313 78.3629 137.663 78.6523 138.074 78.8576C138.484 79.0536 138.956 79.1516 139.488 79.1516C139.824 79.1516 140.146 79.1096 140.454 79.0256C140.771 78.9416 141.056 78.8249 141.308 78.6756C141.56 78.5263 141.765 78.3629 141.924 78.1856V76.3656C141.924 76.1416 141.891 75.9876 141.826 75.9036C141.77 75.8196 141.648 75.7636 141.462 75.7356L140.594 75.6096V75.0916H144.136V75.6096L143.352 75.7356C143.193 75.7636 143.081 75.8243 143.016 75.9176C142.96 76.0109 142.932 76.1836 142.932 76.4356V79.7676H142.456L142.162 79.0116C141.891 79.2076 141.606 79.3756 141.308 79.5156C141.018 79.6463 140.715 79.7443 140.398 79.8096C140.08 79.8843 139.744 79.9216 139.39 79.9216Z" fill="#47567B"/>
<path d="M231.383 15.7751C231.965 14.096 231.477 12.228 230.719 10.6189C229.777 8.62592 228.345 6.77005 226.349 5.8345C224.353 4.89895 221.738 5.09398 220.22 6.69387C218.843 8.14748 218.642 10.3812 219.023 12.3468C219.855 16.6254 222.945 20.0567 225.91 23.2504C229.548 27.1694 233.187 31.0883 236.823 35.0043" fill="#CCD7E6"/>
<path d="M232.696 17.3111C234.113 12.2889 231.766 5.20677 226.75 2.89683C224.767 1.98261 222.271 1.95519 220.43 3.22291C218.248 4.72223 217.462 7.50451 217.349 10.0217C217.099 15.6258 220.177 20.3828 223.77 24.3902C227.79 28.8729 231.958 33.2277 236.054 37.6372C236.984 38.6398 237.861 37.4696 238.139 36.5432C238.498 35.3426 238.52 33.3709 237.593 32.3744C234.628 29.1807 231.666 25.9901 228.701 22.7964C226.135 20.0324 223.209 17.2958 221.442 13.9193C220.918 12.9167 220.086 11.3686 220.436 10.1954C220.86 8.78747 222.643 8.29379 223.932 8.31817C225.516 8.35169 226.939 9.13182 228 10.2837C228.719 11.0639 230.377 13.13 230.066 14.2332C229.725 15.44 229.645 17.433 230.611 18.402C231.578 19.3711 232.422 18.2862 232.696 17.308V17.3111Z" fill="#CCD7E6"/>
<path d="M237.099 34.9462C240.466 31.7464 243.569 28.2663 246.363 24.5545C247.189 23.4605 247.99 22.333 248.542 21.0774C249.383 19.1545 249.59 17.0214 249.788 14.9308C249.974 12.9561 250.154 10.9265 249.602 9.02191C248.649 5.73376 245.44 3.30193 242.024 3.03681C238.607 2.77169 235.173 4.55137 233.204 7.35193C231.236 10.1525 230.709 13.8551 231.556 17.1737" fill="#CCD7E6"/>
<path d="M237.871 37.5763C241.521 34.084 244.998 30.29 247.893 26.1424C250.788 21.9949 251.596 16.6894 251.495 11.6764C251.407 7.15405 249.509 2.6317 245.12 0.763645C241.122 -0.936807 236.682 0.330913 233.65 3.29604C229.636 7.21805 229.024 13.5048 230.246 18.7068C230.484 19.7155 231.401 20.715 232.33 19.8008C233.318 18.8287 233.156 16.8265 232.876 15.6319C230.953 7.43441 243.996 2.11365 247.97 9.79615C248.838 11.4753 248.387 13.6359 248.189 15.4278C247.942 17.6706 247.394 19.4564 246.056 21.3001C243.179 25.2678 239.87 28.9308 236.332 32.3134C234.948 33.6391 235.856 39.5023 237.871 37.5763Z" fill="#CCD7E6"/>
<path d="M224.654 31.6919C224.572 31.5822 224.523 31.4968 224.456 31.4328C223.481 30.4455 222.499 29.4642 221.53 28.4708C218.724 25.6001 216.371 22.379 214.21 19.0086C213.817 18.396 213.488 17.7378 213.19 17.0735C211.773 13.9286 212.163 10.8446 213.607 7.83374C214.296 6.39537 215.362 5.27697 216.721 4.42674C218.651 3.21692 220.744 2.55259 223.014 2.57392C226.473 2.60439 228.823 4.51207 230.423 7.36749C231.575 9.42449 232.135 11.7131 232.248 14.084C232.416 17.6525 231.8 21.1235 230.801 24.5305C230.343 26.0877 229.536 27.4804 228.643 28.8243C228.052 29.7141 227.439 30.5918 226.799 31.5273C228.515 33.4624 230.59 35.0075 232.44 36.845C234.439 34.7088 236.792 33.0297 238.721 30.8691C238.571 30.6466 238.456 30.4638 238.328 30.2901C235.198 25.9841 234.363 23.9484 233.568 18.6856C233.187 16.1653 233.056 13.6451 233.561 11.1249C233.851 9.68656 234.259 8.27257 234.942 6.97742C236.341 4.32313 238.398 2.46421 241.463 1.97663C242.883 1.75112 244.291 1.9553 245.654 2.36365C248.229 3.13464 250.459 4.43589 251.758 6.90428C253.635 10.4758 253.76 14.0779 251.727 17.6464C251.246 18.4905 250.721 19.3194 250.158 20.1117C248.533 22.3942 246.94 24.7011 244.995 26.7307C243.7 28.0868 242.381 29.4185 241.07 30.7624C241.006 30.8295 240.951 30.9087 240.851 31.0336C241.04 31.2348 241.213 31.4328 241.396 31.6157C243.603 33.7976 246.193 35.431 248.936 36.8389C252.687 38.7619 256.655 40.0783 260.778 40.9255C262.326 41.2424 263.889 41.4923 265.456 41.7239C268.274 42.1414 271.096 42.5376 273.921 42.9094C277.712 43.4091 281.503 43.912 285.3 44.3477C286.772 44.5154 288.265 44.5397 289.75 44.5763C292.623 44.6433 295.497 44.6891 298.371 44.7134C299.879 44.7256 301.235 44.9024 302.747 44.8963C303.792 44.8932 304.913 45.1187 305.959 45.1248C306.495 45.1248 307.818 45.2467 308.354 45.2498C308.863 45.2528 309.914 45.3046 310.42 45.3686L310.393 46.5602C309.704 46.6211 309.101 46.615 308.4 46.6242C304.6 46.6668 300.095 46.1488 296.295 46.1305C293.3 46.1152 290.304 45.9964 287.309 45.9385C284.889 45.8928 282.509 45.4966 280.12 45.1705C277.49 44.811 274.854 44.4971 272.224 44.1436C269.064 43.72 265.885 43.3756 262.746 42.8179C256.539 41.7148 250.606 39.798 245.218 36.4154C243.374 35.2573 241.64 33.9652 240.119 32.4019C240.034 32.3135 239.946 32.2313 239.854 32.152C239.821 32.1246 239.769 32.1155 239.681 32.0819C239.571 32.1734 239.44 32.277 239.318 32.3897C237.532 34.0475 235.753 35.7084 233.964 37.3631C233.644 37.6587 233.296 37.9269 232.949 38.195C232.559 38.4998 232.221 38.5059 231.809 38.2194C231.651 38.1097 231.511 37.9695 231.37 37.8354C229.585 36.1777 227.802 34.5199 226.016 32.8651C225.964 32.8164 225.897 32.7889 225.797 32.728C225.693 32.8133 225.574 32.8895 225.477 32.987C223.1 35.4249 220.281 37.2351 217.276 38.7801C213.461 40.7396 209.423 42.0652 205.239 42.9825C203.429 43.3787 201.609 43.6773 199.766 43.8937C197.422 44.171 195.091 44.5641 192.748 44.881C189.779 45.2833 186.799 45.6094 183.84 46.0573C180.576 46.551 177.294 46.6882 174.006 46.7064C169.161 46.7339 164.312 46.7278 159.464 46.7156C158.394 46.7156 157.325 46.6455 156.255 46.5998C155.929 46.5876 155.606 46.5541 155.581 46.1122C155.563 45.7465 155.731 45.5027 156.182 45.4204C156.608 45.3412 157.05 45.3138 157.486 45.3168C164.184 45.3686 170.882 45.3656 177.578 45.1645C179.601 45.1035 181.609 44.8963 183.614 44.6098C186.604 44.1832 189.603 43.8297 192.595 43.4274C195.804 42.9977 199.028 42.6412 202.216 42.0896C208.457 41.0108 214.415 39.1032 219.802 35.6596C221.366 34.66 222.847 33.5538 224.16 32.2343C224.328 32.0637 224.486 31.8839 224.657 31.6949L224.654 31.6919ZM239.827 29.9152C240.293 29.4825 240.665 29.1717 241 28.8212C243.161 26.5753 245.364 24.369 247.132 21.7817C248.189 20.2367 249.329 18.7435 250.313 17.1497C251.733 14.8489 252.105 12.3805 251.346 9.72009C250.621 7.18465 249.146 5.36839 246.741 4.3018C245.157 3.59785 243.499 3.19254 241.768 3.40586C239.266 3.7167 237.557 5.2465 236.386 7.3553C235.399 9.13803 234.826 11.1067 234.75 13.1454C234.555 18.3839 235.423 24.2928 239.263 29.0955C239.385 29.2479 239.498 29.4063 239.611 29.5648C239.668 29.644 239.714 29.7293 239.827 29.9091V29.9152ZM225.705 30.5674C226.513 29.3515 227.269 28.2514 227.982 27.1269C228.862 25.7372 229.499 24.2349 229.819 22.6198C230.151 20.9498 230.487 19.2767 230.694 17.5885C231.069 14.5137 230.703 11.5241 229.457 8.65654C228.75 7.03227 227.592 5.81941 226.135 4.87471C225.282 4.32313 224.316 4.02753 223.298 4.03972C222.499 4.04887 221.686 4.10372 220.909 4.26523C219.01 4.65835 217.276 5.45981 215.978 6.92866C214.299 8.8272 213.689 11.1554 213.793 13.633C213.866 15.3669 214.594 16.9242 215.524 18.3839C218.135 22.4887 221.195 26.2279 224.663 29.6349C224.956 29.9213 225.273 30.1834 225.699 30.5674H225.705Z" fill="#47567B"/>
<path d="M175.732 79.7256L175.62 79.0116C176.376 78.1996 177.02 77.4949 177.552 76.8976C178.084 76.3003 178.518 75.7823 178.854 75.3436C179.199 74.9049 179.47 74.5176 179.666 74.1816C179.862 73.8363 179.997 73.5236 180.072 73.2436C180.156 72.9543 180.198 72.6649 180.198 72.3756C180.198 71.7969 180.034 71.3349 179.708 70.9896C179.39 70.6349 178.924 70.4576 178.308 70.4576C177.906 70.4576 177.566 70.5229 177.286 70.6536C177.006 70.7843 176.796 70.9616 176.656 71.1856C176.758 71.2976 176.838 71.4049 176.894 71.5076C176.959 71.6009 177.006 71.6896 177.034 71.7736C177.071 71.8483 177.09 71.9229 177.09 71.9976C177.09 72.1469 177.02 72.2869 176.88 72.4176C176.74 72.5483 176.572 72.6136 176.376 72.6136C176.086 72.6136 175.876 72.5249 175.746 72.3476C175.624 72.1703 175.564 71.9696 175.564 71.7456C175.564 71.3909 175.685 71.0596 175.928 70.7516C176.18 70.4436 176.52 70.1963 176.95 70.0096C177.388 69.8136 177.888 69.7156 178.448 69.7156C179.017 69.7156 179.512 69.8229 179.932 70.0376C180.361 70.2429 180.692 70.5416 180.926 70.9336C181.168 71.3163 181.29 71.7876 181.29 72.3476C181.29 72.6556 181.243 72.9683 181.15 73.2856C181.066 73.5936 180.921 73.9249 180.716 74.2796C180.52 74.6343 180.249 75.0309 179.904 75.4696C179.558 75.8989 179.129 76.3889 178.616 76.9396C178.102 77.4809 177.491 78.1063 176.782 78.8156H179.078C179.395 78.8156 179.652 78.8016 179.848 78.7736C180.053 78.7456 180.221 78.6803 180.352 78.5776C180.482 78.4749 180.594 78.3116 180.688 78.0876C180.79 77.8543 180.898 77.5416 181.01 77.1496H181.57L181.276 79.7256H175.732ZM184.776 79.9076C184.524 79.9076 184.314 79.8283 184.146 79.6696C183.987 79.5109 183.908 79.3056 183.908 79.0536C183.908 78.8016 183.987 78.5963 184.146 78.4376C184.314 78.2696 184.524 78.1856 184.776 78.1856C185.037 78.1856 185.247 78.2649 185.406 78.4236C185.565 78.5823 185.644 78.7876 185.644 79.0396C185.644 79.2916 185.565 79.5016 185.406 79.6696C185.247 79.8283 185.037 79.9076 184.776 79.9076ZM191.668 79.7256V79.2076L192.298 79.0956C192.466 79.0583 192.587 78.9976 192.662 78.9136C192.746 78.8296 192.839 78.6429 192.942 78.3536L195.938 69.9116H196.946L199.886 78.3816C199.97 78.6149 200.045 78.7783 200.11 78.8716C200.175 78.9649 200.306 79.0349 200.502 79.0816L201.048 79.1796V79.7256H197.716V79.2076L198.528 79.1096C198.715 79.0816 198.827 79.0209 198.864 78.9276C198.901 78.8249 198.878 78.6523 198.794 78.4096L198.136 76.4636H194.398L193.74 78.3536C193.665 78.5683 193.642 78.7409 193.67 78.8716C193.707 78.9929 193.838 79.0723 194.062 79.1096L194.86 79.2216V79.7256H191.668ZM194.622 75.7916H197.912L196.302 70.9756H196.26L194.622 75.7916ZM202.397 79.7256V79.2216L203.209 79.0956C203.386 79.0676 203.503 79.0069 203.559 78.9136C203.615 78.8203 203.643 78.6429 203.643 78.3816V71.2276C203.643 70.9943 203.615 70.8356 203.559 70.7516C203.503 70.6583 203.377 70.5929 203.181 70.5556L202.397 70.4296V69.9116H206.261C206.895 69.9116 207.474 69.9769 207.997 70.1076C208.529 70.2383 208.991 70.4296 209.383 70.6816C209.784 70.9336 210.12 71.2463 210.391 71.6196C210.671 71.9929 210.881 72.4223 211.021 72.9076C211.161 73.3929 211.231 73.9296 211.231 74.5176C211.231 75.3949 211.109 76.1603 210.867 76.8136C210.624 77.4669 210.274 78.0129 209.817 78.4516C209.369 78.8809 208.823 79.2029 208.179 79.4176C207.535 79.6229 206.807 79.7256 205.995 79.7256H202.397ZM205.911 79.0816C206.583 79.0816 207.175 79.0023 207.689 78.8436C208.211 78.6849 208.655 78.4329 209.019 78.0876C209.383 77.7329 209.658 77.2756 209.845 76.7156C210.031 76.1463 210.125 75.4603 210.125 74.6576C210.125 73.7523 209.975 72.9963 209.677 72.3896C209.378 71.7736 208.935 71.3163 208.347 71.0176C207.759 70.7096 207.026 70.5556 206.149 70.5556H204.679V79.0116C204.809 79.0303 204.991 79.0489 205.225 79.0676C205.467 79.0769 205.696 79.0816 205.911 79.0816ZM213.204 79.7256V79.2216L214.016 79.0956C214.193 79.0676 214.31 79.0069 214.366 78.9136C214.422 78.8203 214.45 78.6429 214.45 78.3816V71.2276C214.45 70.9943 214.422 70.8356 214.366 70.7516C214.31 70.6583 214.184 70.5929 213.988 70.5556L213.204 70.4296V69.9116H217.068C217.703 69.9116 218.281 69.9769 218.804 70.1076C219.336 70.2383 219.798 70.4296 220.19 70.6816C220.591 70.9336 220.927 71.2463 221.198 71.6196C221.478 71.9929 221.688 72.4223 221.828 72.9076C221.968 73.3929 222.038 73.9296 222.038 74.5176C222.038 75.3949 221.917 76.1603 221.674 76.8136C221.431 77.4669 221.081 78.0129 220.624 78.4516C220.176 78.8809 219.63 79.2029 218.986 79.4176C218.342 79.6229 217.614 79.7256 216.802 79.7256H213.204ZM216.718 79.0816C217.39 79.0816 217.983 79.0023 218.496 78.8436C219.019 78.6849 219.462 78.4329 219.826 78.0876C220.19 77.7329 220.465 77.2756 220.652 76.7156C220.839 76.1463 220.932 75.4603 220.932 74.6576C220.932 73.7523 220.783 72.9963 220.484 72.3896C220.185 71.7736 219.742 71.3163 219.154 71.0176C218.566 70.7096 217.833 70.5556 216.956 70.5556H215.486V79.0116C215.617 79.0303 215.799 79.0489 216.032 79.0676C216.275 79.0769 216.503 79.0816 216.718 79.0816ZM230.4 79.9216C229.886 79.9216 229.401 79.8283 228.944 79.6416C228.496 79.4456 228.127 79.1983 227.838 78.8996L227.656 79.8096H227.18L226.886 76.7156L227.446 76.6596C227.586 77.1076 227.754 77.4949 227.95 77.8216C228.155 78.1389 228.384 78.4003 228.636 78.6056C228.888 78.8109 229.158 78.9649 229.448 79.0676C229.737 79.1609 230.04 79.2076 230.358 79.2076C230.731 79.2076 231.067 79.1423 231.366 79.0116C231.664 78.8809 231.902 78.6756 232.08 78.3956C232.257 78.1156 232.346 77.7563 232.346 77.3176C232.346 76.9909 232.28 76.7016 232.15 76.4496C232.028 76.1883 231.804 75.9503 231.478 75.7356C231.151 75.5116 230.689 75.3063 230.092 75.1196C229.55 74.9423 229.098 74.7603 228.734 74.5736C228.37 74.3776 228.076 74.1723 227.852 73.9576C227.637 73.7336 227.483 73.4816 227.39 73.2016C227.296 72.9216 227.25 72.6089 227.25 72.2636C227.25 71.9369 227.296 71.6429 227.39 71.3816C227.483 71.1109 227.614 70.8729 227.782 70.6676C227.959 70.4623 228.164 70.2896 228.398 70.1496C228.64 70.0096 228.902 69.9023 229.182 69.8276C229.471 69.7529 229.774 69.7156 230.092 69.7156C230.474 69.7156 230.843 69.7856 231.198 69.9256C231.552 70.0656 231.874 70.2569 232.164 70.4996L232.36 69.7156H232.836L233.144 72.4876L232.57 72.5716C232.402 72.0489 232.196 71.6289 231.954 71.3116C231.72 70.9943 231.45 70.7609 231.142 70.6116C230.834 70.4623 230.484 70.3876 230.092 70.3876C229.55 70.3876 229.112 70.5323 228.776 70.8216C228.449 71.1109 228.286 71.5076 228.286 72.0116C228.286 72.3289 228.346 72.6136 228.468 72.8656C228.598 73.1083 228.827 73.3323 229.154 73.5376C229.48 73.7336 229.938 73.9343 230.526 74.1396C231.086 74.3169 231.548 74.5129 231.912 74.7276C232.285 74.9329 232.574 75.1569 232.78 75.3996C232.994 75.6423 233.144 75.9036 233.228 76.1836C233.321 76.4543 233.368 76.7529 233.368 77.0796C233.368 77.4996 233.298 77.8823 233.158 78.2276C233.018 78.5729 232.817 78.8716 232.556 79.1236C232.294 79.3756 231.982 79.5716 231.618 79.7116C231.254 79.8516 230.848 79.9216 230.4 79.9216ZM235.317 79.7256V79.2216L236.129 79.0956C236.307 79.0676 236.423 79.0069 236.479 78.9136C236.535 78.8203 236.563 78.6429 236.563 78.3816V71.2276C236.563 70.9943 236.535 70.8356 236.479 70.7516C236.423 70.6583 236.297 70.5929 236.101 70.5556L235.317 70.4296V69.9116H241.561L242.065 72.1376L241.505 72.3056C241.365 71.9136 241.235 71.6009 241.113 71.3676C240.992 71.1343 240.852 70.9616 240.693 70.8496C240.535 70.7283 240.343 70.6489 240.119 70.6116C239.895 70.5743 239.615 70.5556 239.279 70.5556H237.599V74.3776H239.209C239.527 74.3776 239.76 74.3589 239.909 74.3216C240.059 74.2749 240.171 74.1723 240.245 74.0136C240.32 73.8549 240.395 73.5983 240.469 73.2436L240.973 73.1736V76.1696L240.469 76.2536C240.413 75.8989 240.343 75.6376 240.259 75.4696C240.185 75.3016 240.059 75.1943 239.881 75.1476C239.713 75.1009 239.457 75.0776 239.111 75.0776H237.599V79.0816H239.797C240.124 79.0816 240.395 79.0583 240.609 79.0116C240.824 78.9556 241.001 78.8623 241.141 78.7316C241.291 78.5916 241.412 78.4049 241.505 78.1716C241.608 77.9289 241.697 77.6209 241.771 77.2476H242.359L242.037 79.7256H235.317ZM251.699 79.9216C251.4 79.9216 251.143 79.8703 250.929 79.7676C250.714 79.6743 250.523 79.5156 250.355 79.2916C250.187 79.0676 250.023 78.7643 249.865 78.3816L249.137 76.5196C248.987 76.1556 248.838 75.8803 248.689 75.6936C248.539 75.4976 248.362 75.3669 248.157 75.3016C247.961 75.2363 247.709 75.2036 247.401 75.2036C247.233 75.2036 247.083 75.2083 246.953 75.2176C246.822 75.2176 246.701 75.2269 246.589 75.2456V78.4236C246.589 78.6476 246.621 78.8109 246.687 78.9136C246.761 79.0163 246.897 79.0769 247.093 79.0956L248.143 79.2216V79.7256H244.293V79.2216L245.133 79.0956C245.301 79.0676 245.413 79.0116 245.469 78.9276C245.534 78.8343 245.567 78.6523 245.567 78.3816V71.2136C245.567 70.9803 245.534 70.8216 245.469 70.7376C245.403 70.6443 245.277 70.5836 245.091 70.5556L244.293 70.4296V69.9116H247.499C248.124 69.9116 248.67 69.9676 249.137 70.0796C249.603 70.1823 249.986 70.3409 250.285 70.5556C250.593 70.7609 250.821 71.0223 250.971 71.3396C251.12 71.6569 251.195 72.0256 251.195 72.4456C251.195 72.6603 251.162 72.8749 251.097 73.0896C251.041 73.3043 250.952 73.5096 250.831 73.7056C250.709 73.9016 250.555 74.0836 250.369 74.2516C250.182 74.4196 249.963 74.5643 249.711 74.6856C249.468 74.8069 249.193 74.8956 248.885 74.9516V74.9936C249.221 75.0869 249.491 75.2409 249.697 75.4556C249.902 75.6609 250.075 75.9409 250.215 76.2956L250.691 77.4716C250.84 77.8263 250.971 78.1296 251.083 78.3816C251.204 78.6336 251.339 78.8296 251.489 78.9696C251.647 79.1003 251.848 79.1656 252.091 79.1656C252.221 79.1656 252.343 79.1516 252.455 79.1236C252.576 79.0956 252.697 79.0583 252.819 79.0116L252.931 79.4176C252.772 79.5763 252.585 79.6976 252.371 79.7816C252.165 79.8749 251.941 79.9216 251.699 79.9216ZM247.541 74.6016C248.035 74.6016 248.474 74.5269 248.857 74.3776C249.239 74.2189 249.543 73.9809 249.767 73.6636C249.991 73.3463 250.103 72.9543 250.103 72.4876C250.103 72.0209 250 71.6476 249.795 71.3676C249.589 71.0876 249.291 70.8869 248.899 70.7656C248.507 70.6349 248.026 70.5696 247.457 70.5696H246.589V74.5736C246.831 74.5829 247.027 74.5923 247.177 74.6016C247.326 74.6016 247.447 74.6016 247.541 74.6016ZM256.726 79.7256L253.772 71.2836C253.678 70.9943 253.594 70.8123 253.52 70.7376C253.454 70.6536 253.333 70.5929 253.156 70.5556L252.596 70.4436V69.9116H255.914V70.4296L255.116 70.5276C254.948 70.5556 254.84 70.6116 254.794 70.6956C254.747 70.7796 254.766 70.9569 254.85 71.2276L257.328 78.6336H257.37L259.876 71.2976C259.969 71.0363 259.992 70.8543 259.946 70.7516C259.899 70.6489 259.764 70.5789 259.54 70.5416L258.812 70.4156V69.9116H261.948V70.4296L261.346 70.5276C261.178 70.5556 261.052 70.6163 260.968 70.7096C260.893 70.8029 260.804 70.9989 260.702 71.2976L257.734 79.7256H256.726ZM263.337 79.7256V79.2216L264.177 79.0956C264.355 79.0676 264.471 79.0069 264.527 78.9136C264.583 78.8203 264.611 78.6429 264.611 78.3816V71.2136C264.611 70.9803 264.579 70.8216 264.513 70.7376C264.457 70.6443 264.336 70.5836 264.149 70.5556L263.337 70.4296V69.9116H266.921V70.4296L266.067 70.5556C265.899 70.5836 265.787 70.6489 265.731 70.7516C265.675 70.8449 265.647 71.0176 265.647 71.2696V78.4376C265.647 78.6709 265.675 78.8343 265.731 78.9276C265.797 79.0116 265.918 79.0676 266.095 79.0956L266.921 79.2216V79.7256H263.337ZM273.344 79.9216C272.448 79.9216 271.664 79.7209 270.992 79.3196C270.33 78.9183 269.812 78.3396 269.438 77.5836C269.074 76.8183 268.892 75.9036 268.892 74.8396C268.892 74.0463 268.995 73.3369 269.2 72.7116C269.406 72.0769 269.7 71.5356 270.082 71.0876C270.465 70.6396 270.922 70.2989 271.454 70.0656C271.986 69.8323 272.579 69.7156 273.232 69.7156C273.736 69.7156 274.189 69.7949 274.59 69.9536C275.001 70.1029 275.356 70.3223 275.654 70.6116L275.794 69.7016H276.284L276.816 72.8656L276.27 72.9916C276.056 72.3756 275.808 71.8856 275.528 71.5216C275.248 71.1483 274.922 70.8776 274.548 70.7096C274.175 70.5416 273.732 70.4576 273.218 70.4576C272.574 70.4576 272.01 70.6163 271.524 70.9336C271.048 71.2509 270.675 71.7316 270.404 72.3756C270.134 73.0103 269.998 73.8083 269.998 74.7696C269.998 75.4509 270.078 76.0623 270.236 76.6036C270.395 77.1356 270.624 77.5929 270.922 77.9756C271.23 78.3489 271.594 78.6383 272.014 78.8436C272.444 79.0396 272.924 79.1376 273.456 79.1376C273.848 79.1376 274.217 79.0863 274.562 78.9836C274.908 78.8809 275.23 78.7129 275.528 78.4796C275.836 78.2463 276.13 77.9429 276.41 77.5696L276.928 77.9756C276.704 78.3116 276.452 78.6056 276.172 78.8576C275.892 79.1003 275.594 79.3009 275.276 79.4596C274.968 79.6183 274.651 79.7349 274.324 79.8096C273.998 79.8843 273.671 79.9216 273.344 79.9216ZM278.786 79.7256V79.2216L279.598 79.0956C279.775 79.0676 279.892 79.0069 279.948 78.9136C280.004 78.8203 280.032 78.6429 280.032 78.3816V71.2276C280.032 70.9943 280.004 70.8356 279.948 70.7516C279.892 70.6583 279.766 70.5929 279.57 70.5556L278.786 70.4296V69.9116H285.03L285.534 72.1376L284.974 72.3056C284.834 71.9136 284.703 71.6009 284.582 71.3676C284.461 71.1343 284.321 70.9616 284.162 70.8496C284.003 70.7283 283.812 70.6489 283.588 70.6116C283.364 70.5743 283.084 70.5556 282.748 70.5556H281.068V74.3776H282.678C282.995 74.3776 283.229 74.3589 283.378 74.3216C283.527 74.2749 283.639 74.1723 283.714 74.0136C283.789 73.8549 283.863 73.5983 283.938 73.2436L284.442 73.1736V76.1696L283.938 76.2536C283.882 75.8989 283.812 75.6376 283.728 75.4696C283.653 75.3016 283.527 75.1943 283.35 75.1476C283.182 75.1009 282.925 75.0776 282.58 75.0776H281.068V79.0816H283.266C283.593 79.0816 283.863 79.0583 284.078 79.0116C284.293 78.9556 284.47 78.8623 284.61 78.7316C284.759 78.5916 284.881 78.4049 284.974 78.1716C285.077 77.9289 285.165 77.6209 285.24 77.2476H285.828L285.506 79.7256H278.786ZM291.135 79.9216C290.622 79.9216 290.136 79.8283 289.679 79.6416C289.231 79.4456 288.862 79.1983 288.573 78.8996L288.391 79.8096H287.915L287.621 76.7156L288.181 76.6596C288.321 77.1076 288.489 77.4949 288.685 77.8216C288.89 78.1389 289.119 78.4003 289.371 78.6056C289.623 78.8109 289.894 78.9649 290.183 79.0676C290.472 79.1609 290.776 79.2076 291.093 79.2076C291.466 79.2076 291.802 79.1423 292.101 79.0116C292.4 78.8809 292.638 78.6756 292.815 78.3956C292.992 78.1156 293.081 77.7563 293.081 77.3176C293.081 76.9909 293.016 76.7016 292.885 76.4496C292.764 76.1883 292.54 75.9503 292.213 75.7356C291.886 75.5116 291.424 75.3063 290.827 75.1196C290.286 74.9423 289.833 74.7603 289.469 74.5736C289.105 74.3776 288.811 74.1723 288.587 73.9576C288.372 73.7336 288.218 73.4816 288.125 73.2016C288.032 72.9216 287.985 72.6089 287.985 72.2636C287.985 71.9369 288.032 71.6429 288.125 71.3816C288.218 71.1109 288.349 70.8729 288.517 70.6676C288.694 70.4623 288.9 70.2896 289.133 70.1496C289.376 70.0096 289.637 69.9023 289.917 69.8276C290.206 69.7529 290.51 69.7156 290.827 69.7156C291.21 69.7156 291.578 69.7856 291.933 69.9256C292.288 70.0656 292.61 70.2569 292.899 70.4996L293.095 69.7156H293.571L293.879 72.4876L293.305 72.5716C293.137 72.0489 292.932 71.6289 292.689 71.3116C292.456 70.9943 292.185 70.7609 291.877 70.6116C291.569 70.4623 291.219 70.3876 290.827 70.3876C290.286 70.3876 289.847 70.5323 289.511 70.8216C289.184 71.1109 289.021 71.5076 289.021 72.0116C289.021 72.3289 289.082 72.6136 289.203 72.8656C289.334 73.1083 289.562 73.3323 289.889 73.5376C290.216 73.7336 290.673 73.9343 291.261 74.1396C291.821 74.3169 292.283 74.5129 292.647 74.7276C293.02 74.9329 293.31 75.1569 293.515 75.3996C293.73 75.6423 293.879 75.9036 293.963 76.1836C294.056 76.4543 294.103 76.7529 294.103 77.0796C294.103 77.4996 294.033 77.8823 293.893 78.2276C293.753 78.5729 293.552 78.8716 293.291 79.1236C293.03 79.3756 292.717 79.5716 292.353 79.7116C291.989 79.8516 291.583 79.9216 291.135 79.9216Z" fill="#47567B"/>
<path d="M386.223 15.7751C386.805 14.096 386.317 12.228 385.558 10.6189C384.617 8.62592 383.184 6.77005 381.188 5.8345C379.192 4.89895 376.578 5.09398 375.06 6.69387C373.683 8.14748 373.482 10.3812 373.862 12.3468C374.694 16.6254 377.784 20.0567 380.75 23.2504C384.388 27.1694 388.027 31.0883 391.662 35.0043" fill="#667593"/>
<path d="M387.536 17.3111C388.953 12.2889 386.606 5.20677 381.59 2.89683C379.606 1.98261 377.111 1.95519 375.27 3.22291C373.088 4.72223 372.302 7.50451 372.189 10.0217C371.939 15.6258 375.017 20.3828 378.61 24.3902C382.629 28.8729 386.798 33.2277 390.894 37.6372C391.823 38.6398 392.701 37.4696 392.978 36.5432C393.338 35.3426 393.359 33.3709 392.433 32.3744C389.468 29.1807 386.506 25.9901 383.541 22.7964C380.975 20.0324 378.049 17.2958 376.282 13.9193C375.758 12.9167 374.926 11.3686 375.276 10.1954C375.7 8.78747 377.482 8.29379 378.771 8.31817C380.356 8.35169 381.779 9.13182 382.84 10.2837C383.559 11.0639 385.217 13.13 384.906 14.2332C384.565 15.44 384.485 17.433 385.451 18.402C386.417 19.3711 387.261 18.2862 387.536 17.308V17.3111Z" fill="#667593"/>
<path d="M391.939 34.9462C395.306 31.7464 398.408 28.2663 401.203 24.5545C402.029 23.4605 402.83 22.333 403.382 21.0774C404.223 19.1545 404.43 17.0214 404.628 14.9308C404.814 12.9561 404.994 10.9265 404.442 9.02191C403.488 5.73376 400.28 3.30193 396.863 3.03681C393.447 2.77169 390.013 4.55137 388.044 7.35193C386.076 10.1525 385.548 13.8551 386.396 17.1737" fill="#667593"/>
<path d="M392.71 37.5763C396.361 34.084 399.838 30.29 402.733 26.1424C405.628 21.9949 406.436 16.6894 406.335 11.6764C406.247 7.15405 404.348 2.6317 399.96 0.763645C395.962 -0.936807 391.522 0.330913 388.49 3.29604C384.476 7.21805 383.864 13.5048 385.086 18.7068C385.323 19.7155 386.241 20.715 387.17 19.8008C388.158 18.8287 387.996 16.8265 387.716 15.6319C385.793 7.43441 398.836 2.11365 402.809 9.79615C403.678 11.4753 403.227 13.6359 403.029 15.4278C402.782 17.6706 402.234 19.4564 400.896 21.3001C398.019 25.2678 394.709 28.9308 391.171 32.3134C389.788 33.6391 390.696 39.5023 392.71 37.5763Z" fill="#667593"/>
<path d="M379.494 31.6919C379.411 31.5822 379.363 31.4968 379.296 31.4328C378.32 30.4455 377.339 29.4642 376.37 28.4708C373.563 25.6001 371.211 22.379 369.05 19.0086C368.657 18.396 368.328 17.7378 368.029 17.0735C366.612 13.9286 367.002 10.8446 368.447 7.83374C369.136 6.39537 370.202 5.27697 371.561 4.42674C373.49 3.21692 375.584 2.55259 377.854 2.57392C381.313 2.60439 383.663 4.51207 385.262 7.36749C386.414 9.42449 386.975 11.7131 387.088 14.084C387.255 17.6525 386.64 21.1235 385.64 24.5305C385.183 26.0877 384.376 27.4804 383.483 28.8243C382.892 29.7141 382.279 30.5918 381.639 31.5273C383.355 33.4624 385.43 35.0075 387.28 36.845C389.279 34.7088 391.632 33.0297 393.561 30.8691C393.411 30.6466 393.295 30.4638 393.167 30.2901C390.038 25.9841 389.203 23.9484 388.407 18.6856C388.026 16.1653 387.895 13.6451 388.401 11.1249C388.691 9.68656 389.099 8.27257 389.782 6.97742C391.181 4.32313 393.238 2.46421 396.303 1.97663C397.723 1.75112 399.131 1.9553 400.493 2.36365C403.068 3.13464 405.299 4.43589 406.597 6.90428C408.475 10.4758 408.6 14.0779 406.567 17.6464C406.085 18.4905 405.561 19.3194 404.997 20.1117C403.373 22.3942 401.779 24.7011 399.835 26.7307C398.54 28.0868 397.22 29.4185 395.91 30.7624C395.846 30.8295 395.791 30.9087 395.691 31.0336C395.88 31.2348 396.053 31.4328 396.236 31.6157C398.443 33.7976 401.033 35.431 403.775 36.8389C407.527 38.7619 411.495 40.0783 415.618 40.9255C417.166 41.2424 418.729 41.4923 420.295 41.7239C423.114 42.1414 425.936 42.5376 428.761 42.9094C432.552 43.4091 436.343 43.912 440.14 44.3477C441.612 44.5154 443.105 44.5397 444.589 44.5763C447.463 44.6433 450.337 44.6891 453.21 44.7134C454.719 44.7256 456.075 44.9024 457.587 44.8963C458.632 44.8932 459.753 45.1187 460.799 45.1248C461.335 45.1248 462.657 45.2467 463.194 45.2498C463.703 45.2528 464.754 45.3046 465.26 45.3686L465.232 46.5602C464.544 46.6211 463.94 46.615 463.239 46.6242C459.439 46.6668 454.935 46.1488 451.135 46.1305C448.14 46.1152 445.144 45.9964 442.148 45.9385C439.729 45.8928 437.349 45.4966 434.96 45.1705C432.33 44.811 429.694 44.4971 427.064 44.1436C423.904 43.72 420.725 43.3756 417.586 42.8179C411.379 41.7148 405.445 39.798 400.058 36.4154C398.214 35.2573 396.48 33.9652 394.959 32.4019C394.874 32.3135 394.786 32.2313 394.694 32.152C394.661 32.1246 394.609 32.1155 394.52 32.0819C394.411 32.1734 394.28 32.277 394.158 32.3897C392.372 34.0475 390.592 35.7084 388.804 37.3631C388.484 37.6587 388.136 37.9269 387.789 38.195C387.399 38.4998 387.06 38.5059 386.649 38.2194C386.491 38.1097 386.35 37.9695 386.21 37.8354C384.424 36.1777 382.642 34.5199 380.856 32.8651C380.804 32.8164 380.737 32.7889 380.637 32.728C380.533 32.8133 380.414 32.8895 380.317 32.987C377.94 35.4249 375.121 37.2351 372.116 38.7801C368.301 40.7396 364.263 42.0652 360.079 42.9825C358.269 43.3787 356.449 43.6773 354.606 43.8937C352.262 44.171 349.931 44.5641 347.587 44.881C344.619 45.2833 341.639 45.6094 338.68 46.0573C335.416 46.551 332.134 46.6882 328.846 46.7064C324 46.7339 319.152 46.7278 314.304 46.7156C313.234 46.7156 312.164 46.6455 311.095 46.5998C310.769 46.5876 310.446 46.5541 310.421 46.1122C310.403 45.7465 310.571 45.5027 311.022 45.4204C311.448 45.3412 311.89 45.3138 312.326 45.3168C319.024 45.3686 325.722 45.3656 332.417 45.1645C334.441 45.1035 336.449 44.8963 338.454 44.6098C341.444 44.1832 344.442 43.8297 347.435 43.4274C350.644 42.9977 353.868 42.6412 357.056 42.0896C363.297 41.0108 369.254 39.1032 374.642 35.6596C376.206 34.66 377.687 33.5538 379 32.2343C379.168 32.0637 379.326 31.8839 379.497 31.6949L379.494 31.6919ZM394.667 29.9152C395.133 29.4825 395.505 29.1717 395.84 28.8212C398.001 26.5753 400.204 24.369 401.971 21.7817C403.029 20.2367 404.169 18.7435 405.153 17.1497C406.573 14.8489 406.945 12.3805 406.186 9.72009C405.461 7.18465 403.986 5.36839 401.581 4.3018C399.997 3.59785 398.339 3.19254 396.608 3.40586C394.106 3.7167 392.396 5.2465 391.226 7.3553C390.239 9.13803 389.666 11.1067 389.59 13.1454C389.395 18.3839 390.263 24.2928 394.103 29.0955C394.225 29.2479 394.338 29.4063 394.45 29.5648C394.508 29.644 394.554 29.7293 394.667 29.9091V29.9152ZM380.545 30.5674C381.353 29.3515 382.108 28.2514 382.822 27.1269C383.702 25.7372 384.339 24.2349 384.659 22.6198C384.991 20.9498 385.326 19.2767 385.534 17.5885C385.909 14.5137 385.543 11.5241 384.296 8.65654C383.589 7.03227 382.431 5.81941 380.975 4.87471C380.122 4.32313 379.155 4.02753 378.138 4.03972C377.339 4.04887 376.526 4.10372 375.748 4.26523C373.85 4.65835 372.116 5.45981 370.818 6.92866C369.139 8.8272 368.529 11.1554 368.633 13.633C368.706 15.3669 369.434 16.9242 370.364 18.3839C372.975 22.4887 376.035 26.2279 379.503 29.6349C379.795 29.9213 380.112 30.1834 380.539 30.5674H380.545Z" fill="#47567B"/>
<path d="M350.286 79.9216C349.838 79.9216 349.446 79.8656 349.11 79.7536C348.774 79.6416 348.48 79.4969 348.228 79.3196C347.985 79.1423 347.78 78.9463 347.612 78.7316C347.444 78.5169 347.299 78.3023 347.178 78.0876L347.696 77.6816C347.892 77.9616 348.106 78.2089 348.34 78.4236C348.582 78.6289 348.858 78.7923 349.166 78.9136C349.474 79.0256 349.828 79.0816 350.23 79.0816C350.696 79.0816 351.079 78.9883 351.378 78.8016C351.686 78.6056 351.914 78.3489 352.064 78.0316C352.213 77.7143 352.288 77.3689 352.288 76.9956C352.288 76.3236 352.059 75.8149 351.602 75.4696C351.154 75.1149 350.514 74.9423 349.684 74.9516L349.754 74.3636C350.267 74.3169 350.687 74.1863 351.014 73.9716C351.35 73.7476 351.602 73.4723 351.77 73.1456C351.938 72.8189 352.022 72.4736 352.022 72.1096C352.022 71.6336 351.877 71.2416 351.588 70.9336C351.298 70.6163 350.864 70.4576 350.286 70.4576C349.912 70.4576 349.581 70.5183 349.292 70.6396C349.002 70.7609 348.788 70.9243 348.648 71.1296C348.816 71.3163 348.928 71.4796 348.984 71.6196C349.049 71.7503 349.082 71.8576 349.082 71.9416C349.082 72.0443 349.049 72.1469 348.984 72.2496C348.928 72.3429 348.844 72.4223 348.732 72.4876C348.629 72.5436 348.508 72.5716 348.368 72.5716C348.181 72.5716 348.027 72.5296 347.906 72.4456C347.784 72.3616 347.696 72.2543 347.64 72.1236C347.584 71.9929 347.556 71.8529 347.556 71.7036C347.556 71.3676 347.668 71.0503 347.892 70.7516C348.125 70.4436 348.452 70.1963 348.872 70.0096C349.292 69.8136 349.791 69.7156 350.37 69.7156C350.939 69.7156 351.424 69.8136 351.826 70.0096C352.227 70.2056 352.53 70.4856 352.736 70.8496C352.95 71.2043 353.058 71.6196 353.058 72.0956C353.058 72.4876 352.969 72.8469 352.792 73.1736C352.624 73.5003 352.4 73.7803 352.12 74.0136C351.84 74.2469 351.532 74.4196 351.196 74.5316V74.5596C351.606 74.6436 351.975 74.7836 352.302 74.9796C352.628 75.1756 352.89 75.4416 353.086 75.7776C353.291 76.1043 353.394 76.5196 353.394 77.0236C353.394 77.4623 353.314 77.8589 353.156 78.2136C353.006 78.5683 352.792 78.8716 352.512 79.1236C352.232 79.3756 351.9 79.5716 351.518 79.7116C351.144 79.8516 350.734 79.9216 350.286 79.9216ZM356.726 79.9076C356.474 79.9076 356.264 79.8283 356.096 79.6696C355.938 79.5109 355.858 79.3056 355.858 79.0536C355.858 78.8016 355.938 78.5963 356.096 78.4376C356.264 78.2696 356.474 78.1856 356.726 78.1856C356.988 78.1856 357.198 78.2649 357.356 78.4236C357.515 78.5823 357.594 78.7876 357.594 79.0396C357.594 79.2916 357.515 79.5016 357.356 79.6696C357.198 79.8283 356.988 79.9076 356.726 79.9076ZM368.7 79.9216C367.804 79.9216 367.02 79.7209 366.348 79.3196C365.685 78.9183 365.167 78.3396 364.794 77.5836C364.43 76.8183 364.248 75.9036 364.248 74.8396C364.248 74.0463 364.351 73.3369 364.556 72.7116C364.761 72.0769 365.055 71.5356 365.438 71.0876C365.821 70.6396 366.278 70.2989 366.81 70.0656C367.342 69.8323 367.935 69.7156 368.588 69.7156C369.092 69.7156 369.545 69.7949 369.946 69.9536C370.357 70.1029 370.711 70.3223 371.01 70.6116L371.15 69.7016H371.64L372.172 72.8656L371.626 72.9916C371.411 72.3756 371.164 71.8856 370.884 71.5216C370.604 71.1483 370.277 70.8776 369.904 70.7096C369.531 70.5416 369.087 70.4576 368.574 70.4576C367.93 70.4576 367.365 70.6163 366.88 70.9336C366.404 71.2509 366.031 71.7316 365.76 72.3756C365.489 73.0103 365.354 73.8083 365.354 74.7696C365.354 75.4509 365.433 76.0623 365.592 76.6036C365.751 77.1356 365.979 77.5929 366.278 77.9756C366.586 78.3489 366.95 78.6383 367.37 78.8436C367.799 79.0396 368.28 79.1376 368.812 79.1376C369.204 79.1376 369.573 79.0863 369.918 78.9836C370.263 78.8809 370.585 78.7129 370.884 78.4796C371.192 78.2463 371.486 77.9429 371.766 77.5696L372.284 77.9756C372.06 78.3116 371.808 78.6056 371.528 78.8576C371.248 79.1003 370.949 79.3009 370.632 79.4596C370.324 79.6183 370.007 79.7349 369.68 79.8096C369.353 79.8843 369.027 79.9216 368.7 79.9216ZM378.44 79.9216C377.525 79.9216 376.736 79.7163 376.074 79.3056C375.42 78.8949 374.916 78.3209 374.562 77.5836C374.216 76.8463 374.044 75.9783 374.044 74.9796C374.044 73.8783 374.221 72.9403 374.576 72.1656C374.94 71.3816 375.458 70.7796 376.13 70.3596C376.802 69.9303 377.609 69.7156 378.552 69.7156C379.448 69.7156 380.218 69.9163 380.862 70.3176C381.506 70.7189 382 71.2883 382.346 72.0256C382.7 72.7536 382.878 73.6169 382.878 74.6156C382.878 75.4183 382.775 76.1463 382.57 76.7996C382.364 77.4529 382.066 78.0129 381.674 78.4796C381.291 78.9463 380.824 79.3056 380.274 79.5576C379.732 79.8003 379.121 79.9216 378.44 79.9216ZM378.566 79.1516C379.079 79.1516 379.536 79.0583 379.938 78.8716C380.339 78.6756 380.675 78.3909 380.946 78.0176C381.216 77.6349 381.417 77.1729 381.548 76.6316C381.688 76.0903 381.758 75.4743 381.758 74.7836C381.758 74.1023 381.683 73.5003 381.534 72.9776C381.394 72.4456 381.179 71.9929 380.89 71.6196C380.61 71.2369 380.26 70.9523 379.84 70.7656C379.429 70.5696 378.948 70.4716 378.398 70.4716C377.875 70.4716 377.413 70.5696 377.012 70.7656C376.61 70.9523 376.27 71.2323 375.99 71.6056C375.71 71.9696 375.5 72.4176 375.36 72.9496C375.22 73.4816 375.15 74.0883 375.15 74.7696C375.15 75.4416 375.224 76.0483 375.374 76.5896C375.523 77.1309 375.742 77.5929 376.032 77.9756C376.33 78.3583 376.69 78.6523 377.11 78.8576C377.539 79.0536 378.024 79.1516 378.566 79.1516ZM384.867 79.7256V79.2216L385.651 79.0956C385.819 79.0769 385.936 79.0163 386.001 78.9136C386.076 78.8109 386.113 78.6336 386.113 78.3816V71.2136C386.113 70.9896 386.085 70.8356 386.029 70.7516C385.973 70.6583 385.847 70.5929 385.651 70.5556L384.867 70.4296V69.9116H387.415L392.483 78.1156V78.0596V71.2136C392.483 70.9803 392.455 70.8216 392.399 70.7376C392.343 70.6536 392.217 70.5929 392.021 70.5556L391.251 70.4296V69.9116H394.527V70.4296L393.757 70.5556C393.58 70.5836 393.458 70.6443 393.393 70.7376C393.328 70.8216 393.295 70.9896 393.295 71.2416V79.7256H392.287L386.939 71.1016L386.925 71.1576V78.4376C386.925 78.6803 386.958 78.8436 387.023 78.9276C387.088 79.0116 387.205 79.0676 387.373 79.0956L388.185 79.2216V79.7256H384.867ZM396.563 79.7256V79.2216L397.375 79.0956C397.552 79.0676 397.669 79.0069 397.725 78.9136C397.781 78.8109 397.809 78.6336 397.809 78.3816V71.2136C397.809 70.9896 397.781 70.8356 397.725 70.7516C397.669 70.6583 397.538 70.5929 397.333 70.5556L396.563 70.4296V69.9116H402.877L403.381 72.2356L402.807 72.4316C402.667 72.0023 402.532 71.6663 402.401 71.4236C402.27 71.1716 402.126 70.9849 401.967 70.8636C401.808 70.7329 401.617 70.6489 401.393 70.6116C401.178 70.5743 400.903 70.5556 400.567 70.5556H398.845V74.6016H400.371C400.698 74.6016 400.94 74.5829 401.099 74.5456C401.258 74.4989 401.37 74.3963 401.435 74.2376C401.51 74.0696 401.58 73.8083 401.645 73.4536L402.149 73.3836V76.5756L401.645 76.6596C401.589 76.2303 401.519 75.9223 401.435 75.7356C401.36 75.5396 401.239 75.4183 401.071 75.3716C400.912 75.3156 400.66 75.2876 400.315 75.2876H398.845V78.4096C398.845 78.6523 398.882 78.8249 398.957 78.9276C399.032 79.0209 399.167 79.0769 399.363 79.0956L400.455 79.2216V79.7256H396.563ZM405.197 79.7256V79.2216L406.037 79.0956C406.214 79.0676 406.331 79.0069 406.387 78.9136C406.443 78.8203 406.471 78.6429 406.471 78.3816V71.2136C406.471 70.9803 406.438 70.8216 406.373 70.7376C406.317 70.6443 406.195 70.5836 406.009 70.5556L405.197 70.4296V69.9116H408.781V70.4296L407.927 70.5556C407.759 70.5836 407.647 70.6489 407.591 70.7516C407.535 70.8449 407.507 71.0176 407.507 71.2696V78.4376C407.507 78.6709 407.535 78.8343 407.591 78.9276C407.656 79.0116 407.777 79.0676 407.955 79.0956L408.781 79.2216V79.7256H405.197ZM418.256 79.9216C417.957 79.9216 417.7 79.8703 417.486 79.7676C417.271 79.6743 417.08 79.5156 416.912 79.2916C416.744 79.0676 416.58 78.7643 416.422 78.3816L415.694 76.5196C415.544 76.1556 415.395 75.8803 415.246 75.6936C415.096 75.4976 414.919 75.3669 414.714 75.3016C414.518 75.2363 414.266 75.2036 413.958 75.2036C413.79 75.2036 413.64 75.2083 413.51 75.2176C413.379 75.2176 413.258 75.2269 413.146 75.2456V78.4236C413.146 78.6476 413.178 78.8109 413.244 78.9136C413.318 79.0163 413.454 79.0769 413.65 79.0956L414.7 79.2216V79.7256H410.85V79.2216L411.69 79.0956C411.858 79.0676 411.97 79.0116 412.026 78.9276C412.091 78.8343 412.124 78.6523 412.124 78.3816V71.2136C412.124 70.9803 412.091 70.8216 412.026 70.7376C411.96 70.6443 411.834 70.5836 411.648 70.5556L410.85 70.4296V69.9116H414.056C414.681 69.9116 415.227 69.9676 415.694 70.0796C416.16 70.1823 416.543 70.3409 416.842 70.5556C417.15 70.7609 417.378 71.0223 417.528 71.3396C417.677 71.6569 417.752 72.0256 417.752 72.4456C417.752 72.6603 417.719 72.8749 417.654 73.0896C417.598 73.3043 417.509 73.5096 417.388 73.7056C417.266 73.9016 417.112 74.0836 416.926 74.2516C416.739 74.4196 416.52 74.5643 416.268 74.6856C416.025 74.8069 415.75 74.8956 415.442 74.9516V74.9936C415.778 75.0869 416.048 75.2409 416.254 75.4556C416.459 75.6609 416.632 75.9409 416.772 76.2956L417.248 77.4716C417.397 77.8263 417.528 78.1296 417.64 78.3816C417.761 78.6336 417.896 78.8296 418.046 78.9696C418.204 79.1003 418.405 79.1656 418.648 79.1656C418.778 79.1656 418.9 79.1516 419.012 79.1236C419.133 79.0956 419.254 79.0583 419.376 79.0116L419.488 79.4176C419.329 79.5763 419.142 79.6976 418.928 79.7816C418.722 79.8749 418.498 79.9216 418.256 79.9216ZM414.098 74.6016C414.592 74.6016 415.031 74.5269 415.414 74.3776C415.796 74.2189 416.1 73.9809 416.324 73.6636C416.548 73.3463 416.66 72.9543 416.66 72.4876C416.66 72.0209 416.557 71.6476 416.352 71.3676C416.146 71.0876 415.848 70.8869 415.456 70.7656C415.064 70.6349 414.583 70.5696 414.014 70.5696H413.146V74.5736C413.388 74.5829 413.584 74.5923 413.734 74.6016C413.883 74.6016 414.004 74.6016 414.098 74.6016ZM420.614 79.7256V79.2216L421.44 79.0956C421.646 79.0676 421.767 78.9883 421.804 78.8576C421.842 78.7176 421.865 78.5449 421.874 78.3396L422.322 71.1996C422.341 70.9663 422.318 70.8076 422.252 70.7236C422.196 70.6303 422.08 70.5743 421.902 70.5556L421.104 70.4296V69.9116H423.82L426.522 77.2756L426.564 77.2056L429.308 69.9116H432.01V70.4296L431.17 70.5416C431.012 70.5603 430.9 70.6116 430.834 70.6956C430.778 70.7796 430.755 70.9663 430.764 71.2556L431.226 78.4376C431.236 78.6896 431.273 78.8576 431.338 78.9416C431.404 79.0256 431.52 79.0769 431.688 79.0956L432.528 79.2216V79.7256H428.846V79.2216L429.742 79.1096C429.901 79.0909 430.018 79.0396 430.092 78.9556C430.176 78.8623 430.209 78.6756 430.19 78.3956L429.728 70.9756L429.714 70.9196L426.9 78.2696H425.92L423.148 70.9196L423.134 70.9756L422.686 78.4516C422.677 78.6476 422.696 78.7969 422.742 78.8996C422.798 78.9929 422.934 79.0583 423.148 79.0956L423.946 79.2216V79.7256H420.614Z" fill="#47567B"/>
</svg>
