<svg width="203" height="203" viewBox="0 0 203 203" fill="none" xmlns="http://www.w3.org/2000/svg">
<g clip-path="url(#clip0_1972_83476)">
<rect width="203" height="203" rx="101.5" fill="white"/>
<path d="M95.7145 69.6115C90.6733 66.3262 85.0536 64.0763 79.1531 62.9023C76.196 62.3136 73.1849 62.0193 70.1703 62.0226C68.6647 62.0226 67.1591 62.1038 65.6603 62.2595C64.4626 62.3847 63.0247 62.4151 62.03 63.1594C59.5466 65.0135 60.0643 69.6453 62.0909 71.611C63.1939 72.6801 64.6149 73.0658 66.0325 73.5429C67.6971 74.1045 69.3617 74.6526 71.0331 75.1906C77.6576 77.3255 84.3363 79.2675 91.0624 81.0539C91.5733 81.1892 92.0808 80.3569 92.2601 80.0626C93.7792 77.5318 93.5288 73.7899 91.8744 71.3708C90.3688 69.1682 87.7501 68.522 85.2769 68.0517C79.4034 66.9352 73.3777 67.6018 67.7884 69.669C66.7565 70.0513 66.5535 72.0644 66.5468 72.9305C66.4994 77.7179 68.2926 82.5629 71.8721 85.8244C75.4517 89.0859 80.5977 90.6727 85.5679 90.3953C89.7294 90.1618 94.3239 88.4093 95.7517 84.1124C97.2234 79.6735 95.4337 74.7507 90.7714 73.4854C88.2881 72.8121 85.7269 72.9542 83.1792 72.9745C79.7722 73.0016 76.3652 73.0252 72.9582 73.0523C70.7421 73.0692 71.1582 77.6266 71.7605 78.8277C75.1235 85.5064 83.4397 89.4919 90.6496 86.7041C92.6289 85.9394 93.6506 84.3899 93.8773 82.2922C94.1818 79.4773 93.0416 77.136 90.3823 76.1108C86.3866 74.5714 82.1811 75.5526 78.1245 76.2665C76.2874 76.5913 74.4299 76.8856 72.5589 76.8687C71.5778 76.8586 70.5695 76.7841 69.6154 76.5371C69.1316 76.412 68.614 76.2496 68.1775 76.0026C67.8798 75.8706 67.626 75.6879 67.4095 75.4443C67.5313 76.1075 67.5888 76.2834 67.5854 75.9789C67.5178 75.9857 68.3839 71.0595 68.5835 70.5419C69.3583 68.5389 70.9079 67.0841 72.9243 66.3702C76.8896 64.9695 81.5383 66.3465 85.463 67.2364C87.5776 67.7134 89.7666 68.0687 91.8101 68.8096C92.6289 69.1073 93.4341 69.4626 94.1751 69.9227C94.3307 70.0208 95.6908 71.2828 95.6773 71.2862C95.075 71.3911 96.4351 69.7671 95.5453 70.437C95.2036 70.6941 94.9025 71.2185 94.5743 71.5129C93.6912 72.3046 92.595 72.873 91.5462 73.4076C88.985 74.7135 86.2648 75.7962 83.3958 76.1447C78.8249 76.7029 73.442 75.2244 71.4695 70.6637C70.9045 69.3611 69.6865 69.5472 69.0775 70.6637C68.3129 72.061 68.4651 74.0335 69.0775 75.4477C70.6271 79.0307 73.7803 81.4971 77.5088 82.5087C81.7921 83.6692 86.2378 82.6779 90.2402 80.9693C94.2427 79.2607 98.0659 77.0616 98.8271 72.5922C99.497 68.6743 98.0625 64.9932 94.5168 63.0816C90.971 61.17 86.8501 60.7539 83.1217 59.9419C79.3933 59.1299 75.2385 58.46 71.5676 60.0231C67.802 61.6268 65.8938 65.5379 65.0513 69.3306C64.2089 73.1234 62.9638 78.9731 66.2423 81.8084C69.4801 84.6064 74.8224 83.6252 78.6286 82.9418C80.794 82.5527 82.9695 82.1027 85.172 82.0452C86.1363 82.0181 87.1174 82.0587 88.0681 82.2414C88.552 82.3328 89.0155 82.4614 89.4756 82.6373C89.7091 82.7253 90.8459 83.3715 90.7782 83.1008L90.609 80.4923C90.7071 79.3352 91.2891 79.4502 90.3417 79.934C89.9628 80.1269 89.5128 80.2757 89.1068 80.3908C88.332 80.6141 87.5234 80.7257 86.7182 80.7832C85.0299 80.9016 83.2875 80.7156 81.677 80.1911C78.4933 79.1558 75.6648 77.0582 74.1457 74.0402L72.948 79.8156C78.0163 79.7784 83.2943 79.3081 88.3422 79.8054C89.2861 79.8968 90.2233 80.049 91.103 80.4077C91.5327 80.5836 91.9928 80.7866 92.3582 81.081C92.4902 81.1892 92.8319 81.6629 92.8995 81.6561C92.9131 81.6561 93.0044 80.4043 92.93 80.3705C92.9943 80.3975 92.2905 81.1892 92.3108 81.1689C91.6443 81.8422 90.785 82.3226 89.9256 82.705C85.9468 84.4846 80.503 83.8587 76.6731 81.9945C73.2661 80.3366 69.8827 76.9634 69.9233 72.9271L68.6816 76.1887C72.4744 74.7846 76.4836 74.1417 80.5267 74.2838C82.4146 74.3515 84.3025 74.5816 86.1464 74.9943C86.9956 75.1838 87.8279 75.424 88.6027 75.8233C88.9512 76.0026 89.2625 76.3341 89.6076 76.4864L89.9053 76.8281C90.4365 76.845 90.4229 76.3274 89.8647 75.2718L91.0624 74.2805C85.4867 72.7986 79.9448 71.1881 74.4435 69.4592C71.7233 68.6032 69.0098 67.7168 66.3099 66.7999C65.7517 66.6104 65.1664 66.4548 64.6318 66.2011C63.2176 65.5379 63.4544 64.5365 63.5018 67.3717C63.5424 69.8483 63.3326 69.29 65.1021 69.0803C65.6637 69.016 66.2253 68.9585 66.7904 68.9145C76.6731 68.1465 86.5287 70.7178 94.8213 76.1244C96.7904 77.4067 97.6633 70.8667 95.7212 69.5979L95.7145 69.6115Z" fill="#DC332E"/>
<path d="M97.3251 44.4835C104.796 45.556 114.276 42.0915 117.297 34.6583C118.907 30.6964 118.325 25.7263 114.918 22.908C112.259 20.7054 108.5 19.8799 105.11 19.8156C98.2048 19.6837 91.0998 22.9486 86.9586 28.5311C84.0692 32.4219 85.0741 37.074 88.6976 40.048C91.4246 42.2843 95.1395 43.1911 98.6209 42.9847C102.911 42.7309 106.964 40.8667 110.679 38.8401C112.185 38.018 114.012 37.2499 115.186 35.9677C116.779 34.2219 116.982 31.3359 116.258 29.1841C114.956 25.3135 110.178 25.3406 106.819 24.982C102.823 24.5523 98.2149 23.8655 94.5102 25.8819C90.8562 27.8713 89.1307 32.0734 89.7769 36.1131C90.0746 37.9672 90.9644 40.0547 92.8997 40.6468C94.835 41.2389 97.3319 40.5013 99.2333 40.0446C102.826 39.1818 107.773 37.9977 109.678 34.4655C110.618 32.7197 110.828 30.49 110.222 28.6021C109.532 26.4503 107.84 25.8041 105.756 25.6214C97.6397 24.9008 90.4941 32.2967 90.4908 40.2239C90.4908 42.2471 90.9069 44.6527 92.3381 46.1989C93.847 47.8262 95.9075 47.4202 97.7886 46.774C102.031 45.3226 105.763 42.5347 108.565 39.0566C109.542 37.842 109.603 35.8662 109.17 34.4282C108.886 33.4809 107.847 31.9855 106.856 33.2136C105.151 35.3316 103.155 37.1045 100.793 38.4646C99.7408 39.0736 94.9297 41.8817 93.9282 40.2611C93.5425 39.6352 95.0244 37.4699 95.5725 36.7932C97.0105 35.0203 98.922 33.7313 101.067 32.9599C102.065 32.6012 103.111 32.4118 104.166 32.3576C104.694 32.3306 105.225 32.3373 105.753 32.3847C106.281 32.4321 107.008 32.7738 107.495 32.74L107.387 29.5021L107.11 29.8472C106.893 30.0164 106.731 30.2464 106.507 30.419C106.115 30.7201 105.648 30.9265 105.205 31.1396C103.716 31.8501 102.156 32.4422 100.576 32.9091C99.1386 33.3354 97.6668 33.6399 96.1849 33.8531C95.515 33.9478 94.8248 34.073 94.1448 34.0527C93.8098 34.0425 93.4512 33.8937 93.1501 33.8801C93.0587 33.8565 92.9877 33.8057 92.9403 33.7245C92.6527 33.3354 92.6662 33.6873 92.9877 34.7869C93.0689 34.7801 94.3511 33.0783 94.5812 32.9125C95.6673 32.1242 96.9462 31.6708 98.2657 31.4712C101.287 31.0178 104.457 31.478 107.468 31.8163C108.842 31.9719 110.314 32.0362 111.654 32.3779C112.127 32.4997 112.543 32.7535 113.003 32.8888C113.118 32.9227 113.443 33.2441 113.535 33.2305C113.514 32.1919 113.494 31.1566 113.47 30.1179L113.193 30.3412C111.975 30.6795 110.628 31.8434 109.505 32.4524C108.165 33.1798 106.802 33.87 105.398 34.4655C102.779 35.5752 100.011 36.3229 97.1492 36.2282C94.7978 36.1537 92.4971 35.5414 90.5314 34.2219C90.0848 33.9207 89.6788 33.5926 89.3032 33.2069C89.1002 33.0005 88.9006 32.6824 88.6773 32.4896C87.4086 31.4035 91.3738 32.2967 88.3728 34.753C89.2525 34.0358 89.9055 32.8144 90.7479 32.0058C94.1685 28.7239 98.9457 26.8259 103.652 26.5891C106.348 26.4537 109.187 26.7819 111.657 27.9255C112.222 28.186 112.784 28.4905 113.291 28.8525C113.768 29.1942 114.086 29.722 114.54 30.0604C114.786 30.2464 114.786 30.5645 114.8 30.0401C114.783 30.6558 114.103 31.4712 113.748 31.9144C109.925 36.6951 103.202 38.5458 97.3251 37.7033C95.1665 37.392 94.8688 44.1181 97.3251 44.47V44.4835Z" fill="#DC332E"/>
<path d="M91.9622 36.1335C94.3068 36.1335 94.3271 29.3668 91.9622 29.3668C89.5972 29.3668 89.5972 36.1335 91.9622 36.1335Z" fill="#DC332E"/>
<path d="M155.948 69.7774C149.97 61.2717 139.695 56.2068 129.301 56.7278C127.894 56.7989 127.62 59.1334 127.609 60.1112C127.521 67.8861 132.975 73.6343 140.178 75.7049C143.467 76.6489 147.246 77.4541 150.684 77.3932C154.121 77.3323 156.439 75.661 156.804 72.1964C156.923 71.063 156.939 68.6135 155.623 68.0349C149.036 65.132 141.992 63.4133 134.806 62.9701C134.955 65.1862 135.107 67.4022 135.256 69.6149C136.426 68.7285 138.132 68.4917 139.272 69.6048C139.069 68.062 138.866 66.5192 138.666 64.9764C137.773 68.106 134.748 70.1766 131.49 69.6352C128.98 69.2157 127.058 67.135 128.641 64.7903L126.158 62.7671C127.2 68.2549 129.602 73.746 134.403 76.9432C138.561 79.7142 144.458 79.9781 148.515 76.8925C149.723 75.9756 149.895 74.1351 149.696 72.731C149.601 72.0679 148.816 69.4559 147.615 70.3694C144.286 72.9036 139.745 72.9475 136.135 70.9311C132.525 68.9146 130.184 64.9933 129.419 60.9739C129.281 60.2465 128.147 57.1541 126.936 58.9507C123.776 63.6366 123.198 72.2641 128.807 75.5087C134.417 78.7533 140.074 73.7189 141.593 68.397C141.965 67.0978 142.053 64.8106 140.987 63.7685C139.17 61.9957 136.484 61.4916 134.363 63.0953C132.952 64.1644 132.241 69.5845 134.812 69.7401C141.714 70.1631 148.403 71.7769 154.73 74.5614C154.338 73.1742 153.942 71.7871 153.549 70.3999C153.993 69.6116 154.026 69.4526 153.654 69.9195C153.499 70.0007 153.343 70.0852 153.187 70.1698C152.792 70.3762 152.372 70.4574 151.936 70.5318C150.86 70.7112 149.774 70.6164 148.698 70.4878C145.957 70.1664 143.173 69.8247 140.527 69.0161C136.731 67.8556 130.945 64.8005 130.999 60.1145L129.308 63.4979C139.099 63.0073 148.606 67.5985 154.246 75.6238C155.153 76.9162 156.3 75.282 156.561 74.4091C157.014 72.9035 156.868 71.0799 155.955 69.7807L155.948 69.7774Z" fill="#DC332E"/>
<path d="M132.85 66.8947C135.195 66.8947 135.215 60.1281 132.85 60.1281C130.485 60.1281 130.485 66.8947 132.85 66.8947Z" fill="#DC332E"/>
<path d="M88.5247 35.5617C90.8693 35.5617 90.8896 28.795 88.5247 28.795C86.1597 28.795 86.1597 35.5617 88.5247 35.5617Z" fill="#DC332E"/>
<path d="M99.3006 125.528C100.671 120.453 100.018 113.974 96.0526 110.137C91.7422 105.969 86.789 109.616 85.5575 114.549C84.1432 120.209 85.2056 126.556 88.6769 131.252C90.2705 133.404 92.2023 135.285 93.8838 137.366C95.5654 139.447 97.2063 141.802 98.6171 144.194C99.1652 142.309 99.7133 140.425 100.261 138.54C96.4653 137.163 94.8752 133.408 93.4542 129.919C92.7707 131.692 92.0873 133.462 91.4039 135.235C92.9907 137.518 94.3271 140.022 95.271 142.641C95.8428 144.228 97.0134 148.392 99.4325 146.369C100.319 145.628 100.607 144.424 101.033 143.405C101.574 142.12 102.217 140.875 102.914 139.667C104.22 137.414 105.746 135.299 107.241 133.171C110.51 128.522 114.644 123.268 112.553 117.249C111.778 115.016 109.857 113.301 107.38 113.727C104.903 114.153 103.174 115.977 101.906 118.085C101.287 119.11 99.0976 124.834 97.8221 121.783C96.692 119.079 96.5905 115.95 97.027 113.094L95.3962 115.577C96.7732 115.534 97.0337 116.258 97.0777 117.398C97.1386 118.947 97.1488 120.5 97.1826 122.053L99.3243 118.792C98.1638 118.335 97.027 117.753 96.0695 116.941C95.112 116.129 94.5267 115.124 93.7215 114.217C92.2903 112.614 90.1588 111.869 88.9171 114.123C86.498 118.521 89.4517 125.146 92.7775 128.245C95.0782 130.386 95.9206 123.897 94.4861 122.402C92.6286 120.466 90.5276 119.286 87.9359 118.636L88.7885 124.939C90.3889 123.559 92.9906 125.92 93.8094 127.155C94.8143 128.668 94.9496 130.092 94.3135 131.757L96.6277 130.542C95.6838 129.351 94.9564 128.018 94.6925 126.509C93.9989 127.896 93.3053 129.283 92.6117 130.671C93.8162 131.686 95.024 132.704 96.2285 133.719C97.1014 134.453 98.0048 132.724 98.1401 132.163C98.36 131.249 100.41 130.495 101.144 129.947C102.697 128.786 103.506 127.182 104.68 125.697C105.259 124.963 105.986 124.249 106.944 124.087C107.197 124.032 107.451 124.029 107.708 124.076C107.674 122.94 107.64 121.799 107.603 120.663C107.448 120.73 106.9 121.617 106.798 121.745C105.604 123.197 104.277 124.533 103.022 125.927C101.767 127.321 100.579 128.803 99.6085 130.43C99.1822 131.144 98.8371 131.882 98.5292 132.653C98.3126 133.195 98.1232 133.732 97.9574 134.291C97.8153 134.778 97.9641 134.49 97.9574 134.48C97.7781 134.314 97.7612 133.922 97.6021 133.709C96.8341 132.684 97.3348 135.103 97.1386 134.927C97.0202 134.822 97.9506 134.477 97.9371 134.49L98.2957 134.497C98.0656 133.614 97.9878 133.418 98.0657 133.908C97.9608 134.964 98.3431 136.28 98.4649 137.329C98.6137 138.611 98.7626 139.894 98.9115 141.176C98.9995 141.94 100.231 144.975 101.395 143.199C104.298 138.777 107.201 134.355 110.107 129.933C110.987 128.593 111.176 126.844 110.713 125.305C110.466 124.482 109.292 122.73 108.398 124.09C105.495 128.512 102.593 132.934 99.6863 137.356L102.17 139.379C101.835 136.486 101.838 133.255 100.969 130.464C100.268 128.214 98.1807 126.868 96.0999 128.465C93.6538 130.342 93.7451 134.311 94.6011 136.967C95.1627 138.706 96.8104 142.573 99.1889 140.777C100.887 139.494 101.05 136.652 102.19 134.906C103.533 132.856 105.343 131.121 106.988 129.317C108.865 127.26 110.757 125.122 110.757 122.165C110.757 119.208 109.024 116.362 105.78 117.597C103.022 118.65 102.349 121.684 100.241 123.42C98.1638 125.132 95.9139 125.829 95.2135 128.749L97.1251 127.192C95.9206 126.177 94.7128 125.159 93.5083 124.144C91.8166 122.72 91.3159 127.673 91.4276 128.306C91.952 131.303 93.0211 133.986 94.9191 136.385C95.924 137.657 96.9018 136.037 97.2334 135.17C98.7762 131.137 98.4074 126.096 96.2014 122.371C94.3541 119.255 90.4227 116.217 87.08 119.096C85.6116 120.362 85.8653 124.885 87.9326 125.399C89.7832 125.863 91.4614 126.871 92.7741 128.241C93.3425 126.293 93.9109 124.347 94.4827 122.398C93.4914 121.475 92.6286 120.456 92.067 119.211C91.8505 118.731 91.7591 118.237 91.5832 117.746L91.5087 117.232L91.096 119.363C91.1941 119.526 91.6779 119.722 91.8437 119.878C92.8384 120.818 93.5083 122.03 94.5605 122.95C95.7244 123.965 96.983 124.743 98.4209 125.311C100.102 125.974 100.586 123.078 100.563 122.05C100.478 118.284 101.368 108.615 95.3894 108.807C94.2899 108.841 93.8838 110.465 93.7587 111.291C92.9906 116.318 93.2173 122.507 95.6669 127.105C96.6142 128.881 98.4243 130.353 100.376 128.962C102.271 127.612 102.988 125.014 104.149 123.105C105.069 121.59 106.9 119.898 108.858 120.51C109.017 120.561 109.711 121.14 109.796 121.13C109.525 121.16 110.114 120.483 109.691 120.669C109.637 120.693 109.495 121.123 109.464 121.187C108.957 122.276 108.27 123.302 107.61 124.3C104.91 128.38 101.814 132.22 99.5814 136.591C99.2836 137.17 99.0028 137.759 98.7457 138.357C98.607 138.676 97.8626 139.992 97.9844 140.266L98.3228 140.445C98.6746 140.729 98.7558 140.695 98.5698 140.34C98.6137 140.069 98.2822 139.481 98.1908 139.22C97.9439 138.527 97.68 137.836 97.4025 137.156C96.2826 134.399 94.8041 131.831 93.1091 129.388C92.314 128.245 91.2415 129.456 90.9268 130.261C90.3652 131.689 90.4904 133.306 91.0588 134.703C92.7234 138.791 94.9192 143.453 99.3581 145.063C101.845 145.967 101.693 140.574 101.002 139.41C99.0265 136.06 96.7969 132.866 94.2459 129.926C91.9621 127.294 88.9814 124.692 88.4874 121.055C88.1356 118.453 88.9205 114.173 92.6083 115.026C95.4537 115.686 97.0777 119.499 96.3706 122.114C96.0052 123.461 95.8936 125.66 96.9762 126.742C98.0589 127.825 98.9961 126.621 99.2904 125.528H99.3006Z" fill="#DC332E"/>
<path d="M105.022 165.218C105.073 165.126 105.141 165.042 105.174 164.944C105.313 164.575 105.421 164.189 105.58 163.827C107.519 159.449 108.734 154.824 110.141 150.267C111.082 147.218 111.975 144.15 112.465 140.993C112.78 138.97 112.956 136.926 113.118 134.883C113.548 129.476 113.947 124.066 114.34 118.656C114.475 116.768 114.763 114.908 115.291 113.091C116.278 109.694 117.297 106.307 118.315 102.917C118.407 102.609 118.437 102.338 118.281 102.048C117.818 101.195 117.75 100.285 117.848 99.3341C118.099 96.9353 118.907 94.7125 119.963 92.5708C120.156 92.1783 120.213 91.8366 120.017 91.4543C119.997 91.4137 119.987 91.3663 119.966 91.3224C118.508 88.0608 117.967 84.5997 117.757 81.0709C117.683 79.8156 117.591 78.5604 117.591 77.3052C117.591 76.2834 117.655 75.2549 117.811 74.2467C117.96 73.2824 118.102 72.3249 118.119 71.3438C118.143 69.9262 118.237 68.5052 118.322 67.0875C118.41 65.6327 118.745 64.2388 119.367 62.9125C120.298 60.9265 121.37 59.0217 122.646 57.2353C123.38 56.2034 124.233 55.2831 125.221 54.4948C125.566 54.2207 125.931 53.9704 126.307 53.7369C127.379 53.0738 128.431 53.0196 129.49 53.8113C130.417 54.5083 131.382 55.1545 132.332 55.821C132.407 55.8752 132.502 55.9733 132.566 55.9598C133.314 55.8109 134.146 56.1188 134.799 55.4726C136.683 53.6117 139.887 53.473 141.87 54.9955C144.14 56.7413 146.387 58.5142 148.643 60.2769C149.432 60.8927 150.186 61.5558 151.008 62.1242C154.097 64.2658 156.273 67.0808 157.491 70.6434C158.205 72.7343 158.966 74.8117 159.683 76.9026C160.363 78.8818 160.715 80.9085 160.512 83.0129C160.353 84.6775 159.785 86.1831 158.76 87.506C157.877 88.6461 157.004 89.7965 156.073 90.9028C155.038 92.131 153.722 93.0174 152.291 93.7178C151.455 94.1271 150.596 94.4959 149.723 94.814C149.114 95.0339 148.471 95.1624 147.831 95.2842C146.004 95.6361 144.167 95.944 142.344 96.3026C139.901 96.7831 137.475 97.3548 135.022 97.7744C133.747 97.9943 132.431 98.0011 131.128 98.0451C130.631 98.062 130.316 98.2075 130.059 98.6371C129.619 99.3747 129.169 100.116 128.638 100.789C127.765 101.899 126.669 102.775 125.43 103.448C124.581 103.912 124.04 104.585 123.695 105.461C122.649 108.107 121.729 110.787 121.32 113.622C121.083 115.256 120.738 116.877 120.42 118.497C119.828 121.498 119.567 124.537 119.442 127.585C119.364 129.469 119.3 131.357 119.317 133.242C119.357 137.312 118.846 141.318 118.17 145.32C117.375 150.016 116.363 154.641 114.641 159.097C114.181 160.292 113.761 161.503 113.328 162.707C111.928 166.615 110.753 170.584 110.124 174.698C110.087 174.938 110.067 175.182 110.036 175.422C110.08 175.439 110.124 175.456 110.168 175.473C110.3 175.293 110.435 175.117 110.564 174.935C114.255 169.562 117.926 164.176 122.067 159.128C125.156 155.365 127.728 151.275 129.693 146.812C130.81 144.278 131.947 141.751 133.046 139.21C134.153 136.659 134.941 134.01 135.391 131.259C135.827 128.597 136.345 125.944 136.792 123.281C136.927 122.479 136.947 121.661 137.032 120.849C137.062 120.571 137.089 120.284 137.187 120.03C137.418 119.438 138.067 119.347 138.46 119.847C138.615 120.043 138.717 120.287 138.815 120.524C139.505 122.192 139.904 123.941 140.128 125.724C140.764 130.782 141.494 135.833 141.566 140.942C141.62 144.857 141.484 148.765 140.791 152.632C140.557 153.941 140.188 155.217 139.651 156.435C139.559 156.644 139.478 156.861 139.366 157.142C139.586 157.192 139.755 157.264 139.928 157.267C140.767 157.28 141.606 157.324 142.442 157.267C144.746 157.105 147.013 156.688 149.259 156.161C150.629 155.839 151.919 155.301 153.065 154.469C155.616 152.622 156.736 150.101 156.533 146.975C156.53 146.904 156.51 146.836 156.51 146.768C156.493 146.305 156.655 146.027 156.987 145.943C157.339 145.852 157.69 146.068 157.822 146.505C157.904 146.768 157.948 147.053 157.951 147.327C158.005 150.724 156.736 153.491 153.979 155.525C152.588 156.55 151.025 157.226 149.344 157.561C147.337 157.961 145.318 158.326 143.284 158.57C142.022 158.722 140.726 158.681 139.451 158.61C138.764 158.57 138.385 158.752 138.074 159.358C137.681 160.122 137.215 160.85 136.741 161.571C135.34 163.716 133.544 165.438 131.284 166.662C129.873 167.427 128.377 167.799 126.774 167.508C126.276 167.417 125.779 167.248 125.329 167.018C124.483 166.585 124.067 165.854 124.162 164.896C124.375 162.728 125.18 160.84 126.902 159.429C128.665 157.984 130.695 157.148 132.972 157.04C134.342 156.976 135.716 157.05 137.089 157.077C137.803 157.091 137.81 157.115 138.101 156.485C138.92 154.696 139.508 152.845 139.715 150.876C140.334 144.948 140.375 139.027 139.61 133.107C139.285 130.589 139.011 128.069 138.696 125.548C138.622 124.956 138.48 124.371 138.368 123.782C138.314 123.775 138.26 123.769 138.206 123.762C138.158 123.941 138.101 124.114 138.067 124.296C137.549 127.088 137.032 129.882 136.528 132.677C136.183 134.585 135.631 136.436 134.924 138.239C133.341 142.272 131.547 146.214 129.643 150.104C128.205 153.045 126.462 155.809 124.419 158.35C120.562 163.144 116.931 168.097 113.45 173.165C112.804 174.106 112.117 175.023 111.545 176.007C110.821 177.252 110.195 178.555 109.515 179.827C109.329 180.172 109.119 180.507 108.879 180.815C108.778 180.947 108.578 181.045 108.409 181.075C107.935 181.157 107.702 180.927 107.763 180.446C107.864 179.685 107.969 178.924 108.111 178.169C108.632 175.354 109.092 172.526 109.722 169.734C110.503 166.28 111.741 162.954 112.956 159.632C114.083 156.55 115.23 153.464 115.835 150.226C116.62 146.017 117.51 141.822 117.798 137.535C117.872 136.422 117.889 135.302 117.902 134.186C117.943 130.718 117.984 127.247 118.285 123.789C118.467 121.698 118.765 119.627 119.181 117.57C119.455 116.224 119.736 114.877 119.922 113.517C120.322 110.607 121.262 107.86 122.314 105.143C122.402 104.913 122.494 104.683 122.588 104.44C121.556 104.182 120.592 103.942 119.547 103.682C119.472 103.851 119.361 104.047 119.3 104.26C118.356 107.501 117.409 110.739 116.481 113.984C115.913 115.967 115.774 118.01 115.619 120.057C115.132 126.441 114.634 132.822 114.106 139.203C113.866 142.093 113.139 144.897 112.33 147.668C111.129 151.779 109.843 155.866 108.588 159.96C108.446 160.427 108.287 160.894 108.084 161.337C106.626 164.528 105.682 167.891 104.751 171.257C103.977 174.062 103.266 176.883 102.518 179.695C101.842 182.239 101.169 184.784 99.7813 187.067C99.0505 188.272 98.2352 189.395 97.0476 190.197C96.8751 190.312 96.6957 190.43 96.5029 190.505C96.2424 190.603 95.992 190.532 95.8093 190.315C95.6266 190.095 95.5962 189.835 95.745 189.601C95.8668 189.412 96.0326 189.229 96.2187 189.101C97.2608 188.38 97.978 187.389 98.6107 186.316C99.7171 184.452 100.39 182.425 100.884 180.334C101.463 177.888 102.008 175.435 102.586 172.986C103.188 170.435 103.506 167.857 103.476 165.235C103.476 165.164 103.476 165.096 103.476 165.025C103.78 158.816 102.979 152.71 101.754 146.643C101.51 145.435 101.233 144.231 100.962 143.026C100.915 142.807 100.83 142.597 100.725 142.258C100.472 142.495 100.289 142.654 100.123 142.83C99.2908 143.71 98.4821 144.61 97.6329 145.473C96.689 146.433 96.2255 146.339 95.7044 145.124C94.6387 142.634 93.194 140.343 91.888 137.982C91.8474 137.904 91.7662 137.85 91.6546 137.728C91.5192 137.928 91.3941 138.083 91.2993 138.259C89.9054 140.841 88.4912 143.409 87.1277 146.007C86.0991 147.973 85.3142 150.04 84.8608 152.222C84.4887 154.005 84.5124 155.771 84.9082 157.555C85.2465 159.08 85.7337 160.556 86.2345 162.034C87.4119 165.495 88.5081 168.987 89.2186 172.576C90.1896 177.486 90.6057 182.442 90.2708 187.443C90.1896 188.651 90.034 189.852 89.902 191.053C89.8783 191.256 89.8343 191.472 89.7396 191.652C89.584 191.946 89.3133 192.078 88.975 191.997C88.6671 191.922 88.5047 191.699 88.4776 191.395C88.4641 191.236 88.4979 191.073 88.5115 190.911C88.6603 189.266 88.887 187.626 88.9479 185.978C89.1814 179.495 88.2679 173.162 86.3563 166.97C85.2296 163.323 84.0319 159.696 82.9696 156.029C81.667 151.532 80.7839 146.934 79.8738 142.343C78.9874 137.853 78.7438 133.35 78.896 128.796C78.9738 126.495 78.9028 124.188 78.8723 121.884C78.8487 120.111 78.8723 118.345 79.2614 116.603C79.275 116.538 79.2614 116.467 79.2614 116.329C78.8419 116.302 78.4257 116.322 78.0333 116.237C77.6307 116.153 77.2517 115.97 76.7848 115.801C76.7341 116.115 76.6596 116.423 76.6427 116.735C76.4194 120.524 76.3348 124.317 76.4634 128.113C76.6427 133.33 77.1029 138.523 77.6983 143.707C78.0739 146.971 78.9434 150.145 79.9584 153.278C80.9903 156.468 82.0019 159.669 82.6989 162.951C83.088 164.795 83.3316 166.669 83.6496 168.527C83.7274 168.98 83.6665 169.359 83.2233 169.599C82.726 169.87 82.2421 169.701 82.0662 169.159C81.3117 166.876 79.9652 164.961 78.3141 163.255C76.301 161.178 74.1357 159.253 71.7538 157.619C68.8205 155.606 66.3269 153.173 64.1515 150.382C61.9726 147.587 59.9088 144.715 58.2205 141.592C57.669 140.57 57.2021 139.501 56.6946 138.452C56.5965 138.249 56.4984 138.046 56.3732 137.792C56.1025 138.033 56.1431 138.297 56.1296 138.53C55.9536 142.211 55.8927 145.885 56.7995 149.502C57.1209 150.788 57.3645 152.094 57.6521 153.39C58.3355 156.482 59.6415 159.344 60.9271 162.213C61.0895 162.579 61.3298 162.663 61.6985 162.633C62.6493 162.552 63.6034 162.484 64.5541 162.443C66.9089 162.339 69.2603 162.372 71.5846 162.792C76.1555 163.617 79.3798 166.791 80.2155 171.274C80.3745 172.127 80.4219 172.982 80.2866 173.845C80.087 175.134 79.4171 176.068 78.243 176.66C76.027 177.773 73.8278 177.827 71.6151 176.647C69.4295 175.479 67.5754 173.903 65.9209 172.083C63.9079 169.87 62.1925 167.437 60.7106 164.839C60.3181 164.152 60.3249 164.169 59.5061 164.237C57.7908 164.379 56.0721 164.538 54.3533 164.605C53.2639 164.649 52.1643 164.595 51.0783 164.484C48.0096 164.162 45.5567 162.63 43.4759 160.444C43.0834 160.031 42.7925 159.503 42.532 158.992C42.4068 158.745 42.4068 158.404 42.444 158.116C42.4846 157.818 42.7316 157.642 43.0395 157.619C43.3575 157.592 43.6011 157.747 43.6789 158.048C43.9733 159.212 44.836 159.933 45.6954 160.647C47.722 162.325 50.0396 163.205 52.6887 163.239C54.8371 163.266 56.9686 163.1 59.1001 162.89C59.2524 162.876 59.4013 162.805 59.6178 162.745C59.4825 162.426 59.3776 162.146 59.2456 161.878C56.8164 156.952 55.6661 151.661 54.8202 146.285C54.7255 145.689 54.6781 145.08 54.668 144.478C54.6274 142.127 54.5732 139.775 54.8507 137.434C54.9454 136.625 55.1213 135.827 55.2736 135.028C55.3074 134.849 55.3582 134.659 55.4529 134.504C55.7303 134.04 56.292 134.017 56.61 134.45C56.7047 134.578 56.7623 134.737 56.813 134.89C57.9024 138.286 59.5434 141.406 61.4989 144.376C63.397 147.262 65.5251 149.966 67.8088 152.554C68.834 153.718 70.052 154.648 71.3038 155.545C73.4827 157.105 75.5668 158.783 77.5461 160.593C78.0434 161.049 78.5543 161.496 79.0077 161.993C79.7283 162.785 80.405 163.614 81.0952 164.429C81.2373 164.599 81.3726 164.775 81.5113 164.947C81.5621 164.927 81.6095 164.906 81.6602 164.886C81.6095 164.578 81.579 164.267 81.5012 163.966C80.9429 161.804 80.3982 159.635 79.8028 157.483C79.4238 156.117 78.9738 154.767 78.5408 153.413C77.5562 150.348 76.7205 147.239 76.3416 144.041C75.7428 138.98 75.3063 133.898 75.0965 128.8C74.9308 124.794 75.0153 120.791 75.2454 116.792C75.2894 116.051 75.4383 115.314 75.5093 114.573C75.5398 114.278 75.5702 113.947 75.4721 113.683C75.0221 112.461 75.0052 111.21 75.2319 109.961C75.5567 108.161 75.6582 106.358 75.5364 104.538C75.5195 104.26 75.4755 103.983 75.4383 103.709C75.374 103.242 75.1338 102.907 74.7379 102.636C73.0496 101.483 71.7132 99.96 70.4039 98.4104C70.0892 98.0383 69.7441 97.6932 69.3787 97.3718C68.7156 96.7864 68.0254 96.235 67.3521 95.6564C65.9852 94.4824 64.7841 93.1595 63.7691 91.6675C63.1534 90.7641 62.4936 89.8878 61.8711 88.9912C59.381 85.4049 57.5709 81.487 56.2649 77.3289C55.5037 74.9064 55.5544 72.4197 55.7574 69.9228C55.9503 67.5375 56.725 65.3282 57.7603 63.2035C58.4032 61.8874 59.408 60.8385 60.5245 59.9081C61.4042 59.1739 62.4699 59.042 63.5628 59.1875C65.2071 59.4074 66.7329 59.9724 68.0288 61.0246C68.6953 61.5626 69.284 62.1986 69.9031 62.7975C70.0655 62.9565 70.2144 63.129 70.4275 63.3557C70.5663 63.1257 70.6745 62.9599 70.7659 62.7873C71.4967 61.3663 72.6402 60.5137 74.2135 60.2092C75.6785 59.925 77.1401 59.8878 78.5611 60.375C80.0125 60.8724 81.4504 61.4238 82.8681 62.0058C83.3992 62.2223 83.8898 62.564 84.3567 62.9091C86.7081 64.638 89.3674 65.4263 92.2534 65.5177C92.9741 65.5414 93.6981 65.5075 94.4188 65.5346C95.8398 65.5887 97.0307 66.1098 97.9239 67.2669C98.6851 68.2548 99.3144 69.307 99.6697 70.5047C99.7983 70.9445 99.9708 71.2186 100.519 71.2254C101.267 71.2321 101.896 71.6077 102.434 72.1253C102.596 72.281 102.762 72.4366 103.026 72.6937C102.999 72.4129 103.006 72.264 102.965 72.1287C102.688 71.1814 102.596 70.2137 102.61 69.2292C102.63 67.7405 102.532 66.2451 102.88 64.7767C102.952 64.479 102.847 64.2963 102.576 64.161C101.639 63.6974 100.729 63.1663 99.7678 62.7636C97.8867 61.9753 96.1679 60.913 94.4763 59.7965C94.0128 59.4886 93.5831 59.1232 93.1669 58.7544C88.1055 54.2309 84.7086 48.6518 82.6887 42.1997C81.5858 38.6811 81.9309 35.2571 83.3823 31.911C83.8797 30.7641 84.6511 29.7998 85.5274 28.9202C85.6086 28.839 85.6931 28.751 85.7913 28.6935C88.0649 27.3063 90.4501 26.3353 93.1906 26.8563C93.6846 26.9511 94.1718 27.1507 94.6184 27.3841C94.9499 27.5601 95.1597 27.5736 95.4879 27.3469C96.5029 26.6499 97.5551 26.0037 98.5972 25.344C99.443 24.8094 100.329 24.3324 101.128 23.7369C103.002 22.3396 105.137 21.5817 107.374 21.0641C107.878 20.949 108.446 20.9998 108.964 21.0844C111.092 21.4328 113.024 22.2753 114.759 23.5474C116.204 24.6064 117.178 25.9834 117.449 27.7969C117.466 27.9018 117.517 28.0033 117.571 28.1521C117.73 28.0439 117.848 27.983 117.946 27.895C119.171 26.7988 120.646 26.562 122.193 26.7717C123.373 26.9308 124.253 27.6751 124.821 28.6799C126.063 30.8825 127.068 33.1899 127.268 35.7545C127.531 39.1784 127.494 42.599 126.79 45.9755C126.185 48.8987 125.089 51.6325 123.448 54.1361C123.079 54.6978 122.67 55.2391 122.237 55.7534C121.025 57.1879 120.186 58.8559 119.283 60.4765C118.315 62.2155 117.05 63.6907 115.473 64.8782C114.834 65.3587 114.045 65.6462 113.301 65.971C112.729 66.2214 112.702 66.1876 112.733 66.8236C112.763 67.4969 112.838 68.1702 112.865 68.8435C112.922 70.1596 112.804 71.4487 112.249 72.6667C111.755 73.7493 111.078 74.6831 110.04 75.2989C109.678 75.5154 109.502 75.7793 109.556 76.2056C109.583 76.4357 109.566 76.6725 109.539 76.9026C109.18 80.0694 109.021 83.2565 108.328 86.3861C107.908 88.2774 107.418 90.1382 106.693 91.9381C106.355 92.7806 106.044 93.6332 105.763 94.4993C104.833 97.3616 103.669 100.122 102.326 102.816C101.118 105.238 100.16 107.762 99.6223 110.428C99.4024 111.511 99.3923 112.57 99.6562 113.673C99.9573 114.935 100.062 116.244 100.252 117.533C100.282 117.753 100.299 117.976 100.34 118.382C100.593 118.095 100.729 117.926 100.881 117.766C101.507 117.11 102.106 116.427 102.769 115.808C103.672 114.962 104.768 114.684 106 114.82C109.742 115.236 112.303 118.169 112.181 121.921C112.131 123.528 111.752 125.068 111.048 126.499C108.619 131.439 105.949 136.24 102.292 140.404C101.957 140.783 101.903 141.128 102.024 141.605C103.395 147.009 104.369 152.486 104.768 158.048C104.921 160.156 104.843 162.281 104.87 164.399C104.87 164.666 104.87 164.934 104.87 165.197C104.914 165.204 104.961 165.211 105.005 165.221L105.022 165.218ZM98.4179 36.1503C98.357 35.8289 98.3231 35.6022 98.269 35.3823C97.6735 32.9937 96.4014 31.0077 94.7233 29.2314C93.9654 28.4296 93.0959 28.1082 92.0606 28.0777C90.1287 28.0202 88.4269 28.751 86.7893 29.678C86.6709 29.7457 86.566 29.8472 86.4679 29.9453C85.7473 30.6829 85.1011 31.4746 84.6849 32.4287C83.3756 35.4365 83.0338 38.5153 84.015 41.6922C85.9503 47.9446 89.2355 53.3512 94.1447 57.7225C94.6996 58.2164 95.3153 58.6394 95.9277 59.0623C97.7953 60.3513 99.8558 61.2817 101.899 62.2392C103.774 63.1155 105.655 63.9783 107.675 64.4858C108.717 64.7497 109.762 64.9459 110.841 64.9763C112.435 65.0203 113.839 64.4925 115.023 63.4877C117.206 61.637 118.755 59.3262 119.482 56.5417C120.173 53.8959 120.254 51.196 119.76 48.5063C119.005 44.3854 118.197 40.278 117.405 36.1639C117.375 36.0015 117.3 35.8458 117.246 35.6868C117.178 35.6496 117.111 35.6124 117.043 35.5752C116.931 35.7545 116.847 35.9575 116.705 36.1064C116.187 36.6409 115.659 37.1687 115.121 37.683C113.846 38.8976 112.34 39.4694 110.561 39.4491C108.263 39.422 106.02 39.0871 103.797 38.5221C102.759 38.2582 101.713 38.0315 100.668 37.8014C100.499 37.7642 100.316 37.7946 100.11 37.7946C100.079 38.0382 100.049 38.2446 100.032 38.451C99.8524 40.7043 98.7088 42.4501 97.0442 43.8643C95.9277 44.8117 94.5879 45.0654 93.1669 44.6662C91.9929 44.338 91.2181 43.5734 91.0084 42.352C90.9102 41.7836 90.9069 41.1949 90.9305 40.6163C90.9881 39.1175 91.7019 38.0619 93.1432 37.5443C93.4071 37.4495 93.6609 37.3345 93.9248 37.2465C95.3559 36.7661 96.7702 36.218 98.4145 36.147L98.4179 36.1503ZM127.244 65.2504C126.98 65.4365 126.79 65.565 126.611 65.7004C125.589 66.4718 124.554 67.2263 123.559 68.0281C122.744 68.6845 121.976 69.395 121.194 70.0919C120.278 70.9107 119.743 71.9562 119.442 73.1302C119.117 74.3989 118.931 75.6846 118.955 76.9973C119.002 79.8156 119.222 82.6238 119.614 85.4117C119.905 87.4823 120.677 89.4108 121.482 91.319C122.216 93.0546 123.539 94.205 125.265 94.9425C127.075 95.7139 128.956 96.2214 130.884 96.5598C131.338 96.641 131.808 96.668 132.271 96.6579C133.506 96.6376 134.728 96.4752 135.936 96.2011C137.319 95.8865 138.703 95.5651 140.104 95.3316C141.352 95.1252 142.58 94.8613 143.717 94.3132C144.827 93.7821 145.896 93.1697 146.969 92.564C149.127 91.346 150.474 89.4142 151.543 87.2556C151.952 86.4233 152.091 85.5335 152.013 84.6064C151.766 81.6731 151.008 78.9326 149.087 76.6116C148.857 76.3342 148.66 76.2598 148.319 76.3477C147.283 76.615 146.251 76.9263 145.196 77.0887C141.88 77.5962 138.649 77.1496 135.526 75.9857C134.782 75.7083 134.068 75.238 133.456 74.7203C130.627 72.3182 128.553 69.3882 127.457 65.812C127.41 65.6598 127.349 65.5143 127.251 65.247L127.244 65.2504ZM75.3165 83.8621C75.1744 84.0685 75.0627 84.214 74.968 84.3696C74.3793 85.3169 73.7906 86.2677 73.2053 87.2184C72.5455 88.2875 71.879 89.3533 71.226 90.4258C70.8335 91.072 70.5561 91.7656 70.5561 92.5302C70.5561 93.3659 70.5696 94.205 70.6407 95.0406C70.7456 96.2857 71.2565 97.3718 72.1192 98.2785C72.8094 99.0025 73.4962 99.7333 74.2169 100.424C74.6161 100.809 75.0526 101.175 75.5296 101.455C77.0115 102.332 78.4799 103.249 80.0261 103.996C82.6346 105.262 85.3311 105.326 87.9904 104.125C89.1306 103.611 90.2268 102.978 91.2959 102.325C92.4158 101.645 93.3699 100.758 94.1887 99.7232C96.0292 97.3921 96.9393 94.6786 97.4536 91.8028C97.501 91.5287 97.4942 91.2445 97.4942 90.9671C97.5077 88.4093 97.0239 85.9226 96.3574 83.4663C96.327 83.358 96.2627 83.2633 96.195 83.1212C95.3187 83.2836 94.4526 83.4324 93.5932 83.6185C93.4308 83.6523 93.282 83.8147 93.1568 83.9501C91.8407 85.3745 90.1862 86.1256 88.278 86.2101C86.4679 86.2913 84.6477 86.288 82.8376 86.2169C80.3779 86.1188 78.0773 85.3981 75.9356 84.1835C75.7563 84.082 75.5702 83.9907 75.3165 83.8553V83.8621ZM69.1926 95.2876C69.1926 95.0237 69.2095 94.8478 69.1926 94.6752C68.9152 92.405 69.3787 90.3243 70.7794 88.4837C70.8505 88.3924 70.908 88.2875 70.9689 88.1894C71.879 86.7278 72.7925 85.2662 73.6925 83.7978C74.1898 82.9858 74.1797 82.9824 73.6045 82.2584C72.3527 80.6784 71.6557 78.9089 71.9771 76.8721C72.2444 75.1872 72.7519 73.5632 73.6552 72.0949C73.8379 71.7971 73.8481 71.5569 73.6992 71.2558C72.3628 68.5018 70.8505 65.8594 68.7731 63.5858C68.2724 63.0377 67.7243 62.5268 67.1423 62.0633C66.08 61.2175 64.8315 60.7709 63.5019 60.5611C62.7237 60.4393 61.9489 60.4934 61.323 61.0483C60.4129 61.8535 59.5501 62.7163 59.0156 63.8226C58.0818 65.7613 57.3476 67.7642 57.1716 69.9363C56.9889 72.1727 56.8908 74.4057 57.5269 76.5913C58.6468 80.4382 60.3351 84.0347 62.5038 87.3977C63.4613 88.883 64.5473 90.2871 65.5725 91.7284C66.486 93.0106 67.6566 94.0426 68.8306 95.0711C68.9084 95.1421 69.0167 95.1794 69.196 95.2842L69.1926 95.2876ZM93.4376 107.907C93.4951 107.748 93.5594 107.6 93.6034 107.444C94.077 105.756 94.7436 104.149 95.5556 102.596C96.7093 100.386 97.819 98.1567 98.9524 95.9406C100.488 92.9396 101.598 89.7829 102.403 86.518C103.226 83.1888 103.743 79.8089 104.122 76.4052C104.173 75.9451 104.163 75.4748 104.173 75.0113C104.18 74.6493 104.058 74.3583 103.652 74.1621C103.652 74.3279 103.648 74.4192 103.652 74.5106C103.753 76.8146 102.931 78.7431 101.29 80.3367C100.411 81.1927 99.3686 81.7983 98.2555 82.2956C97.572 82.6001 97.5653 82.6035 97.7615 83.3275C98.2588 85.1748 98.6344 87.0458 98.8002 88.9506C98.9084 90.2262 99.0032 91.5084 98.6953 92.7738C98.4754 93.6772 98.269 94.5907 97.978 95.4737C96.9698 98.5322 95.3187 101.158 92.673 103.073C91.0422 104.253 89.2896 105.218 87.3679 105.84C86.7183 106.05 86.1668 106.368 85.8082 106.943C85.3514 107.671 84.9048 108.408 84.5157 109.169C83.4872 111.176 82.6955 113.304 81.4369 115.195C80.8211 116.122 80.4591 117.157 80.4118 118.274C80.3509 119.692 80.3103 121.109 80.2967 122.53C80.273 125.091 80.2967 127.653 80.2629 130.21C80.2324 132.68 80.1918 135.157 80.5403 137.603C81.2035 142.286 82.1237 146.921 83.247 151.512C83.2774 151.63 83.3553 151.739 83.4534 151.942C83.5312 151.715 83.5887 151.59 83.6192 151.458C84.1368 149.245 84.9623 147.144 86.0213 145.141C87.4931 142.363 88.9919 139.603 90.5212 136.855C90.8155 136.327 90.846 135.932 90.5651 135.384C89.1644 132.65 87.7807 129.903 86.4476 127.135C85.5037 125.179 84.8338 123.119 84.4244 120.981C84.1436 119.509 83.9744 118.03 84.2045 116.538C84.5496 114.278 85.2804 112.174 87.0296 110.604C88.799 109.014 90.7986 107.867 93.2955 107.948C93.3158 107.948 93.3395 107.935 93.4376 107.904V107.907ZM91.7764 134.609C91.932 134.426 92.0572 134.297 92.1621 134.155C92.585 133.57 92.9808 132.968 93.4241 132.399C95.7044 129.476 97.1762 126.147 98.2791 122.645C99.3077 119.377 99.0539 116.105 98.0152 112.898C97.2134 110.431 94.4188 108.838 91.8982 109.464C89.5062 110.059 87.5743 111.392 86.4747 113.7C85.6661 115.395 85.3548 117.188 85.5477 119.062C85.8149 121.661 86.566 124.127 87.6724 126.472C88.8836 129.036 90.1828 131.56 91.4482 134.101C91.526 134.26 91.641 134.399 91.7798 134.609H91.7764ZM101.436 139.044C101.544 139.027 101.605 139.038 101.632 139.01C101.794 138.845 101.953 138.676 102.099 138.496C105.276 134.619 107.668 130.258 109.857 125.782C110.463 124.54 110.777 123.197 110.811 121.806C110.885 118.832 108.866 116.538 105.902 116.197C105.039 116.095 104.295 116.298 103.642 116.873C101.717 118.572 100.336 120.588 99.9877 123.19C99.8761 124.019 99.7881 124.855 99.7881 125.69C99.7881 129.987 100.279 134.23 101.253 138.415C101.304 138.632 101.378 138.841 101.439 139.048L101.436 139.044ZM150.119 75.6711C150.399 76.0838 150.629 76.4289 150.873 76.7673C151.553 77.718 152.176 78.7059 152.467 79.8529C152.781 81.0912 153.079 82.3396 153.296 83.5982C153.495 84.7485 153.532 85.9293 153.103 87.0492C152.121 89.607 150.599 91.7622 148.336 93.3524C148.153 93.4809 147.974 93.6129 147.791 93.7448C147.811 93.7956 147.828 93.8429 147.848 93.8937C148.217 93.8057 148.606 93.7651 148.955 93.623C149.99 93.2035 151.032 92.7941 152.027 92.2934C153.133 91.7351 154.158 91.028 154.96 90.0705C155.931 88.91 156.851 87.709 157.768 86.5079C158.533 85.5064 158.952 84.3561 159.105 83.1042C159.328 81.2637 159.067 79.4739 158.489 77.7383C157.687 75.3327 156.831 72.9441 155.965 70.5622C154.882 67.5815 152.971 65.2301 150.389 63.4065C149.763 62.9633 149.134 62.5167 148.535 62.0396C146.61 60.5002 144.705 58.9337 142.773 57.3977C142.1 56.8631 141.406 56.3421 140.669 55.9022C139.417 55.1545 138.094 55.2154 136.781 55.7703C136.636 55.8312 136.524 55.9665 136.355 56.1019C136.511 56.1763 136.568 56.2169 136.633 56.2338C138.767 56.7582 140.649 57.8307 142.459 59.0217C143.856 59.9419 145.192 60.9603 146.532 61.9686C147.994 63.0681 149.266 64.3572 150.21 65.9372C150.775 66.8778 151.404 67.7101 152.372 68.3326C153.779 69.2393 153.999 70.3761 153.272 71.9088C152.663 73.1877 151.803 74.2771 150.714 75.1839C150.538 75.3293 150.359 75.4748 150.115 75.6778L150.119 75.6711ZM91.2249 83.7741C91.0422 83.6896 90.9644 83.632 90.8798 83.6185C88.8193 83.2599 87.016 82.3058 85.2635 81.2265C84.4041 80.6987 83.6428 80.0559 82.9932 79.2811C82.4925 78.6856 82.1068 78.0225 81.914 77.2646C81.4707 75.5323 81.9038 74.0166 83.2064 72.8155C84.1673 71.9291 85.348 71.3742 86.6608 71.2964C89.3471 71.134 91.614 72.078 93.2752 74.2128C94.8924 76.2936 95.224 78.689 94.6725 81.2299C94.6218 81.4633 94.5778 81.6968 94.5101 82.0351C94.889 81.9539 95.136 81.9133 95.3796 81.849C95.9683 81.6934 95.9954 81.6494 95.9108 81.0167C95.8059 80.2318 95.6706 79.4536 95.5928 78.6653C95.4947 77.6909 95.4574 76.6996 95.7789 75.759C95.9852 75.1636 95.8973 74.6628 95.586 74.1722C95.3729 73.8407 95.1326 73.5193 94.8586 73.2418C92.2433 70.6028 88.9682 69.4288 85.3616 69.0194C84.3229 68.901 83.2741 68.8773 82.2286 68.7927C80.2527 68.6303 78.49 69.1074 77.0183 70.4912C76.7307 70.7618 76.4296 71.019 76.1488 71.2964C75.4383 71.99 75.5431 71.8817 75.8443 72.6565C77.069 75.8267 77.2991 79.0273 76.1014 82.2652C76.0709 82.3498 76.0642 82.4411 76.0371 82.5663C76.1894 82.6779 76.3247 82.7964 76.4803 82.8877C77.7761 83.6388 79.1464 84.214 80.6215 84.5151C83.2707 85.0497 85.9435 85.0361 88.613 84.7722C89.2896 84.7046 89.9494 84.4001 90.6057 84.1734C90.8087 84.1023 90.9779 83.9365 91.2283 83.7708L91.2249 83.7741ZM121.309 54.4237L121.482 54.5015C121.644 54.2884 121.82 54.0786 121.973 53.8587C123.559 51.5783 124.635 49.0645 125.288 46.3748C126.134 42.9001 126.154 39.3713 125.897 35.8323C125.728 33.508 124.781 31.4272 123.678 29.4209C123.275 28.6867 122.639 28.1454 121.746 28.0879C120.369 27.9965 119.161 28.3484 118.319 29.5393C118.133 29.8066 117.933 30.0637 117.754 30.3344C117.378 30.9028 117.375 30.9096 117.815 31.4746C118.437 32.2697 118.826 33.1561 118.769 34.1779C118.701 35.3959 118.85 36.5902 119.08 37.7811C119.354 39.1717 119.648 40.5588 119.916 41.9528C120.23 43.5971 120.447 45.265 120.843 46.8857C121.394 49.1322 121.489 51.3889 121.343 53.6726C121.326 53.923 121.316 54.1734 121.303 54.4237H121.309ZM61.9489 164.071C62.0572 164.304 62.1181 164.48 62.2128 164.632C63.7082 167.136 65.3931 169.508 67.4164 171.619C68.8712 173.142 70.4851 174.464 72.3662 175.449C74.1458 176.379 75.895 176.285 77.6543 175.395C78.375 175.029 78.7878 174.461 78.9231 173.669C79.0517 172.898 78.9941 172.137 78.8419 171.379C78.0739 167.573 75.3807 164.906 71.4933 164.176C68.4483 163.601 65.3762 163.712 62.3075 163.969C62.2196 163.976 62.1316 164.02 61.9557 164.071H61.9489ZM74.9172 70.5081C75.2995 70.1664 75.6142 69.8957 75.9153 69.6115C77.7931 67.8217 80.0328 67.1586 82.5839 67.4394C83.1861 67.5037 83.7883 67.5714 84.3939 67.5747C85.9909 67.5917 87.5472 67.8792 89.0629 68.3394C92.0369 69.236 94.6827 70.6773 96.6348 73.1877C96.6856 73.2554 96.7736 73.296 96.8345 73.3433C97.3081 72.8595 97.731 72.3655 98.2216 71.946C98.5295 71.6821 98.5566 71.4588 98.4415 71.1036C98.0998 70.0513 97.5991 69.0972 96.9326 68.2108C96.2627 67.3176 95.3762 66.915 94.2902 66.8947C93.5932 66.8812 92.8929 66.9048 92.1959 66.8812C89.046 66.783 86.1499 65.9101 83.5853 64.0358C83.1759 63.7347 82.7463 63.4302 82.2794 63.2373C80.9226 62.6858 79.5558 62.1513 78.1686 61.6844C76.8085 61.2276 75.4146 61.2851 74.0409 61.6776C72.7756 62.0396 72.0888 62.9497 71.7335 64.1643C71.6016 64.6177 71.6895 64.9933 71.9433 65.4094C72.8399 66.8778 73.6823 68.3766 74.5484 69.8653C74.6533 70.0446 74.7481 70.2239 74.9071 70.5081H74.9172ZM98.2081 110.161C98.2656 110.002 98.3265 109.88 98.3536 109.751C98.9863 106.94 100.042 104.284 101.321 101.713C102.315 99.7096 103.222 97.6729 103.946 95.5515C104.518 93.8768 105.168 92.2325 105.736 90.5577C106.118 89.4345 106.457 88.2977 106.744 87.1473C107.597 83.7708 107.81 80.3028 108.162 76.8552C108.186 76.6387 108.145 76.412 108.138 76.2428C107.245 76.0398 106.443 75.8538 105.621 75.6677C105.587 75.8199 105.56 75.9079 105.547 75.9959C105.229 78.2525 104.948 80.516 104.582 82.7659C103.797 87.5736 102.397 92.1919 100.187 96.5462C98.9964 98.8909 97.8089 101.236 96.6044 103.573C95.9616 104.818 95.4371 106.111 95.0413 107.454C94.9669 107.711 94.9296 107.979 94.8755 108.229C95.5217 108.523 96.1138 108.74 96.6551 109.051C97.1863 109.359 97.6634 109.765 98.2047 110.157L98.2081 110.161ZM130.106 62.4625C129.879 62.7467 129.758 63.0072 129.555 63.1358C128.398 63.8565 128.448 64.8241 128.932 65.9C128.959 65.9643 128.98 66.0319 129.003 66.0962C130.089 69.1311 131.947 71.6212 134.376 73.7053C135.073 74.3042 135.875 74.7271 136.754 74.9876C140.385 76.0669 144.022 76.2936 147.672 75.0857C147.798 75.0451 147.909 74.9673 148.011 74.9166C147.791 73.976 147.581 73.0794 147.371 72.1862C147.324 72.1659 147.28 72.1321 147.239 72.1321C147.053 72.1321 146.867 72.149 146.681 72.1558C143.494 72.2573 140.49 71.6889 137.759 69.9126C135.993 68.7657 134.379 67.4496 132.877 65.9778C131.926 65.0474 131.053 64.0527 130.414 62.8753C130.36 62.7772 130.282 62.696 130.103 62.4591L130.106 62.4625ZM107.167 27.0492C106.94 26.9747 106.839 26.9172 106.731 26.9105C104.968 26.7853 103.188 26.5586 101.443 26.8969C99.7915 27.215 98.4991 28.1183 97.7446 29.6916C97.5213 30.1585 97.5213 30.5442 97.8325 30.984C98.7088 32.2121 99.2603 33.5925 99.6122 35.0541C99.6731 35.3045 99.7543 35.5481 99.7983 35.7985C99.8558 36.1537 100.055 36.2823 100.4 36.3533C101.767 36.6375 103.131 36.9387 104.488 37.2635C106.602 37.771 108.734 38.0856 110.916 38.045C112.012 38.0247 112.97 37.6864 113.798 36.9793C114.137 36.6951 114.475 36.4075 114.776 36.0861C115.507 35.3045 116.218 34.5027 116.928 33.7042C117.283 33.305 117.29 33.2339 117.03 32.7907C116.62 32.0937 116.038 31.5592 115.375 31.1159C114.739 30.6863 114.069 30.3073 113.44 29.8675C111.674 28.6292 109.708 28.2503 107.6 28.4769C107.34 28.504 107.086 28.6021 106.829 28.6664C106.829 28.7205 106.836 28.7747 106.839 28.8322C107.13 28.866 107.421 28.9032 107.712 28.9269C108.879 29.0183 110.019 29.2416 111.102 29.6983C111.84 30.0096 112.516 30.4122 113.047 31.0246C113.944 32.0599 113.968 33.2711 113.118 34.3301C112.614 34.9594 111.975 35.4263 111.247 35.7613C108.744 36.9217 106.23 36.7898 103.736 35.7443C103.232 35.5312 102.776 35.1759 102.343 34.8275C101.74 34.3403 101.256 33.738 100.969 33.0072C100.654 32.202 100.634 31.3968 101.135 30.6693C101.419 30.2532 101.767 29.8472 102.167 29.5461C103.476 28.5615 104.9 27.7732 106.477 27.2928C106.67 27.2353 106.856 27.1574 107.164 27.0492H107.167ZM93.5256 79.342C93.4883 75.7692 91.367 73.2317 88.1393 72.7208C86.989 72.5381 85.9266 72.7343 84.9116 73.3027C83.0643 74.3346 82.5669 76.3207 83.8086 78.036C84.2518 78.645 84.827 79.1897 85.4292 79.6465C86.6777 80.587 88.0716 81.2942 89.54 81.8355C90.3757 82.1434 91.235 82.3125 92.1316 82.3092C92.5647 82.3092 92.8184 82.1366 93.0011 81.7577C93.397 80.9423 93.5086 80.0728 93.5222 79.3386L93.5256 79.342ZM98.3874 126.956C98.3299 126.939 98.2724 126.922 98.2182 126.905C98.1134 127.104 97.9983 127.297 97.907 127.504C97.0239 129.571 95.8702 131.476 94.5101 133.266C93.918 134.044 93.397 134.873 92.8286 135.668C92.5816 136.013 92.5376 136.327 92.7778 136.689C92.9335 136.92 93.0485 137.177 93.1838 137.424C94.3477 139.572 95.5116 141.721 96.6788 143.869C96.7296 143.964 96.8074 144.048 96.919 144.2C97.1288 143.997 97.3183 143.835 97.4874 143.652C98.2622 142.817 99.0167 141.957 99.8152 141.145C100.221 140.733 100.306 140.34 100.164 139.775C99.1723 135.79 98.5295 131.746 98.4483 127.629C98.4449 127.406 98.4111 127.179 98.3908 126.956H98.3874ZM149.242 67.0469C149.09 66.7898 148.975 66.5665 148.836 66.3567C147.987 65.0542 146.898 63.9783 145.663 63.0445C144.807 62.3982 143.91 61.8129 143.064 61.1566C141.735 60.1246 140.283 59.2991 138.795 58.5176C137.333 57.7495 135.787 57.4011 134.176 57.2894C133.655 57.2522 133.1 57.3199 132.596 57.4586C131.581 57.7326 131.053 58.4499 131.009 59.5021C130.996 59.8032 131.026 60.1077 131.067 60.4055C131.256 61.7148 131.859 62.8313 132.732 63.8057C134.579 65.8628 136.656 67.6356 139.035 69.06C141.45 70.5081 144.086 70.8735 146.83 70.7483C147.141 70.7348 147.469 70.6096 147.743 70.4573C148.2 70.2036 148.325 69.7671 148.072 69.3239C147.787 68.8266 147.415 68.3867 146.911 68.0416C146.316 68.6506 145.629 69.06 144.817 69.1277C144.15 69.1852 143.464 69.1683 142.804 69.0702C141.197 68.8266 139.728 68.1431 138.311 67.3887C136.166 66.2485 134.362 64.6786 132.803 62.8279C132.292 62.2223 131.882 61.5321 131.723 60.7404C131.575 60.0096 131.903 59.4953 132.63 59.3397C132.965 59.2687 133.324 59.2619 133.669 59.2788C136.233 59.4074 138.625 60.1145 140.777 61.522C143.271 63.1527 145.785 64.7564 147.848 66.9488C148.38 67.5105 148.386 67.5037 149.236 67.0469H149.242ZM119.574 69.4626C119.625 69.4863 119.672 69.51 119.723 69.5337C119.858 69.4187 119.997 69.3036 120.132 69.1852C121.228 68.2514 122.314 67.3007 123.431 66.3906C124.422 65.582 125.444 64.8072 126.472 64.0493C126.895 63.738 127.007 63.3794 127.014 62.8651C127.027 61.6607 127.054 60.4427 127.224 59.2517C127.427 57.824 127.981 56.5214 129.057 55.4929C129.098 55.4523 129.101 55.3711 129.125 55.2899C128.99 55.185 128.861 55.0936 128.739 54.9887C128.178 54.5083 127.596 54.5455 127.007 54.9278C126.716 55.1173 126.398 55.2865 126.151 55.5267C125.42 56.2406 124.645 56.924 124.023 57.7259C122.565 59.6104 121.428 61.6945 120.457 63.87C119.658 65.6598 119.675 67.568 119.574 69.4593V69.4626ZM111.305 66.3973C111.048 66.377 110.845 66.3669 110.642 66.3432C109.745 66.2248 108.835 66.1639 107.955 65.9677C106.984 65.7511 106.041 65.406 105.083 65.1184C104.846 65.0474 104.609 64.9933 104.261 64.9053C104.18 65.5617 104.068 66.1267 104.044 66.6985C104.007 67.6729 103.98 68.654 104.034 69.625C104.078 70.3829 104.23 71.1408 104.373 71.8885C104.687 73.5396 105.75 74.4023 107.36 74.6662C107.384 74.6696 107.404 74.6764 107.428 74.6831C107.803 74.7846 108.155 74.717 108.51 74.5647C109.982 73.9253 110.879 72.7918 111.281 71.2727C111.708 69.6656 111.423 68.0518 111.302 66.4007L111.305 66.3973ZM136.971 158.566C136.731 158.492 136.646 158.444 136.562 158.444C135.239 158.444 133.906 158.363 132.59 158.471C130.81 158.617 129.223 159.338 127.829 160.461C126.422 161.594 125.772 163.12 125.552 164.869C125.491 165.35 125.688 165.674 126.121 165.881C126.794 166.199 127.504 166.263 128.232 166.202C129.105 166.131 129.907 165.837 130.671 165.417C132.583 164.365 134.142 162.927 135.364 161.124C135.909 160.319 136.399 159.48 136.971 158.566ZM121.032 93.5418C120.01 95.7105 119.283 97.8082 119.198 100.078C119.185 100.464 119.283 100.863 119.398 101.236C119.479 101.489 119.638 101.75 119.831 101.936C120.947 103.022 123.17 103.201 124.324 102.518C125.924 101.564 127.339 100.437 128.354 98.8401C129 97.8251 128.956 97.7202 127.768 97.3819C126.787 97.1011 125.819 96.7628 124.859 96.4177C123.583 95.9609 122.524 95.1827 121.631 94.1677C121.469 93.9817 121.286 93.8091 121.029 93.5418H121.032ZM76.9608 103.891C76.9608 104.399 76.9506 104.697 76.9608 104.994C77.0217 106.483 76.9946 107.965 76.7205 109.44C76.5818 110.191 76.5412 110.963 76.5175 111.727C76.4905 112.566 76.7814 113.328 77.2416 114.021C78.0265 115.205 79.7182 115.226 80.5099 114.041C80.882 113.483 81.1899 112.878 81.4877 112.275C82.4215 110.404 83.335 108.527 84.2552 106.649C84.2891 106.578 84.2789 106.48 84.2958 106.314C81.5858 106.459 79.2953 105.36 76.9574 103.895L76.9608 103.891ZM115.977 29.5122C116.028 29.3025 116.062 29.2179 116.072 29.1299C116.309 27.3063 115.548 25.8988 114.167 24.8128C112.55 23.5373 110.696 22.7523 108.663 22.414C108.324 22.3565 107.952 22.3294 107.627 22.4106C105.509 22.9181 103.476 23.6252 101.747 25.0192C101.629 25.1139 101.527 25.2256 101.351 25.388C101.531 25.4116 101.615 25.4353 101.7 25.4353C102.86 25.4353 104.024 25.4083 105.185 25.4319C108.169 25.4895 111 26.0917 113.508 27.8138C114.157 28.2604 114.81 28.7104 115.46 29.157C115.605 29.2585 115.754 29.36 115.977 29.519V29.5122ZM106.352 30.1517L106.342 30.2194C105.969 30.2194 105.594 30.1821 105.229 30.2261C104.609 30.3039 103.977 30.3682 103.381 30.5509C102.153 30.9265 101.818 31.9753 102.552 33.0174C103.016 33.6771 103.618 34.2083 104.359 34.5094C106.372 35.3282 108.419 35.4669 110.459 34.594C110.838 34.4316 111.19 34.188 111.528 33.9478C111.735 33.8023 111.914 33.6095 112.066 33.4065C112.435 32.926 112.435 32.476 112.043 32.0091C111.836 31.7655 111.589 31.5186 111.308 31.3798C110.706 31.0855 110.094 30.7675 109.448 30.6254C108.433 30.3987 107.387 30.3039 106.352 30.1551V30.1517ZM133.09 60.6694C133.202 61.319 133.55 61.6708 133.872 62.0261C135.13 63.4065 136.511 64.6583 138.091 65.653C139.61 66.6105 141.244 67.3481 143.024 67.7033C143.714 67.842 144.411 67.886 145.088 67.6289C145.94 67.3041 146.028 66.9285 145.304 66.4041C143.555 65.1354 141.799 63.87 140.006 62.6723C138.148 61.4306 136.061 60.8284 133.841 60.6727C133.618 60.6558 133.391 60.6727 133.094 60.6727L133.09 60.6694ZM97.3521 81.0742C97.5382 81.037 97.6329 81.037 97.7141 81.0032C98.9017 80.4957 99.9742 79.8123 100.817 78.8176C101.734 77.7349 102.231 76.4831 102.278 75.0621C102.309 74.1621 101.957 73.4347 101.233 72.9001C100.465 72.3317 99.7881 72.3182 99.0302 73.0253C98.0152 73.9726 97.2675 75.1399 97.0205 76.5338C96.7499 78.0428 97.0544 79.5281 97.3521 81.0776V81.0742ZM98.6445 37.6458C97.9746 37.4969 97.4029 37.6153 96.8514 37.7777C95.9379 38.045 95.0244 38.3292 94.1312 38.654C92.5545 39.2224 92.2602 39.6758 92.2906 41.3471C92.294 41.5332 92.3042 41.7193 92.3312 41.902C92.4598 42.7309 92.876 43.1843 93.7049 43.367C94.7672 43.6004 95.6875 43.2858 96.4623 42.555C97.2337 41.831 97.8325 40.9716 98.2622 40.004C98.587 39.2732 98.7021 38.4984 98.6479 37.6424L98.6445 37.6458ZM149.303 68.5864C149.381 68.8875 149.418 69.0668 149.472 69.2393C149.648 69.8077 149.621 70.3863 149.249 70.8329C148.806 71.3641 148.819 71.9359 148.894 72.5381C148.972 73.1505 149.053 73.7696 149.489 74.3752C150.775 73.3738 151.753 72.2167 152.233 70.6806C152.355 70.2848 152.172 69.9566 151.878 69.6859C151.32 69.1717 150.67 68.8266 149.943 68.627C149.777 68.583 149.591 68.5999 149.303 68.583V68.5864ZM74.6939 73.5226C74.6296 73.5125 74.5687 73.5023 74.5045 73.4956C74.4334 73.6072 74.3319 73.7087 74.2947 73.8271C73.9868 74.7779 73.6316 75.7184 73.4083 76.6894C73.0192 78.3676 73.5233 79.8596 74.5451 81.2028C74.6161 81.2975 74.7447 81.3517 74.9409 81.4972C75.7664 78.7296 75.6243 76.1109 74.6939 73.5226ZM131.27 56.6263C130.678 56.2541 130.35 56.2338 129.944 56.6195C129.646 56.9003 129.392 57.2522 129.203 57.6142C128.533 58.8796 128.387 60.2667 128.367 61.6708C128.367 61.8197 128.418 61.9652 128.472 62.2798C128.898 61.7926 129.257 61.434 129.545 61.0246C129.72 60.7742 129.856 60.4494 129.886 60.1449C130.015 58.8559 130.204 57.6007 131.27 56.6229V56.6263ZM96.9123 28.23C96.8615 28.1961 96.8108 28.1657 96.76 28.1318C96.5401 28.2739 96.2491 28.3551 96.2458 28.6969C96.2458 28.7713 96.3777 28.8457 96.513 28.9912C96.6721 28.6901 96.7905 28.46 96.9089 28.2333L96.9123 28.23Z" fill="#47567B"/>
</g>
<rect x="1.5" y="1.5" width="200" height="200" rx="100" stroke="#47567B" stroke-width="3"/>
<defs>
<clipPath id="clip0_1972_83476">
<rect width="203" height="203" rx="101.5" fill="white"/>
</clipPath>
</defs>
</svg>
