<svg width="204" height="203" viewBox="0 0 204 203" fill="none" xmlns="http://www.w3.org/2000/svg">
<g clip-path="url(#clip0_716_140048)">
<rect x="0.5" width="203" height="203" rx="101.5" fill="white"/>
<path d="M106.022 160.218C106.073 160.126 106.141 160.042 106.174 159.944C106.313 159.575 106.421 159.189 106.58 158.827C108.519 154.449 109.734 149.824 111.141 145.267C112.082 142.218 112.975 139.15 113.465 135.993C113.78 133.97 113.956 131.926 114.118 129.883C114.548 124.476 114.947 119.066 115.34 113.656C115.475 111.768 115.763 109.908 116.291 108.091C117.278 104.694 118.297 101.307 119.315 97.917C119.407 97.6092 119.437 97.3385 119.281 97.0475C118.818 96.1949 118.75 95.2848 118.848 94.3341C119.099 91.9353 119.907 89.7125 120.963 87.5708C121.156 87.1783 121.213 86.8366 121.017 86.4543C120.997 86.4137 120.987 86.3663 120.966 86.3224C119.508 83.0608 118.967 79.5997 118.757 76.0709C118.683 74.8156 118.591 73.5604 118.591 72.3052C118.591 71.2834 118.655 70.2549 118.811 69.2467C118.96 68.2824 119.102 67.3249 119.119 66.3438C119.143 64.9262 119.237 63.5052 119.322 62.0875C119.41 60.6327 119.745 59.2388 120.367 57.9125C121.298 55.9265 122.37 54.0217 123.646 52.2353C124.38 51.2034 125.233 50.2831 126.221 49.4948C126.566 49.2207 126.931 48.9704 127.307 48.7369C128.379 48.0738 129.431 48.0196 130.49 48.8113C131.417 49.5083 132.382 50.1545 133.332 50.821C133.407 50.8752 133.502 50.9733 133.566 50.9598C134.314 50.8109 135.146 51.1188 135.799 50.4726C137.683 48.6117 140.887 48.473 142.87 49.9955C145.14 51.7413 147.387 53.5142 149.643 55.2769C150.432 55.8927 151.186 56.5558 152.008 57.1242C155.097 59.2658 157.273 62.0808 158.491 65.6434C159.205 67.7343 159.966 69.8117 160.683 71.9026C161.363 73.8818 161.715 75.9085 161.512 78.0129C161.353 79.6775 160.785 81.1831 159.76 82.506C158.877 83.6461 158.004 84.7965 157.073 85.9028C156.038 87.131 154.722 88.0174 153.291 88.7178C152.455 89.1271 151.596 89.4959 150.723 89.814C150.114 90.0339 149.471 90.1624 148.831 90.2842C147.004 90.6361 145.167 90.944 143.344 91.3026C140.901 91.7831 138.475 92.3548 136.022 92.7744C134.747 92.9943 133.431 93.0011 132.128 93.0451C131.631 93.062 131.316 93.2075 131.059 93.6371C130.619 94.3747 130.169 95.1156 129.638 95.7889C128.765 96.8987 127.669 97.7749 126.43 98.4482C125.581 98.9118 125.04 99.585 124.695 100.461C123.649 103.107 122.729 105.787 122.32 108.622C122.083 110.256 121.738 111.877 121.42 113.497C120.828 116.498 120.567 119.537 120.442 122.585C120.364 124.469 120.3 126.357 120.317 128.242C120.357 132.312 119.846 136.318 119.17 140.32C118.375 145.016 117.363 149.641 115.641 154.097C115.181 155.292 114.761 156.503 114.328 157.707C112.928 161.615 111.753 165.584 111.124 169.698C111.087 169.938 111.067 170.182 111.036 170.422C111.08 170.439 111.124 170.456 111.168 170.473C111.3 170.293 111.435 170.117 111.564 169.935C115.255 164.562 118.926 159.176 123.067 154.128C126.156 150.365 128.728 146.275 130.693 141.812C131.81 139.278 132.947 136.751 134.046 134.21C135.153 131.659 135.941 129.01 136.391 126.259C136.827 123.597 137.345 120.944 137.792 118.281C137.927 117.479 137.947 116.661 138.032 115.849C138.062 115.571 138.089 115.284 138.187 115.03C138.418 114.438 139.067 114.347 139.46 114.847C139.615 115.043 139.717 115.287 139.815 115.524C140.505 117.192 140.904 118.941 141.128 120.724C141.764 125.782 142.494 130.833 142.566 135.942C142.62 139.857 142.484 143.765 141.791 147.632C141.557 148.941 141.188 150.217 140.651 151.435C140.559 151.644 140.478 151.861 140.366 152.142C140.586 152.192 140.755 152.264 140.928 152.267C141.767 152.28 142.606 152.324 143.442 152.267C145.746 152.105 148.013 151.688 150.259 151.161C151.629 150.839 152.919 150.301 154.065 149.469C156.616 147.622 157.736 145.101 157.533 141.975C157.53 141.904 157.51 141.836 157.51 141.768C157.493 141.305 157.655 141.027 157.987 140.943C158.339 140.852 158.69 141.068 158.822 141.505C158.904 141.768 158.948 142.053 158.951 142.327C159.005 145.724 157.736 148.491 154.979 150.525C153.588 151.55 152.025 152.226 150.344 152.561C148.337 152.961 146.318 153.326 144.284 153.57C143.022 153.722 141.726 153.681 140.451 153.61C139.764 153.57 139.385 153.752 139.074 154.358C138.681 155.122 138.215 155.85 137.741 156.571C136.34 158.716 134.544 160.438 132.284 161.662C130.873 162.427 129.377 162.799 127.774 162.508C127.276 162.417 126.779 162.248 126.329 162.018C125.483 161.585 125.067 160.854 125.162 159.896C125.375 157.728 126.18 155.84 127.902 154.429C129.665 152.984 131.695 152.148 133.972 152.04C135.342 151.976 136.716 152.05 138.089 152.077C138.803 152.091 138.81 152.115 139.101 151.485C139.92 149.696 140.508 147.845 140.715 145.876C141.334 139.948 141.375 134.027 140.61 128.107C140.285 125.589 140.011 123.069 139.696 120.548C139.622 119.956 139.48 119.371 139.368 118.782C139.314 118.775 139.26 118.769 139.206 118.762C139.158 118.941 139.101 119.114 139.067 119.296C138.549 122.088 138.032 124.882 137.528 127.677C137.183 129.585 136.631 131.436 135.924 133.239C134.341 137.272 132.547 141.214 130.643 145.104C129.205 148.045 127.462 150.809 125.419 153.35C121.562 158.144 117.931 163.097 114.45 168.165C113.804 169.106 113.117 170.023 112.545 171.007C111.821 172.252 111.195 173.555 110.515 174.827C110.329 175.172 110.119 175.507 109.879 175.815C109.778 175.947 109.578 176.045 109.409 176.075C108.935 176.157 108.702 175.927 108.763 175.446C108.864 174.685 108.969 173.924 109.111 173.169C109.632 170.354 110.092 167.526 110.722 164.734C111.503 161.28 112.741 157.954 113.956 154.632C115.083 151.55 116.23 148.464 116.835 145.226C117.62 141.017 118.51 136.822 118.798 132.535C118.872 131.422 118.889 130.302 118.902 129.186C118.943 125.718 118.984 122.247 119.285 118.789C119.467 116.698 119.765 114.627 120.181 112.57C120.455 111.224 120.736 109.877 120.922 108.517C121.322 105.607 122.262 102.86 123.314 100.143C123.402 99.9132 123.494 99.6831 123.588 99.4395C122.556 99.1824 121.592 98.9422 120.547 98.6817C120.472 98.8509 120.361 99.0471 120.3 99.2602C119.356 102.501 118.409 105.739 117.481 108.984C116.913 110.967 116.774 113.01 116.619 115.057C116.132 121.441 115.634 127.822 115.106 134.203C114.866 137.093 114.139 139.897 113.33 142.668C112.129 146.779 110.843 150.866 109.588 154.96C109.446 155.427 109.287 155.894 109.084 156.337C107.626 159.528 106.682 162.891 105.751 166.257C104.977 169.062 104.266 171.883 103.518 174.695C102.842 177.239 102.169 179.784 100.781 182.067C100.051 183.272 99.2352 184.395 98.0476 185.197C97.8751 185.312 97.6957 185.43 97.5029 185.505C97.2424 185.603 96.992 185.532 96.8093 185.315C96.6266 185.095 96.5962 184.835 96.745 184.601C96.8668 184.412 97.0326 184.229 97.2187 184.101C98.2608 183.38 98.978 182.389 99.6107 181.316C100.717 179.452 101.39 177.425 101.884 175.334C102.463 172.888 103.008 170.435 103.586 167.986C104.188 165.435 104.506 162.857 104.476 160.235C104.476 160.164 104.476 160.096 104.476 160.025C104.78 153.816 103.979 147.71 102.754 141.643C102.51 140.435 102.233 139.231 101.962 138.026C101.915 137.807 101.83 137.597 101.725 137.258C101.472 137.495 101.289 137.654 101.123 137.83C100.291 138.71 99.4821 139.61 98.6329 140.473C97.689 141.433 97.2255 141.339 96.7044 140.124C95.6387 137.634 94.194 135.343 92.888 132.982C92.8474 132.904 92.7662 132.85 92.6546 132.728C92.5192 132.928 92.3941 133.083 92.2993 133.259C90.9054 135.841 89.4912 138.409 88.1277 141.007C87.0991 142.973 86.3142 145.04 85.8608 147.222C85.4887 149.005 85.5124 150.771 85.9082 152.555C86.2465 154.08 86.7337 155.556 87.2345 157.034C88.4119 160.495 89.5081 163.987 90.2186 167.576C91.1896 172.486 91.6057 177.442 91.2708 182.443C91.1896 183.651 91.034 184.852 90.902 186.053C90.8783 186.256 90.8343 186.472 90.7396 186.652C90.584 186.946 90.3133 187.078 89.975 186.997C89.6671 186.922 89.5047 186.699 89.4776 186.395C89.4641 186.236 89.4979 186.073 89.5115 185.911C89.6603 184.266 89.887 182.626 89.9479 180.978C90.1814 174.495 89.2679 168.162 87.3563 161.97C86.2296 158.323 85.0319 154.696 83.9696 151.029C82.667 146.532 81.7839 141.934 80.8738 137.343C79.9874 132.853 79.7438 128.35 79.896 123.796C79.9738 121.495 79.9028 119.188 79.8723 116.884C79.8487 115.111 79.8723 113.345 80.2614 111.603C80.275 111.538 80.2614 111.467 80.2614 111.329C79.8419 111.302 79.4257 111.322 79.0333 111.237C78.6307 111.153 78.2517 110.97 77.7848 110.801C77.7341 111.115 77.6596 111.423 77.6427 111.735C77.4194 115.524 77.3348 119.317 77.4634 123.113C77.6427 128.33 78.1029 133.523 78.6983 138.707C79.0739 141.971 79.9434 145.145 80.9584 148.278C81.9903 151.468 83.0019 154.669 83.6989 157.951C84.088 159.795 84.3316 161.669 84.6496 163.527C84.7274 163.98 84.6665 164.359 84.2233 164.599C83.726 164.87 83.2421 164.701 83.0662 164.159C82.3117 161.876 80.9652 159.961 79.3141 158.255C77.301 156.178 75.1357 154.253 72.7538 152.619C69.8205 150.606 67.3269 148.173 65.1515 145.382C62.9726 142.587 60.9088 139.715 59.2205 136.592C58.669 135.57 58.2021 134.501 57.6946 133.452C57.5965 133.249 57.4984 133.046 57.3732 132.792C57.1025 133.033 57.1431 133.297 57.1296 133.53C56.9536 137.211 56.8927 140.885 57.7995 144.502C58.1209 145.788 58.3645 147.094 58.6521 148.39C59.3355 151.482 60.6415 154.344 61.9271 157.213C62.0895 157.579 62.3298 157.663 62.6985 157.633C63.6493 157.552 64.6034 157.484 65.5541 157.443C67.9089 157.339 70.2603 157.372 72.5846 157.792C77.1555 158.617 80.3798 161.791 81.2155 166.274C81.3745 167.127 81.4219 167.982 81.2866 168.845C81.087 170.134 80.4171 171.068 79.243 171.66C77.027 172.773 74.8278 172.827 72.6151 171.647C70.4295 170.479 68.5754 168.903 66.9209 167.083C64.9079 164.87 63.1925 162.437 61.7106 159.839C61.3181 159.152 61.3249 159.169 60.5061 159.237C58.7908 159.379 57.0721 159.538 55.3533 159.605C54.2639 159.649 53.1643 159.595 52.0783 159.484C49.0096 159.162 46.5567 157.63 44.4759 155.444C44.0834 155.031 43.7925 154.503 43.532 153.992C43.4068 153.745 43.4068 153.404 43.444 153.116C43.4846 152.818 43.7316 152.642 44.0395 152.619C44.3575 152.592 44.6011 152.747 44.6789 153.048C44.9733 154.212 45.836 154.933 46.6954 155.647C48.722 157.325 51.0396 158.205 53.6887 158.239C55.8371 158.266 57.9686 158.1 60.1001 157.89C60.2524 157.876 60.4013 157.805 60.6178 157.745C60.4825 157.426 60.3776 157.146 60.2456 156.878C57.8164 151.952 56.6661 146.661 55.8202 141.285C55.7255 140.689 55.6781 140.08 55.668 139.478C55.6274 137.127 55.5732 134.775 55.8507 132.434C55.9454 131.625 56.1213 130.827 56.2736 130.028C56.3074 129.849 56.3582 129.659 56.4529 129.504C56.7303 129.04 57.292 129.017 57.61 129.45C57.7047 129.578 57.7623 129.737 57.813 129.89C58.9024 133.286 60.5434 136.406 62.4989 139.376C64.397 142.262 66.5251 144.966 68.8088 147.554C69.834 148.718 71.052 149.648 72.3038 150.545C74.4827 152.105 76.5668 153.783 78.5461 155.593C79.0434 156.049 79.5543 156.496 80.0077 156.993C80.7283 157.785 81.405 158.614 82.0952 159.429C82.2373 159.599 82.3726 159.775 82.5113 159.947C82.5621 159.927 82.6095 159.906 82.6602 159.886C82.6095 159.578 82.579 159.267 82.5012 158.966C81.9429 156.804 81.3982 154.635 80.8028 152.483C80.4238 151.117 79.9738 149.767 79.5408 148.413C78.5562 145.348 77.7205 142.239 77.3416 139.041C76.7428 133.98 76.3063 128.898 76.0965 123.8C75.9308 119.794 76.0153 115.791 76.2454 111.792C76.2894 111.051 76.4383 110.314 76.5093 109.573C76.5398 109.278 76.5702 108.947 76.4721 108.683C76.0221 107.461 76.0052 106.21 76.2319 104.961C76.5567 103.161 76.6582 101.358 76.5364 99.5377C76.5195 99.2602 76.4755 98.9828 76.4383 98.7087C76.374 98.2418 76.1338 97.9069 75.7379 97.6362C74.0496 96.4825 72.7132 94.96 71.4039 93.4104C71.0892 93.0383 70.7441 92.6932 70.3787 92.3718C69.7156 91.7864 69.0254 91.235 68.3521 90.6564C66.9852 89.4824 65.7841 88.1595 64.7691 86.6675C64.1534 85.7641 63.4936 84.8878 62.8711 83.9912C60.381 80.4049 58.5709 76.487 57.2649 72.3289C56.5037 69.9064 56.5544 67.4197 56.7574 64.9228C56.9503 62.5375 57.725 60.3282 58.7603 58.2035C59.4032 56.8874 60.408 55.8385 61.5245 54.9081C62.4042 54.1739 63.4699 54.042 64.5628 54.1875C66.2071 54.4074 67.7329 54.9724 69.0288 56.0246C69.6953 56.5626 70.284 57.1986 70.9031 57.7975C71.0655 57.9565 71.2144 58.129 71.4275 58.3557C71.5663 58.1257 71.6745 57.9599 71.7659 57.7873C72.4967 56.3663 73.6402 55.5137 75.2135 55.2092C76.6785 54.925 78.1401 54.8878 79.5611 55.375C81.0125 55.8724 82.4504 56.4238 83.8681 57.0058C84.3992 57.2223 84.8898 57.564 85.3567 57.9091C87.7081 59.638 90.3674 60.4263 93.2534 60.5177C93.9741 60.5414 94.6981 60.5075 95.4188 60.5346C96.8398 60.5887 98.0307 61.1098 98.9239 62.2669C99.6851 63.2548 100.314 64.307 100.67 65.5047C100.798 65.9445 100.971 66.2186 101.519 66.2254C102.267 66.2321 102.896 66.6077 103.434 67.1253C103.596 67.281 103.762 67.4366 104.026 67.6937C103.999 67.4129 104.006 67.264 103.965 67.1287C103.688 66.1814 103.596 65.2137 103.61 64.2292C103.63 62.7405 103.532 61.2451 103.88 59.7767C103.952 59.479 103.847 59.2963 103.576 59.161C102.639 58.6974 101.729 58.1663 100.768 57.7636C98.8867 56.9753 97.1679 55.913 95.4763 54.7965C95.0128 54.4886 94.5831 54.1232 94.1669 53.7544C89.1055 49.2309 85.7086 43.6518 83.6887 37.1997C82.5858 33.6811 82.9309 30.2571 84.3823 26.911C84.8797 25.7641 85.6511 24.7998 86.5274 23.9202C86.6086 23.839 86.6931 23.751 86.7913 23.6935C89.0649 22.3063 91.4501 21.3353 94.1906 21.8563C94.6846 21.9511 95.1718 22.1507 95.6184 22.3841C95.9499 22.5601 96.1597 22.5736 96.4879 22.3469C97.5029 21.6499 98.5551 21.0037 99.5972 20.344C100.443 19.8094 101.329 19.3324 102.128 18.7369C104.002 17.3396 106.137 16.5817 108.374 16.0641C108.878 15.949 109.446 15.9998 109.964 16.0844C112.092 16.4328 114.024 17.2753 115.759 18.5474C117.204 19.6064 118.178 20.9834 118.449 22.7969C118.466 22.9018 118.517 23.0033 118.571 23.1521C118.73 23.0439 118.848 22.983 118.946 22.895C120.171 21.7988 121.646 21.562 123.193 21.7717C124.373 21.9308 125.253 22.6751 125.821 23.6799C127.063 25.8825 128.068 28.1899 128.268 30.7545C128.531 34.1784 128.494 37.599 127.79 40.9755C127.185 43.8987 126.089 46.6325 124.448 49.1361C124.079 49.6978 123.67 50.2391 123.237 50.7534C122.025 52.1879 121.186 53.8559 120.283 55.4765C119.315 57.2155 118.05 58.6907 116.473 59.8782C115.834 60.3587 115.045 60.6462 114.301 60.971C113.729 61.2214 113.702 61.1876 113.733 61.8236C113.763 62.4969 113.838 63.1702 113.865 63.8435C113.922 65.1596 113.804 66.4487 113.249 67.6667C112.755 68.7493 112.078 69.6831 111.04 70.2989C110.678 70.5154 110.502 70.7793 110.556 71.2056C110.583 71.4357 110.566 71.6725 110.539 71.9026C110.18 75.0694 110.021 78.2565 109.328 81.3861C108.908 83.2774 108.418 85.1382 107.693 86.9381C107.355 87.7806 107.044 88.6332 106.763 89.4993C105.833 92.3616 104.669 95.1224 103.326 97.8155C102.118 100.238 101.16 102.762 100.622 105.428C100.402 106.511 100.392 107.57 100.656 108.673C100.957 109.935 101.062 111.244 101.252 112.533C101.282 112.753 101.299 112.976 101.34 113.382C101.593 113.095 101.729 112.926 101.881 112.766C102.507 112.11 103.106 111.427 103.769 110.808C104.672 109.962 105.768 109.684 107 109.82C110.742 110.236 113.303 113.169 113.181 116.921C113.131 118.528 112.752 120.068 112.048 121.499C109.619 126.439 106.949 131.24 103.292 135.404C102.957 135.783 102.903 136.128 103.024 136.605C104.395 142.009 105.369 147.486 105.768 153.048C105.921 155.156 105.843 157.281 105.87 159.399C105.87 159.666 105.87 159.934 105.87 160.197C105.914 160.204 105.961 160.211 106.005 160.221L106.022 160.218ZM99.4179 31.1503C99.357 30.8289 99.3231 30.6022 99.269 30.3823C98.6735 27.9937 97.4014 26.0077 95.7233 24.2314C94.9654 23.4296 94.0959 23.1082 93.0606 23.0777C91.1287 23.0202 89.4269 23.751 87.7893 24.678C87.6709 24.7457 87.566 24.8472 87.4679 24.9453C86.7473 25.6829 86.1011 26.4746 85.6849 27.4287C84.3756 30.4365 84.0338 33.5153 85.015 36.6922C86.9503 42.9446 90.2355 48.3512 95.1447 52.7225C95.6996 53.2164 96.3153 53.6394 96.9277 54.0623C98.7953 55.3513 100.856 56.2817 102.899 57.2392C104.774 58.1155 106.655 58.9783 108.675 59.4858C109.717 59.7497 110.762 59.9459 111.841 59.9763C113.435 60.0203 114.839 59.4925 116.023 58.4877C118.206 56.637 119.755 54.3262 120.482 51.5417C121.173 48.8959 121.254 46.196 120.76 43.5063C120.005 39.3854 119.197 35.278 118.405 31.1639C118.375 31.0015 118.3 30.8458 118.246 30.6868C118.178 30.6496 118.111 30.6124 118.043 30.5752C117.931 30.7545 117.847 30.9575 117.705 31.1064C117.187 31.6409 116.659 32.1687 116.121 32.683C114.846 33.8976 113.34 34.4694 111.561 34.4491C109.263 34.422 107.02 34.0871 104.797 33.5221C103.759 33.2582 102.713 33.0315 101.668 32.8014C101.499 32.7642 101.316 32.7946 101.11 32.7946C101.079 33.0382 101.049 33.2446 101.032 33.451C100.852 35.7043 99.7088 37.4501 98.0442 38.8643C96.9277 39.8117 95.5879 40.0654 94.1669 39.6662C92.9929 39.338 92.2181 38.5734 92.0084 37.352C91.9102 36.7836 91.9069 36.1949 91.9305 35.6163C91.9881 34.1175 92.7019 33.0619 94.1432 32.5443C94.4071 32.4495 94.6609 32.3345 94.9248 32.2465C96.3559 31.7661 97.7702 31.218 99.4145 31.147L99.4179 31.1503ZM128.244 60.2504C127.98 60.4365 127.79 60.565 127.611 60.7004C126.589 61.4718 125.554 62.2263 124.559 63.0281C123.744 63.6845 122.976 64.395 122.194 65.0919C121.278 65.9107 120.743 66.9562 120.442 68.1302C120.117 69.3989 119.931 70.6846 119.955 71.9973C120.002 74.8156 120.222 77.6238 120.614 80.4117C120.905 82.4823 121.677 84.4108 122.482 86.319C123.216 88.0546 124.539 89.205 126.265 89.9425C128.075 90.7139 129.956 91.2214 131.884 91.5598C132.338 91.641 132.808 91.668 133.271 91.6579C134.506 91.6376 135.728 91.4752 136.936 91.2011C138.319 90.8865 139.703 90.5651 141.104 90.3316C142.352 90.1252 143.58 89.8613 144.717 89.3132C145.827 88.7821 146.896 88.1697 147.969 87.564C150.127 86.346 151.474 84.4142 152.543 82.2556C152.952 81.4233 153.091 80.5335 153.013 79.6064C152.766 76.6731 152.008 73.9326 150.087 71.6116C149.857 71.3342 149.66 71.2598 149.319 71.3477C148.283 71.615 147.251 71.9263 146.196 72.0887C142.88 72.5962 139.649 72.1496 136.526 70.9857C135.782 70.7083 135.068 70.238 134.456 69.7203C131.627 67.3182 129.553 64.3882 128.457 60.812C128.41 60.6598 128.349 60.5143 128.251 60.247L128.244 60.2504ZM76.3165 78.8621C76.1744 79.0685 76.0627 79.214 75.968 79.3696C75.3793 80.3169 74.7906 81.2677 74.2053 82.2184C73.5455 83.2875 72.879 84.3533 72.226 85.4258C71.8335 86.072 71.5561 86.7656 71.5561 87.5302C71.5561 88.3659 71.5696 89.205 71.6407 90.0406C71.7456 91.2857 72.2565 92.3718 73.1192 93.2785C73.8094 94.0025 74.4962 94.7333 75.2169 95.4235C75.6161 95.8092 76.0526 96.1746 76.5296 96.4554C78.0115 97.3317 79.4799 98.2486 81.0261 98.9963C83.6346 100.262 86.3311 100.326 88.9904 99.1249C90.1306 98.6106 91.2268 97.9779 92.2959 97.325C93.4158 96.6449 94.3699 95.7585 95.1887 94.7232C97.0292 92.3921 97.9393 89.6786 98.4536 86.8028C98.501 86.5287 98.4942 86.2445 98.4942 85.9671C98.5077 83.4093 98.0239 80.9226 97.3574 78.4663C97.327 78.358 97.2627 78.2633 97.195 78.1212C96.3187 78.2836 95.4526 78.4324 94.5932 78.6185C94.4308 78.6523 94.282 78.8147 94.1568 78.9501C92.8407 80.3745 91.1862 81.1256 89.278 81.2101C87.4679 81.2913 85.6477 81.288 83.8376 81.2169C81.3779 81.1188 79.0773 80.3981 76.9356 79.1835C76.7563 79.082 76.5702 78.9907 76.3165 78.8553V78.8621ZM70.1926 90.2876C70.1926 90.0237 70.2095 89.8478 70.1926 89.6752C69.9152 87.405 70.3787 85.3243 71.7794 83.4837C71.8505 83.3924 71.908 83.2875 71.9689 83.1894C72.879 81.7278 73.7925 80.2662 74.6925 78.7978C75.1898 77.9858 75.1797 77.9824 74.6045 77.2584C73.3527 75.6784 72.6557 73.9089 72.9771 71.8721C73.2444 70.1872 73.7519 68.5632 74.6552 67.0949C74.8379 66.7971 74.8481 66.5569 74.6992 66.2558C73.3628 63.5018 71.8505 60.8594 69.7731 58.5858C69.2724 58.0377 68.7243 57.5268 68.1423 57.0633C67.08 56.2175 65.8315 55.7709 64.5019 55.5611C63.7237 55.4393 62.9489 55.4934 62.323 56.0483C61.4129 56.8535 60.5501 57.7163 60.0156 58.8226C59.0818 60.7613 58.3476 62.7642 58.1716 64.9363C57.9889 67.1727 57.8908 69.4057 58.5269 71.5913C59.6468 75.4382 61.3351 79.0347 63.5038 82.3977C64.4613 83.883 65.5473 85.2871 66.5725 86.7284C67.486 88.0106 68.6566 89.0426 69.8306 90.0711C69.9084 90.1421 70.0167 90.1794 70.196 90.2842L70.1926 90.2876ZM94.4376 102.907C94.4951 102.748 94.5594 102.6 94.6034 102.444C95.077 100.756 95.7436 99.1486 96.5556 97.5956C97.7093 95.3863 98.819 93.1567 99.9524 90.9406C101.488 87.9396 102.598 84.7829 103.403 81.518C104.226 78.1888 104.743 74.8089 105.122 71.4052C105.173 70.9451 105.163 70.4748 105.173 70.0113C105.18 69.6493 105.058 69.3583 104.652 69.1621C104.652 69.3279 104.648 69.4192 104.652 69.5106C104.753 71.8146 103.931 73.7431 102.29 75.3367C101.411 76.1927 100.369 76.7983 99.2555 77.2956C98.572 77.6001 98.5653 77.6035 98.7615 78.3275C99.2588 80.1748 99.6344 82.0458 99.8002 83.9506C99.9084 85.2262 100.003 86.5084 99.6953 87.7738C99.4754 88.6772 99.269 89.5907 98.978 90.4737C97.9698 93.5322 96.3187 96.1577 93.673 98.0727C92.0422 99.2535 90.2896 100.218 88.3679 100.84C87.7183 101.05 87.1668 101.368 86.8082 101.943C86.3514 102.671 85.9048 103.408 85.5157 104.169C84.4872 106.176 83.6955 108.304 82.4369 110.195C81.8211 111.122 81.4591 112.157 81.4118 113.274C81.3509 114.692 81.3103 116.109 81.2967 117.53C81.273 120.091 81.2967 122.653 81.2629 125.21C81.2324 127.68 81.1918 130.157 81.5403 132.603C82.2035 137.286 83.1237 141.921 84.247 146.512C84.2774 146.63 84.3553 146.739 84.4534 146.942C84.5312 146.715 84.5887 146.59 84.6192 146.458C85.1368 144.245 85.9623 142.144 87.0213 140.141C88.4931 137.363 89.9919 134.603 91.5212 131.855C91.8155 131.327 91.846 130.932 91.5651 130.384C90.1644 127.65 88.7807 124.903 87.4476 122.135C86.5037 120.179 85.8338 118.119 85.4244 115.981C85.1436 114.509 84.9744 113.03 85.2045 111.538C85.5496 109.278 86.2804 107.174 88.0296 105.604C89.799 104.014 91.7986 102.867 94.2955 102.948C94.3158 102.948 94.3395 102.935 94.4376 102.904V102.907ZM92.7764 129.609C92.932 129.426 93.0572 129.297 93.1621 129.155C93.585 128.57 93.9808 127.968 94.4241 127.399C96.7044 124.476 98.1762 121.147 99.2791 117.645C100.308 114.377 100.054 111.105 99.0152 107.898C98.2134 105.431 95.4188 103.838 92.8982 104.464C90.5062 105.059 88.5743 106.392 87.4747 108.7C86.6661 110.395 86.3548 112.188 86.5477 114.062C86.8149 116.661 87.566 119.127 88.6724 121.472C89.8836 124.036 91.1828 126.56 92.4482 129.101C92.526 129.26 92.641 129.399 92.7798 129.609H92.7764ZM102.436 134.044C102.544 134.027 102.605 134.038 102.632 134.01C102.794 133.845 102.953 133.676 103.099 133.496C106.276 129.619 108.668 125.258 110.857 120.782C111.463 119.54 111.777 118.197 111.811 116.806C111.885 113.832 109.866 111.538 106.902 111.197C106.039 111.095 105.295 111.298 104.642 111.873C102.717 113.572 101.336 115.588 100.988 118.19C100.876 119.019 100.788 119.855 100.788 120.69C100.788 124.987 101.279 129.23 102.253 133.415C102.304 133.632 102.378 133.841 102.439 134.048L102.436 134.044ZM151.119 70.6711C151.399 71.0838 151.629 71.4289 151.873 71.7673C152.553 72.718 153.176 73.7059 153.467 74.8529C153.781 76.0912 154.079 77.3396 154.296 78.5982C154.495 79.7485 154.532 80.9293 154.103 82.0492C153.121 84.607 151.599 86.7622 149.336 88.3524C149.153 88.4809 148.974 88.6129 148.791 88.7448C148.811 88.7956 148.828 88.8429 148.848 88.8937C149.217 88.8057 149.606 88.7651 149.955 88.623C150.99 88.2035 152.032 87.7941 153.027 87.2934C154.133 86.7351 155.158 86.028 155.96 85.0705C156.931 83.91 157.851 82.709 158.768 81.5079C159.533 80.5064 159.952 79.3561 160.105 78.1042C160.328 76.2637 160.067 74.4739 159.489 72.7383C158.687 70.3327 157.831 67.9441 156.965 65.5622C155.882 62.5815 153.971 60.2301 151.389 58.4065C150.763 57.9633 150.134 57.5167 149.535 57.0396C147.61 55.5002 145.705 53.9337 143.773 52.3977C143.1 51.8631 142.406 51.3421 141.669 50.9022C140.417 50.1545 139.094 50.2154 137.781 50.7703C137.636 50.8312 137.524 50.9665 137.355 51.1019C137.511 51.1763 137.568 51.2169 137.633 51.2338C139.767 51.7582 141.649 52.8307 143.459 54.0217C144.856 54.9419 146.192 55.9603 147.532 56.9686C148.994 58.0681 150.266 59.3572 151.21 60.9372C151.775 61.8778 152.404 62.7101 153.372 63.3326C154.779 64.2393 154.999 65.3761 154.272 66.9088C153.663 68.1877 152.803 69.2771 151.714 70.1839C151.538 70.3293 151.359 70.4748 151.115 70.6778L151.119 70.6711ZM92.2249 78.7741C92.0422 78.6896 91.9644 78.632 91.8798 78.6185C89.8193 78.2599 88.016 77.3058 86.2635 76.2265C85.4041 75.6987 84.6428 75.0559 83.9932 74.2811C83.4925 73.6856 83.1068 73.0225 82.914 72.2646C82.4707 70.5323 82.9038 69.0166 84.2064 67.8155C85.1673 66.9291 86.348 66.3742 87.6608 66.2964C90.3471 66.134 92.614 67.078 94.2752 69.2128C95.8924 71.2936 96.224 73.689 95.6725 76.2299C95.6218 76.4633 95.5778 76.6968 95.5101 77.0351C95.889 76.9539 96.136 76.9133 96.3796 76.849C96.9683 76.6934 96.9954 76.6494 96.9108 76.0167C96.8059 75.2318 96.6706 74.4536 96.5928 73.6653C96.4947 72.6909 96.4574 71.6996 96.7789 70.759C96.9852 70.1636 96.8973 69.6628 96.586 69.1722C96.3729 68.8407 96.1326 68.5193 95.8586 68.2418C93.2433 65.6028 89.9682 64.4288 86.3616 64.0194C85.3229 63.901 84.2741 63.8773 83.2286 63.7927C81.2527 63.6303 79.49 64.1074 78.0183 65.4912C77.7307 65.7618 77.4296 66.019 77.1488 66.2964C76.4383 66.99 76.5431 66.8817 76.8443 67.6565C78.069 70.8267 78.2991 74.0273 77.1014 77.2652C77.0709 77.3498 77.0642 77.4411 77.0371 77.5663C77.1894 77.6779 77.3247 77.7964 77.4803 77.8877C78.7761 78.6388 80.1464 79.214 81.6215 79.5151C84.2707 80.0497 86.9435 80.0361 89.613 79.7722C90.2896 79.7046 90.9494 79.4001 91.6057 79.1734C91.8087 79.1023 91.9779 78.9365 92.2283 78.7708L92.2249 78.7741ZM122.309 49.4237L122.482 49.5015C122.644 49.2884 122.82 49.0786 122.973 48.8587C124.559 46.5783 125.635 44.0645 126.288 41.3748C127.134 37.9001 127.154 34.3713 126.897 30.8323C126.728 28.508 125.781 26.4272 124.678 24.4209C124.275 23.6867 123.639 23.1454 122.746 23.0879C121.369 22.9965 120.161 23.3484 119.319 24.5393C119.133 24.8066 118.933 25.0637 118.754 25.3344C118.378 25.9028 118.375 25.9096 118.815 26.4746C119.437 27.2697 119.826 28.1561 119.769 29.1779C119.701 30.3959 119.85 31.5902 120.08 32.7811C120.354 34.1717 120.648 35.5588 120.916 36.9528C121.23 38.5971 121.447 40.265 121.843 41.8857C122.394 44.1322 122.489 46.3889 122.343 48.6726C122.326 48.923 122.316 49.1734 122.303 49.4237H122.309ZM62.9489 159.071C63.0572 159.304 63.1181 159.48 63.2128 159.632C64.7082 162.136 66.3931 164.508 68.4164 166.619C69.8712 168.142 71.4851 169.464 73.3662 170.449C75.1458 171.379 76.895 171.285 78.6543 170.395C79.375 170.029 79.7878 169.461 79.9231 168.669C80.0517 167.898 79.9941 167.137 79.8419 166.379C79.0739 162.573 76.3807 159.906 72.4933 159.176C69.4483 158.601 66.3762 158.712 63.3075 158.969C63.2196 158.976 63.1316 159.02 62.9557 159.071H62.9489ZM75.9172 65.5081C76.2995 65.1664 76.6142 64.8957 76.9153 64.6115C78.7931 62.8217 81.0328 62.1586 83.5839 62.4394C84.1861 62.5037 84.7883 62.5714 85.3939 62.5747C86.9909 62.5917 88.5472 62.8792 90.0629 63.3394C93.0369 64.236 95.6827 65.6773 97.6348 68.1877C97.6856 68.2554 97.7736 68.296 97.8345 68.3433C98.3081 67.8595 98.731 67.3655 99.2216 66.946C99.5295 66.6821 99.5566 66.4588 99.4415 66.1036C99.0998 65.0513 98.5991 64.0972 97.9326 63.2108C97.2627 62.3176 96.3762 61.915 95.2902 61.8947C94.5932 61.8812 93.8929 61.9048 93.1959 61.8812C90.046 61.783 87.1499 60.9101 84.5853 59.0358C84.1759 58.7347 83.7463 58.4302 83.2794 58.2373C81.9226 57.6858 80.5558 57.1513 79.1686 56.6844C77.8085 56.2276 76.4146 56.2851 75.0409 56.6776C73.7756 57.0396 73.0888 57.9497 72.7335 59.1643C72.6016 59.6177 72.6895 59.9933 72.9433 60.4094C73.8399 61.8778 74.6823 63.3766 75.5484 64.8653C75.6533 65.0446 75.7481 65.2239 75.9071 65.5081H75.9172ZM99.2081 105.161C99.2656 105.002 99.3265 104.88 99.3536 104.751C99.9863 101.94 101.042 99.2839 102.321 96.7126C103.315 94.7096 104.222 92.6729 104.946 90.5515C105.518 88.8768 106.168 87.2325 106.736 85.5577C107.118 84.4345 107.457 83.2977 107.744 82.1473C108.597 78.7708 108.81 75.3028 109.162 71.8552C109.186 71.6387 109.145 71.412 109.138 71.2428C108.245 71.0398 107.443 70.8538 106.621 70.6677C106.587 70.8199 106.56 70.9079 106.547 70.9959C106.229 73.2525 105.948 75.516 105.582 77.7659C104.797 82.5736 103.397 87.1919 101.187 91.5462C99.9964 93.8909 98.8089 96.2355 97.6044 98.5734C96.9616 99.8185 96.4371 101.111 96.0413 102.454C95.9669 102.711 95.9296 102.979 95.8755 103.229C96.5217 103.523 97.1138 103.74 97.6551 104.051C98.1863 104.359 98.6634 104.765 99.2047 105.157L99.2081 105.161ZM131.106 57.4625C130.879 57.7467 130.758 58.0072 130.555 58.1358C129.398 58.8565 129.448 59.8241 129.932 60.9C129.959 60.9643 129.98 61.0319 130.003 61.0962C131.089 64.1311 132.947 66.6212 135.376 68.7053C136.073 69.3042 136.875 69.7271 137.754 69.9876C141.385 71.0669 145.022 71.2936 148.672 70.0857C148.798 70.0451 148.909 69.9673 149.011 69.9166C148.791 68.976 148.581 68.0794 148.371 67.1862C148.324 67.1659 148.28 67.1321 148.239 67.1321C148.053 67.1321 147.867 67.149 147.681 67.1558C144.494 67.2573 141.49 66.6889 138.759 64.9126C136.993 63.7657 135.379 62.4496 133.877 60.9778C132.926 60.0474 132.053 59.0527 131.414 57.8753C131.36 57.7772 131.282 57.696 131.103 57.4591L131.106 57.4625ZM108.167 22.0492C107.94 21.9747 107.839 21.9172 107.731 21.9105C105.968 21.7853 104.188 21.5586 102.443 21.8969C100.791 22.215 99.4991 23.1183 98.7446 24.6916C98.5213 25.1585 98.5213 25.5442 98.8325 25.984C99.7088 27.2121 100.26 28.5925 100.612 30.0541C100.673 30.3045 100.754 30.5481 100.798 30.7985C100.856 31.1537 101.055 31.2823 101.4 31.3533C102.767 31.6375 104.131 31.9387 105.488 32.2635C107.602 32.771 109.734 33.0856 111.916 33.045C113.012 33.0247 113.97 32.6864 114.798 31.9793C115.137 31.6951 115.475 31.4075 115.776 31.0861C116.507 30.3045 117.218 29.5027 117.928 28.7042C118.283 28.305 118.29 28.2339 118.03 27.7907C117.62 27.0937 117.038 26.5592 116.375 26.1159C115.739 25.6863 115.069 25.3073 114.44 24.8675C112.674 23.6292 110.708 23.2503 108.6 23.4769C108.34 23.504 108.086 23.6021 107.829 23.6664C107.829 23.7205 107.836 23.7747 107.839 23.8322C108.13 23.866 108.421 23.9032 108.712 23.9269C109.879 24.0183 111.019 24.2416 112.102 24.6983C112.84 25.0096 113.516 25.4122 114.047 26.0246C114.944 27.0599 114.968 28.2711 114.118 29.3301C113.614 29.9594 112.975 30.4263 112.247 30.7613C109.744 31.9217 107.23 31.7898 104.736 30.7443C104.232 30.5312 103.776 30.1759 103.343 29.8275C102.74 29.3403 102.256 28.738 101.969 28.0072C101.654 27.202 101.634 26.3968 102.135 25.6693C102.419 25.2532 102.767 24.8472 103.167 24.5461C104.476 23.5615 105.9 22.7732 107.477 22.2928C107.67 22.2353 107.856 22.1574 108.164 22.0492H108.167ZM94.5256 74.342C94.4883 70.7692 92.367 68.2317 89.1393 67.7208C87.989 67.5381 86.9266 67.7343 85.9116 68.3027C84.0643 69.3346 83.5669 71.3207 84.8086 73.036C85.2518 73.645 85.827 74.1897 86.4292 74.6465C87.6777 75.587 89.0716 76.2942 90.54 76.8355C91.3757 77.1434 92.235 77.3125 93.1316 77.3092C93.5647 77.3092 93.8184 77.1366 94.0011 76.7577C94.397 75.9423 94.5086 75.0728 94.5222 74.3386L94.5256 74.342ZM99.3874 121.956C99.3299 121.939 99.2724 121.922 99.2182 121.905C99.1134 122.104 98.9983 122.297 98.907 122.504C98.0239 124.571 96.8702 126.476 95.5101 128.266C94.918 129.044 94.397 129.873 93.8286 130.668C93.5816 131.013 93.5376 131.327 93.7778 131.689C93.9335 131.92 94.0485 132.177 94.1838 132.424C95.3477 134.572 96.5116 136.721 97.6788 138.869C97.7296 138.964 97.8074 139.048 97.919 139.2C98.1288 138.997 98.3183 138.835 98.4874 138.652C99.2622 137.817 100.017 136.957 100.815 136.145C101.221 135.733 101.306 135.34 101.164 134.775C100.172 130.79 99.5295 126.746 99.4483 122.629C99.4449 122.406 99.4111 122.179 99.3908 121.956H99.3874ZM150.242 62.0469C150.09 61.7898 149.975 61.5665 149.836 61.3567C148.987 60.0542 147.898 58.9783 146.663 58.0445C145.807 57.3982 144.91 56.8129 144.064 56.1566C142.735 55.1246 141.283 54.2991 139.795 53.5176C138.333 52.7495 136.787 52.4011 135.176 52.2894C134.655 52.2522 134.1 52.3199 133.596 52.4586C132.581 52.7326 132.053 53.4499 132.009 54.5021C131.996 54.8032 132.026 55.1077 132.067 55.4055C132.256 56.7148 132.859 57.8313 133.732 58.8057C135.579 60.8628 137.656 62.6356 140.035 64.06C142.45 65.5081 145.086 65.8735 147.83 65.7483C148.141 65.7348 148.469 65.6096 148.743 65.4573C149.2 65.2036 149.325 64.7671 149.072 64.3239C148.787 63.8266 148.415 63.3867 147.911 63.0416C147.316 63.6506 146.629 64.06 145.817 64.1277C145.15 64.1852 144.464 64.1683 143.804 64.0702C142.197 63.8266 140.728 63.1431 139.311 62.3887C137.166 61.2485 135.362 59.6786 133.803 57.8279C133.292 57.2223 132.882 56.5321 132.723 55.7404C132.575 55.0096 132.903 54.4953 133.63 54.3397C133.965 54.2687 134.324 54.2619 134.669 54.2788C137.233 54.4074 139.625 55.1145 141.777 56.522C144.271 58.1527 146.785 59.7564 148.848 61.9488C149.38 62.5105 149.386 62.5037 150.236 62.0469H150.242ZM120.574 64.4626C120.625 64.4863 120.672 64.51 120.723 64.5337C120.858 64.4187 120.997 64.3036 121.132 64.1852C122.228 63.2514 123.314 62.3007 124.431 61.3906C125.422 60.582 126.444 59.8072 127.472 59.0493C127.895 58.738 128.007 58.3794 128.014 57.8651C128.027 56.6607 128.054 55.4427 128.224 54.2517C128.427 52.824 128.981 51.5214 130.057 50.4929C130.098 50.4523 130.101 50.3711 130.125 50.2899C129.99 50.185 129.861 50.0936 129.739 49.9887C129.178 49.5083 128.596 49.5455 128.007 49.9278C127.716 50.1173 127.398 50.2865 127.151 50.5267C126.42 51.2406 125.645 51.924 125.023 52.7259C123.565 54.6104 122.428 56.6945 121.457 58.87C120.658 60.6598 120.675 62.568 120.574 64.4593V64.4626ZM112.305 61.3973C112.048 61.377 111.845 61.3669 111.642 61.3432C110.745 61.2248 109.835 61.1639 108.955 60.9677C107.984 60.7511 107.041 60.406 106.083 60.1184C105.846 60.0474 105.609 59.9933 105.261 59.9053C105.18 60.5617 105.068 61.1267 105.044 61.6985C105.007 62.6729 104.98 63.654 105.034 64.625C105.078 65.3829 105.23 66.1408 105.373 66.8885C105.687 68.5396 106.75 69.4023 108.36 69.6662C108.384 69.6696 108.404 69.6764 108.428 69.6831C108.803 69.7846 109.155 69.717 109.51 69.5647C110.982 68.9253 111.879 67.7918 112.281 66.2727C112.708 64.6656 112.423 63.0518 112.302 61.4007L112.305 61.3973ZM137.971 153.566C137.731 153.492 137.646 153.444 137.562 153.444C136.239 153.444 134.906 153.363 133.59 153.471C131.81 153.617 130.223 154.338 128.829 155.461C127.422 156.594 126.772 158.12 126.552 159.869C126.491 160.35 126.688 160.674 127.121 160.881C127.794 161.199 128.504 161.263 129.232 161.202C130.105 161.131 130.907 160.837 131.671 160.417C133.583 159.365 135.142 157.927 136.364 156.124C136.909 155.319 137.399 154.48 137.971 153.566ZM122.032 88.5418C121.01 90.7105 120.283 92.8082 120.198 95.0784C120.185 95.4641 120.283 95.8634 120.398 96.2355C120.479 96.4893 120.638 96.7498 120.831 96.9359C121.947 98.0219 124.17 98.2012 125.324 97.5178C126.924 96.5637 128.339 95.4371 129.354 93.8401C130 92.8251 129.956 92.7202 128.768 92.3819C127.787 92.1011 126.819 91.7628 125.859 91.4177C124.583 90.9609 123.524 90.1827 122.631 89.1677C122.469 88.9817 122.286 88.8091 122.029 88.5418H122.032ZM77.9608 98.8914C77.9608 99.3989 77.9506 99.6967 77.9608 99.9944C78.0217 101.483 77.9946 102.965 77.7205 104.44C77.5818 105.191 77.5412 105.963 77.5175 106.727C77.4905 107.566 77.7814 108.328 78.2416 109.021C79.0265 110.205 80.7182 110.226 81.5099 109.041C81.882 108.483 82.1899 107.878 82.4877 107.275C83.4215 105.404 84.335 103.527 85.2552 101.649C85.2891 101.578 85.2789 101.48 85.2958 101.314C82.5858 101.459 80.2953 100.36 77.9574 98.8948L77.9608 98.8914ZM116.977 24.5122C117.028 24.3025 117.062 24.2179 117.072 24.1299C117.309 22.3063 116.548 20.8988 115.167 19.8128C113.55 18.5373 111.696 17.7523 109.663 17.414C109.324 17.3565 108.952 17.3294 108.627 17.4106C106.509 17.9181 104.476 18.6252 102.747 20.0192C102.629 20.1139 102.527 20.2256 102.351 20.388C102.531 20.4116 102.615 20.4353 102.7 20.4353C103.86 20.4353 105.024 20.4083 106.185 20.4319C109.169 20.4895 112 21.0917 114.508 22.8138C115.157 23.2604 115.81 23.7104 116.46 24.157C116.605 24.2585 116.754 24.36 116.977 24.519V24.5122ZM107.352 25.1517L107.342 25.2194C106.969 25.2194 106.594 25.1821 106.229 25.2261C105.609 25.3039 104.977 25.3682 104.381 25.5509C103.153 25.9265 102.818 26.9753 103.552 28.0174C104.016 28.6771 104.618 29.2083 105.359 29.5094C107.372 30.3282 109.419 30.4669 111.459 29.594C111.838 29.4316 112.19 29.188 112.528 28.9478C112.735 28.8023 112.914 28.6095 113.066 28.4065C113.435 27.926 113.435 27.476 113.043 27.0091C112.836 26.7655 112.589 26.5186 112.308 26.3798C111.706 26.0855 111.094 25.7675 110.448 25.6254C109.433 25.3987 108.387 25.3039 107.352 25.1551V25.1517ZM134.09 55.6694C134.202 56.319 134.55 56.6708 134.872 57.0261C136.13 58.4065 137.511 59.6583 139.091 60.653C140.61 61.6105 142.244 62.3481 144.024 62.7033C144.714 62.842 145.411 62.886 146.088 62.6289C146.94 62.3041 147.028 61.9285 146.304 61.4041C144.555 60.1354 142.799 58.87 141.006 57.6723C139.148 56.4306 137.061 55.8284 134.841 55.6727C134.618 55.6558 134.391 55.6727 134.094 55.6727L134.09 55.6694ZM98.3521 76.0742C98.5382 76.037 98.6329 76.037 98.7141 76.0032C99.9017 75.4957 100.974 74.8123 101.817 73.8176C102.734 72.7349 103.231 71.4831 103.278 70.0621C103.309 69.1621 102.957 68.4347 102.233 67.9001C101.465 67.3317 100.788 67.3182 100.03 68.0253C99.0152 68.9726 98.2675 70.1399 98.0205 71.5338C97.7499 73.0428 98.0544 74.5281 98.3521 76.0776V76.0742ZM99.6445 32.6458C98.9746 32.4969 98.4029 32.6153 97.8514 32.7777C96.9379 33.045 96.0244 33.3292 95.1312 33.654C93.5545 34.2224 93.2602 34.6758 93.2906 36.3471C93.294 36.5332 93.3042 36.7193 93.3312 36.902C93.4598 37.7309 93.876 38.1843 94.7049 38.367C95.7672 38.6004 96.6875 38.2858 97.4623 37.555C98.2337 36.831 98.8325 35.9716 99.2622 35.004C99.587 34.2732 99.7021 33.4984 99.6479 32.6424L99.6445 32.6458ZM150.303 63.5864C150.381 63.8875 150.418 64.0668 150.472 64.2393C150.648 64.8077 150.621 65.3863 150.249 65.8329C149.806 66.3641 149.819 66.9359 149.894 67.5381C149.972 68.1505 150.053 68.7696 150.489 69.3752C151.775 68.3738 152.753 67.2167 153.233 65.6806C153.355 65.2848 153.172 64.9566 152.878 64.6859C152.32 64.1717 151.67 63.8266 150.943 63.627C150.777 63.583 150.591 63.5999 150.303 63.583V63.5864ZM75.6939 68.5226C75.6296 68.5125 75.5687 68.5023 75.5045 68.4956C75.4334 68.6072 75.3319 68.7087 75.2947 68.8271C74.9868 69.7779 74.6316 70.7184 74.4083 71.6894C74.0192 73.3676 74.5233 74.8596 75.5451 76.2028C75.6161 76.2975 75.7447 76.3517 75.9409 76.4972C76.7664 73.7296 76.6243 71.1109 75.6939 68.5226ZM132.27 51.6263C131.678 51.2541 131.35 51.2338 130.944 51.6195C130.646 51.9003 130.392 52.2522 130.203 52.6142C129.533 53.8796 129.387 55.2667 129.367 56.6708C129.367 56.8197 129.418 56.9652 129.472 57.2798C129.898 56.7926 130.257 56.434 130.545 56.0246C130.72 55.7742 130.856 55.4494 130.886 55.1449C131.015 53.8559 131.204 52.6007 132.27 51.6229V51.6263ZM97.9123 23.23C97.8615 23.1961 97.8108 23.1657 97.76 23.1318C97.5401 23.2739 97.2491 23.3551 97.2458 23.6969C97.2458 23.7713 97.3777 23.8457 97.513 23.9912C97.6721 23.6901 97.7905 23.46 97.9089 23.2333L97.9123 23.23Z" fill="#47567B"/>
</g>
<rect x="2" y="1.5" width="200" height="200" rx="100" stroke="#CCD7E6" stroke-width="3"/>
<defs>
<clipPath id="clip0_716_140048">
<rect x="0.5" width="203" height="203" rx="101.5" fill="white"/>
</clipPath>
</defs>
</svg>
