<svg width="44" height="44" viewBox="0 0 44 44" fill="none" xmlns="http://www.w3.org/2000/svg">
<path d="M31.167 36.6666H40.3337V32.9999C40.3336 31.8569 39.9774 30.7423 39.3146 29.8111C38.6518 28.8798 37.7153 28.1782 36.6354 27.8038C35.5554 27.4294 34.3856 27.4007 33.2886 27.7218C32.1916 28.0429 31.2219 28.6978 30.5143 29.5954M31.167 36.6666H12.8337M31.167 36.6666V32.9999C31.167 31.7973 30.936 30.6478 30.5143 29.5954M30.5143 29.5954C29.8335 27.894 28.6585 26.4356 27.141 25.4083C25.6234 24.381 23.8329 23.832 22.0003 23.832C20.1678 23.832 18.3772 24.381 16.8597 25.4083C15.3421 26.4356 14.1671 27.894 13.4863 29.5954M12.8337 36.6666H3.66699V32.9999C3.66708 31.8569 4.02327 30.7423 4.68607 29.8111C5.34887 28.8798 6.28533 28.1782 7.36528 27.8038C8.44524 27.4294 9.61502 27.4007 10.712 27.7218C11.809 28.0429 12.7787 28.6978 13.4863 29.5954M12.8337 36.6666V32.9999C12.8337 31.7973 13.0647 30.6478 13.4863 29.5954M27.5003 12.8333C27.5003 14.2919 26.9209 15.6909 25.8894 16.7223C24.858 17.7538 23.459 18.3333 22.0003 18.3333C20.5416 18.3333 19.1427 17.7538 18.1112 16.7223C17.0798 15.6909 16.5003 14.2919 16.5003 12.8333C16.5003 11.3746 17.0798 9.97561 18.1112 8.94416C19.1427 7.91271 20.5416 7.33325 22.0003 7.33325C23.459 7.33325 24.858 7.91271 25.8894 8.94416C26.9209 9.97561 27.5003 11.3746 27.5003 12.8333ZM38.5003 18.3333C38.5003 19.3057 38.114 20.2383 37.4264 20.926C36.7387 21.6136 35.8061 21.9999 34.8337 21.9999C33.8612 21.9999 32.9286 21.6136 32.2409 20.926C31.5533 20.2383 31.167 19.3057 31.167 18.3333C31.167 17.3608 31.5533 16.4282 32.2409 15.7405C32.9286 15.0529 33.8612 14.6666 34.8337 14.6666C35.8061 14.6666 36.7387 15.0529 37.4264 15.7405C38.114 16.4282 38.5003 17.3608 38.5003 18.3333ZM12.8337 18.3333C12.8337 19.3057 12.4474 20.2383 11.7597 20.926C11.0721 21.6136 10.1395 21.9999 9.16699 21.9999C8.19453 21.9999 7.2619 21.6136 6.57427 20.926C5.88663 20.2383 5.50033 19.3057 5.50033 18.3333C5.50033 17.3608 5.88663 16.4282 6.57427 15.7405C7.2619 15.0529 8.19453 14.6666 9.16699 14.6666C10.1395 14.6666 11.0721 15.0529 11.7597 15.7405C12.4474 16.4282 12.8337 17.3608 12.8337 18.3333Z" stroke="#47567B" stroke-width="2" stroke-linecap="round" stroke-linejoin="round"/>
</svg>
