<svg width="775" height="100" viewBox="0 0 775 100" fill="none" xmlns="http://www.w3.org/2000/svg">
<path d="M75.8024 15.7751C76.3844 14.096 75.8968 12.228 75.138 10.6189C74.1964 8.62592 72.7641 6.77005 70.768 5.8345C68.772 4.89895 66.1573 5.09398 64.6397 6.69387C63.2623 8.14748 63.0612 10.3812 63.4421 12.3468C64.274 16.6254 67.3641 20.0567 70.3292 23.2504C73.9678 27.1694 77.6064 31.0883 81.242 35.0043" fill="#667593"/>
<path d="M77.1158 17.3111C78.5329 12.2889 76.1864 5.20677 71.1704 2.89683C69.1865 1.98261 66.6907 1.95519 64.85 3.22291C62.6681 4.72223 61.8819 7.50451 61.7691 10.0217C61.5192 15.6258 64.5971 20.3828 68.19 24.3902C72.2095 28.8729 76.3784 33.2277 80.4741 37.6372C81.4035 38.6398 82.2812 37.4696 82.5585 36.5432C82.9181 35.3426 82.9394 33.3709 82.013 32.3744C79.0479 29.1807 76.0858 25.9901 73.1207 22.7964C70.5548 20.0324 67.6293 17.2958 65.8618 13.9193C65.3376 12.9167 64.5057 11.3686 64.8561 10.1954C65.2797 8.78747 67.0625 8.29379 68.3515 8.31817C69.9362 8.35169 71.3593 9.13182 72.4198 10.2837C73.139 11.0639 74.7968 13.13 74.4859 14.2332C74.1446 15.44 74.0654 17.433 75.0314 18.402C75.9974 19.3711 76.8416 18.2862 77.1158 17.308V17.3111Z" fill="#667593"/>
<path d="M81.5194 34.9464C84.8868 31.7467 87.989 28.2665 90.7835 24.5548C91.6093 23.4608 92.4108 22.3332 92.9624 21.0777C93.8035 19.1548 94.0107 17.0216 94.2088 14.9311C94.3947 12.9564 94.5745 10.9268 94.0229 9.02216C93.069 5.73401 89.8601 3.30218 86.444 3.03705C83.0278 2.77193 79.5934 4.55161 77.6248 7.35218C75.6562 10.1527 75.129 13.8553 75.9761 17.174" fill="#667593"/>
<path d="M82.2904 37.5763C85.9412 34.084 89.4183 30.29 92.3134 26.1424C95.2084 21.9949 96.016 16.6894 95.9154 11.6764C95.827 7.15405 93.9285 2.6317 89.5402 0.763645C85.542 -0.936807 81.1019 0.330913 78.0698 3.29604C74.0563 7.21805 73.4438 13.5048 74.6658 18.7068C74.9035 19.7155 75.8208 20.715 76.7503 19.8008C77.7376 18.8287 77.5761 16.8265 77.2957 15.6319C75.3728 7.43441 88.4157 2.11365 92.3895 9.79615C93.2581 11.4753 92.807 13.6359 92.609 15.4278C92.3621 17.6706 91.8136 19.4564 90.4758 21.3001C87.599 25.2678 84.2895 28.9308 80.7515 32.3134C79.368 33.6391 80.2761 39.5023 82.2904 37.5763Z" fill="#667593"/>
<path d="M69.0738 31.6919C68.9915 31.5822 68.9428 31.4968 68.8757 31.4328C67.9006 30.4455 66.9193 29.4642 65.9502 28.4708C63.1436 25.6001 60.791 22.379 58.6304 19.0086C58.2372 18.396 57.9081 17.7378 57.6095 17.0735C56.1924 13.9286 56.5825 10.8446 58.027 7.83374C58.7157 6.39537 59.7823 5.27697 61.1414 4.42674C63.0704 3.21692 65.164 2.55259 67.4343 2.57392C70.8931 2.60439 73.2427 4.51207 74.8426 7.36749C75.9945 9.42449 76.5552 11.7131 76.668 14.084C76.8356 17.6525 76.22 21.1235 75.2204 24.5305C74.7633 26.0877 73.9558 27.4804 73.0629 28.8243C72.4717 29.7141 71.8591 30.5918 71.2192 31.5273C72.9349 33.4624 75.0102 35.0075 76.8599 36.845C78.859 34.7088 81.2116 33.0297 83.1406 30.8691C82.9913 30.6466 82.8755 30.4638 82.7475 30.2901C79.6178 25.9841 78.7828 23.9484 77.9875 18.6856C77.6065 16.1653 77.4755 13.6451 77.9814 11.1249C78.2709 9.68656 78.6792 8.27257 79.3619 6.97742C80.7606 4.32313 82.8176 2.46421 85.8833 1.97663C87.3034 1.75112 88.7113 1.9553 90.0735 2.36365C92.6485 3.13464 94.8792 4.43589 96.1774 6.90428C98.0546 10.4758 98.1796 14.0779 96.147 17.6464C95.6655 18.4905 95.1413 19.3194 94.5776 20.1117C92.9533 22.3942 91.3595 24.7011 89.4152 26.7307C88.1201 28.0868 86.8006 29.4185 85.4902 30.7624C85.4262 30.8295 85.3713 30.9087 85.2708 31.0336C85.4597 31.2348 85.6334 31.4328 85.8163 31.6157C88.0226 33.7976 90.6129 35.431 93.3555 36.8389C97.1069 38.7619 101.075 40.0783 105.198 40.9255C106.746 41.2424 108.309 41.4923 109.876 41.7239C112.694 42.1414 115.516 42.5376 118.341 42.9094C122.132 43.4091 125.923 43.912 129.72 44.3477C131.192 44.5154 132.685 44.5397 134.169 44.5763C137.043 44.6433 139.917 44.6891 142.791 44.7134C144.299 44.7256 145.655 44.9024 147.167 44.8963C148.212 44.8932 149.333 45.1187 150.379 45.1248C150.915 45.1248 152.237 45.2467 152.774 45.2498C153.283 45.2528 154.334 45.3046 154.84 45.3686L154.813 46.5602C154.124 46.6211 153.52 46.615 152.82 46.6242C149.019 46.6668 144.515 46.1488 140.715 46.1305C137.72 46.1152 134.724 45.9964 131.728 45.9385C129.309 45.8928 126.929 45.4966 124.54 45.1705C121.91 44.811 119.274 44.4971 116.644 44.1436C113.484 43.72 110.305 43.3756 107.166 42.8179C100.959 41.7148 95.0255 39.798 89.6377 36.4154C87.794 35.2573 86.0601 33.9652 84.5394 32.4019C84.4541 32.3135 84.3657 32.2313 84.2743 32.152C84.2408 32.1246 84.1889 32.1155 84.1006 32.0819C83.9909 32.1734 83.8598 32.277 83.7379 32.3897C81.9522 34.0475 80.1725 35.7084 78.3836 37.3631C78.0637 37.6587 77.7163 37.9269 77.3689 38.195C76.9788 38.4998 76.6405 38.5059 76.2291 38.2194C76.0707 38.1097 75.9305 37.9695 75.7903 37.8354C74.0045 36.1777 72.2218 34.5199 70.436 32.8651C70.3842 32.8164 70.3172 32.7889 70.2166 32.728C70.113 32.8133 69.9941 32.8895 69.8966 32.987C67.5196 35.4249 64.7008 37.2351 61.6961 38.7801C57.8807 40.7396 53.8429 42.0652 49.6588 42.9825C47.8486 43.3787 46.0293 43.6773 44.1857 43.8937C41.8422 44.171 39.5109 44.5641 37.1675 44.881C34.1993 45.2833 31.219 45.6094 28.2599 46.0573C24.9962 46.551 21.7141 46.6882 18.4259 46.7064C13.5806 46.7339 8.73215 46.7278 3.88373 46.7156C2.81409 46.7156 1.74445 46.6455 0.674814 46.5998C0.348741 46.5876 0.0257167 46.5541 0.00133747 46.1122C-0.016947 45.7465 0.15066 45.5027 0.601676 45.4204C1.02831 45.3412 1.47019 45.3138 1.90597 45.3168C8.60416 45.3686 15.3024 45.3656 21.9975 45.1645C24.021 45.1035 26.0292 44.8963 28.0344 44.6098C31.0239 44.1832 34.0226 43.8297 37.0151 43.4274C40.224 42.9977 43.4482 42.6412 46.6358 42.0896C52.8769 41.0108 58.8345 39.1032 64.2223 35.6596C65.7857 34.66 67.2667 33.5538 68.5801 32.2343C68.7477 32.0637 68.9062 31.8839 69.0769 31.6949L69.0738 31.6919ZM84.2469 29.9152C84.7131 29.4825 85.0849 29.1717 85.4201 28.8212C87.5807 26.5753 89.784 24.369 91.5515 21.7817C92.6089 20.2367 93.7487 18.7435 94.733 17.1497C96.1531 14.8489 96.5248 12.3805 95.766 9.72009C95.0408 7.18465 93.5658 5.36839 91.1614 4.3018C89.5768 3.59785 87.919 3.19254 86.188 3.40586C83.6861 3.7167 81.9765 5.2465 80.8063 7.3553C79.819 9.13803 79.2461 11.1067 79.1699 13.1454C78.9748 18.3839 79.8433 24.2928 83.6831 29.0955C83.805 29.2479 83.9177 29.4063 84.0305 29.5648C84.0884 29.644 84.1341 29.7293 84.2469 29.9091V29.9152ZM70.1252 30.5674C70.9327 29.3515 71.6885 28.2514 72.4016 27.1269C73.2823 25.7372 73.9192 24.2349 74.2392 22.6198C74.5713 20.9498 74.9065 19.2767 75.1138 17.5885C75.4886 14.5137 75.1229 11.5241 73.8765 8.65654C73.1695 7.03227 72.0115 5.81941 70.5549 4.87471C69.7016 4.32313 68.7356 4.02753 67.7177 4.03972C66.9193 4.04887 66.1056 4.10372 65.3286 4.26523C63.43 4.65835 61.696 5.45981 60.3979 6.92866C58.7187 8.8272 58.1093 11.1554 58.2129 13.633C58.286 15.3669 59.0143 16.9242 59.9438 18.3839C62.5554 22.4887 65.615 26.2279 69.083 29.6349C69.3755 29.9213 69.6924 30.1834 70.1191 30.5674H70.1252Z" fill="#47567B"/>
<path d="M30.2599 79.7258L27.3059 71.2838C27.2126 70.9945 27.1286 70.8125 27.0539 70.7378C26.9886 70.6538 26.8673 70.5932 26.6899 70.5558L26.1299 70.4438V69.9118H29.4479V70.4298L28.6499 70.5278C28.4819 70.5558 28.3746 70.6118 28.3279 70.6958C28.2813 70.7798 28.2999 70.9572 28.3839 71.2278L30.8619 78.6338H30.9039L33.4099 71.2978C33.5033 71.0365 33.5266 70.8545 33.4799 70.7518C33.4333 70.6492 33.2979 70.5792 33.0739 70.5418L32.3459 70.4158V69.9118H35.4819V70.4298L34.8799 70.5278C34.7119 70.5558 34.5859 70.6165 34.5019 70.7098C34.4273 70.8032 34.3386 70.9992 34.2359 71.2978L31.2679 79.7258H30.2599ZM36.8713 79.7258V79.2218L37.6833 79.0958C37.8606 79.0678 37.9773 79.0072 38.0333 78.9138C38.0893 78.8205 38.1173 78.6432 38.1173 78.3818V71.2278C38.1173 70.9945 38.0893 70.8358 38.0333 70.7518C37.9773 70.6585 37.8513 70.5932 37.6553 70.5558L36.8713 70.4298V69.9118H43.1153L43.6193 72.1378L43.0593 72.3058C42.9193 71.9138 42.7886 71.6012 42.6673 71.3678C42.546 71.1345 42.406 70.9618 42.2473 70.8498C42.0886 70.7285 41.8973 70.6492 41.6733 70.6118C41.4493 70.5745 41.1693 70.5558 40.8333 70.5558H39.1533V74.3778H40.7633C41.0806 74.3778 41.314 74.3592 41.4633 74.3218C41.6126 74.2752 41.7246 74.1725 41.7993 74.0138C41.874 73.8552 41.9486 73.5985 42.0233 73.2438L42.5273 73.1738V76.1698L42.0233 76.2538C41.9673 75.8992 41.8973 75.6378 41.8133 75.4698C41.7386 75.3018 41.6126 75.1945 41.4353 75.1478C41.2673 75.1012 41.0106 75.0778 40.6653 75.0778H39.1533V79.0818H41.3513C41.678 79.0818 41.9486 79.0585 42.1633 79.0118C42.378 78.9558 42.5553 78.8625 42.6953 78.7318C42.8446 78.5918 42.966 78.4052 43.0593 78.1718C43.162 77.9292 43.2506 77.6212 43.3253 77.2478H43.9133L43.5913 79.7258H36.8713ZM45.8466 79.7258V79.2218L46.6306 79.0958C46.7986 79.0772 46.9153 79.0165 46.9806 78.9138C47.0553 78.8112 47.0926 78.6338 47.0926 78.3818V71.2138C47.0926 70.9898 47.0646 70.8358 47.0086 70.7518C46.9526 70.6585 46.8266 70.5932 46.6306 70.5558L45.8466 70.4298V69.9118H48.3946L53.4626 78.1158V78.0598V71.2138C53.4626 70.9805 53.4346 70.8218 53.3786 70.7378C53.3226 70.6538 53.1966 70.5932 53.0006 70.5558L52.2306 70.4298V69.9118H55.5066V70.4298L54.7366 70.5558C54.5593 70.5838 54.438 70.6445 54.3726 70.7378C54.3073 70.8218 54.2746 70.9898 54.2746 71.2418V79.7258H53.2666L47.9186 71.1018L47.9046 71.1578V78.4378C47.9046 78.6805 47.9373 78.8438 48.0026 78.9278C48.068 79.0118 48.1846 79.0678 48.3526 79.0958L49.1646 79.2218V79.7258H45.8466ZM57.5426 79.7258V79.2218L58.3546 79.0958C58.532 79.0678 58.6486 79.0072 58.7046 78.9138C58.7606 78.8205 58.7886 78.6432 58.7886 78.3818V71.2278C58.7886 70.9945 58.7606 70.8358 58.7046 70.7518C58.6486 70.6585 58.5226 70.5932 58.3266 70.5558L57.5426 70.4298V69.9118H61.4066C62.0413 69.9118 62.62 69.9772 63.1426 70.1078C63.6746 70.2385 64.1366 70.4298 64.5286 70.6818C64.93 70.9338 65.266 71.2465 65.5366 71.6198C65.8166 71.9932 66.0266 72.4225 66.1666 72.9078C66.3066 73.3932 66.3766 73.9298 66.3766 74.5178C66.3766 75.3952 66.2553 76.1605 66.0126 76.8138C65.77 77.4672 65.42 78.0132 64.9626 78.4518C64.5146 78.8812 63.9686 79.2032 63.3246 79.4178C62.6806 79.6232 61.9526 79.7258 61.1406 79.7258H57.5426ZM61.0566 79.0818C61.7286 79.0818 62.3213 79.0025 62.8346 78.8438C63.3573 78.6852 63.8006 78.4332 64.1646 78.0878C64.5286 77.7332 64.804 77.2758 64.9906 76.7158C65.1773 76.1465 65.2706 75.4605 65.2706 74.6578C65.2706 73.7525 65.1213 72.9965 64.8226 72.3898C64.524 71.7738 64.0806 71.3165 63.4926 71.0178C62.9046 70.7098 62.172 70.5558 61.2946 70.5558H59.8246V79.0118C59.9553 79.0305 60.1373 79.0492 60.3706 79.0678C60.6133 79.0772 60.842 79.0818 61.0566 79.0818ZM72.648 79.9218C71.7333 79.9218 70.9447 79.7165 70.282 79.3058C69.6286 78.8952 69.1246 78.3212 68.77 77.5838C68.4247 76.8465 68.252 75.9785 68.252 74.9798C68.252 73.8785 68.4293 72.9405 68.784 72.1658C69.148 71.3818 69.666 70.7798 70.338 70.3598C71.01 69.9305 71.8173 69.7158 72.76 69.7158C73.656 69.7158 74.426 69.9165 75.07 70.3178C75.714 70.7192 76.2087 71.2885 76.554 72.0258C76.9087 72.7538 77.086 73.6172 77.086 74.6158C77.086 75.4185 76.9833 76.1465 76.778 76.7998C76.5727 77.4532 76.274 78.0132 75.882 78.4798C75.4993 78.9465 75.0327 79.3058 74.482 79.5578C73.9407 79.8005 73.3293 79.9218 72.648 79.9218ZM72.774 79.1518C73.2873 79.1518 73.7447 79.0585 74.146 78.8718C74.5473 78.6758 74.8833 78.3912 75.154 78.0178C75.4247 77.6352 75.6253 77.1732 75.756 76.6318C75.896 76.0905 75.966 75.4745 75.966 74.7838C75.966 74.1025 75.8913 73.5005 75.742 72.9778C75.602 72.4458 75.3873 71.9932 75.098 71.6198C74.818 71.2372 74.468 70.9525 74.048 70.7658C73.6373 70.5698 73.1567 70.4718 72.606 70.4718C72.0833 70.4718 71.6213 70.5698 71.22 70.7658C70.8187 70.9525 70.478 71.2325 70.198 71.6058C69.918 71.9698 69.708 72.4178 69.568 72.9498C69.428 73.4818 69.358 74.0885 69.358 74.7698C69.358 75.4418 69.4327 76.0485 69.582 76.5898C69.7313 77.1312 69.9507 77.5932 70.24 77.9758C70.5387 78.3585 70.898 78.6525 71.318 78.8578C71.7473 79.0538 72.2327 79.1518 72.774 79.1518ZM86.4813 79.9218C86.1826 79.9218 85.926 79.8705 85.7113 79.7678C85.4966 79.6745 85.3053 79.5158 85.1373 79.2918C84.9693 79.0678 84.806 78.7645 84.6473 78.3818L83.9193 76.5198C83.77 76.1558 83.6206 75.8805 83.4713 75.6938C83.322 75.4978 83.1446 75.3672 82.9393 75.3018C82.7433 75.2365 82.4913 75.2038 82.1833 75.2038C82.0153 75.2038 81.866 75.2085 81.7353 75.2178C81.6046 75.2178 81.4833 75.2272 81.3713 75.2458V78.4238C81.3713 78.6478 81.404 78.8112 81.4693 78.9138C81.544 79.0165 81.6793 79.0772 81.8753 79.0958L82.9253 79.2218V79.7258H79.0753V79.2218L79.9153 79.0958C80.0833 79.0678 80.1953 79.0118 80.2513 78.9278C80.3166 78.8345 80.3493 78.6525 80.3493 78.3818V71.2138C80.3493 70.9805 80.3166 70.8218 80.2513 70.7378C80.186 70.6445 80.06 70.5838 79.8733 70.5558L79.0753 70.4298V69.9118H82.2813C82.9066 69.9118 83.4526 69.9678 83.9193 70.0798C84.386 70.1825 84.7686 70.3412 85.0673 70.5558C85.3753 70.7612 85.604 71.0225 85.7533 71.3398C85.9026 71.6572 85.9773 72.0258 85.9773 72.4458C85.9773 72.6605 85.9446 72.8752 85.8793 73.0898C85.8233 73.3045 85.7346 73.5098 85.6133 73.7058C85.492 73.9018 85.338 74.0838 85.1513 74.2518C84.9646 74.4198 84.7453 74.5645 84.4933 74.6858C84.2506 74.8072 83.9753 74.8958 83.6673 74.9518V74.9938C84.0033 75.0872 84.274 75.2412 84.4793 75.4558C84.6846 75.6612 84.8573 75.9412 84.9973 76.2958L85.4733 77.4718C85.6226 77.8265 85.7533 78.1298 85.8653 78.3818C85.9866 78.6338 86.122 78.8298 86.2713 78.9698C86.43 79.1005 86.6306 79.1658 86.8733 79.1658C87.004 79.1658 87.1253 79.1518 87.2373 79.1238C87.3586 79.0958 87.48 79.0585 87.6013 79.0118L87.7133 79.4178C87.5546 79.5765 87.368 79.6978 87.1533 79.7818C86.948 79.8752 86.724 79.9218 86.4813 79.9218ZM82.3233 74.6018C82.818 74.6018 83.2566 74.5272 83.6393 74.3778C84.022 74.2192 84.3253 73.9812 84.5493 73.6638C84.7733 73.3465 84.8853 72.9545 84.8853 72.4878C84.8853 72.0212 84.7826 71.6478 84.5773 71.3678C84.372 71.0878 84.0733 70.8872 83.6813 70.7658C83.2893 70.6352 82.8086 70.5698 82.2393 70.5698H81.3713V74.5738C81.614 74.5832 81.81 74.5925 81.9593 74.6018C82.1086 74.6018 82.23 74.6018 82.3233 74.6018ZM93.8703 79.7258V79.2218L95.0043 79.0538C95.1537 79.0258 95.2657 78.9698 95.3403 78.8858C95.4243 78.7925 95.4663 78.6198 95.4663 78.3678V70.5558H94.4723C94.1363 70.5558 93.8563 70.5838 93.6323 70.6398C93.4083 70.6865 93.217 70.7892 93.0583 70.9478C92.8997 71.1065 92.755 71.3352 92.6243 71.6338C92.4937 71.9232 92.349 72.3152 92.1903 72.8098L91.6303 72.6698L92.1763 69.9118H99.8063L100.338 72.6698L99.7783 72.8098C99.6197 72.3152 99.475 71.9232 99.3443 71.6338C99.2137 71.3352 99.069 71.1065 98.9103 70.9478C98.7517 70.7892 98.5603 70.6865 98.3363 70.6398C98.1123 70.5838 97.837 70.5558 97.5103 70.5558H96.5023V78.4238C96.5023 78.6478 96.5303 78.8018 96.5863 78.8858C96.6517 78.9605 96.7823 79.0165 96.9783 79.0538L98.0843 79.2218V79.7258H93.8703ZM103.968 79.7258V79.2218L104.808 79.0958C104.986 79.0678 105.102 79.0072 105.158 78.9138C105.214 78.8205 105.242 78.6432 105.242 78.3818V75.4978L102.666 71.2558C102.545 71.0598 102.424 70.9012 102.302 70.7798C102.19 70.6585 102.032 70.5792 101.826 70.5418L101.28 70.4438V69.9118H104.822V70.4298L104.094 70.4998C103.87 70.5278 103.735 70.6072 103.688 70.7378C103.651 70.8592 103.688 71.0178 103.8 71.2138L105.914 74.7558H105.956L108.014 71.2698C108.145 71.0645 108.187 70.8965 108.14 70.7658C108.094 70.6352 107.958 70.5558 107.734 70.5278L107.118 70.4158V69.9118H110.366V70.4298L109.568 70.5418C109.41 70.5698 109.279 70.6352 109.176 70.7378C109.083 70.8312 108.952 71.0225 108.784 71.3118L106.278 75.5118V78.4378C106.278 78.6712 106.306 78.8345 106.362 78.9278C106.428 79.0118 106.549 79.0678 106.726 79.0958L107.538 79.2218V79.7258H103.968ZM111.682 79.7258V79.2218L112.494 79.0958C112.671 79.0678 112.788 79.0072 112.844 78.9138C112.9 78.8205 112.928 78.6432 112.928 78.3818V71.2138C112.928 70.9805 112.895 70.8218 112.83 70.7378C112.764 70.6445 112.638 70.5838 112.452 70.5558L111.682 70.4298V69.9118H114.944C115.42 69.9118 115.849 69.9492 116.232 70.0238C116.624 70.0985 116.964 70.2105 117.254 70.3598C117.543 70.4998 117.786 70.6818 117.982 70.9058C118.178 71.1205 118.322 71.3772 118.416 71.6758C118.518 71.9652 118.57 72.2965 118.57 72.6698C118.57 73.0432 118.523 73.3885 118.43 73.7058C118.336 74.0232 118.196 74.3078 118.01 74.5598C117.832 74.8118 117.604 75.0265 117.324 75.2038C117.044 75.3718 116.717 75.5025 116.344 75.5958C115.98 75.6892 115.564 75.7358 115.098 75.7358C114.827 75.7358 114.594 75.7312 114.398 75.7218C114.211 75.7032 114.066 75.6892 113.964 75.6798V78.4238C113.964 78.6478 113.996 78.8112 114.062 78.9138C114.136 79.0165 114.276 79.0772 114.482 79.0958L115.574 79.2218V79.7258H111.682ZM114.958 75.0778C115.779 75.0778 116.4 74.8912 116.82 74.5178C117.249 74.1445 117.464 73.5472 117.464 72.7258C117.464 72.1938 117.361 71.7692 117.156 71.4518C116.96 71.1345 116.67 70.9058 116.288 70.7658C115.905 70.6258 115.429 70.5558 114.86 70.5558H113.964V75.0218C114.076 75.0405 114.211 75.0545 114.37 75.0638C114.538 75.0732 114.734 75.0778 114.958 75.0778ZM120.165 79.7258V79.2218L120.977 79.0958C121.154 79.0678 121.271 79.0072 121.327 78.9138C121.383 78.8205 121.411 78.6432 121.411 78.3818V71.2278C121.411 70.9945 121.383 70.8358 121.327 70.7518C121.271 70.6585 121.145 70.5932 120.949 70.5558L120.165 70.4298V69.9118H126.409L126.913 72.1378L126.353 72.3058C126.213 71.9138 126.082 71.6012 125.961 71.3678C125.839 71.1345 125.699 70.9618 125.541 70.8498C125.382 70.7285 125.191 70.6492 124.967 70.6118C124.743 70.5745 124.463 70.5558 124.127 70.5558H122.447V74.3778H124.057C124.374 74.3778 124.607 74.3592 124.757 74.3218C124.906 74.2752 125.018 74.1725 125.093 74.0138C125.167 73.8552 125.242 73.5985 125.317 73.2438L125.821 73.1738V76.1698L125.317 76.2538C125.261 75.8992 125.191 75.6378 125.107 75.4698C125.032 75.3018 124.906 75.1945 124.729 75.1478C124.561 75.1012 124.304 75.0778 123.959 75.0778H122.447V79.0818H124.645C124.971 79.0818 125.242 79.0585 125.457 79.0118C125.671 78.9558 125.849 78.8625 125.989 78.7318C126.138 78.5918 126.259 78.4052 126.353 78.1718C126.455 77.9292 126.544 77.6212 126.619 77.2478H127.207L126.885 79.7258H120.165Z" fill="#47567B"/>
<path d="M230.642 15.7751C231.224 14.096 230.737 12.228 229.978 10.6189C229.036 8.62592 227.604 6.77005 225.608 5.8345C223.612 4.89895 220.997 5.09398 219.48 6.69387C218.102 8.14748 217.901 10.3812 218.282 12.3468C219.114 16.6254 222.204 20.0567 225.169 23.2504C228.808 27.1694 232.446 31.0883 236.082 35.0043" fill="white"/>
<path d="M231.956 17.3111C233.373 12.2889 231.026 5.20677 226.01 2.89683C224.026 1.98261 221.531 1.95519 219.69 3.22291C217.508 4.72223 216.722 7.50451 216.609 10.0217C216.359 15.6258 219.437 20.3828 223.03 24.3902C227.049 28.8729 231.218 33.2277 235.314 37.6372C236.243 38.6398 237.121 37.4696 237.398 36.5432C237.758 35.3426 237.779 33.3709 236.853 32.3744C233.888 29.1807 230.926 25.9901 227.961 22.7964C225.395 20.0324 222.469 17.2958 220.702 13.9193C220.177 12.9167 219.346 11.3686 219.696 10.1954C220.12 8.78747 221.902 8.29379 223.191 8.31817C224.776 8.35169 226.199 9.13182 227.26 10.2837C227.979 11.0639 229.637 13.13 229.326 14.2332C228.984 15.44 228.905 17.433 229.871 18.402C230.837 19.3711 231.681 18.2862 231.956 17.308V17.3111Z" fill="white"/>
<path d="M236.359 34.9464C239.727 31.7467 242.829 28.2665 245.623 24.5548C246.449 23.4608 247.251 22.3332 247.802 21.0777C248.643 19.1548 248.851 17.0216 249.049 14.9311C249.235 12.9564 249.414 10.9268 248.863 9.02216C247.909 5.73401 244.7 3.30218 241.284 3.03705C237.868 2.77193 234.433 4.55161 232.465 7.35218C230.496 10.1527 229.969 13.8553 230.816 17.174" fill="white"/>
<path d="M237.13 37.5763C240.781 34.084 244.258 30.29 247.153 26.1424C250.048 21.9949 250.856 16.6894 250.755 11.6764C250.667 7.15405 248.768 2.6317 244.38 0.763645C240.382 -0.936807 235.942 0.330913 232.91 3.29604C228.896 7.21805 228.284 13.5048 229.506 18.7068C229.743 19.7155 230.661 20.715 231.59 19.8008C232.577 18.8287 232.416 16.8265 232.136 15.6319C230.213 7.43441 243.256 2.11365 247.229 9.79615C248.098 11.4753 247.647 13.6359 247.449 15.4278C247.202 17.6706 246.653 19.4564 245.316 21.3001C242.439 25.2678 239.129 28.9308 235.591 32.3134C234.208 33.6391 235.116 39.5023 237.13 37.5763Z" fill="white"/>
<path d="M223.914 31.6919C223.831 31.5822 223.783 31.4968 223.716 31.4328C222.74 30.4455 221.759 29.4642 220.79 28.4708C217.983 25.6001 215.631 22.379 213.47 19.0086C213.077 18.396 212.748 17.7378 212.449 17.0735C211.032 13.9286 211.422 10.8446 212.867 7.83374C213.556 6.39537 214.622 5.27697 215.981 4.42674C217.91 3.21692 220.004 2.55259 222.274 2.57392C225.733 2.60439 228.083 4.51207 229.682 7.36749C230.834 9.42449 231.395 11.7131 231.508 14.084C231.675 17.6525 231.06 21.1235 230.06 24.5305C229.603 26.0877 228.796 27.4804 227.903 28.8243C227.312 29.7141 226.699 30.5918 226.059 31.5273C227.775 33.4624 229.85 35.0075 231.7 36.845C233.699 34.7088 236.051 33.0297 237.98 30.8691C237.831 30.6466 237.715 30.4638 237.587 30.2901C234.458 25.9841 233.623 23.9484 232.827 18.6856C232.446 16.1653 232.315 13.6451 232.821 11.1249C233.111 9.68656 233.519 8.27257 234.202 6.97742C235.6 4.32313 237.657 2.46421 240.723 1.97663C242.143 1.75112 243.551 1.9553 244.913 2.36365C247.488 3.13464 249.719 4.43589 251.017 6.90428C252.894 10.4758 253.019 14.0779 250.987 17.6464C250.505 18.4905 249.981 19.3194 249.417 20.1117C247.793 22.3942 246.199 24.7011 244.255 26.7307C242.96 28.0868 241.64 29.4185 240.33 30.7624C240.266 30.8295 240.211 30.9087 240.111 31.0336C240.3 31.2348 240.473 31.4328 240.656 31.6157C242.862 33.7976 245.453 35.431 248.195 36.8389C251.947 38.7619 255.914 40.0783 260.038 40.9255C261.586 41.2424 263.149 41.4923 264.715 41.7239C267.534 42.1414 270.356 42.5376 273.181 42.9094C276.972 43.4091 280.763 43.912 284.56 44.3477C286.032 44.5154 287.525 44.5397 289.009 44.5763C291.883 44.6433 294.757 44.6891 297.63 44.7134C299.139 44.7256 300.495 44.9024 302.006 44.8963C303.052 44.8932 304.173 45.1187 305.218 45.1248C305.755 45.1248 307.077 45.2467 307.614 45.2498C308.123 45.2528 309.174 45.3046 309.68 45.3686L309.652 46.5602C308.964 46.6211 308.36 46.615 307.659 46.6242C303.859 46.6668 299.355 46.1488 295.555 46.1305C292.56 46.1152 289.564 45.9964 286.568 45.9385C284.149 45.8928 281.769 45.4966 279.379 45.1705C276.75 44.811 274.114 44.4971 271.484 44.1436C268.323 43.72 265.145 43.3756 262.006 42.8179C255.799 41.7148 249.865 39.798 244.478 36.4154C242.634 35.2573 240.9 33.9652 239.379 32.4019C239.294 32.3135 239.206 32.2313 239.114 32.152C239.081 32.1246 239.029 32.1155 238.94 32.0819C238.831 32.1734 238.7 32.277 238.578 32.3897C236.792 34.0475 235.012 35.7084 233.223 37.3631C232.904 37.6587 232.556 37.9269 232.209 38.195C231.819 38.4998 231.48 38.5059 231.069 38.2194C230.911 38.1097 230.77 37.9695 230.63 37.8354C228.844 36.1777 227.062 34.5199 225.276 32.8651C225.224 32.8164 225.157 32.7889 225.056 32.728C224.953 32.8133 224.834 32.8895 224.736 32.987C222.359 35.4249 219.541 37.2351 216.536 38.7801C212.721 40.7396 208.683 42.0652 204.499 42.9825C202.688 43.3787 200.869 43.6773 199.026 43.8937C196.682 44.171 194.351 44.5641 192.007 44.881C189.039 45.2833 186.059 45.6094 183.1 46.0573C179.836 46.551 176.554 46.6882 173.266 46.7064C168.42 46.7339 163.572 46.7278 158.724 46.7156C157.654 46.7156 156.584 46.6455 155.515 46.5998C155.189 46.5876 154.866 46.5541 154.841 46.1122C154.823 45.7465 154.991 45.5027 155.442 45.4204C155.868 45.3412 156.31 45.3138 156.746 45.3168C163.444 45.3686 170.142 45.3656 176.837 45.1645C178.861 45.1035 180.869 44.8963 182.874 44.6098C185.864 44.1832 188.862 43.8297 191.855 43.4274C195.064 42.9977 198.288 42.6412 201.476 42.0896C207.717 41.0108 213.674 39.1032 219.062 35.6596C220.626 34.66 222.107 33.5538 223.42 32.2343C223.588 32.0637 223.746 31.8839 223.917 31.6949L223.914 31.6919ZM239.087 29.9152C239.553 29.4825 239.925 29.1717 240.26 28.8212C242.421 26.5753 244.624 24.369 246.391 21.7817C247.449 20.2367 248.589 18.7435 249.573 17.1497C250.993 14.8489 251.365 12.3805 250.606 9.72009C249.881 7.18465 248.406 5.36839 246.001 4.3018C244.417 3.59785 242.759 3.19254 241.028 3.40586C238.526 3.7167 236.816 5.2465 235.646 7.3553C234.659 9.13803 234.086 11.1067 234.01 13.1454C233.815 18.3839 234.683 24.2928 238.523 29.0955C238.645 29.2479 238.758 29.4063 238.87 29.5648C238.928 29.644 238.974 29.7293 239.087 29.9091V29.9152ZM224.965 30.5674C225.773 29.3515 226.528 28.2514 227.241 27.1269C228.122 25.7372 228.759 24.2349 229.079 22.6198C229.411 20.9498 229.746 19.2767 229.954 17.5885C230.328 14.5137 229.963 11.5241 228.716 8.65654C228.009 7.03227 226.851 5.81941 225.395 4.87471C224.541 4.32313 223.575 4.02753 222.558 4.03972C221.759 4.04887 220.945 4.10372 220.168 4.26523C218.27 4.65835 216.536 5.45981 215.238 6.92866C213.559 8.8272 212.949 11.1554 213.053 13.633C213.126 15.3669 213.854 16.9242 214.784 18.3839C217.395 22.4887 220.455 26.2279 223.923 29.6349C224.215 29.9213 224.532 30.1834 224.959 30.5674H224.965Z" fill="#47567B"/>
<path d="M194.588 79.7258V79.2218L195.428 79.0958C195.605 79.0678 195.722 79.0072 195.778 78.9138C195.834 78.8205 195.862 78.6432 195.862 78.3818V75.4978L193.286 71.2558C193.164 71.0598 193.043 70.9012 192.922 70.7798C192.81 70.6585 192.651 70.5792 192.446 70.5418L191.9 70.4438V69.9118H195.442V70.4298L194.714 70.4998C194.49 70.5278 194.354 70.6072 194.308 70.7378C194.27 70.8592 194.308 71.0178 194.42 71.2138L196.534 74.7558H196.576L198.634 71.2698C198.764 71.0645 198.806 70.8965 198.76 70.7658C198.713 70.6352 198.578 70.5558 198.354 70.5278L197.738 70.4158V69.9118H200.986V70.4298L200.188 70.5418C200.029 70.5698 199.898 70.6352 199.796 70.7378C199.702 70.8312 199.572 71.0225 199.404 71.3118L196.898 75.5118V78.4378C196.898 78.6712 196.926 78.8345 196.982 78.9278C197.047 79.0118 197.168 79.0678 197.346 79.0958L198.158 79.2218V79.7258H194.588ZM205.984 79.9218C205.069 79.9218 204.28 79.7165 203.618 79.3058C202.964 78.8952 202.46 78.3212 202.106 77.5838C201.76 76.8465 201.588 75.9785 201.588 74.9798C201.588 73.8785 201.765 72.9405 202.12 72.1658C202.484 71.3818 203.002 70.7798 203.674 70.3598C204.346 69.9305 205.153 69.7158 206.096 69.7158C206.992 69.7158 207.762 69.9165 208.406 70.3178C209.05 70.7192 209.544 71.2885 209.89 72.0258C210.244 72.7538 210.422 73.6172 210.422 74.6158C210.422 75.4185 210.319 76.1465 210.114 76.7998C209.908 77.4532 209.61 78.0132 209.218 78.4798C208.835 78.9465 208.368 79.3058 207.818 79.5578C207.276 79.8005 206.665 79.9218 205.984 79.9218ZM206.11 79.1518C206.623 79.1518 207.08 79.0585 207.482 78.8718C207.883 78.6758 208.219 78.3912 208.49 78.0178C208.76 77.6352 208.961 77.1732 209.092 76.6318C209.232 76.0905 209.302 75.4745 209.302 74.7838C209.302 74.1025 209.227 73.5005 209.078 72.9778C208.938 72.4458 208.723 71.9932 208.434 71.6198C208.154 71.2372 207.804 70.9525 207.384 70.7658C206.973 70.5698 206.492 70.4718 205.942 70.4718C205.419 70.4718 204.957 70.5698 204.556 70.7658C204.154 70.9525 203.814 71.2325 203.534 71.6058C203.254 71.9698 203.044 72.4178 202.904 72.9498C202.764 73.4818 202.694 74.0885 202.694 74.7698C202.694 75.4418 202.768 76.0485 202.918 76.5898C203.067 77.1312 203.286 77.5932 203.576 77.9758C203.874 78.3585 204.234 78.6525 204.654 78.8578C205.083 79.0538 205.568 79.1518 206.11 79.1518ZM217.101 79.9218C216.476 79.9218 215.93 79.8425 215.463 79.6838C215.006 79.5158 214.628 79.2732 214.329 78.9558C214.04 78.6292 213.825 78.2185 213.685 77.7238C213.545 77.2292 213.475 76.6552 213.475 76.0018V71.2138C213.475 70.9805 213.442 70.8218 213.377 70.7378C213.321 70.6445 213.2 70.5838 213.013 70.5558L212.201 70.4298V69.9118H215.757V70.4298L214.931 70.5558C214.763 70.5838 214.651 70.6492 214.595 70.7518C214.539 70.8452 214.511 71.0178 214.511 71.2698V75.9318C214.511 76.6692 214.6 77.2758 214.777 77.7518C214.964 78.2278 215.258 78.5778 215.659 78.8018C216.07 79.0258 216.606 79.1378 217.269 79.1378C217.894 79.1378 218.412 79.0165 218.823 78.7738C219.234 78.5218 219.542 78.1485 219.747 77.6538C219.962 77.1592 220.069 76.5385 220.069 75.7918V71.2138C220.069 70.9805 220.036 70.8218 219.971 70.7378C219.915 70.6445 219.794 70.5838 219.607 70.5558L218.823 70.4298V69.9118H222.113V70.4298L221.301 70.5558C221.133 70.5838 221.021 70.6445 220.965 70.7378C220.909 70.8312 220.881 71.0085 220.881 71.2698V75.5538C220.881 76.4872 220.75 77.2805 220.489 77.9338C220.228 78.5872 219.817 79.0818 219.257 79.4178C218.697 79.7538 217.978 79.9218 217.101 79.9218ZM231.363 79.9218C231.064 79.9218 230.807 79.8705 230.593 79.7678C230.378 79.6745 230.187 79.5158 230.019 79.2918C229.851 79.0678 229.687 78.7645 229.529 78.3818L228.801 76.5198C228.651 76.1558 228.502 75.8805 228.353 75.6938C228.203 75.4978 228.026 75.3672 227.821 75.3018C227.625 75.2365 227.373 75.2038 227.065 75.2038C226.897 75.2038 226.747 75.2085 226.617 75.2178C226.486 75.2178 226.365 75.2272 226.253 75.2458V78.4238C226.253 78.6478 226.285 78.8112 226.351 78.9138C226.425 79.0165 226.561 79.0772 226.757 79.0958L227.807 79.2218V79.7258H223.957V79.2218L224.797 79.0958C224.965 79.0678 225.077 79.0118 225.133 78.9278C225.198 78.8345 225.231 78.6525 225.231 78.3818V71.2138C225.231 70.9805 225.198 70.8218 225.133 70.7378C225.067 70.6445 224.941 70.5838 224.755 70.5558L223.957 70.4298V69.9118H227.163C227.788 69.9118 228.334 69.9678 228.801 70.0798C229.267 70.1825 229.65 70.3412 229.949 70.5558C230.257 70.7612 230.485 71.0225 230.635 71.3398C230.784 71.6572 230.859 72.0258 230.859 72.4458C230.859 72.6605 230.826 72.8752 230.761 73.0898C230.705 73.3045 230.616 73.5098 230.495 73.7058C230.373 73.9018 230.219 74.0838 230.033 74.2518C229.846 74.4198 229.627 74.5645 229.375 74.6858C229.132 74.8072 228.857 74.8958 228.549 74.9518V74.9938C228.885 75.0872 229.155 75.2412 229.361 75.4558C229.566 75.6612 229.739 75.9412 229.879 76.2958L230.355 77.4718C230.504 77.8265 230.635 78.1298 230.747 78.3818C230.868 78.6338 231.003 78.8298 231.153 78.9698C231.311 79.1005 231.512 79.1658 231.755 79.1658C231.885 79.1658 232.007 79.1518 232.119 79.1238C232.24 79.0958 232.361 79.0585 232.483 79.0118L232.595 79.4178C232.436 79.5765 232.249 79.6978 232.035 79.7818C231.829 79.8752 231.605 79.9218 231.363 79.9218ZM227.205 74.6018C227.699 74.6018 228.138 74.5272 228.521 74.3778C228.903 74.2192 229.207 73.9812 229.431 73.6638C229.655 73.3465 229.767 72.9545 229.767 72.4878C229.767 72.0212 229.664 71.6478 229.459 71.3678C229.253 71.0878 228.955 70.8872 228.563 70.7658C228.171 70.6352 227.69 70.5698 227.121 70.5698H226.253V74.5738C226.495 74.5832 226.691 74.5925 226.841 74.6018C226.99 74.6018 227.111 74.6018 227.205 74.6018ZM236.89 79.7258V79.2218L237.73 79.0958C237.907 79.0678 238.024 79.0072 238.08 78.9138C238.136 78.8205 238.164 78.6432 238.164 78.3818V71.2138C238.164 70.9805 238.131 70.8218 238.066 70.7378C238.01 70.6445 237.888 70.5838 237.702 70.5558L236.89 70.4298V69.9118H240.474V70.4298L239.62 70.5558C239.452 70.5838 239.34 70.6492 239.284 70.7518C239.228 70.8452 239.2 71.0178 239.2 71.2698V78.4378C239.2 78.6712 239.228 78.8345 239.284 78.9278C239.349 79.0118 239.47 79.0678 239.648 79.0958L240.474 79.2218V79.7258H236.89ZM242.543 79.7258V79.2218L243.327 79.0958C243.495 79.0772 243.611 79.0165 243.677 78.9138C243.751 78.8112 243.789 78.6338 243.789 78.3818V71.2138C243.789 70.9898 243.761 70.8358 243.705 70.7518C243.649 70.6585 243.523 70.5932 243.327 70.5558L242.543 70.4298V69.9118H245.091L250.159 78.1158V78.0598V71.2138C250.159 70.9805 250.131 70.8218 250.075 70.7378C250.019 70.6538 249.893 70.5932 249.697 70.5558L248.927 70.4298V69.9118H252.203V70.4298L251.433 70.5558C251.255 70.5838 251.134 70.6445 251.069 70.7378C251.003 70.8218 250.971 70.9898 250.971 71.2418V79.7258H249.963L244.615 71.1018L244.601 71.1578V78.4378C244.601 78.6805 244.633 78.8438 244.699 78.9278C244.764 79.0118 244.881 79.0678 245.049 79.0958L245.861 79.2218V79.7258H242.543ZM254.239 79.7258V79.2218L255.051 79.0958C255.228 79.0678 255.345 79.0072 255.401 78.9138C255.457 78.8112 255.485 78.6338 255.485 78.3818V71.2138C255.485 70.9898 255.457 70.8358 255.401 70.7518C255.345 70.6585 255.214 70.5932 255.009 70.5558L254.239 70.4298V69.9118H260.553L261.057 72.2358L260.483 72.4318C260.343 72.0025 260.207 71.6665 260.077 71.4238C259.946 71.1718 259.801 70.9852 259.643 70.8638C259.484 70.7332 259.293 70.6492 259.069 70.6118C258.854 70.5745 258.579 70.5558 258.243 70.5558H256.521V74.6018H258.047C258.373 74.6018 258.616 74.5832 258.775 74.5458C258.933 74.4992 259.045 74.3965 259.111 74.2378C259.185 74.0698 259.255 73.8085 259.321 73.4538L259.825 73.3838V76.5758L259.321 76.6598C259.265 76.2305 259.195 75.9225 259.111 75.7358C259.036 75.5398 258.915 75.4185 258.747 75.3718C258.588 75.3158 258.336 75.2878 257.991 75.2878H256.521V78.4098C256.521 78.6525 256.558 78.8252 256.633 78.9278C256.707 79.0212 256.843 79.0772 257.039 79.0958L258.131 79.2218V79.7258H254.239ZM267.061 79.9218C266.146 79.9218 265.358 79.7165 264.695 79.3058C264.042 78.8952 263.538 78.3212 263.183 77.5838C262.838 76.8465 262.665 75.9785 262.665 74.9798C262.665 73.8785 262.842 72.9405 263.197 72.1658C263.561 71.3818 264.079 70.7798 264.751 70.3598C265.423 69.9305 266.23 69.7158 267.173 69.7158C268.069 69.7158 268.839 69.9165 269.483 70.3178C270.127 70.7192 270.622 71.2885 270.967 72.0258C271.322 72.7538 271.499 73.6172 271.499 74.6158C271.499 75.4185 271.396 76.1465 271.191 76.7998C270.986 77.4532 270.687 78.0132 270.295 78.4798C269.912 78.9465 269.446 79.3058 268.895 79.5578C268.354 79.8005 267.742 79.9218 267.061 79.9218ZM267.187 79.1518C267.7 79.1518 268.158 79.0585 268.559 78.8718C268.96 78.6758 269.296 78.3912 269.567 78.0178C269.838 77.6352 270.038 77.1732 270.169 76.6318C270.309 76.0905 270.379 75.4745 270.379 74.7838C270.379 74.1025 270.304 73.5005 270.155 72.9778C270.015 72.4458 269.8 71.9932 269.511 71.6198C269.231 71.2372 268.881 70.9525 268.461 70.7658C268.05 70.5698 267.57 70.4718 267.019 70.4718C266.496 70.4718 266.034 70.5698 265.633 70.7658C265.232 70.9525 264.891 71.2325 264.611 71.6058C264.331 71.9698 264.121 72.4178 263.981 72.9498C263.841 73.4818 263.771 74.0885 263.771 74.7698C263.771 75.4418 263.846 76.0485 263.995 76.5898C264.144 77.1312 264.364 77.5932 264.653 77.9758C264.952 78.3585 265.311 78.6525 265.731 78.8578C266.16 79.0538 266.646 79.1518 267.187 79.1518Z" fill="#47567B"/>
<path d="M385.483 15.7751C386.065 14.096 385.577 12.228 384.818 10.6189C383.877 8.62592 382.444 6.77005 380.448 5.8345C378.452 4.89895 375.837 5.09398 374.32 6.69387C372.942 8.14748 372.741 10.3812 373.122 12.3468C373.954 16.6254 377.044 20.0567 380.009 23.2504C383.648 27.1694 387.287 31.0883 390.922 35.0043" fill="white"/>
<path d="M386.796 17.3111C388.213 12.2889 385.867 5.20677 380.851 2.89683C378.867 1.98261 376.371 1.95519 374.53 3.22291C372.348 4.72223 371.562 7.50451 371.449 10.0217C371.199 15.6258 374.277 20.3828 377.87 24.3902C381.89 28.8729 386.059 33.2277 390.154 37.6372C391.084 38.6398 391.961 37.4696 392.239 36.5432C392.598 35.3426 392.62 33.3709 391.693 32.3744C388.728 29.1807 385.766 25.9901 382.801 22.7964C380.235 20.0324 377.309 17.2958 375.542 13.9193C375.018 12.9167 374.186 11.3686 374.536 10.1954C374.96 8.78747 376.743 8.29379 378.032 8.31817C379.616 8.35169 381.039 9.13182 382.1 10.2837C382.819 11.0639 384.477 13.13 384.166 14.2332C383.825 15.44 383.746 17.433 384.712 18.402C385.678 19.3711 386.522 18.2862 386.796 17.308V17.3111Z" fill="white"/>
<path d="M391.2 34.9464C394.567 31.7467 397.669 28.2665 400.464 24.5548C401.29 23.4608 402.091 22.3332 402.643 21.0777C403.484 19.1548 403.691 17.0216 403.889 14.9311C404.075 12.9564 404.255 10.9268 403.703 9.02216C402.749 5.73401 399.54 3.30218 396.124 3.03705C392.708 2.77193 389.274 4.55161 387.305 7.35218C385.336 10.1527 384.809 13.8553 385.656 17.174" fill="white"/>
<path d="M391.971 37.5763C395.621 34.084 399.098 30.29 401.994 26.1424C404.889 21.9949 405.696 16.6894 405.596 11.6764C405.507 7.15405 403.609 2.6317 399.22 0.763645C395.222 -0.936807 390.782 0.330913 387.75 3.29604C383.737 7.21805 383.124 13.5048 384.346 18.7068C384.584 19.7155 385.501 20.715 386.43 19.8008C387.418 18.8287 387.256 16.8265 386.976 15.6319C385.053 7.43441 398.096 2.11365 402.07 9.79615C402.938 11.4753 402.487 13.6359 402.289 15.4278C402.042 17.6706 401.494 19.4564 400.156 21.3001C397.279 25.2678 393.97 28.9308 390.432 32.3134C389.048 33.6391 389.956 39.5023 391.971 37.5763Z" fill="white"/>
<path d="M378.754 31.6919C378.672 31.5822 378.623 31.4968 378.556 31.4328C377.581 30.4455 376.599 29.4642 375.63 28.4708C372.824 25.6001 370.471 22.379 368.311 19.0086C367.917 18.396 367.588 17.7378 367.29 17.0735C365.873 13.9286 366.263 10.8446 367.707 7.83374C368.396 6.39537 369.462 5.27697 370.822 4.42674C372.751 3.21692 374.844 2.55259 377.114 2.57392C380.573 2.60439 382.923 4.51207 384.523 7.36749C385.675 9.42449 386.235 11.7131 386.348 14.084C386.516 17.6525 385.9 21.1235 384.901 24.5305C384.443 26.0877 383.636 27.4804 382.743 28.8243C382.152 29.7141 381.539 30.5918 380.899 31.5273C382.615 33.4624 384.69 35.0075 386.54 36.845C388.539 34.7088 390.892 33.0297 392.821 30.8691C392.671 30.6466 392.556 30.4638 392.428 30.2901C389.298 25.9841 388.463 23.9484 387.668 18.6856C387.287 16.1653 387.156 13.6451 387.662 11.1249C387.951 9.68656 388.359 8.27257 389.042 6.97742C390.441 4.32313 392.498 2.46421 395.563 1.97663C396.984 1.75112 398.391 1.9553 399.754 2.36365C402.329 3.13464 404.559 4.43589 405.858 6.90428C407.735 10.4758 407.86 14.0779 405.827 17.6464C405.346 18.4905 404.821 19.3194 404.258 20.1117C402.633 22.3942 401.04 24.7011 399.095 26.7307C397.8 28.0868 396.481 29.4185 395.17 30.7624C395.106 30.8295 395.052 30.9087 394.951 31.0336C395.14 31.2348 395.314 31.4328 395.496 31.6157C397.703 33.7976 400.293 35.431 403.036 36.8389C406.787 38.7619 410.755 40.0783 414.878 40.9255C416.426 41.2424 417.989 41.4923 419.556 41.7239C422.375 42.1414 425.196 42.5376 428.021 42.9094C431.812 43.4091 435.603 43.912 439.4 44.3477C440.872 44.5154 442.366 44.5397 443.85 44.5763C446.723 44.6433 449.597 44.6891 452.471 44.7134C453.979 44.7256 455.335 44.9024 456.847 44.8963C457.892 44.8932 459.014 45.1187 460.059 45.1248C460.595 45.1248 461.918 45.2467 462.454 45.2498C462.963 45.2528 464.014 45.3046 464.52 45.3686L464.493 46.5602C463.804 46.6211 463.201 46.615 462.5 46.6242C458.7 46.6668 454.196 46.1488 450.395 46.1305C447.4 46.1152 444.404 45.9964 441.409 45.9385C438.989 45.8928 436.609 45.4966 434.22 45.1705C431.59 44.811 428.954 44.4971 426.324 44.1436C423.164 43.72 419.985 43.3756 416.847 42.8179C410.639 41.7148 404.706 39.798 399.318 36.4154C397.474 35.2573 395.74 33.9652 394.22 32.4019C394.134 32.3135 394.046 32.2313 393.954 32.152C393.921 32.1246 393.869 32.1155 393.781 32.0819C393.671 32.1734 393.54 32.277 393.418 32.3897C391.632 34.0475 389.853 35.7084 388.064 37.3631C387.744 37.6587 387.396 37.9269 387.049 38.195C386.659 38.4998 386.321 38.5059 385.909 38.2194C385.751 38.1097 385.611 37.9695 385.47 37.8354C383.685 36.1777 381.902 34.5199 380.116 32.8651C380.064 32.8164 379.997 32.7889 379.897 32.728C379.793 32.8133 379.674 32.8895 379.577 32.987C377.2 35.4249 374.381 37.2351 371.376 38.7801C367.561 40.7396 363.523 42.0652 359.339 42.9825C357.529 43.3787 355.71 43.6773 353.866 43.8937C351.522 44.171 349.191 44.5641 346.848 44.881C343.879 45.2833 340.899 45.6094 337.94 46.0573C334.676 46.551 331.394 46.6882 328.106 46.7064C323.261 46.7339 318.412 46.7278 313.564 46.7156C312.494 46.7156 311.425 46.6455 310.355 46.5998C310.029 46.5876 309.706 46.5541 309.682 46.1122C309.663 45.7465 309.831 45.5027 310.282 45.4204C310.708 45.3412 311.15 45.3138 311.586 45.3168C318.284 45.3686 324.983 45.3656 331.678 45.1645C333.701 45.1035 335.709 44.8963 337.715 44.6098C340.704 44.1832 343.703 43.8297 346.695 43.4274C349.904 42.9977 353.128 42.6412 356.316 42.0896C362.557 41.0108 368.515 39.1032 373.903 35.6596C375.466 34.66 376.947 33.5538 378.26 32.2343C378.428 32.0637 378.586 31.8839 378.757 31.6949L378.754 31.6919ZM393.927 29.9152C394.393 29.4825 394.765 29.1717 395.1 28.8212C397.261 26.5753 399.464 24.369 401.232 21.7817C402.289 20.2367 403.429 18.7435 404.413 17.1497C405.833 14.8489 406.205 12.3805 405.446 9.72009C404.721 7.18465 403.246 5.36839 400.842 4.3018C399.257 3.59785 397.599 3.19254 395.868 3.40586C393.366 3.7167 391.657 5.2465 390.487 7.3553C389.499 9.13803 388.926 11.1067 388.85 13.1454C388.655 18.3839 389.524 24.2928 393.363 29.0955C393.485 29.2479 393.598 29.4063 393.711 29.5648C393.769 29.644 393.814 29.7293 393.927 29.9091V29.9152ZM379.805 30.5674C380.613 29.3515 381.369 28.2514 382.082 27.1269C382.962 25.7372 383.599 24.2349 383.919 22.6198C384.252 20.9498 384.587 19.2767 384.794 17.5885C385.169 14.5137 384.803 11.5241 383.557 8.65654C382.85 7.03227 381.692 5.81941 380.235 4.87471C379.382 4.32313 378.416 4.02753 377.398 4.03972C376.599 4.04887 375.786 4.10372 375.009 4.26523C373.11 4.65835 371.376 5.45981 370.078 6.92866C368.399 8.8272 367.789 11.1554 367.893 13.633C367.966 15.3669 368.695 16.9242 369.624 18.3839C372.236 22.4887 375.295 26.2279 378.763 29.6349C379.056 29.9213 379.373 30.1834 379.799 30.5674H379.805Z" fill="#47567B"/>
<path d="M336.37 79.9218C335.857 79.9218 335.371 79.8285 334.914 79.6418C334.466 79.4458 334.097 79.1985 333.808 78.8998L333.626 79.8098H333.15L332.856 76.7158L333.416 76.6598C333.556 77.1078 333.724 77.4952 333.92 77.8218C334.125 78.1392 334.354 78.4005 334.606 78.6058C334.858 78.8112 335.129 78.9652 335.418 79.0678C335.707 79.1612 336.011 79.2078 336.328 79.2078C336.701 79.2078 337.037 79.1425 337.336 79.0118C337.635 78.8812 337.873 78.6758 338.05 78.3958C338.227 78.1158 338.316 77.7565 338.316 77.3178C338.316 76.9912 338.251 76.7018 338.12 76.4498C337.999 76.1885 337.775 75.9505 337.448 75.7358C337.121 75.5118 336.659 75.3065 336.062 75.1198C335.521 74.9425 335.068 74.7605 334.704 74.5738C334.34 74.3778 334.046 74.1725 333.822 73.9578C333.607 73.7338 333.453 73.4818 333.36 73.2018C333.267 72.9218 333.22 72.6092 333.22 72.2638C333.22 71.9372 333.267 71.6432 333.36 71.3818C333.453 71.1112 333.584 70.8732 333.752 70.6678C333.929 70.4625 334.135 70.2898 334.368 70.1498C334.611 70.0098 334.872 69.9025 335.152 69.8278C335.441 69.7532 335.745 69.7158 336.062 69.7158C336.445 69.7158 336.813 69.7858 337.168 69.9258C337.523 70.0658 337.845 70.2572 338.134 70.4998L338.33 69.7158H338.806L339.114 72.4878L338.54 72.5718C338.372 72.0492 338.167 71.6292 337.924 71.3118C337.691 70.9945 337.42 70.7612 337.112 70.6118C336.804 70.4625 336.454 70.3878 336.062 70.3878C335.521 70.3878 335.082 70.5325 334.746 70.8218C334.419 71.1112 334.256 71.5078 334.256 72.0118C334.256 72.3292 334.317 72.6138 334.438 72.8658C334.569 73.1085 334.797 73.3325 335.124 73.5378C335.451 73.7338 335.908 73.9345 336.496 74.1398C337.056 74.3172 337.518 74.5132 337.882 74.7278C338.255 74.9332 338.545 75.1572 338.75 75.3998C338.965 75.6425 339.114 75.9038 339.198 76.1838C339.291 76.4545 339.338 76.7532 339.338 77.0798C339.338 77.4998 339.268 77.8825 339.128 78.2278C338.988 78.5732 338.787 78.8718 338.526 79.1238C338.265 79.3758 337.952 79.5718 337.588 79.7118C337.224 79.8518 336.818 79.9218 336.37 79.9218ZM345.978 79.9218C345.352 79.9218 344.806 79.8425 344.34 79.6838C343.882 79.5158 343.504 79.2732 343.206 78.9558C342.916 78.6292 342.702 78.2185 342.562 77.7238C342.422 77.2292 342.352 76.6552 342.352 76.0018V71.2138C342.352 70.9805 342.319 70.8218 342.254 70.7378C342.198 70.6445 342.076 70.5838 341.89 70.5558L341.078 70.4298V69.9118H344.634V70.4298L343.808 70.5558C343.64 70.5838 343.528 70.6492 343.472 70.7518C343.416 70.8452 343.388 71.0178 343.388 71.2698V75.9318C343.388 76.6692 343.476 77.2758 343.654 77.7518C343.84 78.2278 344.134 78.5778 344.536 78.8018C344.946 79.0258 345.483 79.1378 346.146 79.1378C346.771 79.1378 347.289 79.0165 347.7 78.7738C348.11 78.5218 348.418 78.1485 348.624 77.6538C348.838 77.1592 348.946 76.5385 348.946 75.7918V71.2138C348.946 70.9805 348.913 70.8218 348.848 70.7378C348.792 70.6445 348.67 70.5838 348.484 70.5558L347.7 70.4298V69.9118H350.99V70.4298L350.178 70.5558C350.01 70.5838 349.898 70.6445 349.842 70.7378C349.786 70.8312 349.758 71.0085 349.758 71.2698V75.5538C349.758 76.4872 349.627 77.2805 349.366 77.9338C349.104 78.5872 348.694 79.0818 348.134 79.4178C347.574 79.7538 346.855 79.9218 345.978 79.9218ZM352.833 79.7258V79.2218L353.645 79.0958C353.823 79.0678 353.939 79.0072 353.995 78.9138C354.051 78.8205 354.079 78.6432 354.079 78.3818V71.2278C354.079 70.9852 354.047 70.8218 353.981 70.7378C353.925 70.6445 353.804 70.5838 353.617 70.5558L352.833 70.4298V69.9118H356.263C357.001 69.9118 357.621 69.9912 358.125 70.1498C358.639 70.2992 359.026 70.5418 359.287 70.8778C359.549 71.2045 359.679 71.6478 359.679 72.2078C359.679 72.5718 359.595 72.9078 359.427 73.2158C359.259 73.5238 359.021 73.7852 358.713 73.9998C358.405 74.2145 358.041 74.3732 357.621 74.4758V74.5318C358.517 74.6158 359.175 74.8678 359.595 75.2878C360.025 75.6985 360.239 76.2585 360.239 76.9678C360.239 77.5932 360.076 78.1112 359.749 78.5218C359.432 78.9325 358.979 79.2358 358.391 79.4318C357.803 79.6278 357.108 79.7258 356.305 79.7258H352.833ZM356.207 79.0818C356.823 79.0818 357.351 79.0072 357.789 78.8578C358.228 78.7085 358.559 78.4798 358.783 78.1718C359.017 77.8545 359.133 77.4438 359.133 76.9398C359.133 76.5105 359.035 76.1465 358.839 75.8478C358.643 75.5492 358.34 75.3205 357.929 75.1618C357.528 75.0032 357.005 74.9238 356.361 74.9238C355.764 74.9238 355.349 74.9378 355.115 74.9658V79.0118C355.218 79.0212 355.367 79.0352 355.563 79.0538C355.759 79.0725 355.974 79.0818 356.207 79.0818ZM356.039 74.2938C356.562 74.2938 357.01 74.2145 357.383 74.0558C357.766 73.8972 358.06 73.6685 358.265 73.3698C358.471 73.0618 358.573 72.6932 358.573 72.2638C358.573 71.8438 358.489 71.5078 358.321 71.2558C358.153 71.0038 357.892 70.8265 357.537 70.7238C357.192 70.6118 356.739 70.5558 356.179 70.5558H355.115V74.2658C355.209 74.2752 355.325 74.2845 355.465 74.2938C355.605 74.2938 355.797 74.2938 356.039 74.2938ZM365.456 79.9218C364.943 79.9218 364.458 79.8285 364 79.6418C363.552 79.4458 363.184 79.1985 362.894 78.8998L362.712 79.8098H362.236L361.942 76.7158L362.502 76.6598C362.642 77.1078 362.81 77.4952 363.006 77.8218C363.212 78.1392 363.44 78.4005 363.692 78.6058C363.944 78.8112 364.215 78.9652 364.504 79.0678C364.794 79.1612 365.097 79.2078 365.414 79.2078C365.788 79.2078 366.124 79.1425 366.422 79.0118C366.721 78.8812 366.959 78.6758 367.136 78.3958C367.314 78.1158 367.402 77.7565 367.402 77.3178C367.402 76.9912 367.337 76.7018 367.206 76.4498C367.085 76.1885 366.861 75.9505 366.534 75.7358C366.208 75.5118 365.746 75.3065 365.148 75.1198C364.607 74.9425 364.154 74.7605 363.79 74.5738C363.426 74.3778 363.132 74.1725 362.908 73.9578C362.694 73.7338 362.54 73.4818 362.446 73.2018C362.353 72.9218 362.306 72.6092 362.306 72.2638C362.306 71.9372 362.353 71.6432 362.446 71.3818C362.54 71.1112 362.67 70.8732 362.838 70.6678C363.016 70.4625 363.221 70.2898 363.454 70.1498C363.697 70.0098 363.958 69.9025 364.238 69.8278C364.528 69.7532 364.831 69.7158 365.148 69.7158C365.531 69.7158 365.9 69.7858 366.254 69.9258C366.609 70.0658 366.931 70.2572 367.22 70.4998L367.416 69.7158H367.892L368.2 72.4878L367.626 72.5718C367.458 72.0492 367.253 71.6292 367.01 71.3118C366.777 70.9945 366.506 70.7612 366.198 70.6118C365.89 70.4625 365.54 70.3878 365.148 70.3878C364.607 70.3878 364.168 70.5325 363.832 70.8218C363.506 71.1112 363.342 71.5078 363.342 72.0118C363.342 72.3292 363.403 72.6138 363.524 72.8658C363.655 73.1085 363.884 73.3325 364.21 73.5378C364.537 73.7338 364.994 73.9345 365.582 74.1398C366.142 74.3172 366.604 74.5132 366.968 74.7278C367.342 74.9332 367.631 75.1572 367.836 75.3998C368.051 75.6425 368.2 75.9038 368.284 76.1838C368.378 76.4545 368.424 76.7532 368.424 77.0798C368.424 77.4998 368.354 77.8825 368.214 78.2278C368.074 78.5732 367.874 78.8718 367.612 79.1238C367.351 79.3758 367.038 79.5718 366.674 79.7118C366.31 79.8518 365.904 79.9218 365.456 79.9218ZM374.728 79.9218C373.832 79.9218 373.048 79.7212 372.376 79.3198C371.713 78.9185 371.195 78.3398 370.822 77.5838C370.458 76.8185 370.276 75.9038 370.276 74.8398C370.276 74.0465 370.379 73.3372 370.584 72.7118C370.789 72.0772 371.083 71.5358 371.466 71.0878C371.849 70.6398 372.306 70.2992 372.838 70.0658C373.37 69.8325 373.963 69.7158 374.616 69.7158C375.12 69.7158 375.573 69.7952 375.974 69.9538C376.385 70.1032 376.739 70.3225 377.038 70.6118L377.178 69.7018H377.668L378.2 72.8658L377.654 72.9918C377.439 72.3758 377.192 71.8858 376.912 71.5218C376.632 71.1485 376.305 70.8778 375.932 70.7098C375.559 70.5418 375.115 70.4578 374.602 70.4578C373.958 70.4578 373.393 70.6165 372.908 70.9338C372.432 71.2512 372.059 71.7318 371.788 72.3758C371.517 73.0105 371.382 73.8085 371.382 74.7698C371.382 75.4512 371.461 76.0625 371.62 76.6038C371.779 77.1358 372.007 77.5932 372.306 77.9758C372.614 78.3492 372.978 78.6385 373.398 78.8438C373.827 79.0398 374.308 79.1378 374.84 79.1378C375.232 79.1378 375.601 79.0865 375.946 78.9838C376.291 78.8812 376.613 78.7132 376.912 78.4798C377.22 78.2465 377.514 77.9432 377.794 77.5698L378.312 77.9758C378.088 78.3118 377.836 78.6058 377.556 78.8578C377.276 79.1005 376.977 79.3012 376.66 79.4598C376.352 79.6185 376.035 79.7352 375.708 79.8098C375.381 79.8845 375.055 79.9218 374.728 79.9218ZM387.576 79.9218C387.277 79.9218 387.02 79.8705 386.806 79.7678C386.591 79.6745 386.4 79.5158 386.232 79.2918C386.064 79.0678 385.9 78.7645 385.742 78.3818L385.014 76.5198C384.864 76.1558 384.715 75.8805 384.566 75.6938C384.416 75.4978 384.239 75.3672 384.034 75.3018C383.838 75.2365 383.586 75.2038 383.278 75.2038C383.11 75.2038 382.96 75.2085 382.83 75.2178C382.699 75.2178 382.578 75.2272 382.466 75.2458V78.4238C382.466 78.6478 382.498 78.8112 382.564 78.9138C382.638 79.0165 382.774 79.0772 382.97 79.0958L384.02 79.2218V79.7258H380.17V79.2218L381.01 79.0958C381.178 79.0678 381.29 79.0118 381.346 78.9278C381.411 78.8345 381.444 78.6525 381.444 78.3818V71.2138C381.444 70.9805 381.411 70.8218 381.346 70.7378C381.28 70.6445 381.154 70.5838 380.968 70.5558L380.17 70.4298V69.9118H383.376C384.001 69.9118 384.547 69.9678 385.014 70.0798C385.48 70.1825 385.863 70.3412 386.162 70.5558C386.47 70.7612 386.698 71.0225 386.848 71.3398C386.997 71.6572 387.072 72.0258 387.072 72.4458C387.072 72.6605 387.039 72.8752 386.974 73.0898C386.918 73.3045 386.829 73.5098 386.708 73.7058C386.586 73.9018 386.432 74.0838 386.246 74.2518C386.059 74.4198 385.84 74.5645 385.588 74.6858C385.345 74.8072 385.07 74.8958 384.762 74.9518V74.9938C385.098 75.0872 385.368 75.2412 385.574 75.4558C385.779 75.6612 385.952 75.9412 386.092 76.2958L386.568 77.4718C386.717 77.8265 386.848 78.1298 386.96 78.3818C387.081 78.6338 387.216 78.8298 387.366 78.9698C387.524 79.1005 387.725 79.1658 387.968 79.1658C388.098 79.1658 388.22 79.1518 388.332 79.1238C388.453 79.0958 388.574 79.0585 388.696 79.0118L388.808 79.4178C388.649 79.5765 388.462 79.6978 388.248 79.7818C388.042 79.8752 387.818 79.9218 387.576 79.9218ZM383.418 74.6018C383.912 74.6018 384.351 74.5272 384.734 74.3778C385.116 74.2192 385.42 73.9812 385.644 73.6638C385.868 73.3465 385.98 72.9545 385.98 72.4878C385.98 72.0212 385.877 71.6478 385.672 71.3678C385.466 71.0878 385.168 70.8872 384.776 70.7658C384.384 70.6352 383.903 70.5698 383.334 70.5698H382.466V74.5738C382.708 74.5832 382.904 74.5925 383.054 74.6018C383.203 74.6018 383.324 74.6018 383.418 74.6018ZM390.088 79.7258V79.2218L390.928 79.0958C391.106 79.0678 391.222 79.0072 391.278 78.9138C391.334 78.8205 391.362 78.6432 391.362 78.3818V71.2138C391.362 70.9805 391.33 70.8218 391.264 70.7378C391.208 70.6445 391.087 70.5838 390.9 70.5558L390.088 70.4298V69.9118H393.672V70.4298L392.818 70.5558C392.65 70.5838 392.538 70.6492 392.482 70.7518C392.426 70.8452 392.398 71.0178 392.398 71.2698V78.4378C392.398 78.6712 392.426 78.8345 392.482 78.9278C392.548 79.0118 392.669 79.0678 392.846 79.0958L393.672 79.2218V79.7258H390.088ZM395.741 79.7258V79.2218L396.553 79.0958C396.731 79.0678 396.847 79.0072 396.903 78.9138C396.959 78.8205 396.987 78.6432 396.987 78.3818V71.2138C396.987 70.9805 396.955 70.8218 396.889 70.7378C396.824 70.6445 396.698 70.5838 396.511 70.5558L395.741 70.4298V69.9118H399.003C399.479 69.9118 399.909 69.9492 400.291 70.0238C400.683 70.0985 401.024 70.2105 401.313 70.3598C401.603 70.4998 401.845 70.6818 402.041 70.9058C402.237 71.1205 402.382 71.3772 402.475 71.6758C402.578 71.9652 402.629 72.2965 402.629 72.6698C402.629 73.0432 402.583 73.3885 402.489 73.7058C402.396 74.0232 402.256 74.3078 402.069 74.5598C401.892 74.8118 401.663 75.0265 401.383 75.2038C401.103 75.3718 400.777 75.5025 400.403 75.5958C400.039 75.6892 399.624 75.7358 399.157 75.7358C398.887 75.7358 398.653 75.7312 398.457 75.7218C398.271 75.7032 398.126 75.6892 398.023 75.6798V78.4238C398.023 78.6478 398.056 78.8112 398.121 78.9138C398.196 79.0165 398.336 79.0772 398.541 79.0958L399.633 79.2218V79.7258H395.741ZM399.017 75.0778C399.839 75.0778 400.459 74.8912 400.879 74.5178C401.309 74.1445 401.523 73.5472 401.523 72.7258C401.523 72.1938 401.421 71.7692 401.215 71.4518C401.019 71.1345 400.73 70.9058 400.347 70.7658C399.965 70.6258 399.489 70.5558 398.919 70.5558H398.023V75.0218C398.135 75.0405 398.271 75.0545 398.429 75.0638C398.597 75.0732 398.793 75.0778 399.017 75.0778ZM406.086 79.7258V79.2218L407.22 79.0538C407.37 79.0258 407.482 78.9698 407.556 78.8858C407.64 78.7925 407.682 78.6198 407.682 78.3678V70.5558H406.688C406.352 70.5558 406.072 70.5838 405.848 70.6398C405.624 70.6865 405.433 70.7892 405.274 70.9478C405.116 71.1065 404.971 71.3352 404.84 71.6338C404.71 71.9232 404.565 72.3152 404.406 72.8098L403.846 72.6698L404.392 69.9118H412.022L412.554 72.6698L411.994 72.8098C411.836 72.3152 411.691 71.9232 411.56 71.6338C411.43 71.3352 411.285 71.1065 411.126 70.9478C410.968 70.7892 410.776 70.6865 410.552 70.6398C410.328 70.5838 410.053 70.5558 409.726 70.5558H408.718V78.4238C408.718 78.6478 408.746 78.8018 408.802 78.8858C408.868 78.9605 408.998 79.0165 409.194 79.0538L410.3 79.2218V79.7258H406.086ZM414.252 79.7258V79.2218L415.092 79.0958C415.27 79.0678 415.386 79.0072 415.442 78.9138C415.498 78.8205 415.526 78.6432 415.526 78.3818V71.2138C415.526 70.9805 415.494 70.8218 415.428 70.7378C415.372 70.6445 415.251 70.5838 415.064 70.5558L414.252 70.4298V69.9118H417.836V70.4298L416.982 70.5558C416.814 70.5838 416.702 70.6492 416.646 70.7518C416.59 70.8452 416.562 71.0178 416.562 71.2698V78.4378C416.562 78.6712 416.59 78.8345 416.646 78.9278C416.712 79.0118 416.833 79.0678 417.01 79.0958L417.836 79.2218V79.7258H414.252ZM424.203 79.9218C423.289 79.9218 422.5 79.7165 421.837 79.3058C421.184 78.8952 420.68 78.3212 420.325 77.5838C419.98 76.8465 419.807 75.9785 419.807 74.9798C419.807 73.8785 419.985 72.9405 420.339 72.1658C420.703 71.3818 421.221 70.7798 421.893 70.3598C422.565 69.9305 423.373 69.7158 424.315 69.7158C425.211 69.7158 425.981 69.9165 426.625 70.3178C427.269 70.7192 427.764 71.2885 428.109 72.0258C428.464 72.7538 428.641 73.6172 428.641 74.6158C428.641 75.4185 428.539 76.1465 428.333 76.7998C428.128 77.4532 427.829 78.0132 427.437 78.4798C427.055 78.9465 426.588 79.3058 426.037 79.5578C425.496 79.8005 424.885 79.9218 424.203 79.9218ZM424.329 79.1518C424.843 79.1518 425.3 79.0585 425.701 78.8718C426.103 78.6758 426.439 78.3912 426.709 78.0178C426.98 77.6352 427.181 77.1732 427.311 76.6318C427.451 76.0905 427.521 75.4745 427.521 74.7838C427.521 74.1025 427.447 73.5005 427.297 72.9778C427.157 72.4458 426.943 71.9932 426.653 71.6198C426.373 71.2372 426.023 70.9525 425.603 70.7658C425.193 70.5698 424.712 70.4718 424.161 70.4718C423.639 70.4718 423.177 70.5698 422.775 70.7658C422.374 70.9525 422.033 71.2325 421.753 71.6058C421.473 71.9698 421.263 72.4178 421.123 72.9498C420.983 73.4818 420.913 74.0885 420.913 74.7698C420.913 75.4418 420.988 76.0485 421.137 76.5898C421.287 77.1312 421.506 77.5932 421.795 77.9758C422.094 78.3585 422.453 78.6525 422.873 78.8578C423.303 79.0538 423.788 79.1518 424.329 79.1518ZM430.631 79.7258V79.2218L431.415 79.0958C431.583 79.0772 431.699 79.0165 431.765 78.9138C431.839 78.8112 431.877 78.6338 431.877 78.3818V71.2138C431.877 70.9898 431.849 70.8358 431.793 70.7518C431.737 70.6585 431.611 70.5932 431.415 70.5558L430.631 70.4298V69.9118H433.179L438.247 78.1158V78.0598V71.2138C438.247 70.9805 438.219 70.8218 438.163 70.7378C438.107 70.6538 437.981 70.5932 437.785 70.5558L437.015 70.4298V69.9118H440.291V70.4298L439.521 70.5558C439.343 70.5838 439.222 70.6445 439.157 70.7378C439.091 70.8218 439.059 70.9898 439.059 71.2418V79.7258H438.051L432.703 71.1018L432.689 71.1578V78.4378C432.689 78.6805 432.721 78.8438 432.787 78.9278C432.852 79.0118 432.969 79.0678 433.137 79.0958L433.949 79.2218V79.7258H430.631Z" fill="#47567B"/>
<path d="M540.322 15.7751C540.904 14.096 540.417 12.228 539.658 10.6189C538.716 8.62592 537.284 6.77005 535.288 5.8345C533.292 4.89895 530.677 5.09398 529.16 6.69387C527.782 8.14748 527.581 10.3812 527.962 12.3468C528.794 16.6254 531.884 20.0567 534.849 23.2504C538.488 27.1694 542.126 31.0883 545.762 35.0043" fill="white"/>
<path d="M541.636 17.3111C543.053 12.2889 540.706 5.20677 535.69 2.89683C533.707 1.98261 531.211 1.95519 529.37 3.22291C527.188 4.72223 526.402 7.50451 526.289 10.0217C526.039 15.6258 529.117 20.3828 532.71 24.3902C536.73 28.8729 540.898 33.2277 544.994 37.6372C545.924 38.6398 546.801 37.4696 547.079 36.5432C547.438 35.3426 547.459 33.3709 546.533 32.3744C543.568 29.1807 540.606 25.9901 537.641 22.7964C535.075 20.0324 532.149 17.2958 530.382 13.9193C529.858 12.9167 529.026 11.3686 529.376 10.1954C529.8 8.78747 531.582 8.29379 532.872 8.31817C534.456 8.35169 535.879 9.13182 536.94 10.2837C537.659 11.0639 539.317 13.13 539.006 14.2332C538.665 15.44 538.585 17.433 539.551 18.402C540.517 19.3711 541.362 18.2862 541.636 17.308V17.3111Z" fill="white"/>
<path d="M546.039 34.9464C549.407 31.7467 552.509 28.2665 555.303 24.5548C556.129 23.4608 556.931 22.3332 557.482 21.0777C558.323 19.1548 558.531 17.0216 558.729 14.9311C558.915 12.9564 559.094 10.9268 558.543 9.02216C557.589 5.73401 554.38 3.30218 550.964 3.03705C547.548 2.77193 544.113 4.55161 542.145 7.35218C540.176 10.1527 539.649 13.8553 540.496 17.174" fill="white"/>
<path d="M546.81 37.5763C550.461 34.084 553.938 30.29 556.833 26.1424C559.728 21.9949 560.536 16.6894 560.435 11.6764C560.347 7.15405 558.448 2.6317 554.06 0.763645C550.062 -0.936807 545.622 0.330913 542.59 3.29604C538.576 7.21805 537.964 13.5048 539.186 18.7068C539.424 19.7155 540.341 20.715 541.27 19.8008C542.258 18.8287 542.096 16.8265 541.816 15.6319C539.893 7.43441 552.936 2.11365 556.91 9.79615C557.778 11.4753 557.327 13.6359 557.129 15.4278C556.882 17.6706 556.334 19.4564 554.996 21.3001C552.119 25.2678 548.81 28.9308 545.272 32.3134C543.888 33.6391 544.796 39.5023 546.81 37.5763Z" fill="white"/>
<path d="M533.594 31.6919C533.512 31.5822 533.463 31.4968 533.396 31.4328C532.421 30.4455 531.439 29.4642 530.47 28.4708C527.664 25.6001 525.311 22.379 523.15 19.0086C522.757 18.396 522.428 17.7378 522.129 17.0735C520.712 13.9286 521.103 10.8446 522.547 7.83374C523.236 6.39537 524.302 5.27697 525.661 4.42674C527.59 3.21692 529.684 2.55259 531.954 2.57392C535.413 2.60439 537.763 4.51207 539.363 7.36749C540.514 9.42449 541.075 11.7131 541.188 14.084C541.356 17.6525 540.74 21.1235 539.74 24.5305C539.283 26.0877 538.476 27.4804 537.583 28.8243C536.992 29.7141 536.379 30.5918 535.739 31.5273C537.455 33.4624 539.53 35.0075 541.38 36.845C543.379 34.7088 545.732 33.0297 547.661 30.8691C547.511 30.6466 547.396 30.4638 547.268 30.2901C544.138 25.9841 543.303 23.9484 542.507 18.6856C542.127 16.1653 541.996 13.6451 542.501 11.1249C542.791 9.68656 543.199 8.27257 543.882 6.97742C545.281 4.32313 547.338 2.46421 550.403 1.97663C551.823 1.75112 553.231 1.9553 554.594 2.36365C557.169 3.13464 559.399 4.43589 560.697 6.90428C562.575 10.4758 562.7 14.0779 560.667 17.6464C560.185 18.4905 559.661 19.3194 559.098 20.1117C557.473 22.3942 555.88 24.7011 553.935 26.7307C552.64 28.0868 551.321 29.4185 550.01 30.7624C549.946 30.8295 549.891 30.9087 549.791 31.0336C549.98 31.2348 550.153 31.4328 550.336 31.6157C552.543 33.7976 555.133 35.431 557.876 36.8389C561.627 38.7619 565.595 40.0783 569.718 40.9255C571.266 41.2424 572.829 41.4923 574.396 41.7239C577.214 42.1414 580.036 42.5376 582.861 42.9094C586.652 43.4091 590.443 43.912 594.24 44.3477C595.712 44.5154 597.205 44.5397 598.689 44.5763C601.563 44.6433 604.437 44.6891 607.311 44.7134C608.819 44.7256 610.175 44.9024 611.687 44.8963C612.732 44.8932 613.853 45.1187 614.899 45.1248C615.435 45.1248 616.758 45.2467 617.294 45.2498C617.803 45.2528 618.854 45.3046 619.36 45.3686L619.333 46.5602C618.644 46.6211 618.04 46.615 617.34 46.6242C613.539 46.6668 609.035 46.1488 605.235 46.1305C602.24 46.1152 599.244 45.9964 596.248 45.9385C593.829 45.8928 591.449 45.4966 589.06 45.1705C586.43 44.811 583.794 44.4971 581.164 44.1436C578.004 43.72 574.825 43.3756 571.686 42.8179C565.479 41.7148 559.546 39.798 554.158 36.4154C552.314 35.2573 550.58 33.9652 549.059 32.4019C548.974 32.3135 548.886 32.2313 548.794 32.152C548.761 32.1246 548.709 32.1155 548.621 32.0819C548.511 32.1734 548.38 32.277 548.258 32.3897C546.472 34.0475 544.692 35.7084 542.904 37.3631C542.584 37.6587 542.236 37.9269 541.889 38.195C541.499 38.4998 541.161 38.5059 540.749 38.2194C540.591 38.1097 540.45 37.9695 540.31 37.8354C538.525 36.1777 536.742 34.5199 534.956 32.8651C534.904 32.8164 534.837 32.7889 534.737 32.728C534.633 32.8133 534.514 32.8895 534.417 32.987C532.04 35.4249 529.221 37.2351 526.216 38.7801C522.401 40.7396 518.363 42.0652 514.179 42.9825C512.369 43.3787 510.549 43.6773 508.706 43.8937C506.362 44.171 504.031 44.5641 501.688 44.881C498.719 45.2833 495.739 45.6094 492.78 46.0573C489.516 46.551 486.234 46.6882 482.946 46.7064C478.101 46.7339 473.252 46.7278 468.404 46.7156C467.334 46.7156 466.264 46.6455 465.195 46.5998C464.869 46.5876 464.546 46.5541 464.521 46.1122C464.503 45.7465 464.671 45.5027 465.122 45.4204C465.548 45.3412 465.99 45.3138 466.426 45.3168C473.124 45.3686 479.822 45.3656 486.518 45.1645C488.541 45.1035 490.549 44.8963 492.554 44.6098C495.544 44.1832 498.543 43.8297 501.535 43.4274C504.744 42.9977 507.968 42.6412 511.156 42.0896C517.397 41.0108 523.355 39.1032 528.742 35.6596C530.306 34.66 531.787 33.5538 533.1 32.2343C533.268 32.0637 533.426 31.8839 533.597 31.6949L533.594 31.6919ZM548.767 29.9152C549.233 29.4825 549.605 29.1717 549.94 28.8212C552.101 26.5753 554.304 24.369 556.072 21.7817C557.129 20.2367 558.269 18.7435 559.253 17.1497C560.673 14.8489 561.045 12.3805 560.286 9.72009C559.561 7.18465 558.086 5.36839 555.681 4.3018C554.097 3.59785 552.439 3.19254 550.708 3.40586C548.206 3.7167 546.497 5.2465 545.326 7.3553C544.339 9.13803 543.766 11.1067 543.69 13.1454C543.495 18.3839 544.363 24.2928 548.203 29.0955C548.325 29.2479 548.438 29.4063 548.551 29.5648C548.608 29.644 548.654 29.7293 548.767 29.9091V29.9152ZM534.645 30.5674C535.453 29.3515 536.209 28.2514 536.922 27.1269C537.802 25.7372 538.439 24.2349 538.759 22.6198C539.091 20.9498 539.427 19.2767 539.634 17.5885C540.009 14.5137 539.643 11.5241 538.397 8.65654C537.69 7.03227 536.532 5.81941 535.075 4.87471C534.222 4.32313 533.256 4.02753 532.238 4.03972C531.439 4.04887 530.626 4.10372 529.849 4.26523C527.95 4.65835 526.216 5.45981 524.918 6.92866C523.239 8.8272 522.629 11.1554 522.733 13.633C522.806 15.3669 523.534 16.9242 524.464 18.3839C527.075 22.4887 530.135 26.2279 533.603 29.6349C533.896 29.9213 534.212 30.1834 534.639 30.5674H534.645Z" fill="#47567B"/>
<path d="M507.836 79.7258V79.2218L508.648 79.0958C508.825 79.0678 508.942 79.0072 508.998 78.9138C509.054 78.8205 509.082 78.6432 509.082 78.3818V71.2138C509.082 70.9805 509.049 70.8218 508.984 70.7378C508.919 70.6445 508.793 70.5838 508.606 70.5558L507.836 70.4298V69.9118H511.098C511.574 69.9118 512.003 69.9492 512.386 70.0238C512.778 70.0985 513.119 70.2105 513.408 70.3598C513.697 70.4998 513.94 70.6818 514.136 70.9058C514.332 71.1205 514.477 71.3772 514.57 71.6758C514.673 71.9652 514.724 72.2965 514.724 72.6698C514.724 73.0432 514.677 73.3885 514.584 73.7058C514.491 74.0232 514.351 74.3078 514.164 74.5598C513.987 74.8118 513.758 75.0265 513.478 75.2038C513.198 75.3718 512.871 75.5025 512.498 75.5958C512.134 75.6892 511.719 75.7358 511.252 75.7358C510.981 75.7358 510.748 75.7312 510.552 75.7218C510.365 75.7032 510.221 75.6892 510.118 75.6798V78.4238C510.118 78.6478 510.151 78.8112 510.216 78.9138C510.291 79.0165 510.431 79.0772 510.636 79.0958L511.728 79.2218V79.7258H507.836ZM511.112 75.0778C511.933 75.0778 512.554 74.8912 512.974 74.5178C513.403 74.1445 513.618 73.5472 513.618 72.7258C513.618 72.1938 513.515 71.7692 513.31 71.4518C513.114 71.1345 512.825 70.9058 512.442 70.7658C512.059 70.6258 511.583 70.5558 511.014 70.5558H510.118V75.0218C510.23 75.0405 510.365 75.0545 510.524 75.0638C510.692 75.0732 510.888 75.0778 511.112 75.0778ZM514.648 79.7258V79.2078L515.278 79.0958C515.446 79.0585 515.567 78.9978 515.642 78.9138C515.726 78.8298 515.819 78.6432 515.922 78.3538L518.918 69.9118H519.926L522.866 78.3818C522.95 78.6152 523.024 78.7785 523.09 78.8718C523.155 78.9652 523.286 79.0352 523.482 79.0818L524.028 79.1798V79.7258H520.696V79.2078L521.508 79.1098C521.694 79.0818 521.806 79.0212 521.844 78.9278C521.881 78.8252 521.858 78.6525 521.774 78.4098L521.116 76.4638H517.378L516.72 78.3538C516.645 78.5685 516.622 78.7412 516.65 78.8718C516.687 78.9932 516.818 79.0725 517.042 79.1098L517.84 79.2218V79.7258H514.648ZM517.602 75.7918H520.892L519.282 70.9758H519.24L517.602 75.7918ZM525.832 79.7258V79.2218L526.672 79.0958C526.849 79.0678 526.966 79.0072 527.022 78.9138C527.078 78.8205 527.106 78.6432 527.106 78.3818V75.4978L524.53 71.2558C524.409 71.0598 524.287 70.9012 524.166 70.7798C524.054 70.6585 523.895 70.5792 523.69 70.5418L523.144 70.4438V69.9118H526.686V70.4298L525.958 70.4998C525.734 70.5278 525.599 70.6072 525.552 70.7378C525.515 70.8592 525.552 71.0178 525.664 71.2138L527.778 74.7558H527.82L529.878 71.2698C530.009 71.0645 530.051 70.8965 530.004 70.7658C529.957 70.6352 529.822 70.5558 529.598 70.5278L528.982 70.4158V69.9118H532.23V70.4298L531.432 70.5418C531.273 70.5698 531.143 70.6352 531.04 70.7378C530.947 70.8312 530.816 71.0225 530.648 71.3118L528.142 75.5118V78.4378C528.142 78.6712 528.17 78.8345 528.226 78.9278C528.291 79.0118 528.413 79.0678 528.59 79.0958L529.402 79.2218V79.7258H525.832ZM533.323 79.7258V79.2218L534.149 79.0958C534.354 79.0678 534.475 78.9885 534.513 78.8578C534.55 78.7178 534.573 78.5452 534.583 78.3398L535.031 71.1998C535.049 70.9665 535.026 70.8078 534.961 70.7238C534.905 70.6305 534.788 70.5745 534.611 70.5558L533.813 70.4298V69.9118H536.529L539.231 77.2758L539.273 77.2058L542.017 69.9118H544.719V70.4298L543.879 70.5418C543.72 70.5605 543.608 70.6118 543.543 70.6958C543.487 70.7798 543.463 70.9665 543.473 71.2558L543.935 78.4378C543.944 78.6898 543.981 78.8578 544.047 78.9418C544.112 79.0258 544.229 79.0772 544.397 79.0958L545.237 79.2218V79.7258H541.555V79.2218L542.451 79.1098C542.609 79.0912 542.726 79.0398 542.801 78.9558C542.885 78.8625 542.917 78.6758 542.899 78.3958L542.437 70.9758L542.423 70.9198L539.609 78.2698H538.629L535.857 70.9198L535.843 70.9758L535.395 78.4518C535.385 78.6478 535.404 78.7972 535.451 78.8998C535.507 78.9932 535.642 79.0585 535.857 79.0958L536.655 79.2218V79.7258H533.323ZM547.114 79.7258V79.2218L547.926 79.0958C548.103 79.0678 548.22 79.0072 548.276 78.9138C548.332 78.8205 548.36 78.6432 548.36 78.3818V71.2278C548.36 70.9945 548.332 70.8358 548.276 70.7518C548.22 70.6585 548.094 70.5932 547.898 70.5558L547.114 70.4298V69.9118H553.358L553.862 72.1378L553.302 72.3058C553.162 71.9138 553.031 71.6012 552.91 71.3678C552.789 71.1345 552.649 70.9618 552.49 70.8498C552.331 70.7285 552.14 70.6492 551.916 70.6118C551.692 70.5745 551.412 70.5558 551.076 70.5558H549.396V74.3778H551.006C551.323 74.3778 551.557 74.3592 551.706 74.3218C551.855 74.2752 551.967 74.1725 552.042 74.0138C552.117 73.8552 552.191 73.5985 552.266 73.2438L552.77 73.1738V76.1698L552.266 76.2538C552.21 75.8992 552.14 75.6378 552.056 75.4698C551.981 75.3018 551.855 75.1945 551.678 75.1478C551.51 75.1012 551.253 75.0778 550.908 75.0778H549.396V79.0818H551.594C551.921 79.0818 552.191 79.0585 552.406 79.0118C552.621 78.9558 552.798 78.8625 552.938 78.7318C553.087 78.5918 553.209 78.4052 553.302 78.1718C553.405 77.9292 553.493 77.6212 553.568 77.2478H554.156L553.834 79.7258H547.114ZM556.089 79.7258V79.2218L556.873 79.0958C557.041 79.0772 557.158 79.0165 557.223 78.9138C557.298 78.8112 557.335 78.6338 557.335 78.3818V71.2138C557.335 70.9898 557.307 70.8358 557.251 70.7518C557.195 70.6585 557.069 70.5932 556.873 70.5558L556.089 70.4298V69.9118H558.637L563.705 78.1158V78.0598V71.2138C563.705 70.9805 563.677 70.8218 563.621 70.7378C563.565 70.6538 563.439 70.5932 563.243 70.5558L562.473 70.4298V69.9118H565.749V70.4298L564.979 70.5558C564.802 70.5838 564.681 70.6445 564.615 70.7378C564.55 70.8218 564.517 70.9898 564.517 71.2418V79.7258H563.509L558.161 71.1018L558.147 71.1578V78.4378C558.147 78.6805 558.18 78.8438 558.245 78.9278C558.311 79.0118 558.427 79.0678 558.595 79.0958L559.407 79.2218V79.7258H556.089ZM569.647 79.7258V79.2218L570.781 79.0538C570.931 79.0258 571.043 78.9698 571.117 78.8858C571.201 78.7925 571.243 78.6198 571.243 78.3678V70.5558H570.249C569.913 70.5558 569.633 70.5838 569.409 70.6398C569.185 70.6865 568.994 70.7892 568.835 70.9478C568.677 71.1065 568.532 71.3352 568.401 71.6338C568.271 71.9232 568.126 72.3152 567.967 72.8098L567.407 72.6698L567.953 69.9118H575.583L576.115 72.6698L575.555 72.8098C575.397 72.3152 575.252 71.9232 575.121 71.6338C574.991 71.3352 574.846 71.1065 574.687 70.9478C574.529 70.7892 574.337 70.6865 574.113 70.6398C573.889 70.5838 573.614 70.5558 573.287 70.5558H572.279V78.4238C572.279 78.6478 572.307 78.8018 572.363 78.8858C572.429 78.9605 572.559 79.0165 572.755 79.0538L573.861 79.2218V79.7258H569.647Z" fill="#47567B"/>
<path d="M695.162 15.7751C695.744 14.096 695.257 12.228 694.498 10.6189C693.556 8.62592 692.124 6.77005 690.128 5.8345C688.132 4.89895 685.517 5.09398 684 6.69387C682.622 8.14748 682.421 10.3812 682.802 12.3468C683.634 16.6254 686.724 20.0567 689.689 23.2504C693.328 27.1694 696.966 31.0883 700.602 35.0043" fill="white"/>
<path d="M696.476 17.3111C697.893 12.2889 695.546 5.20677 690.53 2.89683C688.546 1.98261 686.051 1.95519 684.21 3.22291C682.028 4.72223 681.242 7.50451 681.129 10.0217C680.879 15.6258 683.957 20.3828 687.55 24.3902C691.569 28.8729 695.738 33.2277 699.834 37.6372C700.763 38.6398 701.641 37.4696 701.918 36.5432C702.278 35.3426 702.299 33.3709 701.373 32.3744C698.408 29.1807 695.446 25.9901 692.481 22.7964C689.915 20.0324 686.989 17.2958 685.222 13.9193C684.697 12.9167 683.866 11.3686 684.216 10.1954C684.64 8.78747 686.422 8.29379 687.711 8.31817C689.296 8.35169 690.719 9.13182 691.78 10.2837C692.499 11.0639 694.157 13.13 693.846 14.2332C693.504 15.44 693.425 17.433 694.391 18.402C695.357 19.3711 696.201 18.2862 696.476 17.308V17.3111Z" fill="white"/>
<path d="M700.879 34.9464C704.247 31.7467 707.349 28.2665 710.143 24.5548C710.969 23.4608 711.771 22.3332 712.322 21.0777C713.163 19.1548 713.371 17.0216 713.569 14.9311C713.755 12.9564 713.934 10.9268 713.383 9.02216C712.429 5.73401 709.22 3.30218 705.804 3.03705C702.388 2.77193 698.953 4.55161 696.985 7.35218C695.016 10.1527 694.489 13.8553 695.336 17.174" fill="white"/>
<path d="M701.65 37.5763C705.301 34.084 708.778 30.29 711.673 26.1424C714.568 21.9949 715.376 16.6894 715.275 11.6764C715.187 7.15405 713.288 2.6317 708.9 0.763645C704.902 -0.936807 700.462 0.330913 697.43 3.29604C693.416 7.21805 692.804 13.5048 694.026 18.7068C694.263 19.7155 695.181 20.715 696.11 19.8008C697.097 18.8287 696.936 16.8265 696.656 15.6319C694.733 7.43441 707.776 2.11365 711.749 9.79615C712.618 11.4753 712.167 13.6359 711.969 15.4278C711.722 17.6706 711.173 19.4564 709.836 21.3001C706.959 25.2678 703.649 28.9308 700.111 32.3134C698.728 33.6391 699.636 39.5023 701.65 37.5763Z" fill="white"/>
<path d="M688.434 31.6919C688.351 31.5822 688.303 31.4968 688.236 31.4328C687.26 30.4455 686.279 29.4642 685.31 28.4708C682.503 25.6001 680.151 22.379 677.99 19.0086C677.597 18.396 677.268 17.7378 676.969 17.0735C675.552 13.9286 675.942 10.8446 677.387 7.83374C678.076 6.39537 679.142 5.27697 680.501 4.42674C682.43 3.21692 684.524 2.55259 686.794 2.57392C690.253 2.60439 692.603 4.51207 694.202 7.36749C695.354 9.42449 695.915 11.7131 696.028 14.084C696.195 17.6525 695.58 21.1235 694.58 24.5305C694.123 26.0877 693.316 27.4804 692.423 28.8243C691.832 29.7141 691.219 30.5918 690.579 31.5273C692.295 33.4624 694.37 35.0075 696.22 36.845C698.219 34.7088 700.571 33.0297 702.501 30.8691C702.351 30.6466 702.235 30.4638 702.107 30.2901C698.978 25.9841 698.143 23.9484 697.347 18.6856C696.966 16.1653 696.835 13.6451 697.341 11.1249C697.631 9.68656 698.039 8.27257 698.722 6.97742C700.12 4.32313 702.177 2.46421 705.243 1.97663C706.663 1.75112 708.071 1.9553 709.433 2.36365C712.008 3.13464 714.239 4.43589 715.537 6.90428C717.415 10.4758 717.539 14.0779 715.507 17.6464C715.025 18.4905 714.501 19.3194 713.937 20.1117C712.313 22.3942 710.719 24.7011 708.775 26.7307C707.48 28.0868 706.16 29.4185 704.85 30.7624C704.786 30.8295 704.731 30.9087 704.631 31.0336C704.82 31.2348 704.993 31.4328 705.176 31.6157C707.382 33.7976 709.973 35.431 712.715 36.8389C716.467 38.7619 720.434 40.0783 724.558 40.9255C726.106 41.2424 727.669 41.4923 729.235 41.7239C732.054 42.1414 734.876 42.5376 737.701 42.9094C741.492 43.4091 745.283 43.912 749.08 44.3477C750.552 44.5154 752.045 44.5397 753.529 44.5763C756.403 44.6433 759.277 44.6891 762.15 44.7134C763.659 44.7256 765.015 44.9024 766.526 44.8963C767.572 44.8932 768.693 45.1187 769.738 45.1248C770.275 45.1248 771.597 45.2467 772.134 45.2498C772.643 45.2528 773.694 45.3046 774.2 45.3686L774.172 46.5602C773.484 46.6211 772.88 46.615 772.179 46.6242C768.379 46.6668 763.875 46.1488 760.075 46.1305C757.08 46.1152 754.084 45.9964 751.088 45.9385C748.669 45.8928 746.289 45.4966 743.9 45.1705C741.27 44.811 738.634 44.4971 736.004 44.1436C732.844 43.72 729.665 43.3756 726.526 42.8179C720.319 41.7148 714.385 39.798 708.998 36.4154C707.154 35.2573 705.42 33.9652 703.899 32.4019C703.814 32.3135 703.726 32.2313 703.634 32.152C703.601 32.1246 703.549 32.1155 703.46 32.0819C703.351 32.1734 703.22 32.277 703.098 32.3897C701.312 34.0475 699.532 35.7084 697.744 37.3631C697.424 37.6587 697.076 37.9269 696.729 38.195C696.339 38.4998 696 38.5059 695.589 38.2194C695.431 38.1097 695.29 37.9695 695.15 37.8354C693.364 36.1777 691.582 34.5199 689.796 32.8651C689.744 32.8164 689.677 32.7889 689.576 32.728C689.473 32.8133 689.354 32.8895 689.256 32.987C686.88 35.4249 684.061 37.2351 681.056 38.7801C677.241 40.7396 673.203 42.0652 669.019 42.9825C667.209 43.3787 665.389 43.6773 663.546 43.8937C661.202 44.171 658.871 44.5641 656.527 44.881C653.559 45.2833 650.579 45.6094 647.62 46.0573C644.356 46.551 641.074 46.6882 637.786 46.7064C632.94 46.7339 628.092 46.7278 623.244 46.7156C622.174 46.7156 621.104 46.6455 620.035 46.5998C619.709 46.5876 619.386 46.5541 619.361 46.1122C619.343 45.7465 619.511 45.5027 619.962 45.4204C620.388 45.3412 620.83 45.3138 621.266 45.3168C627.964 45.3686 634.662 45.3656 641.357 45.1645C643.381 45.1035 645.389 44.8963 647.394 44.6098C650.384 44.1832 653.382 43.8297 656.375 43.4274C659.584 42.9977 662.808 42.6412 665.996 42.0896C672.237 41.0108 678.194 39.1032 683.582 35.6596C685.146 34.66 686.627 33.5538 687.94 32.2343C688.108 32.0637 688.266 31.8839 688.437 31.6949L688.434 31.6919ZM703.607 29.9152C704.073 29.4825 704.445 29.1717 704.78 28.8212C706.941 26.5753 709.144 24.369 710.911 21.7817C711.969 20.2367 713.109 18.7435 714.093 17.1497C715.513 14.8489 715.885 12.3805 715.126 9.72009C714.401 7.18465 712.926 5.36839 710.521 4.3018C708.937 3.59785 707.279 3.19254 705.548 3.40586C703.046 3.7167 701.336 5.2465 700.166 7.3553C699.179 9.13803 698.606 11.1067 698.53 13.1454C698.335 18.3839 699.203 24.2928 703.043 29.0955C703.165 29.2479 703.278 29.4063 703.39 29.5648C703.448 29.644 703.494 29.7293 703.607 29.9091V29.9152ZM689.485 30.5674C690.293 29.3515 691.048 28.2514 691.761 27.1269C692.642 25.7372 693.279 24.2349 693.599 22.6198C693.931 20.9498 694.266 19.2767 694.474 17.5885C694.848 14.5137 694.483 11.5241 693.236 8.65654C692.529 7.03227 691.371 5.81941 689.915 4.87471C689.061 4.32313 688.095 4.02753 687.078 4.03972C686.279 4.04887 685.466 4.10372 684.688 4.26523C682.79 4.65835 681.056 5.45981 679.758 6.92866C678.079 8.8272 677.469 11.1554 677.573 13.633C677.646 15.3669 678.374 16.9242 679.304 18.3839C681.915 22.4887 684.975 26.2279 688.443 29.6349C688.735 29.9213 689.052 30.1834 689.479 30.5674H689.485Z" fill="#47567B"/>
<path d="M635.53 79.9218C634.634 79.9218 633.85 79.7212 633.178 79.3198C632.515 78.9185 631.997 78.3398 631.624 77.5838C631.26 76.8185 631.078 75.9038 631.078 74.8398C631.078 74.0465 631.18 73.3372 631.386 72.7118C631.591 72.0772 631.885 71.5358 632.268 71.0878C632.65 70.6398 633.108 70.2992 633.64 70.0658C634.172 69.8325 634.764 69.7158 635.418 69.7158C635.922 69.7158 636.374 69.7952 636.776 69.9538C637.186 70.1032 637.541 70.3225 637.84 70.6118L637.98 69.7018H638.47L639.002 72.8658L638.456 72.9918C638.241 72.3758 637.994 71.8858 637.714 71.5218C637.434 71.1485 637.107 70.8778 636.734 70.7098C636.36 70.5418 635.917 70.4578 635.404 70.4578C634.76 70.4578 634.195 70.6165 633.71 70.9338C633.234 71.2512 632.86 71.7318 632.59 72.3758C632.319 73.0105 632.184 73.8085 632.184 74.7698C632.184 75.4512 632.263 76.0625 632.422 76.6038C632.58 77.1358 632.809 77.5932 633.108 77.9758C633.416 78.3492 633.78 78.6385 634.2 78.8438C634.629 79.0398 635.11 79.1378 635.642 79.1378C636.034 79.1378 636.402 79.0865 636.748 78.9838C637.093 78.8812 637.415 78.7132 637.714 78.4798C638.022 78.2465 638.316 77.9432 638.596 77.5698L639.114 77.9758C638.89 78.3118 638.638 78.6058 638.358 78.8578C638.078 79.1005 637.779 79.3012 637.462 79.4598C637.154 79.6185 636.836 79.7352 636.51 79.8098C636.183 79.8845 635.856 79.9218 635.53 79.9218ZM648.377 79.9218C648.079 79.9218 647.822 79.8705 647.607 79.7678C647.393 79.6745 647.201 79.5158 647.033 79.2918C646.865 79.0678 646.702 78.7645 646.543 78.3818L645.815 76.5198C645.666 76.1558 645.517 75.8805 645.367 75.6938C645.218 75.4978 645.041 75.3672 644.835 75.3018C644.639 75.2365 644.387 75.2038 644.079 75.2038C643.911 75.2038 643.762 75.2085 643.631 75.2178C643.501 75.2178 643.379 75.2272 643.267 75.2458V78.4238C643.267 78.6478 643.3 78.8112 643.365 78.9138C643.44 79.0165 643.575 79.0772 643.771 79.0958L644.821 79.2218V79.7258H640.971V79.2218L641.811 79.0958C641.979 79.0678 642.091 79.0118 642.147 78.9278C642.213 78.8345 642.245 78.6525 642.245 78.3818V71.2138C642.245 70.9805 642.213 70.8218 642.147 70.7378C642.082 70.6445 641.956 70.5838 641.769 70.5558L640.971 70.4298V69.9118H644.177C644.803 69.9118 645.349 69.9678 645.815 70.0798C646.282 70.1825 646.665 70.3412 646.963 70.5558C647.271 70.7612 647.5 71.0225 647.649 71.3398C647.799 71.6572 647.873 72.0258 647.873 72.4458C647.873 72.6605 647.841 72.8752 647.775 73.0898C647.719 73.3045 647.631 73.5098 647.509 73.7058C647.388 73.9018 647.234 74.0838 647.047 74.2518C646.861 74.4198 646.641 74.5645 646.389 74.6858C646.147 74.8072 645.871 74.8958 645.563 74.9518V74.9938C645.899 75.0872 646.17 75.2412 646.375 75.4558C646.581 75.6612 646.753 75.9412 646.893 76.2958L647.369 77.4718C647.519 77.8265 647.649 78.1298 647.761 78.3818C647.883 78.6338 648.018 78.8298 648.167 78.9698C648.326 79.1005 648.527 79.1658 648.769 79.1658C648.9 79.1658 649.021 79.1518 649.133 79.1238C649.255 79.0958 649.376 79.0585 649.497 79.0118L649.609 79.4178C649.451 79.5765 649.264 79.6978 649.049 79.7818C648.844 79.8752 648.62 79.9218 648.377 79.9218ZM644.219 74.6018C644.714 74.6018 645.153 74.5272 645.535 74.3778C645.918 74.2192 646.221 73.9812 646.445 73.6638C646.669 73.3465 646.781 72.9545 646.781 72.4878C646.781 72.0212 646.679 71.6478 646.473 71.3678C646.268 71.0878 645.969 70.8872 645.577 70.7658C645.185 70.6352 644.705 70.5698 644.135 70.5698H643.267V74.5738C643.51 74.5832 643.706 74.5925 643.855 74.6018C644.005 74.6018 644.126 74.6018 644.219 74.6018ZM650.89 79.7258V79.2218L651.702 79.0958C651.879 79.0678 651.996 79.0072 652.052 78.9138C652.108 78.8205 652.136 78.6432 652.136 78.3818V71.2278C652.136 70.9945 652.108 70.8358 652.052 70.7518C651.996 70.6585 651.87 70.5932 651.674 70.5558L650.89 70.4298V69.9118H657.134L657.638 72.1378L657.078 72.3058C656.938 71.9138 656.807 71.6012 656.686 71.3678C656.565 71.1345 656.425 70.9618 656.266 70.8498C656.107 70.7285 655.916 70.6492 655.692 70.6118C655.468 70.5745 655.188 70.5558 654.852 70.5558H653.172V74.3778H654.782C655.099 74.3778 655.333 74.3592 655.482 74.3218C655.631 74.2752 655.743 74.1725 655.818 74.0138C655.893 73.8552 655.967 73.5985 656.042 73.2438L656.546 73.1738V76.1698L656.042 76.2538C655.986 75.8992 655.916 75.6378 655.832 75.4698C655.757 75.3018 655.631 75.1945 655.454 75.1478C655.286 75.1012 655.029 75.0778 654.684 75.0778H653.172V79.0818H655.37C655.697 79.0818 655.967 79.0585 656.182 79.0118C656.397 78.9558 656.574 78.8625 656.714 78.7318C656.863 78.5918 656.985 78.4052 657.078 78.1718C657.181 77.9292 657.269 77.6212 657.344 77.2478H657.932L657.61 79.7258H650.89ZM659.137 79.7258V79.2078L659.767 79.0958C659.935 79.0585 660.057 78.9978 660.131 78.9138C660.215 78.8298 660.309 78.6432 660.411 78.3538L663.407 69.9118H664.415L667.355 78.3818C667.439 78.6152 667.514 78.7785 667.579 78.8718C667.645 78.9652 667.775 79.0352 667.971 79.0818L668.517 79.1798V79.7258H665.185V79.2078L665.997 79.1098C666.184 79.0818 666.296 79.0212 666.333 78.9278C666.371 78.8252 666.347 78.6525 666.263 78.4098L665.605 76.4638H661.867L661.209 78.3538C661.135 78.5685 661.111 78.7412 661.139 78.8718C661.177 78.9932 661.307 79.0725 661.531 79.1098L662.329 79.2218V79.7258H659.137ZM662.091 75.7918H665.381L663.771 70.9758H663.729L662.091 75.7918ZM670.47 79.7258V79.2218L671.604 79.0538C671.754 79.0258 671.866 78.9698 671.94 78.8858C672.024 78.7925 672.066 78.6198 672.066 78.3678V70.5558H671.072C670.736 70.5558 670.456 70.5838 670.232 70.6398C670.008 70.6865 669.817 70.7892 669.658 70.9478C669.5 71.1065 669.355 71.3352 669.224 71.6338C669.094 71.9232 668.949 72.3152 668.79 72.8098L668.23 72.6698L668.776 69.9118H676.406L676.938 72.6698L676.378 72.8098C676.22 72.3152 676.075 71.9232 675.944 71.6338C675.814 71.3352 675.669 71.1065 675.51 70.9478C675.352 70.7892 675.16 70.6865 674.936 70.6398C674.712 70.5838 674.437 70.5558 674.11 70.5558H673.102V78.4238C673.102 78.6478 673.13 78.8018 673.186 78.8858C673.252 78.9605 673.382 79.0165 673.578 79.0538L674.684 79.2218V79.7258H670.47ZM678.636 79.7258V79.2218L679.448 79.0958C679.626 79.0678 679.742 79.0072 679.798 78.9138C679.854 78.8205 679.882 78.6432 679.882 78.3818V71.2278C679.882 70.9945 679.854 70.8358 679.798 70.7518C679.742 70.6585 679.616 70.5932 679.42 70.5558L678.636 70.4298V69.9118H684.88L685.384 72.1378L684.824 72.3058C684.684 71.9138 684.554 71.6012 684.432 71.3678C684.311 71.1345 684.171 70.9618 684.012 70.8498C683.854 70.7285 683.662 70.6492 683.438 70.6118C683.214 70.5745 682.934 70.5558 682.598 70.5558H680.918V74.3778H682.528C682.846 74.3778 683.079 74.3592 683.228 74.3218C683.378 74.2752 683.49 74.1725 683.564 74.0138C683.639 73.8552 683.714 73.5985 683.788 73.2438L684.292 73.1738V76.1698L683.788 76.2538C683.732 75.8992 683.662 75.6378 683.578 75.4698C683.504 75.3018 683.378 75.1945 683.2 75.1478C683.032 75.1012 682.776 75.0778 682.43 75.0778H680.918V79.0818H683.116C683.443 79.0818 683.714 79.0585 683.928 79.0118C684.143 78.9558 684.32 78.8625 684.46 78.7318C684.61 78.5918 684.731 78.4052 684.824 78.1718C684.927 77.9292 685.016 77.6212 685.09 77.2478H685.678L685.356 79.7258H678.636ZM689.898 79.7258V79.2078L690.528 79.0958C690.696 79.0585 690.817 78.9978 690.892 78.9138C690.976 78.8298 691.069 78.6432 691.172 78.3538L694.168 69.9118H695.176L698.116 78.3818C698.2 78.6152 698.275 78.7785 698.34 78.8718C698.405 78.9652 698.536 79.0352 698.732 79.0818L699.278 79.1798V79.7258H695.946V79.2078L696.758 79.1098C696.945 79.0818 697.057 79.0212 697.094 78.9278C697.131 78.8252 697.108 78.6525 697.024 78.4098L696.366 76.4638H692.628L691.97 78.3538C691.895 78.5685 691.872 78.7412 691.9 78.8718C691.937 78.9932 692.068 79.0725 692.292 79.1098L693.09 79.2218V79.7258H689.898ZM692.852 75.7918H696.142L694.532 70.9758H694.49L692.852 75.7918ZM704.748 79.9218C703.852 79.9218 703.068 79.7212 702.396 79.3198C701.734 78.9185 701.216 78.3398 700.842 77.5838C700.478 76.8185 700.296 75.9038 700.296 74.8398C700.296 74.0465 700.399 73.3372 700.604 72.7118C700.81 72.0772 701.104 71.5358 701.486 71.0878C701.869 70.6398 702.326 70.2992 702.858 70.0658C703.39 69.8325 703.983 69.7158 704.636 69.7158C705.14 69.7158 705.593 69.7952 705.994 69.9538C706.405 70.1032 706.76 70.3225 707.058 70.6118L707.198 69.7018H707.688L708.22 72.8658L707.674 72.9918C707.46 72.3758 707.212 71.8858 706.932 71.5218C706.652 71.1485 706.326 70.8778 705.952 70.7098C705.579 70.5418 705.136 70.4578 704.622 70.4578C703.978 70.4578 703.414 70.6165 702.928 70.9338C702.452 71.2512 702.079 71.7318 701.808 72.3758C701.538 73.0105 701.402 73.8085 701.402 74.7698C701.402 75.4512 701.482 76.0625 701.64 76.6038C701.799 77.1358 702.028 77.5932 702.326 77.9758C702.634 78.3492 702.998 78.6385 703.418 78.8438C703.848 79.0398 704.328 79.1378 704.86 79.1378C705.252 79.1378 705.621 79.0865 705.966 78.9838C706.312 78.8812 706.634 78.7132 706.932 78.4798C707.24 78.2465 707.534 77.9432 707.814 77.5698L708.332 77.9758C708.108 78.3118 707.856 78.6058 707.576 78.8578C707.296 79.1005 706.998 79.3012 706.68 79.4598C706.372 79.6185 706.055 79.7352 705.728 79.8098C705.402 79.8845 705.075 79.9218 704.748 79.9218ZM714.544 79.9218C713.648 79.9218 712.864 79.7212 712.192 79.3198C711.529 78.9185 711.011 78.3398 710.638 77.5838C710.274 76.8185 710.092 75.9038 710.092 74.8398C710.092 74.0465 710.195 73.3372 710.4 72.7118C710.605 72.0772 710.899 71.5358 711.282 71.0878C711.665 70.6398 712.122 70.2992 712.654 70.0658C713.186 69.8325 713.779 69.7158 714.432 69.7158C714.936 69.7158 715.389 69.7952 715.79 69.9538C716.201 70.1032 716.555 70.3225 716.854 70.6118L716.994 69.7018H717.484L718.016 72.8658L717.47 72.9918C717.255 72.3758 717.008 71.8858 716.728 71.5218C716.448 71.1485 716.121 70.8778 715.748 70.7098C715.375 70.5418 714.931 70.4578 714.418 70.4578C713.774 70.4578 713.209 70.6165 712.724 70.9338C712.248 71.2512 711.875 71.7318 711.604 72.3758C711.333 73.0105 711.198 73.8085 711.198 74.7698C711.198 75.4512 711.277 76.0625 711.436 76.6038C711.595 77.1358 711.823 77.5932 712.122 77.9758C712.43 78.3492 712.794 78.6385 713.214 78.8438C713.643 79.0398 714.124 79.1378 714.656 79.1378C715.048 79.1378 715.417 79.0865 715.762 78.9838C716.107 78.8812 716.429 78.7132 716.728 78.4798C717.036 78.2465 717.33 77.9432 717.61 77.5698L718.128 77.9758C717.904 78.3118 717.652 78.6058 717.372 78.8578C717.092 79.1005 716.793 79.3012 716.476 79.4598C716.168 79.6185 715.851 79.7352 715.524 79.8098C715.197 79.8845 714.871 79.9218 714.544 79.9218ZM724.284 79.9218C723.369 79.9218 722.58 79.7165 721.918 79.3058C721.264 78.8952 720.76 78.3212 720.406 77.5838C720.06 76.8465 719.888 75.9785 719.888 74.9798C719.888 73.8785 720.065 72.9405 720.42 72.1658C720.784 71.3818 721.302 70.7798 721.974 70.3598C722.646 69.9305 723.453 69.7158 724.396 69.7158C725.292 69.7158 726.062 69.9165 726.706 70.3178C727.35 70.7192 727.844 71.2885 728.19 72.0258C728.544 72.7538 728.722 73.6172 728.722 74.6158C728.722 75.4185 728.619 76.1465 728.414 76.7998C728.208 77.4532 727.91 78.0132 727.518 78.4798C727.135 78.9465 726.668 79.3058 726.118 79.5578C725.576 79.8005 724.965 79.9218 724.284 79.9218ZM724.41 79.1518C724.923 79.1518 725.38 79.0585 725.782 78.8718C726.183 78.6758 726.519 78.3912 726.79 78.0178C727.06 77.6352 727.261 77.1732 727.392 76.6318C727.532 76.0905 727.602 75.4745 727.602 74.7838C727.602 74.1025 727.527 73.5005 727.378 72.9778C727.238 72.4458 727.023 71.9932 726.734 71.6198C726.454 71.2372 726.104 70.9525 725.684 70.7658C725.273 70.5698 724.792 70.4718 724.242 70.4718C723.719 70.4718 723.257 70.5698 722.856 70.7658C722.454 70.9525 722.114 71.2325 721.834 71.6058C721.554 71.9698 721.344 72.4178 721.204 72.9498C721.064 73.4818 720.994 74.0885 720.994 74.7698C720.994 75.4418 721.068 76.0485 721.218 76.5898C721.367 77.1312 721.586 77.5932 721.876 77.9758C722.174 78.3585 722.534 78.6525 722.954 78.8578C723.383 79.0538 723.868 79.1518 724.41 79.1518ZM735.401 79.9218C734.776 79.9218 734.23 79.8425 733.763 79.6838C733.306 79.5158 732.928 79.2732 732.629 78.9558C732.34 78.6292 732.125 78.2185 731.985 77.7238C731.845 77.2292 731.775 76.6552 731.775 76.0018V71.2138C731.775 70.9805 731.742 70.8218 731.677 70.7378C731.621 70.6445 731.5 70.5838 731.313 70.5558L730.501 70.4298V69.9118H734.057V70.4298L733.231 70.5558C733.063 70.5838 732.951 70.6492 732.895 70.7518C732.839 70.8452 732.811 71.0178 732.811 71.2698V75.9318C732.811 76.6692 732.9 77.2758 733.077 77.7518C733.264 78.2278 733.558 78.5778 733.959 78.8018C734.37 79.0258 734.906 79.1378 735.569 79.1378C736.194 79.1378 736.712 79.0165 737.123 78.7738C737.534 78.5218 737.842 78.1485 738.047 77.6538C738.262 77.1592 738.369 76.5385 738.369 75.7918V71.2138C738.369 70.9805 738.336 70.8218 738.271 70.7378C738.215 70.6445 738.094 70.5838 737.907 70.5558L737.123 70.4298V69.9118H740.413V70.4298L739.601 70.5558C739.433 70.5838 739.321 70.6445 739.265 70.7378C739.209 70.8312 739.181 71.0085 739.181 71.2698V75.5538C739.181 76.4872 739.05 77.2805 738.789 77.9338C738.528 78.5872 738.117 79.0818 737.557 79.4178C736.997 79.7538 736.278 79.9218 735.401 79.9218ZM742.256 79.7258V79.2218L743.04 79.0958C743.208 79.0772 743.325 79.0165 743.39 78.9138C743.465 78.8112 743.502 78.6338 743.502 78.3818V71.2138C743.502 70.9898 743.474 70.8358 743.418 70.7518C743.362 70.6585 743.236 70.5932 743.04 70.5558L742.256 70.4298V69.9118H744.804L749.872 78.1158V78.0598V71.2138C749.872 70.9805 749.844 70.8218 749.788 70.7378C749.732 70.6538 749.606 70.5932 749.41 70.5558L748.64 70.4298V69.9118H751.916V70.4298L751.146 70.5558C750.969 70.5838 750.848 70.6445 750.782 70.7378C750.717 70.8218 750.684 70.9898 750.684 71.2418V79.7258H749.676L744.328 71.1018L744.314 71.1578V78.4378C744.314 78.6805 744.347 78.8438 744.412 78.9278C744.478 79.0118 744.594 79.0678 744.762 79.0958L745.574 79.2218V79.7258H742.256ZM755.815 79.7258V79.2218L756.949 79.0538C757.098 79.0258 757.21 78.9698 757.285 78.8858C757.369 78.7925 757.411 78.6198 757.411 78.3678V70.5558H756.417C756.081 70.5558 755.801 70.5838 755.577 70.6398C755.353 70.6865 755.161 70.7892 755.003 70.9478C754.844 71.1065 754.699 71.3352 754.569 71.6338C754.438 71.9232 754.293 72.3152 754.135 72.8098L753.575 72.6698L754.121 69.9118H761.751L762.283 72.6698L761.723 72.8098C761.564 72.3152 761.419 71.9232 761.289 71.6338C761.158 71.3352 761.013 71.1065 760.855 70.9478C760.696 70.7892 760.505 70.6865 760.281 70.6398C760.057 70.5838 759.781 70.5558 759.455 70.5558H758.447V78.4238C758.447 78.6478 758.475 78.8018 758.531 78.8858C758.596 78.9605 758.727 79.0165 758.923 79.0538L760.029 79.2218V79.7258H755.815Z" fill="#47567B"/>
</svg>
