<svg width="466" height="100" viewBox="0 0 466 100" fill="none" xmlns="http://www.w3.org/2000/svg">
<path d="M76.5431 15.7751C77.1251 14.096 76.6375 12.228 75.8787 10.6189C74.9371 8.62592 73.5048 6.77005 71.5088 5.8345C69.5127 4.89895 66.898 5.09398 65.3804 6.69387C64.003 8.14748 63.8019 10.3812 64.1828 12.3468C65.0147 16.6254 68.1048 20.0567 71.0699 23.2504C74.7085 27.1694 78.3471 31.0883 81.9827 35.0043" fill="#CCD7E6"/>
<path d="M77.8561 17.3111C79.2731 12.2889 76.9266 5.20677 71.9106 2.89683C69.9267 1.98261 67.4309 1.95519 65.5903 3.22291C63.4083 4.72223 62.6221 7.50451 62.5093 10.0217C62.2595 15.6258 65.3373 20.3828 68.9302 24.3902C72.9498 28.8729 77.1186 33.2277 81.2143 37.6372C82.1438 38.6398 83.0214 37.4696 83.2987 36.5432C83.6583 35.3426 83.6797 33.3709 82.7533 32.3744C79.7881 29.1807 76.8261 25.9901 73.8609 22.7964C71.295 20.0324 68.3695 17.2958 66.602 13.9193C66.0779 12.9167 65.2459 11.3686 65.5964 10.1954C66.02 8.78747 67.8027 8.29379 69.0917 8.31817C70.6764 8.35169 72.0995 9.13182 73.16 10.2837C73.8792 11.0639 75.537 13.13 75.2262 14.2332C74.8849 15.44 74.8056 17.433 75.7717 18.402C76.7377 19.3711 77.5818 18.2862 77.8561 17.308V17.3111Z" fill="#CCD7E6"/>
<path d="M82.2591 34.9464C85.6265 31.7467 88.7288 28.2665 91.5232 24.5548C92.3491 23.4608 93.1505 22.3332 93.7021 21.0777C94.5432 19.1548 94.7504 17.0216 94.9485 14.9311C95.1344 12.9564 95.3142 10.9268 94.7626 9.02216C93.8088 5.73401 90.5999 3.30218 87.1837 3.03705C83.7676 2.77193 80.3332 4.55161 78.3645 7.35218C76.3959 10.1527 75.8687 13.8553 76.7159 17.174" fill="#CCD7E6"/>
<path d="M83.0307 37.5763C86.6815 34.084 90.1586 30.29 93.0536 26.1424C95.9486 21.9949 96.7562 16.6894 96.6556 11.6764C96.5673 7.15405 94.6687 2.6317 90.2805 0.763645C86.2823 -0.936807 81.8422 0.330913 78.81 3.29604C74.7966 7.21805 74.1841 13.5048 75.4061 18.7068C75.6438 19.7155 76.561 20.715 77.4905 19.8008C78.4779 18.8287 78.3163 16.8265 78.036 15.6319C76.1131 7.43441 89.156 2.11365 93.1298 9.79615C93.9983 11.4753 93.5473 13.6359 93.3492 15.4278C93.1024 17.6706 92.5538 19.4564 91.216 21.3001C88.3393 25.2678 85.0298 28.9308 81.4917 32.3134C80.1082 33.6391 81.0163 39.5023 83.0307 37.5763Z" fill="#CCD7E6"/>
<path d="M69.814 31.6919C69.7318 31.5822 69.683 31.4968 69.616 31.4328C68.6408 30.4455 67.6595 29.4642 66.6905 28.4708C63.8838 25.6001 61.5312 22.379 59.3706 19.0086C58.9775 18.396 58.6484 17.7378 58.3497 17.0735C56.9327 13.9286 57.3227 10.8446 58.7672 7.83374C59.4559 6.39537 60.5225 5.27697 61.8817 4.42674C63.8107 3.21692 65.9042 2.55259 68.1745 2.57392C71.6334 2.60439 73.9829 4.51207 75.5828 7.36749C76.7347 9.42449 77.2954 11.7131 77.4082 14.084C77.5758 17.6525 76.9602 21.1235 75.9607 24.5305C75.5036 26.0877 74.696 27.4804 73.8031 28.8243C73.2119 29.7141 72.5994 30.5918 71.9594 31.5273C73.6751 33.4624 75.7504 35.0075 77.6002 36.845C79.5993 34.7088 81.9519 33.0297 83.8809 30.8691C83.7316 30.6466 83.6157 30.4638 83.4878 30.2901C80.3581 25.9841 79.5231 23.9484 78.7277 18.6856C78.3468 16.1653 78.2157 13.6451 78.7216 11.1249C79.0111 9.68656 79.4195 8.27257 80.1021 6.97742C81.5009 4.32313 83.5579 2.46421 86.6235 1.97663C88.0436 1.75112 89.4515 1.9553 90.8137 2.36365C93.3888 3.13464 95.6195 4.43589 96.9177 6.90428C98.7949 10.4758 98.9198 14.0779 96.8872 17.6464C96.4057 18.4905 95.8816 19.3194 95.3178 20.1117C93.6935 22.3942 92.0997 24.7011 90.1555 26.7307C88.8603 28.0868 87.5408 29.4185 86.2304 30.7624C86.1664 30.8295 86.1116 30.9087 86.011 31.0336C86.2 31.2348 86.3736 31.4328 86.5565 31.6157C88.7628 33.7976 91.3531 35.431 94.0958 36.8389C97.8471 38.7619 101.815 40.0783 105.938 40.9255C107.486 41.2424 109.049 41.4923 110.616 41.7239C113.435 42.1414 116.257 42.5376 119.081 42.9094C122.872 43.4091 126.663 43.912 130.46 44.3477C131.932 44.5154 133.426 44.5397 134.91 44.5763C137.783 44.6433 140.657 44.6891 143.531 44.7134C145.039 44.7256 146.395 44.9024 147.907 44.8963C148.952 44.8932 150.074 45.1187 151.119 45.1248C151.655 45.1248 152.978 45.2467 153.514 45.2498C154.023 45.2528 155.074 45.3046 155.58 45.3686L155.553 46.5602C154.864 46.6211 154.261 46.615 153.56 46.6242C149.76 46.6668 145.256 46.1488 141.455 46.1305C138.46 46.1152 135.464 45.9964 132.469 45.9385C130.049 45.8928 127.669 45.4966 125.28 45.1705C122.65 44.811 120.014 44.4971 117.384 44.1436C114.224 43.72 111.045 43.3756 107.907 42.8179C101.699 41.7148 95.7658 39.798 90.3779 36.4154C88.5343 35.2573 86.8003 33.9652 85.2796 32.4019C85.1943 32.3135 85.1059 32.2313 85.0145 32.152C84.981 32.1246 84.9292 32.1155 84.8408 32.0819C84.7311 32.1734 84.6001 32.277 84.4782 32.3897C82.6924 34.0475 80.9127 35.7084 79.1239 37.3631C78.8039 37.6587 78.4565 37.9269 78.1091 38.195C77.719 38.4998 77.3808 38.5059 76.9694 38.2194C76.8109 38.1097 76.6707 37.9695 76.5305 37.8354C74.7448 36.1777 72.962 34.5199 71.1762 32.8651C71.1244 32.8164 71.0574 32.7889 70.9568 32.728C70.8532 32.8133 70.7344 32.8895 70.6368 32.987C68.2599 35.4249 65.441 37.2351 62.4363 38.7801C58.6209 40.7396 54.5831 42.0652 50.399 42.9825C48.5889 43.3787 46.7696 43.6773 44.9259 43.8937C42.5824 44.171 40.2512 44.5641 37.9077 44.881C34.9395 45.2833 31.9592 45.6094 29.0002 46.0573C25.7364 46.551 22.4543 46.6882 19.1662 46.7064C14.3208 46.7339 9.47239 46.7278 4.62397 46.7156C3.55433 46.7156 2.48469 46.6455 1.41505 46.5998C1.08898 46.5876 0.765951 46.5541 0.741572 46.1122C0.723287 45.7465 0.890894 45.5027 1.34191 45.4204C1.76855 45.3412 2.21042 45.3138 2.6462 45.3168C9.3444 45.3686 16.0426 45.3656 22.7377 45.1645C24.7612 45.1035 26.7695 44.8963 28.7746 44.6098C31.7642 44.1832 34.7628 43.8297 37.7554 43.4274C40.9643 42.9977 44.1884 42.6412 47.376 42.0896C53.6171 41.0108 59.5748 39.1032 64.9626 35.6596C66.5259 34.66 68.0069 33.5538 69.3204 32.2343C69.488 32.0637 69.6464 31.8839 69.8171 31.6949L69.814 31.6919ZM84.9871 29.9152C85.4533 29.4825 85.8251 29.1717 86.1603 28.8212C88.3209 26.5753 90.5242 24.369 92.2917 21.7817C93.3492 20.2367 94.4889 18.7435 95.4732 17.1497C96.8933 14.8489 97.2651 12.3805 96.5063 9.72009C95.781 7.18465 94.3061 5.36839 91.9016 4.3018C90.317 3.59785 88.6592 3.19254 86.9283 3.40586C84.4264 3.7167 82.7168 5.2465 81.5466 7.3553C80.5592 9.13803 79.9863 11.1067 79.9101 13.1454C79.7151 18.3839 80.5836 24.2928 84.4233 29.0955C84.5452 29.2479 84.658 29.4063 84.7707 29.5648C84.8286 29.644 84.8743 29.7293 84.9871 29.9091V29.9152ZM70.8654 30.5674C71.673 29.3515 72.4287 28.2514 73.1418 27.1269C74.0225 25.7372 74.6594 24.2349 74.9794 22.6198C75.3116 20.9498 75.6468 19.2767 75.854 17.5885C76.2288 14.5137 75.8632 11.5241 74.6168 8.65654C73.9098 7.03227 72.7517 5.81941 71.2951 4.87471C70.4418 4.32313 69.4758 4.02753 68.458 4.03972C67.6595 4.04887 66.8459 4.10372 66.0688 4.26523C64.1703 4.65835 62.4363 5.45981 61.1381 6.92866C59.459 8.8272 58.8495 11.1554 58.9531 13.633C59.0262 15.3669 59.7546 16.9242 60.684 18.3839C63.2957 22.4887 66.3552 26.2279 69.8232 29.6349C70.1157 29.9213 70.4327 30.1834 70.8593 30.5674H70.8654Z" fill="#47567B"/>
<path d="M31.0002 79.7258L28.0462 71.2838C27.9528 70.9945 27.8688 70.8125 27.7942 70.7378C27.7288 70.6538 27.6075 70.5932 27.4302 70.5558L26.8702 70.4438V69.9118H30.1882V70.4298L29.3902 70.5278C29.2222 70.5558 29.1148 70.6118 29.0682 70.6958C29.0215 70.7798 29.0402 70.9572 29.1242 71.2278L31.6022 78.6338H31.6442L34.1502 71.2978C34.2435 71.0365 34.2668 70.8545 34.2202 70.7518C34.1735 70.6492 34.0382 70.5792 33.8142 70.5418L33.0862 70.4158V69.9118H36.2222V70.4298L35.6202 70.5278C35.4522 70.5558 35.3262 70.6165 35.2422 70.7098C35.1675 70.8032 35.0788 70.9992 34.9762 71.2978L32.0082 79.7258H31.0002ZM37.6115 79.7258V79.2218L38.4235 79.0958C38.6009 79.0678 38.7175 79.0072 38.7735 78.9138C38.8295 78.8205 38.8575 78.6432 38.8575 78.3818V71.2278C38.8575 70.9945 38.8295 70.8358 38.7735 70.7518C38.7175 70.6585 38.5915 70.5932 38.3955 70.5558L37.6115 70.4298V69.9118H43.8555L44.3595 72.1378L43.7995 72.3058C43.6595 71.9138 43.5289 71.6012 43.4075 71.3678C43.2862 71.1345 43.1462 70.9618 42.9875 70.8498C42.8289 70.7285 42.6375 70.6492 42.4135 70.6118C42.1895 70.5745 41.9095 70.5558 41.5735 70.5558H39.8935V74.3778H41.5035C41.8209 74.3778 42.0542 74.3592 42.2035 74.3218C42.3529 74.2752 42.4649 74.1725 42.5395 74.0138C42.6142 73.8552 42.6889 73.5985 42.7635 73.2438L43.2675 73.1738V76.1698L42.7635 76.2538C42.7075 75.8992 42.6375 75.6378 42.5535 75.4698C42.4789 75.3018 42.3529 75.1945 42.1755 75.1478C42.0075 75.1012 41.7509 75.0778 41.4055 75.0778H39.8935V79.0818H42.0915C42.4182 79.0818 42.6889 79.0585 42.9035 79.0118C43.1182 78.9558 43.2955 78.8625 43.4355 78.7318C43.5849 78.5918 43.7062 78.4052 43.7995 78.1718C43.9022 77.9292 43.9909 77.6212 44.0655 77.2478H44.6535L44.3315 79.7258H37.6115ZM46.5869 79.7258V79.2218L47.3709 79.0958C47.5389 79.0772 47.6555 79.0165 47.7209 78.9138C47.7955 78.8112 47.8329 78.6338 47.8329 78.3818V71.2138C47.8329 70.9898 47.8049 70.8358 47.7489 70.7518C47.6929 70.6585 47.5669 70.5932 47.3709 70.5558L46.5869 70.4298V69.9118H49.1349L54.2029 78.1158V78.0598V71.2138C54.2029 70.9805 54.1749 70.8218 54.1189 70.7378C54.0629 70.6538 53.9369 70.5932 53.7409 70.5558L52.9709 70.4298V69.9118H56.2469V70.4298L55.4769 70.5558C55.2995 70.5838 55.1782 70.6445 55.1129 70.7378C55.0475 70.8218 55.0149 70.9898 55.0149 71.2418V79.7258H54.0069L48.6589 71.1018L48.6449 71.1578V78.4378C48.6449 78.6805 48.6775 78.8438 48.7429 78.9278C48.8082 79.0118 48.9249 79.0678 49.0929 79.0958L49.9049 79.2218V79.7258H46.5869ZM58.2829 79.7258V79.2218L59.0949 79.0958C59.2722 79.0678 59.3889 79.0072 59.4449 78.9138C59.5009 78.8205 59.5289 78.6432 59.5289 78.3818V71.2278C59.5289 70.9945 59.5009 70.8358 59.4449 70.7518C59.3889 70.6585 59.2629 70.5932 59.0669 70.5558L58.2829 70.4298V69.9118H62.1469C62.7815 69.9118 63.3602 69.9772 63.8829 70.1078C64.4149 70.2385 64.8769 70.4298 65.2689 70.6818C65.6702 70.9338 66.0062 71.2465 66.2769 71.6198C66.5569 71.9932 66.7669 72.4225 66.9069 72.9078C67.0469 73.3932 67.1169 73.9298 67.1169 74.5178C67.1169 75.3952 66.9955 76.1605 66.7529 76.8138C66.5102 77.4672 66.1602 78.0132 65.7029 78.4518C65.2549 78.8812 64.7089 79.2032 64.0649 79.4178C63.4209 79.6232 62.6929 79.7258 61.8809 79.7258H58.2829ZM61.7969 79.0818C62.4689 79.0818 63.0615 79.0025 63.5749 78.8438C64.0975 78.6852 64.5409 78.4332 64.9049 78.0878C65.2689 77.7332 65.5442 77.2758 65.7309 76.7158C65.9175 76.1465 66.0109 75.4605 66.0109 74.6578C66.0109 73.7525 65.8615 72.9965 65.5629 72.3898C65.2642 71.7738 64.8209 71.3165 64.2329 71.0178C63.6449 70.7098 62.9122 70.5558 62.0349 70.5558H60.5649V79.0118C60.6955 79.0305 60.8775 79.0492 61.1109 79.0678C61.3535 79.0772 61.5822 79.0818 61.7969 79.0818ZM73.3882 79.9218C72.4736 79.9218 71.6849 79.7165 71.0222 79.3058C70.3689 78.8952 69.8649 78.3212 69.5102 77.5838C69.1649 76.8465 68.9922 75.9785 68.9922 74.9798C68.9922 73.8785 69.1696 72.9405 69.5242 72.1658C69.8882 71.3818 70.4062 70.7798 71.0782 70.3598C71.7502 69.9305 72.5576 69.7158 73.5002 69.7158C74.3962 69.7158 75.1662 69.9165 75.8102 70.3178C76.4542 70.7192 76.9489 71.2885 77.2942 72.0258C77.6489 72.7538 77.8262 73.6172 77.8262 74.6158C77.8262 75.4185 77.7236 76.1465 77.5182 76.7998C77.3129 77.4532 77.0142 78.0132 76.6222 78.4798C76.2396 78.9465 75.7729 79.3058 75.2222 79.5578C74.6809 79.8005 74.0696 79.9218 73.3882 79.9218ZM73.5142 79.1518C74.0276 79.1518 74.4849 79.0585 74.8862 78.8718C75.2876 78.6758 75.6236 78.3912 75.8942 78.0178C76.1649 77.6352 76.3656 77.1732 76.4962 76.6318C76.6362 76.0905 76.7062 75.4745 76.7062 74.7838C76.7062 74.1025 76.6316 73.5005 76.4822 72.9778C76.3422 72.4458 76.1276 71.9932 75.8382 71.6198C75.5582 71.2372 75.2082 70.9525 74.7882 70.7658C74.3776 70.5698 73.8969 70.4718 73.3462 70.4718C72.8236 70.4718 72.3616 70.5698 71.9602 70.7658C71.5589 70.9525 71.2182 71.2325 70.9382 71.6058C70.6582 71.9698 70.4482 72.4178 70.3082 72.9498C70.1682 73.4818 70.0982 74.0885 70.0982 74.7698C70.0982 75.4418 70.1729 76.0485 70.3222 76.5898C70.4716 77.1312 70.6909 77.5932 70.9802 77.9758C71.2789 78.3585 71.6382 78.6525 72.0582 78.8578C72.4876 79.0538 72.9729 79.1518 73.5142 79.1518ZM87.2215 79.9218C86.9229 79.9218 86.6662 79.8705 86.4515 79.7678C86.2369 79.6745 86.0455 79.5158 85.8775 79.2918C85.7095 79.0678 85.5462 78.7645 85.3875 78.3818L84.6595 76.5198C84.5102 76.1558 84.3609 75.8805 84.2115 75.6938C84.0622 75.4978 83.8849 75.3672 83.6795 75.3018C83.4835 75.2365 83.2315 75.2038 82.9235 75.2038C82.7555 75.2038 82.6062 75.2085 82.4755 75.2178C82.3449 75.2178 82.2235 75.2272 82.1115 75.2458V78.4238C82.1115 78.6478 82.1442 78.8112 82.2095 78.9138C82.2842 79.0165 82.4195 79.0772 82.6155 79.0958L83.6655 79.2218V79.7258H79.8155V79.2218L80.6555 79.0958C80.8235 79.0678 80.9355 79.0118 80.9915 78.9278C81.0569 78.8345 81.0895 78.6525 81.0895 78.3818V71.2138C81.0895 70.9805 81.0569 70.8218 80.9915 70.7378C80.9262 70.6445 80.8002 70.5838 80.6135 70.5558L79.8155 70.4298V69.9118H83.0215C83.6469 69.9118 84.1929 69.9678 84.6595 70.0798C85.1262 70.1825 85.5089 70.3412 85.8075 70.5558C86.1155 70.7612 86.3442 71.0225 86.4935 71.3398C86.6429 71.6572 86.7175 72.0258 86.7175 72.4458C86.7175 72.6605 86.6849 72.8752 86.6195 73.0898C86.5635 73.3045 86.4749 73.5098 86.3535 73.7058C86.2322 73.9018 86.0782 74.0838 85.8915 74.2518C85.7049 74.4198 85.4855 74.5645 85.2335 74.6858C84.9909 74.8072 84.7155 74.8958 84.4075 74.9518V74.9938C84.7435 75.0872 85.0142 75.2412 85.2195 75.4558C85.4249 75.6612 85.5975 75.9412 85.7375 76.2958L86.2135 77.4718C86.3629 77.8265 86.4935 78.1298 86.6055 78.3818C86.7269 78.6338 86.8622 78.8298 87.0115 78.9698C87.1702 79.1005 87.3709 79.1658 87.6135 79.1658C87.7442 79.1658 87.8655 79.1518 87.9775 79.1238C88.0989 79.0958 88.2202 79.0585 88.3415 79.0118L88.4535 79.4178C88.2949 79.5765 88.1082 79.6978 87.8935 79.7818C87.6882 79.8752 87.4642 79.9218 87.2215 79.9218ZM83.0635 74.6018C83.5582 74.6018 83.9969 74.5272 84.3795 74.3778C84.7622 74.2192 85.0655 73.9812 85.2895 73.6638C85.5135 73.3465 85.6255 72.9545 85.6255 72.4878C85.6255 72.0212 85.5229 71.6478 85.3175 71.3678C85.1122 71.0878 84.8135 70.8872 84.4215 70.7658C84.0295 70.6352 83.5489 70.5698 82.9795 70.5698H82.1115V74.5738C82.3542 74.5832 82.5502 74.5925 82.6995 74.6018C82.8489 74.6018 82.9702 74.6018 83.0635 74.6018ZM94.6106 79.7258V79.2218L95.7446 79.0538C95.8939 79.0258 96.0059 78.9698 96.0806 78.8858C96.1646 78.7925 96.2066 78.6198 96.2066 78.3678V70.5558H95.2126C94.8766 70.5558 94.5966 70.5838 94.3726 70.6398C94.1486 70.6865 93.9572 70.7892 93.7986 70.9478C93.6399 71.1065 93.4952 71.3352 93.3646 71.6338C93.2339 71.9232 93.0892 72.3152 92.9306 72.8098L92.3706 72.6698L92.9166 69.9118H100.547L101.079 72.6698L100.519 72.8098C100.36 72.3152 100.215 71.9232 100.085 71.6338C99.9539 71.3352 99.8092 71.1065 99.6506 70.9478C99.4919 70.7892 99.3006 70.6865 99.0766 70.6398C98.8526 70.5838 98.5772 70.5558 98.2506 70.5558H97.2426V78.4238C97.2426 78.6478 97.2706 78.8018 97.3266 78.8858C97.3919 78.9605 97.5226 79.0165 97.7186 79.0538L98.8246 79.2218V79.7258H94.6106ZM104.709 79.7258V79.2218L105.549 79.0958C105.726 79.0678 105.843 79.0072 105.899 78.9138C105.955 78.8205 105.983 78.6432 105.983 78.3818V75.4978L103.407 71.2558C103.285 71.0598 103.164 70.9012 103.043 70.7798C102.931 70.6585 102.772 70.5792 102.567 70.5418L102.021 70.4438V69.9118H105.563V70.4298L104.835 70.4998C104.611 70.5278 104.475 70.6072 104.429 70.7378C104.391 70.8592 104.429 71.0178 104.541 71.2138L106.655 74.7558H106.697L108.755 71.2698C108.885 71.0645 108.927 70.8965 108.881 70.7658C108.834 70.6352 108.699 70.5558 108.475 70.5278L107.859 70.4158V69.9118H111.107V70.4298L110.309 70.5418C110.15 70.5698 110.019 70.6352 109.917 70.7378C109.823 70.8312 109.693 71.0225 109.525 71.3118L107.019 75.5118V78.4378C107.019 78.6712 107.047 78.8345 107.103 78.9278C107.168 79.0118 107.289 79.0678 107.467 79.0958L108.279 79.2218V79.7258H104.709ZM112.422 79.7258V79.2218L113.234 79.0958C113.411 79.0678 113.528 79.0072 113.584 78.9138C113.64 78.8205 113.668 78.6432 113.668 78.3818V71.2138C113.668 70.9805 113.635 70.8218 113.57 70.7378C113.505 70.6445 113.379 70.5838 113.192 70.5558L112.422 70.4298V69.9118H115.684C116.16 69.9118 116.589 69.9492 116.972 70.0238C117.364 70.0985 117.705 70.2105 117.994 70.3598C118.283 70.4998 118.526 70.6818 118.722 70.9058C118.918 71.1205 119.063 71.3772 119.156 71.6758C119.259 71.9652 119.31 72.2965 119.31 72.6698C119.31 73.0432 119.263 73.3885 119.17 73.7058C119.077 74.0232 118.937 74.3078 118.75 74.5598C118.573 74.8118 118.344 75.0265 118.064 75.2038C117.784 75.3718 117.457 75.5025 117.084 75.5958C116.72 75.6892 116.305 75.7358 115.838 75.7358C115.567 75.7358 115.334 75.7312 115.138 75.7218C114.951 75.7032 114.807 75.6892 114.704 75.6798V78.4238C114.704 78.6478 114.737 78.8112 114.802 78.9138C114.877 79.0165 115.017 79.0772 115.222 79.0958L116.314 79.2218V79.7258H112.422ZM115.698 75.0778C116.519 75.0778 117.14 74.8912 117.56 74.5178C117.989 74.1445 118.204 73.5472 118.204 72.7258C118.204 72.1938 118.101 71.7692 117.896 71.4518C117.7 71.1345 117.411 70.9058 117.028 70.7658C116.645 70.6258 116.169 70.5558 115.6 70.5558H114.704V75.0218C114.816 75.0405 114.951 75.0545 115.11 75.0638C115.278 75.0732 115.474 75.0778 115.698 75.0778ZM120.905 79.7258V79.2218L121.717 79.0958C121.894 79.0678 122.011 79.0072 122.067 78.9138C122.123 78.8205 122.151 78.6432 122.151 78.3818V71.2278C122.151 70.9945 122.123 70.8358 122.067 70.7518C122.011 70.6585 121.885 70.5932 121.689 70.5558L120.905 70.4298V69.9118H127.149L127.653 72.1378L127.093 72.3058C126.953 71.9138 126.822 71.6012 126.701 71.3678C126.58 71.1345 126.44 70.9618 126.281 70.8498C126.122 70.7285 125.931 70.6492 125.707 70.6118C125.483 70.5745 125.203 70.5558 124.867 70.5558H123.187V74.3778H124.797C125.114 74.3778 125.348 74.3592 125.497 74.3218C125.646 74.2752 125.758 74.1725 125.833 74.0138C125.908 73.8552 125.982 73.5985 126.057 73.2438L126.561 73.1738V76.1698L126.057 76.2538C126.001 75.8992 125.931 75.6378 125.847 75.4698C125.772 75.3018 125.646 75.1945 125.469 75.1478C125.301 75.1012 125.044 75.0778 124.699 75.0778H123.187V79.0818H125.385C125.712 79.0818 125.982 79.0585 126.197 79.0118C126.412 78.9558 126.589 78.8625 126.729 78.7318C126.878 78.5918 127 78.4052 127.093 78.1718C127.196 77.9292 127.284 77.6212 127.359 77.2478H127.947L127.625 79.7258H120.905Z" fill="#47567B"/>
<path d="M231.383 15.7751C231.965 14.096 231.477 12.228 230.719 10.6189C229.777 8.62592 228.345 6.77005 226.349 5.8345C224.353 4.89895 221.738 5.09398 220.22 6.69387C218.843 8.14748 218.642 10.3812 219.023 12.3468C219.855 16.6254 222.945 20.0567 225.91 23.2504C229.548 27.1694 233.187 31.0883 236.823 35.0043" fill="#CCD7E6"/>
<path d="M232.696 17.3111C234.113 12.2889 231.766 5.20677 226.75 2.89683C224.767 1.98261 222.271 1.95519 220.43 3.22291C218.248 4.72223 217.462 7.50451 217.349 10.0217C217.099 15.6258 220.177 20.3828 223.77 24.3902C227.79 28.8729 231.958 33.2277 236.054 37.6372C236.984 38.6398 237.861 37.4696 238.139 36.5432C238.498 35.3426 238.52 33.3709 237.593 32.3744C234.628 29.1807 231.666 25.9901 228.701 22.7964C226.135 20.0324 223.209 17.2958 221.442 13.9193C220.918 12.9167 220.086 11.3686 220.436 10.1954C220.86 8.78747 222.643 8.29379 223.932 8.31817C225.516 8.35169 226.939 9.13182 228 10.2837C228.719 11.0639 230.377 13.13 230.066 14.2332C229.725 15.44 229.645 17.433 230.611 18.402C231.578 19.3711 232.422 18.2862 232.696 17.308V17.3111Z" fill="#CCD7E6"/>
<path d="M237.099 34.9464C240.466 31.7467 243.569 28.2665 246.363 24.5548C247.189 23.4608 247.99 22.3332 248.542 21.0777C249.383 19.1548 249.59 17.0216 249.788 14.9311C249.974 12.9564 250.154 10.9268 249.602 9.02216C248.649 5.73401 245.44 3.30218 242.024 3.03705C238.607 2.77193 235.173 4.55161 233.204 7.35218C231.236 10.1527 230.709 13.8553 231.556 17.174" fill="#CCD7E6"/>
<path d="M237.871 37.5763C241.521 34.084 244.998 30.29 247.893 26.1424C250.788 21.9949 251.596 16.6894 251.495 11.6764C251.407 7.15405 249.509 2.6317 245.12 0.763645C241.122 -0.936807 236.682 0.330913 233.65 3.29604C229.636 7.21805 229.024 13.5048 230.246 18.7068C230.484 19.7155 231.401 20.715 232.33 19.8008C233.318 18.8287 233.156 16.8265 232.876 15.6319C230.953 7.43441 243.996 2.11365 247.97 9.79615C248.838 11.4753 248.387 13.6359 248.189 15.4278C247.942 17.6706 247.394 19.4564 246.056 21.3001C243.179 25.2678 239.87 28.9308 236.332 32.3134C234.948 33.6391 235.856 39.5023 237.871 37.5763Z" fill="#CCD7E6"/>
<path d="M224.654 31.6919C224.572 31.5822 224.523 31.4968 224.456 31.4328C223.481 30.4455 222.499 29.4642 221.53 28.4708C218.724 25.6001 216.371 22.379 214.21 19.0086C213.817 18.396 213.488 17.7378 213.19 17.0735C211.773 13.9286 212.163 10.8446 213.607 7.83374C214.296 6.39537 215.362 5.27697 216.721 4.42674C218.651 3.21692 220.744 2.55259 223.014 2.57392C226.473 2.60439 228.823 4.51207 230.423 7.36749C231.575 9.42449 232.135 11.7131 232.248 14.084C232.416 17.6525 231.8 21.1235 230.801 24.5305C230.343 26.0877 229.536 27.4804 228.643 28.8243C228.052 29.7141 227.439 30.5918 226.799 31.5273C228.515 33.4624 230.59 35.0075 232.44 36.845C234.439 34.7088 236.792 33.0297 238.721 30.8691C238.571 30.6466 238.456 30.4638 238.328 30.2901C235.198 25.9841 234.363 23.9484 233.568 18.6856C233.187 16.1653 233.056 13.6451 233.561 11.1249C233.851 9.68656 234.259 8.27257 234.942 6.97742C236.341 4.32313 238.398 2.46421 241.463 1.97663C242.883 1.75112 244.291 1.9553 245.654 2.36365C248.229 3.13464 250.459 4.43589 251.758 6.90428C253.635 10.4758 253.76 14.0779 251.727 17.6464C251.246 18.4905 250.721 19.3194 250.158 20.1117C248.533 22.3942 246.94 24.7011 244.995 26.7307C243.7 28.0868 242.381 29.4185 241.07 30.7624C241.006 30.8295 240.951 30.9087 240.851 31.0336C241.04 31.2348 241.213 31.4328 241.396 31.6157C243.603 33.7976 246.193 35.431 248.936 36.8389C252.687 38.7619 256.655 40.0783 260.778 40.9255C262.326 41.2424 263.889 41.4923 265.456 41.7239C268.274 42.1414 271.096 42.5376 273.921 42.9094C277.712 43.4091 281.503 43.912 285.3 44.3477C286.772 44.5154 288.265 44.5397 289.75 44.5763C292.623 44.6433 295.497 44.6891 298.371 44.7134C299.879 44.7256 301.235 44.9024 302.747 44.8963C303.792 44.8932 304.913 45.1187 305.959 45.1248C306.495 45.1248 307.818 45.2467 308.354 45.2498C308.863 45.2528 309.914 45.3046 310.42 45.3686L310.393 46.5602C309.704 46.6211 309.101 46.615 308.4 46.6242C304.6 46.6668 300.095 46.1488 296.295 46.1305C293.3 46.1152 290.304 45.9964 287.309 45.9385C284.889 45.8928 282.509 45.4966 280.12 45.1705C277.49 44.811 274.854 44.4971 272.224 44.1436C269.064 43.72 265.885 43.3756 262.746 42.8179C256.539 41.7148 250.606 39.798 245.218 36.4154C243.374 35.2573 241.64 33.9652 240.119 32.4019C240.034 32.3135 239.946 32.2313 239.854 32.152C239.821 32.1246 239.769 32.1155 239.681 32.0819C239.571 32.1734 239.44 32.277 239.318 32.3897C237.532 34.0475 235.753 35.7084 233.964 37.3631C233.644 37.6587 233.296 37.9269 232.949 38.195C232.559 38.4998 232.221 38.5059 231.809 38.2194C231.651 38.1097 231.511 37.9695 231.37 37.8354C229.585 36.1777 227.802 34.5199 226.016 32.8651C225.964 32.8164 225.897 32.7889 225.797 32.728C225.693 32.8133 225.574 32.8895 225.477 32.987C223.1 35.4249 220.281 37.2351 217.276 38.7801C213.461 40.7396 209.423 42.0652 205.239 42.9825C203.429 43.3787 201.609 43.6773 199.766 43.8937C197.422 44.171 195.091 44.5641 192.748 44.881C189.779 45.2833 186.799 45.6094 183.84 46.0573C180.576 46.551 177.294 46.6882 174.006 46.7064C169.161 46.7339 164.312 46.7278 159.464 46.7156C158.394 46.7156 157.325 46.6455 156.255 46.5998C155.929 46.5876 155.606 46.5541 155.581 46.1122C155.563 45.7465 155.731 45.5027 156.182 45.4204C156.608 45.3412 157.05 45.3138 157.486 45.3168C164.184 45.3686 170.882 45.3656 177.578 45.1645C179.601 45.1035 181.609 44.8963 183.614 44.6098C186.604 44.1832 189.603 43.8297 192.595 43.4274C195.804 42.9977 199.028 42.6412 202.216 42.0896C208.457 41.0108 214.415 39.1032 219.802 35.6596C221.366 34.66 222.847 33.5538 224.16 32.2343C224.328 32.0637 224.486 31.8839 224.657 31.6949L224.654 31.6919ZM239.827 29.9152C240.293 29.4825 240.665 29.1717 241 28.8212C243.161 26.5753 245.364 24.369 247.132 21.7817C248.189 20.2367 249.329 18.7435 250.313 17.1497C251.733 14.8489 252.105 12.3805 251.346 9.72009C250.621 7.18465 249.146 5.36839 246.741 4.3018C245.157 3.59785 243.499 3.19254 241.768 3.40586C239.266 3.7167 237.557 5.2465 236.386 7.3553C235.399 9.13803 234.826 11.1067 234.75 13.1454C234.555 18.3839 235.423 24.2928 239.263 29.0955C239.385 29.2479 239.498 29.4063 239.611 29.5648C239.668 29.644 239.714 29.7293 239.827 29.9091V29.9152ZM225.705 30.5674C226.513 29.3515 227.269 28.2514 227.982 27.1269C228.862 25.7372 229.499 24.2349 229.819 22.6198C230.151 20.9498 230.487 19.2767 230.694 17.5885C231.069 14.5137 230.703 11.5241 229.457 8.65654C228.75 7.03227 227.592 5.81941 226.135 4.87471C225.282 4.32313 224.316 4.02753 223.298 4.03972C222.499 4.04887 221.686 4.10372 220.909 4.26523C219.01 4.65835 217.276 5.45981 215.978 6.92866C214.299 8.8272 213.689 11.1554 213.793 13.633C213.866 15.3669 214.594 16.9242 215.524 18.3839C218.135 22.4887 221.195 26.2279 224.663 29.6349C224.956 29.9213 225.273 30.1834 225.699 30.5674H225.705Z" fill="#47567B"/>
<path d="M177.896 79.7258V79.2218L178.708 79.0958C178.885 79.0678 179.002 79.0072 179.058 78.9138C179.114 78.8205 179.142 78.6432 179.142 78.3818V71.2278C179.142 70.9852 179.109 70.8218 179.044 70.7378C178.988 70.6445 178.867 70.5838 178.68 70.5558L177.896 70.4298V69.9118H181.326C182.063 69.9118 182.684 69.9912 183.188 70.1498C183.701 70.2992 184.089 70.5418 184.35 70.8778C184.611 71.2045 184.742 71.6478 184.742 72.2078C184.742 72.5718 184.658 72.9078 184.49 73.2158C184.322 73.5238 184.084 73.7852 183.776 73.9998C183.468 74.2145 183.104 74.3732 182.684 74.4758V74.5318C183.58 74.6158 184.238 74.8678 184.658 75.2878C185.087 75.6985 185.302 76.2585 185.302 76.9678C185.302 77.5932 185.139 78.1112 184.812 78.5218C184.495 78.9325 184.042 79.2358 183.454 79.4318C182.866 79.6278 182.171 79.7258 181.368 79.7258H177.896ZM181.27 79.0818C181.886 79.0818 182.413 79.0072 182.852 78.8578C183.291 78.7085 183.622 78.4798 183.846 78.1718C184.079 77.8545 184.196 77.4438 184.196 76.9398C184.196 76.5105 184.098 76.1465 183.902 75.8478C183.706 75.5492 183.403 75.3205 182.992 75.1618C182.591 75.0032 182.068 74.9238 181.424 74.9238C180.827 74.9238 180.411 74.9378 180.178 74.9658V79.0118C180.281 79.0212 180.43 79.0352 180.626 79.0538C180.822 79.0725 181.037 79.0818 181.27 79.0818ZM181.102 74.2938C181.625 74.2938 182.073 74.2145 182.446 74.0558C182.829 73.8972 183.123 73.6685 183.328 73.3698C183.533 73.0618 183.636 72.6932 183.636 72.2638C183.636 71.8438 183.552 71.5078 183.384 71.2558C183.216 71.0038 182.955 70.8265 182.6 70.7238C182.255 70.6118 181.802 70.5558 181.242 70.5558H180.178V74.2658C180.271 74.2752 180.388 74.2845 180.528 74.2938C180.668 74.2938 180.859 74.2938 181.102 74.2938ZM191.739 79.9218C191.114 79.9218 190.568 79.8425 190.101 79.6838C189.644 79.5158 189.266 79.2732 188.967 78.9558C188.678 78.6292 188.463 78.2185 188.323 77.7238C188.183 77.2292 188.113 76.6552 188.113 76.0018V71.2138C188.113 70.9805 188.08 70.8218 188.015 70.7378C187.959 70.6445 187.838 70.5838 187.651 70.5558L186.839 70.4298V69.9118H190.395V70.4298L189.569 70.5558C189.401 70.5838 189.289 70.6492 189.233 70.7518C189.177 70.8452 189.149 71.0178 189.149 71.2698V75.9318C189.149 76.6692 189.238 77.2758 189.415 77.7518C189.602 78.2278 189.896 78.5778 190.297 78.8018C190.708 79.0258 191.244 79.1378 191.907 79.1378C192.532 79.1378 193.05 79.0165 193.461 78.7738C193.872 78.5218 194.18 78.1485 194.385 77.6538C194.6 77.1592 194.707 76.5385 194.707 75.7918V71.2138C194.707 70.9805 194.674 70.8218 194.609 70.7378C194.553 70.6445 194.432 70.5838 194.245 70.5558L193.461 70.4298V69.9118H196.751V70.4298L195.939 70.5558C195.771 70.5838 195.659 70.6445 195.603 70.7378C195.547 70.8312 195.519 71.0085 195.519 71.2698V75.5538C195.519 76.4872 195.388 77.2805 195.127 77.9338C194.866 78.5872 194.455 79.0818 193.895 79.4178C193.335 79.7538 192.616 79.9218 191.739 79.9218ZM201.832 79.9218C201.319 79.9218 200.833 79.8285 200.376 79.6418C199.928 79.4458 199.559 79.1985 199.27 78.8998L199.088 79.8098H198.612L198.318 76.7158L198.878 76.6598C199.018 77.1078 199.186 77.4952 199.382 77.8218C199.587 78.1392 199.816 78.4005 200.068 78.6058C200.32 78.8112 200.591 78.9652 200.88 79.0678C201.169 79.1612 201.473 79.2078 201.79 79.2078C202.163 79.2078 202.499 79.1425 202.798 79.0118C203.097 78.8812 203.335 78.6758 203.512 78.3958C203.689 78.1158 203.778 77.7565 203.778 77.3178C203.778 76.9912 203.713 76.7018 203.582 76.4498C203.461 76.1885 203.237 75.9505 202.91 75.7358C202.583 75.5118 202.121 75.3065 201.524 75.1198C200.983 74.9425 200.53 74.7605 200.166 74.5738C199.802 74.3778 199.508 74.1725 199.284 73.9578C199.069 73.7338 198.915 73.4818 198.822 73.2018C198.729 72.9218 198.682 72.6092 198.682 72.2638C198.682 71.9372 198.729 71.6432 198.822 71.3818C198.915 71.1112 199.046 70.8732 199.214 70.6678C199.391 70.4625 199.597 70.2898 199.83 70.1498C200.073 70.0098 200.334 69.9025 200.614 69.8278C200.903 69.7532 201.207 69.7158 201.524 69.7158C201.907 69.7158 202.275 69.7858 202.63 69.9258C202.985 70.0658 203.307 70.2572 203.596 70.4998L203.792 69.7158H204.268L204.576 72.4878L204.002 72.5718C203.834 72.0492 203.629 71.6292 203.386 71.3118C203.153 70.9945 202.882 70.7612 202.574 70.6118C202.266 70.4625 201.916 70.3878 201.524 70.3878C200.983 70.3878 200.544 70.5325 200.208 70.8218C199.881 71.1112 199.718 71.5078 199.718 72.0118C199.718 72.3292 199.779 72.6138 199.9 72.8658C200.031 73.1085 200.259 73.3325 200.586 73.5378C200.913 73.7338 201.37 73.9345 201.958 74.1398C202.518 74.3172 202.98 74.5132 203.344 74.7278C203.717 74.9332 204.007 75.1572 204.212 75.3998C204.427 75.6425 204.576 75.9038 204.66 76.1838C204.753 76.4545 204.8 76.7532 204.8 77.0798C204.8 77.4998 204.73 77.8825 204.59 78.2278C204.45 78.5732 204.249 78.8718 203.988 79.1238C203.727 79.3758 203.414 79.5718 203.05 79.7118C202.686 79.8518 202.28 79.9218 201.832 79.9218ZM206.75 79.7258V79.2218L207.59 79.0958C207.767 79.0678 207.884 79.0072 207.94 78.9138C207.996 78.8205 208.024 78.6432 208.024 78.3818V71.2138C208.024 70.9805 207.991 70.8218 207.926 70.7378C207.87 70.6445 207.748 70.5838 207.562 70.5558L206.75 70.4298V69.9118H210.334V70.4298L209.48 70.5558C209.312 70.5838 209.2 70.6492 209.144 70.7518C209.088 70.8452 209.06 71.0178 209.06 71.2698V78.4378C209.06 78.6712 209.088 78.8345 209.144 78.9278C209.209 79.0118 209.33 79.0678 209.508 79.0958L210.334 79.2218V79.7258H206.75ZM212.403 79.7258V79.2218L213.187 79.0958C213.355 79.0772 213.471 79.0165 213.537 78.9138C213.611 78.8112 213.649 78.6338 213.649 78.3818V71.2138C213.649 70.9898 213.621 70.8358 213.565 70.7518C213.509 70.6585 213.383 70.5932 213.187 70.5558L212.403 70.4298V69.9118H214.951L220.019 78.1158V78.0598V71.2138C220.019 70.9805 219.991 70.8218 219.935 70.7378C219.879 70.6538 219.753 70.5932 219.557 70.5558L218.787 70.4298V69.9118H222.063V70.4298L221.293 70.5558C221.115 70.5838 220.994 70.6445 220.929 70.7378C220.863 70.8218 220.831 70.9898 220.831 71.2418V79.7258H219.823L214.475 71.1018L214.461 71.1578V78.4378C214.461 78.6805 214.493 78.8438 214.559 78.9278C214.624 79.0118 214.741 79.0678 214.909 79.0958L215.721 79.2218V79.7258H212.403ZM224.099 79.7258V79.2218L224.911 79.0958C225.088 79.0678 225.205 79.0072 225.261 78.9138C225.317 78.8205 225.345 78.6432 225.345 78.3818V71.2278C225.345 70.9945 225.317 70.8358 225.261 70.7518C225.205 70.6585 225.079 70.5932 224.883 70.5558L224.099 70.4298V69.9118H230.343L230.847 72.1378L230.287 72.3058C230.147 71.9138 230.016 71.6012 229.895 71.3678C229.773 71.1345 229.633 70.9618 229.475 70.8498C229.316 70.7285 229.125 70.6492 228.901 70.6118C228.677 70.5745 228.397 70.5558 228.061 70.5558H226.381V74.3778H227.991C228.308 74.3778 228.541 74.3592 228.691 74.3218C228.84 74.2752 228.952 74.1725 229.027 74.0138C229.101 73.8552 229.176 73.5985 229.251 73.2438L229.755 73.1738V76.1698L229.251 76.2538C229.195 75.8992 229.125 75.6378 229.041 75.4698C228.966 75.3018 228.84 75.1945 228.663 75.1478C228.495 75.1012 228.238 75.0778 227.893 75.0778H226.381V79.0818H228.579C228.905 79.0818 229.176 79.0585 229.391 79.0118C229.605 78.9558 229.783 78.8625 229.923 78.7318C230.072 78.5918 230.193 78.4052 230.287 78.1718C230.389 77.9292 230.478 77.6212 230.553 77.2478H231.141L230.819 79.7258H224.099ZM236.448 79.9218C235.935 79.9218 235.449 79.8285 234.992 79.6418C234.544 79.4458 234.175 79.1985 233.886 78.8998L233.704 79.8098H233.228L232.934 76.7158L233.494 76.6598C233.634 77.1078 233.802 77.4952 233.998 77.8218C234.203 78.1392 234.432 78.4005 234.684 78.6058C234.936 78.8112 235.207 78.9652 235.496 79.0678C235.785 79.1612 236.089 79.2078 236.406 79.2078C236.779 79.2078 237.115 79.1425 237.414 79.0118C237.713 78.8812 237.951 78.6758 238.128 78.3958C238.305 78.1158 238.394 77.7565 238.394 77.3178C238.394 76.9912 238.329 76.7018 238.198 76.4498C238.077 76.1885 237.853 75.9505 237.526 75.7358C237.199 75.5118 236.737 75.3065 236.14 75.1198C235.599 74.9425 235.146 74.7605 234.782 74.5738C234.418 74.3778 234.124 74.1725 233.9 73.9578C233.685 73.7338 233.531 73.4818 233.438 73.2018C233.345 72.9218 233.298 72.6092 233.298 72.2638C233.298 71.9372 233.345 71.6432 233.438 71.3818C233.531 71.1112 233.662 70.8732 233.83 70.6678C234.007 70.4625 234.213 70.2898 234.446 70.1498C234.689 70.0098 234.95 69.9025 235.23 69.8278C235.519 69.7532 235.823 69.7158 236.14 69.7158C236.523 69.7158 236.891 69.7858 237.246 69.9258C237.601 70.0658 237.923 70.2572 238.212 70.4998L238.408 69.7158H238.884L239.192 72.4878L238.618 72.5718C238.45 72.0492 238.245 71.6292 238.002 71.3118C237.769 70.9945 237.498 70.7612 237.19 70.6118C236.882 70.4625 236.532 70.3878 236.14 70.3878C235.599 70.3878 235.16 70.5325 234.824 70.8218C234.497 71.1112 234.334 71.5078 234.334 72.0118C234.334 72.3292 234.395 72.6138 234.516 72.8658C234.647 73.1085 234.875 73.3325 235.202 73.5378C235.529 73.7338 235.986 73.9345 236.574 74.1398C237.134 74.3172 237.596 74.5132 237.96 74.7278C238.333 74.9332 238.623 75.1572 238.828 75.3998C239.043 75.6425 239.192 75.9038 239.276 76.1838C239.369 76.4545 239.416 76.7532 239.416 77.0798C239.416 77.4998 239.346 77.8825 239.206 78.2278C239.066 78.5732 238.865 78.8718 238.604 79.1238C238.343 79.3758 238.03 79.5718 237.666 79.7118C237.302 79.8518 236.896 79.9218 236.448 79.9218ZM244.74 79.9218C244.226 79.9218 243.741 79.8285 243.284 79.6418C242.836 79.4458 242.467 79.1985 242.178 78.8998L241.996 79.8098H241.52L241.226 76.7158L241.786 76.6598C241.926 77.1078 242.094 77.4952 242.29 77.8218C242.495 78.1392 242.724 78.4005 242.976 78.6058C243.228 78.8112 243.498 78.9652 243.788 79.0678C244.077 79.1612 244.38 79.2078 244.698 79.2078C245.071 79.2078 245.407 79.1425 245.706 79.0118C246.004 78.8812 246.242 78.6758 246.42 78.3958C246.597 78.1158 246.686 77.7565 246.686 77.3178C246.686 76.9912 246.62 76.7018 246.49 76.4498C246.368 76.1885 246.144 75.9505 245.818 75.7358C245.491 75.5118 245.029 75.3065 244.432 75.1198C243.89 74.9425 243.438 74.7605 243.074 74.5738C242.71 74.3778 242.416 74.1725 242.192 73.9578C241.977 73.7338 241.823 73.4818 241.73 73.2018C241.636 72.9218 241.59 72.6092 241.59 72.2638C241.59 71.9372 241.636 71.6432 241.73 71.3818C241.823 71.1112 241.954 70.8732 242.122 70.6678C242.299 70.4625 242.504 70.2898 242.738 70.1498C242.98 70.0098 243.242 69.9025 243.522 69.8278C243.811 69.7532 244.114 69.7158 244.432 69.7158C244.814 69.7158 245.183 69.7858 245.538 69.9258C245.892 70.0658 246.214 70.2572 246.504 70.4998L246.7 69.7158H247.176L247.484 72.4878L246.91 72.5718C246.742 72.0492 246.536 71.6292 246.294 71.3118C246.06 70.9945 245.79 70.7612 245.482 70.6118C245.174 70.4625 244.824 70.3878 244.432 70.3878C243.89 70.3878 243.452 70.5325 243.116 70.8218C242.789 71.1112 242.626 71.5078 242.626 72.0118C242.626 72.3292 242.686 72.6138 242.808 72.8658C242.938 73.1085 243.167 73.3325 243.494 73.5378C243.82 73.7338 244.278 73.9345 244.866 74.1398C245.426 74.3172 245.888 74.5132 246.252 74.7278C246.625 74.9332 246.914 75.1572 247.12 75.3998C247.334 75.6425 247.484 75.9038 247.568 76.1838C247.661 76.4545 247.708 76.7532 247.708 77.0798C247.708 77.4998 247.638 77.8825 247.498 78.2278C247.358 78.5732 247.157 78.8718 246.896 79.1238C246.634 79.3758 246.322 79.5718 245.958 79.7118C245.594 79.8518 245.188 79.9218 244.74 79.9218ZM252.672 79.7258V79.2218L253.512 79.0958C253.689 79.0678 253.806 79.0072 253.862 78.9138C253.918 78.8205 253.946 78.6432 253.946 78.3818V71.2138C253.946 70.9805 253.913 70.8218 253.848 70.7378C253.792 70.6445 253.671 70.5838 253.484 70.5558L252.672 70.4298V69.9118H256.256V70.4298L255.402 70.5558C255.234 70.5838 255.122 70.6492 255.066 70.7518C255.01 70.8452 254.982 71.0178 254.982 71.2698V78.4378C254.982 78.6712 255.01 78.8345 255.066 78.9278C255.131 79.0118 255.253 79.0678 255.43 79.0958L256.256 79.2218V79.7258H252.672ZM258.325 79.7258V79.2218L259.109 79.0958C259.277 79.0772 259.394 79.0165 259.459 78.9138C259.534 78.8112 259.571 78.6338 259.571 78.3818V71.2138C259.571 70.9898 259.543 70.8358 259.487 70.7518C259.431 70.6585 259.305 70.5932 259.109 70.5558L258.325 70.4298V69.9118H260.873L265.941 78.1158V78.0598V71.2138C265.941 70.9805 265.913 70.8218 265.857 70.7378C265.801 70.6538 265.675 70.5932 265.479 70.5558L264.709 70.4298V69.9118H267.985V70.4298L267.215 70.5558C267.038 70.5838 266.916 70.6445 266.851 70.7378C266.786 70.8218 266.753 70.9898 266.753 71.2418V79.7258H265.745L260.397 71.1018L260.383 71.1578V78.4378C260.383 78.6805 260.416 78.8438 260.481 78.9278C260.546 79.0118 260.663 79.0678 260.831 79.0958L261.643 79.2218V79.7258H258.325ZM270.021 79.7258V79.2218L270.833 79.0958C271.01 79.0678 271.127 79.0072 271.183 78.9138C271.239 78.8112 271.267 78.6338 271.267 78.3818V71.2138C271.267 70.9898 271.239 70.8358 271.183 70.7518C271.127 70.6585 270.996 70.5932 270.791 70.5558L270.021 70.4298V69.9118H276.335L276.839 72.2358L276.265 72.4318C276.125 72.0025 275.99 71.6665 275.859 71.4238C275.728 71.1718 275.584 70.9852 275.425 70.8638C275.266 70.7332 275.075 70.6492 274.851 70.6118C274.636 70.5745 274.361 70.5558 274.025 70.5558H272.303V74.6018H273.829C274.156 74.6018 274.398 74.5832 274.557 74.5458C274.716 74.4992 274.828 74.3965 274.893 74.2378C274.968 74.0698 275.038 73.8085 275.103 73.4538L275.607 73.3838V76.5758L275.103 76.6598C275.047 76.2305 274.977 75.9225 274.893 75.7358C274.818 75.5398 274.697 75.4185 274.529 75.3718C274.37 75.3158 274.118 75.2878 273.773 75.2878H272.303V78.4098C272.303 78.6525 272.34 78.8252 272.415 78.9278C272.49 79.0212 272.625 79.0772 272.821 79.0958L273.913 79.2218V79.7258H270.021ZM282.843 79.9218C281.928 79.9218 281.14 79.7165 280.477 79.3058C279.824 78.8952 279.32 78.3212 278.965 77.5838C278.62 76.8465 278.447 75.9785 278.447 74.9798C278.447 73.8785 278.624 72.9405 278.979 72.1658C279.343 71.3818 279.861 70.7798 280.533 70.3598C281.205 69.9305 282.012 69.7158 282.955 69.7158C283.851 69.7158 284.621 69.9165 285.265 70.3178C285.909 70.7192 286.404 71.2885 286.749 72.0258C287.104 72.7538 287.281 73.6172 287.281 74.6158C287.281 75.4185 287.178 76.1465 286.973 76.7998C286.768 77.4532 286.469 78.0132 286.077 78.4798C285.694 78.9465 285.228 79.3058 284.677 79.5578C284.136 79.8005 283.524 79.9218 282.843 79.9218ZM282.969 79.1518C283.482 79.1518 283.94 79.0585 284.341 78.8718C284.742 78.6758 285.078 78.3912 285.349 78.0178C285.62 77.6352 285.82 77.1732 285.951 76.6318C286.091 76.0905 286.161 75.4745 286.161 74.7838C286.161 74.1025 286.086 73.5005 285.937 72.9778C285.797 72.4458 285.582 71.9932 285.293 71.6198C285.013 71.2372 284.663 70.9525 284.243 70.7658C283.832 70.5698 283.352 70.4718 282.801 70.4718C282.278 70.4718 281.816 70.5698 281.415 70.7658C281.014 70.9525 280.673 71.2325 280.393 71.6058C280.113 71.9698 279.903 72.4178 279.763 72.9498C279.623 73.4818 279.553 74.0885 279.553 74.7698C279.553 75.4418 279.628 76.0485 279.777 76.5898C279.926 77.1312 280.146 77.5932 280.435 77.9758C280.734 78.3585 281.093 78.6525 281.513 78.8578C281.942 79.0538 282.428 79.1518 282.969 79.1518Z" fill="#47567B"/>
<path d="M386.223 15.7751C386.805 14.096 386.317 12.228 385.558 10.6189C384.617 8.62592 383.184 6.77005 381.188 5.8345C379.192 4.89895 376.578 5.09398 375.06 6.69387C373.683 8.14748 373.482 10.3812 373.862 12.3468C374.694 16.6254 377.784 20.0567 380.75 23.2504C384.388 27.1694 388.027 31.0883 391.662 35.0043" fill="#667593"/>
<path d="M387.536 17.3111C388.953 12.2889 386.606 5.20677 381.59 2.89683C379.606 1.98261 377.111 1.95519 375.27 3.22291C373.088 4.72223 372.302 7.50451 372.189 10.0217C371.939 15.6258 375.017 20.3828 378.61 24.3902C382.629 28.8729 386.798 33.2277 390.894 37.6372C391.823 38.6398 392.701 37.4696 392.978 36.5432C393.338 35.3426 393.359 33.3709 392.433 32.3744C389.468 29.1807 386.506 25.9901 383.541 22.7964C380.975 20.0324 378.049 17.2958 376.282 13.9193C375.758 12.9167 374.926 11.3686 375.276 10.1954C375.7 8.78747 377.482 8.29379 378.771 8.31817C380.356 8.35169 381.779 9.13182 382.84 10.2837C383.559 11.0639 385.217 13.13 384.906 14.2332C384.565 15.44 384.485 17.433 385.451 18.402C386.417 19.3711 387.261 18.2862 387.536 17.308V17.3111Z" fill="#667593"/>
<path d="M391.939 34.9464C395.306 31.7467 398.408 28.2665 401.203 24.5548C402.029 23.4608 402.83 22.3332 403.382 21.0777C404.223 19.1548 404.43 17.0216 404.628 14.9311C404.814 12.9564 404.994 10.9268 404.442 9.02216C403.488 5.73401 400.28 3.30218 396.863 3.03705C393.447 2.77193 390.013 4.55161 388.044 7.35218C386.076 10.1527 385.548 13.8553 386.396 17.174" fill="#667593"/>
<path d="M392.71 37.5763C396.361 34.084 399.838 30.29 402.733 26.1424C405.628 21.9949 406.436 16.6894 406.335 11.6764C406.247 7.15405 404.348 2.6317 399.96 0.763645C395.962 -0.936807 391.522 0.330913 388.49 3.29604C384.476 7.21805 383.864 13.5048 385.086 18.7068C385.323 19.7155 386.241 20.715 387.17 19.8008C388.158 18.8287 387.996 16.8265 387.716 15.6319C385.793 7.43441 398.836 2.11365 402.809 9.79615C403.678 11.4753 403.227 13.6359 403.029 15.4278C402.782 17.6706 402.234 19.4564 400.896 21.3001C398.019 25.2678 394.709 28.9308 391.171 32.3134C389.788 33.6391 390.696 39.5023 392.71 37.5763Z" fill="#667593"/>
<path d="M379.494 31.6919C379.411 31.5822 379.363 31.4968 379.296 31.4328C378.32 30.4455 377.339 29.4642 376.37 28.4708C373.563 25.6001 371.211 22.379 369.05 19.0086C368.657 18.396 368.328 17.7378 368.029 17.0735C366.612 13.9286 367.002 10.8446 368.447 7.83374C369.136 6.39537 370.202 5.27697 371.561 4.42674C373.49 3.21692 375.584 2.55259 377.854 2.57392C381.313 2.60439 383.663 4.51207 385.262 7.36749C386.414 9.42449 386.975 11.7131 387.088 14.084C387.255 17.6525 386.64 21.1235 385.64 24.5305C385.183 26.0877 384.376 27.4804 383.483 28.8243C382.892 29.7141 382.279 30.5918 381.639 31.5273C383.355 33.4624 385.43 35.0075 387.28 36.845C389.279 34.7088 391.632 33.0297 393.561 30.8691C393.411 30.6466 393.295 30.4638 393.167 30.2901C390.038 25.9841 389.203 23.9484 388.407 18.6856C388.026 16.1653 387.895 13.6451 388.401 11.1249C388.691 9.68656 389.099 8.27257 389.782 6.97742C391.181 4.32313 393.238 2.46421 396.303 1.97663C397.723 1.75112 399.131 1.9553 400.493 2.36365C403.068 3.13464 405.299 4.43589 406.597 6.90428C408.475 10.4758 408.6 14.0779 406.567 17.6464C406.085 18.4905 405.561 19.3194 404.997 20.1117C403.373 22.3942 401.779 24.7011 399.835 26.7307C398.54 28.0868 397.22 29.4185 395.91 30.7624C395.846 30.8295 395.791 30.9087 395.691 31.0336C395.88 31.2348 396.053 31.4328 396.236 31.6157C398.443 33.7976 401.033 35.431 403.775 36.8389C407.527 38.7619 411.495 40.0783 415.618 40.9255C417.166 41.2424 418.729 41.4923 420.295 41.7239C423.114 42.1414 425.936 42.5376 428.761 42.9094C432.552 43.4091 436.343 43.912 440.14 44.3477C441.612 44.5154 443.105 44.5397 444.589 44.5763C447.463 44.6433 450.337 44.6891 453.21 44.7134C454.719 44.7256 456.075 44.9024 457.587 44.8963C458.632 44.8932 459.753 45.1187 460.799 45.1248C461.335 45.1248 462.657 45.2467 463.194 45.2498C463.703 45.2528 464.754 45.3046 465.26 45.3686L465.232 46.5602C464.544 46.6211 463.94 46.615 463.239 46.6242C459.439 46.6668 454.935 46.1488 451.135 46.1305C448.14 46.1152 445.144 45.9964 442.148 45.9385C439.729 45.8928 437.349 45.4966 434.96 45.1705C432.33 44.811 429.694 44.4971 427.064 44.1436C423.904 43.72 420.725 43.3756 417.586 42.8179C411.379 41.7148 405.445 39.798 400.058 36.4154C398.214 35.2573 396.48 33.9652 394.959 32.4019C394.874 32.3135 394.786 32.2313 394.694 32.152C394.661 32.1246 394.609 32.1155 394.52 32.0819C394.411 32.1734 394.28 32.277 394.158 32.3897C392.372 34.0475 390.592 35.7084 388.804 37.3631C388.484 37.6587 388.136 37.9269 387.789 38.195C387.399 38.4998 387.06 38.5059 386.649 38.2194C386.491 38.1097 386.35 37.9695 386.21 37.8354C384.424 36.1777 382.642 34.5199 380.856 32.8651C380.804 32.8164 380.737 32.7889 380.637 32.728C380.533 32.8133 380.414 32.8895 380.317 32.987C377.94 35.4249 375.121 37.2351 372.116 38.7801C368.301 40.7396 364.263 42.0652 360.079 42.9825C358.269 43.3787 356.449 43.6773 354.606 43.8937C352.262 44.171 349.931 44.5641 347.587 44.881C344.619 45.2833 341.639 45.6094 338.68 46.0573C335.416 46.551 332.134 46.6882 328.846 46.7064C324 46.7339 319.152 46.7278 314.304 46.7156C313.234 46.7156 312.164 46.6455 311.095 46.5998C310.769 46.5876 310.446 46.5541 310.421 46.1122C310.403 45.7465 310.571 45.5027 311.022 45.4204C311.448 45.3412 311.89 45.3138 312.326 45.3168C319.024 45.3686 325.722 45.3656 332.417 45.1645C334.441 45.1035 336.449 44.8963 338.454 44.6098C341.444 44.1832 344.442 43.8297 347.435 43.4274C350.644 42.9977 353.868 42.6412 357.056 42.0896C363.297 41.0108 369.254 39.1032 374.642 35.6596C376.206 34.66 377.687 33.5538 379 32.2343C379.168 32.0637 379.326 31.8839 379.497 31.6949L379.494 31.6919ZM394.667 29.9152C395.133 29.4825 395.505 29.1717 395.84 28.8212C398.001 26.5753 400.204 24.369 401.971 21.7817C403.029 20.2367 404.169 18.7435 405.153 17.1497C406.573 14.8489 406.945 12.3805 406.186 9.72009C405.461 7.18465 403.986 5.36839 401.581 4.3018C399.997 3.59785 398.339 3.19254 396.608 3.40586C394.106 3.7167 392.396 5.2465 391.226 7.3553C390.239 9.13803 389.666 11.1067 389.59 13.1454C389.395 18.3839 390.263 24.2928 394.103 29.0955C394.225 29.2479 394.338 29.4063 394.45 29.5648C394.508 29.644 394.554 29.7293 394.667 29.9091V29.9152ZM380.545 30.5674C381.353 29.3515 382.108 28.2514 382.822 27.1269C383.702 25.7372 384.339 24.2349 384.659 22.6198C384.991 20.9498 385.326 19.2767 385.534 17.5885C385.909 14.5137 385.543 11.5241 384.296 8.65654C383.589 7.03227 382.431 5.81941 380.975 4.87471C380.122 4.32313 379.155 4.02753 378.138 4.03972C377.339 4.04887 376.526 4.10372 375.748 4.26523C373.85 4.65835 372.116 5.45981 370.818 6.92866C369.139 8.8272 368.529 11.1554 368.633 13.633C368.706 15.3669 369.434 16.9242 370.364 18.3839C372.975 22.4887 376.035 26.2279 379.503 29.6349C379.795 29.9213 380.112 30.1834 380.539 30.5674H380.545Z" fill="#47567B"/>
<path d="M326.59 79.9218C325.694 79.9218 324.91 79.7212 324.238 79.3198C323.575 78.9185 323.057 78.3398 322.684 77.5838C322.32 76.8185 322.138 75.9038 322.138 74.8398C322.138 74.0465 322.241 73.3372 322.446 72.7118C322.651 72.0772 322.945 71.5358 323.328 71.0878C323.711 70.6398 324.168 70.2992 324.7 70.0658C325.232 69.8325 325.825 69.7158 326.478 69.7158C326.982 69.7158 327.435 69.7952 327.836 69.9538C328.247 70.1032 328.601 70.3225 328.9 70.6118L329.04 69.7018H329.53L330.062 72.8658L329.516 72.9918C329.301 72.3758 329.054 71.8858 328.774 71.5218C328.494 71.1485 328.167 70.8778 327.794 70.7098C327.421 70.5418 326.977 70.4578 326.464 70.4578C325.82 70.4578 325.255 70.6165 324.77 70.9338C324.294 71.2512 323.921 71.7318 323.65 72.3758C323.379 73.0105 323.244 73.8085 323.244 74.7698C323.244 75.4512 323.323 76.0625 323.482 76.6038C323.641 77.1358 323.869 77.5932 324.168 77.9758C324.476 78.3492 324.84 78.6385 325.26 78.8438C325.689 79.0398 326.17 79.1378 326.702 79.1378C327.094 79.1378 327.463 79.0865 327.808 78.9838C328.153 78.8812 328.475 78.7132 328.774 78.4798C329.082 78.2465 329.376 77.9432 329.656 77.5698L330.174 77.9758C329.95 78.3118 329.698 78.6058 329.418 78.8578C329.138 79.1005 328.839 79.3012 328.522 79.4598C328.214 79.6185 327.897 79.7352 327.57 79.8098C327.243 79.8845 326.917 79.9218 326.59 79.9218ZM339.437 79.9218C339.139 79.9218 338.882 79.8705 338.667 79.7678C338.453 79.6745 338.261 79.5158 338.093 79.2918C337.925 79.0678 337.762 78.7645 337.603 78.3818L336.875 76.5198C336.726 76.1558 336.577 75.8805 336.427 75.6938C336.278 75.4978 336.101 75.3672 335.895 75.3018C335.699 75.2365 335.447 75.2038 335.139 75.2038C334.971 75.2038 334.822 75.2085 334.691 75.2178C334.561 75.2178 334.439 75.2272 334.327 75.2458V78.4238C334.327 78.6478 334.36 78.8112 334.425 78.9138C334.5 79.0165 334.635 79.0772 334.831 79.0958L335.881 79.2218V79.7258H332.031V79.2218L332.871 79.0958C333.039 79.0678 333.151 79.0118 333.207 78.9278C333.273 78.8345 333.305 78.6525 333.305 78.3818V71.2138C333.305 70.9805 333.273 70.8218 333.207 70.7378C333.142 70.6445 333.016 70.5838 332.829 70.5558L332.031 70.4298V69.9118H335.237C335.863 69.9118 336.409 69.9678 336.875 70.0798C337.342 70.1825 337.725 70.3412 338.023 70.5558C338.331 70.7612 338.56 71.0225 338.709 71.3398C338.859 71.6572 338.933 72.0258 338.933 72.4458C338.933 72.6605 338.901 72.8752 338.835 73.0898C338.779 73.3045 338.691 73.5098 338.569 73.7058C338.448 73.9018 338.294 74.0838 338.107 74.2518C337.921 74.4198 337.701 74.5645 337.449 74.6858C337.207 74.8072 336.931 74.8958 336.623 74.9518V74.9938C336.959 75.0872 337.23 75.2412 337.435 75.4558C337.641 75.6612 337.813 75.9412 337.953 76.2958L338.429 77.4718C338.579 77.8265 338.709 78.1298 338.821 78.3818C338.943 78.6338 339.078 78.8298 339.227 78.9698C339.386 79.1005 339.587 79.1658 339.829 79.1658C339.96 79.1658 340.081 79.1518 340.193 79.1238C340.315 79.0958 340.436 79.0585 340.557 79.0118L340.669 79.4178C340.511 79.5765 340.324 79.6978 340.109 79.7818C339.904 79.8752 339.68 79.9218 339.437 79.9218ZM335.279 74.6018C335.774 74.6018 336.213 74.5272 336.595 74.3778C336.978 74.2192 337.281 73.9812 337.505 73.6638C337.729 73.3465 337.841 72.9545 337.841 72.4878C337.841 72.0212 337.739 71.6478 337.533 71.3678C337.328 71.0878 337.029 70.8872 336.637 70.7658C336.245 70.6352 335.765 70.5698 335.195 70.5698H334.327V74.5738C334.57 74.5832 334.766 74.5925 334.915 74.6018C335.065 74.6018 335.186 74.6018 335.279 74.6018ZM341.95 79.7258V79.2218L342.762 79.0958C342.939 79.0678 343.056 79.0072 343.112 78.9138C343.168 78.8205 343.196 78.6432 343.196 78.3818V71.2278C343.196 70.9945 343.168 70.8358 343.112 70.7518C343.056 70.6585 342.93 70.5932 342.734 70.5558L341.95 70.4298V69.9118H348.194L348.698 72.1378L348.138 72.3058C347.998 71.9138 347.867 71.6012 347.746 71.3678C347.625 71.1345 347.485 70.9618 347.326 70.8498C347.167 70.7285 346.976 70.6492 346.752 70.6118C346.528 70.5745 346.248 70.5558 345.912 70.5558H344.232V74.3778H345.842C346.159 74.3778 346.393 74.3592 346.542 74.3218C346.691 74.2752 346.803 74.1725 346.878 74.0138C346.953 73.8552 347.027 73.5985 347.102 73.2438L347.606 73.1738V76.1698L347.102 76.2538C347.046 75.8992 346.976 75.6378 346.892 75.4698C346.817 75.3018 346.691 75.1945 346.514 75.1478C346.346 75.1012 346.089 75.0778 345.744 75.0778H344.232V79.0818H346.43C346.757 79.0818 347.027 79.0585 347.242 79.0118C347.457 78.9558 347.634 78.8625 347.774 78.7318C347.923 78.5918 348.045 78.4052 348.138 78.1718C348.241 77.9292 348.329 77.6212 348.404 77.2478H348.992L348.67 79.7258H341.95ZM350.197 79.7258V79.2078L350.827 79.0958C350.995 79.0585 351.117 78.9978 351.191 78.9138C351.275 78.8298 351.369 78.6432 351.471 78.3538L354.467 69.9118H355.475L358.415 78.3818C358.499 78.6152 358.574 78.7785 358.639 78.8718C358.705 78.9652 358.835 79.0352 359.031 79.0818L359.577 79.1798V79.7258H356.245V79.2078L357.057 79.1098C357.244 79.0818 357.356 79.0212 357.393 78.9278C357.431 78.8252 357.407 78.6525 357.323 78.4098L356.665 76.4638H352.927L352.269 78.3538C352.195 78.5685 352.171 78.7412 352.199 78.8718C352.237 78.9932 352.367 79.0725 352.591 79.1098L353.389 79.2218V79.7258H350.197ZM353.151 75.7918H356.441L354.831 70.9758H354.789L353.151 75.7918ZM361.53 79.7258V79.2218L362.664 79.0538C362.814 79.0258 362.926 78.9698 363 78.8858C363.084 78.7925 363.126 78.6198 363.126 78.3678V70.5558H362.132C361.796 70.5558 361.516 70.5838 361.292 70.6398C361.068 70.6865 360.877 70.7892 360.718 70.9478C360.56 71.1065 360.415 71.3352 360.284 71.6338C360.154 71.9232 360.009 72.3152 359.85 72.8098L359.29 72.6698L359.836 69.9118H367.466L367.998 72.6698L367.438 72.8098C367.28 72.3152 367.135 71.9232 367.004 71.6338C366.874 71.3352 366.729 71.1065 366.57 70.9478C366.412 70.7892 366.22 70.6865 365.996 70.6398C365.772 70.5838 365.497 70.5558 365.17 70.5558H364.162V78.4238C364.162 78.6478 364.19 78.8018 364.246 78.8858C364.312 78.9605 364.442 79.0165 364.638 79.0538L365.744 79.2218V79.7258H361.53ZM369.696 79.7258V79.2218L370.508 79.0958C370.686 79.0678 370.802 79.0072 370.858 78.9138C370.914 78.8205 370.942 78.6432 370.942 78.3818V71.2278C370.942 70.9945 370.914 70.8358 370.858 70.7518C370.802 70.6585 370.676 70.5932 370.48 70.5558L369.696 70.4298V69.9118H375.94L376.444 72.1378L375.884 72.3058C375.744 71.9138 375.614 71.6012 375.492 71.3678C375.371 71.1345 375.231 70.9618 375.072 70.8498C374.914 70.7285 374.722 70.6492 374.498 70.6118C374.274 70.5745 373.994 70.5558 373.658 70.5558H371.978V74.3778H373.588C373.906 74.3778 374.139 74.3592 374.288 74.3218C374.438 74.2752 374.55 74.1725 374.624 74.0138C374.699 73.8552 374.774 73.5985 374.848 73.2438L375.352 73.1738V76.1698L374.848 76.2538C374.792 75.8992 374.722 75.6378 374.638 75.4698C374.564 75.3018 374.438 75.1945 374.26 75.1478C374.092 75.1012 373.836 75.0778 373.49 75.0778H371.978V79.0818H374.176C374.503 79.0818 374.774 79.0585 374.988 79.0118C375.203 78.9558 375.38 78.8625 375.52 78.7318C375.67 78.5918 375.791 78.4052 375.884 78.1718C375.987 77.9292 376.076 77.6212 376.15 77.2478H376.738L376.416 79.7258H369.696ZM380.958 79.7258V79.2078L381.588 79.0958C381.756 79.0585 381.877 78.9978 381.952 78.9138C382.036 78.8298 382.129 78.6432 382.232 78.3538L385.228 69.9118H386.236L389.176 78.3818C389.26 78.6152 389.335 78.7785 389.4 78.8718C389.465 78.9652 389.596 79.0352 389.792 79.0818L390.338 79.1798V79.7258H387.006V79.2078L387.818 79.1098C388.005 79.0818 388.117 79.0212 388.154 78.9278C388.191 78.8252 388.168 78.6525 388.084 78.4098L387.426 76.4638H383.688L383.03 78.3538C382.955 78.5685 382.932 78.7412 382.96 78.8718C382.997 78.9932 383.128 79.0725 383.352 79.1098L384.15 79.2218V79.7258H380.958ZM383.912 75.7918H387.202L385.592 70.9758H385.55L383.912 75.7918ZM395.808 79.9218C394.912 79.9218 394.128 79.7212 393.456 79.3198C392.794 78.9185 392.276 78.3398 391.902 77.5838C391.538 76.8185 391.356 75.9038 391.356 74.8398C391.356 74.0465 391.459 73.3372 391.664 72.7118C391.87 72.0772 392.164 71.5358 392.546 71.0878C392.929 70.6398 393.386 70.2992 393.918 70.0658C394.45 69.8325 395.043 69.7158 395.696 69.7158C396.2 69.7158 396.653 69.7952 397.054 69.9538C397.465 70.1032 397.82 70.3225 398.118 70.6118L398.258 69.7018H398.748L399.28 72.8658L398.734 72.9918C398.52 72.3758 398.272 71.8858 397.992 71.5218C397.712 71.1485 397.386 70.8778 397.012 70.7098C396.639 70.5418 396.196 70.4578 395.682 70.4578C395.038 70.4578 394.474 70.6165 393.988 70.9338C393.512 71.2512 393.139 71.7318 392.868 72.3758C392.598 73.0105 392.462 73.8085 392.462 74.7698C392.462 75.4512 392.542 76.0625 392.7 76.6038C392.859 77.1358 393.088 77.5932 393.386 77.9758C393.694 78.3492 394.058 78.6385 394.478 78.8438C394.908 79.0398 395.388 79.1378 395.92 79.1378C396.312 79.1378 396.681 79.0865 397.026 78.9838C397.372 78.8812 397.694 78.7132 397.992 78.4798C398.3 78.2465 398.594 77.9432 398.874 77.5698L399.392 77.9758C399.168 78.3118 398.916 78.6058 398.636 78.8578C398.356 79.1005 398.058 79.3012 397.74 79.4598C397.432 79.6185 397.115 79.7352 396.788 79.8098C396.462 79.8845 396.135 79.9218 395.808 79.9218ZM405.604 79.9218C404.708 79.9218 403.924 79.7212 403.252 79.3198C402.589 78.9185 402.071 78.3398 401.698 77.5838C401.334 76.8185 401.152 75.9038 401.152 74.8398C401.152 74.0465 401.255 73.3372 401.46 72.7118C401.665 72.0772 401.959 71.5358 402.342 71.0878C402.725 70.6398 403.182 70.2992 403.714 70.0658C404.246 69.8325 404.839 69.7158 405.492 69.7158C405.996 69.7158 406.449 69.7952 406.85 69.9538C407.261 70.1032 407.615 70.3225 407.914 70.6118L408.054 69.7018H408.544L409.076 72.8658L408.53 72.9918C408.315 72.3758 408.068 71.8858 407.788 71.5218C407.508 71.1485 407.181 70.8778 406.808 70.7098C406.435 70.5418 405.991 70.4578 405.478 70.4578C404.834 70.4578 404.269 70.6165 403.784 70.9338C403.308 71.2512 402.935 71.7318 402.664 72.3758C402.393 73.0105 402.258 73.8085 402.258 74.7698C402.258 75.4512 402.337 76.0625 402.496 76.6038C402.655 77.1358 402.883 77.5932 403.182 77.9758C403.49 78.3492 403.854 78.6385 404.274 78.8438C404.703 79.0398 405.184 79.1378 405.716 79.1378C406.108 79.1378 406.477 79.0865 406.822 78.9838C407.167 78.8812 407.489 78.7132 407.788 78.4798C408.096 78.2465 408.39 77.9432 408.67 77.5698L409.188 77.9758C408.964 78.3118 408.712 78.6058 408.432 78.8578C408.152 79.1005 407.853 79.3012 407.536 79.4598C407.228 79.6185 406.911 79.7352 406.584 79.8098C406.257 79.8845 405.931 79.9218 405.604 79.9218ZM415.344 79.9218C414.429 79.9218 413.64 79.7165 412.978 79.3058C412.324 78.8952 411.82 78.3212 411.466 77.5838C411.12 76.8465 410.948 75.9785 410.948 74.9798C410.948 73.8785 411.125 72.9405 411.48 72.1658C411.844 71.3818 412.362 70.7798 413.034 70.3598C413.706 69.9305 414.513 69.7158 415.456 69.7158C416.352 69.7158 417.122 69.9165 417.766 70.3178C418.41 70.7192 418.904 71.2885 419.25 72.0258C419.604 72.7538 419.782 73.6172 419.782 74.6158C419.782 75.4185 419.679 76.1465 419.474 76.7998C419.268 77.4532 418.97 78.0132 418.578 78.4798C418.195 78.9465 417.728 79.3058 417.178 79.5578C416.636 79.8005 416.025 79.9218 415.344 79.9218ZM415.47 79.1518C415.983 79.1518 416.44 79.0585 416.842 78.8718C417.243 78.6758 417.579 78.3912 417.85 78.0178C418.12 77.6352 418.321 77.1732 418.452 76.6318C418.592 76.0905 418.662 75.4745 418.662 74.7838C418.662 74.1025 418.587 73.5005 418.438 72.9778C418.298 72.4458 418.083 71.9932 417.794 71.6198C417.514 71.2372 417.164 70.9525 416.744 70.7658C416.333 70.5698 415.852 70.4718 415.302 70.4718C414.779 70.4718 414.317 70.5698 413.916 70.7658C413.514 70.9525 413.174 71.2325 412.894 71.6058C412.614 71.9698 412.404 72.4178 412.264 72.9498C412.124 73.4818 412.054 74.0885 412.054 74.7698C412.054 75.4418 412.128 76.0485 412.278 76.5898C412.427 77.1312 412.646 77.5932 412.936 77.9758C413.234 78.3585 413.594 78.6525 414.014 78.8578C414.443 79.0538 414.928 79.1518 415.47 79.1518ZM426.461 79.9218C425.836 79.9218 425.29 79.8425 424.823 79.6838C424.366 79.5158 423.988 79.2732 423.689 78.9558C423.4 78.6292 423.185 78.2185 423.045 77.7238C422.905 77.2292 422.835 76.6552 422.835 76.0018V71.2138C422.835 70.9805 422.802 70.8218 422.737 70.7378C422.681 70.6445 422.56 70.5838 422.373 70.5558L421.561 70.4298V69.9118H425.117V70.4298L424.291 70.5558C424.123 70.5838 424.011 70.6492 423.955 70.7518C423.899 70.8452 423.871 71.0178 423.871 71.2698V75.9318C423.871 76.6692 423.96 77.2758 424.137 77.7518C424.324 78.2278 424.618 78.5778 425.019 78.8018C425.43 79.0258 425.966 79.1378 426.629 79.1378C427.254 79.1378 427.772 79.0165 428.183 78.7738C428.594 78.5218 428.902 78.1485 429.107 77.6538C429.322 77.1592 429.429 76.5385 429.429 75.7918V71.2138C429.429 70.9805 429.396 70.8218 429.331 70.7378C429.275 70.6445 429.154 70.5838 428.967 70.5558L428.183 70.4298V69.9118H431.473V70.4298L430.661 70.5558C430.493 70.5838 430.381 70.6445 430.325 70.7378C430.269 70.8312 430.241 71.0085 430.241 71.2698V75.5538C430.241 76.4872 430.11 77.2805 429.849 77.9338C429.588 78.5872 429.177 79.0818 428.617 79.4178C428.057 79.7538 427.338 79.9218 426.461 79.9218ZM433.317 79.7258V79.2218L434.101 79.0958C434.269 79.0772 434.385 79.0165 434.451 78.9138C434.525 78.8112 434.563 78.6338 434.563 78.3818V71.2138C434.563 70.9898 434.535 70.8358 434.479 70.7518C434.423 70.6585 434.297 70.5932 434.101 70.5558L433.317 70.4298V69.9118H435.865L440.933 78.1158V78.0598V71.2138C440.933 70.9805 440.905 70.8218 440.849 70.7378C440.793 70.6538 440.667 70.5932 440.471 70.5558L439.701 70.4298V69.9118H442.977V70.4298L442.207 70.5558C442.029 70.5838 441.908 70.6445 441.843 70.7378C441.777 70.8218 441.745 70.9898 441.745 71.2418V79.7258H440.737L435.389 71.1018L435.375 71.1578V78.4378C435.375 78.6805 435.407 78.8438 435.473 78.9278C435.538 79.0118 435.655 79.0678 435.823 79.0958L436.635 79.2218V79.7258H433.317ZM446.875 79.7258V79.2218L448.009 79.0538C448.158 79.0258 448.27 78.9698 448.345 78.8858C448.429 78.7925 448.471 78.6198 448.471 78.3678V70.5558H447.477C447.141 70.5558 446.861 70.5838 446.637 70.6398C446.413 70.6865 446.221 70.7892 446.063 70.9478C445.904 71.1065 445.759 71.3352 445.629 71.6338C445.498 71.9232 445.353 72.3152 445.195 72.8098L444.635 72.6698L445.181 69.9118H452.811L453.343 72.6698L452.783 72.8098C452.624 72.3152 452.479 71.9232 452.349 71.6338C452.218 71.3352 452.073 71.1065 451.915 70.9478C451.756 70.7892 451.565 70.6865 451.341 70.6398C451.117 70.5838 450.841 70.5558 450.515 70.5558H449.507V78.4238C449.507 78.6478 449.535 78.8018 449.591 78.8858C449.656 78.9605 449.787 79.0165 449.983 79.0538L451.089 79.2218V79.7258H446.875Z" fill="#47567B"/>
</svg>
