<svg width="230" height="230" viewBox="0 0 230 230" fill="none" xmlns="http://www.w3.org/2000/svg">
<rect x="1.5" y="1.5" width="200" height="200" rx="100" stroke="#CCD7E6" stroke-width="3"/>
<path d="M170.988 46.6747C170.789 45.7817 170.34 45.0487 169.622 44.4393C168.777 43.7213 167.812 43.4016 166.747 43.2658C164.738 43.0094 162.731 42.756 160.725 42.4664C158.614 42.1617 156.511 41.8058 154.399 41.483C150.463 40.8796 146.484 40.8555 142.52 40.6896C138.855 40.5357 135.174 40.6956 131.503 40.6836C127.506 40.6715 123.506 40.6413 119.509 40.581C114.89 40.5086 110.272 40.3427 105.653 40.3065C100.386 40.2642 95.1189 40.3155 89.8488 40.3366C88.5788 40.3427 87.3088 40.3487 86.0418 40.4211C82.645 40.6142 79.2513 40.8917 75.8515 41.0516C69.429 41.3502 63.0065 41.6429 56.581 41.8269C54.3487 41.8902 52.0983 41.7273 49.872 41.492C47.4737 41.2416 45.0875 41.0063 42.6802 41.2597C42.3936 41.2899 42.0467 41.3171 41.8416 41.483C40.8491 42.2945 39.9803 43.1934 39.6847 44.5208C39.3619 45.9718 39.3528 47.4258 39.6062 48.8678C40.0105 51.1514 41.2352 52.714 43.6606 53.1062C43.9955 53.1605 44.3213 53.2691 44.6742 53.3596C44.5747 54.1349 44.4751 54.8287 44.3997 55.5225C44.0317 58.8801 43.6848 62.2376 43.3047 65.5922C43.003 68.2499 42.6259 70.8985 42.3424 73.5562C42.0558 76.241 41.8205 78.9319 41.6123 81.6258C41.5098 82.9682 41.4555 84.3227 41.4947 85.6681C41.558 87.8491 42.3816 89.7104 44.089 91.1313C44.2972 91.3032 44.4812 91.5053 44.6984 91.6652C44.985 91.8794 45.0785 92.1509 45.0966 92.5008C45.1328 93.255 45.2142 94.0092 45.2776 94.7603C45.5129 97.6654 45.8658 100.558 45.8568 103.488C45.8387 108.646 45.9382 113.808 45.9925 118.966C46.077 127.259 46.1434 135.555 46.258 143.848C46.3153 148.035 46.4873 152.219 46.5687 156.406C46.6109 158.614 46.5687 160.825 46.5687 163.058C46.1132 163.193 45.8296 163.275 45.5461 163.359C40.8793 164.765 36.119 165.489 31.241 165.329C29.784 165.281 28.342 165.157 26.9151 164.952C26.5531 165.073 26.1851 165.489 26.0524 165.773C25.9106 166.074 25.9377 166.295 26.0554 166.451C27.5758 166.696 29.1203 166.856 30.686 166.931C35.6393 167.163 40.4901 166.463 45.2625 165.178C45.6486 165.076 46.0348 164.976 46.4842 164.859C46.5023 165.166 46.4963 165.408 46.5325 165.64C46.626 166.225 46.6562 166.838 46.8613 167.384C47.3199 168.584 48.0831 169.534 49.4979 169.55C51.5221 169.574 53.5553 169.622 55.5704 169.474C59.6942 169.166 63.818 168.949 67.9539 168.928C71.4381 168.91 74.9254 168.853 78.4036 168.654C83.3419 168.37 88.2771 168.198 93.2245 168.406C100.353 168.708 107.484 168.841 114.616 168.542C120.824 168.283 127.026 167.908 133.235 167.673C139.12 167.45 145.006 167.287 150.894 167.206C155.54 167.142 160.185 167.245 164.834 167.263C165.588 167.263 166.345 167.227 167.097 167.16C167.712 167.106 168.131 166.747 168.37 166.171C169.314 163.875 167.905 161.613 165.434 161.465C165.112 161.447 164.786 161.462 164.463 161.444C164.255 161.432 164.05 161.392 163.854 161.368C163.817 161.242 163.778 161.166 163.775 161.091C163.434 156.391 163.658 151.697 163.926 147C164.149 143.063 164.342 139.123 164.49 135.184C164.596 132.405 164.596 129.621 164.656 126.84C164.695 124.951 164.762 123.06 164.801 121.171C164.822 120.064 164.783 118.954 164.825 117.85C164.964 114.064 164.849 110.29 164.508 106.516C164.189 102.966 163.968 99.406 163.718 95.8493C163.655 94.9624 163.636 94.0695 163.612 93.1796C163.603 92.8055 163.721 92.522 164.119 92.356C165.691 91.7014 166.747 90.4917 167.528 89.0256C168.545 87.1191 169.142 85.0708 169.368 82.932C169.733 79.4688 169.432 76.0268 168.964 72.5908C168.581 69.7823 168.213 66.9678 167.836 64.1593C167.441 61.215 167.042 58.2737 166.65 55.3295C166.629 55.1817 166.65 55.0278 166.65 54.8559C167.112 54.7684 167.522 54.7352 167.902 54.6115C169.142 54.2103 170.285 53.6432 170.714 52.2857C171.296 50.4515 171.41 48.5721 170.991 46.6837L170.988 46.6747ZM43.1237 82.4885C43.4163 79.2878 43.6938 76.0872 44.0317 72.8925C44.2881 70.4762 44.6501 68.0719 44.9246 65.6585C45.3017 62.3583 45.6426 59.0551 46.0016 55.7548C46.0438 55.3536 46.0921 54.9494 46.1524 54.5482C46.252 53.8996 46.3002 53.8332 46.979 53.8091C49.1118 53.7306 51.2415 53.6673 53.3743 53.616C54.4271 53.5919 55.4799 53.6311 56.5328 53.5949C58.5962 53.5225 60.6083 53.9418 62.7712 54.1711C62.7169 54.9283 62.7079 55.604 62.6144 56.2677C62.183 59.3416 61.7787 62.4217 61.2659 65.4836C60.7229 68.7114 60.3881 71.9604 60.1226 75.2153C59.9084 77.8248 59.7727 80.4402 59.6007 83.0557C59.5826 83.3453 59.5464 83.6349 59.5102 84.03C59.1361 84.03 58.8194 84.0421 58.5026 84.03C55.5373 83.8883 52.5719 83.7073 49.6035 83.6137C47.7452 83.5564 45.8809 83.6288 44.0196 83.6469C43.733 83.6469 43.4465 83.6711 43.1146 83.6861C43.1146 83.2336 43.0845 82.8596 43.1207 82.4946L43.1237 82.4885ZM97.4629 82.217C97.4659 82.3196 97.4146 82.4222 97.3754 82.579C94.3859 82.7329 91.4024 82.8777 88.4189 83.0466C85.4626 83.2125 82.5063 83.4026 79.4655 83.5896C79.4655 83.3453 79.4413 83.0557 79.4685 82.7721C79.6404 80.9199 79.8154 79.0646 80.0084 77.2124C80.2468 74.9046 80.4881 72.5939 80.7596 70.2891C81.1156 67.2604 81.5289 64.2347 81.8728 61.2059C82.1141 59.0882 82.28 56.9615 82.4791 54.8378C82.4942 54.6809 82.5123 54.524 82.5334 54.343C82.6601 54.3068 82.7597 54.2495 82.8562 54.2586C84.5154 54.4154 86.1353 54.0263 87.7733 53.9086C90.6543 53.7005 93.5322 53.4079 96.4252 53.5315C96.7178 53.5436 97.0104 53.5738 97.3965 53.6009C97.1642 63.2181 97.0828 72.7175 97.4629 82.217ZM97.3241 84.4373C97.1642 84.8566 97.0406 85.294 96.8384 85.6952C95.8007 87.7556 94.2833 89.4389 92.5487 90.9171C91.3059 91.9759 89.7825 92.3802 88.1655 92.2625C87.1489 92.1871 86.1383 91.979 85.1308 91.804C84.6541 91.7225 84.1895 91.5657 83.7129 91.4661C81.3539 90.9804 79.8124 89.4118 79.39 87.0346C79.3026 86.5399 79.2875 86.0331 79.2301 85.4418C82.277 84.9682 85.2424 84.7178 88.2319 84.6485C91.2184 84.5791 94.2019 84.3679 97.1853 84.2171C97.2306 84.2895 97.2789 84.3619 97.3241 84.4373ZM80.8501 55.1817C80.5816 57.7609 80.3101 60.3371 80.0296 62.9134C79.6887 66.0266 79.3508 69.1428 78.9828 72.253C78.6932 74.7206 78.3402 77.1792 78.0567 79.6498C77.933 80.7208 77.9149 81.8037 77.8455 82.8837C77.8274 83.1733 77.7972 83.4629 77.7731 83.7284C76.7655 83.9576 62.4153 84.0994 61.2508 83.8943C61.2388 83.7012 61.2026 83.4961 61.2116 83.291C61.4167 78.8384 61.7365 74.3918 62.2493 69.9633C62.4937 67.8456 62.8768 65.743 63.2267 63.6374C63.7215 60.678 64.1921 57.7187 64.364 54.7201C64.3731 54.5361 64.4334 54.3551 64.4696 54.1741H80.8531C80.8531 54.5572 80.8803 54.874 80.8501 55.1847V55.1817ZM77.6434 85.5233C77.4594 86.9351 77.4383 88.2654 77.031 89.5294C76.6479 90.715 75.9329 91.6049 74.6901 92.0272C73.5498 92.4164 72.3793 92.6306 71.1907 92.5913C69.5738 92.537 67.9569 92.3983 66.349 92.2324C65.3354 92.1298 64.4123 91.7165 63.6461 91.0378C63.0005 90.4676 62.4002 89.8462 61.7938 89.2308C61.0397 88.4676 60.8737 87.4781 60.8044 86.4705C60.7591 85.8099 60.9823 85.6047 61.649 85.6017C64.3489 85.5927 67.0519 85.6017 69.7518 85.5776C72.0746 85.5595 74.3944 85.5022 76.7173 85.469C76.9827 85.466 77.2482 85.4961 77.6464 85.5173L77.6434 85.5233ZM44.0468 88.6817C43.3288 87.7496 43.1719 86.6244 43.0995 85.3393C44.1765 85.2608 45.1448 85.116 46.1102 85.1372C48.243 85.1884 50.3697 85.3363 52.5025 85.4268C54.4995 85.5112 56.4966 85.5716 58.4936 85.644C58.7349 85.653 58.9732 85.6651 59.2146 85.6771C59.2538 85.7827 59.3111 85.8581 59.3021 85.9245C59.112 87.2096 58.8586 88.4887 58.2462 89.6471C57.4498 91.1554 56.2733 92.2022 54.5086 92.4435C53.9988 92.5129 53.495 92.6064 52.9852 92.6698C51.8147 92.8176 50.6684 92.7392 49.5582 92.2957C49.0062 92.0755 48.433 91.9156 47.8779 91.7044C46.2912 91.0951 45.0634 90.0061 44.0438 88.6817H44.0468ZM47.9353 149.133C47.8568 141.703 47.8206 134.273 47.7452 126.843C47.6607 118.495 47.5853 110.145 47.4315 101.798C47.3862 99.4 47.0755 97.0047 46.8885 94.6095C46.8523 94.1298 46.8281 93.6502 46.795 93.1162C47.0303 93.1615 47.1871 93.1796 47.3319 93.2279C47.6909 93.3455 48.0559 93.4541 48.3998 93.608C50.7227 94.6457 53.0968 94.4466 55.4739 93.8885C57.3533 93.4481 58.6324 92.2052 59.5886 90.5853C59.7365 90.3349 59.8601 90.0664 60.1226 89.5596C60.3006 89.8613 60.379 90.0754 60.5238 90.2233C61.2026 90.9171 61.8753 91.62 62.5993 92.2655C63.5043 93.077 64.5933 93.5959 65.7849 93.7739C68.3249 94.154 70.883 94.4858 73.4442 93.9911C74.3613 93.8131 75.2632 93.4903 76.129 93.1313C77.1517 92.706 77.7369 91.804 78.2347 90.8568C78.3825 90.5702 78.5092 90.2745 78.6841 89.9005C78.8561 90.0966 79.0039 90.2383 79.1215 90.4012C80.1563 91.8643 81.5319 92.7542 83.3208 93.0408C84.4912 93.2309 85.6376 93.5687 86.811 93.7558C90.0117 94.2686 92.7569 93.3908 94.9108 90.9201C95.8671 89.822 96.751 88.6636 97.671 87.5324C97.7525 87.4328 97.846 87.3423 97.9727 87.2096C98.1085 87.4781 98.217 87.6893 98.3226 87.9065C100.115 91.6109 103.931 93.7166 108.027 93.2761C110.959 92.9624 113.451 91.7195 115.602 89.7406C115.819 89.5415 116.033 89.3394 116.329 89.0649C116.489 89.3786 116.625 89.626 116.748 89.8824C117.038 90.4827 117.451 90.9533 118.046 91.2851C118.896 91.7587 119.717 92.2776 120.555 92.7693C123.527 94.5099 127.786 94.1329 130.513 91.632C131.5 90.727 132.266 89.6561 132.966 88.5249C133.105 88.3016 133.25 88.0844 133.419 87.819C133.533 87.9577 133.609 88.0301 133.657 88.1176C135.15 90.7783 137.536 92.353 140.281 93.436C141.889 94.0725 143.591 93.9971 145.229 93.5506C146.42 93.2248 147.573 92.7331 148.704 92.2354C149.838 91.7376 150.692 90.8537 151.488 89.9246C151.678 89.7044 151.871 89.4842 152.11 89.2157C153.22 90.8055 154.976 91.2851 156.52 92.0785C157.654 92.6607 158.879 93.0227 160.167 93.0921C160.701 93.1193 161.241 93.0981 161.836 93.0981C161.875 93.3003 161.932 93.5054 161.947 93.7105C162.11 95.8644 162.264 98.0213 162.424 100.178C162.611 102.685 162.777 105.192 163.003 107.693C163.305 111.035 163.332 114.384 163.232 117.735C163.196 118.924 163.226 120.112 163.202 121.301C163.166 123.084 163.106 124.864 163.069 126.646C163.012 129.292 163.009 131.941 162.906 134.586C162.75 138.716 162.535 142.843 162.333 146.973C162.116 151.371 161.79 155.766 162.152 160.174C162.179 160.487 162.155 160.804 162.155 161.157C159.588 161.51 157.09 161.459 154.553 161.441C154.39 160.78 154.209 160.165 154.092 159.534C153.89 158.451 153.307 157.782 152.191 157.622C152.113 157.61 152.04 157.567 151.905 157.516C151.7 156.373 151.609 155.193 151.618 154.011C151.639 151.769 151.645 149.525 151.739 147.284C151.856 144.415 151.612 141.561 151.54 138.698C151.422 134.104 151.081 129.524 150.725 124.945C150.384 120.583 150.01 116.224 149.709 111.859C149.594 110.191 149.642 108.513 149.618 106.839C149.615 106.622 149.636 106.405 149.618 106.19C149.561 105.394 149.232 105.002 148.436 104.896C147.365 104.755 146.291 104.637 145.211 104.564C139.648 104.193 134.085 104.368 128.526 104.61C127.071 104.673 125.608 104.637 124.154 104.586C122.266 104.519 120.377 104.405 118.492 104.275C117.904 104.236 117.322 104.085 116.736 103.982C115.895 103.837 115.448 104.157 115.331 105.005C115.303 105.192 115.297 105.382 115.303 105.572C115.418 110.299 115.548 115.023 115.65 119.75C115.705 122.182 115.662 124.613 115.747 127.042C115.871 130.577 116.091 134.113 116.236 137.648C116.317 139.672 116.305 141.7 116.377 143.727C116.48 146.614 116.646 149.501 116.73 152.391C116.776 153.902 116.712 155.416 116.688 156.928C116.679 157.57 116.661 157.579 116.049 157.76C114.676 158.165 114.332 158.551 114.245 159.975C114.193 160.834 114.236 161.697 114.236 162.656C113.892 162.684 113.581 162.723 113.267 162.732C110.29 162.828 107.327 162.584 104.362 162.4C101.991 162.252 99.6138 162.092 97.2396 162.116C92.8866 162.156 88.5426 162.002 84.1986 161.757C82.6631 161.67 81.1186 161.703 79.5801 161.682C79.2875 161.679 78.9979 161.682 78.6419 161.682V158.038C78.9044 157.999 79.0854 157.941 79.2633 157.953C82.2438 158.122 85.1971 157.763 88.1595 157.534C91.8217 157.251 95.49 157.03 99.1552 156.765C100.528 156.665 101.897 156.496 103.273 156.409C104.187 156.349 105.107 156.361 106.027 156.367C107.499 156.379 108.941 156.201 110.311 155.634C111.303 155.22 111.78 154.475 111.741 153.498C111.702 152.505 111.14 151.851 110.329 151.371C110.076 151.22 109.798 151.112 109.439 150.94C109.439 150.143 109.406 149.311 109.445 148.484C109.671 143.455 109.388 138.439 109.195 133.416C109.095 130.852 109.137 128.285 109.056 125.717C108.893 120.559 108.658 115.403 108.519 110.245C108.465 108.221 108.573 106.193 108.619 104.169C108.646 102.824 108.371 102.54 107.038 102.558C102.718 102.616 98.395 102.742 94.0752 102.697C91.2968 102.667 88.5185 102.42 85.7462 102.202C82.1322 101.922 78.5303 101.825 74.9073 102.178C70.9253 102.564 66.9191 102.51 62.9221 102.371C60.2764 102.278 57.6308 102.16 54.9852 102.088C54.1828 102.067 53.3773 102.151 52.4784 102.193C52.4391 102.724 52.3698 103.171 52.3758 103.617C52.421 107.246 52.9429 110.824 53.3954 114.417C53.7665 117.361 53.9656 120.327 53.8721 123.31C53.8057 125.358 53.9203 127.416 53.9837 129.467C54.1647 135.138 54.3547 140.81 54.5599 146.478C54.6232 148.176 54.7529 149.872 54.8555 151.631C54.7077 151.7 54.5206 151.796 54.3276 151.878C53.2144 152.358 52.5025 153.498 52.7438 154.596C53.0877 156.146 53.8328 156.849 55.1451 156.925C55.9264 156.97 56.7107 157.015 57.4921 157.073C57.7545 157.091 58.0139 157.139 58.4785 157.199C58.1648 157.447 58.0049 157.61 57.8179 157.715C55.9777 158.738 54.1436 159.779 52.2793 160.753C51.3019 161.266 50.2641 161.664 49.2475 162.104C49.0363 162.195 48.801 162.228 48.4722 162.316C48.4059 161.8 48.3214 161.383 48.3003 160.961C48.2339 159.531 48.1796 158.101 48.1374 156.671C48.065 154.158 47.9745 151.649 47.9503 149.136L47.9353 149.133ZM115.756 61.4563C115.75 66.108 115.412 70.7416 114.947 75.3662C114.679 78.0389 114.519 80.6996 115.159 83.3453C115.207 83.5504 115.207 83.7706 115.243 84.1024C113.427 83.9667 111.689 83.6258 109.931 83.5051C108.124 83.3845 106.317 83.2879 104.513 83.1492C102.739 83.0104 100.968 82.8324 99.1281 82.6665C99.0859 81.3241 99.0497 80.0873 99.0074 78.8474C98.8204 73.6346 98.7118 68.4248 98.8807 63.209C98.9682 60.4548 98.935 57.7006 98.9592 54.9433C98.9592 54.702 98.9531 54.4456 99.0255 54.2224C99.1522 53.8211 99.4599 53.6432 99.8883 53.6251C101.937 53.5346 103.985 53.438 106.03 53.3324C108.781 53.1907 111.53 53.0308 114.281 52.889C114.866 52.8588 115.451 52.886 116.091 52.886C116.118 53.1967 116.163 53.4018 116.151 53.607C116.088 54.8468 116.003 56.0867 115.94 57.3295C115.868 58.7051 115.759 60.0807 115.759 61.4563H115.756ZM115.859 87.2911C115.415 87.6983 115.017 88.0543 114.628 88.4223C112.709 90.2474 110.474 91.3937 107.813 91.6652C103.843 92.0695 100.341 89.6953 99.2759 85.8491C99.1492 85.3875 99.0466 84.92 98.932 84.4614C99.7435 84.2623 114.049 85.5082 115.554 85.9004C115.653 86.3559 115.762 86.8506 115.859 87.2941V87.2911ZM131.515 68.4128C131.771 71.9935 132.061 75.5743 132.314 79.1581C132.414 80.5579 132.453 81.9636 132.517 83.3664C132.523 83.5232 132.501 83.6831 132.489 83.9516C132.185 83.9697 131.946 83.9908 131.711 83.9969C128.176 84.1175 124.64 84.2472 121.105 84.3528C119.997 84.386 118.89 84.3619 117.783 84.3528C117.521 84.3528 117.258 84.3046 116.999 84.2804C116.429 81.8068 116.196 79.3934 116.42 76.9107C116.791 72.7688 117.077 68.6209 117.334 64.47C117.46 62.4247 117.415 60.3673 117.491 58.316C117.545 56.8046 117.672 55.2963 117.768 53.788C117.78 53.6009 117.807 53.4169 117.84 53.1364C120.094 53.1997 122.272 53.7306 124.486 53.9418C126.682 54.15 128.897 54.1771 131.105 54.5451C131.132 54.7412 131.174 54.8951 131.171 55.0489C131.084 59.5076 131.201 63.9602 131.518 68.4097L131.515 68.4128ZM132.354 85.6892C132.239 86.0904 132.194 86.3891 132.07 86.6515C130.957 89.0498 129.449 91.08 126.791 91.9096C125.026 92.4616 123.264 92.353 121.605 91.4993C120.67 91.0197 119.783 90.4435 118.884 89.9005C118.703 89.7919 118.501 89.6622 118.393 89.4902C117.738 88.4464 117.439 87.2911 117.297 86.0361C117.512 86.015 117.641 85.9939 117.771 85.9909C120.009 85.9185 122.245 85.8431 124.483 85.7797C126.857 85.7164 129.231 85.6651 131.606 85.6138C131.814 85.6108 132.019 85.653 132.351 85.6892H132.354ZM149.292 65.5469C149.576 68.3404 149.799 71.1398 150.052 73.9363C150.351 77.2425 150.653 80.5518 150.951 83.8581C150.973 84.0934 150.982 84.3317 151.003 84.6394C145.349 85.2186 139.82 84.3739 134.206 83.9064C134.179 83.6258 134.13 83.3392 134.124 83.0496C134.019 79.321 133.584 75.6166 133.328 71.9C132.963 66.648 132.689 61.3869 132.764 56.1168C132.773 55.5829 132.809 55.0489 132.836 54.4154C133.367 54.4396 133.814 54.4607 134.263 54.4848C135.367 54.5391 136.471 54.5904 137.576 54.6537C139.274 54.7533 140.969 54.8951 142.668 54.9614C144.312 55.0278 145.956 55.0218 147.6 55.0459C148.022 55.0519 148.445 55.0459 148.897 55.0459C148.855 55.7458 148.804 56.3642 148.782 56.9796C148.692 59.8515 149.009 62.6962 149.298 65.5439L149.292 65.5469ZM151.132 86.3559C151.41 86.9472 151.283 87.4328 150.991 87.8823C150.336 88.8839 149.579 89.816 148.556 90.4435C146.761 91.5476 144.828 92.2505 142.677 92.2324C141.853 92.2263 141.069 92.0725 140.321 91.7376C138.755 91.0378 137.343 90.1056 136.149 88.8658C135.31 87.9939 134.77 86.9653 134.511 85.6409C134.912 85.6409 135.223 85.6168 135.527 85.644C137.084 85.7857 138.643 85.9245 140.197 86.0934C143.558 86.4615 146.924 86.4826 150.297 86.3529C150.562 86.3438 150.828 86.3529 151.132 86.3529V86.3559ZM148.888 123.075H147.485C147.452 122.743 147.401 122.426 147.395 122.109C147.304 118.085 147.22 114.064 147.135 110.04C147.126 109.663 147.141 109.283 147.159 108.905C147.196 108.103 146.834 107.714 146.016 107.738C144.936 107.768 143.859 107.826 142.779 107.868C138.894 108.025 135.014 108.136 131.138 107.587C128.707 107.243 126.248 107.092 123.801 106.872C122.061 106.715 120.356 107.05 118.652 107.334C118.163 107.415 117.892 107.72 117.865 108.218C117.847 108.513 117.819 108.812 117.843 109.108C118.118 112.525 118.405 115.943 118.685 119.358C118.86 121.458 119.038 123.554 119.21 125.654C119.482 128.96 119.819 132.267 120.003 135.579C120.163 138.436 120.196 141.298 120.193 144.161C120.193 146.943 120.076 149.721 120.003 152.502C119.961 154.119 119.901 155.736 119.847 157.401C119.328 157.588 118.785 157.513 118.221 157.435C118.221 156.653 118.169 155.899 118.23 155.154C118.456 152.4 118.323 149.652 118.151 146.9C118.031 144.988 117.979 143.069 117.901 141.154C117.735 137.024 117.572 132.897 117.409 128.767C117.367 127.687 117.322 126.607 117.297 125.527C117.192 120.803 117.092 116.079 116.999 111.352C116.966 109.623 116.951 107.895 116.929 106.166C116.929 106.04 116.969 105.913 116.987 105.807C119.424 105.943 121.816 106.103 124.215 106.203C125.696 106.263 127.186 106.287 128.667 106.221C134.254 105.964 139.841 105.819 145.431 106.187C146.26 106.242 147.087 106.353 147.953 106.444C147.823 112.043 148.607 117.506 148.888 123.072V123.075ZM150.185 157.136C150.197 157.235 150.164 157.341 150.149 157.483H147.923C147.727 151.272 147.766 145.115 147.941 138.873C148.064 138.837 148.164 138.786 148.267 138.786C148.773 138.777 149.28 138.783 149.832 138.783C149.865 139.015 149.911 139.22 149.926 139.428C150.128 142.255 150.179 145.084 150.098 147.92C150.01 150.991 149.835 154.068 150.185 157.139V157.136ZM149.736 137.024H145.018C144.993 136.822 144.96 136.589 144.933 136.357C144.767 134.909 144.638 133.455 144.432 132.013C144.113 129.769 144.393 127.548 144.562 125.313C146.327 124.803 148.013 124.649 148.988 124.879C149.334 126.146 149.932 135.953 149.733 137.021L149.736 137.024ZM121.316 132.294C121.267 131.865 121.252 131.431 121.231 131C121.228 130.924 121.258 130.846 121.286 130.716C121.451 130.683 121.629 130.635 121.807 130.619C124.685 130.372 127.563 130.101 130.444 129.892C131.708 129.802 132.981 129.829 134.251 129.814C135.79 129.799 137.331 129.835 138.87 129.772C139.754 129.736 140.634 129.539 141.515 129.425C141.853 129.38 142.197 129.365 142.502 129.34C142.574 129.455 142.619 129.497 142.625 129.546C142.852 131.693 143.081 133.838 143.289 135.986C143.337 136.469 143.316 136.957 143.31 137.443C143.295 138.273 143.597 138.656 144.423 138.719C144.981 138.764 145.546 138.728 146.197 138.728C146.215 139.099 146.248 139.494 146.248 139.89C146.248 141.265 146.224 142.644 146.224 144.019C146.23 147.368 146.245 150.716 146.254 154.068C146.257 155.196 146.254 156.324 146.254 157.567C137.962 157.875 129.844 158.098 121.611 157.567C121.566 156.883 121.482 156.246 121.488 155.61C121.506 153.718 121.554 151.83 121.596 149.938C121.62 148.913 121.614 147.884 121.684 146.861C122.013 141.995 121.871 137.141 121.313 132.3L121.316 132.294ZM119.512 108.86C120.951 108.562 122.411 108.353 123.901 108.501C127.099 108.818 130.293 109.168 133.494 109.458C134.782 109.575 136.082 109.617 137.373 109.602C139.856 109.575 142.339 109.482 144.825 109.421C145.009 109.415 145.196 109.439 145.47 109.458C145.594 114.079 145.717 118.683 145.841 123.361C145.322 123.455 144.852 123.536 144.381 123.624C143.446 123.796 143.123 124.106 142.984 125.039C142.894 125.651 142.858 126.275 142.797 126.891C142.773 127.126 142.746 127.361 142.713 127.663C141.066 127.739 139.515 128.173 137.874 128.173C134.502 128.173 131.126 128.315 127.756 128.475C125.844 128.565 123.937 128.806 122.028 128.975C121.762 128.999 121.494 128.978 121.231 128.978C121.038 128.544 119.442 109.934 119.512 108.86ZM118.239 159.142C120.803 159.202 123.364 159.32 125.928 159.398C127.548 159.447 129.165 159.462 130.785 159.483C131.298 159.489 131.811 159.447 132.323 159.453C137.105 159.528 141.88 159.353 146.659 159.172C148.248 159.112 149.844 159.166 151.437 159.187C152.249 159.196 152.327 159.278 152.535 160.074C152.644 160.487 152.734 160.904 152.864 161.453C152.433 161.474 152.143 161.492 151.853 161.501C145.914 161.688 139.974 161.561 134.034 161.42C129.919 161.323 125.835 161.604 121.759 162.159C120.076 162.388 118.371 162.448 116.676 162.578C116.444 162.596 116.205 162.578 115.859 162.578C115.859 161.649 115.852 160.795 115.859 159.941C115.862 159.595 116.058 159.383 116.395 159.338C117.008 159.257 117.626 159.124 118.242 159.139L118.239 159.142ZM54.038 103.744C54.4362 103.723 54.7499 103.684 55.0636 103.693C57.4136 103.771 59.7606 103.85 62.1106 103.946C67.1092 104.154 72.0988 104.073 77.0883 103.644C79.0703 103.475 81.0824 103.554 83.0764 103.653C85.909 103.795 88.7327 104.076 91.5623 104.263C92.6121 104.332 93.6679 104.341 94.7207 104.323C97.2849 104.278 99.8521 104.184 102.416 104.148C103.894 104.127 105.376 104.184 106.914 104.206C106.935 104.498 106.977 104.733 106.968 104.966C106.724 111.669 107.24 118.357 107.412 125.051C107.415 125.186 107.424 125.319 107.427 125.455C107.548 130.233 107.68 135.012 107.789 139.793C107.84 142.089 107.855 144.384 107.882 146.68C107.885 146.973 107.855 147.268 107.84 147.555C107.704 147.618 107.68 147.646 107.659 147.639C105.581 147.172 103.493 146.741 101.427 146.216C100.652 146.02 99.9094 145.658 99.1914 145.289C97.2185 144.282 95.2336 143.292 93.4417 141.971C92.6423 141.38 91.8851 140.737 91.0555 140.074C91.2666 139.796 91.4024 139.606 91.5502 139.431C92.5276 138.276 93.5201 137.135 94.4854 135.971C96.6725 133.334 98.389 130.399 99.8792 127.331C100.769 125.497 101.345 123.554 101.725 121.557C102.033 119.937 101.937 118.327 101.514 116.74C101.01 114.833 100.109 113.105 98.9049 111.563C97.0707 109.204 94.0571 108.372 91.514 109.445C90.2561 109.973 89.1248 110.709 88.1746 111.693C87.6889 112.197 87.2183 112.731 86.8352 113.313C84.9769 116.145 83.6134 119.204 83.0764 122.556C82.4278 126.592 83.01 130.457 85.0765 134.058C86.2168 136.049 87.2786 138.083 88.8503 139.844C88.6512 140.071 88.5094 140.261 88.3405 140.421C86.3103 142.33 84.2288 144.173 81.7853 145.552C81.2061 145.878 81.0794 145.911 80.6932 145.404C79.3207 143.6 77.9813 141.772 76.6117 139.965C76.3251 139.588 76.4578 139.274 76.6177 138.918C77.7128 136.469 78.5333 133.929 79.0673 131.298C79.7732 127.823 79.7611 124.324 79.4836 120.806C79.2995 118.474 78.7807 116.218 78.0899 113.995C77.4594 111.967 76.3522 110.227 74.8379 108.746C73.8092 107.738 72.5875 107.077 71.1636 106.815C70.7925 106.746 70.4215 106.673 70.0474 106.61C66.9222 106.079 64.1378 107.331 62.5661 110.094C61.2086 112.48 60.8315 115.066 61.3262 117.771C61.6581 119.591 62.2765 121.316 63.091 122.972C64.3459 125.521 65.7999 127.956 67.4712 130.257C68.883 132.203 70.334 134.122 71.7639 136.052C72.5211 137.072 73.2481 138.113 74.0385 139.105C74.4065 139.567 74.3643 139.935 74.1048 140.418C73.0822 142.327 71.9811 144.191 70.6326 145.884C69.3204 147.531 67.8965 149.084 66.536 150.692C66.1559 151.142 65.7155 151.314 65.1242 151.305C63.0729 151.266 61.0185 151.275 58.9642 151.269C58.1859 151.269 57.4076 151.269 56.5388 151.269C56.4905 150.991 56.397 150.656 56.3789 150.318C56.2582 148.08 56.1346 145.842 56.0501 143.6C55.845 138.173 55.6579 132.749 55.4739 127.322C55.4347 126.134 55.3985 124.945 55.4437 123.757C55.6006 119.744 55.2235 115.771 54.6594 111.808C54.3246 109.455 54.0259 107.095 54.0319 104.709C54.0319 104.417 54.0319 104.127 54.0319 103.75L54.038 103.744ZM75.5106 141.28C75.7338 141.573 75.9028 141.772 76.0476 141.986C77.0672 143.486 78.1502 144.931 79.4413 146.213C79.7279 146.496 79.9451 146.846 80.2045 147.154C80.7204 147.769 81.372 147.908 82.0869 147.546C82.3252 147.425 82.5485 147.265 82.7597 147.099C85.173 145.235 87.6316 143.428 89.8156 141.286C89.8337 141.268 89.8639 141.265 89.879 141.259C91.0102 142.113 92.0299 143.018 93.1732 143.715C95.1763 144.937 97.2215 146.098 99.3121 147.163C100.932 147.989 102.748 148.267 104.522 148.623C105.288 148.777 106.057 148.922 106.821 149.097C107.876 149.338 107.922 149.425 107.723 150.611C107.339 150.593 106.944 150.584 106.549 150.557C101.128 150.149 95.7162 150.062 90.2862 150.514C86.98 150.789 83.6526 150.864 80.3343 150.976C76.663 151.1 72.9917 151.163 69.3204 151.253C69.0549 151.259 68.7864 151.253 68.4275 151.253C68.7322 150.548 69.3023 150.164 69.7005 149.652C70.1138 149.118 70.5693 148.617 70.9886 148.089C71.4079 147.561 71.8182 147.024 72.2164 146.478C72.6146 145.932 72.9977 145.377 73.3688 144.813C73.7398 144.249 74.0958 143.676 74.4427 143.096C74.7866 142.526 75.1154 141.947 75.5046 141.28H75.5106ZM68.9132 129.494C67.2329 127.205 65.7728 124.773 64.5239 122.221C63.6762 120.489 63.0457 118.682 62.8074 116.758C62.5812 114.915 62.8828 113.138 63.6702 111.473C63.9869 110.803 64.4545 110.172 64.9734 109.639C66.2223 108.353 67.7668 107.955 69.5617 108.136C73.1697 108.501 75.1003 110.809 76.3221 113.88C77.1094 115.862 77.6162 117.946 77.7791 120.091C77.8696 121.301 77.9089 122.517 77.936 123.729C77.9632 125.048 78.0325 126.375 77.936 127.687C77.6856 131.111 76.7806 134.381 75.4533 137.543C75.4111 137.639 75.3477 137.727 75.2391 137.914C75.0853 137.748 74.9857 137.66 74.9073 137.558C72.9072 134.873 70.8981 132.194 68.9162 129.494H68.9132ZM89.514 138.095C87.891 136.113 86.6843 133.865 85.6557 131.552C84.2981 128.505 84.1051 125.268 84.82 122.022C85.4113 119.337 86.5094 116.842 87.9694 114.51C88.8654 113.081 90.063 111.976 91.5623 111.204C93.5563 110.175 95.7826 110.444 97.2517 112.154C99.5444 114.824 100.784 117.901 100.09 121.503C99.7013 123.527 99.0165 125.455 98.1054 127.31C96.1235 131.349 93.4748 134.912 90.4612 138.224C90.3707 138.324 90.2742 138.421 90.1746 138.511C90.1354 138.544 90.0811 138.559 89.9725 138.611C89.8277 138.448 89.6648 138.279 89.517 138.095H89.514ZM58.1346 152.919C59.9416 152.861 61.7516 152.907 63.5586 152.91C63.6581 152.91 63.7607 152.946 63.8602 152.964C63.8934 153.027 63.9266 153.094 63.9598 153.157C62.9251 153.971 61.9024 154.795 60.8496 155.582C60.6807 155.709 60.3881 155.712 60.1558 155.697C58.569 155.582 56.9822 155.45 55.3955 155.317C54.7439 155.263 54.3849 154.913 54.3366 154.318C54.2974 153.824 54.5478 153.425 55.1753 153.305C56.1496 153.115 57.1421 152.949 58.1316 152.919H58.1346ZM60.5329 157.827C60.916 157.591 61.2629 157.447 61.7335 157.483C65.8573 157.803 69.9811 158.029 74.1199 157.845C75.031 157.803 75.948 157.839 77.0099 157.839C76.9797 159.172 77.1004 160.376 76.9013 161.676C69.242 161.782 61.637 162.665 53.8117 161.896C54.1556 161.679 54.3246 161.567 54.4995 161.465C56.5116 160.255 58.5298 159.055 60.5329 157.83V157.827ZM71.0942 156.27C68.6115 156.234 66.1318 156.092 63.6491 155.993C63.5465 155.99 63.4439 155.947 63.2207 155.896C64.3369 154.907 65.3324 153.999 66.3671 153.139C66.5873 152.958 66.9614 152.898 67.2661 152.888C68.6145 152.852 69.966 152.888 71.3174 152.843C77.4443 152.638 83.5681 152.424 89.692 152.186C91.4175 152.119 93.14 151.908 94.8655 151.857C98.9712 151.736 103.074 151.845 107.164 152.225C107.726 152.276 108.284 152.394 108.839 152.514C109.098 152.572 109.352 152.689 109.584 152.819C109.876 152.982 110.106 153.22 110.091 153.588C110.073 153.987 109.765 154.155 109.448 154.222C108.528 154.415 107.596 154.72 106.67 154.705C104.097 154.668 101.55 154.931 98.9923 155.136C95.1974 155.444 91.3964 155.664 87.5984 155.935C86.6843 156.002 85.7733 156.165 84.8562 156.192C83.185 156.246 81.5138 156.237 79.8425 156.243C76.9284 156.258 74.0113 156.306 71.0972 156.267L71.0942 156.27ZM165.078 163.055C165.293 163.055 165.513 163.07 165.724 163.112C166.635 163.302 167.13 164.035 167.012 164.967C166.961 165.38 166.789 165.61 166.348 165.607C165.513 165.607 164.674 165.631 163.839 165.628C159.543 165.607 155.247 165.549 150.954 165.561C143.552 165.586 136.155 165.854 128.764 166.255C123.18 166.557 117.593 166.762 112.006 167.009C105.629 167.263 99.2548 166.994 92.8836 166.765C88.1504 166.593 83.4354 166.744 78.7113 167.003C75.2331 167.194 71.7458 167.29 68.2616 167.305C63.9356 167.323 59.6218 167.51 55.314 167.875C53.9445 167.99 52.5598 168.011 51.1842 167.951C50.4753 167.921 49.7664 167.652 49.0786 167.429C48.5778 167.269 48.3003 166.868 48.2399 166.334C48.2188 166.147 48.1766 165.96 48.1645 165.773C48.065 164.352 48.1494 164.231 49.4798 163.709C50.1344 163.453 50.7649 163.248 51.513 163.329C56.6534 163.884 61.8089 163.987 66.9704 163.688C71.6372 163.417 76.307 163.251 80.9828 163.314C83.3328 163.347 85.6768 163.498 88.0268 163.564C90.5095 163.637 92.9952 163.73 95.4779 163.706C98.9954 163.67 102.498 163.818 106 164.129C110.048 164.488 114.1 164.43 118.142 164.104C120.887 163.881 123.62 163.531 126.363 163.257C129.678 162.925 133.005 162.964 136.324 163.088C143.971 163.368 151.612 163.07 159.256 163.04C161.199 163.031 163.142 163.052 165.084 163.064L165.078 163.055ZM167.241 85.3182C166.858 86.3227 166.52 87.3514 166.056 88.3167C164.662 91.2248 161.293 91.8673 159.193 91.3032C158.339 91.074 157.513 90.7301 156.695 90.3831C156.028 90.0996 155.401 89.7165 154.743 89.4057C153.724 88.9231 153.211 88.0935 153.045 87.0135C153.006 86.7541 152.967 86.4916 152.915 86.1477C157.715 85.6892 162.472 85.2337 167.284 84.7721C167.269 85.0135 167.293 85.1824 167.241 85.3182ZM167.646 75.2817C167.875 77.3119 167.827 79.3783 167.878 81.4267C167.89 81.9335 167.796 82.4403 167.754 82.9169C166.952 83.2397 153.905 84.5218 152.677 84.4041C152.629 84.0874 152.556 83.7495 152.526 83.4086C152.146 79.0254 151.784 74.6392 151.389 70.259C151.172 67.8396 150.852 65.4293 150.665 63.0069C150.508 60.9375 150.457 58.856 150.399 56.7805C150.384 56.1953 150.508 55.607 150.583 54.8649C155.428 54.9645 160.164 54.5693 164.982 55.0912C165.181 56.2948 165.401 57.4291 165.549 58.5754C166.267 64.1442 167.012 69.7099 167.643 75.2877L167.646 75.2817ZM169.404 50.8859C169.281 52.3731 168.183 52.9735 167.106 53.0941C165.902 53.2299 164.683 53.2962 163.474 53.2902C161.096 53.2812 158.719 53.2057 156.345 53.1545C156.345 53.2088 156.345 53.26 156.345 53.3143C153.51 53.3143 150.674 53.2962 147.835 53.3204C146.001 53.3355 144.164 53.5044 142.333 53.4441C138.58 53.3174 134.821 53.1997 131.084 52.8588C127.672 52.5481 124.239 52.4184 120.851 51.809C119.153 51.5013 117.424 51.435 115.69 51.3988C112.471 51.3294 109.258 51.45 106.057 51.6974C102.63 51.9629 99.2035 51.9086 95.7736 51.8965C92.232 51.8844 88.7055 52.1378 85.1851 52.5632C84.2589 52.6748 83.3057 52.5572 82.3645 52.5421C82.1774 52.5391 81.9874 52.4938 81.8004 52.4998C78.7777 52.5843 75.7489 52.3943 72.7292 52.6748C69.785 52.9493 66.8498 52.6145 63.9085 52.5149C61.7154 52.4395 59.5736 51.9418 57.3835 51.9749C55.2235 52.0051 53.0606 52.0383 50.9006 52.0443C50.2279 52.0443 49.5582 51.9538 48.8855 51.9146C48.3727 51.8844 47.8598 51.8301 47.35 51.8603C46.0649 51.9357 44.8281 51.6823 43.5822 51.4138C42.4087 51.1604 41.7511 50.4153 41.4042 49.3565C40.9456 47.9658 40.9275 46.5238 41.2292 45.112C41.5852 43.4378 42.2368 42.9762 43.9171 42.8073C45.0634 42.6927 46.255 42.6806 47.3923 42.8525C52.1767 43.5735 56.9792 43.5192 61.7878 43.3111C67.1575 43.0788 72.5301 42.8435 77.8998 42.572C80.5424 42.4393 83.182 42.219 85.8246 42.0441C86.5516 41.9958 87.2816 41.9475 88.0117 41.9475C95.6318 41.9475 103.249 41.9144 110.869 41.9777C116.245 42.023 121.617 42.2371 126.993 42.3095C130.287 42.3518 133.587 42.3186 136.882 42.2281C140.128 42.1406 143.361 42.385 146.601 42.4815C151.099 42.6112 155.537 43.1904 159.956 43.9747C160.593 44.0864 161.238 44.1889 161.881 44.2372C163.585 44.3669 165.238 44.7772 166.891 45.1633C169.003 45.655 169.522 46.3036 169.603 48.4726C169.634 49.275 169.477 50.0835 169.41 50.8889L169.404 50.8859Z" fill="#47567B"/>
</svg>
