<svg width="203" height="203" viewBox="0 0 203 203" fill="none" xmlns="http://www.w3.org/2000/svg">
<g clip-path="url(#clip0_1972_83518)">
<rect width="203" height="203" rx="101.5" fill="white"/>
<path d="M117.376 142.531C120.916 135.555 124.135 128.128 122.827 120.117C121.796 113.776 116.973 106.717 109.686 107.528C103.197 108.249 100.033 115.062 98.7947 120.707C96.9869 128.945 97.3595 137.615 98.3773 145.93C99.4157 154.389 101.137 162.772 102.655 171.156C102.966 172.874 103.142 175.458 104.884 176.4C106.333 177.183 108.258 176.445 109.704 175.972C113.202 174.834 116.241 172.681 119.012 170.314C124.477 165.646 128.999 159.926 132.432 153.613C135.741 147.523 138.477 140.527 138.553 133.513C138.594 129.718 137.79 125.616 135.316 122.621C133.108 119.948 129.603 118.644 126.174 119.02C117.915 119.923 114.02 128.555 114.209 136.032C114.237 137.07 114.485 139.44 115.934 139.482C117.383 139.523 117.642 136.935 117.659 136.032C117.787 129.249 117.577 122.476 117.111 115.711L113.957 118.371C114.368 120.175 114.775 121.983 115.186 123.787C115.362 124.557 115.993 125.644 116.904 125.433C117.866 125.212 118.218 123.77 118.339 122.963C118.449 122.211 118.56 121.459 118.674 120.703L117.47 123.111L117.625 122.994H116.707L116.838 123.053L116.076 122.166L115.72 119.451L116.514 117.388L116.393 117.56L117.263 117.088C117.476 117.464 117.528 117.567 117.414 117.398C117.287 117.032 117.142 116.674 116.98 116.322C116.762 115.904 116.493 115.47 116.2 115.1C115.61 114.352 114.765 113.693 113.892 113.31C112.115 112.53 110.09 112.492 108.289 113.21C103.711 115.031 102.245 120.914 102.255 125.326C102.255 125.871 102.9 129.866 104.439 128.652C106.916 126.699 109.397 124.747 111.874 122.794L110.197 121.907C112.488 127.52 113.385 133.648 112.743 139.675L116.069 141.51C116.717 134.596 115.658 127.748 112.664 121.459C112.077 120.231 110.825 120.175 110.225 121.459C107.458 127.375 106.581 134.044 107.751 140.475C107.927 141.451 108.479 143.47 109.873 142.883C111.177 142.335 111.242 139.723 111.077 138.64C110.566 135.29 110.987 132.023 112.346 128.911L109.462 127.389C110.069 133.251 110.673 139.109 111.28 144.97L114.434 142.311C113.167 136.88 111.57 131.547 109.638 126.316C109.331 125.485 108.268 123.698 107.278 125.078C105.608 127.403 104.618 129.973 104.294 132.823H107.62C107.278 130.825 106.933 128.828 106.592 126.83C106.45 125.999 106.136 124.584 105.157 124.36C104.177 124.136 103.642 125.25 103.438 126.006C102.576 129.214 101.713 132.426 100.851 135.635L104.004 138.295C104.58 134.679 104.656 131.074 104.401 127.424C104.335 126.503 103.721 124.674 102.507 124.954C101.293 125.233 100.992 127.369 101.01 128.341C101.251 141.638 102.345 154.91 104.308 168.061C104.432 168.889 104.777 170.311 105.743 170.532C106.709 170.752 107.244 169.638 107.461 168.886C110.245 159.336 111.615 149.431 111.546 139.482C111.539 138.536 111.342 136.628 110.28 136.156C109.217 135.683 108.544 136.904 108.331 137.743C107.471 141.117 106.612 144.494 105.753 147.868L108.907 148.693C108.562 144.622 108.517 140.537 108.689 136.456H105.239C104.853 147.272 105.412 158.112 106.871 168.834C106.951 169.403 107.496 171.639 108.534 171.366C113.06 170.183 116.404 167.171 119.536 163.825C122.779 160.361 126.022 156.832 128.727 152.923C131.546 148.852 133.781 144.374 134.682 139.468C135.472 135.159 135.161 129.628 131.987 126.265C128.427 122.494 122.986 123.194 118.405 124.17C116.096 124.66 115.952 131.143 118.405 131.07C123.614 130.915 128.696 131.802 133.522 133.782C133.122 132.368 132.719 130.953 132.318 129.539C131.873 131.771 130.172 133.803 128.906 135.628C127.292 137.953 125.677 140.282 124.063 142.607C120.833 147.261 117.608 151.912 114.378 156.566C115.075 158.374 115.772 160.178 116.469 161.986C119.905 155.386 124.552 149.559 130.138 144.65C131.756 143.228 130.828 136.604 128.396 138.691C121.775 144.384 114.271 149 106.271 152.481L107.948 153.368C106.933 151.639 106.585 149.994 107.485 148.144C108.386 146.295 110.801 146.93 111.66 148.524C112.767 150.584 112.678 153.658 112.829 155.935C113.036 158.984 113.016 162.072 112.774 165.118L115.658 163.597C113.716 159.133 112.76 154.203 113.129 149.331C113.223 148.086 113.274 146.109 112.132 145.26C111.094 144.491 110.211 145.671 109.98 146.671C108.82 151.677 108.296 156.766 108.593 161.903L111.981 160.985C111.27 153.192 110.925 145.374 110.904 137.546C110.904 136.639 110.594 134.006 109.179 134.096C107.578 134.196 106.33 134.852 105.232 136.004C105.929 137.812 106.626 139.616 107.323 141.424C108.672 138.133 111.932 136.035 115.379 135.442C117.494 135.079 119.667 135.183 121.772 135.573C122.841 135.769 123.893 136.056 124.925 136.401C125.453 136.577 127.588 137.035 127.837 137.515L127.333 135.076C128.078 133.427 128.096 132.996 127.388 133.782C127.03 134.044 126.671 134.307 126.312 134.569C125.774 134.962 125.236 135.355 124.697 135.752C123.531 136.604 122.365 137.46 121.199 138.312C118.777 140.085 116.359 141.859 113.937 143.628L115.886 148.696C116.869 144.073 118.618 139.675 121.24 135.728H119.498C120.04 136.263 121.016 137.16 120.647 138.012C121.551 139.406 122.455 140.799 123.355 142.193C123.535 141.614 123.714 141.034 123.893 140.454C124.259 139.271 124.421 135.297 122.403 135.262C121.137 135.241 119.874 135.217 118.608 135.197C116.234 135.155 116.179 142.055 118.608 142.097C119.874 142.117 121.137 142.141 122.403 142.162L120.913 136.97C120.733 137.55 120.554 138.129 120.374 138.709C119.96 140.044 119.985 141.979 120.82 143.159C121.503 144.125 122.569 144.073 123.086 142.89C124.901 138.709 124.639 133.113 121.24 129.766C120.744 129.276 119.967 129.059 119.498 129.766C116.362 134.489 114.089 139.654 112.905 145.209C112.636 146.475 112.529 147.813 113.04 149.041C113.278 149.614 114.023 150.887 114.854 150.277C118.977 147.258 123.103 144.236 127.226 141.217C129.465 139.578 130.876 138.043 130.78 135.069C130.683 132.168 129.251 130.981 126.722 130.053C122.469 128.493 117.887 127.693 113.461 128.99C109.648 130.108 106.399 132.837 104.884 136.539C104.308 137.943 104.153 139.637 104.749 141.069C105.15 142.035 106.009 142.973 106.975 141.959C107.592 141.307 108.299 141.048 109.179 140.993L107.454 137.543C107.478 145.981 107.889 154.413 108.655 162.817C108.738 163.735 109.324 165.57 110.549 165.288C111.774 165.005 112.101 162.866 112.046 161.9C111.822 157.946 112.07 154.013 112.964 150.149L109.811 147.489C109.259 154.724 110.328 161.8 113.226 168.468C114.251 170.828 115.993 168.413 116.11 166.947C116.514 161.841 116.493 156.749 115.941 151.653C115.551 148.062 115.124 142.566 111.436 140.686C107.747 138.805 105.222 142.135 104.201 145.422C102.914 149.569 103.307 154.472 105.515 158.239C105.891 158.877 106.388 159.478 107.192 159.126C115.562 155.483 123.224 150.587 130.141 144.643L128.399 138.685C122.493 143.873 117.663 150.128 114.033 157.101C113.357 158.401 113.343 160.295 113.899 161.631C114.233 162.438 115.289 163.721 116.124 162.521C119.74 157.308 123.355 152.098 126.971 146.885C130.338 142.035 134.468 137.294 135.648 131.367C135.865 130.277 135.72 127.648 134.444 127.124C129.344 125.029 123.921 124.001 118.411 124.164V131.064C122.213 130.256 128.303 128.994 130.866 132.964C132.932 136.163 130.455 141.017 128.889 143.884C126.515 148.224 123.19 151.971 119.874 155.607C116.559 159.243 113.305 163.211 108.541 164.456C109.096 165.301 109.648 166.143 110.204 166.988C108.824 156.859 108.331 146.661 108.693 136.442C108.731 135.407 108.375 133.033 106.968 132.992C105.56 132.951 105.281 135.538 105.243 136.442C105.043 141.141 105.184 145.83 105.584 150.515C105.653 151.336 106.095 152.774 107.02 152.985C107.944 153.195 108.544 152.098 108.738 151.339C109.597 147.965 110.456 144.588 111.315 141.213L108.099 139.471C108.161 148.258 106.947 156.956 104.487 165.391L107.641 166.216C105.767 153.664 104.698 141.017 104.467 128.328L101.079 129.245C101.248 131.657 101.061 134.065 100.682 136.446C100.492 137.646 100.596 139.709 101.679 140.517C102.762 141.324 103.57 140.089 103.832 139.105C104.694 135.897 105.557 132.685 106.419 129.477L103.266 128.652C103.607 130.65 103.952 132.647 104.294 134.645C104.435 135.462 104.825 137.177 105.957 137.177C107.089 137.177 107.527 135.469 107.62 134.645C107.772 133.292 108.22 132.133 109.017 131.022L106.657 129.784C108.589 135.014 110.187 140.351 111.453 145.778C111.684 146.764 112.56 147.969 113.606 147.189C114.723 146.357 114.73 144.322 114.603 143.118C113.995 137.256 113.392 131.398 112.784 125.537C112.636 124.098 110.942 121.631 109.9 124.015C107.634 129.207 106.888 134.852 107.744 140.458L111.07 138.622C110.297 134.372 110.825 130.239 112.657 126.32H110.218C112.198 130.477 113.167 135.052 112.736 139.657C112.622 140.865 112.581 143.277 113.94 143.901C115.3 144.525 115.965 142.411 116.062 141.493C116.959 133.116 115.814 124.812 112.629 117.012C112.415 116.487 111.594 115.618 110.953 116.125C108.475 118.078 105.995 120.03 103.518 121.983L105.702 125.309C105.691 121.355 110.169 117.591 113.854 120.438C114.955 121.29 115.613 125.009 117.721 123.846C119.829 122.683 119.76 117.291 117.625 116.322C117.318 116.156 117.014 116.156 116.707 116.322C115.251 117.426 115.262 119.43 115.013 121.107L118.166 120.282C117.756 118.478 117.349 116.67 116.938 114.866C116.714 113.876 115.827 112.678 114.785 113.455C113.644 114.303 113.702 116.301 113.788 117.526C114.213 123.677 114.33 129.849 114.216 136.014H117.666C117.542 131.133 120.964 126.596 125.936 125.937C130.6 125.319 134.982 128.086 135.109 133.009C135.237 137.932 132.87 143.156 130.655 147.472C128.047 152.56 124.646 157.201 120.613 161.254C118.508 163.369 116.248 165.346 113.719 166.94C112.498 167.709 111.218 168.386 109.876 168.917C109.238 169.169 108.586 169.39 107.92 169.559C107.627 169.635 107.327 169.71 107.026 169.755C106.781 169.81 106.53 169.838 106.278 169.828C106.002 169.752 105.943 169.835 106.095 170.08L106.164 170.328C106.133 170.1 106.095 169.873 106.05 169.645C105.974 169.196 105.888 168.751 105.809 168.306C105.667 167.527 105.526 166.743 105.384 165.964C105.06 164.18 104.739 162.393 104.415 160.609C103.818 157.311 103.211 154.013 102.669 150.704C101.596 144.105 100.785 137.449 101.065 130.753C101.265 125.992 101.793 120.165 105.346 116.58C109.61 112.278 116.762 114.852 118.936 120.027C121.392 125.878 117.528 132.537 114.937 137.639C114.233 139.03 114.185 141.134 114.937 142.518C115.596 143.735 116.724 143.808 117.376 142.518V142.531Z" fill="#DC332E"/>
<path d="M118.902 127.61C120.396 125.868 121.075 123.394 120.927 121.124C120.872 120.293 120.813 119.44 120.423 118.685C120.196 118.247 119.771 117.674 119.202 117.674C117.822 117.674 117.415 120.186 117.477 121.124C117.491 121.272 117.498 121.421 117.494 121.569L117.529 121.096C117.477 121.448 117.494 121.393 117.584 120.931C117.501 121.19 117.501 121.217 117.584 121.007C117.674 120.627 117.442 121.272 117.398 121.369C117.308 121.524 117.325 121.5 117.446 121.3C117.356 121.421 117.263 121.535 117.163 121.645C116.156 122.818 116.08 124.957 116.545 126.365C116.873 127.351 117.853 128.828 118.905 127.603L118.902 127.61Z" fill="#DC332E"/>
<path d="M101.627 60.1453C105.519 59.8003 109.545 59.7175 113.385 58.9688C116.383 58.3823 119.16 57.1645 120.671 54.3596C122.324 51.2926 122.217 45.6242 118.042 44.8721C114.175 44.1752 109.728 43.9441 105.874 44.7928C102.704 45.4897 99.6919 46.9732 97.5494 49.471C96.5213 50.6716 95.6312 52.1654 95.2069 53.6938C94.6549 55.6775 94.7135 58.6238 96.5351 59.9624C97.9358 60.9905 100.202 61.4563 101.852 61.9048C103.794 62.4292 105.826 62.7845 107.837 62.4706C110.946 61.9807 113.758 60.1591 115.089 57.2507C116.041 55.1669 116.469 52.3448 115.358 50.2334C114.437 48.4843 111.995 48.1807 110.211 48.1013C107.955 48.0013 105.905 48.6637 103.849 49.5089C102.931 49.885 101.986 50.3266 100.972 50.2955C100.585 50.2852 100.275 50.2231 99.923 50.0609C98.1739 49.2433 100.127 48.5291 99.3365 52.2724C99.6367 50.8579 99.8609 48.6947 98.719 47.5528C97.6771 46.5074 96.6041 47.639 96.3592 48.7913C95.6002 52.3793 96.8456 57.6785 101.551 57.1576C103.539 56.9368 105.226 55.7534 107.137 55.2842C108.238 55.0151 109.4 54.9461 110.525 55.0289C111.039 55.0669 111.556 55.129 112.06 55.2394L112.798 55.4395C113.312 55.7189 113.309 55.5464 112.788 54.9151L112.616 52.2551C112.412 54.4045 108.876 55.5223 107.127 55.6672C105.377 55.8121 103.604 55.5119 101.931 55.0255C100.806 54.6977 98.336 54.2699 97.6012 53.3177L98.3947 55.3808C98.3567 55.9225 98.3153 56.4641 98.2774 57.0058C98.374 56.7988 98.4809 56.5952 98.5982 56.3986C98.7983 56.1778 98.9536 55.8776 99.1433 55.6396C99.616 55.0565 100.144 54.5287 100.741 54.0767C102.031 53.1004 103.552 52.369 105.101 51.9136C108.896 50.7958 113.057 51.2339 116.925 51.6617C117.29 51.7031 117.684 51.7928 118.053 51.7928L118.508 51.9274C118.784 49.3399 118.715 48.505 118.294 49.4158C117.846 49.7884 117.577 50.3335 117.059 50.6888C115.91 51.4754 114.517 51.8825 113.161 52.1309C109.386 52.8209 105.457 52.9244 101.638 53.2591C99.1744 53.4764 99.3331 60.3626 101.638 60.1591L101.627 60.1453Z" fill="#DC332E"/>
<path d="M48.3146 132.143C51.2816 131.063 53.4137 128.372 53.9519 125.278C54.4521 122.418 53.9036 118.723 51.2022 117.081C49.0632 115.78 46.0928 116.253 44.3505 117.995C42.0252 120.317 41.6595 124.184 42.246 127.251C42.8843 130.587 44.9301 133.399 48.0834 134.769C50.4984 135.818 54.428 136.763 56.5325 134.655C58.9854 132.195 59.1372 127.51 58.6646 124.308C58.1919 121.107 56.5808 117.926 53.4206 116.977C49.7049 115.859 47.0967 119.171 46.7 122.552C46.4585 124.595 46.8828 126.992 48.3422 128.535C48.8597 129.08 49.4945 129.466 50.2086 129.68C50.3777 129.732 53.0963 129.87 52.9583 129.577L52.5132 126.22L52.4511 126.637L54.5729 124.229C52.7271 123.377 50.8779 122.525 49.0322 121.673C46.6758 120.586 46.0169 127.358 48.1145 128.328C49.9602 129.18 51.8094 130.032 53.6552 130.884C55.0179 131.512 55.6424 129.38 55.7769 128.476C56.1461 125.968 55.4112 122.601 52.2924 122.856C51.7266 122.901 51.2264 123.049 50.6709 122.87C49.7084 122.563 49.8429 121.662 49.8878 123.505C49.9326 125.347 49.7739 124.588 50.5088 124.067C50.8986 123.794 51.2954 123.677 51.7611 123.639C53.6517 123.484 55.4354 125.109 55.3871 126.989C55.3319 129.207 53.3861 129.114 51.5852 128.845C49.7843 128.576 42.8325 125.637 46.6482 123.629C47.3348 123.266 48.1386 123.173 48.9045 123.266C49.2737 123.311 49.6083 123.394 49.943 123.56C49.9878 123.58 50.7089 124.136 50.7296 124.136C51.009 124.602 50.9987 124.229 50.6985 123.025C50.8089 122.697 50.7986 122.677 50.6709 122.966C50.4225 123.128 50.1776 123.701 49.9499 123.936C49.2323 124.678 48.3525 125.143 47.39 125.495C45.2889 126.261 45.765 133.075 48.3077 132.15L48.3146 132.143Z" fill="#DC332E"/>
<path d="M46.7276 129.249C49.1185 129.249 49.1392 122.349 46.7276 122.349C44.3161 122.349 44.3161 129.249 46.7276 129.249Z" fill="#DC332E"/>
<path d="M169.896 130.18C172.432 129.259 174.74 127.803 175.854 125.24C177.03 122.528 177.041 118.819 175.34 116.318C173.818 114.086 171.055 114 168.588 114.176C165.883 114.369 163.562 115.473 162.347 117.995C160.194 122.459 161.409 130.06 167.312 130.615C169.716 130.843 171.935 129.518 172.98 127.369C174.184 124.895 174.374 120.82 172.176 118.813C171.766 118.44 171.4 118.209 170.848 118.464C169.095 119.271 167.905 120.548 166.905 122.173L168.581 121.286C168.395 121.038 168.229 120.983 168.091 121.124C167.757 120.027 166.822 118.813 165.732 119.886C164.641 120.958 164.714 123.308 165.114 124.605C165.556 126.044 166.256 127.282 167.664 127.938C168.471 128.314 168.964 127.665 169.34 127.051C169.91 126.127 170.796 125.561 171.762 125.119L170.434 124.771C171.162 125.55 171.155 124.96 170.406 123.001C170.513 122.639 170.482 122.587 170.306 122.842C169.968 122.966 169.637 123.346 169.275 123.487C168.333 123.853 167.184 123.832 166.246 123.456C165.687 123.232 165.366 122.711 164.886 122.476C164.307 122.19 165.604 122.1 164.804 122.697C164.942 122.594 165.583 121.921 165.949 121.714C167.07 121.083 168.426 121.048 169.678 121.034C170.193 121.027 170.72 121.024 171.231 121.065C171.931 121.121 172.514 121.566 173.132 121.645C173.367 121.99 173.418 122.004 173.287 121.683C173.153 121.341 173.153 120.986 173.284 120.613C173.449 120.731 172.401 121.759 172.328 121.821C171.379 122.625 170.134 123.101 168.978 123.518C166.877 124.281 167.353 131.095 169.896 130.173V130.18Z" fill="#DC332E"/>
<path d="M25.8277 170.252C26.2693 170.252 26.5005 170.514 26.704 170.776C27.0559 171.228 27.3906 171.694 27.7183 172.163C28.8879 173.857 30.2989 175.313 31.948 176.541C32.1343 176.679 32.3275 176.807 32.5518 176.966C33.4764 175.737 34.4389 174.595 35.0703 173.202C36.3502 170.362 37.2438 167.399 38.058 164.408C39.024 160.864 39.9313 157.308 40.9146 153.771C41.7598 150.739 42.3187 147.648 42.9363 144.57C43.3986 142.262 43.8436 139.944 44.3887 137.653C44.7303 136.211 45.234 134.807 45.6825 133.392C45.8998 132.706 46.1482 132.033 46.4035 131.301C46.2207 131.274 46.0827 131.243 45.9481 131.236C45.165 131.188 44.6233 130.798 44.3611 130.066C44.0748 129.269 43.7574 128.476 43.885 127.627C42.3946 126.737 41.884 125.688 42.2014 124.232C42.5119 122.818 43.6746 121.728 45.1063 121.548C45.0856 121.41 45.0753 121.272 45.0477 121.138C44.8717 120.248 45.0615 119.447 45.6652 118.768C45.8377 118.574 45.8964 118.388 45.8826 118.14C45.8067 116.591 45.7515 115.045 45.6687 113.496C45.5445 111.222 45.6273 108.956 45.786 106.686C45.9688 104.06 46.162 101.435 46.3518 98.8093C46.5967 95.418 46.6623 92.0266 46.4242 88.6318C46.407 88.4076 46.3725 88.1868 46.3414 87.9211C46.131 87.966 45.9895 87.997 45.8481 88.0246C44.8752 88.204 44.061 87.6624 43.8712 86.686C43.747 86.0409 43.8402 85.4164 44.1403 84.8299C44.644 83.8398 45.8032 83.7018 46.3897 84.6195C46.4449 84.7057 46.5208 84.7816 46.6554 84.9472C46.9762 84.2538 47.2212 83.6121 47.2695 82.9152C47.3799 81.3696 47.4696 79.824 47.5662 78.2749C47.8387 73.8727 47.5075 69.4947 47.0935 65.1166C46.8762 62.8327 46.6623 60.5523 46.6864 58.2546C46.6968 57.1713 46.7382 56.0845 47.0314 55.0323C47.4903 53.3866 48.5011 52.2861 50.2365 51.9618C51.3439 51.7548 52.4583 51.6133 53.5899 51.6375C56.029 51.6892 58.4716 51.6961 60.9108 51.7755C62.7979 51.8376 64.6816 52.0446 66.5688 52.0687C68.8906 52.0963 71.178 52.4206 73.4791 52.6621C76.3185 52.9588 79.1613 52.8174 81.9903 52.4724C82.494 52.4103 82.9942 52.2723 83.4979 52.2378C84.0844 52.1964 84.6813 52.1826 85.2643 52.2447C85.6128 52.2826 85.875 52.2481 86.1337 52.017C86.3856 51.7927 86.6754 51.6099 86.9445 51.3994C88.321 50.323 89.8735 50.0263 91.5675 50.3506C92.9578 50.6163 94.2343 51.1683 95.4936 51.9583C95.4832 51.7789 95.4832 51.6478 95.4694 51.5167C95.359 50.5611 95.6178 49.702 96.1905 48.9465C97.1461 47.6941 98.6779 47.7804 99.499 49.1155C99.5439 49.1845 99.5922 49.2501 99.6888 49.3846C100.289 48.774 101.02 48.5739 101.869 48.7188C101.89 48.4738 101.897 48.2875 101.924 48.1047C102.049 47.325 102.376 46.6591 103.153 46.3797C103.943 46.0933 104.664 46.3521 105.264 46.9041C105.73 47.3319 106.02 47.8701 106.14 48.4945C106.189 48.7429 106.216 48.9982 106.278 49.2466C106.378 49.6537 106.641 49.8745 107.144 49.8469C107.01 49.5951 106.885 49.3398 106.741 49.0914C106.454 48.6084 106.375 48.1012 106.513 47.5596C106.72 46.735 107.272 46.3314 108.11 46.4625C109.076 46.6143 109.921 47.049 110.636 47.7183C110.774 47.8459 110.894 47.9908 111.022 48.1254C112.53 46.9455 114.493 47.049 115.814 49.1086C116.252 49.2087 116.673 49.2259 117.018 49.395C117.584 49.6744 117.881 50.2161 117.963 50.8302C118.019 51.2373 118.177 51.4719 118.519 51.7306C118.923 52.0342 119.326 52.1308 119.792 52.2033C120.399 52.2999 121.003 52.4344 121.593 52.6C122.134 52.7518 122.68 52.8415 123.228 52.7449C125.643 52.3206 128.048 52.5 130.456 52.807C132.65 53.0865 134.858 53.1106 137.066 53.1279C138.57 53.1382 140.074 53.2417 141.579 53.3004C141.81 53.3107 142.048 53.328 142.276 53.3004C143.921 53.121 145.563 52.9209 147.209 52.7518C147.906 52.6794 148.606 52.6242 149.307 52.6345C151.384 52.6621 153.471 52.5172 155.537 52.8243C157.511 53.1141 159.481 53.4246 161.454 53.704C161.979 53.7765 162.51 53.7903 163.041 53.8006C164.059 53.8144 165.08 53.7799 166.098 53.8213C166.667 53.842 167.25 53.9076 167.792 54.0697C169.189 54.4872 170.165 55.3842 170.528 56.8297C171.156 59.3275 171.58 61.8529 171.497 64.4473C171.476 65.0821 171.528 65.7204 171.594 66.3517C171.794 68.2941 172.008 70.233 172.239 72.1719C172.401 73.5415 172.605 74.9077 172.791 76.2739C172.808 76.3947 172.843 76.5154 172.867 76.6293C174.34 76.6569 175.24 77.4883 175.848 78.6855C176.237 79.4583 176.048 80.3415 175.471 80.9245C174.768 81.6352 173.688 81.6835 172.939 81.0211C172.787 80.8866 172.691 80.683 172.57 80.5105C172.518 80.5381 172.467 80.5657 172.415 80.5933C172.353 80.7624 172.28 80.928 172.235 81.1005C171.77 82.8289 171.532 84.5953 171.352 86.3686C171.031 89.5806 170.745 92.7925 170.4 96.001C169.903 100.614 169.779 105.233 170.034 109.863C170.121 111.412 170.203 112.958 170.286 114.507C170.317 115.055 170.717 115.369 171.259 115.249C171.794 115.128 172.311 115.145 172.812 115.383C173.602 115.756 174.047 116.453 173.978 117.325C173.953 117.622 174.009 117.85 174.174 118.091C174.54 118.626 174.557 119.247 174.523 119.903C175.575 120.506 176.003 121.431 175.796 122.638C176.734 123.132 177.165 123.887 177.021 124.902C176.855 126.061 176.258 126.865 174.982 127.003C175.023 127.165 175.047 127.265 175.075 127.365C175.333 128.248 175.168 129.062 174.588 129.756C174.333 130.059 174.305 130.311 174.416 130.67C175.42 133.896 175.934 137.197 175.961 140.575C175.975 142.083 175.954 143.59 175.968 145.095C176.013 149.21 176.569 153.261 177.579 157.249C177.942 158.677 178.452 160.036 179.115 161.354C180.346 163.8 181.557 166.257 182.741 168.727C183.086 169.452 183.306 170.235 183.576 170.99C183.658 171.225 183.724 171.466 183.814 171.77C184.076 171.642 184.283 171.553 184.483 171.446C186.08 170.59 187.546 169.538 188.978 168.441C191.573 166.45 194.115 164.394 196.541 162.2C197.217 161.589 197.879 160.958 198.517 160.302C200.957 157.801 202.768 154.91 203.844 151.574C203.924 151.332 204.006 151.087 204.131 150.866C204.303 150.563 204.614 150.463 204.89 150.563C205.179 150.67 205.317 150.932 205.262 151.287C205.242 151.411 205.193 151.532 205.155 151.653C203.972 155.438 201.933 158.705 199.128 161.492C196.744 163.863 194.15 165.988 191.517 168.068C190.434 168.924 189.334 169.755 188.226 170.58C184.907 173.05 181.178 174.533 177.103 175.196C171.563 176.096 166.001 176.286 160.412 175.758C156.445 175.386 152.543 174.716 148.772 173.395C140.999 170.673 134.092 166.564 128.348 160.595C128.244 160.488 128.137 160.385 128.027 160.288C127.999 160.264 127.951 160.264 127.858 160.237C127.744 160.381 127.61 160.54 127.485 160.706C125.94 162.817 124.201 164.766 122.417 166.674C121.355 167.809 120.185 168.827 118.926 169.734C117.17 171.001 115.397 172.246 113.637 173.509C112.819 174.095 111.94 174.544 110.97 174.823C110.646 174.916 110.38 174.854 110.166 174.606C110.056 174.478 109.953 174.34 109.87 174.192C107.482 169.955 105.157 165.688 103.611 161.047C103.184 159.757 102.77 158.463 102.345 157.173C102.283 156.98 102.204 156.793 102.093 156.504C101.824 156.783 101.624 156.99 101.424 157.201C92.5231 166.585 82.0972 173.726 70.036 178.439C65.2923 180.291 60.4036 181.613 55.3494 182.282C52.9275 182.603 50.4918 182.72 48.0457 182.717C45.6963 182.713 43.402 182.279 41.0871 182.006C36.9505 180.888 33.021 179.356 29.7814 176.424C28.5808 175.337 27.4975 174.144 26.6074 172.788C26.3073 172.329 26.0727 171.825 25.8381 171.328C25.6863 170.997 25.6345 170.638 25.8139 170.245L25.8277 170.252ZM162.755 117.319C162.682 117.281 162.575 117.212 162.462 117.174C160.461 116.532 158.484 115.801 156.452 115.283C154.847 114.873 153.333 114.296 151.922 113.468C149.303 111.937 146.688 110.391 144.111 108.787C139.83 106.123 135.841 103.063 131.953 99.8616C129.328 97.7019 126.751 95.4904 124.387 93.0444C120.999 89.5392 118.088 85.6959 116.038 81.2488C114.714 78.375 113.413 75.4942 112.112 72.61C111.412 71.061 110.808 69.474 110.408 67.818C110.384 67.711 110.322 67.6144 110.215 67.366C110.091 67.7524 110.011 67.987 109.939 68.2251C108.121 74.1798 105.426 79.7205 101.883 84.8334C98.8608 89.1942 95.8144 93.5412 92.6853 97.8295C90.1288 101.331 87.7276 104.933 85.3333 108.538C84.2155 110.222 83.077 111.881 81.6763 113.344C80.1169 114.966 78.5886 116.629 76.7428 117.936C74.6625 119.413 72.5097 120.765 70.143 121.755C69.3081 122.104 68.5249 122.594 67.7383 123.049C66.5274 123.753 65.3371 124.488 64.1331 125.205C63.2602 125.73 62.346 125.992 61.342 125.595C61.3075 125.581 61.2592 125.602 61.173 125.612C61.1661 125.792 61.1661 125.978 61.1454 126.164C61.1074 126.544 61.1074 126.934 61.0108 127.299C60.7797 128.162 60.3036 128.859 59.4169 129.142C59.0547 129.259 58.7752 129.435 58.551 129.708C58.7269 130.743 58.7166 131.16 58.3509 131.695C58.1025 132.057 58.0162 132.43 58.0783 132.837C58.2267 133.823 58.3854 134.807 58.551 135.79C59.0305 138.657 59.5549 141.52 59.9793 144.394C60.2484 146.205 60.5416 147.999 61.1833 149.721C61.7836 151.336 62.4978 152.898 63.3361 154.403C64.9059 157.218 66.0754 160.185 66.7654 163.345C67.3105 165.832 68.0074 168.285 68.9217 170.669C69.2943 171.642 69.6255 172.629 69.6841 173.681C69.691 173.785 69.7117 173.895 69.7531 173.988C70.0533 174.685 69.9946 175.399 69.8635 176.117C69.8014 176.465 69.7152 176.807 69.622 177.242C69.936 177.124 70.1706 177.045 70.4017 176.952C77.626 174.064 84.2811 170.19 90.4462 165.456C94.293 162.5 97.8603 159.236 101.152 155.669C101.538 155.251 101.679 154.896 101.472 154.327C101.179 153.513 100.958 152.66 100.782 151.812C100.168 148.858 99.8026 145.86 99.5232 142.862C98.9988 137.222 99.3852 131.619 100.638 126.092C101.345 122.963 102.645 120.058 104.239 117.284C104.553 116.736 104.964 116.235 105.378 115.756C106.089 114.931 106.913 114.234 107.879 113.71C108.748 113.237 109.67 113.068 110.649 113.192C112.675 113.444 114.365 114.345 115.707 115.873C115.935 116.132 116.1 116.484 116.197 116.818C117.156 120.141 117.456 123.525 117.101 126.968C117.077 127.189 117.073 127.41 117.06 127.631C117.246 127.51 117.329 127.372 117.391 127.224C118.17 125.436 119.236 123.836 120.499 122.356C121.096 121.655 121.748 121 122.583 120.606C123.635 120.11 124.698 119.575 125.812 119.275C127.996 118.681 130.063 118.995 131.86 120.496C132.771 121.258 133.468 122.187 134.03 123.222C135.175 125.326 135.962 127.565 136.455 129.901C137.132 133.106 136.973 136.321 136.507 139.53C136.159 141.931 135.434 144.242 134.699 146.55C133.337 150.849 131.494 154.91 128.934 158.632C128.841 158.767 128.772 158.922 128.7 159.053C130.508 161.472 136.169 165.97 140.313 168.237C143.607 170.041 147.037 171.542 150.656 172.677C150.838 172.305 151.008 172.011 151.132 171.697C151.422 170.97 151.694 170.231 151.97 169.496C152.75 167.409 153.533 165.325 154.302 163.231C154.747 162.017 155.189 160.799 155.586 159.571C155.848 158.763 156.038 157.935 156.252 157.114C156.983 154.334 157.404 151.508 157.504 148.627C157.59 146.147 157.714 143.666 157.866 141.186C157.99 139.15 158.242 137.135 158.846 135.169C159.708 132.364 160.664 129.601 161.899 126.937C162.003 126.713 162.068 126.523 161.885 126.295C161.195 125.443 161.037 124.519 161.589 123.518C161.496 123.453 161.43 123.401 161.361 123.36C160.354 122.725 159.981 121.776 160.078 120.637C160.16 119.689 160.792 119.102 161.74 119.009C161.947 118.988 162.158 118.985 162.355 118.971C162.489 118.412 162.617 117.884 162.755 117.319ZM155.31 96.1183C155.344 95.9217 155.368 95.7595 155.403 95.6008C155.727 94.0759 155.71 92.5648 155.203 91.0779C155.061 90.657 154.868 90.2568 154.699 89.8462C153.906 87.9246 153.105 86.0064 152.319 84.0813C150.569 79.8033 149.697 75.3562 149.693 70.7332C149.693 68.0146 149.759 65.296 150.028 62.5912C150.207 60.7869 149.914 59.0377 149.493 57.2955C149.389 56.8677 149.151 56.5744 148.751 56.4054C148.575 56.3295 148.403 56.2501 148.22 56.1949C144.673 55.1323 141.106 54.225 137.346 54.3837C134.989 54.4837 132.633 54.3319 130.287 54.0835C129.103 53.9593 127.924 53.8351 126.737 53.7523C125.978 53.7006 125.219 53.7661 124.377 53.9352C124.567 54.1146 124.687 54.2215 124.805 54.3354C125.557 55.0806 126.371 55.7775 127.047 56.5848C129 58.9273 130.646 61.47 131.839 64.2921C132.916 66.8347 134.116 69.3187 135.434 71.7475C137.308 75.201 139.195 78.6441 141.486 81.8457C142.883 83.7949 144.194 85.8063 145.584 87.759C150.58 94.7832 155.603 101.787 160.592 108.814C161.82 110.543 162.972 112.326 164.138 114.103C164.456 114.59 164.683 115.135 164.977 115.701C165.128 115.5 165.246 115.328 165.377 115.169C165.525 114.99 165.649 114.755 165.843 114.655C166.602 114.255 166.529 113.637 166.346 112.975C166.26 112.668 166.156 112.368 166.084 112.057C165.877 111.191 165.622 110.332 165.491 109.453C165.301 108.173 165.215 106.879 165.059 105.592C164.504 101.01 164.297 96.415 164.242 91.8024C164.207 88.9596 164.049 86.1202 163.862 83.2843C163.776 81.9768 163.479 80.683 163.293 79.3824C163.148 78.375 163.107 77.3434 162.879 76.3567C162.199 73.4001 161.444 70.4607 160.74 67.5075C160.574 66.8106 160.485 66.093 160.398 65.3788C160.371 65.1373 160.426 64.8682 160.505 64.6302C160.678 64.1161 161.102 63.8988 161.613 64.0713C161.889 64.1644 162.158 64.3128 162.403 64.4784C163.431 65.1684 164.083 66.1447 164.469 67.3039C164.994 68.8806 165.339 70.4952 165.501 72.1512C165.673 73.9107 165.622 75.6736 165.515 77.4331C165.315 80.8486 165.18 84.2607 165.397 87.6796C165.48 88.9941 165.522 90.3085 165.525 91.6264C165.529 95.2593 165.656 98.8852 166.008 102.504C166.212 104.595 166.37 106.696 166.681 108.773C166.926 110.425 167.367 112.054 167.726 113.689C167.747 113.782 167.816 113.882 167.892 113.938C168.237 114.193 168.596 114.434 168.989 114.71C168.999 114.51 169.02 114.327 169.01 114.145C168.968 113.361 168.916 112.575 168.872 111.792C168.585 107.017 168.506 102.246 168.996 97.4776C169.386 93.6757 169.724 89.8704 170.11 86.0685C170.359 83.6155 170.752 81.1867 171.604 78.8545C171.68 78.6441 171.714 78.3957 171.697 78.1714C171.618 77.2192 171.528 76.267 171.414 75.3183C171.121 72.9171 170.793 70.5193 170.517 68.1181C170.376 66.8761 170.234 65.6238 170.245 64.3783C170.269 61.9357 169.9 59.5587 169.317 57.2023C169.034 56.0673 168.233 55.4635 167.14 55.2151C166.791 55.1358 166.426 55.1047 166.067 55.0978C165.111 55.0806 164.155 55.1013 163.2 55.0806C162.524 55.0668 161.841 55.0495 161.171 54.9564C159.615 54.7425 158.066 54.4941 156.514 54.2388C153.795 53.7937 151.052 53.8972 148.317 53.9386C147.623 53.949 146.933 54.0421 146.25 54.2215C146.443 54.3423 146.636 54.4009 146.833 54.463C147.64 54.7218 148.458 54.9529 149.251 55.2496C149.986 55.5256 150.487 56.0604 150.683 56.8435C151.177 58.7893 151.487 60.7455 151.287 62.7672C151.008 65.5789 150.939 68.401 150.966 71.2266C150.994 74.1315 151.432 76.9777 152.181 79.7791C152.833 82.2079 153.864 84.4918 154.868 86.7895C155.413 88.0315 155.917 89.2977 156.369 90.5742C156.786 91.761 156.986 92.9961 156.959 94.2657C156.948 94.8522 156.69 95.3317 156.362 95.7768C156.12 96.1011 155.772 96.2322 155.31 96.1252V96.1183ZM51.7717 117.308C51.9511 117.512 52.1098 117.553 52.2754 117.363C52.3996 117.219 52.5342 117.081 52.6342 116.918C53.407 115.673 54.1902 114.438 54.9319 113.175C56.2981 110.853 57.4677 108.418 58.9822 106.179C59.2306 105.809 59.4273 105.406 59.6239 105.006C61.1385 101.894 62.1079 98.592 62.7979 95.2179C63.2085 93.2031 63.3741 91.14 63.7122 89.1114C64.5022 84.4056 65.8201 79.9033 68.518 75.8703C70.7329 72.5548 72.3889 68.9461 73.6654 65.1649C74.1864 63.6159 74.7349 62.0772 75.28 60.535C75.3559 60.3177 75.4525 60.1003 75.5836 59.9071C75.7251 59.6967 75.9528 59.6208 76.2046 59.6898C76.4806 59.7657 76.6393 59.9727 76.6428 60.2487C76.6428 60.435 76.591 60.6247 76.5289 60.8041C75.9873 62.3704 75.4387 63.9298 74.8936 65.4961C74.0932 67.8042 73.2204 70.0881 72.0577 72.2409C71.0986 74.0142 70.0636 75.7461 69.0286 77.4745C68.2869 78.7165 67.5555 79.962 67.0587 81.3213C66.0099 84.202 65.175 87.1449 64.8472 90.1981C64.4194 94.1622 63.6052 98.0331 62.3115 101.807C61.618 103.822 60.7728 105.758 59.6308 107.565C58.9305 108.676 58.275 109.822 57.6264 110.964C56.5051 112.937 55.4805 114.969 54.166 116.829C54.1143 116.905 54.097 117.005 54.0522 117.125C54.5386 117.177 54.9768 117.222 55.446 117.274C55.5391 117.067 55.6219 116.877 55.7116 116.687C56.3671 115.259 57.0399 113.838 57.9748 112.564C58.7787 111.471 59.5894 110.377 60.4036 109.29C62.3184 106.744 64.2124 104.184 65.9167 101.49C67.5762 98.8645 69.108 96.177 70.212 93.2617C70.8226 91.654 71.4436 90.0532 72.0646 88.449C74.0967 83.2015 75.9942 77.9092 77.5501 72.4996C78.3816 69.6051 79.1475 66.6864 80.0272 63.8056C81.1174 60.2452 82.4491 56.7814 84.4915 53.635C84.5226 53.5867 84.5191 53.5177 84.5467 53.3866C84.2673 53.4142 84.0189 53.4177 83.7774 53.466C80.8035 54.0766 77.7847 54.0732 74.7694 54.0663C74.4313 54.0663 74.0898 54.0249 73.7551 53.9835C71.2056 53.6764 68.6629 53.3487 66.0823 53.328C64.3435 53.3142 62.6082 53.1037 60.8694 53.0485C58.4716 52.9726 56.0739 52.9243 53.6727 52.9312C52.6377 52.9312 51.5992 53.0658 50.5711 53.1969C49.2774 53.3625 48.546 54.1801 48.232 55.398C48.1147 55.8465 48.0526 56.3157 48.0112 56.778C47.8491 58.6237 47.9491 60.4695 48.0975 62.3118C48.2941 64.7647 48.5805 67.2142 48.7116 69.6741C48.8496 72.2581 48.8668 74.8491 48.9013 77.44C48.9117 78.3508 48.7495 79.2651 48.7668 80.1724C48.8013 82.0044 48.5391 83.7673 47.7904 85.4475C47.6455 85.7718 47.6317 86.0823 47.7111 86.4342C48.1354 88.3075 48.2941 90.2016 48.1251 92.1267C47.9353 94.2829 47.7835 96.4426 47.6248 98.6023C47.4282 101.269 47.2315 103.936 47.0452 106.606C46.8831 108.959 46.783 111.312 46.9348 113.668C47.0107 114.876 47.0521 116.083 47.1142 117.294C47.1211 117.432 47.1418 117.57 47.1729 117.829C47.4075 117.615 47.5558 117.481 47.7042 117.343C48.7944 116.325 49.3429 115.031 49.5568 113.589C49.7776 112.078 49.926 110.557 50.1502 109.045C50.6401 105.761 50.823 102.463 50.8713 99.144C50.8954 97.5328 51.0196 95.9182 51.1956 94.3174C51.5061 91.5298 51.7476 88.7422 51.6027 85.9305C51.5406 84.7437 51.4957 83.5534 51.5199 82.3666C51.5578 80.4588 51.6372 78.5475 51.7441 76.6431C51.8649 74.4834 51.9235 72.3064 52.2168 70.1674C52.5756 67.5627 53.1379 64.989 53.6382 62.4049C53.8279 61.4217 54.1729 60.4798 54.6594 59.6035C54.8422 59.2723 55.0561 58.9411 55.3218 58.6755C56.0911 57.9096 57.2641 58.1718 57.6505 59.1826C57.754 59.4586 57.8196 59.7553 57.861 60.0451C58.0507 61.4217 58.0093 62.7982 57.7575 64.1679C57.3228 66.5622 56.5189 68.8426 55.5736 71.0748C55.3425 71.6199 55.0837 72.165 54.925 72.7342C54.4558 74.4075 54.028 76.0945 53.583 77.7781C53.476 78.1887 53.3518 78.5958 53.269 79.0098C53.1621 79.548 53.0172 80.0896 53.0068 80.6347C52.9723 82.6944 53.0241 84.754 52.9689 86.8137C52.9206 88.6801 52.8481 90.55 52.6549 92.4027C52.3548 95.2765 52.1167 98.1504 52.0822 101.041C52.0615 102.739 51.9477 104.436 51.7993 106.127C51.6475 107.859 51.4302 109.587 51.1921 111.312C51.0265 112.509 50.8195 113.703 50.5608 114.883C50.3193 115.977 49.8328 116.963 49.0221 117.767C48.9462 117.843 48.9117 117.96 48.8323 118.102C49.1083 118.119 49.3153 118.133 49.5085 118.147C49.65 117.978 49.7466 117.791 49.8984 117.695C50.3434 117.408 50.5366 116.974 50.7057 116.511C50.785 116.29 50.8747 116.077 50.9541 115.856C52.2375 112.413 53.583 109.004 55.3356 105.761C57.1227 102.453 57.9507 98.8783 57.9921 95.1109C58.0093 93.4135 58.03 91.7092 58.1818 90.0222C58.4544 86.9586 58.8339 83.9019 59.1582 80.8417C59.5032 77.6056 60.3691 74.5144 61.618 71.5164C62.967 68.2803 64.4884 65.127 66.0547 61.9944C66.1099 61.8805 66.172 61.7667 66.2514 61.6666C66.4446 61.4251 66.7033 61.3389 66.9897 61.4665C67.2795 61.5942 67.3899 61.8564 67.3174 62.1531C67.2519 62.4187 67.1346 62.6706 67.0173 62.919C65.8374 65.4133 64.623 67.8904 63.4845 70.4055C62.2114 73.2138 61.1074 76.0945 60.6865 79.1719C60.2932 82.0527 59.8999 84.9369 59.6446 87.8314C59.4135 90.45 59.3928 93.0892 59.2272 95.7147C59.1409 97.0671 59.0133 98.4264 58.7821 99.7615C58.2991 102.528 57.202 105.085 55.8669 107.538C54.9423 109.239 54.1557 110.998 53.476 112.813C52.962 114.186 52.4307 115.549 51.9097 116.918C51.858 117.053 51.8166 117.191 51.7752 117.312L51.7717 117.308ZM56.7811 119.354C57.3124 119.216 57.8196 119.082 58.3302 118.954C58.6717 118.871 58.8718 118.674 58.9719 118.326C59.3307 117.074 60.0552 116.032 60.928 115.083C61.8595 114.065 62.7945 113.051 63.7398 112.047C64.5712 111.164 65.4682 110.353 66.4929 109.694C66.8655 109.453 67.2484 109.197 67.659 109.052C68.0454 108.914 68.487 108.835 68.8941 108.866C69.6186 108.925 69.9705 109.477 69.7842 110.181C69.6876 110.546 69.5289 110.898 69.3736 111.247C68.2662 113.727 66.5377 115.711 64.4229 117.377C63.5673 118.053 62.622 118.574 61.6077 118.975C61.1523 119.154 60.7072 119.347 60.2553 119.533C60.0414 119.62 59.9137 119.761 59.893 120.006C59.793 121.272 60.0483 122.466 60.69 123.553C61.2178 124.446 62.2597 124.74 63.1705 124.246C64.3815 123.591 65.5545 122.866 66.7482 122.173C67.5934 121.683 68.4283 121.186 69.2908 120.727C69.8532 120.427 70.4569 120.213 71.0262 119.93C73.2997 118.806 75.4525 117.481 77.35 115.794C78.6955 114.597 79.9341 113.275 81.183 111.978C82.2007 110.919 83.0391 109.718 83.8429 108.49C85.5748 105.844 87.2998 103.191 89.1145 100.603C92.6749 95.5318 96.2836 90.4879 99.8992 85.4544C104.005 79.7481 107.082 73.545 109.045 66.7899C109.18 66.3241 109.307 65.8549 109.442 65.365C109.076 65.2132 108.738 65.0925 108.421 64.9303C108.11 64.7716 107.82 64.5681 107.513 64.3783C107.441 64.4922 107.4 64.5646 107.355 64.6371C106.368 66.2275 104.136 66.369 102.98 64.9096C102.549 64.368 102.245 63.7677 102.183 63.0673C102.176 62.9811 102.135 62.8948 102.09 62.7499C101.624 63.1915 101.352 63.6642 101.117 64.1644C100.769 64.9131 100.424 65.6686 100.058 66.4104C98.5813 69.4222 97.2358 72.4927 95.9869 75.6081C95.3418 77.2227 94.6552 78.8269 93.9031 80.3932C92.0505 84.2641 89.9494 88.0039 87.7414 91.6782C86.044 94.5037 84.0982 97.1602 81.835 99.5683C81.1692 100.276 80.4136 100.907 79.6546 101.514C79.3372 101.769 78.9129 101.938 78.5127 102.039C77.8779 102.197 77.4225 101.838 77.3673 101.186C77.3431 100.914 77.3673 100.634 77.4121 100.362C77.6536 98.7541 78.1884 97.2396 78.8059 95.7423C80.2722 92.1888 82.3215 88.963 84.3846 85.7476C86.8272 81.9423 89.3595 78.1956 91.7676 74.3695C94.2205 70.4676 96.7494 66.6208 99.5715 62.9707C99.6681 62.8465 99.7336 62.6982 99.8337 62.5291C98.4295 61.9875 98.395 60.7386 98.2398 59.5311C97.5291 59.8795 96.8632 59.8485 96.1974 59.638C95.1589 59.3103 94.7656 58.5582 95.0865 57.5059C95.152 57.2886 95.2383 57.0747 95.3142 56.8608C94.3999 56.4606 94.2171 56.3329 93.9825 55.8258C93.5374 54.877 93.6099 53.9731 94.2654 53.1348C94.3723 52.9968 94.4862 52.8622 94.6104 52.707C93.8686 52.4241 93.2028 52.1446 92.5197 51.9169C92.0194 51.7513 91.4985 51.6202 90.9775 51.5305C90.0702 51.3753 89.1594 51.496 88.3866 51.9618C86.9997 52.8001 85.7128 53.7868 84.9504 55.2841C84.3259 56.5123 83.6773 57.7336 83.1288 58.9998C81.8074 62.0427 80.8311 65.2098 79.9962 68.4148C78.8232 72.9171 77.4466 77.3572 75.9183 81.7456C74.9557 84.5125 73.8138 87.2139 72.8581 89.9808C70.9192 95.5836 68.1868 100.762 64.7196 105.558C62.9911 107.948 61.2351 110.322 59.4549 112.675C58.4095 114.058 57.6195 115.576 56.8881 117.136C56.5672 117.822 56.4637 118.502 56.7742 119.34L56.7811 119.354ZM119.323 53.4625C119.274 54.5665 118.998 55.5463 117.932 56.1363C118.277 56.9746 118.174 57.7647 117.732 58.5237C117.277 59.3034 116.618 59.7795 115.662 59.8278C115.883 60.5626 116 61.2285 115.69 61.8874C115.397 62.5084 114.931 62.9604 114.296 63.2191C113.613 63.4986 112.975 63.2122 112.302 62.9569C112.133 63.7504 111.857 64.399 111.246 64.8682C111.15 64.9407 111.115 65.1753 111.143 65.3167C111.55 67.2487 111.988 69.1773 112.795 70.992C114.151 74.0349 115.507 77.0812 116.894 80.1103C118.108 82.7634 119.575 85.2681 121.348 87.5899C123.615 90.5535 126.185 93.2307 128.983 95.6836C135.11 101.052 141.561 105.989 148.624 110.084C150.349 111.084 152.08 112.075 153.833 113.027C154.444 113.358 155.116 113.589 155.782 113.8C156.835 114.127 157.904 114.4 158.967 114.693C159.087 114.728 159.219 114.735 159.467 114.772C158.856 114.227 158.328 113.8 157.852 113.323C155.82 111.295 153.602 109.484 151.408 107.638C148.627 105.299 145.767 103.07 142.793 100.986C141.975 100.414 141.192 99.796 140.409 99.175C136.545 96.1114 133.461 92.4579 131.725 87.7693C131.453 87.0345 131.122 86.3203 130.763 85.6234C129.89 83.926 128.993 82.239 128.089 80.5588C127.827 80.0724 127.551 79.5894 127.213 79.1581C125.867 77.4366 124.525 75.7081 123.118 74.0383C122.093 72.8205 121.017 71.6475 120.133 70.3158C119.719 69.6879 119.402 69.0186 119.274 68.2768C119.185 67.749 119.109 67.1832 119.647 66.8313C120.158 66.5001 120.692 66.6553 121.148 66.952C121.624 67.2625 122.083 67.6179 122.486 68.0181C123.866 69.3774 125.053 70.9023 126.14 72.5065C127.948 75.1768 129.259 78.099 130.435 81.0867C131.391 83.5155 132.381 85.9305 133.368 88.3489C134.523 91.1848 136.255 93.624 138.456 95.7457C140.002 97.2396 141.644 98.6161 143.393 99.8581C146.25 101.887 149.051 103.988 151.725 106.254C154.071 108.245 156.469 110.174 158.667 112.34C159.967 113.624 161.416 114.741 162.951 115.738C163.134 115.856 163.331 115.952 163.521 116.056C163.559 116.018 163.6 115.98 163.638 115.945C163.486 115.628 163.365 115.297 163.183 115C162.572 114.007 161.982 112.996 161.309 112.044C159.294 109.18 157.259 106.327 155.206 103.491C149.872 96.1356 144.639 88.7077 139.502 81.2143C139.105 80.6382 138.694 80.0655 138.349 79.4583C136.735 76.6155 135.075 73.7968 133.557 70.9057C132.384 68.6736 131.387 66.3483 130.325 64.054C129.048 61.294 127.358 58.81 125.322 56.5641C123.839 54.9253 122.021 53.8489 119.806 53.5108C119.664 53.4901 119.519 53.4901 119.316 53.4763L119.323 53.4625ZM51.1438 181.347C51.0645 180.871 50.9748 180.44 50.9299 180.005C50.8989 179.691 50.9713 179.367 50.9299 179.053C50.7229 177.552 50.7954 176.044 50.8195 174.537C50.8402 173.464 51.0438 172.432 51.4129 171.425C51.582 170.97 51.7372 170.5 51.8235 170.024C52.0477 168.793 52.234 167.557 52.4203 166.319C52.5307 165.584 52.5859 164.842 52.7032 164.107C53.3587 160.043 54.0211 155.979 54.6939 151.919C54.9043 150.635 55.2217 149.386 55.8151 148.217C56.2188 147.42 56.788 146.782 57.547 146.309C57.7989 146.154 58.0576 146.081 58.3267 146.223C58.6062 146.371 58.6614 146.633 58.651 146.93C58.6269 147.651 58.6096 148.372 58.5993 149.093C58.5372 153.164 57.7126 157.052 55.8703 160.706C55.5564 161.33 55.2528 161.968 55.0389 162.631C54.3696 164.691 53.7244 166.757 53.4726 168.92C53.4243 169.341 53.3173 169.755 53.2276 170.169C52.9965 171.246 52.7308 172.318 52.5376 173.402C52.2961 174.758 52.0374 176.12 52.1443 177.511C52.2064 178.335 52.2409 179.167 52.341 179.984C52.479 181.113 52.648 181.188 53.6037 181.075C55.8151 180.816 58.0266 180.54 60.2346 180.236C62.6737 179.898 64.9197 178.915 67.207 178.07C68.2282 177.69 68.5801 176.89 68.5732 175.924C68.5629 174.395 68.4214 172.874 67.8556 171.425C66.8413 168.831 66.0858 166.15 65.4855 163.435C64.8472 160.547 63.7743 157.842 62.3632 155.255C61.9182 154.434 61.4731 153.613 61.0764 152.767C59.8413 150.135 59.0719 147.382 58.6993 144.484C58.2991 141.372 57.6816 138.288 57.1606 135.19C57.033 134.427 56.9122 133.661 56.7673 132.757C56.1429 133.716 55.339 134.117 54.3558 134.165C53.3415 134.213 52.4755 133.899 51.9339 133.075C50.2675 133.382 48.8392 133.033 47.511 132.043C47.3488 132.495 47.2074 132.888 47.0659 133.285C46.476 134.924 45.8757 136.556 45.5341 138.27C45.1063 140.413 44.6302 142.548 44.2093 144.694C43.5331 148.131 42.8707 151.567 41.9151 154.944C41.0077 158.149 40.197 161.382 39.3241 164.597C38.4996 167.63 37.6267 170.649 36.3157 173.516C35.9086 174.406 35.4601 175.265 34.8736 176.058C34.5735 176.465 34.3423 176.924 34.0974 177.373C34.0215 177.511 34.0111 177.683 33.9732 177.835C35.4636 178.887 37.0954 179.481 38.8549 179.971C38.8032 179.505 38.7342 179.129 38.7238 178.756C38.6479 176.283 38.8204 173.833 39.4656 171.435C39.7968 170.207 40.1832 168.993 40.5592 167.775C40.9422 166.54 41.2975 165.294 41.7426 164.08C42.2463 162.707 42.8328 161.361 43.3848 160.005C44.2921 157.787 45.2202 155.576 46.1034 153.347C47.0866 150.859 48.0181 148.351 49.0048 145.867C49.374 144.943 49.8052 144.039 50.2675 143.156C50.5401 142.635 50.8954 142.152 51.2646 141.689C51.5095 141.379 51.8683 141.196 52.2858 141.358C52.6825 141.513 52.7412 141.883 52.7722 142.252C52.7791 142.338 52.786 142.421 52.7929 142.507C52.9585 144.446 52.8067 146.374 52.4203 148.272C51.5475 152.553 49.8604 156.49 47.2281 159.992C46.1965 161.365 45.127 162.714 44.0541 164.056C43.1985 165.129 42.5085 166.284 42.0945 167.602C41.6322 169.079 41.1423 170.552 40.6972 172.036C40.0383 174.233 39.7243 176.472 40.0038 178.767C40.0486 179.146 40.1314 179.519 40.2108 179.891C40.2901 180.253 40.5144 180.481 40.8835 180.578C41.5183 180.743 42.1428 180.971 42.7879 181.088C44.9062 181.478 47.0487 181.537 49.1946 181.489C49.8432 181.475 50.4883 181.399 51.1542 181.351L51.1438 181.347ZM165.015 139.05C165.318 139.264 165.342 139.543 165.339 139.819C165.335 140.285 165.339 140.754 165.294 141.22C165.159 142.573 164.98 143.918 164.852 145.27C164.535 148.631 164.128 151.981 163.559 155.31C163.162 157.635 162.893 159.985 162.958 162.345C163.01 164.314 162.793 166.233 162.365 168.151C162.006 169.765 161.761 171.404 161.471 173.033C161.433 173.24 161.416 173.454 161.413 173.667C161.406 173.964 161.561 174.161 161.854 174.195C162.613 174.285 163.369 174.388 164.131 174.426C165.401 174.492 166.677 174.513 167.95 174.551C168.333 174.561 168.716 174.585 169.096 174.571C169.744 174.554 169.838 174.461 169.845 173.83C169.848 173.385 169.831 172.939 169.803 172.494C169.751 171.711 169.662 170.928 169.617 170.145C169.534 168.72 169.306 167.316 168.944 165.939C168.254 163.335 168.019 160.689 168.044 157.994C168.064 155.555 168.013 153.109 167.854 150.677C167.609 146.857 167.474 143.045 167.674 139.223C167.692 138.885 167.726 138.543 167.785 138.212C167.926 137.415 168.578 137.17 169.172 137.718C169.444 137.97 169.658 138.308 169.831 138.643C170.307 139.564 170.49 140.575 170.576 141.589C170.766 143.894 170.9 146.205 171.083 148.51C171.173 149.652 171.287 150.794 171.463 151.922C171.652 153.136 171.959 154.334 172.159 155.548C172.429 157.176 172.991 158.694 173.691 160.185C174.771 162.479 175.592 164.863 175.892 167.402C175.989 168.223 176.099 169.044 176.241 169.859C176.42 170.89 176.52 171.918 176.379 172.964C176.334 173.291 176.341 173.626 176.32 174.026C178.528 173.716 180.591 173.212 182.578 172.36C182.561 172.187 182.568 172.056 182.53 171.942C182.223 171.039 181.982 170.104 181.578 169.248C180.429 166.809 179.194 164.411 178.028 161.982C177.545 160.971 177.041 159.943 176.745 158.87C176.227 157.011 175.803 155.124 175.447 153.226C174.716 149.348 174.623 145.419 174.688 141.486C174.747 137.994 174.267 134.586 173.27 131.246C173.229 131.112 173.157 130.987 173.136 130.943C172.515 130.867 171.98 130.801 171.438 130.736C170.824 131.764 170.024 132.219 168.992 132.005C168.551 131.916 168.116 131.691 167.737 131.439C167.167 131.06 167.188 130.384 167.098 129.759C165.411 129.752 163.959 129.445 163.786 127.424C163.148 127.289 163.134 127.282 162.92 127.776C162.541 128.652 162.161 129.528 161.816 130.418C160.909 132.754 160.047 135.117 159.574 137.58C159.081 140.147 158.991 142.766 158.867 145.374C158.784 147.071 158.784 148.772 158.673 150.466C158.446 154.071 157.535 157.542 156.507 160.985C156.258 161.817 155.92 162.624 155.61 163.435C155.023 164.96 154.416 166.478 153.833 168.003C153.222 169.607 152.632 171.221 152.036 172.833C152.025 172.864 152.053 172.912 152.07 172.981C154.689 173.671 157.314 174.399 160.116 174.416C160.15 173.74 160.164 173.109 160.212 172.477C160.329 170.987 160.768 169.562 161.137 168.123C161.699 165.922 161.885 163.693 161.723 161.43C161.703 161.137 161.696 160.833 161.74 160.544C162.268 157.08 162.606 153.595 162.882 150.104C162.955 149.176 163.072 148.244 163.269 147.334C163.572 145.919 163.779 144.501 163.879 143.056C163.948 142.024 164.173 141.003 164.345 139.978C164.411 139.585 164.632 139.281 165.015 139.057V139.05ZM127.741 158.077C127.903 157.86 128.013 157.732 128.1 157.59C128.893 156.259 129.735 154.955 130.459 153.588C132.315 150.104 133.502 146.357 134.561 142.573C135.334 139.816 135.648 136.994 135.631 134.134C135.61 130.605 134.668 127.303 133.099 124.163C132.65 123.266 132.095 122.438 131.36 121.745C130.518 120.951 129.552 120.42 128.376 120.317C127.365 120.23 126.381 120.303 125.44 120.703C124.777 120.986 124.087 121.227 123.463 121.583C122.897 121.904 122.321 122.273 121.893 122.752C121.131 123.601 120.399 124.498 119.788 125.461C117.753 128.666 116.866 132.167 117.318 135.966C117.574 138.101 118.143 140.168 118.747 142.228C120.43 147.955 123.149 153.112 127.22 157.518C127.375 157.687 127.537 157.853 127.744 158.073L127.741 158.077ZM115.797 133.675C115.738 133.834 115.676 133.989 115.628 134.148C114.541 137.629 113.044 140.927 111.239 144.091C109.035 147.958 106.43 151.546 103.515 154.903C103.235 155.227 103.142 155.503 103.287 155.928C103.849 157.573 104.367 159.236 104.916 160.889C106.302 165.084 108.462 168.92 110.515 172.805C110.743 173.236 111.126 173.336 111.508 173.471C111.64 173.385 111.747 173.319 111.85 173.243C113.509 172.06 115.186 170.901 116.825 169.686C118.101 168.741 119.416 167.816 120.565 166.726C122.804 164.608 124.794 162.255 126.619 159.767C126.754 159.585 126.864 159.388 127.009 159.164C123.708 155.676 121.044 151.812 119.257 147.389C117.477 142.983 116.059 138.481 115.8 133.672L115.797 133.675ZM102.683 153.889C102.901 153.651 103.046 153.502 103.18 153.343C104.864 151.346 106.444 149.269 107.889 147.096C110.463 143.228 112.612 139.147 114.096 134.731C115.355 130.981 116.087 127.144 115.956 123.17C115.89 121.21 115.597 119.285 115.01 117.412C114.907 117.077 114.748 116.725 114.517 116.47C113.758 115.642 112.826 115.08 111.753 114.721C110.146 114.183 108.724 114.427 107.42 115.542C106.285 116.511 105.392 117.653 104.733 118.975C103.242 121.966 101.938 125.019 101.503 128.379C101.3 129.956 100.934 131.515 100.786 133.095C100.241 138.95 100.834 144.75 101.807 150.518C101.993 151.622 102.256 152.712 102.683 153.895V153.889ZM98.3847 66.8865C98.3502 66.8658 98.3157 66.8485 98.2812 66.8278C97.6429 67.749 96.9771 68.6529 96.3664 69.5913C94.6759 72.1891 92.9992 74.7939 91.3294 77.4021C88.4211 81.9423 85.5127 86.479 82.6251 91.033C81.4176 92.9374 80.493 94.9971 79.6546 97.0843C79.2993 97.9675 79.0785 98.9025 78.8094 99.8167C78.7473 100.031 78.7404 100.262 78.6852 100.641C78.9784 100.445 79.1647 100.348 79.3131 100.213C79.8202 99.7615 80.3619 99.3372 80.8035 98.8266C81.8868 97.5777 82.9632 96.315 83.9671 95.0005C85.7646 92.6545 87.2584 90.1084 88.7005 87.5313C90.9292 83.5465 93.0786 79.5273 94.7863 75.2803C95.8455 72.6445 97.0288 70.0536 98.1535 67.4454C98.2329 67.2591 98.3088 67.0693 98.3847 66.883V66.8865ZM171.176 174.644C172.36 174.52 173.515 174.402 174.675 174.275C174.968 174.244 175.03 174.026 175.054 173.771C175.199 172.374 175.22 170.987 174.916 169.596C174.699 168.586 174.688 167.526 174.485 166.512C174.071 164.446 173.377 162.469 172.494 160.551C172.035 159.55 171.559 158.536 171.3 157.477C170.814 155.479 170.407 153.457 170.107 151.422C169.869 149.811 169.855 148.168 169.717 146.54C169.558 144.66 169.379 142.78 169.199 140.903C169.179 140.682 169.099 140.468 169.044 140.251C168.937 140.392 168.92 140.516 168.91 140.641C168.709 143.442 168.851 146.243 169.034 149.034C169.248 152.277 169.375 155.517 169.32 158.767C169.286 160.706 169.444 162.627 169.927 164.511C170.514 166.802 170.9 169.117 170.99 171.48C171.028 172.491 171.107 173.502 171.176 174.644ZM51.5958 143.794C51.5337 143.766 51.4681 143.735 51.406 143.708C51.2956 143.928 51.1783 144.149 51.0714 144.373C49.6224 147.447 48.4666 150.642 47.2798 153.823C46.8865 154.875 46.4829 155.928 46.0551 156.966C45.4651 158.398 44.8441 159.819 44.2404 161.244C44.161 161.43 44.1024 161.627 44.0334 161.817C48.6391 156.662 51.4302 150.77 51.5958 143.794ZM53.1379 73.683C53.1759 73.6899 53.2104 73.7002 53.2483 73.7071C53.3104 73.5588 53.3725 73.4104 53.4312 73.2586C53.8107 72.2478 54.1695 71.23 54.5731 70.2295C55.3149 68.3803 55.9807 66.5035 56.4051 64.5508C56.7121 63.1329 56.8122 61.7011 56.619 60.2556C56.5879 60.021 56.4913 59.7933 56.3775 59.4034C56.1222 59.745 55.9083 59.9347 55.8151 60.1693C55.4839 60.9939 55.0906 61.8081 54.9112 62.6671C54.373 65.2581 53.8969 67.8628 53.4519 70.471C53.2725 71.5267 53.2414 72.61 53.1414 73.6795L53.1379 73.683ZM60.5106 117.888C60.5485 117.919 60.583 117.95 60.621 117.981C60.759 117.936 60.9004 117.898 61.0315 117.843C64.4815 116.37 66.8137 113.793 68.3455 110.429C68.3731 110.367 68.349 110.281 68.349 110.115C68.0074 110.294 67.7245 110.425 67.4554 110.588C66.2514 111.326 65.2405 112.285 64.2918 113.32C63.6639 114.007 63.0084 114.672 62.3977 115.376C61.8423 116.014 61.3248 116.684 60.8004 117.346C60.6762 117.505 60.6037 117.705 60.5071 117.884L60.5106 117.888ZM99.1851 52.4448C98.7883 52.2447 98.7435 51.8928 98.7055 51.4891C98.6538 50.9061 98.5503 50.3161 98.3709 49.7607C98.2225 49.3018 97.7637 49.2259 97.398 49.5399C97.2427 49.6744 97.1116 49.8538 97.0116 50.0332C96.6424 50.6853 96.6459 51.3649 96.9219 52.0515C97.0081 52.2654 97.1254 52.4724 97.191 52.6932C97.3324 53.1762 97.0737 53.5315 96.57 53.5695C96.4009 53.5833 96.2319 53.5522 96.0628 53.5626C95.5212 53.604 95.0727 53.9835 95.0244 54.5079C94.9588 55.2048 95.1382 55.6119 95.9973 55.4566C96.2836 55.4049 96.3561 55.2151 96.4596 55.0012C96.8287 54.2284 97.3876 54.018 98.1777 54.3354C98.3502 54.4044 98.5158 54.4837 98.7193 54.5734C98.7435 54.1939 98.7297 53.8524 98.7987 53.5315C98.8746 53.1865 99.0367 52.8588 99.1885 52.4448H99.1851ZM54.8008 159.629C54.8526 159.636 54.9009 159.64 54.9526 159.647C56.6914 156.121 57.3469 152.367 57.2469 148.441C57.0675 148.607 56.9226 148.789 56.8536 149C56.5741 149.842 56.2291 150.677 56.0739 151.543C55.7185 153.502 55.4667 155.479 55.1665 157.446C55.0561 158.173 54.925 158.901 54.8043 159.629H54.8008ZM161.765 65.6031C161.713 65.7066 161.682 65.7411 161.682 65.779C161.685 65.9067 161.682 66.0343 161.713 66.1585C162.52 69.4498 163.331 72.7377 164.142 76.029C164.145 76.0462 164.169 76.0669 164.187 76.0704C164.204 76.0738 164.228 76.06 164.259 76.0531C164.273 76.0014 164.304 75.9462 164.307 75.8875C164.445 73.1517 164.162 70.471 163.314 67.8559C163.089 67.1625 162.769 66.5208 162.241 66.0033C162.096 65.8618 161.93 65.7445 161.765 65.6065V65.6031ZM106.596 51.1027C105.499 50.4438 105.367 50.2713 105.071 49.0465C104.957 48.5808 104.764 48.1633 104.401 47.8459C104.17 47.6458 103.894 47.4768 103.591 47.6113C103.263 47.7562 103.153 48.084 103.197 48.4117C103.26 48.8637 103.38 49.3087 103.47 49.7227C103.749 49.7745 103.946 49.7848 104.119 49.8538C104.329 49.9401 104.553 50.0436 104.715 50.1954C105.04 50.4955 105.109 50.8888 104.974 51.3063C104.847 51.6961 104.508 51.9376 104.039 51.9307C103.691 51.9238 103.342 51.841 102.997 51.7962C102.701 52.6621 103.439 53.635 104.332 53.6626C104.536 53.1589 104.688 52.6518 104.94 52.1929C105.243 51.6409 105.833 51.7341 106.375 51.7341C106.451 51.5167 106.52 51.3201 106.596 51.0993V51.1027ZM120.585 68.1664C120.651 68.6563 120.827 69.06 121.086 69.4119C121.831 70.4124 122.58 71.4094 123.37 72.3789C124.318 73.5415 125.312 74.6731 126.281 75.822C126.519 76.1049 126.744 76.4016 127.061 76.7983C126.368 74.511 122.152 68.9082 120.589 68.1733L120.585 68.1664ZM47.5351 129.432C47.3902 129.908 47.5558 130.315 47.8905 130.684C48.684 131.553 49.7086 131.884 50.8437 131.964C51.1369 131.985 51.2991 131.84 51.3025 131.567C51.3129 131.032 51.4129 130.456 50.8092 130.118C50.6884 130.049 50.5953 129.911 50.5159 129.79C50.3676 129.566 50.1778 129.538 49.9191 129.538C49.1428 129.532 48.3666 129.473 47.5351 129.435V129.432ZM114.962 53.9904C115.103 52.8105 115.493 52.2343 116.487 51.6685C116.884 51.4408 116.949 51.2097 116.725 50.7957C116.621 50.6025 116.476 50.3989 116.242 50.4783C116.09 50.5266 115.949 50.6956 115.869 50.844C115.559 51.4201 115.29 52.0135 114.979 52.5897C114.665 53.1693 114.168 53.3556 113.53 53.2072C113.247 53.1417 112.964 53.1003 112.702 53.052C112.171 54.0352 112.126 55.2151 112.595 55.812C113.223 55.0012 113.882 54.2284 114.962 53.9904ZM47.0073 125.067C46.9038 125.088 46.8244 125.102 46.7485 125.122C45.4755 125.481 44.7027 124.964 44.5371 123.642C44.5129 123.446 44.4853 123.253 44.4508 122.98C43.8574 123.442 43.5021 123.953 43.3606 124.588C43.2295 125.16 43.3606 125.685 43.7919 126.102C44.2749 126.571 45.6169 126.647 46.1793 126.251C46.3518 126.13 46.5001 125.961 46.6864 125.875C47.0659 125.706 47.0728 125.43 47.0038 125.067H47.0073ZM101.072 58.1959C99.7888 58.4995 99.4611 58.8204 99.4852 59.845C99.5163 61.2043 99.9751 61.4458 101.207 61.4631C101.545 61.4665 101.811 61.3009 102.018 61.0353C102.266 60.7144 102.269 60.5868 101.976 60.2797C101.586 59.8726 101.314 59.4103 101.196 58.8583C101.152 58.6548 101.121 58.4478 101.076 58.1925L101.072 58.1959ZM103.342 62.2359C103.142 63.1122 103.642 64.2541 104.412 64.6164C105.012 64.8993 105.599 64.7337 106.089 64.3645C106.523 64.0333 106.644 63.54 106.499 63.0328C105.433 62.7637 104.408 62.505 103.342 62.2359ZM107.779 63.0397C108.317 63.8091 109.059 64.1886 109.939 64.3197C110.035 64.3335 110.153 64.299 110.246 64.2541C110.846 63.9471 111.112 63.4158 111.205 62.7775C111.284 62.229 110.832 62.0772 110.491 61.846C110.46 61.8253 110.411 61.8322 110.301 61.815C109.645 62.4912 108.79 62.8603 107.782 63.0363L107.779 63.0397ZM54.9837 127.689C55.339 127.827 55.6185 127.924 55.8841 128.045C56.1739 128.176 56.4465 128.348 56.7397 128.466C57.033 128.579 57.3435 128.669 57.6505 128.731C57.9852 128.797 58.2163 128.635 58.3543 128.321C58.582 127.803 58.3888 127.21 57.8265 126.927C57.4711 126.747 57.0709 126.654 56.6811 126.561C56.1843 126.44 55.7634 126.544 55.4908 127.037C55.3701 127.255 55.1838 127.437 54.9837 127.689ZM116.37 56.0293C115.855 57.2368 114.962 57.8406 113.713 57.8923C113.627 58.1304 113.644 58.296 113.868 58.3891C114.22 58.534 114.565 58.6927 114.924 58.8135C115.707 59.0826 116.432 58.7755 116.846 58.0165C117.28 57.2127 117.17 56.6814 116.37 56.0293ZM103.812 59.9209C105.064 60.4177 106.061 59.9347 106.313 58.7341C106.354 58.534 106.32 58.2477 106.202 58.0959C105.847 57.6508 105.002 57.637 104.608 58.0579C104.119 58.5823 103.922 59.2413 103.815 59.9244L103.812 59.9209ZM112.419 58.5133C112.361 58.2166 112.309 57.8578 112.212 57.5128C112.178 57.3886 112.06 57.2472 111.943 57.192C111.553 57.0057 110.577 57.4231 110.401 57.8302C110.108 58.5133 110.601 59.5552 111.312 59.7519C111.878 59.9071 112.205 59.7139 112.333 59.1412C112.374 58.9549 112.388 58.7652 112.419 58.5133ZM111.553 61.1388C112.212 61.5804 112.768 61.915 113.399 62.1151C113.71 62.2117 113.982 62.1358 114.227 61.9288C114.613 61.6045 114.831 61.2009 114.693 60.6937C114.541 60.1383 114.251 59.6932 113.63 59.5794C113.156 60.4166 112.464 60.9364 111.553 61.1388ZM106.741 61.2699C106.91 61.5597 107.082 61.8322 107.434 61.7701C107.931 61.6804 108.441 61.5942 108.897 61.3941C109.204 61.2595 109.473 60.9594 109.673 60.6765C109.908 60.3487 109.79 60.0831 109.418 59.9106C109.014 59.7243 108.597 59.7105 108.179 59.8692C107.513 60.121 107.01 60.5454 106.741 61.2733V61.2699ZM102.124 49.8055C101.51 49.6813 100.941 49.7227 100.562 50.3058C100.224 50.8233 100.034 51.3925 99.9924 52.0032C100.544 52.186 101.069 52.3585 101.628 52.5448C101.61 51.8514 101.779 51.258 102.152 50.7163C102.352 50.4265 102.287 50.116 102.124 49.8021V49.8055ZM50.9506 124.922C51.2749 125.292 51.5509 125.609 51.8304 125.919C52.027 126.137 52.2168 126.371 52.441 126.558C52.9206 126.954 53.8176 126.979 54.204 126.606C54.5214 126.299 54.7318 125.923 54.8457 125.447C53.6658 125.557 52.5514 125.557 51.7234 124.626C51.4405 124.733 51.2059 124.822 50.9506 124.922ZM111.788 51.3339C112.133 51.3063 112.461 51.289 112.616 50.9337C112.795 50.5231 112.985 50.0884 112.688 49.6675C112.578 49.5123 112.368 49.3812 112.181 49.3329C111.319 49.119 110.753 49.4398 110.377 50.3196C110.218 50.6922 110.256 50.8785 110.632 51.0268C111.001 51.1717 111.402 51.2338 111.791 51.3339H111.788ZM165.07 120.386C164.804 120.644 164.528 120.872 164.307 121.141C163.793 121.769 163.938 122.49 164.638 122.901C164.956 123.087 165.411 123.018 165.615 122.763C165.898 122.411 166.184 122.059 166.453 121.724C166.056 121.338 165.604 120.903 165.07 120.386ZM115.945 54.3388C116.138 54.8011 116.559 54.9391 116.925 55.1392C117.301 55.3428 117.612 55.2703 117.867 54.9288C118.205 54.4803 118.302 53.9593 118.212 53.4211C118.108 52.8001 117.674 52.6276 117.146 52.983C116.628 53.3314 116.269 53.8282 115.949 54.3354L115.945 54.3388ZM109.559 51.6064C109.57 51.0061 109.021 50.6439 108.407 50.844C107.789 51.0441 107.265 51.9928 107.41 52.6414C107.489 52.9968 107.786 53.2038 108.162 53.1658C108.711 53.1106 109.549 52.1722 109.559 51.6099V51.6064ZM109.625 49.9815C109.746 49.7055 109.856 49.4295 109.987 49.1673C110.118 48.912 110.056 48.7153 109.846 48.5566C109.473 48.2737 109.111 47.9805 108.717 47.7321C108.548 47.6251 108.317 47.5941 108.11 47.5803C107.789 47.5596 107.644 47.7148 107.655 48.0426C107.662 48.184 107.703 48.3358 107.765 48.4669C107.962 48.8878 108.176 49.2984 108.393 49.7296C108.786 49.809 109.194 49.8952 109.625 49.9815ZM111.643 52.293C111.215 52.1895 110.836 52.0963 110.453 52.0066C109.98 52.7967 110.577 53.773 109.894 54.4354C110.059 54.8356 110.211 55.2013 110.384 55.6153C110.594 55.5946 110.812 55.5739 111.084 55.5463C110.981 54.3906 111.157 53.3383 111.64 52.2895L111.643 52.293ZM171.639 121.414C172.042 121.569 172.146 121.338 172.294 121.117C172.536 120.751 172.794 120.393 173.084 120.065C173.422 119.685 173.429 118.978 173.053 118.633C172.656 118.267 172.039 118.34 171.68 118.792C171.566 118.937 171.452 119.085 171.335 119.244C171.835 119.913 172.032 120.617 171.642 121.417L171.639 121.414ZM171.045 125.043C171.159 125.492 171.225 125.913 171.38 126.292C171.494 126.571 171.694 126.847 171.925 127.044C172.501 127.541 173.046 127.355 173.263 126.623C173.37 126.268 173.291 125.957 173.056 125.678C172.542 125.067 171.877 124.929 171.045 125.04V125.043ZM113.292 51.8445C113.806 52.048 113.817 52.0584 114.017 51.8893C114.886 51.1579 115.393 49.7365 114.055 48.7533C113.886 48.6291 113.703 48.5187 113.513 48.4255C113.247 48.2944 112.968 48.2703 112.64 48.3634C113.982 49.3812 114.127 50.1643 113.292 51.8445ZM58.8822 124.253C58.72 124.836 58.5613 125.398 58.413 125.926C58.6648 126.206 58.9167 126.437 59.103 126.713C59.2927 126.999 59.4135 127.327 59.5722 127.651C60.2208 126.82 60.1897 125.154 59.5411 124.439C59.3721 124.253 59.1892 124.143 58.8787 124.257L58.8822 124.253ZM53.6934 120.355C54.304 120.706 54.7594 120.637 55.2148 120.068C55.3321 119.923 55.4356 119.754 55.5046 119.582C55.7461 118.975 55.4563 118.474 54.8077 118.374C54.6214 118.347 54.4282 118.347 54.2419 118.364C53.8659 118.402 53.7865 118.505 53.7693 118.895C53.7451 119.371 53.721 119.851 53.6968 120.355H53.6934ZM54.7663 130.187C55.3908 130.515 56.0014 130.839 56.619 131.15C56.7673 131.222 56.9433 131.25 57.1089 131.277C57.3228 131.312 57.4746 131.212 57.5643 131.015C57.8058 130.511 57.5781 129.939 57.0399 129.801C56.3671 129.632 55.684 129.511 54.963 129.363C54.9009 129.625 54.8457 129.863 54.7663 130.187ZM52.9102 131.367C52.8723 132.06 52.9654 132.402 53.2414 132.637C53.721 133.044 54.9181 133.002 55.3839 132.561C55.6081 132.35 55.6288 132.154 55.3942 131.974C54.6525 131.415 53.821 131.215 52.9102 131.364V131.367ZM52.6722 122.394C52.6894 122.68 52.7101 122.949 52.7239 123.222C52.7653 123.963 52.8826 124.101 53.6037 124.205C53.7934 124.232 53.9832 124.246 54.1729 124.239C54.5628 124.222 54.7146 124.05 54.6456 123.663C54.5524 123.139 54.2764 122.721 53.8245 122.428C53.4553 122.19 53.0827 122.169 52.6722 122.394ZM173.315 124.074C173.853 124.146 174.202 124.022 174.392 123.594C174.63 123.063 174.744 122.497 174.657 121.921C174.623 121.69 174.45 121.472 174.309 121.265C174.261 121.193 174.126 121.141 174.033 121.141C173.643 121.141 173.16 121.924 173.343 122.283C173.571 122.728 173.602 123.17 173.446 123.636C173.408 123.753 173.374 123.874 173.315 124.07V124.074ZM170.255 129.4C169.569 129.459 168.91 129.514 168.244 129.57C168.168 129.997 168.13 130.401 168.547 130.653C168.982 130.918 169.451 130.984 169.938 130.774C170.721 130.432 170.807 130.018 170.259 129.397L170.255 129.4ZM51.2991 129.225C51.4336 129.639 51.7062 129.811 52.1581 129.763C52.5135 129.725 52.8757 129.763 53.2345 129.742C53.6934 129.718 53.8279 129.497 53.6692 129.073C53.4864 128.59 52.6377 128.11 52.1581 128.231C52.0684 128.255 51.9787 128.334 51.9166 128.41C51.7062 128.669 51.5095 128.942 51.2991 129.221V129.225ZM55.6012 121.672C55.8358 122.238 56.0359 122.763 56.274 123.27C56.3809 123.494 56.9502 123.57 57.2676 123.453C57.5608 123.346 57.6057 123.104 57.6057 122.839C57.6126 121.914 56.6673 121.3 55.6012 121.669V121.672ZM48.2148 123.746C49.0048 123.746 49.7431 123.756 50.478 123.739C50.6608 123.736 50.8575 123.68 51.0231 123.594C51.3232 123.439 51.4164 123.087 51.2577 122.842C51.0265 122.48 50.4642 122.376 50.0812 122.587C49.7328 122.78 49.3705 122.952 48.9979 123.087C48.6633 123.204 48.3942 123.366 48.2113 123.746H48.2148ZM171.511 128.193C171.356 128.742 171.545 129.138 172.077 129.469C172.504 129.739 172.987 129.639 173.508 129.18C173.936 128.8 174.047 128.338 173.812 127.841C173.139 128.545 172.36 128.641 171.514 128.193H171.511ZM168.037 126.948C168.006 127.675 168.202 128.069 168.63 128.207C169.165 128.383 169.751 128.241 170.048 127.807C170.566 127.058 170.628 126.982 170.227 126.627C169.586 127.151 168.841 127.134 168.037 126.944V126.948ZM167.302 125.071C166.881 124.984 166.567 124.974 166.312 124.85C166.039 124.719 165.822 124.477 165.567 124.274C165.446 124.374 165.322 124.453 165.218 124.557C164.694 125.095 164.866 125.761 165.594 125.954C166.167 126.106 166.688 125.937 167.122 125.561C167.233 125.464 167.24 125.247 167.298 125.071H167.302ZM162.948 120.744C162.917 120.71 162.869 120.637 162.803 120.586C162.389 120.265 161.854 120.179 161.565 120.386C161.289 120.582 161.247 121.11 161.471 121.631C161.727 122.224 162.037 122.369 162.644 122.207C162.744 121.724 162.844 121.252 162.948 120.744ZM51.4578 121.338C51.7269 120.817 51.9891 120.361 52.1995 119.885C52.4031 119.427 52.1685 118.861 51.7338 118.636C51.2853 118.405 50.9748 118.574 50.9679 119.068C50.9679 119.254 51.0024 119.447 51.0576 119.623C51.2197 120.148 51.2715 120.655 50.8782 121.152C51.0748 121.214 51.2301 121.265 51.4578 121.334V121.338ZM173.405 78.0162C172.846 78.7303 173.246 79.2823 173.564 79.8205C173.788 80.2035 174.119 80.2966 174.416 80.1379C174.726 79.9723 174.857 79.5756 174.678 79.1961C174.419 78.6475 174.019 78.2335 173.405 78.0127V78.0162ZM46.6381 119.606C46.2379 120.072 46.1793 120.493 46.2862 120.945C46.338 121.169 46.4277 121.39 46.4794 121.614C46.614 122.183 46.7692 122.328 47.3143 122.28C47.4765 122.266 47.7042 122.152 47.7594 122.024C47.8146 121.897 47.7214 121.676 47.6421 121.524C47.4696 121.189 47.2557 120.879 47.0763 120.548C46.9279 120.275 46.8141 119.985 46.6381 119.606ZM174.447 126.092C175.116 125.899 175.72 125.702 175.889 124.967C175.999 124.488 176.027 124.022 175.661 123.58C175.437 123.932 175.275 124.284 175.026 124.55C174.778 124.819 174.44 125.002 174.133 125.229C174.233 125.505 174.333 125.778 174.447 126.092ZM166.636 127.23H164.997C164.959 128.296 165.987 128.883 166.967 128.39C166.857 128.003 166.746 127.62 166.636 127.23ZM163.952 124.008C163.6 123.525 163.4 123.673 163.1 123.915C163.034 123.967 162.969 124.022 162.907 124.077C162.472 124.457 162.399 124.674 162.555 125.112C162.741 125.637 163.252 126.04 163.724 126.033C163.628 125.272 163.705 124.597 163.955 124.008H163.952ZM168.233 125.064C168.233 125.064 168.264 125.067 168.282 125.071C168.282 125.174 168.275 125.281 168.282 125.385C168.327 125.868 168.513 126.006 168.985 125.916C169.468 125.826 169.869 125.081 169.679 124.615C169.651 124.543 169.589 124.474 169.524 124.426C169.317 124.281 169.106 124.143 168.889 124.015C168.658 123.877 168.475 123.946 168.402 124.201C168.327 124.481 168.285 124.774 168.226 125.06L168.233 125.064ZM98.1742 57.4369C97.9051 57.3334 97.7257 57.2679 97.5532 57.2023C97.36 57.1264 97.1668 57.0471 96.9667 56.9677C96.6321 57.2196 96.4113 57.5301 96.325 57.9061C96.294 58.0407 96.3388 58.2649 96.4354 58.3512C96.808 58.6789 97.5049 58.5823 97.7913 58.1752C97.9327 57.9751 98.0224 57.7336 98.1742 57.4404V57.4369ZM100.665 55.6119C101.007 55.2772 101.114 54.915 101.165 54.5389C101.221 54.1284 101.045 53.7903 100.717 53.5488C100.344 53.2728 100.061 53.3935 100.02 53.8558C99.9613 54.5251 100.296 55.053 100.665 55.6084V55.6119ZM107.413 57.4852C107.486 57.8785 107.562 58.2822 107.638 58.6962C108.141 58.6341 108.617 58.5754 109.145 58.5099C109.162 58.1994 109.18 57.8923 109.194 57.6267C108.566 57.5749 107.993 57.5301 107.413 57.4852ZM168.944 116.428C169.299 116.708 169.648 116.918 169.914 117.208C170.169 117.484 170.334 117.84 170.562 118.202C170.783 117.643 170.707 117.143 170.497 116.673C170.221 116.056 169.496 115.932 168.944 116.432V116.428ZM169.458 121.196C169.782 121.172 169.996 121.176 170.2 121.141C170.655 121.065 170.838 120.882 170.821 120.558C170.804 120.199 170.503 119.865 170.152 119.809C169.851 119.765 169.641 119.872 169.575 120.168C169.51 120.472 169.503 120.786 169.458 121.193V121.196ZM49.5465 120.751C49.5465 120.548 49.5465 120.382 49.5465 120.217C49.5465 120.11 49.5396 120.003 49.5223 119.899C49.4844 119.654 49.3809 119.413 49.1187 119.399C48.9082 119.389 48.6495 119.451 48.4873 119.575C48.2769 119.737 48.2458 120.003 48.37 120.268C48.5805 120.724 48.7978 120.827 49.5499 120.751H49.5465ZM164.839 117.926C164.397 117.843 164.031 117.919 163.845 118.26C163.6 118.716 163.686 119.188 163.986 119.613C164.476 119.437 164.78 119.175 164.732 118.626C164.714 118.423 164.794 118.212 164.842 117.926H164.839ZM107.475 56.1018C107.707 56.4882 108.403 56.6986 108.776 56.4364C109.073 56.2294 109.211 55.9224 109.169 55.5601C109.128 55.2048 108.89 55.1185 108.6 55.3255C108.231 55.5912 107.851 55.8396 107.475 56.0983V56.1018ZM166.039 118.633C166.584 118.595 167.078 118.561 167.592 118.523C167.499 118.122 167.412 117.76 167.326 117.405C166.633 117.405 166.274 117.739 166.039 118.633ZM105.016 56.433C105.568 56.5468 106.064 56.6538 106.554 56.7538C106.589 55.812 105.913 55.6222 105.254 55.3635C105.171 55.7395 105.098 56.0673 105.019 56.433H105.016ZM48.1561 128.007C48.132 128.045 48.1078 128.083 48.0802 128.124C48.2217 128.179 48.3631 128.262 48.508 128.279C48.822 128.317 49.1428 128.365 49.4533 128.331C49.8225 128.29 50.1951 128.196 50.5366 128.062C50.6712 128.01 50.7885 127.782 50.8126 127.62C50.8575 127.327 50.7436 127.061 50.4987 126.851C49.8087 128 49.7362 128.414 48.1527 128.01L48.1561 128.007ZM48.0768 126.223C48.2976 126.62 48.6115 126.827 49.0186 126.889C49.3878 126.385 49.3878 125.957 49.0186 125.719C48.684 125.502 48.3493 125.485 48.0768 126.22V126.223ZM167.968 115.6C167.333 114.962 166.671 115.214 166.339 116.177C166.691 116.149 167.047 116.09 167.398 116.097C167.743 116.104 167.895 115.939 167.968 115.597V115.6ZM106.22 54.463C107.041 55.0426 107.593 54.9736 107.945 54.2974C107.572 54.1663 107.203 54.0387 106.82 53.9041C106.627 54.0835 106.447 54.2526 106.22 54.463ZM115.086 55.2358C114.413 55.4566 114.037 55.9465 113.692 56.533C114.61 56.6986 115.276 56.0742 115.086 55.2358ZM169.934 123.146C170.145 122.811 170.355 122.473 170.617 122.055H169.389C169.141 122.707 169.165 122.763 169.934 123.146ZM57.2572 120.42C57.7264 120.844 58.1404 121.221 58.5717 121.61V120.21C58.1094 120.286 57.7023 120.348 57.2572 120.42ZM46.1068 129.594C46.1586 129.566 46.2069 129.542 46.2586 129.514C46.0654 128.931 45.8722 128.348 45.6825 127.776C45.2064 127.838 45.1408 127.879 45.1857 128.193C45.2685 128.811 45.6169 129.256 46.1068 129.594ZM171.104 123.691C171.828 123.825 172.125 123.739 172.28 123.318C172.335 123.173 172.315 122.911 172.218 122.821C172.122 122.732 171.849 122.728 171.721 122.804C171.411 122.983 171.207 123.277 171.104 123.687V123.691ZM172.829 117.191C172.674 116.432 172.339 116.17 171.642 116.215C171.725 116.518 171.804 116.815 171.894 117.143C172.197 117.16 172.484 117.174 172.829 117.191ZM45.6997 123.139C45.6135 123.711 45.6928 123.981 45.9447 124.074C46.2414 124.181 46.5898 123.936 46.8313 123.425C46.4484 123.328 46.0792 123.235 45.6997 123.142V123.139ZM102.766 56.6158C102.814 56.6538 102.866 56.6883 102.915 56.7262C103.48 56.6365 103.743 56.2191 103.915 55.7257C103.946 55.6326 103.901 55.4428 103.832 55.4049C103.756 55.3635 103.556 55.4049 103.504 55.4739C103.242 55.843 103.011 56.2329 102.77 56.6124L102.766 56.6158ZM166.46 119.889C166.715 120.327 166.988 120.575 167.402 120.579C167.523 120.579 167.733 120.475 167.747 120.389C167.771 120.258 167.706 120.051 167.605 119.968C167.285 119.706 166.919 119.747 166.457 119.889H166.46ZM45.3513 85.3647C45.0511 85.7994 45.0442 86.1582 45.1546 86.5204C45.2133 86.7171 45.3823 86.8275 45.5997 86.7412C45.7756 86.6722 45.8688 86.5342 45.7894 86.341C45.6652 86.0443 45.5272 85.7511 45.3513 85.3647ZM167.657 123.052C167.34 122.866 167.064 122.742 166.802 122.98C166.574 123.19 166.57 123.449 166.798 123.711C167.188 123.653 167.44 123.439 167.657 123.052ZM56.3568 124.853C56.6845 125.026 57.3745 125.112 57.5539 124.988C57.6126 124.95 57.6091 124.819 57.6747 124.591C57.1951 124.798 56.7604 124.546 56.3533 124.853H56.3568ZM102.552 58.9411C102.601 58.9446 102.645 58.948 102.694 58.9549C102.794 58.6927 102.89 58.434 103.011 58.12C102.849 58.0959 102.749 58.0648 102.656 58.0717C102.58 58.0752 102.504 58.12 102.373 58.1683C102.435 58.4409 102.494 58.6927 102.552 58.9446V58.9411ZM102.432 54.6355C102.863 54.3043 102.859 54.294 102.366 54.0697C102.387 54.2629 102.407 54.4354 102.432 54.6355ZM98.0914 56.0431C98.1225 55.9914 98.157 55.9362 98.188 55.8844C98.0224 55.774 97.9362 55.5049 97.5084 55.6809C97.7568 55.8361 97.9258 55.9396 98.0914 56.0431ZM58.8615 122.583C58.7994 122.776 58.7166 122.977 59.0547 123.166C58.965 122.894 58.9132 122.739 58.8615 122.583ZM109.476 53.8282C109.442 53.7799 109.407 53.7282 109.376 53.6799C109.266 53.7696 109.159 53.8593 109.049 53.949C109.073 53.9835 109.1 54.0145 109.125 54.049C109.242 53.9766 109.359 53.9041 109.476 53.8282ZM168.875 117.857C168.827 117.898 168.782 117.943 168.734 117.984C168.854 118.122 168.975 118.257 169.096 118.395C169.141 118.357 169.182 118.319 169.227 118.281C169.11 118.14 168.992 117.998 168.875 117.857Z" fill="#47567B"/>
</g>
<rect x="1.5" y="1.5" width="200" height="200" rx="100" stroke="#47567B" stroke-width="3"/>
<defs>
<clipPath id="clip0_1972_83518">
<rect width="203" height="203" rx="101.5" fill="white"/>
</clipPath>
</defs>
</svg>
